<?xml version="1.0" encoding="UTF-8" standalone="no"?>
<!DOCTYPE svg PUBLIC "-//W3C//DTD SVG 1.1//EN"
 "http://www.w3.org/Graphics/SVG/1.1/DTD/svg11.dtd">
<!-- Generated by graphviz version 3.0.0 (20221109.1736)
 -->
<!-- Title: objects.Obstacle Pages: 1 -->
<svg width="647pt" height="766pt"
 viewBox="0.00 0.00 646.50 766.00" xmlns="http://www.w3.org/2000/svg" xmlns:xlink="http://www.w3.org/1999/xlink">
<g id="graph0" class="graph" transform="scale(1 1) rotate(0) translate(4 762)">
<title>objects.Obstacle</title>
<polygon fill="white" stroke="transparent" points="-4,4 -4,-762 642.5,-762 642.5,4 -4,4"/>
<!-- Node1 -->
<g id="node1" class="node">
<title>Node1</title>
<g id="a_node1"><a xlink:title=" ">
<polygon fill="#bfbfbf" stroke="black" points="170.5,-160.5 170.5,-250.5 412.5,-250.5 412.5,-160.5 170.5,-160.5"/>
<text text-anchor="middle" x="291.5" y="-238.5" font-family="Helvetica,sans-Serif" font-size="10.00">objects.Obstacle</text>
<polyline fill="none" stroke="black" points="170.5,-231.5 412.5,-231.5 "/>
<text text-anchor="start" x="178.5" y="-219.5" font-family="Helvetica,sans-Serif" font-size="10.00">+ static final double obestacleWidth</text>
<polyline fill="none" stroke="black" points="170.5,-212.5 412.5,-212.5 "/>
<text text-anchor="start" x="178.5" y="-200.5" font-family="Helvetica,sans-Serif" font-size="10.00">+ Obstacle(Block.Lane lane, double y, double length)</text>
<text text-anchor="start" x="178.5" y="-189.5" font-family="Helvetica,sans-Serif" font-size="10.00">+ void addY(double diff)</text>
<text text-anchor="start" x="178.5" y="-178.5" font-family="Helvetica,sans-Serif" font-size="10.00">+ boolean isOffTheScreen()</text>
<text text-anchor="start" x="178.5" y="-167.5" font-family="Helvetica,sans-Serif" font-size="10.00">+ void Draw()</text>
</a>
</g>
</g>
<!-- Node4 -->
<g id="node4" class="node">
<title>Node4</title>
<g id="a_node4"><a xlink:href="classobjects_1_1RoadBlock.html" target="_top" xlink:title=" ">
<polygon fill="white" stroke="black" points="0,-33.5 0,-90.5 179,-90.5 179,-33.5 0,-33.5"/>
<text text-anchor="middle" x="89.5" y="-78.5" font-family="Helvetica,sans-Serif" font-size="10.00">objects.RoadBlock</text>
<polyline fill="none" stroke="black" points="0,-71.5 179,-71.5 "/>
<text text-anchor="start" x="8" y="-59.5" font-family="Helvetica,sans-Serif" font-size="10.00">+ static final double RoadBlockLength</text>
<polyline fill="none" stroke="black" points="0,-52.5 179,-52.5 "/>
<text text-anchor="start" x="8" y="-40.5" font-family="Helvetica,sans-Serif" font-size="10.00">+ RoadBlock(Block.Lane lane)</text>
</a>
</g>
</g>
<!-- Node1&#45;&gt;Node4 -->
<g id="edge3" class="edge">
<title>Node1&#45;&gt;Node4</title>
<path fill="none" stroke="midnightblue" d="M219.91,-154.35C189.32,-132.92 154.79,-108.74 128.95,-90.64"/>
<polygon fill="none" stroke="midnightblue" points="218.22,-157.44 228.42,-160.31 222.23,-151.71 218.22,-157.44"/>
</g>
<!-- Node5 -->
<g id="node5" class="node">
<title>Node5</title>
<g id="a_node5"><a xlink:href="classobjects_1_1Trailer.html" target="_top" xlink:title=" ">
<polygon fill="white" stroke="black" points="197,-6 197,-118 386,-118 386,-6 197,-6"/>
<text text-anchor="middle" x="291.5" y="-106" font-family="Helvetica,sans-Serif" font-size="10.00">objects.Trailer</text>
<polyline fill="none" stroke="black" points="197,-99 386,-99 "/>
<text text-anchor="start" x="205" y="-87" font-family="Helvetica,sans-Serif" font-size="10.00">+ static final double singleTrailerLength</text>
<text text-anchor="start" x="205" y="-76" font-family="Helvetica,sans-Serif" font-size="10.00">+ static final int maxNumberOfTrailers</text>
<text text-anchor="start" x="205" y="-65" font-family="Helvetica,sans-Serif" font-size="10.00"># final int TrailerCount</text>
<polyline fill="none" stroke="black" points="197,-58 386,-58 "/>
<text text-anchor="start" x="205" y="-46" font-family="Helvetica,sans-Serif" font-size="10.00">+ Trailer(Block.Lane lane, int count)</text>
<text text-anchor="start" x="205" y="-35" font-family="Helvetica,sans-Serif" font-size="10.00">+ Trailer(Block.Lane lane)</text>
<text text-anchor="start" x="205" y="-24" font-family="Helvetica,sans-Serif" font-size="10.00">+ Trailer(Block.Lane lane, double length)</text>
<text text-anchor="start" x="205" y="-13" font-family="Helvetica,sans-Serif" font-size="10.00">+ void Draw()</text>
</a>
</g>
</g>
<!-- Node1&#45;&gt;Node5 -->
<g id="edge4" class="edge">
<title>Node1&#45;&gt;Node5</title>
<path fill="none" stroke="midnightblue" d="M291.5,-149.91C291.5,-139.51 291.5,-128.61 291.5,-118.19"/>
<polygon fill="none" stroke="midnightblue" points="288,-150.12 291.5,-160.12 295,-150.12 288,-150.12"/>
</g>
<!-- Node6 -->
<g id="node6" class="node">
<title>Node6</title>
<g id="a_node6"><a xlink:href="classobjects_1_1TrailerWithRamp.html" target="_top" xlink:title=" ">
<polygon fill="white" stroke="black" points="404.5,-0.5 404.5,-123.5 638.5,-123.5 638.5,-0.5 404.5,-0.5"/>
<text text-anchor="middle" x="521.5" y="-111.5" font-family="Helvetica,sans-Serif" font-size="10.00">objects.TrailerWithRamp</text>
<polyline fill="none" stroke="black" points="404.5,-104.5 638.5,-104.5 "/>
<text text-anchor="start" x="412.5" y="-92.5" font-family="Helvetica,sans-Serif" font-size="10.00">+ static final double rampSize</text>
<text text-anchor="start" x="412.5" y="-81.5" font-family="Helvetica,sans-Serif" font-size="10.00"># final int trailerCount</text>
<text text-anchor="start" x="412.5" y="-70.5" font-family="Helvetica,sans-Serif" font-size="10.00">&#45; Trailer trailer</text>
<text text-anchor="start" x="412.5" y="-59.5" font-family="Helvetica,sans-Serif" font-size="10.00">&#45; Obstacle ramp</text>
<polyline fill="none" stroke="black" points="404.5,-52.5 638.5,-52.5 "/>
<text text-anchor="start" x="412.5" y="-40.5" font-family="Helvetica,sans-Serif" font-size="10.00">+ TrailerWithRamp(Block.Lane lane, double length)</text>
<text text-anchor="start" x="412.5" y="-29.5" font-family="Helvetica,sans-Serif" font-size="10.00">+ TrailerWithRamp(Block.Lane lane)</text>
<text text-anchor="start" x="412.5" y="-18.5" font-family="Helvetica,sans-Serif" font-size="10.00">+ void setLane(Block.Lane lane)</text>
<text text-anchor="start" x="412.5" y="-7.5" font-family="Helvetica,sans-Serif" font-size="10.00">+ void Draw()</text>
</a>
</g>
</g>
<!-- Node1&#45;&gt;Node6 -->
<g id="edge5" class="edge">
<title>Node1&#45;&gt;Node6</title>
<path fill="none" stroke="midnightblue" d="M372.29,-154.8C388.61,-144.75 405.96,-134.08 422.82,-123.71"/>
<polygon fill="none" stroke="midnightblue" points="370.01,-152.09 363.33,-160.31 373.68,-158.05 370.01,-152.09"/>
</g>
<!-- Node2 -->
<g id="node2" class="node">
<title>Node2</title>
<g id="a_node2"><a xlink:href="classobjects_1_1GameLaneObject.html" target="_top" xlink:title=" ">
<polygon fill="white" stroke="black" points="122.5,-287.5 122.5,-421.5 460.5,-421.5 460.5,-287.5 122.5,-287.5"/>
<text text-anchor="middle" x="291.5" y="-409.5" font-family="Helvetica,sans-Serif" font-size="10.00">objects.GameLaneObject</text>
<polyline fill="none" stroke="black" points="122.5,-402.5 460.5,-402.5 "/>
<text text-anchor="start" x="130.5" y="-390.5" font-family="Helvetica,sans-Serif" font-size="10.00"># Block.Lane lane</text>
<polyline fill="none" stroke="black" points="122.5,-383.5 460.5,-383.5 "/>
<text text-anchor="start" x="130.5" y="-371.5" font-family="Helvetica,sans-Serif" font-size="10.00">+ GameLaneObject(Block.Lane lane, double y, double width, double length)</text>
<text text-anchor="start" x="130.5" y="-360.5" font-family="Helvetica,sans-Serif" font-size="10.00">+ GameLaneObject(Block.Lane lane, double y, double cubeLength)</text>
<text text-anchor="start" x="130.5" y="-349.5" font-family="Helvetica,sans-Serif" font-size="10.00">+ void setLane(Block.Lane path)</text>
<text text-anchor="start" x="130.5" y="-338.5" font-family="Helvetica,sans-Serif" font-size="10.00">+ Block.Lane getLane()</text>
<text text-anchor="start" x="130.5" y="-327.5" font-family="Helvetica,sans-Serif" font-size="10.00">+ void Draw()</text>
<text text-anchor="start" x="130.5" y="-316.5" font-family="Helvetica,sans-Serif" font-size="10.00">+ boolean contains(Block.Lane lane, double y)</text>
<text text-anchor="start" x="130.5" y="-305.5" font-family="Helvetica,sans-Serif" font-size="10.00">+ boolean touches(GameLaneObject other)</text>
<text text-anchor="start" x="130.5" y="-294.5" font-family="Helvetica,sans-Serif" font-size="10.00">+ double distance(GameLaneObject other)</text>
</a>
</g>
</g>
<!-- Node2&#45;&gt;Node1 -->
<g id="edge1" class="edge">
<title>Node2&#45;&gt;Node1</title>
<path fill="none" stroke="midnightblue" d="M291.5,-277.15C291.5,-268.15 291.5,-259.2 291.5,-250.85"/>
<polygon fill="none" stroke="midnightblue" points="288,-277.31 291.5,-287.31 295,-277.31 288,-277.31"/>
</g>
<!-- Node3 -->
<g id="node3" class="node">
<title>Node3</title>
<g id="a_node3"><a xlink:href="classobjects_1_1GameObject.html" target="_top" xlink:title=" ">
<polygon fill="white" stroke="black" points="133,-458.5 133,-757.5 450,-757.5 450,-458.5 133,-458.5"/>
<text text-anchor="middle" x="291.5" y="-745.5" font-family="Helvetica,sans-Serif" font-size="10.00">objects.GameObject</text>
<polyline fill="none" stroke="black" points="133,-738.5 450,-738.5 "/>
<text text-anchor="start" x="141" y="-726.5" font-family="Helvetica,sans-Serif" font-size="10.00"># Color color</text>
<text text-anchor="start" x="141" y="-715.5" font-family="Helvetica,sans-Serif" font-size="10.00"># Image image</text>
<text text-anchor="start" x="141" y="-704.5" font-family="Helvetica,sans-Serif" font-size="10.00"># Block.Lane lane</text>
<text text-anchor="start" x="141" y="-693.5" font-family="Helvetica,sans-Serif" font-size="10.00"># double x</text>
<text text-anchor="start" x="141" y="-682.5" font-family="Helvetica,sans-Serif" font-size="10.00"># double y</text>
<text text-anchor="start" x="141" y="-671.5" font-family="Helvetica,sans-Serif" font-size="10.00"># double width</text>
<text text-anchor="start" x="141" y="-660.5" font-family="Helvetica,sans-Serif" font-size="10.00"># double length</text>
<polyline fill="none" stroke="black" points="133,-653.5 450,-653.5 "/>
<text text-anchor="start" x="141" y="-641.5" font-family="Helvetica,sans-Serif" font-size="10.00">+ GameObject(double x, double y, double width, double length)</text>
<text text-anchor="start" x="141" y="-630.5" font-family="Helvetica,sans-Serif" font-size="10.00">+ GameObject(Block.Lane lane, double y, double width, double length)</text>
<text text-anchor="start" x="141" y="-619.5" font-family="Helvetica,sans-Serif" font-size="10.00">+ GameObject(Block.Lane lane, double y, double cubeLength)</text>
<text text-anchor="start" x="141" y="-608.5" font-family="Helvetica,sans-Serif" font-size="10.00">+ GameObject(double x, double y, double cubeLength)</text>
<text text-anchor="start" x="141" y="-597.5" font-family="Helvetica,sans-Serif" font-size="10.00">+ double getWidth()</text>
<text text-anchor="start" x="141" y="-586.5" font-family="Helvetica,sans-Serif" font-size="10.00">+ double getLength()</text>
<text text-anchor="start" x="141" y="-575.5" font-family="Helvetica,sans-Serif" font-size="10.00">+ void setColor(Color color)</text>
<text text-anchor="start" x="141" y="-564.5" font-family="Helvetica,sans-Serif" font-size="10.00">+ void setLane(Block.Lane path)</text>
<text text-anchor="start" x="141" y="-553.5" font-family="Helvetica,sans-Serif" font-size="10.00">+ Block.Lane getLane()</text>
<text text-anchor="start" x="141" y="-542.5" font-family="Helvetica,sans-Serif" font-size="10.00">+ void setX(double x)</text>
<text text-anchor="start" x="141" y="-531.5" font-family="Helvetica,sans-Serif" font-size="10.00">+ void setY(double y)</text>
<text text-anchor="start" x="141" y="-520.5" font-family="Helvetica,sans-Serif" font-size="10.00">+ double getY()</text>
<text text-anchor="start" x="141" y="-509.5" font-family="Helvetica,sans-Serif" font-size="10.00">+ double getX()</text>
<text text-anchor="start" x="141" y="-498.5" font-family="Helvetica,sans-Serif" font-size="10.00">+ void Draw()</text>
<text text-anchor="start" x="141" y="-487.5" font-family="Helvetica,sans-Serif" font-size="10.00">+ boolean interesects(double x, double y)</text>
<text text-anchor="start" x="141" y="-476.5" font-family="Helvetica,sans-Serif" font-size="10.00">+ boolean interesects(Block.Lane lane, double y)</text>
<text text-anchor="start" x="141" y="-465.5" font-family="Helvetica,sans-Serif" font-size="10.00">+ boolean touches(GameObject other)</text>
</a>
</g>
</g>
<!-- Node3&#45;&gt;Node2 -->
<g id="edge2" class="edge">
<title>Node3&#45;&gt;Node2</title>
<path fill="none" stroke="midnightblue" d="M291.5,-448.09C291.5,-438.9 291.5,-429.97 291.5,-421.5"/>
<polygon fill="none" stroke="midnightblue" points="288,-448.16 291.5,-458.16 295,-448.16 288,-448.16"/>
</g>
</g>
</svg>
