<?xml version="1.0" encoding="UTF-8" standalone="no"?>
<!DOCTYPE svg PUBLIC "-//W3C//DTD SVG 1.1//EN"
 "http://www.w3.org/Graphics/SVG/1.1/DTD/svg11.dtd">
<!-- Generated by graphviz version 8.0.3 (0)
 -->
<!-- Title: logic.Logic Pages: 1 -->
<svg width="1449pt" height="1714pt"
 viewBox="0.00 0.00 1449.00 1714.00" xmlns="http://www.w3.org/2000/svg" xmlns:xlink="http://www.w3.org/1999/xlink">
<g id="graph0" class="graph" transform="scale(1 1) rotate(0) translate(4 1710)">
<title>logic.Logic</title>
<!-- Node1 -->
<g id="node1" class="node">
<title>Node1</title>
<g id="a_node1"><a xlink:title=" ">
<polygon fill="#999999" stroke="#666666" points="523.5,-0.5 523.5,-167.5 716.5,-167.5 716.5,-0.5 523.5,-0.5"/>
<text text-anchor="middle" x="620" y="-155.5" font-family="Helvetica,sans-Serif" font-size="10.00">logic.Logic</text>
<polyline fill="none" stroke="#666666" points="523.5,-148.5 716.5,-148.5"/>
<text text-anchor="start" x="531.5" y="-136.5" font-family="Helvetica,sans-Serif" font-size="10.00">&#45; final double canvasWidth</text>
<text text-anchor="start" x="531.5" y="-125.5" font-family="Helvetica,sans-Serif" font-size="10.00">&#45; final double canvasHeight</text>
<text text-anchor="start" x="531.5" y="-114.5" font-family="Helvetica,sans-Serif" font-size="10.00">&#45; boolean playerDied</text>
<text text-anchor="start" x="531.5" y="-103.5" font-family="Helvetica,sans-Serif" font-size="10.00">&#45; long last1000Millisecond</text>
<polyline fill="none" stroke="#666666" points="523.5,-96.5 716.5,-96.5"/>
<text text-anchor="start" x="531.5" y="-84.5" font-family="Helvetica,sans-Serif" font-size="10.00">+ Logic(GraphicsContext gc)</text>
<text text-anchor="start" x="531.5" y="-73.5" font-family="Helvetica,sans-Serif" font-size="10.00">+ void tick(Long now)</text>
<text text-anchor="start" x="531.5" y="-62.5" font-family="Helvetica,sans-Serif" font-size="10.00">+ boolean playerCollision()</text>
<text text-anchor="start" x="531.5" y="-51.5" font-family="Helvetica,sans-Serif" font-size="10.00">+ Obstacle getPlayerTouchingObstacle()</text>
<text text-anchor="start" x="531.5" y="-40.5" font-family="Helvetica,sans-Serif" font-size="10.00">+ Player.Level getPlayerLevel()</text>
<text text-anchor="start" x="531.5" y="-29.5" font-family="Helvetica,sans-Serif" font-size="10.00">+ static Bounderies getBounderies()</text>
<text text-anchor="start" x="531.5" y="-18.5" font-family="Helvetica,sans-Serif" font-size="10.00">&#45; void playerDied()</text>
<text text-anchor="start" x="531.5" y="-7.5" font-family="Helvetica,sans-Serif" font-size="10.00">&#45; void startPlayer()</text>
</a>
</g>
</g>
<!-- Node2 -->
<g id="node2" class="node">
<title>Node2</title>
<g id="a_node2"><a xlink:title=" ">
<polygon fill="white" stroke="#666666" points="0,-413.5 0,-470.5 90,-470.5 90,-413.5 0,-413.5"/>
<text text-anchor="middle" x="45" y="-458.5" font-family="Helvetica,sans-Serif" font-size="10.00">GraphicsContext</text>
<polyline fill="none" stroke="#666666" points="0,-451.5 90,-451.5"/>
<text text-anchor="middle" x="45" y="-439.5" font-family="Helvetica,sans-Serif" font-size="10.00"> </text>
<polyline fill="none" stroke="#666666" points="0,-432.5 90,-432.5"/>
<text text-anchor="middle" x="45" y="-420.5" font-family="Helvetica,sans-Serif" font-size="10.00"> </text>
</a>
</g>
</g>
<!-- Node2&#45;&gt;Node1 -->
<g id="edge1" class="edge">
<title>Node2&#45;&gt;Node1</title>
<path fill="none" stroke="#404040" d="M43.14,-413.8C41.49,-366.54 45.36,-269.18 99,-215 155.99,-157.44 375.66,-118.12 510.91,-98.81"/>
<polygon fill="none" stroke="#404040" points="510.95,-98.8 516.33,-94 522.83,-97.12 517.45,-101.92 510.95,-98.8"/>
<text text-anchor="middle" x="154" y="-189" font-family="Helvetica,sans-Serif" font-size="10.00"> +gc</text>
</g>
<!-- Node3 -->
<g id="node3" class="node">
<title>Node3</title>
<g id="a_node3"><a xlink:href="classobjects_1_1Ground.html" target="_top" xlink:title=" ">
<polygon fill="white" stroke="#666666" points="413,-857 413,-947 637,-947 637,-857 413,-857"/>
<text text-anchor="middle" x="525" y="-935" font-family="Helvetica,sans-Serif" font-size="10.00">objects.Ground</text>
<polyline fill="none" stroke="#666666" points="413,-928 637,-928"/>
<text text-anchor="start" x="421" y="-916" font-family="Helvetica,sans-Serif" font-size="10.00">+ static final double laneImageWidth</text>
<text text-anchor="start" x="421" y="-905" font-family="Helvetica,sans-Serif" font-size="10.00">&#45; double yDisplacement</text>
<polyline fill="none" stroke="#666666" points="413,-898 637,-898"/>
<text text-anchor="start" x="421" y="-886" font-family="Helvetica,sans-Serif" font-size="10.00">+ Ground(double x, double width, double length)</text>
<text text-anchor="start" x="421" y="-875" font-family="Helvetica,sans-Serif" font-size="10.00">+ void frameUpdate()</text>
<text text-anchor="start" x="421" y="-864" font-family="Helvetica,sans-Serif" font-size="10.00">+ void Draw()</text>
</a>
</g>
</g>
<!-- Node3&#45;&gt;Node1 -->
<g id="edge2" class="edge">
<title>Node3&#45;&gt;Node1</title>
<path fill="none" stroke="#404040" d="M531.92,-857.06C539.06,-810.48 550.09,-734.71 557,-669 578.17,-467.8 559.83,-415.05 590,-215 591.72,-203.56 593.92,-191.64 596.33,-179.86"/>
<polygon fill="none" stroke="#404040" points="596.35,-179.78 593.68,-173.08 598.84,-168.04 601.51,-174.74 596.35,-179.78"/>
<text text-anchor="middle" x="608" y="-439.5" font-family="Helvetica,sans-Serif" font-size="10.00"> &#45;ground</text>
</g>
<!-- Node4 -->
<g id="node4" class="node">
<title>Node4</title>
<g id="a_node4"><a xlink:href="classobjects_1_1GameObject.html" target="_top" xlink:title=" ">
<polygon fill="white" stroke="#666666" points="550.5,-1011.5 550.5,-1288.5 873.5,-1288.5 873.5,-1011.5 550.5,-1011.5"/>
<text text-anchor="middle" x="712" y="-1276.5" font-family="Helvetica,sans-Serif" font-size="10.00">objects.GameObject</text>
<polyline fill="none" stroke="#666666" points="550.5,-1269.5 873.5,-1269.5"/>
<text text-anchor="start" x="558.5" y="-1257.5" font-family="Helvetica,sans-Serif" font-size="10.00"># double x</text>
<text text-anchor="start" x="558.5" y="-1246.5" font-family="Helvetica,sans-Serif" font-size="10.00"># double y</text>
<text text-anchor="start" x="558.5" y="-1235.5" font-family="Helvetica,sans-Serif" font-size="10.00"># double width</text>
<text text-anchor="start" x="558.5" y="-1224.5" font-family="Helvetica,sans-Serif" font-size="10.00"># double length</text>
<polyline fill="none" stroke="#666666" points="550.5,-1217.5 873.5,-1217.5"/>
<text text-anchor="start" x="558.5" y="-1205.5" font-family="Helvetica,sans-Serif" font-size="10.00">+ GameObject(double x, double y, double width, double length)</text>
<text text-anchor="start" x="558.5" y="-1194.5" font-family="Helvetica,sans-Serif" font-size="10.00">+ GameObject(Block.Lane lane, double y, double width, double length)</text>
<text text-anchor="start" x="558.5" y="-1183.5" font-family="Helvetica,sans-Serif" font-size="10.00">+ GameObject(Block.Lane lane, double y, double cubeLength)</text>
<text text-anchor="start" x="558.5" y="-1172.5" font-family="Helvetica,sans-Serif" font-size="10.00">+ GameObject(double x, double y, double cubeLength)</text>
<text text-anchor="start" x="558.5" y="-1161.5" font-family="Helvetica,sans-Serif" font-size="10.00">+ double getWidth()</text>
<text text-anchor="start" x="558.5" y="-1150.5" font-family="Helvetica,sans-Serif" font-size="10.00">+ double getLength()</text>
<text text-anchor="start" x="558.5" y="-1139.5" font-family="Helvetica,sans-Serif" font-size="10.00">+ void setColor(Color color)</text>
<text text-anchor="start" x="558.5" y="-1128.5" font-family="Helvetica,sans-Serif" font-size="10.00">+ void setLanePath(Block.Lane path)</text>
<text text-anchor="start" x="558.5" y="-1117.5" font-family="Helvetica,sans-Serif" font-size="10.00">+ Block.Lane getLane()</text>
<text text-anchor="start" x="558.5" y="-1106.5" font-family="Helvetica,sans-Serif" font-size="10.00">+ void setX(double x)</text>
<text text-anchor="start" x="558.5" y="-1095.5" font-family="Helvetica,sans-Serif" font-size="10.00">+ void setY(double y)</text>
<text text-anchor="start" x="558.5" y="-1084.5" font-family="Helvetica,sans-Serif" font-size="10.00">+ double getY()</text>
<text text-anchor="start" x="558.5" y="-1073.5" font-family="Helvetica,sans-Serif" font-size="10.00">+ double getX()</text>
<text text-anchor="start" x="558.5" y="-1062.5" font-family="Helvetica,sans-Serif" font-size="10.00">+ void Draw()</text>
<text text-anchor="start" x="558.5" y="-1051.5" font-family="Helvetica,sans-Serif" font-size="10.00">+ boolean interesects(double x, double y)</text>
<text text-anchor="start" x="558.5" y="-1040.5" font-family="Helvetica,sans-Serif" font-size="10.00">+ boolean interesects(Block.Lane lane, double y)</text>
<text text-anchor="start" x="558.5" y="-1029.5" font-family="Helvetica,sans-Serif" font-size="10.00">+ boolean touches(GameObject other)</text>
<text text-anchor="start" x="558.5" y="-1018.5" font-family="Helvetica,sans-Serif" font-size="10.00">+ boolean within(GameObject other)</text>
</a>
</g>
</g>
<!-- Node4&#45;&gt;Node3 -->
<g id="edge3" class="edge">
<title>Node4&#45;&gt;Node3</title>
<path fill="none" stroke="#63b8ff" d="M600.91,-1002.86C585.47,-982.55 570.7,-963.12 558.35,-946.88"/>
<polygon fill="none" stroke="#63b8ff" points="598.73,-1004.77 607.57,-1010.62 604.3,-1000.54 598.73,-1004.77"/>
</g>
<!-- Node14 -->
<g id="node14" class="node">
<title>Node14</title>
<g id="a_node14"><a xlink:href="classobjects_1_1GameLaneObject.html" target="_top" xlink:title=" ">
<polygon fill="white" stroke="#666666" points="693,-840.5 693,-963.5 1037,-963.5 1037,-840.5 693,-840.5"/>
<text text-anchor="middle" x="865" y="-951.5" font-family="Helvetica,sans-Serif" font-size="10.00">objects.GameLaneObject</text>
<polyline fill="none" stroke="#666666" points="693,-944.5 1037,-944.5"/>
<text text-anchor="middle" x="865" y="-932.5" font-family="Helvetica,sans-Serif" font-size="10.00"> </text>
<polyline fill="none" stroke="#666666" points="693,-925.5 1037,-925.5"/>
<text text-anchor="start" x="701" y="-913.5" font-family="Helvetica,sans-Serif" font-size="10.00">+ GameLaneObject(Block.Lane lane, double y, double width, double length)</text>
<text text-anchor="start" x="701" y="-902.5" font-family="Helvetica,sans-Serif" font-size="10.00">+ GameLaneObject(Block.Lane lane, double y, double cubeLength)</text>
<text text-anchor="start" x="701" y="-891.5" font-family="Helvetica,sans-Serif" font-size="10.00">+ void setLanePath(Block.Lane path)</text>
<text text-anchor="start" x="701" y="-880.5" font-family="Helvetica,sans-Serif" font-size="10.00">+ Block.Lane getLane()</text>
<text text-anchor="start" x="701" y="-869.5" font-family="Helvetica,sans-Serif" font-size="10.00">+ void Draw()</text>
<text text-anchor="start" x="701" y="-858.5" font-family="Helvetica,sans-Serif" font-size="10.00">+ boolean contains(Block.Lane lane, double y)</text>
<text text-anchor="start" x="701" y="-847.5" font-family="Helvetica,sans-Serif" font-size="10.00">+ boolean touches(GameLaneObject other)</text>
</a>
</g>
</g>
<!-- Node4&#45;&gt;Node14 -->
<g id="edge15" class="edge">
<title>Node4&#45;&gt;Node14</title>
<path fill="none" stroke="#63b8ff" d="M803.07,-1002.58C811.57,-988.91 819.82,-975.64 827.39,-963.48"/>
<polygon fill="none" stroke="#63b8ff" points="799.76,-1000.28 797.45,-1010.62 805.7,-1003.97 799.76,-1000.28"/>
</g>
<!-- Node17 -->
<g id="node17" class="node">
<title>Node17</title>
<g id="a_node17"><a xlink:href="classlogic_1_1Logic_1_1Score.html" target="_top" xlink:title=" ">
<polygon fill="white" stroke="#666666" points="599.5,-687.5 599.5,-821.5 740.5,-821.5 740.5,-687.5 599.5,-687.5"/>
<text text-anchor="middle" x="670" y="-809.5" font-family="Helvetica,sans-Serif" font-size="10.00">logic.Logic.Score</text>
<polyline fill="none" stroke="#666666" points="599.5,-802.5 740.5,-802.5"/>
<text text-anchor="start" x="607.5" y="-790.5" font-family="Helvetica,sans-Serif" font-size="10.00">+ static final double length</text>
<text text-anchor="start" x="607.5" y="-779.5" font-family="Helvetica,sans-Serif" font-size="10.00">+ static final double padding</text>
<text text-anchor="start" x="607.5" y="-768.5" font-family="Helvetica,sans-Serif" font-size="10.00">&#45; int currentScore</text>
<polyline fill="none" stroke="#666666" points="599.5,-761.5 740.5,-761.5"/>
<text text-anchor="start" x="607.5" y="-749.5" font-family="Helvetica,sans-Serif" font-size="10.00">+ void increaseScore(int diff)</text>
<text text-anchor="start" x="607.5" y="-738.5" font-family="Helvetica,sans-Serif" font-size="10.00">+ void incrementScore()</text>
<text text-anchor="start" x="607.5" y="-727.5" font-family="Helvetica,sans-Serif" font-size="10.00">+ int getScore()</text>
<text text-anchor="start" x="607.5" y="-716.5" font-family="Helvetica,sans-Serif" font-size="10.00">+ void resetScore()</text>
<text text-anchor="start" x="607.5" y="-705.5" font-family="Helvetica,sans-Serif" font-size="10.00">+ void Draw()</text>
<text text-anchor="start" x="607.5" y="-694.5" font-family="Helvetica,sans-Serif" font-size="10.00">~ Score()</text>
</a>
</g>
</g>
<!-- Node4&#45;&gt;Node17 -->
<g id="edge22" class="edge">
<title>Node4&#45;&gt;Node17</title>
<path fill="none" stroke="#63b8ff" d="M688.44,-1000.64C686.81,-988.26 685.3,-975.93 684,-964 678.81,-916.39 675.25,-862.45 673.02,-821.36"/>
<polygon fill="none" stroke="#63b8ff" points="685.1,-1001.07 689.9,-1010.52 692.04,-1000.14 685.1,-1001.07"/>
</g>
<!-- Node5 -->
<g id="node5" class="node">
<title>Node5</title>
<g id="a_node5"><a xlink:title=" ">
<polygon fill="white" stroke="#666666" points="1045,-1364 1045,-1421 1085,-1421 1085,-1364 1045,-1364"/>
<text text-anchor="middle" x="1065" y="-1409" font-family="Helvetica,sans-Serif" font-size="10.00">Color</text>
<polyline fill="none" stroke="#666666" points="1045,-1402 1085,-1402"/>
<text text-anchor="middle" x="1065" y="-1390" font-family="Helvetica,sans-Serif" font-size="10.00"> </text>
<polyline fill="none" stroke="#666666" points="1045,-1383 1085,-1383"/>
<text text-anchor="middle" x="1065" y="-1371" font-family="Helvetica,sans-Serif" font-size="10.00"> </text>
</a>
</g>
</g>
<!-- Node5&#45;&gt;Node4 -->
<g id="edge4" class="edge">
<title>Node5&#45;&gt;Node4</title>
<path fill="none" stroke="#404040" d="M1055.76,-1364.01C1051.19,-1354 1044.74,-1343.34 1036,-1336 983.14,-1291.62 949.02,-1321.25 888,-1289 886.78,-1288.35 885.55,-1287.7 884.33,-1287.03"/>
<polygon fill="none" stroke="#404040" points="884.58,-1287.18 877.39,-1287.72 874.12,-1281.29 881.31,-1280.75 884.58,-1287.18"/>
<text text-anchor="middle" x="1021" y="-1310" font-family="Helvetica,sans-Serif" font-size="10.00"> #color</text>
</g>
<!-- Node13 -->
<g id="node13" class="node">
<title>Node13</title>
<g id="a_node13"><a xlink:href="classobjects_1_1Player.html" target="_top" xlink:title=" ">
<polygon fill="white" stroke="#666666" points="969.5,-215.5 969.5,-668.5 1160.5,-668.5 1160.5,-215.5 969.5,-215.5"/>
<text text-anchor="middle" x="1065" y="-656.5" font-family="Helvetica,sans-Serif" font-size="10.00">objects.Player</text>
<polyline fill="none" stroke="#666666" points="969.5,-649.5 1160.5,-649.5"/>
<text text-anchor="start" x="977.5" y="-637.5" font-family="Helvetica,sans-Serif" font-size="10.00">+ boolean isClimbingRamp</text>
<text text-anchor="start" x="977.5" y="-626.5" font-family="Helvetica,sans-Serif" font-size="10.00">+ static final double playerLength</text>
<text text-anchor="start" x="977.5" y="-615.5" font-family="Helvetica,sans-Serif" font-size="10.00">+ static final int maxJumpFrames</text>
<text text-anchor="start" x="977.5" y="-604.5" font-family="Helvetica,sans-Serif" font-size="10.00">+ static final int maxJumpDistance</text>
<text text-anchor="start" x="977.5" y="-593.5" font-family="Helvetica,sans-Serif" font-size="10.00">+ static final int maxRampFrames</text>
<text text-anchor="start" x="977.5" y="-582.5" font-family="Helvetica,sans-Serif" font-size="10.00">+ static final double a</text>
<text text-anchor="start" x="977.5" y="-571.5" font-family="Helvetica,sans-Serif" font-size="10.00">+ static final double b</text>
<text text-anchor="start" x="977.5" y="-560.5" font-family="Helvetica,sans-Serif" font-size="10.00">&#45; Boolean alive</text>
<text text-anchor="start" x="977.5" y="-549.5" font-family="Helvetica,sans-Serif" font-size="10.00">&#45; Boolean isDying</text>
<text text-anchor="start" x="977.5" y="-538.5" font-family="Helvetica,sans-Serif" font-size="10.00">&#45; boolean jumping</text>
<text text-anchor="start" x="977.5" y="-527.5" font-family="Helvetica,sans-Serif" font-size="10.00">&#45; int currentJumpFrame</text>
<text text-anchor="start" x="977.5" y="-516.5" font-family="Helvetica,sans-Serif" font-size="10.00">&#45; int currentRunningFrame</text>
<text text-anchor="start" x="977.5" y="-505.5" font-family="Helvetica,sans-Serif" font-size="10.00">&#45; int currentDeathFrame</text>
<text text-anchor="start" x="977.5" y="-494.5" font-family="Helvetica,sans-Serif" font-size="10.00">&#45; int currentClimbingFrame</text>
<polyline fill="none" stroke="#666666" points="969.5,-487.5 1160.5,-487.5"/>
<text text-anchor="start" x="977.5" y="-475.5" font-family="Helvetica,sans-Serif" font-size="10.00">+ Player()</text>
<text text-anchor="start" x="977.5" y="-464.5" font-family="Helvetica,sans-Serif" font-size="10.00">+ Level getLevel()</text>
<text text-anchor="start" x="977.5" y="-453.5" font-family="Helvetica,sans-Serif" font-size="10.00">+ void setLevel(Level level)</text>
<text text-anchor="start" x="977.5" y="-442.5" font-family="Helvetica,sans-Serif" font-size="10.00">+ void moveLeft()</text>
<text text-anchor="start" x="977.5" y="-431.5" font-family="Helvetica,sans-Serif" font-size="10.00">+ void moveRight()</text>
<text text-anchor="start" x="977.5" y="-420.5" font-family="Helvetica,sans-Serif" font-size="10.00">+ void jumpUpdate()</text>
<text text-anchor="start" x="977.5" y="-409.5" font-family="Helvetica,sans-Serif" font-size="10.00">+ void setPlayerLevelLow()</text>
<text text-anchor="start" x="977.5" y="-398.5" font-family="Helvetica,sans-Serif" font-size="10.00">+ void setPlayerLevelHigh()</text>
<text text-anchor="start" x="977.5" y="-387.5" font-family="Helvetica,sans-Serif" font-size="10.00">+ void rampUpdate()</text>
<text text-anchor="start" x="977.5" y="-376.5" font-family="Helvetica,sans-Serif" font-size="10.00">+ void setDying()</text>
<text text-anchor="start" x="977.5" y="-365.5" font-family="Helvetica,sans-Serif" font-size="10.00">+ boolean isDying()</text>
<text text-anchor="start" x="977.5" y="-354.5" font-family="Helvetica,sans-Serif" font-size="10.00">+ void updateDeathAnimation()</text>
<text text-anchor="start" x="977.5" y="-343.5" font-family="Helvetica,sans-Serif" font-size="10.00">+ void playerUpdateAnimation()</text>
<text text-anchor="start" x="977.5" y="-332.5" font-family="Helvetica,sans-Serif" font-size="10.00">+ void jump()</text>
<text text-anchor="start" x="977.5" y="-321.5" font-family="Helvetica,sans-Serif" font-size="10.00">+ boolean isJumping()</text>
<text text-anchor="start" x="977.5" y="-310.5" font-family="Helvetica,sans-Serif" font-size="10.00">+ boolean isAlive()</text>
<text text-anchor="start" x="977.5" y="-299.5" font-family="Helvetica,sans-Serif" font-size="10.00">+ void die()</text>
<text text-anchor="start" x="977.5" y="-288.5" font-family="Helvetica,sans-Serif" font-size="10.00">+ void Draw()</text>
<text text-anchor="start" x="977.5" y="-277.5" font-family="Helvetica,sans-Serif" font-size="10.00">~ [static initializer]</text>
<text text-anchor="start" x="977.5" y="-266.5" font-family="Helvetica,sans-Serif" font-size="10.00">&#45; void setAnimations()</text>
<text text-anchor="start" x="977.5" y="-255.5" font-family="Helvetica,sans-Serif" font-size="10.00">&#45; void playerLengthIncrease(double diff)</text>
<text text-anchor="start" x="977.5" y="-244.5" font-family="Helvetica,sans-Serif" font-size="10.00">&#45; void playerLengthDecrease(double diff)</text>
<text text-anchor="start" x="977.5" y="-233.5" font-family="Helvetica,sans-Serif" font-size="10.00">&#45; double jumpCurrentValue(int frame)</text>
<text text-anchor="start" x="977.5" y="-222.5" font-family="Helvetica,sans-Serif" font-size="10.00">&#45; void updateRunningAnimation()</text>
</a>
</g>
</g>
<!-- Node5&#45;&gt;Node13 -->
<g id="edge17" class="edge">
<title>Node5&#45;&gt;Node13</title>
<path fill="none" stroke="#404040" d="M1065,-1364.14C1065,-1265.25 1065,-919.71 1065,-681.16"/>
<polygon fill="none" stroke="#404040" points="1065,-681.36 1061,-675.36 1065,-669.36 1069,-675.36 1065,-681.36"/>
<text text-anchor="middle" x="1093" y="-985" font-family="Helvetica,sans-Serif" font-size="10.00"> &#45;playerColor</text>
</g>
<!-- Node6 -->
<g id="node6" class="node">
<title>Node6</title>
<g id="a_node6"><a xlink:title=" ">
<polygon fill="white" stroke="#666666" points="561,-1364 561,-1421 605,-1421 605,-1364 561,-1364"/>
<text text-anchor="middle" x="583" y="-1409" font-family="Helvetica,sans-Serif" font-size="10.00">Image</text>
<polyline fill="none" stroke="#666666" points="561,-1402 605,-1402"/>
<text text-anchor="middle" x="583" y="-1390" font-family="Helvetica,sans-Serif" font-size="10.00"> </text>
<polyline fill="none" stroke="#666666" points="561,-1383 605,-1383"/>
<text text-anchor="middle" x="583" y="-1371" font-family="Helvetica,sans-Serif" font-size="10.00"> </text>
</a>
</g>
</g>
<!-- Node6&#45;&gt;Node3 -->
<g id="edge9" class="edge">
<title>Node6&#45;&gt;Node3</title>
<path fill="none" stroke="#404040" d="M561.21,-1364.23C546.96,-1344.59 529.63,-1316.75 522,-1289 490.75,-1175.39 503.84,-1035.75 515.11,-959.43"/>
<polygon fill="none" stroke="#404040" points="515.08,-959.59 512.04,-953.06 516.9,-947.73 519.94,-954.27 515.08,-959.59"/>
<text text-anchor="middle" x="531.5" y="-1147.5" font-family="Helvetica,sans-Serif" font-size="10.00"> &#45;tile</text>
</g>
<!-- Node6&#45;&gt;Node4 -->
<g id="edge5" class="edge">
<title>Node6&#45;&gt;Node4</title>
<path fill="none" stroke="#404040" d="M597.55,-1364.38C606.55,-1347.6 618.89,-1324.59 632.15,-1299.86"/>
<polygon fill="none" stroke="#404040" points="632.2,-1299.77 631.51,-1292.59 637.87,-1289.19 638.56,-1296.37 632.2,-1299.77"/>
<text text-anchor="middle" x="642.5" y="-1310" font-family="Helvetica,sans-Serif" font-size="10.00"> #image</text>
</g>
<!-- Node7 -->
<g id="node7" class="node">
<title>Node7</title>
<g id="a_node7"><a xlink:href="classobjects_1_1Block.html" target="_top" xlink:title=" ">
<polygon fill="white" stroke="#666666" points="769,-1336.5 769,-1448.5 1027,-1448.5 1027,-1336.5 769,-1336.5"/>
<text text-anchor="middle" x="898" y="-1436.5" font-family="Helvetica,sans-Serif" font-size="10.00">objects.Block</text>
<polyline fill="none" stroke="#666666" points="769,-1429.5 1027,-1429.5"/>
<text text-anchor="start" x="777" y="-1417.5" font-family="Helvetica,sans-Serif" font-size="10.00">+ static final double speed</text>
<text text-anchor="start" x="777" y="-1406.5" font-family="Helvetica,sans-Serif" font-size="10.00">&#45; double currentY</text>
<polyline fill="none" stroke="#666666" points="769,-1399.5 1027,-1399.5"/>
<text text-anchor="start" x="777" y="-1387.5" font-family="Helvetica,sans-Serif" font-size="10.00">+ Block(ArrayList&lt; Obstacle &gt; left, ArrayList&lt; Obstacle</text>
<text text-anchor="start" x="777" y="-1376.5" font-family="Helvetica,sans-Serif" font-size="10.00"> &gt; center, ArrayList&lt; Obstacle &gt; right)</text>
<text text-anchor="start" x="777" y="-1365.5" font-family="Helvetica,sans-Serif" font-size="10.00">+ void frameUpdate()</text>
<text text-anchor="start" x="777" y="-1354.5" font-family="Helvetica,sans-Serif" font-size="10.00">+ double getCurrentY()</text>
<text text-anchor="start" x="777" y="-1343.5" font-family="Helvetica,sans-Serif" font-size="10.00">+ ArrayList&lt; Obstacle &gt; getLane(Lane lane)</text>
</a>
</g>
</g>
<!-- Node7&#45;&gt;Node4 -->
<g id="edge6" class="edge">
<title>Node7&#45;&gt;Node4</title>
<path fill="none" stroke="#404040" d="M783.62,-1336.68C776.83,-1330.95 770.52,-1324.73 765,-1318 760.24,-1312.2 755.91,-1305.96 751.97,-1299.43"/>
<polygon fill="none" stroke="#404040" points="751.98,-1299.45 745.56,-1296.17 746.13,-1288.98 752.55,-1292.27 751.98,-1299.45"/>
<text text-anchor="middle" x="778.5" y="-1310" font-family="Helvetica,sans-Serif" font-size="10.00"> #lane</text>
</g>
<!-- Node7&#45;&gt;Node14 -->
<g id="edge16" class="edge">
<title>Node7&#45;&gt;Node14</title>
<path fill="none" stroke="#404040" d="M898.07,-1336.52C897.66,-1262.4 895.1,-1126.39 883,-1011 881.81,-999.62 880.18,-987.61 878.39,-975.91"/>
<polygon fill="none" stroke="#404040" points="878.42,-976.11 873.52,-970.82 876.53,-964.26 881.42,-969.56 878.42,-976.11"/>
<text text-anchor="middle" x="910.5" y="-1147.5" font-family="Helvetica,sans-Serif" font-size="10.00"> #lane</text>
</g>
<!-- Node8 -->
<g id="node8" class="node">
<title>Node8</title>
<g id="a_node8"><a xlink:title=" ">
<polygon fill="white" stroke="#666666" points="980.5,-1543.5 980.5,-1600.5 1127.5,-1600.5 1127.5,-1543.5 980.5,-1543.5"/>
<text text-anchor="middle" x="1054" y="-1588.5" font-family="Helvetica,sans-Serif" font-size="10.00">ArrayList&lt; objects.Obstacle &gt;</text>
<polyline fill="none" stroke="#666666" points="980.5,-1581.5 1127.5,-1581.5"/>
<text text-anchor="middle" x="1054" y="-1569.5" font-family="Helvetica,sans-Serif" font-size="10.00"> </text>
<polyline fill="none" stroke="#666666" points="980.5,-1562.5 1127.5,-1562.5"/>
<text text-anchor="middle" x="1054" y="-1550.5" font-family="Helvetica,sans-Serif" font-size="10.00"> </text>
</a>
</g>
</g>
<!-- Node8&#45;&gt;Node7 -->
<g id="edge7" class="edge">
<title>Node8&#45;&gt;Node7</title>
<path fill="none" stroke="#404040" d="M1029.97,-1543.65C1009.92,-1520.84 980.53,-1487.41 954.58,-1457.88"/>
<polygon fill="none" stroke="#404040" points="954.8,-1458.13 947.84,-1456.27 946.88,-1449.12 953.85,-1450.99 954.8,-1458.13"/>
<text text-anchor="middle" x="1030.5" y="-1504.5" font-family="Helvetica,sans-Serif" font-size="10.00"> +center</text>
<text text-anchor="middle" x="1030.5" y="-1493.5" font-family="Helvetica,sans-Serif" font-size="10.00">+left</text>
<text text-anchor="middle" x="1030.5" y="-1482.5" font-family="Helvetica,sans-Serif" font-size="10.00">+right</text>
</g>
<!-- Node9 -->
<g id="node9" class="node">
<title>Node9</title>
<g id="a_node9"><a xlink:title=" ">
<polygon fill="white" stroke="#666666" points="1112,-1648.5 1112,-1705.5 1168,-1705.5 1168,-1648.5 1112,-1648.5"/>
<text text-anchor="middle" x="1140" y="-1693.5" font-family="Helvetica,sans-Serif" font-size="10.00">ArrayList</text>
<polyline fill="none" stroke="#666666" points="1112,-1686.5 1168,-1686.5"/>
<text text-anchor="middle" x="1140" y="-1674.5" font-family="Helvetica,sans-Serif" font-size="10.00"> </text>
<polyline fill="none" stroke="#666666" points="1112,-1667.5 1168,-1667.5"/>
<text text-anchor="middle" x="1140" y="-1655.5" font-family="Helvetica,sans-Serif" font-size="10.00"> </text>
</a>
</g>
</g>
<!-- Node9&#45;&gt;Node8 -->
<g id="edge8" class="edge">
<title>Node9&#45;&gt;Node8</title>
<path fill="none" stroke="orange" d="M1105.04,-1642.35C1101.21,-1638.28 1097.45,-1634.11 1094,-1630 1086.22,-1620.74 1078.42,-1610.02 1071.8,-1600.39"/>
<polygon fill="orange" stroke="orange" points="1101.96,-1644.23 1111.43,-1648.99 1106.99,-1639.37 1101.96,-1644.23"/>
<text text-anchor="middle" x="1143" y="-1622" font-family="Helvetica,sans-Serif" font-size="10.00"> &lt; objects::Obstacle &gt;</text>
</g>
<!-- Node16 -->
<g id="node16" class="node">
<title>Node16</title>
<g id="a_node16"><a xlink:title=" ">
<polygon fill="white" stroke="#666666" points="1169.5,-1467.5 1169.5,-1524.5 1270.5,-1524.5 1270.5,-1467.5 1169.5,-1467.5"/>
<text text-anchor="middle" x="1220" y="-1512.5" font-family="Helvetica,sans-Serif" font-size="10.00">ArrayList&lt; Image &gt;</text>
<polyline fill="none" stroke="#666666" points="1169.5,-1505.5 1270.5,-1505.5"/>
<text text-anchor="middle" x="1220" y="-1493.5" font-family="Helvetica,sans-Serif" font-size="10.00"> </text>
<polyline fill="none" stroke="#666666" points="1169.5,-1486.5 1270.5,-1486.5"/>
<text text-anchor="middle" x="1220" y="-1474.5" font-family="Helvetica,sans-Serif" font-size="10.00"> </text>
</a>
</g>
</g>
<!-- Node9&#45;&gt;Node16 -->
<g id="edge20" class="edge">
<title>Node9&#45;&gt;Node16</title>
<path fill="none" stroke="orange" d="M1175.85,-1649.89C1182.01,-1643.96 1187.78,-1637.25 1192,-1630 1211.23,-1596.96 1217.33,-1552.48 1219.22,-1524.26"/>
<polygon fill="orange" stroke="orange" points="1174.05,-1646.69 1168.91,-1655.95 1178.71,-1651.92 1174.05,-1646.69"/>
<text text-anchor="middle" x="1220.5" y="-1622" font-family="Helvetica,sans-Serif" font-size="10.00"> &lt; Image &gt;</text>
</g>
<!-- Node10 -->
<g id="node10" class="node">
<title>Node10</title>
<g id="a_node10"><a xlink:href="classlogic_1_1ObstacleFactory.html" target="_top" xlink:title=" ">
<polygon fill="white" stroke="#666666" points="248,-364 248,-520 548,-520 548,-364 248,-364"/>
<text text-anchor="middle" x="398" y="-508" font-family="Helvetica,sans-Serif" font-size="10.00">logic.ObstacleFactory</text>
<polyline fill="none" stroke="#666666" points="248,-501 548,-501"/>
<text text-anchor="start" x="256" y="-489" font-family="Helvetica,sans-Serif" font-size="10.00">+ static final int buildingScreens</text>
<text text-anchor="start" x="256" y="-478" font-family="Helvetica,sans-Serif" font-size="10.00">+ static final int bufferScreens</text>
<text text-anchor="start" x="256" y="-467" font-family="Helvetica,sans-Serif" font-size="10.00">&#45; final double logicalLaneLength</text>
<text text-anchor="start" x="256" y="-456" font-family="Helvetica,sans-Serif" font-size="10.00">&#45; static final double minSpace</text>
<text text-anchor="start" x="256" y="-445" font-family="Helvetica,sans-Serif" font-size="10.00">&#45; static final double space</text>
<text text-anchor="start" x="256" y="-434" font-family="Helvetica,sans-Serif" font-size="10.00">&#45; static final double testObjectStep</text>
<polyline fill="none" stroke="#666666" points="248,-427 548,-427"/>
<text text-anchor="start" x="256" y="-415" font-family="Helvetica,sans-Serif" font-size="10.00">+ ObstacleFactory()</text>
<text text-anchor="start" x="256" y="-404" font-family="Helvetica,sans-Serif" font-size="10.00">+ Block generateBlock()</text>
<text text-anchor="start" x="256" y="-393" font-family="Helvetica,sans-Serif" font-size="10.00">+ ArrayList&lt; Obstacle &gt; generatePath()</text>
<text text-anchor="start" x="256" y="-382" font-family="Helvetica,sans-Serif" font-size="10.00">+ boolean winningPath(ArrayList&lt; ArrayList&lt; Obstacle &gt; &gt; lanes)</text>
<text text-anchor="start" x="256" y="-371" font-family="Helvetica,sans-Serif" font-size="10.00">+ Obstacle generateObstacle()</text>
</a>
</g>
</g>
<!-- Node10&#45;&gt;Node1 -->
<g id="edge10" class="edge">
<title>Node10&#45;&gt;Node1</title>
<path fill="none" stroke="#404040" d="M415.4,-364.11C430.14,-310.59 455.18,-239.51 494,-186 500.09,-177.61 507.04,-169.54 514.49,-161.87"/>
<polygon fill="none" stroke="#404040" points="514.6,-161.76 516.07,-154.7 523.15,-153.34 521.68,-160.4 514.6,-161.76"/>
<text text-anchor="middle" x="532" y="-189" font-family="Helvetica,sans-Serif" font-size="10.00"> &#45;obstacleFactory</text>
</g>
<!-- Node11 -->
<g id="node11" class="node">
<title>Node11</title>
<g id="a_node11"><a xlink:title=" ">
<polygon fill="white" stroke="#666666" points="108,-413.5 108,-470.5 230,-470.5 230,-413.5 108,-413.5"/>
<text text-anchor="middle" x="169" y="-458.5" font-family="Helvetica,sans-Serif" font-size="10.00">Deque&lt; objects.Block &gt;</text>
<polyline fill="none" stroke="#666666" points="108,-451.5 230,-451.5"/>
<text text-anchor="middle" x="169" y="-439.5" font-family="Helvetica,sans-Serif" font-size="10.00"> </text>
<polyline fill="none" stroke="#666666" points="108,-432.5 230,-432.5"/>
<text text-anchor="middle" x="169" y="-420.5" font-family="Helvetica,sans-Serif" font-size="10.00"> </text>
</a>
</g>
</g>
<!-- Node11&#45;&gt;Node1 -->
<g id="edge11" class="edge">
<title>Node11&#45;&gt;Node1</title>
<path fill="none" stroke="#404040" d="M169.78,-413.73C172.59,-366.81 185.04,-270.52 239,-215 310.7,-141.23 425.91,-109.31 510.88,-95.51"/>
<polygon fill="none" stroke="#404040" points="510.97,-95.5 516.29,-90.63 522.83,-93.66 517.51,-98.53 510.97,-95.5"/>
<text text-anchor="middle" x="311.5" y="-189" font-family="Helvetica,sans-Serif" font-size="10.00"> &#45;obstaclesBlocks</text>
</g>
<!-- Node12 -->
<g id="node12" class="node">
<title>Node12</title>
<g id="a_node12"><a xlink:title=" ">
<polygon fill="white" stroke="#666666" points="146.5,-873.5 146.5,-930.5 191.5,-930.5 191.5,-873.5 146.5,-873.5"/>
<text text-anchor="middle" x="169" y="-918.5" font-family="Helvetica,sans-Serif" font-size="10.00">Deque</text>
<polyline fill="none" stroke="#666666" points="146.5,-911.5 191.5,-911.5"/>
<text text-anchor="middle" x="169" y="-899.5" font-family="Helvetica,sans-Serif" font-size="10.00"> </text>
<polyline fill="none" stroke="#666666" points="146.5,-892.5 191.5,-892.5"/>
<text text-anchor="middle" x="169" y="-880.5" font-family="Helvetica,sans-Serif" font-size="10.00"> </text>
</a>
</g>
</g>
<!-- Node12&#45;&gt;Node11 -->
<g id="edge12" class="edge">
<title>Node12&#45;&gt;Node11</title>
<path fill="none" stroke="orange" d="M169,-862.93C169,-772.91 169,-548.63 169,-470.42"/>
<polygon fill="orange" stroke="orange" points="165.5,-862.72 169,-872.72 172.5,-862.72 165.5,-862.72"/>
<text text-anchor="middle" x="211" y="-752" font-family="Helvetica,sans-Serif" font-size="10.00"> &lt; objects::Block &gt;</text>
</g>
<!-- Node13&#45;&gt;Node1 -->
<g id="edge13" class="edge">
<title>Node13&#45;&gt;Node1</title>
<path fill="none" stroke="#404040" d="M969.68,-224.66C966.55,-221.32 963.32,-218.1 960,-215 896,-155.31 801.74,-122.16 728.69,-104.3"/>
<polygon fill="none" stroke="#404040" points="728.79,-104.32 722.03,-106.83 717.12,-101.56 723.88,-99.05 728.79,-104.32"/>
<text text-anchor="middle" x="953.5" y="-189" font-family="Helvetica,sans-Serif" font-size="10.00"> &#45;player</text>
</g>
<!-- Node14&#45;&gt;Node13 -->
<g id="edge14" class="edge">
<title>Node14&#45;&gt;Node13</title>
<path fill="none" stroke="#63b8ff" d="M895.75,-830.58C915.7,-784.9 942.87,-722.69 969.6,-661.47"/>
<polygon fill="none" stroke="#63b8ff" points="892.15,-829.09 891.35,-839.65 898.56,-831.89 892.15,-829.09"/>
</g>
<!-- Node18 -->
<g id="node18" class="node">
<title>Node18</title>
<g id="a_node18"><a xlink:href="classobjects_1_1Obstacle.html" target="_top" xlink:title=" ">
<polygon fill="white" stroke="#666666" points="705,-402.5 705,-481.5 951,-481.5 951,-402.5 705,-402.5"/>
<text text-anchor="middle" x="828" y="-469.5" font-family="Helvetica,sans-Serif" font-size="10.00">objects.Obstacle</text>
<polyline fill="none" stroke="#666666" points="705,-462.5 951,-462.5"/>
<text text-anchor="start" x="713" y="-450.5" font-family="Helvetica,sans-Serif" font-size="10.00">+ static final double obestacleWidth</text>
<polyline fill="none" stroke="#666666" points="705,-443.5 951,-443.5"/>
<text text-anchor="start" x="713" y="-431.5" font-family="Helvetica,sans-Serif" font-size="10.00">+ Obstacle(Block.Lane lane, double y, double length)</text>
<text text-anchor="start" x="713" y="-420.5" font-family="Helvetica,sans-Serif" font-size="10.00">+ void setY(double y)</text>
<text text-anchor="start" x="713" y="-409.5" font-family="Helvetica,sans-Serif" font-size="10.00">+ void addY(double diff)</text>
</a>
</g>
</g>
<!-- Node14&#45;&gt;Node18 -->
<g id="edge24" class="edge">
<title>Node14&#45;&gt;Node18</title>
<path fill="none" stroke="#63b8ff" d="M859.26,-829.94C851.33,-731.8 837.3,-558.18 831.1,-481.38"/>
<polygon fill="none" stroke="#63b8ff" points="855.83,-829.97 860.12,-839.65 862.81,-829.4 855.83,-829.97"/>
</g>
<!-- Node15 -->
<g id="node15" class="node">
<title>Node15</title>
<g id="a_node15"><a xlink:href="enumobjects_1_1Player_1_1Level.html" target="_top" xlink:title=" ">
<polygon fill="white" stroke="#666666" points="1093.5,-868 1093.5,-936 1198.5,-936 1198.5,-868 1093.5,-868"/>
<text text-anchor="middle" x="1146" y="-924" font-family="Helvetica,sans-Serif" font-size="10.00">objects.Player.Level</text>
<polyline fill="none" stroke="#666666" points="1093.5,-917 1198.5,-917"/>
<text text-anchor="start" x="1101.5" y="-905" font-family="Helvetica,sans-Serif" font-size="10.00">+ LOW</text>
<text text-anchor="start" x="1101.5" y="-894" font-family="Helvetica,sans-Serif" font-size="10.00">+ HIGH</text>
<polyline fill="none" stroke="#666666" points="1093.5,-887 1198.5,-887"/>
<text text-anchor="middle" x="1146" y="-875" font-family="Helvetica,sans-Serif" font-size="10.00"> </text>
</a>
</g>
</g>
<!-- Node15&#45;&gt;Node13 -->
<g id="edge18" class="edge">
<title>Node15&#45;&gt;Node13</title>
<path fill="none" stroke="#404040" d="M1140.17,-868.06C1133.01,-827.54 1120.18,-755 1107.12,-681.18"/>
<polygon fill="none" stroke="#404040" points="1107.1,-681.07 1102.12,-675.86 1105.01,-669.25 1110,-674.46 1107.1,-681.07"/>
<text text-anchor="middle" x="1143.5" y="-752" font-family="Helvetica,sans-Serif" font-size="10.00"> &#45;level</text>
</g>
<!-- Node16&#45;&gt;Node13 -->
<g id="edge19" class="edge">
<title>Node16&#45;&gt;Node13</title>
<path fill="none" stroke="#404040" d="M1221.71,-1467.65C1223.78,-1432.13 1227,-1368.21 1227,-1313.5 1227,-1313.5 1227,-1313.5 1227,-901 1227,-855.54 1198.28,-767.16 1165.02,-680.06"/>
<polygon fill="none" stroke="#404040" points="1165.04,-680.11 1159.15,-675.94 1160.73,-668.91 1166.62,-673.07 1165.04,-680.11"/>
<text text-anchor="middle" x="1259" y="-1153" font-family="Helvetica,sans-Serif" font-size="10.00"> &#45;deathFrames</text>
<text text-anchor="middle" x="1259" y="-1142" font-family="Helvetica,sans-Serif" font-size="10.00">&#45;runFrames</text>
</g>
<!-- Node17&#45;&gt;Node1 -->
<g id="edge21" class="edge">
<title>Node17&#45;&gt;Node1</title>
<path fill="none" stroke="#404040" d="M665.07,-687.57C656.18,-568.71 637.43,-318.07 627.14,-180.45"/>
<polygon fill="none" stroke="#404040" points="627.13,-180.36 622.7,-174.67 626.24,-168.39 630.67,-174.08 627.13,-180.36"/>
<text text-anchor="middle" x="679.5" y="-439.5" font-family="Helvetica,sans-Serif" font-size="10.00"> &#45;score</text>
</g>
<!-- Node18&#45;&gt;Node1 -->
<g id="edge23" class="edge">
<title>Node18&#45;&gt;Node1</title>
<path fill="none" stroke="#404040" d="M805.54,-402.56C774.42,-349.29 717.18,-251.33 674.48,-178.24"/>
<polygon fill="none" stroke="#404040" points="674.53,-178.33 668.05,-175.17 668.48,-167.97 674.96,-171.13 674.53,-178.33"/>
<text text-anchor="middle" x="720.5" y="-189" font-family="Helvetica,sans-Serif" font-size="10.00"> &#45;lastTouchedObs</text>
</g>
<!-- Node19 -->
<g id="node19" class="node">
<title>Node19</title>
<g id="a_node19"><a xlink:href="classlogic_1_1Logic_1_1Bounderies.html" target="_top" xlink:title=" ">
<polygon fill="white" stroke="#666666" points="1179,-320 1179,-564 1441,-564 1441,-320 1179,-320"/>
<text text-anchor="middle" x="1310" y="-552" font-family="Helvetica,sans-Serif" font-size="10.00">logic.Logic.Bounderies</text>
<polyline fill="none" stroke="#666666" points="1179,-545 1441,-545"/>
<text text-anchor="start" x="1187" y="-533" font-family="Helvetica,sans-Serif" font-size="10.00">&#45; final double groundPaddingPercentage</text>
<text text-anchor="start" x="1187" y="-522" font-family="Helvetica,sans-Serif" font-size="10.00">&#45; final double groundStartX</text>
<text text-anchor="start" x="1187" y="-511" font-family="Helvetica,sans-Serif" font-size="10.00">&#45; final double groundWidth</text>
<text text-anchor="start" x="1187" y="-500" font-family="Helvetica,sans-Serif" font-size="10.00">&#45; final double groundEndX</text>
<text text-anchor="start" x="1187" y="-489" font-family="Helvetica,sans-Serif" font-size="10.00">&#45; final double laneWidth</text>
<text text-anchor="start" x="1187" y="-478" font-family="Helvetica,sans-Serif" font-size="10.00">&#45; final double screenWidth</text>
<text text-anchor="start" x="1187" y="-467" font-family="Helvetica,sans-Serif" font-size="10.00">&#45; final double screenHeight</text>
<text text-anchor="start" x="1187" y="-456" font-family="Helvetica,sans-Serif" font-size="10.00">&#45; final double playerYPercentage</text>
<polyline fill="none" stroke="#666666" points="1179,-449 1441,-449"/>
<text text-anchor="start" x="1187" y="-437" font-family="Helvetica,sans-Serif" font-size="10.00">+ Bounderies(double screenWidth, double screenHeight)</text>
<text text-anchor="start" x="1187" y="-426" font-family="Helvetica,sans-Serif" font-size="10.00">+ double getGroundStartX()</text>
<text text-anchor="start" x="1187" y="-415" font-family="Helvetica,sans-Serif" font-size="10.00">+ double getGroundEndX()</text>
<text text-anchor="start" x="1187" y="-404" font-family="Helvetica,sans-Serif" font-size="10.00">+ double getPlayerY()</text>
<text text-anchor="start" x="1187" y="-393" font-family="Helvetica,sans-Serif" font-size="10.00">+ double getScreenHeight()</text>
<text text-anchor="start" x="1187" y="-382" font-family="Helvetica,sans-Serif" font-size="10.00">+ double getScreenWidth()</text>
<text text-anchor="start" x="1187" y="-371" font-family="Helvetica,sans-Serif" font-size="10.00">+ double getGroundWidth()</text>
<text text-anchor="start" x="1187" y="-360" font-family="Helvetica,sans-Serif" font-size="10.00">+ double getLaneWidth()</text>
<text text-anchor="start" x="1187" y="-349" font-family="Helvetica,sans-Serif" font-size="10.00">+ double getLaneStartX()</text>
<text text-anchor="start" x="1187" y="-338" font-family="Helvetica,sans-Serif" font-size="10.00">+ double getLanePadding()</text>
<text text-anchor="start" x="1187" y="-327" font-family="Helvetica,sans-Serif" font-size="10.00">+ double getLaneStartX(Block.Lane path)</text>
</a>
</g>
</g>
<!-- Node19&#45;&gt;Node1 -->
<g id="edge25" class="edge">
<title>Node19&#45;&gt;Node1</title>
<path fill="none" stroke="#404040" d="M1258.29,-320.09C1236.27,-281.35 1206.98,-241.64 1170,-215 1038.54,-120.33 847.87,-93.7 729.05,-86.72"/>
<polygon fill="none" stroke="#404040" points="729.23,-86.73 723.03,-90.4 717.25,-86.09 723.46,-82.42 729.23,-86.73"/>
<text text-anchor="middle" x="1169" y="-189" font-family="Helvetica,sans-Serif" font-size="10.00"> +bounderiesOBJ</text>
</g>
</g>
</svg>
