<?xml version="1.0" encoding="UTF-8" standalone="no"?>
<!DOCTYPE svg PUBLIC "-//W3C//DTD SVG 1.1//EN"
 "http://www.w3.org/Graphics/SVG/1.1/DTD/svg11.dtd">
<!-- Generated by graphviz version 3.0.0 (20221109.1736)
 -->
<!-- Title: objects.Block Pages: 1 -->
<svg width="262pt" height="386pt"
 viewBox="0.00 0.00 262.00 386.00" xmlns="http://www.w3.org/2000/svg" xmlns:xlink="http://www.w3.org/1999/xlink">
<g id="graph0" class="graph" transform="scale(1 1) rotate(0) translate(4 382)">
<title>objects.Block</title>
<polygon fill="white" stroke="transparent" points="-4,4 -4,-382 258,-382 258,4 -4,4"/>
<!-- Node1 -->
<g id="node1" class="node">
<title>Node1</title>
<g id="a_node1"><a xlink:title=" ">
<polygon fill="#bfbfbf" stroke="black" points="0,-0.5 0,-145.5 254,-145.5 254,-0.5 0,-0.5"/>
<text text-anchor="middle" x="127" y="-133.5" font-family="Helvetica,sans-Serif" font-size="10.00">objects.Block</text>
<polyline fill="none" stroke="black" points="0,-126.5 254,-126.5 "/>
<text text-anchor="start" x="8" y="-114.5" font-family="Helvetica,sans-Serif" font-size="10.00">+ static final double speed</text>
<text text-anchor="start" x="8" y="-103.5" font-family="Helvetica,sans-Serif" font-size="10.00">&#45; double currentY</text>
<polyline fill="none" stroke="black" points="0,-96.5 254,-96.5 "/>
<text text-anchor="start" x="8" y="-84.5" font-family="Helvetica,sans-Serif" font-size="10.00">+ Block(ArrayList&lt; Obstacle &gt; left, ArrayList&lt; Obstacle</text>
<text text-anchor="start" x="8" y="-73.5" font-family="Helvetica,sans-Serif" font-size="10.00"> &gt; center, ArrayList&lt; Obstacle &gt; right)</text>
<text text-anchor="start" x="8" y="-62.5" font-family="Helvetica,sans-Serif" font-size="10.00">+ double getCurrentY()</text>
<text text-anchor="start" x="8" y="-51.5" font-family="Helvetica,sans-Serif" font-size="10.00">+ ArrayList&lt; Obstacle &gt; getLane(Lane lane)</text>
<text text-anchor="start" x="8" y="-40.5" font-family="Helvetica,sans-Serif" font-size="10.00">+ ArrayList&lt; Obstacle &gt; getLeftLane()</text>
<text text-anchor="start" x="8" y="-29.5" font-family="Helvetica,sans-Serif" font-size="10.00">+ ArrayList&lt; Obstacle &gt; getCenterLane()</text>
<text text-anchor="start" x="8" y="-18.5" font-family="Helvetica,sans-Serif" font-size="10.00">+ ArrayList&lt; Obstacle &gt; getRightLane()</text>
<text text-anchor="start" x="8" y="-7.5" font-family="Helvetica,sans-Serif" font-size="10.00">+ void frameUpdate()</text>
</a>
</g>
</g>
<!-- Node2 -->
<g id="node2" class="node">
<title>Node2</title>
<g id="a_node2"><a xlink:title=" ">
<polygon fill="white" stroke="black" points="54.5,-215.5 54.5,-272.5 199.5,-272.5 199.5,-215.5 54.5,-215.5"/>
<text text-anchor="middle" x="127" y="-260.5" font-family="Helvetica,sans-Serif" font-size="10.00">ArrayList&lt; objects.Obstacle &gt;</text>
<polyline fill="none" stroke="black" points="54.5,-253.5 199.5,-253.5 "/>
<text text-anchor="middle" x="127" y="-241.5" font-family="Helvetica,sans-Serif" font-size="10.00"> </text>
<polyline fill="none" stroke="black" points="54.5,-234.5 199.5,-234.5 "/>
<text text-anchor="middle" x="127" y="-222.5" font-family="Helvetica,sans-Serif" font-size="10.00"> </text>
</a>
</g>
</g>
<!-- Node2&#45;&gt;Node1 -->
<g id="edge1" class="edge">
<title>Node2&#45;&gt;Node1</title>
<path fill="none" stroke="#404040" d="M127,-215.47C127,-199.6 127,-178.71 127,-157.87"/>
<polygon fill="none" stroke="#404040" points="127,-157.64 123,-151.64 127,-145.64 131,-151.64 127,-157.64"/>
<text text-anchor="middle" x="143.5" y="-189" font-family="Helvetica,sans-Serif" font-size="10.00"> &#45;center</text>
<text text-anchor="middle" x="143.5" y="-178" font-family="Helvetica,sans-Serif" font-size="10.00">&#45;left</text>
<text text-anchor="middle" x="143.5" y="-167" font-family="Helvetica,sans-Serif" font-size="10.00">&#45;right</text>
</g>
<!-- Node3 -->
<g id="node3" class="node">
<title>Node3</title>
<g id="a_node3"><a xlink:title=" ">
<polygon fill="white" stroke="black" points="99,-320.5 99,-377.5 155,-377.5 155,-320.5 99,-320.5"/>
<text text-anchor="middle" x="127" y="-365.5" font-family="Helvetica,sans-Serif" font-size="10.00">ArrayList</text>
<polyline fill="none" stroke="black" points="99,-358.5 155,-358.5 "/>
<text text-anchor="middle" x="127" y="-346.5" font-family="Helvetica,sans-Serif" font-size="10.00"> </text>
<polyline fill="none" stroke="black" points="99,-339.5 155,-339.5 "/>
<text text-anchor="middle" x="127" y="-327.5" font-family="Helvetica,sans-Serif" font-size="10.00"> </text>
</a>
</g>
</g>
<!-- Node3&#45;&gt;Node2 -->
<g id="edge2" class="edge">
<title>Node3&#45;&gt;Node2</title>
<path fill="none" stroke="orange" d="M127,-310.29C127,-297.84 127,-284.23 127,-272.68"/>
<polygon fill="orange" stroke="orange" points="123.5,-310.4 127,-320.4 130.5,-310.4 123.5,-310.4"/>
<text text-anchor="middle" x="174" y="-294" font-family="Helvetica,sans-Serif" font-size="10.00"> &lt; objects::Obstacle &gt;</text>
</g>
</g>
</svg>
