<?xml version="1.0" encoding="UTF-8" standalone="no"?>
<!DOCTYPE svg PUBLIC "-//W3C//DTD SVG 1.1//EN"
 "http://www.w3.org/Graphics/SVG/1.1/DTD/svg11.dtd">
<!-- Generated by graphviz version 3.0.0 (20221109.1736)
 -->
<!-- Title: logic.Logic Pages: 1 -->
<svg width="1563pt" height="1714pt"
 viewBox="0.00 0.00 1562.50 1714.00" xmlns="http://www.w3.org/2000/svg" xmlns:xlink="http://www.w3.org/1999/xlink">
<g id="graph0" class="graph" transform="scale(1 1) rotate(0) translate(4 1710)">
<title>logic.Logic</title>
<polygon fill="white" stroke="transparent" points="-4,4 -4,-1710 1558.5,-1710 1558.5,4 -4,4"/>
<!-- Node1 -->
<g id="node1" class="node">
<title>Node1</title>
<g id="a_node1"><a xlink:title=" ">
<polygon fill="#bfbfbf" stroke="black" points="666,-0.5 666,-145.5 857,-145.5 857,-0.5 666,-0.5"/>
<text text-anchor="middle" x="761.5" y="-133.5" font-family="Helvetica,sans-Serif" font-size="10.00">logic.Logic</text>
<polyline fill="none" stroke="black" points="666,-126.5 857,-126.5 "/>
<text text-anchor="start" x="674" y="-114.5" font-family="Helvetica,sans-Serif" font-size="10.00">&#45; boolean playerDied</text>
<text text-anchor="start" x="674" y="-103.5" font-family="Helvetica,sans-Serif" font-size="10.00">&#45; long last1000Millisecond</text>
<polyline fill="none" stroke="black" points="666,-96.5 857,-96.5 "/>
<text text-anchor="start" x="674" y="-84.5" font-family="Helvetica,sans-Serif" font-size="10.00">+ Logic(GraphicsContext gc)</text>
<text text-anchor="start" x="674" y="-73.5" font-family="Helvetica,sans-Serif" font-size="10.00">+ void tick(Long now)</text>
<text text-anchor="start" x="674" y="-62.5" font-family="Helvetica,sans-Serif" font-size="10.00">+ boolean playerCollision()</text>
<text text-anchor="start" x="674" y="-51.5" font-family="Helvetica,sans-Serif" font-size="10.00">+ Obstacle getPlayerTouchingObstacle()</text>
<text text-anchor="start" x="674" y="-40.5" font-family="Helvetica,sans-Serif" font-size="10.00">+ Player.Level getPlayerLevel()</text>
<text text-anchor="start" x="674" y="-29.5" font-family="Helvetica,sans-Serif" font-size="10.00">+ static Bounderies getBounderies()</text>
<text text-anchor="start" x="674" y="-18.5" font-family="Helvetica,sans-Serif" font-size="10.00">&#45; void playerDied()</text>
<text text-anchor="start" x="674" y="-7.5" font-family="Helvetica,sans-Serif" font-size="10.00">&#45; void startPlayer()</text>
</a>
</g>
</g>
<!-- Node2 -->
<g id="node2" class="node">
<title>Node2</title>
<g id="a_node2"><a xlink:title=" ">
<polygon fill="white" stroke="black" points="0,-386 0,-443 89,-443 89,-386 0,-386"/>
<text text-anchor="middle" x="44.5" y="-431" font-family="Helvetica,sans-Serif" font-size="10.00">GraphicsContext</text>
<polyline fill="none" stroke="black" points="0,-424 89,-424 "/>
<text text-anchor="middle" x="44.5" y="-412" font-family="Helvetica,sans-Serif" font-size="10.00"> </text>
<polyline fill="none" stroke="black" points="0,-405 89,-405 "/>
<text text-anchor="middle" x="44.5" y="-393" font-family="Helvetica,sans-Serif" font-size="10.00"> </text>
</a>
</g>
</g>
<!-- Node2&#45;&gt;Node1 -->
<g id="edge1" class="edge">
<title>Node2&#45;&gt;Node1</title>
<path fill="none" stroke="#404040" d="M42.47,-385.83C40.69,-338.87 44.49,-243.73 98.5,-193 177.17,-119.1 487.13,-89.9 653.91,-79.36"/>
<polygon fill="none" stroke="#404040" points="653.93,-79.36 659.67,-75 665.91,-78.62 660.17,-82.98 653.93,-79.36"/>
<text text-anchor="middle" x="154" y="-167" font-family="Helvetica,sans-Serif" font-size="10.00"> +gc</text>
</g>
<!-- Node3 -->
<g id="node3" class="node">
<title>Node3</title>
<g id="a_node3"><a xlink:href="classlogic_1_1Logic_1_1Bounderies.html" target="_top" xlink:title=" ">
<polygon fill="white" stroke="black" points="107.5,-292.5 107.5,-536.5 365.5,-536.5 365.5,-292.5 107.5,-292.5"/>
<text text-anchor="middle" x="236.5" y="-524.5" font-family="Helvetica,sans-Serif" font-size="10.00">logic.Logic.Bounderies</text>
<polyline fill="none" stroke="black" points="107.5,-517.5 365.5,-517.5 "/>
<text text-anchor="start" x="115.5" y="-505.5" font-family="Helvetica,sans-Serif" font-size="10.00">&#45; final double groundPaddingPercentage</text>
<text text-anchor="start" x="115.5" y="-494.5" font-family="Helvetica,sans-Serif" font-size="10.00">&#45; final double groundStartX</text>
<text text-anchor="start" x="115.5" y="-483.5" font-family="Helvetica,sans-Serif" font-size="10.00">&#45; final double groundWidth</text>
<text text-anchor="start" x="115.5" y="-472.5" font-family="Helvetica,sans-Serif" font-size="10.00">&#45; final double groundEndX</text>
<text text-anchor="start" x="115.5" y="-461.5" font-family="Helvetica,sans-Serif" font-size="10.00">&#45; final double laneWidth</text>
<text text-anchor="start" x="115.5" y="-450.5" font-family="Helvetica,sans-Serif" font-size="10.00">&#45; final double screenWidth</text>
<text text-anchor="start" x="115.5" y="-439.5" font-family="Helvetica,sans-Serif" font-size="10.00">&#45; final double screenHeight</text>
<text text-anchor="start" x="115.5" y="-428.5" font-family="Helvetica,sans-Serif" font-size="10.00">&#45; final double playerYPercentage</text>
<polyline fill="none" stroke="black" points="107.5,-421.5 365.5,-421.5 "/>
<text text-anchor="start" x="115.5" y="-409.5" font-family="Helvetica,sans-Serif" font-size="10.00">+ Bounderies(double screenWidth, double screenHeight)</text>
<text text-anchor="start" x="115.5" y="-398.5" font-family="Helvetica,sans-Serif" font-size="10.00">+ double getGroundStartX()</text>
<text text-anchor="start" x="115.5" y="-387.5" font-family="Helvetica,sans-Serif" font-size="10.00">+ double getGroundEndX()</text>
<text text-anchor="start" x="115.5" y="-376.5" font-family="Helvetica,sans-Serif" font-size="10.00">+ double getPlayerY()</text>
<text text-anchor="start" x="115.5" y="-365.5" font-family="Helvetica,sans-Serif" font-size="10.00">+ double getScreenHeight()</text>
<text text-anchor="start" x="115.5" y="-354.5" font-family="Helvetica,sans-Serif" font-size="10.00">+ double getScreenWidth()</text>
<text text-anchor="start" x="115.5" y="-343.5" font-family="Helvetica,sans-Serif" font-size="10.00">+ double getGroundWidth()</text>
<text text-anchor="start" x="115.5" y="-332.5" font-family="Helvetica,sans-Serif" font-size="10.00">+ double getLaneWidth()</text>
<text text-anchor="start" x="115.5" y="-321.5" font-family="Helvetica,sans-Serif" font-size="10.00">+ double getLaneStartX()</text>
<text text-anchor="start" x="115.5" y="-310.5" font-family="Helvetica,sans-Serif" font-size="10.00">+ double getLanePadding()</text>
<text text-anchor="start" x="115.5" y="-299.5" font-family="Helvetica,sans-Serif" font-size="10.00">+ double getLaneStartX(Block.Lane path)</text>
</a>
</g>
</g>
<!-- Node3&#45;&gt;Node1 -->
<g id="edge2" class="edge">
<title>Node3&#45;&gt;Node1</title>
<path fill="none" stroke="#404040" d="M293.61,-292.37C315.19,-256.56 342.63,-219.82 375.5,-193 455.21,-127.98 570.32,-98.4 654.08,-84.99"/>
<polygon fill="none" stroke="#404040" points="654.08,-84.99 659.4,-80.13 665.94,-83.17 660.62,-88.04 654.08,-84.99"/>
<text text-anchor="middle" x="448.5" y="-167" font-family="Helvetica,sans-Serif" font-size="10.00"> +bounderiesOBJ</text>
</g>
<!-- Node4 -->
<g id="node4" class="node">
<title>Node4</title>
<g id="a_node4"><a xlink:href="classobjects_1_1Ground.html" target="_top" xlink:title=" ">
<polygon fill="white" stroke="black" points="690,-829.5 690,-919.5 909,-919.5 909,-829.5 690,-829.5"/>
<text text-anchor="middle" x="799.5" y="-907.5" font-family="Helvetica,sans-Serif" font-size="10.00">objects.Ground</text>
<polyline fill="none" stroke="black" points="690,-900.5 909,-900.5 "/>
<text text-anchor="start" x="698" y="-888.5" font-family="Helvetica,sans-Serif" font-size="10.00">+ static final double laneImageWidth</text>
<text text-anchor="start" x="698" y="-877.5" font-family="Helvetica,sans-Serif" font-size="10.00">&#45; double yDisplacement</text>
<polyline fill="none" stroke="black" points="690,-870.5 909,-870.5 "/>
<text text-anchor="start" x="698" y="-858.5" font-family="Helvetica,sans-Serif" font-size="10.00">+ Ground(double x, double width, double length)</text>
<text text-anchor="start" x="698" y="-847.5" font-family="Helvetica,sans-Serif" font-size="10.00">+ void frameUpdate()</text>
<text text-anchor="start" x="698" y="-836.5" font-family="Helvetica,sans-Serif" font-size="10.00">+ void Draw()</text>
</a>
</g>
</g>
<!-- Node4&#45;&gt;Node1 -->
<g id="edge3" class="edge">
<title>Node4&#45;&gt;Node1</title>
<path fill="none" stroke="#404040" d="M807.91,-829.24C827.23,-720.08 869.88,-429.67 826.5,-193 824.25,-180.72 820.14,-168.41 815.04,-156.63"/>
<polygon fill="none" stroke="#404040" points="814.93,-156.39 808.77,-152.63 809.87,-145.5 816.03,-149.26 814.93,-156.39"/>
<text text-anchor="middle" x="862" y="-412" font-family="Helvetica,sans-Serif" font-size="10.00"> &#45;ground</text>
</g>
<!-- Node5 -->
<g id="node5" class="node">
<title>Node5</title>
<g id="a_node5"><a xlink:href="classobjects_1_1GameObject.html" target="_top" xlink:title=" ">
<polygon fill="white" stroke="black" points="825,-989.5 825,-1255.5 1142,-1255.5 1142,-989.5 825,-989.5"/>
<text text-anchor="middle" x="983.5" y="-1243.5" font-family="Helvetica,sans-Serif" font-size="10.00">objects.GameObject</text>
<polyline fill="none" stroke="black" points="825,-1236.5 1142,-1236.5 "/>
<text text-anchor="start" x="833" y="-1224.5" font-family="Helvetica,sans-Serif" font-size="10.00"># double x</text>
<text text-anchor="start" x="833" y="-1213.5" font-family="Helvetica,sans-Serif" font-size="10.00"># double y</text>
<text text-anchor="start" x="833" y="-1202.5" font-family="Helvetica,sans-Serif" font-size="10.00"># double width</text>
<text text-anchor="start" x="833" y="-1191.5" font-family="Helvetica,sans-Serif" font-size="10.00"># double length</text>
<polyline fill="none" stroke="black" points="825,-1184.5 1142,-1184.5 "/>
<text text-anchor="start" x="833" y="-1172.5" font-family="Helvetica,sans-Serif" font-size="10.00">+ GameObject(double x, double y, double width, double length)</text>
<text text-anchor="start" x="833" y="-1161.5" font-family="Helvetica,sans-Serif" font-size="10.00">+ GameObject(Block.Lane lane, double y, double width, double length)</text>
<text text-anchor="start" x="833" y="-1150.5" font-family="Helvetica,sans-Serif" font-size="10.00">+ GameObject(Block.Lane lane, double y, double cubeLength)</text>
<text text-anchor="start" x="833" y="-1139.5" font-family="Helvetica,sans-Serif" font-size="10.00">+ GameObject(double x, double y, double cubeLength)</text>
<text text-anchor="start" x="833" y="-1128.5" font-family="Helvetica,sans-Serif" font-size="10.00">+ double getWidth()</text>
<text text-anchor="start" x="833" y="-1117.5" font-family="Helvetica,sans-Serif" font-size="10.00">+ double getLength()</text>
<text text-anchor="start" x="833" y="-1106.5" font-family="Helvetica,sans-Serif" font-size="10.00">+ void setColor(Color color)</text>
<text text-anchor="start" x="833" y="-1095.5" font-family="Helvetica,sans-Serif" font-size="10.00">+ void setLane(Block.Lane path)</text>
<text text-anchor="start" x="833" y="-1084.5" font-family="Helvetica,sans-Serif" font-size="10.00">+ Block.Lane getLane()</text>
<text text-anchor="start" x="833" y="-1073.5" font-family="Helvetica,sans-Serif" font-size="10.00">+ void setX(double x)</text>
<text text-anchor="start" x="833" y="-1062.5" font-family="Helvetica,sans-Serif" font-size="10.00">+ void setY(double y)</text>
<text text-anchor="start" x="833" y="-1051.5" font-family="Helvetica,sans-Serif" font-size="10.00">+ double getY()</text>
<text text-anchor="start" x="833" y="-1040.5" font-family="Helvetica,sans-Serif" font-size="10.00">+ double getX()</text>
<text text-anchor="start" x="833" y="-1029.5" font-family="Helvetica,sans-Serif" font-size="10.00">+ void Draw()</text>
<text text-anchor="start" x="833" y="-1018.5" font-family="Helvetica,sans-Serif" font-size="10.00">+ boolean interesects(double x, double y)</text>
<text text-anchor="start" x="833" y="-1007.5" font-family="Helvetica,sans-Serif" font-size="10.00">+ boolean interesects(Block.Lane lane, double y)</text>
<text text-anchor="start" x="833" y="-996.5" font-family="Helvetica,sans-Serif" font-size="10.00">+ boolean touches(GameObject other)</text>
</a>
</g>
</g>
<!-- Node5&#45;&gt;Node4 -->
<g id="edge4" class="edge">
<title>Node5&#45;&gt;Node4</title>
<path fill="none" stroke="midnightblue" d="M878.6,-981.26C861.93,-958.97 845.83,-937.45 832.56,-919.7"/>
<polygon fill="none" stroke="midnightblue" points="875.97,-983.59 884.77,-989.5 881.58,-979.39 875.97,-983.59"/>
</g>
<!-- Node15 -->
<g id="node15" class="node">
<title>Node15</title>
<g id="a_node15"><a xlink:href="classobjects_1_1GameLaneObject.html" target="_top" xlink:title=" ">
<polygon fill="white" stroke="black" points="965.5,-807.5 965.5,-941.5 1303.5,-941.5 1303.5,-807.5 965.5,-807.5"/>
<text text-anchor="middle" x="1134.5" y="-929.5" font-family="Helvetica,sans-Serif" font-size="10.00">objects.GameLaneObject</text>
<polyline fill="none" stroke="black" points="965.5,-922.5 1303.5,-922.5 "/>
<text text-anchor="middle" x="1134.5" y="-910.5" font-family="Helvetica,sans-Serif" font-size="10.00"> </text>
<polyline fill="none" stroke="black" points="965.5,-903.5 1303.5,-903.5 "/>
<text text-anchor="start" x="973.5" y="-891.5" font-family="Helvetica,sans-Serif" font-size="10.00">+ GameLaneObject(Block.Lane lane, double y, double width, double length)</text>
<text text-anchor="start" x="973.5" y="-880.5" font-family="Helvetica,sans-Serif" font-size="10.00">+ GameLaneObject(Block.Lane lane, double y, double cubeLength)</text>
<text text-anchor="start" x="973.5" y="-869.5" font-family="Helvetica,sans-Serif" font-size="10.00">+ void setLane(Block.Lane path)</text>
<text text-anchor="start" x="973.5" y="-858.5" font-family="Helvetica,sans-Serif" font-size="10.00">+ Block.Lane getLane()</text>
<text text-anchor="start" x="973.5" y="-847.5" font-family="Helvetica,sans-Serif" font-size="10.00">+ void Draw()</text>
<text text-anchor="start" x="973.5" y="-836.5" font-family="Helvetica,sans-Serif" font-size="10.00">+ boolean contains(Block.Lane lane, double y)</text>
<text text-anchor="start" x="973.5" y="-825.5" font-family="Helvetica,sans-Serif" font-size="10.00">+ boolean touches(GameLaneObject other)</text>
<text text-anchor="start" x="973.5" y="-814.5" font-family="Helvetica,sans-Serif" font-size="10.00">+ double distance(GameLaneObject other)</text>
</a>
</g>
</g>
<!-- Node5&#45;&gt;Node15 -->
<g id="edge16" class="edge">
<title>Node5&#45;&gt;Node15</title>
<path fill="none" stroke="midnightblue" d="M1069.98,-980.62C1078.24,-967.16 1086.32,-953.99 1093.82,-941.77"/>
<polygon fill="none" stroke="midnightblue" points="1066.77,-979.14 1064.53,-989.5 1072.74,-982.81 1066.77,-979.14"/>
</g>
<!-- Node18 -->
<g id="node18" class="node">
<title>Node18</title>
<g id="a_node18"><a xlink:href="classlogic_1_1Logic_1_1Score.html" target="_top" xlink:title=" ">
<polygon fill="white" stroke="black" points="869,-654.5 869,-788.5 1008,-788.5 1008,-654.5 869,-654.5"/>
<text text-anchor="middle" x="938.5" y="-776.5" font-family="Helvetica,sans-Serif" font-size="10.00">logic.Logic.Score</text>
<polyline fill="none" stroke="black" points="869,-769.5 1008,-769.5 "/>
<text text-anchor="start" x="877" y="-757.5" font-family="Helvetica,sans-Serif" font-size="10.00">+ static final double length</text>
<text text-anchor="start" x="877" y="-746.5" font-family="Helvetica,sans-Serif" font-size="10.00">+ static final double padding</text>
<text text-anchor="start" x="877" y="-735.5" font-family="Helvetica,sans-Serif" font-size="10.00">&#45; int currentScore</text>
<polyline fill="none" stroke="black" points="869,-728.5 1008,-728.5 "/>
<text text-anchor="start" x="877" y="-716.5" font-family="Helvetica,sans-Serif" font-size="10.00">+ void increaseScore(int diff)</text>
<text text-anchor="start" x="877" y="-705.5" font-family="Helvetica,sans-Serif" font-size="10.00">+ void incrementScore()</text>
<text text-anchor="start" x="877" y="-694.5" font-family="Helvetica,sans-Serif" font-size="10.00">+ int getScore()</text>
<text text-anchor="start" x="877" y="-683.5" font-family="Helvetica,sans-Serif" font-size="10.00">+ void resetScore()</text>
<text text-anchor="start" x="877" y="-672.5" font-family="Helvetica,sans-Serif" font-size="10.00">+ void Draw()</text>
<text text-anchor="start" x="877" y="-661.5" font-family="Helvetica,sans-Serif" font-size="10.00">~ Score()</text>
</a>
</g>
</g>
<!-- Node5&#45;&gt;Node18 -->
<g id="edge23" class="edge">
<title>Node5&#45;&gt;Node18</title>
<path fill="none" stroke="midnightblue" d="M961.2,-979.22C959.5,-966.65 957.9,-954.1 956.5,-942 950.55,-890.73 945.87,-832.49 942.77,-788.89"/>
<polygon fill="none" stroke="midnightblue" points="957.76,-979.87 962.58,-989.3 964.69,-978.92 957.76,-979.87"/>
</g>
<!-- Node6 -->
<g id="node6" class="node">
<title>Node6</title>
<g id="a_node6"><a xlink:title=" ">
<polygon fill="white" stroke="black" points="1312,-1347.5 1312,-1404.5 1351,-1404.5 1351,-1347.5 1312,-1347.5"/>
<text text-anchor="middle" x="1331.5" y="-1392.5" font-family="Helvetica,sans-Serif" font-size="10.00">Color</text>
<polyline fill="none" stroke="black" points="1312,-1385.5 1351,-1385.5 "/>
<text text-anchor="middle" x="1331.5" y="-1373.5" font-family="Helvetica,sans-Serif" font-size="10.00"> </text>
<polyline fill="none" stroke="black" points="1312,-1366.5 1351,-1366.5 "/>
<text text-anchor="middle" x="1331.5" y="-1354.5" font-family="Helvetica,sans-Serif" font-size="10.00"> </text>
</a>
</g>
</g>
<!-- Node6&#45;&gt;Node5 -->
<g id="edge5" class="edge">
<title>Node6&#45;&gt;Node5</title>
<path fill="none" stroke="#404040" d="M1326.37,-1347.46C1322.26,-1332.47 1315.03,-1314.66 1302.5,-1303 1252.61,-1256.55 1216.89,-1287.63 1156.5,-1256 1155.31,-1255.37 1154.11,-1254.74 1152.92,-1254.1"/>
<polygon fill="none" stroke="#404040" points="1152.66,-1253.96 1145.47,-1254.53 1142.18,-1248.12 1149.36,-1247.54 1152.66,-1253.96"/>
<text text-anchor="middle" x="1291" y="-1277" font-family="Helvetica,sans-Serif" font-size="10.00"> #color</text>
</g>
<!-- Node14 -->
<g id="node14" class="node">
<title>Node14</title>
<g id="a_node14"><a xlink:href="classobjects_1_1Player.html" target="_top" xlink:title=" ">
<polygon fill="white" stroke="black" points="1237.5,-193.5 1237.5,-635.5 1425.5,-635.5 1425.5,-193.5 1237.5,-193.5"/>
<text text-anchor="middle" x="1331.5" y="-623.5" font-family="Helvetica,sans-Serif" font-size="10.00">objects.Player</text>
<polyline fill="none" stroke="black" points="1237.5,-616.5 1425.5,-616.5 "/>
<text text-anchor="start" x="1245.5" y="-604.5" font-family="Helvetica,sans-Serif" font-size="10.00">+ static final double playerLength</text>
<text text-anchor="start" x="1245.5" y="-593.5" font-family="Helvetica,sans-Serif" font-size="10.00">+ static final int maxJumpFrames</text>
<text text-anchor="start" x="1245.5" y="-582.5" font-family="Helvetica,sans-Serif" font-size="10.00">+ static final int maxJumpLength</text>
<text text-anchor="start" x="1245.5" y="-571.5" font-family="Helvetica,sans-Serif" font-size="10.00">+ static final int maxRampFrames</text>
<text text-anchor="start" x="1245.5" y="-560.5" font-family="Helvetica,sans-Serif" font-size="10.00">+ static final double jumpFormulaATerm</text>
<text text-anchor="start" x="1245.5" y="-549.5" font-family="Helvetica,sans-Serif" font-size="10.00">+ static final double jumpFormulaBTerm</text>
<text text-anchor="start" x="1245.5" y="-538.5" font-family="Helvetica,sans-Serif" font-size="10.00">&#45; boolean jumping</text>
<text text-anchor="start" x="1245.5" y="-527.5" font-family="Helvetica,sans-Serif" font-size="10.00">&#45; boolean isClimbingRamp</text>
<text text-anchor="start" x="1245.5" y="-516.5" font-family="Helvetica,sans-Serif" font-size="10.00">&#45; Boolean alive</text>
<text text-anchor="start" x="1245.5" y="-505.5" font-family="Helvetica,sans-Serif" font-size="10.00">&#45; Boolean isDying</text>
<text text-anchor="start" x="1245.5" y="-494.5" font-family="Helvetica,sans-Serif" font-size="10.00">&#45; int currentJumpFrame</text>
<text text-anchor="start" x="1245.5" y="-483.5" font-family="Helvetica,sans-Serif" font-size="10.00">&#45; int currentRunningFrame</text>
<text text-anchor="start" x="1245.5" y="-472.5" font-family="Helvetica,sans-Serif" font-size="10.00">&#45; int currentDeathFrame</text>
<text text-anchor="start" x="1245.5" y="-461.5" font-family="Helvetica,sans-Serif" font-size="10.00">&#45; int currentClimbingFrame</text>
<polyline fill="none" stroke="black" points="1237.5,-454.5 1425.5,-454.5 "/>
<text text-anchor="start" x="1245.5" y="-442.5" font-family="Helvetica,sans-Serif" font-size="10.00">+ Player()</text>
<text text-anchor="start" x="1245.5" y="-431.5" font-family="Helvetica,sans-Serif" font-size="10.00">+ Level getLevel()</text>
<text text-anchor="start" x="1245.5" y="-420.5" font-family="Helvetica,sans-Serif" font-size="10.00">+ void setLevel(Level level)</text>
<text text-anchor="start" x="1245.5" y="-409.5" font-family="Helvetica,sans-Serif" font-size="10.00">+ void moveLeft()</text>
<text text-anchor="start" x="1245.5" y="-398.5" font-family="Helvetica,sans-Serif" font-size="10.00">+ void moveRight()</text>
<text text-anchor="start" x="1245.5" y="-387.5" font-family="Helvetica,sans-Serif" font-size="10.00">+ boolean isJumping()</text>
<text text-anchor="start" x="1245.5" y="-376.5" font-family="Helvetica,sans-Serif" font-size="10.00">+ boolean isAlive()</text>
<text text-anchor="start" x="1245.5" y="-365.5" font-family="Helvetica,sans-Serif" font-size="10.00">+ boolean isDying()</text>
<text text-anchor="start" x="1245.5" y="-354.5" font-family="Helvetica,sans-Serif" font-size="10.00">+ void die()</text>
<text text-anchor="start" x="1245.5" y="-343.5" font-family="Helvetica,sans-Serif" font-size="10.00">+ void rampClimb()</text>
<text text-anchor="start" x="1245.5" y="-332.5" font-family="Helvetica,sans-Serif" font-size="10.00">+ void jump()</text>
<text text-anchor="start" x="1245.5" y="-321.5" font-family="Helvetica,sans-Serif" font-size="10.00">+ void setIsDying()</text>
<text text-anchor="start" x="1245.5" y="-310.5" font-family="Helvetica,sans-Serif" font-size="10.00">+ void jumpUpdate()</text>
<text text-anchor="start" x="1245.5" y="-299.5" font-family="Helvetica,sans-Serif" font-size="10.00">+ void setPlayerLevelLow()</text>
<text text-anchor="start" x="1245.5" y="-288.5" font-family="Helvetica,sans-Serif" font-size="10.00">+ void setPlayerLevelHigh()</text>
<text text-anchor="start" x="1245.5" y="-277.5" font-family="Helvetica,sans-Serif" font-size="10.00">+ void rampUpdate()</text>
<text text-anchor="start" x="1245.5" y="-266.5" font-family="Helvetica,sans-Serif" font-size="10.00">+ void updateDeathAnimation()</text>
<text text-anchor="start" x="1245.5" y="-255.5" font-family="Helvetica,sans-Serif" font-size="10.00">+ void playerUpdateAnimation()</text>
<text text-anchor="start" x="1245.5" y="-244.5" font-family="Helvetica,sans-Serif" font-size="10.00">&#45; void setAnimations()</text>
<text text-anchor="start" x="1245.5" y="-233.5" font-family="Helvetica,sans-Serif" font-size="10.00">&#45; void playerLengthIncrease(double diff)</text>
<text text-anchor="start" x="1245.5" y="-222.5" font-family="Helvetica,sans-Serif" font-size="10.00">&#45; void playerLengthDecrease(double diff)</text>
<text text-anchor="start" x="1245.5" y="-211.5" font-family="Helvetica,sans-Serif" font-size="10.00">&#45; double jumpCurrentValue(int frame)</text>
<text text-anchor="start" x="1245.5" y="-200.5" font-family="Helvetica,sans-Serif" font-size="10.00">&#45; void updateRunningAnimation()</text>
</a>
</g>
</g>
<!-- Node6&#45;&gt;Node14 -->
<g id="edge18" class="edge">
<title>Node6&#45;&gt;Node14</title>
<path fill="none" stroke="#404040" d="M1331.5,-1347.32C1331.5,-1246.09 1331.5,-889.35 1331.5,-647.82"/>
<polygon fill="none" stroke="#404040" points="1331.5,-647.69 1327.5,-641.69 1331.5,-635.69 1335.5,-641.69 1331.5,-647.69"/>
<text text-anchor="middle" x="1358.5" y="-963" font-family="Helvetica,sans-Serif" font-size="10.00"> &#45;playerColor</text>
</g>
<!-- Node7 -->
<g id="node7" class="node">
<title>Node7</title>
<g id="a_node7"><a xlink:title=" ">
<polygon fill="white" stroke="black" points="833.5,-1347.5 833.5,-1404.5 877.5,-1404.5 877.5,-1347.5 833.5,-1347.5"/>
<text text-anchor="middle" x="855.5" y="-1392.5" font-family="Helvetica,sans-Serif" font-size="10.00">Image</text>
<polyline fill="none" stroke="black" points="833.5,-1385.5 877.5,-1385.5 "/>
<text text-anchor="middle" x="855.5" y="-1373.5" font-family="Helvetica,sans-Serif" font-size="10.00"> </text>
<polyline fill="none" stroke="black" points="833.5,-1366.5 877.5,-1366.5 "/>
<text text-anchor="middle" x="855.5" y="-1354.5" font-family="Helvetica,sans-Serif" font-size="10.00"> </text>
</a>
</g>
</g>
<!-- Node7&#45;&gt;Node4 -->
<g id="edge10" class="edge">
<title>Node7&#45;&gt;Node4</title>
<path fill="none" stroke="#404040" d="M837.61,-1347.5C823.58,-1324.21 805.2,-1289.37 797.5,-1256 771.47,-1143.2 782.02,-1006.53 791.26,-931.53"/>
<polygon fill="none" stroke="#404040" points="791.26,-931.49 788.06,-925.03 792.78,-919.59 795.99,-926.05 791.26,-931.49"/>
<text text-anchor="middle" x="807" y="-1120" font-family="Helvetica,sans-Serif" font-size="10.00"> &#45;tile</text>
</g>
<!-- Node7&#45;&gt;Node5 -->
<g id="edge6" class="edge">
<title>Node7&#45;&gt;Node5</title>
<path fill="none" stroke="#404040" d="M869.69,-1347.12C880.05,-1326.76 894.98,-1297.43 910.62,-1266.69"/>
<polygon fill="none" stroke="#404040" points="910.74,-1266.46 909.9,-1259.3 916.18,-1255.77 917.03,-1262.93 910.74,-1266.46"/>
<text text-anchor="middle" x="920.5" y="-1277" font-family="Helvetica,sans-Serif" font-size="10.00"> #image</text>
</g>
<!-- Node8 -->
<g id="node8" class="node">
<title>Node8</title>
<g id="a_node8"><a xlink:href="classobjects_1_1Block.html" target="_top" xlink:title=" ">
<polygon fill="white" stroke="black" points="1039.5,-1303.5 1039.5,-1448.5 1293.5,-1448.5 1293.5,-1303.5 1039.5,-1303.5"/>
<text text-anchor="middle" x="1166.5" y="-1436.5" font-family="Helvetica,sans-Serif" font-size="10.00">objects.Block</text>
<polyline fill="none" stroke="black" points="1039.5,-1429.5 1293.5,-1429.5 "/>
<text text-anchor="start" x="1047.5" y="-1417.5" font-family="Helvetica,sans-Serif" font-size="10.00">+ static final double speed</text>
<text text-anchor="start" x="1047.5" y="-1406.5" font-family="Helvetica,sans-Serif" font-size="10.00">&#45; double currentY</text>
<polyline fill="none" stroke="black" points="1039.5,-1399.5 1293.5,-1399.5 "/>
<text text-anchor="start" x="1047.5" y="-1387.5" font-family="Helvetica,sans-Serif" font-size="10.00">+ Block(ArrayList&lt; Obstacle &gt; left, ArrayList&lt; Obstacle</text>
<text text-anchor="start" x="1047.5" y="-1376.5" font-family="Helvetica,sans-Serif" font-size="10.00"> &gt; center, ArrayList&lt; Obstacle &gt; right)</text>
<text text-anchor="start" x="1047.5" y="-1365.5" font-family="Helvetica,sans-Serif" font-size="10.00">+ double getCurrentY()</text>
<text text-anchor="start" x="1047.5" y="-1354.5" font-family="Helvetica,sans-Serif" font-size="10.00">+ ArrayList&lt; Obstacle &gt; getLane(Lane lane)</text>
<text text-anchor="start" x="1047.5" y="-1343.5" font-family="Helvetica,sans-Serif" font-size="10.00">+ ArrayList&lt; Obstacle &gt; getLeftLane()</text>
<text text-anchor="start" x="1047.5" y="-1332.5" font-family="Helvetica,sans-Serif" font-size="10.00">+ ArrayList&lt; Obstacle &gt; getCenterLane()</text>
<text text-anchor="start" x="1047.5" y="-1321.5" font-family="Helvetica,sans-Serif" font-size="10.00">+ ArrayList&lt; Obstacle &gt; getRightLane()</text>
<text text-anchor="start" x="1047.5" y="-1310.5" font-family="Helvetica,sans-Serif" font-size="10.00">+ void frameUpdate()</text>
</a>
</g>
</g>
<!-- Node8&#45;&gt;Node5 -->
<g id="edge7" class="edge">
<title>Node8&#45;&gt;Node5</title>
<path fill="none" stroke="#404040" d="M1051.44,-1303.34C1045.66,-1297.54 1040.28,-1291.42 1035.5,-1285 1031.22,-1279.25 1027.28,-1273.13 1023.66,-1266.77"/>
<polygon fill="none" stroke="#404040" points="1023.49,-1266.45 1017.14,-1263.03 1017.86,-1255.85 1024.2,-1259.27 1023.49,-1266.45"/>
<text text-anchor="middle" x="1048.5" y="-1277" font-family="Helvetica,sans-Serif" font-size="10.00"> #lane</text>
</g>
<!-- Node8&#45;&gt;Node15 -->
<g id="edge17" class="edge">
<title>Node8&#45;&gt;Node15</title>
<path fill="none" stroke="#404040" d="M1166.21,-1303.33C1165.31,-1225.71 1162.15,-1098.3 1151.5,-989 1150.39,-977.59 1148.92,-965.58 1147.31,-953.82"/>
<polygon fill="none" stroke="#404040" points="1147.27,-953.56 1142.47,-948.18 1145.59,-941.68 1150.39,-947.05 1147.27,-953.56"/>
<text text-anchor="middle" x="1177.5" y="-1120" font-family="Helvetica,sans-Serif" font-size="10.00"> #lane</text>
</g>
<!-- Node9 -->
<g id="node9" class="node">
<title>Node9</title>
<g id="a_node9"><a xlink:title=" ">
<polygon fill="white" stroke="black" points="1250,-1543.5 1250,-1600.5 1395,-1600.5 1395,-1543.5 1250,-1543.5"/>
<text text-anchor="middle" x="1322.5" y="-1588.5" font-family="Helvetica,sans-Serif" font-size="10.00">ArrayList&lt; objects.Obstacle &gt;</text>
<polyline fill="none" stroke="black" points="1250,-1581.5 1395,-1581.5 "/>
<text text-anchor="middle" x="1322.5" y="-1569.5" font-family="Helvetica,sans-Serif" font-size="10.00"> </text>
<polyline fill="none" stroke="black" points="1250,-1562.5 1395,-1562.5 "/>
<text text-anchor="middle" x="1322.5" y="-1550.5" font-family="Helvetica,sans-Serif" font-size="10.00"> </text>
</a>
</g>
</g>
<!-- Node9&#45;&gt;Node8 -->
<g id="edge8" class="edge">
<title>Node9&#45;&gt;Node8</title>
<path fill="none" stroke="#404040" d="M1300.15,-1543.2C1282.28,-1520.99 1256.29,-1488.66 1231.97,-1458.42"/>
<polygon fill="none" stroke="#404040" points="1231.66,-1458.04 1224.79,-1455.87 1224.14,-1448.69 1231.02,-1450.85 1231.66,-1458.04"/>
<text text-anchor="middle" x="1301" y="-1504.5" font-family="Helvetica,sans-Serif" font-size="10.00"> &#45;center</text>
<text text-anchor="middle" x="1301" y="-1493.5" font-family="Helvetica,sans-Serif" font-size="10.00">&#45;left</text>
<text text-anchor="middle" x="1301" y="-1482.5" font-family="Helvetica,sans-Serif" font-size="10.00">&#45;right</text>
</g>
<!-- Node10 -->
<g id="node10" class="node">
<title>Node10</title>
<g id="a_node10"><a xlink:title=" ">
<polygon fill="white" stroke="black" points="1378.5,-1648.5 1378.5,-1705.5 1434.5,-1705.5 1434.5,-1648.5 1378.5,-1648.5"/>
<text text-anchor="middle" x="1406.5" y="-1693.5" font-family="Helvetica,sans-Serif" font-size="10.00">ArrayList</text>
<polyline fill="none" stroke="black" points="1378.5,-1686.5 1434.5,-1686.5 "/>
<text text-anchor="middle" x="1406.5" y="-1674.5" font-family="Helvetica,sans-Serif" font-size="10.00"> </text>
<polyline fill="none" stroke="black" points="1378.5,-1667.5 1434.5,-1667.5 "/>
<text text-anchor="middle" x="1406.5" y="-1655.5" font-family="Helvetica,sans-Serif" font-size="10.00"> </text>
</a>
</g>
</g>
<!-- Node10&#45;&gt;Node9 -->
<g id="edge9" class="edge">
<title>Node10&#45;&gt;Node9</title>
<path fill="none" stroke="orange" d="M1372.01,-1641.02C1368.72,-1637.37 1365.5,-1633.65 1362.5,-1630 1354.9,-1620.75 1347.2,-1610.13 1340.61,-1600.58"/>
<polygon fill="orange" stroke="orange" points="1369.46,-1643.42 1378.81,-1648.4 1374.61,-1638.67 1369.46,-1643.42"/>
<text text-anchor="middle" x="1409.5" y="-1622" font-family="Helvetica,sans-Serif" font-size="10.00"> &lt; objects::Obstacle &gt;</text>
</g>
<!-- Node17 -->
<g id="node17" class="node">
<title>Node17</title>
<g id="a_node17"><a xlink:title=" ">
<polygon fill="white" stroke="black" points="1435,-1467.5 1435,-1524.5 1534,-1524.5 1534,-1467.5 1435,-1467.5"/>
<text text-anchor="middle" x="1484.5" y="-1512.5" font-family="Helvetica,sans-Serif" font-size="10.00">ArrayList&lt; Image &gt;</text>
<polyline fill="none" stroke="black" points="1435,-1505.5 1534,-1505.5 "/>
<text text-anchor="middle" x="1484.5" y="-1493.5" font-family="Helvetica,sans-Serif" font-size="10.00"> </text>
<polyline fill="none" stroke="black" points="1435,-1486.5 1534,-1486.5 "/>
<text text-anchor="middle" x="1484.5" y="-1474.5" font-family="Helvetica,sans-Serif" font-size="10.00"> </text>
</a>
</g>
</g>
<!-- Node10&#45;&gt;Node17 -->
<g id="edge21" class="edge">
<title>Node10&#45;&gt;Node17</title>
<path fill="none" stroke="orange" d="M1442.23,-1648.42C1447.68,-1642.84 1452.73,-1636.63 1456.5,-1630 1475.29,-1596.98 1481.52,-1552.89 1483.56,-1524.71"/>
<polygon fill="orange" stroke="orange" points="1439.48,-1646.21 1434.64,-1655.63 1444.3,-1651.28 1439.48,-1646.21"/>
<text text-anchor="middle" x="1483.5" y="-1622" font-family="Helvetica,sans-Serif" font-size="10.00"> &lt; Image &gt;</text>
</g>
<!-- Node11 -->
<g id="node11" class="node">
<title>Node11</title>
<g id="a_node11"><a xlink:href="classlogic_1_1ObstacleFactory.html" target="_top" xlink:title=" ">
<polygon fill="white" stroke="black" points="521.5,-331 521.5,-498 817.5,-498 817.5,-331 521.5,-331"/>
<text text-anchor="middle" x="669.5" y="-486" font-family="Helvetica,sans-Serif" font-size="10.00">logic.ObstacleFactory</text>
<polyline fill="none" stroke="black" points="521.5,-479 817.5,-479 "/>
<text text-anchor="start" x="529.5" y="-467" font-family="Helvetica,sans-Serif" font-size="10.00">+ static final int buildingScreens</text>
<text text-anchor="start" x="529.5" y="-456" font-family="Helvetica,sans-Serif" font-size="10.00">+ static final int bufferScreens</text>
<text text-anchor="start" x="529.5" y="-445" font-family="Helvetica,sans-Serif" font-size="10.00">&#45; final double logicalLaneLength</text>
<text text-anchor="start" x="529.5" y="-434" font-family="Helvetica,sans-Serif" font-size="10.00">&#45; static final double minSpace</text>
<text text-anchor="start" x="529.5" y="-423" font-family="Helvetica,sans-Serif" font-size="10.00">&#45; static final double space</text>
<text text-anchor="start" x="529.5" y="-412" font-family="Helvetica,sans-Serif" font-size="10.00">&#45; static final double testObjectStep</text>
<text text-anchor="start" x="529.5" y="-401" font-family="Helvetica,sans-Serif" font-size="10.00">&#45; static final double testObjectLength</text>
<polyline fill="none" stroke="black" points="521.5,-394 817.5,-394 "/>
<text text-anchor="start" x="529.5" y="-382" font-family="Helvetica,sans-Serif" font-size="10.00">+ ObstacleFactory()</text>
<text text-anchor="start" x="529.5" y="-371" font-family="Helvetica,sans-Serif" font-size="10.00">+ Block generateBlock()</text>
<text text-anchor="start" x="529.5" y="-360" font-family="Helvetica,sans-Serif" font-size="10.00">+ ArrayList&lt; Obstacle &gt; generatePath()</text>
<text text-anchor="start" x="529.5" y="-349" font-family="Helvetica,sans-Serif" font-size="10.00">+ boolean winningPath(ArrayList&lt; ArrayList&lt; Obstacle &gt; &gt; lanes)</text>
<text text-anchor="start" x="529.5" y="-338" font-family="Helvetica,sans-Serif" font-size="10.00">+ Obstacle generateObstacle()</text>
</a>
</g>
</g>
<!-- Node11&#45;&gt;Node1 -->
<g id="edge11" class="edge">
<title>Node11&#45;&gt;Node1</title>
<path fill="none" stroke="#404040" d="M691.89,-330.88C706.15,-278.24 724.58,-210.26 738.89,-157.45"/>
<polygon fill="none" stroke="#404040" points="738.92,-157.33 736.63,-150.49 742.06,-145.74 744.35,-152.58 738.92,-157.33"/>
<text text-anchor="middle" x="774" y="-167" font-family="Helvetica,sans-Serif" font-size="10.00"> &#45;obstacleFactory</text>
</g>
<!-- Node12 -->
<g id="node12" class="node">
<title>Node12</title>
<g id="a_node12"><a xlink:title=" ">
<polygon fill="white" stroke="black" points="384,-386 384,-443 503,-443 503,-386 384,-386"/>
<text text-anchor="middle" x="443.5" y="-431" font-family="Helvetica,sans-Serif" font-size="10.00">Deque&lt; objects.Block &gt;</text>
<polyline fill="none" stroke="black" points="384,-424 503,-424 "/>
<text text-anchor="middle" x="443.5" y="-412" font-family="Helvetica,sans-Serif" font-size="10.00"> </text>
<polyline fill="none" stroke="black" points="384,-405 503,-405 "/>
<text text-anchor="middle" x="443.5" y="-393" font-family="Helvetica,sans-Serif" font-size="10.00"> </text>
</a>
</g>
</g>
<!-- Node12&#45;&gt;Node1 -->
<g id="edge12" class="edge">
<title>Node12&#45;&gt;Node1</title>
<path fill="none" stroke="#404040" d="M445.2,-385.7C449.35,-340.23 463.64,-249.38 512.5,-193 549.47,-150.34 605.16,-121.74 654.5,-103.3"/>
<polygon fill="none" stroke="#404040" points="654.62,-103.25 658.9,-97.45 665.9,-99.17 661.62,-104.97 654.62,-103.25"/>
<text text-anchor="middle" x="577.5" y="-167" font-family="Helvetica,sans-Serif" font-size="10.00"> &#45;obstaclesBlocks</text>
</g>
<!-- Node13 -->
<g id="node13" class="node">
<title>Node13</title>
<g id="a_node13"><a xlink:title=" ">
<polygon fill="white" stroke="black" points="421.5,-846 421.5,-903 465.5,-903 465.5,-846 421.5,-846"/>
<text text-anchor="middle" x="443.5" y="-891" font-family="Helvetica,sans-Serif" font-size="10.00">Deque</text>
<polyline fill="none" stroke="black" points="421.5,-884 465.5,-884 "/>
<text text-anchor="middle" x="443.5" y="-872" font-family="Helvetica,sans-Serif" font-size="10.00"> </text>
<polyline fill="none" stroke="black" points="421.5,-865 465.5,-865 "/>
<text text-anchor="middle" x="443.5" y="-853" font-family="Helvetica,sans-Serif" font-size="10.00"> </text>
</a>
</g>
</g>
<!-- Node13&#45;&gt;Node12 -->
<g id="edge13" class="edge">
<title>Node13&#45;&gt;Node12</title>
<path fill="none" stroke="orange" d="M443.5,-835.61C443.5,-745.8 443.5,-521.63 443.5,-443.15"/>
<polygon fill="orange" stroke="orange" points="440,-835.88 443.5,-845.88 447,-835.88 440,-835.88"/>
<text text-anchor="middle" x="483.5" y="-719" font-family="Helvetica,sans-Serif" font-size="10.00"> &lt; objects::Block &gt;</text>
</g>
<!-- Node14&#45;&gt;Node1 -->
<g id="edge14" class="edge">
<title>Node14&#45;&gt;Node1</title>
<path fill="none" stroke="#404040" d="M1237.47,-201.89C1234.25,-198.8 1230.93,-195.83 1227.5,-193 1125.86,-109.11 972.42,-83.43 869.68,-76.07"/>
<polygon fill="none" stroke="#404040" points="869.38,-76.05 863.13,-79.64 857.41,-75.26 863.66,-71.66 869.38,-76.05"/>
<text text-anchor="middle" x="1211" y="-167" font-family="Helvetica,sans-Serif" font-size="10.00"> &#45;player</text>
</g>
<!-- Node15&#45;&gt;Node14 -->
<g id="edge15" class="edge">
<title>Node15&#45;&gt;Node14</title>
<path fill="none" stroke="midnightblue" d="M1166.97,-798C1186.36,-752.93 1212.07,-693.16 1237.4,-634.28"/>
<polygon fill="none" stroke="midnightblue" points="1163.67,-796.82 1162.94,-807.39 1170.1,-799.59 1163.67,-796.82"/>
</g>
<!-- Node19 -->
<g id="node19" class="node">
<title>Node19</title>
<g id="a_node19"><a xlink:href="classobjects_1_1Obstacle.html" target="_top" xlink:title=" ">
<polygon fill="white" stroke="black" points="976.5,-369.5 976.5,-459.5 1218.5,-459.5 1218.5,-369.5 976.5,-369.5"/>
<text text-anchor="middle" x="1097.5" y="-447.5" font-family="Helvetica,sans-Serif" font-size="10.00">objects.Obstacle</text>
<polyline fill="none" stroke="black" points="976.5,-440.5 1218.5,-440.5 "/>
<text text-anchor="start" x="984.5" y="-428.5" font-family="Helvetica,sans-Serif" font-size="10.00">+ static final double obestacleWidth</text>
<polyline fill="none" stroke="black" points="976.5,-421.5 1218.5,-421.5 "/>
<text text-anchor="start" x="984.5" y="-409.5" font-family="Helvetica,sans-Serif" font-size="10.00">+ Obstacle(Block.Lane lane, double y, double length)</text>
<text text-anchor="start" x="984.5" y="-398.5" font-family="Helvetica,sans-Serif" font-size="10.00">+ void addY(double diff)</text>
<text text-anchor="start" x="984.5" y="-387.5" font-family="Helvetica,sans-Serif" font-size="10.00">+ boolean isOffTheScreen()</text>
<text text-anchor="start" x="984.5" y="-376.5" font-family="Helvetica,sans-Serif" font-size="10.00">+ void Draw()</text>
</a>
</g>
</g>
<!-- Node15&#45;&gt;Node19 -->
<g id="edge25" class="edge">
<title>Node15&#45;&gt;Node19</title>
<path fill="none" stroke="midnightblue" d="M1128.35,-797.4C1120.55,-700.85 1107.36,-537.53 1101.06,-459.53"/>
<polygon fill="none" stroke="midnightblue" points="1124.87,-797.71 1129.16,-807.39 1131.84,-797.14 1124.87,-797.71"/>
</g>
<!-- Node16 -->
<g id="node16" class="node">
<title>Node16</title>
<g id="a_node16"><a xlink:href="enumobjects_1_1Player_1_1Level.html" target="_top" xlink:title=" ">
<polygon fill="white" stroke="black" points="1359.5,-840.5 1359.5,-908.5 1463.5,-908.5 1463.5,-840.5 1359.5,-840.5"/>
<text text-anchor="middle" x="1411.5" y="-896.5" font-family="Helvetica,sans-Serif" font-size="10.00">objects.Player.Level</text>
<polyline fill="none" stroke="black" points="1359.5,-889.5 1463.5,-889.5 "/>
<text text-anchor="start" x="1367.5" y="-877.5" font-family="Helvetica,sans-Serif" font-size="10.00">+ LOW</text>
<text text-anchor="start" x="1367.5" y="-866.5" font-family="Helvetica,sans-Serif" font-size="10.00">+ HIGH</text>
<polyline fill="none" stroke="black" points="1359.5,-859.5 1463.5,-859.5 "/>
<text text-anchor="middle" x="1411.5" y="-847.5" font-family="Helvetica,sans-Serif" font-size="10.00"> </text>
</a>
</g>
</g>
<!-- Node16&#45;&gt;Node14 -->
<g id="edge19" class="edge">
<title>Node16&#45;&gt;Node14</title>
<path fill="none" stroke="#404040" d="M1405.68,-840.19C1398.4,-798.53 1385.29,-723.42 1372.08,-647.84"/>
<polygon fill="none" stroke="#404040" points="1372.03,-647.53 1367.06,-642.3 1369.96,-635.71 1374.94,-640.93 1372.03,-647.53"/>
<text text-anchor="middle" x="1408.5" y="-719" font-family="Helvetica,sans-Serif" font-size="10.00"> &#45;level</text>
</g>
<!-- Node17&#45;&gt;Node14 -->
<g id="edge20" class="edge">
<title>Node17&#45;&gt;Node14</title>
<path fill="none" stroke="#404040" d="M1485.98,-1467.24C1488.04,-1426.37 1491.5,-1347.57 1491.5,-1280.5 1491.5,-1280.5 1491.5,-1280.5 1491.5,-873.5 1491.5,-782.7 1463.13,-687.15 1430.28,-606.96"/>
<polygon fill="none" stroke="#404040" points="1430.22,-606.83 1424.22,-602.83 1425.61,-595.75 1431.61,-599.76 1430.22,-606.83"/>
<text text-anchor="middle" x="1523" y="-1125.5" font-family="Helvetica,sans-Serif" font-size="10.00"> &#45;deathFrames</text>
<text text-anchor="middle" x="1523" y="-1114.5" font-family="Helvetica,sans-Serif" font-size="10.00">&#45;runFrames</text>
</g>
<!-- Node18&#45;&gt;Node1 -->
<g id="edge22" class="edge">
<title>Node18&#45;&gt;Node1</title>
<path fill="none" stroke="#404040" d="M937.76,-654.28C935.57,-531.71 926.89,-274.52 892.5,-193 886.06,-177.74 876.52,-163.63 865.48,-150.86"/>
<polygon fill="none" stroke="#404040" points="865.29,-150.65 858.29,-148.93 857.19,-141.8 864.19,-143.53 865.29,-150.65"/>
<text text-anchor="middle" x="951.5" y="-412" font-family="Helvetica,sans-Serif" font-size="10.00"> &#45;score</text>
</g>
<!-- Node19&#45;&gt;Node1 -->
<g id="edge24" class="edge">
<title>Node19&#45;&gt;Node1</title>
<path fill="none" stroke="#404040" d="M1079.56,-369.16C1055.45,-314.45 1007.83,-221.63 941.5,-164 919.92,-145.25 893.75,-129.3 868.13,-116.26"/>
<polygon fill="none" stroke="#404040" points="867.95,-116.17 860.8,-117.1 857.2,-110.85 864.35,-109.93 867.95,-116.17"/>
<text text-anchor="middle" x="991" y="-167" font-family="Helvetica,sans-Serif" font-size="10.00"> &#45;lastTouchedObs</text>
</g>
</g>
</svg>
