<?xml version="1.0" encoding="UTF-8" standalone="no"?>
<!DOCTYPE svg PUBLIC "-//W3C//DTD SVG 1.1//EN"
 "http://www.w3.org/Graphics/SVG/1.1/DTD/svg11.dtd">
<!-- Generated by graphviz version 3.0.0 (20221109.1736)
 -->
<!-- Title: objects.Player Pages: 1 -->
<svg width="589pt" height="1397pt"
 viewBox="0.00 0.00 588.94 1397.00" xmlns="http://www.w3.org/2000/svg" xmlns:xlink="http://www.w3.org/1999/xlink">
<g id="graph0" class="graph" transform="scale(1 1) rotate(0) translate(4 1393)">
<title>objects.Player</title>
<polygon fill="white" stroke="transparent" points="-4,4 -4,-1393 584.94,-1393 584.94,4 -4,4"/>
<!-- Node1 -->
<g id="node1" class="node">
<title>Node1</title>
<g id="a_node1"><a xlink:title=" ">
<polygon fill="#bfbfbf" stroke="black" points="304.94,-0.5 304.94,-442.5 492.94,-442.5 492.94,-0.5 304.94,-0.5"/>
<text text-anchor="middle" x="398.94" y="-430.5" font-family="Helvetica,sans-Serif" font-size="10.00">objects.Player</text>
<polyline fill="none" stroke="black" points="304.94,-423.5 492.94,-423.5 "/>
<text text-anchor="start" x="312.94" y="-411.5" font-family="Helvetica,sans-Serif" font-size="10.00">+ static final double playerLength</text>
<text text-anchor="start" x="312.94" y="-400.5" font-family="Helvetica,sans-Serif" font-size="10.00">+ static final int maxJumpFrames</text>
<text text-anchor="start" x="312.94" y="-389.5" font-family="Helvetica,sans-Serif" font-size="10.00">+ static final int maxJumpLength</text>
<text text-anchor="start" x="312.94" y="-378.5" font-family="Helvetica,sans-Serif" font-size="10.00">+ static final int maxRampFrames</text>
<text text-anchor="start" x="312.94" y="-367.5" font-family="Helvetica,sans-Serif" font-size="10.00">+ static final double jumpFormulaATerm</text>
<text text-anchor="start" x="312.94" y="-356.5" font-family="Helvetica,sans-Serif" font-size="10.00">+ static final double jumpFormulaBTerm</text>
<text text-anchor="start" x="312.94" y="-345.5" font-family="Helvetica,sans-Serif" font-size="10.00">&#45; boolean jumping</text>
<text text-anchor="start" x="312.94" y="-334.5" font-family="Helvetica,sans-Serif" font-size="10.00">&#45; boolean isClimbingRamp</text>
<text text-anchor="start" x="312.94" y="-323.5" font-family="Helvetica,sans-Serif" font-size="10.00">&#45; Boolean alive</text>
<text text-anchor="start" x="312.94" y="-312.5" font-family="Helvetica,sans-Serif" font-size="10.00">&#45; Boolean isDying</text>
<text text-anchor="start" x="312.94" y="-301.5" font-family="Helvetica,sans-Serif" font-size="10.00">&#45; int currentJumpFrame</text>
<text text-anchor="start" x="312.94" y="-290.5" font-family="Helvetica,sans-Serif" font-size="10.00">&#45; int currentRunningFrame</text>
<text text-anchor="start" x="312.94" y="-279.5" font-family="Helvetica,sans-Serif" font-size="10.00">&#45; int currentDeathFrame</text>
<text text-anchor="start" x="312.94" y="-268.5" font-family="Helvetica,sans-Serif" font-size="10.00">&#45; int currentClimbingFrame</text>
<polyline fill="none" stroke="black" points="304.94,-261.5 492.94,-261.5 "/>
<text text-anchor="start" x="312.94" y="-249.5" font-family="Helvetica,sans-Serif" font-size="10.00">+ Player()</text>
<text text-anchor="start" x="312.94" y="-238.5" font-family="Helvetica,sans-Serif" font-size="10.00">+ Level getLevel()</text>
<text text-anchor="start" x="312.94" y="-227.5" font-family="Helvetica,sans-Serif" font-size="10.00">+ void setLevel(Level level)</text>
<text text-anchor="start" x="312.94" y="-216.5" font-family="Helvetica,sans-Serif" font-size="10.00">+ void moveLeft()</text>
<text text-anchor="start" x="312.94" y="-205.5" font-family="Helvetica,sans-Serif" font-size="10.00">+ void moveRight()</text>
<text text-anchor="start" x="312.94" y="-194.5" font-family="Helvetica,sans-Serif" font-size="10.00">+ boolean isJumping()</text>
<text text-anchor="start" x="312.94" y="-183.5" font-family="Helvetica,sans-Serif" font-size="10.00">+ boolean isAlive()</text>
<text text-anchor="start" x="312.94" y="-172.5" font-family="Helvetica,sans-Serif" font-size="10.00">+ boolean isDying()</text>
<text text-anchor="start" x="312.94" y="-161.5" font-family="Helvetica,sans-Serif" font-size="10.00">+ void die()</text>
<text text-anchor="start" x="312.94" y="-150.5" font-family="Helvetica,sans-Serif" font-size="10.00">+ void rampClimb()</text>
<text text-anchor="start" x="312.94" y="-139.5" font-family="Helvetica,sans-Serif" font-size="10.00">+ void jump()</text>
<text text-anchor="start" x="312.94" y="-128.5" font-family="Helvetica,sans-Serif" font-size="10.00">+ void setIsDying()</text>
<text text-anchor="start" x="312.94" y="-117.5" font-family="Helvetica,sans-Serif" font-size="10.00">+ void jumpUpdate()</text>
<text text-anchor="start" x="312.94" y="-106.5" font-family="Helvetica,sans-Serif" font-size="10.00">+ void setPlayerLevelLow()</text>
<text text-anchor="start" x="312.94" y="-95.5" font-family="Helvetica,sans-Serif" font-size="10.00">+ void setPlayerLevelHigh()</text>
<text text-anchor="start" x="312.94" y="-84.5" font-family="Helvetica,sans-Serif" font-size="10.00">+ void rampUpdate()</text>
<text text-anchor="start" x="312.94" y="-73.5" font-family="Helvetica,sans-Serif" font-size="10.00">+ void updateDeathAnimation()</text>
<text text-anchor="start" x="312.94" y="-62.5" font-family="Helvetica,sans-Serif" font-size="10.00">+ void playerUpdateAnimation()</text>
<text text-anchor="start" x="312.94" y="-51.5" font-family="Helvetica,sans-Serif" font-size="10.00">&#45; void setAnimations()</text>
<text text-anchor="start" x="312.94" y="-40.5" font-family="Helvetica,sans-Serif" font-size="10.00">&#45; void playerLengthIncrease(double diff)</text>
<text text-anchor="start" x="312.94" y="-29.5" font-family="Helvetica,sans-Serif" font-size="10.00">&#45; void playerLengthDecrease(double diff)</text>
<text text-anchor="start" x="312.94" y="-18.5" font-family="Helvetica,sans-Serif" font-size="10.00">&#45; double jumpCurrentValue(int frame)</text>
<text text-anchor="start" x="312.94" y="-7.5" font-family="Helvetica,sans-Serif" font-size="10.00">&#45; void updateRunningAnimation()</text>
</a>
</g>
</g>
<!-- Node2 -->
<g id="node2" class="node">
<title>Node2</title>
<g id="a_node2"><a xlink:href="classobjects_1_1GameLaneObject.html" target="_top" xlink:title=" ">
<polygon fill="white" stroke="black" points="82.94,-490.5 82.94,-624.5 420.94,-624.5 420.94,-490.5 82.94,-490.5"/>
<text text-anchor="middle" x="251.94" y="-612.5" font-family="Helvetica,sans-Serif" font-size="10.00">objects.GameLaneObject</text>
<polyline fill="none" stroke="black" points="82.94,-605.5 420.94,-605.5 "/>
<text text-anchor="middle" x="251.94" y="-593.5" font-family="Helvetica,sans-Serif" font-size="10.00"> </text>
<polyline fill="none" stroke="black" points="82.94,-586.5 420.94,-586.5 "/>
<text text-anchor="start" x="90.94" y="-574.5" font-family="Helvetica,sans-Serif" font-size="10.00">+ GameLaneObject(Block.Lane lane, double y, double width, double length)</text>
<text text-anchor="start" x="90.94" y="-563.5" font-family="Helvetica,sans-Serif" font-size="10.00">+ GameLaneObject(Block.Lane lane, double y, double cubeLength)</text>
<text text-anchor="start" x="90.94" y="-552.5" font-family="Helvetica,sans-Serif" font-size="10.00">+ void setLane(Block.Lane path)</text>
<text text-anchor="start" x="90.94" y="-541.5" font-family="Helvetica,sans-Serif" font-size="10.00">+ Block.Lane getLane()</text>
<text text-anchor="start" x="90.94" y="-530.5" font-family="Helvetica,sans-Serif" font-size="10.00">+ void Draw()</text>
<text text-anchor="start" x="90.94" y="-519.5" font-family="Helvetica,sans-Serif" font-size="10.00">+ boolean contains(Block.Lane lane, double y)</text>
<text text-anchor="start" x="90.94" y="-508.5" font-family="Helvetica,sans-Serif" font-size="10.00">+ boolean touches(GameLaneObject other)</text>
<text text-anchor="start" x="90.94" y="-497.5" font-family="Helvetica,sans-Serif" font-size="10.00">+ double distance(GameLaneObject other)</text>
</a>
</g>
</g>
<!-- Node2&#45;&gt;Node1 -->
<g id="edge1" class="edge">
<title>Node2&#45;&gt;Node1</title>
<path fill="none" stroke="midnightblue" d="M285.28,-480.76C291.35,-466.95 297.96,-451.95 304.82,-436.36"/>
<polygon fill="none" stroke="midnightblue" points="281.99,-479.55 281.16,-490.11 288.39,-482.37 281.99,-479.55"/>
</g>
<!-- Node3 -->
<g id="node3" class="node">
<title>Node3</title>
<g id="a_node3"><a xlink:href="classobjects_1_1GameObject.html" target="_top" xlink:title=" ">
<polygon fill="white" stroke="black" points="29.44,-672.5 29.44,-938.5 346.44,-938.5 346.44,-672.5 29.44,-672.5"/>
<text text-anchor="middle" x="187.94" y="-926.5" font-family="Helvetica,sans-Serif" font-size="10.00">objects.GameObject</text>
<polyline fill="none" stroke="black" points="29.44,-919.5 346.44,-919.5 "/>
<text text-anchor="start" x="37.44" y="-907.5" font-family="Helvetica,sans-Serif" font-size="10.00"># double x</text>
<text text-anchor="start" x="37.44" y="-896.5" font-family="Helvetica,sans-Serif" font-size="10.00"># double y</text>
<text text-anchor="start" x="37.44" y="-885.5" font-family="Helvetica,sans-Serif" font-size="10.00"># double width</text>
<text text-anchor="start" x="37.44" y="-874.5" font-family="Helvetica,sans-Serif" font-size="10.00"># double length</text>
<polyline fill="none" stroke="black" points="29.44,-867.5 346.44,-867.5 "/>
<text text-anchor="start" x="37.44" y="-855.5" font-family="Helvetica,sans-Serif" font-size="10.00">+ GameObject(double x, double y, double width, double length)</text>
<text text-anchor="start" x="37.44" y="-844.5" font-family="Helvetica,sans-Serif" font-size="10.00">+ GameObject(Block.Lane lane, double y, double width, double length)</text>
<text text-anchor="start" x="37.44" y="-833.5" font-family="Helvetica,sans-Serif" font-size="10.00">+ GameObject(Block.Lane lane, double y, double cubeLength)</text>
<text text-anchor="start" x="37.44" y="-822.5" font-family="Helvetica,sans-Serif" font-size="10.00">+ GameObject(double x, double y, double cubeLength)</text>
<text text-anchor="start" x="37.44" y="-811.5" font-family="Helvetica,sans-Serif" font-size="10.00">+ double getWidth()</text>
<text text-anchor="start" x="37.44" y="-800.5" font-family="Helvetica,sans-Serif" font-size="10.00">+ double getLength()</text>
<text text-anchor="start" x="37.44" y="-789.5" font-family="Helvetica,sans-Serif" font-size="10.00">+ void setColor(Color color)</text>
<text text-anchor="start" x="37.44" y="-778.5" font-family="Helvetica,sans-Serif" font-size="10.00">+ void setLane(Block.Lane path)</text>
<text text-anchor="start" x="37.44" y="-767.5" font-family="Helvetica,sans-Serif" font-size="10.00">+ Block.Lane getLane()</text>
<text text-anchor="start" x="37.44" y="-756.5" font-family="Helvetica,sans-Serif" font-size="10.00">+ void setX(double x)</text>
<text text-anchor="start" x="37.44" y="-745.5" font-family="Helvetica,sans-Serif" font-size="10.00">+ void setY(double y)</text>
<text text-anchor="start" x="37.44" y="-734.5" font-family="Helvetica,sans-Serif" font-size="10.00">+ double getY()</text>
<text text-anchor="start" x="37.44" y="-723.5" font-family="Helvetica,sans-Serif" font-size="10.00">+ double getX()</text>
<text text-anchor="start" x="37.44" y="-712.5" font-family="Helvetica,sans-Serif" font-size="10.00">+ void Draw()</text>
<text text-anchor="start" x="37.44" y="-701.5" font-family="Helvetica,sans-Serif" font-size="10.00">+ boolean interesects(double x, double y)</text>
<text text-anchor="start" x="37.44" y="-690.5" font-family="Helvetica,sans-Serif" font-size="10.00">+ boolean interesects(Block.Lane lane, double y)</text>
<text text-anchor="start" x="37.44" y="-679.5" font-family="Helvetica,sans-Serif" font-size="10.00">+ boolean touches(GameObject other)</text>
</a>
</g>
</g>
<!-- Node3&#45;&gt;Node2 -->
<g id="edge2" class="edge">
<title>Node3&#45;&gt;Node2</title>
<path fill="none" stroke="midnightblue" d="M224.89,-662.46C228.29,-649.4 231.61,-636.64 234.7,-624.77"/>
<polygon fill="none" stroke="midnightblue" points="221.41,-661.94 222.28,-672.5 228.19,-663.7 221.41,-661.94"/>
</g>
<!-- Node4 -->
<g id="node4" class="node">
<title>Node4</title>
<g id="a_node4"><a xlink:title=" ">
<polygon fill="white" stroke="black" points="16.44,-1030.5 16.44,-1087.5 55.44,-1087.5 55.44,-1030.5 16.44,-1030.5"/>
<text text-anchor="middle" x="35.94" y="-1075.5" font-family="Helvetica,sans-Serif" font-size="10.00">Color</text>
<polyline fill="none" stroke="black" points="16.44,-1068.5 55.44,-1068.5 "/>
<text text-anchor="middle" x="35.94" y="-1056.5" font-family="Helvetica,sans-Serif" font-size="10.00"> </text>
<polyline fill="none" stroke="black" points="16.44,-1049.5 55.44,-1049.5 "/>
<text text-anchor="middle" x="35.94" y="-1037.5" font-family="Helvetica,sans-Serif" font-size="10.00"> </text>
</a>
</g>
</g>
<!-- Node4&#45;&gt;Node1 -->
<g id="edge9" class="edge">
<title>Node4&#45;&gt;Node1</title>
<path fill="none" stroke="#404040" d="M29.03,-1030.47C8.69,-942.81 -42.49,-665.68 73.94,-490 130.51,-404.65 222.5,-332.6 294.21,-284.85"/>
<polygon fill="none" stroke="#404040" points="294.61,-284.59 297.42,-277.95 304.63,-277.99 301.82,-284.63 294.61,-284.59"/>
<text text-anchor="middle" x="39.94" y="-646" font-family="Helvetica,sans-Serif" font-size="10.00"> &#45;playerColor</text>
</g>
<!-- Node4&#45;&gt;Node3 -->
<g id="edge3" class="edge">
<title>Node4&#45;&gt;Node3</title>
<path fill="none" stroke="#404040" d="M52.79,-1030.12C65.15,-1009.67 82.98,-980.18 101.64,-949.29"/>
<polygon fill="none" stroke="#404040" points="101.79,-949.04 101.48,-941.84 108,-938.77 108.32,-945.97 101.79,-949.04"/>
<text text-anchor="middle" x="108.44" y="-960" font-family="Helvetica,sans-Serif" font-size="10.00"> #color</text>
</g>
<!-- Node5 -->
<g id="node5" class="node">
<title>Node5</title>
<g id="a_node5"><a xlink:title=" ">
<polygon fill="white" stroke="black" points="104.94,-1030.5 104.94,-1087.5 148.94,-1087.5 148.94,-1030.5 104.94,-1030.5"/>
<text text-anchor="middle" x="126.94" y="-1075.5" font-family="Helvetica,sans-Serif" font-size="10.00">Image</text>
<polyline fill="none" stroke="black" points="104.94,-1068.5 148.94,-1068.5 "/>
<text text-anchor="middle" x="126.94" y="-1056.5" font-family="Helvetica,sans-Serif" font-size="10.00"> </text>
<polyline fill="none" stroke="black" points="104.94,-1049.5 148.94,-1049.5 "/>
<text text-anchor="middle" x="126.94" y="-1037.5" font-family="Helvetica,sans-Serif" font-size="10.00"> </text>
</a>
</g>
</g>
<!-- Node5&#45;&gt;Node3 -->
<g id="edge4" class="edge">
<title>Node5&#45;&gt;Node3</title>
<path fill="none" stroke="#404040" d="M133.7,-1030.12C138.6,-1009.94 145.63,-980.95 153.02,-950.5"/>
<polygon fill="none" stroke="#404040" points="153.03,-950.43 150.56,-943.66 155.86,-938.77 158.33,-945.54 153.03,-950.43"/>
<text text-anchor="middle" x="167.94" y="-960" font-family="Helvetica,sans-Serif" font-size="10.00"> #image</text>
</g>
<!-- Node6 -->
<g id="node6" class="node">
<title>Node6</title>
<g id="a_node6"><a xlink:href="classobjects_1_1Block.html" target="_top" xlink:title=" ">
<polygon fill="white" stroke="black" points="166.94,-986.5 166.94,-1131.5 420.94,-1131.5 420.94,-986.5 166.94,-986.5"/>
<text text-anchor="middle" x="293.94" y="-1119.5" font-family="Helvetica,sans-Serif" font-size="10.00">objects.Block</text>
<polyline fill="none" stroke="black" points="166.94,-1112.5 420.94,-1112.5 "/>
<text text-anchor="start" x="174.94" y="-1100.5" font-family="Helvetica,sans-Serif" font-size="10.00">+ static final double speed</text>
<text text-anchor="start" x="174.94" y="-1089.5" font-family="Helvetica,sans-Serif" font-size="10.00">&#45; double currentY</text>
<polyline fill="none" stroke="black" points="166.94,-1082.5 420.94,-1082.5 "/>
<text text-anchor="start" x="174.94" y="-1070.5" font-family="Helvetica,sans-Serif" font-size="10.00">+ Block(ArrayList&lt; Obstacle &gt; left, ArrayList&lt; Obstacle</text>
<text text-anchor="start" x="174.94" y="-1059.5" font-family="Helvetica,sans-Serif" font-size="10.00"> &gt; center, ArrayList&lt; Obstacle &gt; right)</text>
<text text-anchor="start" x="174.94" y="-1048.5" font-family="Helvetica,sans-Serif" font-size="10.00">+ double getCurrentY()</text>
<text text-anchor="start" x="174.94" y="-1037.5" font-family="Helvetica,sans-Serif" font-size="10.00">+ ArrayList&lt; Obstacle &gt; getLane(Lane lane)</text>
<text text-anchor="start" x="174.94" y="-1026.5" font-family="Helvetica,sans-Serif" font-size="10.00">+ ArrayList&lt; Obstacle &gt; getLeftLane()</text>
<text text-anchor="start" x="174.94" y="-1015.5" font-family="Helvetica,sans-Serif" font-size="10.00">+ ArrayList&lt; Obstacle &gt; getCenterLane()</text>
<text text-anchor="start" x="174.94" y="-1004.5" font-family="Helvetica,sans-Serif" font-size="10.00">+ ArrayList&lt; Obstacle &gt; getRightLane()</text>
<text text-anchor="start" x="174.94" y="-993.5" font-family="Helvetica,sans-Serif" font-size="10.00">+ void frameUpdate()</text>
</a>
</g>
</g>
<!-- Node6&#45;&gt;Node2 -->
<g id="edge8" class="edge">
<title>Node6&#45;&gt;Node2</title>
<path fill="none" stroke="#404040" d="M337.41,-986.49C344.66,-971.31 351.07,-955.02 354.94,-939 382.79,-823.65 397.68,-782.7 354.94,-672 349.81,-658.72 342.33,-646.03 333.69,-634.26"/>
<polygon fill="none" stroke="#404040" points="333.56,-634.08 326.72,-631.8 326.2,-624.61 333.04,-626.89 333.56,-634.08"/>
<text text-anchor="middle" x="394.94" y="-803" font-family="Helvetica,sans-Serif" font-size="10.00"> #lane</text>
</g>
<!-- Node6&#45;&gt;Node3 -->
<g id="edge5" class="edge">
<title>Node6&#45;&gt;Node3</title>
<path fill="none" stroke="#404040" d="M263.71,-986.27C258.83,-974.7 253.64,-962.38 248.35,-949.82"/>
<polygon fill="none" stroke="#404040" points="248.34,-949.8 242.32,-945.82 243.68,-938.74 249.69,-942.72 248.34,-949.8"/>
<text text-anchor="middle" x="266.94" y="-960" font-family="Helvetica,sans-Serif" font-size="10.00"> #lane</text>
</g>
<!-- Node7 -->
<g id="node7" class="node">
<title>Node7</title>
<g id="a_node7"><a xlink:title=" ">
<polygon fill="white" stroke="black" points="235.44,-1226.5 235.44,-1283.5 380.44,-1283.5 380.44,-1226.5 235.44,-1226.5"/>
<text text-anchor="middle" x="307.94" y="-1271.5" font-family="Helvetica,sans-Serif" font-size="10.00">ArrayList&lt; objects.Obstacle &gt;</text>
<polyline fill="none" stroke="black" points="235.44,-1264.5 380.44,-1264.5 "/>
<text text-anchor="middle" x="307.94" y="-1252.5" font-family="Helvetica,sans-Serif" font-size="10.00"> </text>
<polyline fill="none" stroke="black" points="235.44,-1245.5 380.44,-1245.5 "/>
<text text-anchor="middle" x="307.94" y="-1233.5" font-family="Helvetica,sans-Serif" font-size="10.00"> </text>
</a>
</g>
</g>
<!-- Node7&#45;&gt;Node6 -->
<g id="edge6" class="edge">
<title>Node7&#45;&gt;Node6</title>
<path fill="none" stroke="#404040" d="M305.94,-1226.2C304.37,-1204.56 302.12,-1173.34 299.99,-1143.78"/>
<polygon fill="none" stroke="#404040" points="299.98,-1143.65 295.56,-1137.96 299.12,-1131.69 303.54,-1137.38 299.98,-1143.65"/>
<text text-anchor="middle" x="321.44" y="-1187.5" font-family="Helvetica,sans-Serif" font-size="10.00"> &#45;center</text>
<text text-anchor="middle" x="321.44" y="-1176.5" font-family="Helvetica,sans-Serif" font-size="10.00">&#45;left</text>
<text text-anchor="middle" x="321.44" y="-1165.5" font-family="Helvetica,sans-Serif" font-size="10.00">&#45;right</text>
</g>
<!-- Node8 -->
<g id="node8" class="node">
<title>Node8</title>
<g id="a_node8"><a xlink:title=" ">
<polygon fill="white" stroke="black" points="356.94,-1331.5 356.94,-1388.5 412.94,-1388.5 412.94,-1331.5 356.94,-1331.5"/>
<text text-anchor="middle" x="384.94" y="-1376.5" font-family="Helvetica,sans-Serif" font-size="10.00">ArrayList</text>
<polyline fill="none" stroke="black" points="356.94,-1369.5 412.94,-1369.5 "/>
<text text-anchor="middle" x="384.94" y="-1357.5" font-family="Helvetica,sans-Serif" font-size="10.00"> </text>
<polyline fill="none" stroke="black" points="356.94,-1350.5 412.94,-1350.5 "/>
<text text-anchor="middle" x="384.94" y="-1338.5" font-family="Helvetica,sans-Serif" font-size="10.00"> </text>
</a>
</g>
</g>
<!-- Node8&#45;&gt;Node7 -->
<g id="edge7" class="edge">
<title>Node8&#45;&gt;Node7</title>
<path fill="none" stroke="orange" d="M348.8,-1333.31C341.9,-1327.23 335.2,-1320.35 329.94,-1313 323.64,-1304.2 318.87,-1293.37 315.41,-1283.51"/>
<polygon fill="orange" stroke="orange" points="346.99,-1336.36 356.92,-1340.07 351.47,-1330.98 346.99,-1336.36"/>
<text text-anchor="middle" x="376.94" y="-1305" font-family="Helvetica,sans-Serif" font-size="10.00"> &lt; objects::Obstacle &gt;</text>
</g>
<!-- Node10 -->
<g id="node10" class="node">
<title>Node10</title>
<g id="a_node10"><a xlink:title=" ">
<polygon fill="white" stroke="black" points="397.44,-1150.5 397.44,-1207.5 496.44,-1207.5 496.44,-1150.5 397.44,-1150.5"/>
<text text-anchor="middle" x="446.94" y="-1195.5" font-family="Helvetica,sans-Serif" font-size="10.00">ArrayList&lt; Image &gt;</text>
<polyline fill="none" stroke="black" points="397.44,-1188.5 496.44,-1188.5 "/>
<text text-anchor="middle" x="446.94" y="-1176.5" font-family="Helvetica,sans-Serif" font-size="10.00"> </text>
<polyline fill="none" stroke="black" points="397.44,-1169.5 496.44,-1169.5 "/>
<text text-anchor="middle" x="446.94" y="-1157.5" font-family="Helvetica,sans-Serif" font-size="10.00"> </text>
</a>
</g>
</g>
<!-- Node8&#45;&gt;Node10 -->
<g id="edge12" class="edge">
<title>Node8&#45;&gt;Node10</title>
<path fill="none" stroke="orange" d="M418.29,-1323.07C420.41,-1319.8 422.34,-1316.43 423.94,-1313 439.82,-1279.03 444.83,-1235.57 446.36,-1207.75"/>
<polygon fill="orange" stroke="orange" points="415.26,-1321.28 412.27,-1331.45 420.95,-1325.37 415.26,-1321.28"/>
<text text-anchor="middle" x="451.94" y="-1305" font-family="Helvetica,sans-Serif" font-size="10.00"> &lt; Image &gt;</text>
</g>
<!-- Node9 -->
<g id="node9" class="node">
<title>Node9</title>
<g id="a_node9"><a xlink:href="enumobjects_1_1Player_1_1Level.html" target="_top" xlink:title=" ">
<polygon fill="white" stroke="black" points="476.94,-523.5 476.94,-591.5 580.94,-591.5 580.94,-523.5 476.94,-523.5"/>
<text text-anchor="middle" x="528.94" y="-579.5" font-family="Helvetica,sans-Serif" font-size="10.00">objects.Player.Level</text>
<polyline fill="none" stroke="black" points="476.94,-572.5 580.94,-572.5 "/>
<text text-anchor="start" x="484.94" y="-560.5" font-family="Helvetica,sans-Serif" font-size="10.00">+ LOW</text>
<text text-anchor="start" x="484.94" y="-549.5" font-family="Helvetica,sans-Serif" font-size="10.00">+ HIGH</text>
<polyline fill="none" stroke="black" points="476.94,-542.5 580.94,-542.5 "/>
<text text-anchor="middle" x="528.94" y="-530.5" font-family="Helvetica,sans-Serif" font-size="10.00"> </text>
</a>
</g>
</g>
<!-- Node9&#45;&gt;Node1 -->
<g id="edge10" class="edge">
<title>Node9&#45;&gt;Node1</title>
<path fill="none" stroke="#404040" d="M516,-523.25C508.92,-505.05 499.45,-480.74 488.96,-453.78"/>
<polygon fill="none" stroke="#404040" points="488.92,-453.68 483.02,-449.54 484.57,-442.5 490.48,-446.64 488.92,-453.68"/>
<text text-anchor="middle" x="506.94" y="-464" font-family="Helvetica,sans-Serif" font-size="10.00"> &#45;level</text>
</g>
<!-- Node10&#45;&gt;Node1 -->
<g id="edge11" class="edge">
<title>Node10&#45;&gt;Node1</title>
<path fill="none" stroke="#404040" d="M447.37,-1150.23C447.95,-1109.35 448.94,-1030.53 448.94,-963.5 448.94,-963.5 448.94,-963.5 448.94,-556.5 448.94,-523.46 446.52,-488.78 442.74,-454.78"/>
<polygon fill="none" stroke="#404040" points="442.73,-454.71 438.07,-449.21 441.35,-442.79 446.01,-448.29 442.73,-454.71"/>
<text text-anchor="middle" x="480.44" y="-808.5" font-family="Helvetica,sans-Serif" font-size="10.00"> &#45;deathFrames</text>
<text text-anchor="middle" x="480.44" y="-797.5" font-family="Helvetica,sans-Serif" font-size="10.00">&#45;runFrames</text>
</g>
</g>
</svg>
