<?xml version="1.0" encoding="UTF-8" standalone="no"?>
<!DOCTYPE svg PUBLIC "-//W3C//DTD SVG 1.1//EN"
 "http://www.w3.org/Graphics/SVG/1.1/DTD/svg11.dtd">
<!-- Generated by graphviz version 3.0.0 (20221109.1736)
 -->
<!-- Title: game.GameLoop Pages: 1 -->
<svg width="1630pt" height="1852pt"
 viewBox="0.00 0.00 1629.50 1852.00" xmlns="http://www.w3.org/2000/svg" xmlns:xlink="http://www.w3.org/1999/xlink">
<g id="graph0" class="graph" transform="scale(1 1) rotate(0) translate(4 1848)">
<title>game.GameLoop</title>
<polygon fill="white" stroke="transparent" points="-4,4 -4,-1848 1625.5,-1848 1625.5,4 -4,4"/>
<!-- Node1 -->
<g id="node1" class="node">
<title>Node1</title>
<g id="a_node1"><a xlink:title=" ">
<polygon fill="#bfbfbf" stroke="black" points="199.5,-0.5 199.5,-90.5 345.5,-90.5 345.5,-0.5 199.5,-0.5"/>
<text text-anchor="middle" x="272.5" y="-78.5" font-family="Helvetica,sans-Serif" font-size="10.00">game.GameLoop</text>
<polyline fill="none" stroke="black" points="199.5,-71.5 345.5,-71.5 "/>
<text text-anchor="start" x="207.5" y="-59.5" font-family="Helvetica,sans-Serif" font-size="10.00">+ static final double fontSize</text>
<text text-anchor="start" x="207.5" y="-48.5" font-family="Helvetica,sans-Serif" font-size="10.00">+ static final long FPS</text>
<text text-anchor="start" x="207.5" y="-37.5" font-family="Helvetica,sans-Serif" font-size="10.00">&#45; long last</text>
<polyline fill="none" stroke="black" points="199.5,-30.5 345.5,-30.5 "/>
<text text-anchor="start" x="207.5" y="-18.5" font-family="Helvetica,sans-Serif" font-size="10.00">+ GameLoop(Canvas canvas)</text>
<text text-anchor="start" x="207.5" y="-7.5" font-family="Helvetica,sans-Serif" font-size="10.00">+ void handle(long now)</text>
</a>
</g>
</g>
<!-- Node2 -->
<g id="node2" class="node">
<title>Node2</title>
<g id="a_node2"><a xlink:title=" ">
<polygon fill="white" stroke="black" points="99,-182.5 99,-239.5 184,-239.5 184,-182.5 99,-182.5"/>
<text text-anchor="middle" x="141.5" y="-227.5" font-family="Helvetica,sans-Serif" font-size="10.00">AnimationTimer</text>
<polyline fill="none" stroke="black" points="99,-220.5 184,-220.5 "/>
<text text-anchor="middle" x="141.5" y="-208.5" font-family="Helvetica,sans-Serif" font-size="10.00"> </text>
<polyline fill="none" stroke="black" points="99,-201.5 184,-201.5 "/>
<text text-anchor="middle" x="141.5" y="-189.5" font-family="Helvetica,sans-Serif" font-size="10.00"> </text>
</a>
</g>
</g>
<!-- Node2&#45;&gt;Node1 -->
<g id="edge1" class="edge">
<title>Node2&#45;&gt;Node1</title>
<path fill="none" stroke="midnightblue" d="M162.11,-173.43C174.01,-153.57 189.88,-129.05 206.5,-109 211.64,-102.8 217.35,-96.6 223.2,-90.63"/>
<polygon fill="none" stroke="midnightblue" points="159,-171.8 156.93,-182.19 165.03,-175.36 159,-171.8"/>
</g>
<!-- Node3 -->
<g id="node3" class="node">
<title>Node3</title>
<g id="a_node3"><a xlink:title=" ">
<polygon fill="white" stroke="black" points="0,-524 0,-581 89,-581 89,-524 0,-524"/>
<text text-anchor="middle" x="44.5" y="-569" font-family="Helvetica,sans-Serif" font-size="10.00">GraphicsContext</text>
<polyline fill="none" stroke="black" points="0,-562 89,-562 "/>
<text text-anchor="middle" x="44.5" y="-550" font-family="Helvetica,sans-Serif" font-size="10.00"> </text>
<polyline fill="none" stroke="black" points="0,-543 89,-543 "/>
<text text-anchor="middle" x="44.5" y="-531" font-family="Helvetica,sans-Serif" font-size="10.00"> </text>
</a>
</g>
</g>
<!-- Node3&#45;&gt;Node1 -->
<g id="edge2" class="edge">
<title>Node3&#45;&gt;Node1</title>
<path fill="none" stroke="#404040" d="M44.15,-523.91C44.98,-478.73 52.77,-388.29 98.5,-331 127.64,-294.49 161.84,-319.24 192.5,-284 237.18,-232.64 257.13,-155.35 265.89,-103.01"/>
<polygon fill="none" stroke="#404040" points="265.92,-102.78 262.9,-96.23 267.78,-90.93 270.8,-97.47 265.92,-102.78"/>
<text text-anchor="middle" x="266.5" y="-208.5" font-family="Helvetica,sans-Serif" font-size="10.00"> &#45;gc</text>
</g>
<!-- Node4 -->
<g id="node4" class="node">
<title>Node4</title>
<g id="a_node4"><a xlink:href="classlogic_1_1Logic.html" target="_top" xlink:title=" ">
<polygon fill="white" stroke="black" points="494,-138.5 494,-283.5 685,-283.5 685,-138.5 494,-138.5"/>
<text text-anchor="middle" x="589.5" y="-271.5" font-family="Helvetica,sans-Serif" font-size="10.00">logic.Logic</text>
<polyline fill="none" stroke="black" points="494,-264.5 685,-264.5 "/>
<text text-anchor="start" x="502" y="-252.5" font-family="Helvetica,sans-Serif" font-size="10.00">&#45; boolean playerDied</text>
<text text-anchor="start" x="502" y="-241.5" font-family="Helvetica,sans-Serif" font-size="10.00">&#45; long last1000Millisecond</text>
<polyline fill="none" stroke="black" points="494,-234.5 685,-234.5 "/>
<text text-anchor="start" x="502" y="-222.5" font-family="Helvetica,sans-Serif" font-size="10.00">+ Logic(GraphicsContext gc)</text>
<text text-anchor="start" x="502" y="-211.5" font-family="Helvetica,sans-Serif" font-size="10.00">+ void tick(Long now)</text>
<text text-anchor="start" x="502" y="-200.5" font-family="Helvetica,sans-Serif" font-size="10.00">+ boolean playerCollision()</text>
<text text-anchor="start" x="502" y="-189.5" font-family="Helvetica,sans-Serif" font-size="10.00">+ Obstacle getPlayerTouchingObstacle()</text>
<text text-anchor="start" x="502" y="-178.5" font-family="Helvetica,sans-Serif" font-size="10.00">+ Player.Level getPlayerLevel()</text>
<text text-anchor="start" x="502" y="-167.5" font-family="Helvetica,sans-Serif" font-size="10.00">+ static Bounderies getBounderies()</text>
<text text-anchor="start" x="502" y="-156.5" font-family="Helvetica,sans-Serif" font-size="10.00">&#45; void playerDied()</text>
<text text-anchor="start" x="502" y="-145.5" font-family="Helvetica,sans-Serif" font-size="10.00">&#45; void startPlayer()</text>
</a>
</g>
</g>
<!-- Node3&#45;&gt;Node4 -->
<g id="edge4" class="edge">
<title>Node3&#45;&gt;Node4</title>
<path fill="none" stroke="#404040" d="M42.26,-523.96C40.1,-476.75 43.27,-380.69 98.5,-331 120.67,-311.05 202.3,-319.06 231.5,-313 316.85,-295.28 411.73,-268.16 482.36,-246.49"/>
<polygon fill="none" stroke="#404040" points="482.45,-246.46 487.01,-240.87 493.92,-242.92 489.37,-248.51 482.45,-246.46"/>
<text text-anchor="middle" x="291" y="-305" font-family="Helvetica,sans-Serif" font-size="10.00"> +gc</text>
</g>
<!-- Node4&#45;&gt;Node1 -->
<g id="edge3" class="edge">
<title>Node4&#45;&gt;Node1</title>
<path fill="none" stroke="#404040" d="M493.96,-160.72C450.19,-138.15 398.77,-111.63 356.5,-89.83"/>
<polygon fill="none" stroke="#404040" points="356.35,-89.75 349.18,-90.55 345.68,-84.24 352.85,-83.44 356.35,-89.75"/>
<text text-anchor="middle" x="439.5" y="-112" font-family="Helvetica,sans-Serif" font-size="10.00"> &#45;gameLogic</text>
</g>
<!-- Node5 -->
<g id="node5" class="node">
<title>Node5</title>
<g id="a_node5"><a xlink:href="classlogic_1_1Logic_1_1Bounderies.html" target="_top" xlink:title=" ">
<polygon fill="white" stroke="black" points="107.5,-430.5 107.5,-674.5 365.5,-674.5 365.5,-430.5 107.5,-430.5"/>
<text text-anchor="middle" x="236.5" y="-662.5" font-family="Helvetica,sans-Serif" font-size="10.00">logic.Logic.Bounderies</text>
<polyline fill="none" stroke="black" points="107.5,-655.5 365.5,-655.5 "/>
<text text-anchor="start" x="115.5" y="-643.5" font-family="Helvetica,sans-Serif" font-size="10.00">&#45; final double groundPaddingPercentage</text>
<text text-anchor="start" x="115.5" y="-632.5" font-family="Helvetica,sans-Serif" font-size="10.00">&#45; final double groundStartX</text>
<text text-anchor="start" x="115.5" y="-621.5" font-family="Helvetica,sans-Serif" font-size="10.00">&#45; final double groundWidth</text>
<text text-anchor="start" x="115.5" y="-610.5" font-family="Helvetica,sans-Serif" font-size="10.00">&#45; final double groundEndX</text>
<text text-anchor="start" x="115.5" y="-599.5" font-family="Helvetica,sans-Serif" font-size="10.00">&#45; final double laneWidth</text>
<text text-anchor="start" x="115.5" y="-588.5" font-family="Helvetica,sans-Serif" font-size="10.00">&#45; final double screenWidth</text>
<text text-anchor="start" x="115.5" y="-577.5" font-family="Helvetica,sans-Serif" font-size="10.00">&#45; final double screenHeight</text>
<text text-anchor="start" x="115.5" y="-566.5" font-family="Helvetica,sans-Serif" font-size="10.00">&#45; final double playerYPercentage</text>
<polyline fill="none" stroke="black" points="107.5,-559.5 365.5,-559.5 "/>
<text text-anchor="start" x="115.5" y="-547.5" font-family="Helvetica,sans-Serif" font-size="10.00">+ Bounderies(double screenWidth, double screenHeight)</text>
<text text-anchor="start" x="115.5" y="-536.5" font-family="Helvetica,sans-Serif" font-size="10.00">+ double getGroundStartX()</text>
<text text-anchor="start" x="115.5" y="-525.5" font-family="Helvetica,sans-Serif" font-size="10.00">+ double getGroundEndX()</text>
<text text-anchor="start" x="115.5" y="-514.5" font-family="Helvetica,sans-Serif" font-size="10.00">+ double getPlayerY()</text>
<text text-anchor="start" x="115.5" y="-503.5" font-family="Helvetica,sans-Serif" font-size="10.00">+ double getScreenHeight()</text>
<text text-anchor="start" x="115.5" y="-492.5" font-family="Helvetica,sans-Serif" font-size="10.00">+ double getScreenWidth()</text>
<text text-anchor="start" x="115.5" y="-481.5" font-family="Helvetica,sans-Serif" font-size="10.00">+ double getGroundWidth()</text>
<text text-anchor="start" x="115.5" y="-470.5" font-family="Helvetica,sans-Serif" font-size="10.00">+ double getLaneWidth()</text>
<text text-anchor="start" x="115.5" y="-459.5" font-family="Helvetica,sans-Serif" font-size="10.00">+ double getLaneStartX()</text>
<text text-anchor="start" x="115.5" y="-448.5" font-family="Helvetica,sans-Serif" font-size="10.00">+ double getLanePadding()</text>
<text text-anchor="start" x="115.5" y="-437.5" font-family="Helvetica,sans-Serif" font-size="10.00">+ double getLaneStartX(Block.Lane path)</text>
</a>
</g>
</g>
<!-- Node5&#45;&gt;Node4 -->
<g id="edge5" class="edge">
<title>Node5&#45;&gt;Node4</title>
<path fill="none" stroke="#404040" d="M297.24,-430.29C318.47,-395.5 344.59,-359.35 374.5,-331 405.78,-301.35 445.86,-276.57 482.92,-257.43"/>
<polygon fill="none" stroke="#404040" points="483.08,-257.35 486.63,-251.07 493.79,-251.93 490.24,-258.21 483.08,-257.35"/>
<text text-anchor="middle" x="443.5" y="-305" font-family="Helvetica,sans-Serif" font-size="10.00"> +bounderiesOBJ</text>
</g>
<!-- Node6 -->
<g id="node6" class="node">
<title>Node6</title>
<g id="a_node6"><a xlink:href="classobjects_1_1Ground.html" target="_top" xlink:title=" ">
<polygon fill="white" stroke="black" points="764,-967.5 764,-1057.5 983,-1057.5 983,-967.5 764,-967.5"/>
<text text-anchor="middle" x="873.5" y="-1045.5" font-family="Helvetica,sans-Serif" font-size="10.00">objects.Ground</text>
<polyline fill="none" stroke="black" points="764,-1038.5 983,-1038.5 "/>
<text text-anchor="start" x="772" y="-1026.5" font-family="Helvetica,sans-Serif" font-size="10.00">+ static final double laneImageWidth</text>
<text text-anchor="start" x="772" y="-1015.5" font-family="Helvetica,sans-Serif" font-size="10.00">&#45; double yDisplacement</text>
<polyline fill="none" stroke="black" points="764,-1008.5 983,-1008.5 "/>
<text text-anchor="start" x="772" y="-996.5" font-family="Helvetica,sans-Serif" font-size="10.00">+ Ground(double x, double width, double length)</text>
<text text-anchor="start" x="772" y="-985.5" font-family="Helvetica,sans-Serif" font-size="10.00">+ void frameUpdate()</text>
<text text-anchor="start" x="772" y="-974.5" font-family="Helvetica,sans-Serif" font-size="10.00">+ void Draw()</text>
</a>
</g>
</g>
<!-- Node6&#45;&gt;Node4 -->
<g id="edge6" class="edge">
<title>Node6&#45;&gt;Node4</title>
<path fill="none" stroke="#404040" d="M891.54,-967.31C935.97,-850.65 1037.16,-529.78 895.5,-331 844.44,-259.35 784.91,-312.95 696.74,-284.2"/>
<polygon fill="none" stroke="#404040" points="696.55,-284.13 689.54,-285.85 685.26,-280.04 692.27,-278.33 696.55,-284.13"/>
<text text-anchor="middle" x="985" y="-550" font-family="Helvetica,sans-Serif" font-size="10.00"> &#45;ground</text>
</g>
<!-- Node7 -->
<g id="node7" class="node">
<title>Node7</title>
<g id="a_node7"><a xlink:href="classobjects_1_1GameObject.html" target="_top" xlink:title=" ">
<polygon fill="white" stroke="black" points="787,-1127.5 787,-1393.5 1104,-1393.5 1104,-1127.5 787,-1127.5"/>
<text text-anchor="middle" x="945.5" y="-1381.5" font-family="Helvetica,sans-Serif" font-size="10.00">objects.GameObject</text>
<polyline fill="none" stroke="black" points="787,-1374.5 1104,-1374.5 "/>
<text text-anchor="start" x="795" y="-1362.5" font-family="Helvetica,sans-Serif" font-size="10.00"># double x</text>
<text text-anchor="start" x="795" y="-1351.5" font-family="Helvetica,sans-Serif" font-size="10.00"># double y</text>
<text text-anchor="start" x="795" y="-1340.5" font-family="Helvetica,sans-Serif" font-size="10.00"># double width</text>
<text text-anchor="start" x="795" y="-1329.5" font-family="Helvetica,sans-Serif" font-size="10.00"># double length</text>
<polyline fill="none" stroke="black" points="787,-1322.5 1104,-1322.5 "/>
<text text-anchor="start" x="795" y="-1310.5" font-family="Helvetica,sans-Serif" font-size="10.00">+ GameObject(double x, double y, double width, double length)</text>
<text text-anchor="start" x="795" y="-1299.5" font-family="Helvetica,sans-Serif" font-size="10.00">+ GameObject(Block.Lane lane, double y, double width, double length)</text>
<text text-anchor="start" x="795" y="-1288.5" font-family="Helvetica,sans-Serif" font-size="10.00">+ GameObject(Block.Lane lane, double y, double cubeLength)</text>
<text text-anchor="start" x="795" y="-1277.5" font-family="Helvetica,sans-Serif" font-size="10.00">+ GameObject(double x, double y, double cubeLength)</text>
<text text-anchor="start" x="795" y="-1266.5" font-family="Helvetica,sans-Serif" font-size="10.00">+ double getWidth()</text>
<text text-anchor="start" x="795" y="-1255.5" font-family="Helvetica,sans-Serif" font-size="10.00">+ double getLength()</text>
<text text-anchor="start" x="795" y="-1244.5" font-family="Helvetica,sans-Serif" font-size="10.00">+ void setColor(Color color)</text>
<text text-anchor="start" x="795" y="-1233.5" font-family="Helvetica,sans-Serif" font-size="10.00">+ void setLane(Block.Lane path)</text>
<text text-anchor="start" x="795" y="-1222.5" font-family="Helvetica,sans-Serif" font-size="10.00">+ Block.Lane getLane()</text>
<text text-anchor="start" x="795" y="-1211.5" font-family="Helvetica,sans-Serif" font-size="10.00">+ void setX(double x)</text>
<text text-anchor="start" x="795" y="-1200.5" font-family="Helvetica,sans-Serif" font-size="10.00">+ void setY(double y)</text>
<text text-anchor="start" x="795" y="-1189.5" font-family="Helvetica,sans-Serif" font-size="10.00">+ double getY()</text>
<text text-anchor="start" x="795" y="-1178.5" font-family="Helvetica,sans-Serif" font-size="10.00">+ double getX()</text>
<text text-anchor="start" x="795" y="-1167.5" font-family="Helvetica,sans-Serif" font-size="10.00">+ void Draw()</text>
<text text-anchor="start" x="795" y="-1156.5" font-family="Helvetica,sans-Serif" font-size="10.00">+ boolean interesects(double x, double y)</text>
<text text-anchor="start" x="795" y="-1145.5" font-family="Helvetica,sans-Serif" font-size="10.00">+ boolean interesects(Block.Lane lane, double y)</text>
<text text-anchor="start" x="795" y="-1134.5" font-family="Helvetica,sans-Serif" font-size="10.00">+ boolean touches(GameObject other)</text>
</a>
</g>
</g>
<!-- Node7&#45;&gt;Node6 -->
<g id="edge7" class="edge">
<title>Node7&#45;&gt;Node6</title>
<path fill="none" stroke="midnightblue" d="M904.02,-1117.79C897.65,-1096.02 891.52,-1075.06 886.44,-1057.7"/>
<polygon fill="none" stroke="midnightblue" points="900.7,-1118.88 906.87,-1127.5 907.42,-1116.92 900.7,-1118.88"/>
</g>
<!-- Node17 -->
<g id="node17" class="node">
<title>Node17</title>
<g id="a_node17"><a xlink:href="classobjects_1_1GameLaneObject.html" target="_top" xlink:title=" ">
<polygon fill="white" stroke="black" points="1001.5,-945.5 1001.5,-1079.5 1339.5,-1079.5 1339.5,-945.5 1001.5,-945.5"/>
<text text-anchor="middle" x="1170.5" y="-1067.5" font-family="Helvetica,sans-Serif" font-size="10.00">objects.GameLaneObject</text>
<polyline fill="none" stroke="black" points="1001.5,-1060.5 1339.5,-1060.5 "/>
<text text-anchor="middle" x="1170.5" y="-1048.5" font-family="Helvetica,sans-Serif" font-size="10.00"> </text>
<polyline fill="none" stroke="black" points="1001.5,-1041.5 1339.5,-1041.5 "/>
<text text-anchor="start" x="1009.5" y="-1029.5" font-family="Helvetica,sans-Serif" font-size="10.00">+ GameLaneObject(Block.Lane lane, double y, double width, double length)</text>
<text text-anchor="start" x="1009.5" y="-1018.5" font-family="Helvetica,sans-Serif" font-size="10.00">+ GameLaneObject(Block.Lane lane, double y, double cubeLength)</text>
<text text-anchor="start" x="1009.5" y="-1007.5" font-family="Helvetica,sans-Serif" font-size="10.00">+ void setLane(Block.Lane path)</text>
<text text-anchor="start" x="1009.5" y="-996.5" font-family="Helvetica,sans-Serif" font-size="10.00">+ Block.Lane getLane()</text>
<text text-anchor="start" x="1009.5" y="-985.5" font-family="Helvetica,sans-Serif" font-size="10.00">+ void Draw()</text>
<text text-anchor="start" x="1009.5" y="-974.5" font-family="Helvetica,sans-Serif" font-size="10.00">+ boolean contains(Block.Lane lane, double y)</text>
<text text-anchor="start" x="1009.5" y="-963.5" font-family="Helvetica,sans-Serif" font-size="10.00">+ boolean touches(GameLaneObject other)</text>
<text text-anchor="start" x="1009.5" y="-952.5" font-family="Helvetica,sans-Serif" font-size="10.00">+ double distance(GameLaneObject other)</text>
</a>
</g>
</g>
<!-- Node7&#45;&gt;Node17 -->
<g id="edge19" class="edge">
<title>Node7&#45;&gt;Node17</title>
<path fill="none" stroke="midnightblue" d="M1073.3,-1119.77C1085.98,-1105.91 1098.39,-1092.34 1109.88,-1079.77"/>
<polygon fill="none" stroke="midnightblue" points="1070.4,-1117.76 1066.23,-1127.5 1075.56,-1122.48 1070.4,-1117.76"/>
</g>
<!-- Node20 -->
<g id="node20" class="node">
<title>Node20</title>
<g id="a_node20"><a xlink:href="classlogic_1_1Logic_1_1Score.html" target="_top" xlink:title=" ">
<polygon fill="white" stroke="black" points="677,-792.5 677,-926.5 816,-926.5 816,-792.5 677,-792.5"/>
<text text-anchor="middle" x="746.5" y="-914.5" font-family="Helvetica,sans-Serif" font-size="10.00">logic.Logic.Score</text>
<polyline fill="none" stroke="black" points="677,-907.5 816,-907.5 "/>
<text text-anchor="start" x="685" y="-895.5" font-family="Helvetica,sans-Serif" font-size="10.00">+ static final double length</text>
<text text-anchor="start" x="685" y="-884.5" font-family="Helvetica,sans-Serif" font-size="10.00">+ static final double padding</text>
<text text-anchor="start" x="685" y="-873.5" font-family="Helvetica,sans-Serif" font-size="10.00">&#45; int currentScore</text>
<polyline fill="none" stroke="black" points="677,-866.5 816,-866.5 "/>
<text text-anchor="start" x="685" y="-854.5" font-family="Helvetica,sans-Serif" font-size="10.00">+ void increaseScore(int diff)</text>
<text text-anchor="start" x="685" y="-843.5" font-family="Helvetica,sans-Serif" font-size="10.00">+ void incrementScore()</text>
<text text-anchor="start" x="685" y="-832.5" font-family="Helvetica,sans-Serif" font-size="10.00">+ int getScore()</text>
<text text-anchor="start" x="685" y="-821.5" font-family="Helvetica,sans-Serif" font-size="10.00">+ void resetScore()</text>
<text text-anchor="start" x="685" y="-810.5" font-family="Helvetica,sans-Serif" font-size="10.00">+ void Draw()</text>
<text text-anchor="start" x="685" y="-799.5" font-family="Helvetica,sans-Serif" font-size="10.00">~ Score()</text>
</a>
</g>
</g>
<!-- Node7&#45;&gt;Node20 -->
<g id="edge26" class="edge">
<title>Node7&#45;&gt;Node20</title>
<path fill="none" stroke="midnightblue" d="M780.57,-1122.38C770.81,-1108.96 762.24,-1094.79 755.5,-1080 733.68,-1032.1 732.77,-972.06 736.57,-926.88"/>
<polygon fill="none" stroke="midnightblue" points="777.98,-1124.76 786.79,-1130.65 783.57,-1120.55 777.98,-1124.76"/>
</g>
<!-- Node8 -->
<g id="node8" class="node">
<title>Node8</title>
<g id="a_node8"><a xlink:title=" ">
<polygon fill="white" stroke="black" points="1393,-1485.5 1393,-1542.5 1432,-1542.5 1432,-1485.5 1393,-1485.5"/>
<text text-anchor="middle" x="1412.5" y="-1530.5" font-family="Helvetica,sans-Serif" font-size="10.00">Color</text>
<polyline fill="none" stroke="black" points="1393,-1523.5 1432,-1523.5 "/>
<text text-anchor="middle" x="1412.5" y="-1511.5" font-family="Helvetica,sans-Serif" font-size="10.00"> </text>
<polyline fill="none" stroke="black" points="1393,-1504.5 1432,-1504.5 "/>
<text text-anchor="middle" x="1412.5" y="-1492.5" font-family="Helvetica,sans-Serif" font-size="10.00"> </text>
</a>
</g>
</g>
<!-- Node8&#45;&gt;Node7 -->
<g id="edge8" class="edge">
<title>Node8&#45;&gt;Node7</title>
<path fill="none" stroke="#404040" d="M1392.91,-1496.95C1372.44,-1480.87 1338.86,-1456.35 1306.5,-1441 1240.31,-1409.6 1214.98,-1424.79 1148.5,-1394 1137.36,-1388.84 1126.12,-1383.14 1114.95,-1377.08"/>
<polygon fill="none" stroke="#404040" points="1114.77,-1376.98 1107.58,-1377.57 1104.27,-1371.17 1111.45,-1370.57 1114.77,-1376.98"/>
<text text-anchor="middle" x="1270" y="-1415" font-family="Helvetica,sans-Serif" font-size="10.00"> #color</text>
</g>
<!-- Node16 -->
<g id="node16" class="node">
<title>Node16</title>
<g id="a_node16"><a xlink:href="classobjects_1_1Player.html" target="_top" xlink:title=" ">
<polygon fill="white" stroke="black" points="1315.5,-331.5 1315.5,-773.5 1503.5,-773.5 1503.5,-331.5 1315.5,-331.5"/>
<text text-anchor="middle" x="1409.5" y="-761.5" font-family="Helvetica,sans-Serif" font-size="10.00">objects.Player</text>
<polyline fill="none" stroke="black" points="1315.5,-754.5 1503.5,-754.5 "/>
<text text-anchor="start" x="1323.5" y="-742.5" font-family="Helvetica,sans-Serif" font-size="10.00">+ static final double playerLength</text>
<text text-anchor="start" x="1323.5" y="-731.5" font-family="Helvetica,sans-Serif" font-size="10.00">+ static final int maxJumpFrames</text>
<text text-anchor="start" x="1323.5" y="-720.5" font-family="Helvetica,sans-Serif" font-size="10.00">+ static final int maxJumpLength</text>
<text text-anchor="start" x="1323.5" y="-709.5" font-family="Helvetica,sans-Serif" font-size="10.00">+ static final int maxRampFrames</text>
<text text-anchor="start" x="1323.5" y="-698.5" font-family="Helvetica,sans-Serif" font-size="10.00">+ static final double jumpFormulaATerm</text>
<text text-anchor="start" x="1323.5" y="-687.5" font-family="Helvetica,sans-Serif" font-size="10.00">+ static final double jumpFormulaBTerm</text>
<text text-anchor="start" x="1323.5" y="-676.5" font-family="Helvetica,sans-Serif" font-size="10.00">&#45; boolean jumping</text>
<text text-anchor="start" x="1323.5" y="-665.5" font-family="Helvetica,sans-Serif" font-size="10.00">&#45; boolean isClimbingRamp</text>
<text text-anchor="start" x="1323.5" y="-654.5" font-family="Helvetica,sans-Serif" font-size="10.00">&#45; Boolean alive</text>
<text text-anchor="start" x="1323.5" y="-643.5" font-family="Helvetica,sans-Serif" font-size="10.00">&#45; Boolean isDying</text>
<text text-anchor="start" x="1323.5" y="-632.5" font-family="Helvetica,sans-Serif" font-size="10.00">&#45; int currentJumpFrame</text>
<text text-anchor="start" x="1323.5" y="-621.5" font-family="Helvetica,sans-Serif" font-size="10.00">&#45; int currentRunningFrame</text>
<text text-anchor="start" x="1323.5" y="-610.5" font-family="Helvetica,sans-Serif" font-size="10.00">&#45; int currentDeathFrame</text>
<text text-anchor="start" x="1323.5" y="-599.5" font-family="Helvetica,sans-Serif" font-size="10.00">&#45; int currentClimbingFrame</text>
<polyline fill="none" stroke="black" points="1315.5,-592.5 1503.5,-592.5 "/>
<text text-anchor="start" x="1323.5" y="-580.5" font-family="Helvetica,sans-Serif" font-size="10.00">+ Player()</text>
<text text-anchor="start" x="1323.5" y="-569.5" font-family="Helvetica,sans-Serif" font-size="10.00">+ Level getLevel()</text>
<text text-anchor="start" x="1323.5" y="-558.5" font-family="Helvetica,sans-Serif" font-size="10.00">+ void setLevel(Level level)</text>
<text text-anchor="start" x="1323.5" y="-547.5" font-family="Helvetica,sans-Serif" font-size="10.00">+ void moveLeft()</text>
<text text-anchor="start" x="1323.5" y="-536.5" font-family="Helvetica,sans-Serif" font-size="10.00">+ void moveRight()</text>
<text text-anchor="start" x="1323.5" y="-525.5" font-family="Helvetica,sans-Serif" font-size="10.00">+ boolean isJumping()</text>
<text text-anchor="start" x="1323.5" y="-514.5" font-family="Helvetica,sans-Serif" font-size="10.00">+ boolean isAlive()</text>
<text text-anchor="start" x="1323.5" y="-503.5" font-family="Helvetica,sans-Serif" font-size="10.00">+ boolean isDying()</text>
<text text-anchor="start" x="1323.5" y="-492.5" font-family="Helvetica,sans-Serif" font-size="10.00">+ void die()</text>
<text text-anchor="start" x="1323.5" y="-481.5" font-family="Helvetica,sans-Serif" font-size="10.00">+ void rampClimb()</text>
<text text-anchor="start" x="1323.5" y="-470.5" font-family="Helvetica,sans-Serif" font-size="10.00">+ void jump()</text>
<text text-anchor="start" x="1323.5" y="-459.5" font-family="Helvetica,sans-Serif" font-size="10.00">+ void setIsDying()</text>
<text text-anchor="start" x="1323.5" y="-448.5" font-family="Helvetica,sans-Serif" font-size="10.00">+ void jumpUpdate()</text>
<text text-anchor="start" x="1323.5" y="-437.5" font-family="Helvetica,sans-Serif" font-size="10.00">+ void setPlayerLevelLow()</text>
<text text-anchor="start" x="1323.5" y="-426.5" font-family="Helvetica,sans-Serif" font-size="10.00">+ void setPlayerLevelHigh()</text>
<text text-anchor="start" x="1323.5" y="-415.5" font-family="Helvetica,sans-Serif" font-size="10.00">+ void rampUpdate()</text>
<text text-anchor="start" x="1323.5" y="-404.5" font-family="Helvetica,sans-Serif" font-size="10.00">+ void updateDeathAnimation()</text>
<text text-anchor="start" x="1323.5" y="-393.5" font-family="Helvetica,sans-Serif" font-size="10.00">+ void playerUpdateAnimation()</text>
<text text-anchor="start" x="1323.5" y="-382.5" font-family="Helvetica,sans-Serif" font-size="10.00">&#45; void setAnimations()</text>
<text text-anchor="start" x="1323.5" y="-371.5" font-family="Helvetica,sans-Serif" font-size="10.00">&#45; void playerLengthIncrease(double diff)</text>
<text text-anchor="start" x="1323.5" y="-360.5" font-family="Helvetica,sans-Serif" font-size="10.00">&#45; void playerLengthDecrease(double diff)</text>
<text text-anchor="start" x="1323.5" y="-349.5" font-family="Helvetica,sans-Serif" font-size="10.00">&#45; double jumpCurrentValue(int frame)</text>
<text text-anchor="start" x="1323.5" y="-338.5" font-family="Helvetica,sans-Serif" font-size="10.00">&#45; void updateRunningAnimation()</text>
</a>
</g>
</g>
<!-- Node8&#45;&gt;Node16 -->
<g id="edge21" class="edge">
<title>Node8&#45;&gt;Node16</title>
<path fill="none" stroke="#404040" d="M1418.87,-1485.26C1437.01,-1402.99 1486.61,-1153.03 1470.5,-945 1466.49,-893.22 1459.54,-837.94 1451.73,-785.71"/>
<polygon fill="none" stroke="#404040" points="1451.69,-785.43 1446.84,-780.1 1449.89,-773.57 1454.75,-778.9 1451.69,-785.43"/>
<text text-anchor="middle" x="1498.5" y="-1101" font-family="Helvetica,sans-Serif" font-size="10.00"> &#45;playerColor</text>
</g>
<!-- Node9 -->
<g id="node9" class="node">
<title>Node9</title>
<g id="a_node9"><a xlink:title=" ">
<polygon fill="white" stroke="black" points="791.5,-1485.5 791.5,-1542.5 835.5,-1542.5 835.5,-1485.5 791.5,-1485.5"/>
<text text-anchor="middle" x="813.5" y="-1530.5" font-family="Helvetica,sans-Serif" font-size="10.00">Image</text>
<polyline fill="none" stroke="black" points="791.5,-1523.5 835.5,-1523.5 "/>
<text text-anchor="middle" x="813.5" y="-1511.5" font-family="Helvetica,sans-Serif" font-size="10.00"> </text>
<polyline fill="none" stroke="black" points="791.5,-1504.5 835.5,-1504.5 "/>
<text text-anchor="middle" x="813.5" y="-1492.5" font-family="Helvetica,sans-Serif" font-size="10.00"> </text>
</a>
</g>
</g>
<!-- Node9&#45;&gt;Node6 -->
<g id="edge13" class="edge">
<title>Node9&#45;&gt;Node6</title>
<path fill="none" stroke="#404040" d="M796.83,-1485.33C783.77,-1461.93 766.65,-1427.04 759.5,-1394 734.42,-1278.01 713.97,-1236.58 759.5,-1127 769.08,-1103.95 785.86,-1083.16 803.66,-1065.86"/>
<polygon fill="none" stroke="#404040" points="803.67,-1065.85 805.33,-1058.83 812.44,-1057.66 810.79,-1064.67 803.67,-1065.85"/>
<text text-anchor="middle" x="769" y="-1258" font-family="Helvetica,sans-Serif" font-size="10.00"> &#45;tile</text>
</g>
<!-- Node9&#45;&gt;Node7 -->
<g id="edge9" class="edge">
<title>Node9&#45;&gt;Node7</title>
<path fill="none" stroke="#404040" d="M828.13,-1485.12C838.82,-1464.76 854.21,-1435.43 870.35,-1404.69"/>
<polygon fill="none" stroke="#404040" points="870.5,-1404.39 869.75,-1397.22 876.08,-1393.77 876.83,-1400.94 870.5,-1404.39"/>
<text text-anchor="middle" x="880.5" y="-1415" font-family="Helvetica,sans-Serif" font-size="10.00"> #image</text>
</g>
<!-- Node10 -->
<g id="node10" class="node">
<title>Node10</title>
<g id="a_node10"><a xlink:href="classobjects_1_1Block.html" target="_top" xlink:title=" ">
<polygon fill="white" stroke="black" points="1043.5,-1441.5 1043.5,-1586.5 1297.5,-1586.5 1297.5,-1441.5 1043.5,-1441.5"/>
<text text-anchor="middle" x="1170.5" y="-1574.5" font-family="Helvetica,sans-Serif" font-size="10.00">objects.Block</text>
<polyline fill="none" stroke="black" points="1043.5,-1567.5 1297.5,-1567.5 "/>
<text text-anchor="start" x="1051.5" y="-1555.5" font-family="Helvetica,sans-Serif" font-size="10.00">+ static final double speed</text>
<text text-anchor="start" x="1051.5" y="-1544.5" font-family="Helvetica,sans-Serif" font-size="10.00">&#45; double currentY</text>
<polyline fill="none" stroke="black" points="1043.5,-1537.5 1297.5,-1537.5 "/>
<text text-anchor="start" x="1051.5" y="-1525.5" font-family="Helvetica,sans-Serif" font-size="10.00">+ Block(ArrayList&lt; Obstacle &gt; left, ArrayList&lt; Obstacle</text>
<text text-anchor="start" x="1051.5" y="-1514.5" font-family="Helvetica,sans-Serif" font-size="10.00"> &gt; center, ArrayList&lt; Obstacle &gt; right)</text>
<text text-anchor="start" x="1051.5" y="-1503.5" font-family="Helvetica,sans-Serif" font-size="10.00">+ double getCurrentY()</text>
<text text-anchor="start" x="1051.5" y="-1492.5" font-family="Helvetica,sans-Serif" font-size="10.00">+ ArrayList&lt; Obstacle &gt; getLane(Lane lane)</text>
<text text-anchor="start" x="1051.5" y="-1481.5" font-family="Helvetica,sans-Serif" font-size="10.00">+ ArrayList&lt; Obstacle &gt; getLeftLane()</text>
<text text-anchor="start" x="1051.5" y="-1470.5" font-family="Helvetica,sans-Serif" font-size="10.00">+ ArrayList&lt; Obstacle &gt; getCenterLane()</text>
<text text-anchor="start" x="1051.5" y="-1459.5" font-family="Helvetica,sans-Serif" font-size="10.00">+ ArrayList&lt; Obstacle &gt; getRightLane()</text>
<text text-anchor="start" x="1051.5" y="-1448.5" font-family="Helvetica,sans-Serif" font-size="10.00">+ void frameUpdate()</text>
</a>
</g>
</g>
<!-- Node10&#45;&gt;Node7 -->
<g id="edge10" class="edge">
<title>Node10&#45;&gt;Node7</title>
<path fill="none" stroke="#404040" d="M1106.33,-1441.27C1095.45,-1429.12 1083.84,-1416.14 1072.02,-1402.92"/>
<polygon fill="none" stroke="#404040" points="1071.81,-1402.68 1064.83,-1400.88 1063.81,-1393.74 1070.79,-1395.54 1071.81,-1402.68"/>
<text text-anchor="middle" x="1097.5" y="-1415" font-family="Helvetica,sans-Serif" font-size="10.00"> #lane</text>
</g>
<!-- Node10&#45;&gt;Node17 -->
<g id="edge20" class="edge">
<title>Node10&#45;&gt;Node17</title>
<path fill="none" stroke="#404040" d="M1170.5,-1441.43C1170.5,-1348.79 1170.5,-1187.88 1170.5,-1091.98"/>
<polygon fill="none" stroke="#404040" points="1170.5,-1091.75 1166.5,-1085.75 1170.5,-1079.75 1174.5,-1085.75 1170.5,-1091.75"/>
<text text-anchor="middle" x="1183.5" y="-1258" font-family="Helvetica,sans-Serif" font-size="10.00"> #lane</text>
</g>
<!-- Node11 -->
<g id="node11" class="node">
<title>Node11</title>
<g id="a_node11"><a xlink:title=" ">
<polygon fill="white" stroke="black" points="1301,-1681.5 1301,-1738.5 1446,-1738.5 1446,-1681.5 1301,-1681.5"/>
<text text-anchor="middle" x="1373.5" y="-1726.5" font-family="Helvetica,sans-Serif" font-size="10.00">ArrayList&lt; objects.Obstacle &gt;</text>
<polyline fill="none" stroke="black" points="1301,-1719.5 1446,-1719.5 "/>
<text text-anchor="middle" x="1373.5" y="-1707.5" font-family="Helvetica,sans-Serif" font-size="10.00"> </text>
<polyline fill="none" stroke="black" points="1301,-1700.5 1446,-1700.5 "/>
<text text-anchor="middle" x="1373.5" y="-1688.5" font-family="Helvetica,sans-Serif" font-size="10.00"> </text>
</a>
</g>
</g>
<!-- Node11&#45;&gt;Node10 -->
<g id="edge11" class="edge">
<title>Node11&#45;&gt;Node10</title>
<path fill="none" stroke="#404040" d="M1344.42,-1681.2C1320.87,-1658.7 1286.46,-1625.82 1254.46,-1595.24"/>
<polygon fill="none" stroke="#404040" points="1254.19,-1594.98 1247.08,-1593.72 1245.51,-1586.69 1252.61,-1587.94 1254.19,-1594.98"/>
<text text-anchor="middle" x="1340" y="-1642.5" font-family="Helvetica,sans-Serif" font-size="10.00"> &#45;center</text>
<text text-anchor="middle" x="1340" y="-1631.5" font-family="Helvetica,sans-Serif" font-size="10.00">&#45;left</text>
<text text-anchor="middle" x="1340" y="-1620.5" font-family="Helvetica,sans-Serif" font-size="10.00">&#45;right</text>
</g>
<!-- Node12 -->
<g id="node12" class="node">
<title>Node12</title>
<g id="a_node12"><a xlink:title=" ">
<polygon fill="white" stroke="black" points="1437.5,-1786.5 1437.5,-1843.5 1493.5,-1843.5 1493.5,-1786.5 1437.5,-1786.5"/>
<text text-anchor="middle" x="1465.5" y="-1831.5" font-family="Helvetica,sans-Serif" font-size="10.00">ArrayList</text>
<polyline fill="none" stroke="black" points="1437.5,-1824.5 1493.5,-1824.5 "/>
<text text-anchor="middle" x="1465.5" y="-1812.5" font-family="Helvetica,sans-Serif" font-size="10.00"> </text>
<polyline fill="none" stroke="black" points="1437.5,-1805.5 1493.5,-1805.5 "/>
<text text-anchor="middle" x="1465.5" y="-1793.5" font-family="Helvetica,sans-Serif" font-size="10.00"> </text>
</a>
</g>
</g>
<!-- Node12&#45;&gt;Node11 -->
<g id="edge12" class="edge">
<title>Node12&#45;&gt;Node11</title>
<path fill="none" stroke="orange" d="M1434.13,-1778.88C1422.41,-1765.75 1409.27,-1751.04 1398.22,-1738.68"/>
<polygon fill="orange" stroke="orange" points="1431.57,-1781.27 1440.85,-1786.4 1436.79,-1776.61 1431.57,-1781.27"/>
<text text-anchor="middle" x="1468.5" y="-1760" font-family="Helvetica,sans-Serif" font-size="10.00"> &lt; objects::Obstacle &gt;</text>
</g>
<!-- Node19 -->
<g id="node19" class="node">
<title>Node19</title>
<g id="a_node19"><a xlink:title=" ">
<polygon fill="white" stroke="black" points="1500,-1605.5 1500,-1662.5 1599,-1662.5 1599,-1605.5 1500,-1605.5"/>
<text text-anchor="middle" x="1549.5" y="-1650.5" font-family="Helvetica,sans-Serif" font-size="10.00">ArrayList&lt; Image &gt;</text>
<polyline fill="none" stroke="black" points="1500,-1643.5 1599,-1643.5 "/>
<text text-anchor="middle" x="1549.5" y="-1631.5" font-family="Helvetica,sans-Serif" font-size="10.00"> </text>
<polyline fill="none" stroke="black" points="1500,-1624.5 1599,-1624.5 "/>
<text text-anchor="middle" x="1549.5" y="-1612.5" font-family="Helvetica,sans-Serif" font-size="10.00"> </text>
</a>
</g>
</g>
<!-- Node12&#45;&gt;Node19 -->
<g id="edge24" class="edge">
<title>Node12&#45;&gt;Node19</title>
<path fill="none" stroke="orange" d="M1501.62,-1788.96C1508.41,-1782.8 1514.83,-1775.73 1519.5,-1768 1539.27,-1735.28 1546.04,-1690.91 1548.34,-1662.61"/>
<polygon fill="orange" stroke="orange" points="1498.95,-1786.64 1493.56,-1795.76 1503.46,-1791.99 1498.95,-1786.64"/>
<text text-anchor="middle" x="1547.5" y="-1760" font-family="Helvetica,sans-Serif" font-size="10.00"> &lt; Image &gt;</text>
</g>
<!-- Node13 -->
<g id="node13" class="node">
<title>Node13</title>
<g id="a_node13"><a xlink:href="classlogic_1_1ObstacleFactory.html" target="_top" xlink:title=" ">
<polygon fill="white" stroke="black" points="521.5,-469 521.5,-636 817.5,-636 817.5,-469 521.5,-469"/>
<text text-anchor="middle" x="669.5" y="-624" font-family="Helvetica,sans-Serif" font-size="10.00">logic.ObstacleFactory</text>
<polyline fill="none" stroke="black" points="521.5,-617 817.5,-617 "/>
<text text-anchor="start" x="529.5" y="-605" font-family="Helvetica,sans-Serif" font-size="10.00">+ static final int buildingScreens</text>
<text text-anchor="start" x="529.5" y="-594" font-family="Helvetica,sans-Serif" font-size="10.00">+ static final int bufferScreens</text>
<text text-anchor="start" x="529.5" y="-583" font-family="Helvetica,sans-Serif" font-size="10.00">&#45; final double logicalLaneLength</text>
<text text-anchor="start" x="529.5" y="-572" font-family="Helvetica,sans-Serif" font-size="10.00">&#45; static final double minSpace</text>
<text text-anchor="start" x="529.5" y="-561" font-family="Helvetica,sans-Serif" font-size="10.00">&#45; static final double space</text>
<text text-anchor="start" x="529.5" y="-550" font-family="Helvetica,sans-Serif" font-size="10.00">&#45; static final double testObjectStep</text>
<text text-anchor="start" x="529.5" y="-539" font-family="Helvetica,sans-Serif" font-size="10.00">&#45; static final double testObjectLength</text>
<polyline fill="none" stroke="black" points="521.5,-532 817.5,-532 "/>
<text text-anchor="start" x="529.5" y="-520" font-family="Helvetica,sans-Serif" font-size="10.00">+ ObstacleFactory()</text>
<text text-anchor="start" x="529.5" y="-509" font-family="Helvetica,sans-Serif" font-size="10.00">+ Block generateBlock()</text>
<text text-anchor="start" x="529.5" y="-498" font-family="Helvetica,sans-Serif" font-size="10.00">+ ArrayList&lt; Obstacle &gt; generatePath()</text>
<text text-anchor="start" x="529.5" y="-487" font-family="Helvetica,sans-Serif" font-size="10.00">+ boolean winningPath(ArrayList&lt; ArrayList&lt; Obstacle &gt; &gt; lanes)</text>
<text text-anchor="start" x="529.5" y="-476" font-family="Helvetica,sans-Serif" font-size="10.00">+ Obstacle generateObstacle()</text>
</a>
</g>
</g>
<!-- Node13&#45;&gt;Node4 -->
<g id="edge14" class="edge">
<title>Node13&#45;&gt;Node4</title>
<path fill="none" stroke="#404040" d="M650.03,-468.88C637.63,-416.24 621.61,-348.26 609.16,-295.45"/>
<polygon fill="none" stroke="#404040" points="609.16,-295.42 603.89,-290.5 606.41,-283.74 611.68,-288.67 609.16,-295.42"/>
<text text-anchor="middle" x="650" y="-305" font-family="Helvetica,sans-Serif" font-size="10.00"> &#45;obstacleFactory</text>
</g>
<!-- Node14 -->
<g id="node14" class="node">
<title>Node14</title>
<g id="a_node14"><a xlink:title=" ">
<polygon fill="white" stroke="black" points="384,-524 384,-581 503,-581 503,-524 384,-524"/>
<text text-anchor="middle" x="443.5" y="-569" font-family="Helvetica,sans-Serif" font-size="10.00">Deque&lt; objects.Block &gt;</text>
<polyline fill="none" stroke="black" points="384,-562 503,-562 "/>
<text text-anchor="middle" x="443.5" y="-550" font-family="Helvetica,sans-Serif" font-size="10.00"> </text>
<polyline fill="none" stroke="black" points="384,-543 503,-543 "/>
<text text-anchor="middle" x="443.5" y="-531" font-family="Helvetica,sans-Serif" font-size="10.00"> </text>
</a>
</g>
</g>
<!-- Node14&#45;&gt;Node4 -->
<g id="edge15" class="edge">
<title>Node14&#45;&gt;Node4</title>
<path fill="none" stroke="#404040" d="M448.71,-523.95C458.64,-476.06 483.42,-375.54 528.5,-302 530.1,-299.39 531.74,-296.76 533.4,-294.11"/>
<polygon fill="none" stroke="#404040" points="533.51,-293.94 533.37,-286.73 539.97,-283.83 540.11,-291.04 533.51,-293.94"/>
<text text-anchor="middle" x="567.5" y="-305" font-family="Helvetica,sans-Serif" font-size="10.00"> &#45;obstaclesBlocks</text>
</g>
<!-- Node15 -->
<g id="node15" class="node">
<title>Node15</title>
<g id="a_node15"><a xlink:title=" ">
<polygon fill="white" stroke="black" points="421.5,-984 421.5,-1041 465.5,-1041 465.5,-984 421.5,-984"/>
<text text-anchor="middle" x="443.5" y="-1029" font-family="Helvetica,sans-Serif" font-size="10.00">Deque</text>
<polyline fill="none" stroke="black" points="421.5,-1022 465.5,-1022 "/>
<text text-anchor="middle" x="443.5" y="-1010" font-family="Helvetica,sans-Serif" font-size="10.00"> </text>
<polyline fill="none" stroke="black" points="421.5,-1003 465.5,-1003 "/>
<text text-anchor="middle" x="443.5" y="-991" font-family="Helvetica,sans-Serif" font-size="10.00"> </text>
</a>
</g>
</g>
<!-- Node15&#45;&gt;Node14 -->
<g id="edge16" class="edge">
<title>Node15&#45;&gt;Node14</title>
<path fill="none" stroke="orange" d="M443.5,-973.61C443.5,-883.8 443.5,-659.63 443.5,-581.15"/>
<polygon fill="orange" stroke="orange" points="440,-973.88 443.5,-983.88 447,-973.88 440,-973.88"/>
<text text-anchor="middle" x="483.5" y="-857" font-family="Helvetica,sans-Serif" font-size="10.00"> &lt; objects::Block &gt;</text>
</g>
<!-- Node16&#45;&gt;Node4 -->
<g id="edge17" class="edge">
<title>Node16&#45;&gt;Node4</title>
<path fill="none" stroke="#404040" d="M1315.43,-372.26C1301.2,-356.37 1285.25,-342.12 1267.5,-331 1177.21,-274.4 1135.65,-311.31 1029.5,-302 958.64,-295.79 782.3,-306.87 696.8,-284"/>
<polygon fill="none" stroke="#404040" points="696.6,-283.93 689.7,-286.02 685.11,-280.45 692.02,-278.37 696.6,-283.93"/>
<text text-anchor="middle" x="1247" y="-305" font-family="Helvetica,sans-Serif" font-size="10.00"> &#45;player</text>
</g>
<!-- Node17&#45;&gt;Node16 -->
<g id="edge18" class="edge">
<title>Node17&#45;&gt;Node16</title>
<path fill="none" stroke="midnightblue" d="M1209.68,-936.42C1238.38,-881.43 1278.58,-804.39 1315.4,-733.82"/>
<polygon fill="none" stroke="midnightblue" points="1206.52,-934.91 1205,-945.39 1212.73,-938.15 1206.52,-934.91"/>
</g>
<!-- Node21 -->
<g id="node21" class="node">
<title>Node21</title>
<g id="a_node21"><a xlink:href="classobjects_1_1Obstacle.html" target="_top" xlink:title=" ">
<polygon fill="white" stroke="black" points="1016.5,-507.5 1016.5,-597.5 1258.5,-597.5 1258.5,-507.5 1016.5,-507.5"/>
<text text-anchor="middle" x="1137.5" y="-585.5" font-family="Helvetica,sans-Serif" font-size="10.00">objects.Obstacle</text>
<polyline fill="none" stroke="black" points="1016.5,-578.5 1258.5,-578.5 "/>
<text text-anchor="start" x="1024.5" y="-566.5" font-family="Helvetica,sans-Serif" font-size="10.00">+ static final double obestacleWidth</text>
<polyline fill="none" stroke="black" points="1016.5,-559.5 1258.5,-559.5 "/>
<text text-anchor="start" x="1024.5" y="-547.5" font-family="Helvetica,sans-Serif" font-size="10.00">+ Obstacle(Block.Lane lane, double y, double length)</text>
<text text-anchor="start" x="1024.5" y="-536.5" font-family="Helvetica,sans-Serif" font-size="10.00">+ void addY(double diff)</text>
<text text-anchor="start" x="1024.5" y="-525.5" font-family="Helvetica,sans-Serif" font-size="10.00">+ boolean isOffTheScreen()</text>
<text text-anchor="start" x="1024.5" y="-514.5" font-family="Helvetica,sans-Serif" font-size="10.00">+ void Draw()</text>
</a>
</g>
</g>
<!-- Node17&#45;&gt;Node21 -->
<g id="edge28" class="edge">
<title>Node17&#45;&gt;Node21</title>
<path fill="none" stroke="midnightblue" d="M1165.02,-935.4C1158.06,-838.85 1146.29,-675.53 1140.67,-597.53"/>
<polygon fill="none" stroke="midnightblue" points="1161.53,-935.67 1165.74,-945.39 1168.51,-935.17 1161.53,-935.67"/>
</g>
<!-- Node18 -->
<g id="node18" class="node">
<title>Node18</title>
<g id="a_node18"><a xlink:href="enumobjects_1_1Player_1_1Level.html" target="_top" xlink:title=" ">
<polygon fill="white" stroke="black" points="1357.5,-978.5 1357.5,-1046.5 1461.5,-1046.5 1461.5,-978.5 1357.5,-978.5"/>
<text text-anchor="middle" x="1409.5" y="-1034.5" font-family="Helvetica,sans-Serif" font-size="10.00">objects.Player.Level</text>
<polyline fill="none" stroke="black" points="1357.5,-1027.5 1461.5,-1027.5 "/>
<text text-anchor="start" x="1365.5" y="-1015.5" font-family="Helvetica,sans-Serif" font-size="10.00">+ LOW</text>
<text text-anchor="start" x="1365.5" y="-1004.5" font-family="Helvetica,sans-Serif" font-size="10.00">+ HIGH</text>
<polyline fill="none" stroke="black" points="1357.5,-997.5 1461.5,-997.5 "/>
<text text-anchor="middle" x="1409.5" y="-985.5" font-family="Helvetica,sans-Serif" font-size="10.00"> </text>
</a>
</g>
</g>
<!-- Node18&#45;&gt;Node16 -->
<g id="edge22" class="edge">
<title>Node18&#45;&gt;Node16</title>
<path fill="none" stroke="#404040" d="M1409.5,-978.19C1409.5,-936.53 1409.5,-861.42 1409.5,-785.84"/>
<polygon fill="none" stroke="#404040" points="1409.5,-785.71 1405.5,-779.71 1409.5,-773.71 1413.5,-779.71 1409.5,-785.71"/>
<text text-anchor="middle" x="1422.5" y="-857" font-family="Helvetica,sans-Serif" font-size="10.00"> &#45;level</text>
</g>
<!-- Node19&#45;&gt;Node16 -->
<g id="edge23" class="edge">
<title>Node19&#45;&gt;Node16</title>
<path fill="none" stroke="#404040" d="M1551.41,-1605.25C1554.05,-1564.38 1558.5,-1485.59 1558.5,-1418.5 1558.5,-1418.5 1558.5,-1418.5 1558.5,-1011.5 1558.5,-927.69 1535.66,-839.3 1507.86,-762.77"/>
<polygon fill="none" stroke="#404040" points="1507.7,-762.33 1501.87,-758.09 1503.55,-751.08 1509.38,-755.32 1507.7,-762.33"/>
<text text-anchor="middle" x="1590" y="-1263.5" font-family="Helvetica,sans-Serif" font-size="10.00"> &#45;deathFrames</text>
<text text-anchor="middle" x="1590" y="-1252.5" font-family="Helvetica,sans-Serif" font-size="10.00">&#45;runFrames</text>
</g>
<!-- Node20&#45;&gt;Node4 -->
<g id="edge25" class="edge">
<title>Node20&#45;&gt;Node4</title>
<path fill="none" stroke="#404040" d="M816.07,-793.77C820.19,-787.47 823.77,-780.85 826.5,-774 862.93,-682.54 883.25,-411.44 826.5,-331 792.71,-283.09 754.72,-308.8 696.19,-284.17"/>
<polygon fill="none" stroke="#404040" points="695.89,-284.03 688.76,-285.12 685.01,-278.96 692.14,-277.87 695.89,-284.03"/>
<text text-anchor="middle" x="876.5" y="-550" font-family="Helvetica,sans-Serif" font-size="10.00"> &#45;score</text>
</g>
<!-- Node21&#45;&gt;Node4 -->
<g id="edge27" class="edge">
<title>Node21&#45;&gt;Node4</title>
<path fill="none" stroke="#404040" d="M1116.21,-507.13C1085.23,-448.23 1021.67,-346.48 933.5,-302 888.83,-279.46 761.5,-298.98 696.83,-283.76"/>
<polygon fill="none" stroke="#404040" points="696.67,-283.71 689.79,-285.88 685.14,-280.36 692.02,-278.2 696.67,-283.71"/>
<text text-anchor="middle" x="987" y="-305" font-family="Helvetica,sans-Serif" font-size="10.00"> &#45;lastTouchedObs</text>
</g>
<!-- Node22 -->
<g id="node22" class="node">
<title>Node22</title>
<g id="a_node22"><a xlink:title=" ">
<polygon fill="white" stroke="black" points="703.5,-182.5 703.5,-239.5 739.5,-239.5 739.5,-182.5 703.5,-182.5"/>
<text text-anchor="middle" x="721.5" y="-227.5" font-family="Helvetica,sans-Serif" font-size="10.00">Font</text>
<polyline fill="none" stroke="black" points="703.5,-220.5 739.5,-220.5 "/>
<text text-anchor="middle" x="721.5" y="-208.5" font-family="Helvetica,sans-Serif" font-size="10.00"> </text>
<polyline fill="none" stroke="black" points="703.5,-201.5 739.5,-201.5 "/>
<text text-anchor="middle" x="721.5" y="-189.5" font-family="Helvetica,sans-Serif" font-size="10.00"> </text>
</a>
</g>
</g>
<!-- Node22&#45;&gt;Node1 -->
<g id="edge29" class="edge">
<title>Node22&#45;&gt;Node1</title>
<path fill="none" stroke="#404040" d="M717.7,-182.38C714.18,-167.17 707.43,-149.17 694.5,-138 644.94,-95.16 466.38,-68.17 358.04,-55.35"/>
<polygon fill="none" stroke="#404040" points="357.76,-55.32 351.34,-58.6 345.84,-53.93 352.26,-50.65 357.76,-55.32"/>
<text text-anchor="middle" x="681" y="-112" font-family="Helvetica,sans-Serif" font-size="10.00"> &#45;gameFont</text>
</g>
</g>
</svg>
