<?xml version="1.0" encoding="UTF-8" standalone="no"?>
<!DOCTYPE svg PUBLIC "-//W3C//DTD SVG 1.1//EN"
 "http://www.w3.org/Graphics/SVG/1.1/DTD/svg11.dtd">
<!-- Generated by graphviz version 8.0.3 (0)
 -->
<!-- Title: objects.Player Pages: 1 -->
<svg width="595pt" height="1375pt"
 viewBox="0.00 0.00 595.05 1375.00" xmlns="http://www.w3.org/2000/svg" xmlns:xlink="http://www.w3.org/1999/xlink">
<g id="graph0" class="graph" transform="scale(1 1) rotate(0) translate(4 1371)">
<title>objects.Player</title>
<!-- Node1 -->
<g id="node1" class="node">
<title>Node1</title>
<g id="a_node1"><a xlink:title=" ">
<polygon fill="#999999" stroke="#666666" points="308.05,-0.5 308.05,-453.5 499.05,-453.5 499.05,-0.5 308.05,-0.5"/>
<text text-anchor="middle" x="403.55" y="-441.5" font-family="Helvetica,sans-Serif" font-size="10.00">objects.Player</text>
<polyline fill="none" stroke="#666666" points="308.05,-434.5 499.05,-434.5"/>
<text text-anchor="start" x="316.05" y="-422.5" font-family="Helvetica,sans-Serif" font-size="10.00">+ boolean isClimbingRamp</text>
<text text-anchor="start" x="316.05" y="-411.5" font-family="Helvetica,sans-Serif" font-size="10.00">+ static final double playerLength</text>
<text text-anchor="start" x="316.05" y="-400.5" font-family="Helvetica,sans-Serif" font-size="10.00">+ static final int maxJumpFrames</text>
<text text-anchor="start" x="316.05" y="-389.5" font-family="Helvetica,sans-Serif" font-size="10.00">+ static final int maxJumpDistance</text>
<text text-anchor="start" x="316.05" y="-378.5" font-family="Helvetica,sans-Serif" font-size="10.00">+ static final int maxRampFrames</text>
<text text-anchor="start" x="316.05" y="-367.5" font-family="Helvetica,sans-Serif" font-size="10.00">+ static final double a</text>
<text text-anchor="start" x="316.05" y="-356.5" font-family="Helvetica,sans-Serif" font-size="10.00">+ static final double b</text>
<text text-anchor="start" x="316.05" y="-345.5" font-family="Helvetica,sans-Serif" font-size="10.00">&#45; Boolean alive</text>
<text text-anchor="start" x="316.05" y="-334.5" font-family="Helvetica,sans-Serif" font-size="10.00">&#45; Boolean isDying</text>
<text text-anchor="start" x="316.05" y="-323.5" font-family="Helvetica,sans-Serif" font-size="10.00">&#45; boolean jumping</text>
<text text-anchor="start" x="316.05" y="-312.5" font-family="Helvetica,sans-Serif" font-size="10.00">&#45; int currentJumpFrame</text>
<text text-anchor="start" x="316.05" y="-301.5" font-family="Helvetica,sans-Serif" font-size="10.00">&#45; int currentRunningFrame</text>
<text text-anchor="start" x="316.05" y="-290.5" font-family="Helvetica,sans-Serif" font-size="10.00">&#45; int currentDeathFrame</text>
<text text-anchor="start" x="316.05" y="-279.5" font-family="Helvetica,sans-Serif" font-size="10.00">&#45; int currentClimbingFrame</text>
<polyline fill="none" stroke="#666666" points="308.05,-272.5 499.05,-272.5"/>
<text text-anchor="start" x="316.05" y="-260.5" font-family="Helvetica,sans-Serif" font-size="10.00">+ Player()</text>
<text text-anchor="start" x="316.05" y="-249.5" font-family="Helvetica,sans-Serif" font-size="10.00">+ Level getLevel()</text>
<text text-anchor="start" x="316.05" y="-238.5" font-family="Helvetica,sans-Serif" font-size="10.00">+ void setLevel(Level level)</text>
<text text-anchor="start" x="316.05" y="-227.5" font-family="Helvetica,sans-Serif" font-size="10.00">+ void moveLeft()</text>
<text text-anchor="start" x="316.05" y="-216.5" font-family="Helvetica,sans-Serif" font-size="10.00">+ void moveRight()</text>
<text text-anchor="start" x="316.05" y="-205.5" font-family="Helvetica,sans-Serif" font-size="10.00">+ void jumpUpdate()</text>
<text text-anchor="start" x="316.05" y="-194.5" font-family="Helvetica,sans-Serif" font-size="10.00">+ void setPlayerLevelLow()</text>
<text text-anchor="start" x="316.05" y="-183.5" font-family="Helvetica,sans-Serif" font-size="10.00">+ void setPlayerLevelHigh()</text>
<text text-anchor="start" x="316.05" y="-172.5" font-family="Helvetica,sans-Serif" font-size="10.00">+ void rampUpdate()</text>
<text text-anchor="start" x="316.05" y="-161.5" font-family="Helvetica,sans-Serif" font-size="10.00">+ void setDying()</text>
<text text-anchor="start" x="316.05" y="-150.5" font-family="Helvetica,sans-Serif" font-size="10.00">+ boolean isDying()</text>
<text text-anchor="start" x="316.05" y="-139.5" font-family="Helvetica,sans-Serif" font-size="10.00">+ void updateDeathAnimation()</text>
<text text-anchor="start" x="316.05" y="-128.5" font-family="Helvetica,sans-Serif" font-size="10.00">+ void playerUpdateAnimation()</text>
<text text-anchor="start" x="316.05" y="-117.5" font-family="Helvetica,sans-Serif" font-size="10.00">+ void jump()</text>
<text text-anchor="start" x="316.05" y="-106.5" font-family="Helvetica,sans-Serif" font-size="10.00">+ boolean isJumping()</text>
<text text-anchor="start" x="316.05" y="-95.5" font-family="Helvetica,sans-Serif" font-size="10.00">+ boolean isAlive()</text>
<text text-anchor="start" x="316.05" y="-84.5" font-family="Helvetica,sans-Serif" font-size="10.00">+ void die()</text>
<text text-anchor="start" x="316.05" y="-73.5" font-family="Helvetica,sans-Serif" font-size="10.00">+ void Draw()</text>
<text text-anchor="start" x="316.05" y="-62.5" font-family="Helvetica,sans-Serif" font-size="10.00">~ [static initializer]</text>
<text text-anchor="start" x="316.05" y="-51.5" font-family="Helvetica,sans-Serif" font-size="10.00">&#45; void setAnimations()</text>
<text text-anchor="start" x="316.05" y="-40.5" font-family="Helvetica,sans-Serif" font-size="10.00">&#45; void playerLengthIncrease(double diff)</text>
<text text-anchor="start" x="316.05" y="-29.5" font-family="Helvetica,sans-Serif" font-size="10.00">&#45; void playerLengthDecrease(double diff)</text>
<text text-anchor="start" x="316.05" y="-18.5" font-family="Helvetica,sans-Serif" font-size="10.00">&#45; double jumpCurrentValue(int frame)</text>
<text text-anchor="start" x="316.05" y="-7.5" font-family="Helvetica,sans-Serif" font-size="10.00">&#45; void updateRunningAnimation()</text>
</a>
</g>
</g>
<!-- Node2 -->
<g id="node2" class="node">
<title>Node2</title>
<g id="a_node2"><a xlink:href="classobjects_1_1GameLaneObject.html" target="_top" xlink:title=" ">
<polygon fill="white" stroke="#666666" points="81.55,-501.5 81.55,-624.5 425.55,-624.5 425.55,-501.5 81.55,-501.5"/>
<text text-anchor="middle" x="253.55" y="-612.5" font-family="Helvetica,sans-Serif" font-size="10.00">objects.GameLaneObject</text>
<polyline fill="none" stroke="#666666" points="81.55,-605.5 425.55,-605.5"/>
<text text-anchor="middle" x="253.55" y="-593.5" font-family="Helvetica,sans-Serif" font-size="10.00"> </text>
<polyline fill="none" stroke="#666666" points="81.55,-586.5 425.55,-586.5"/>
<text text-anchor="start" x="89.55" y="-574.5" font-family="Helvetica,sans-Serif" font-size="10.00">+ GameLaneObject(Block.Lane lane, double y, double width, double length)</text>
<text text-anchor="start" x="89.55" y="-563.5" font-family="Helvetica,sans-Serif" font-size="10.00">+ GameLaneObject(Block.Lane lane, double y, double cubeLength)</text>
<text text-anchor="start" x="89.55" y="-552.5" font-family="Helvetica,sans-Serif" font-size="10.00">+ void setLanePath(Block.Lane path)</text>
<text text-anchor="start" x="89.55" y="-541.5" font-family="Helvetica,sans-Serif" font-size="10.00">+ Block.Lane getLane()</text>
<text text-anchor="start" x="89.55" y="-530.5" font-family="Helvetica,sans-Serif" font-size="10.00">+ void Draw()</text>
<text text-anchor="start" x="89.55" y="-519.5" font-family="Helvetica,sans-Serif" font-size="10.00">+ boolean contains(Block.Lane lane, double y)</text>
<text text-anchor="start" x="89.55" y="-508.5" font-family="Helvetica,sans-Serif" font-size="10.00">+ boolean touches(GameLaneObject other)</text>
</a>
</g>
</g>
<!-- Node2&#45;&gt;Node1 -->
<g id="edge1" class="edge">
<title>Node2&#45;&gt;Node1</title>
<path fill="none" stroke="#63b8ff" d="M285.21,-491.52C292.21,-475.92 299.98,-458.61 308.1,-440.53"/>
<polygon fill="none" stroke="#63b8ff" points="281.62,-489.96 280.72,-500.52 288.01,-492.83 281.62,-489.96"/>
</g>
<!-- Node3 -->
<g id="node3" class="node">
<title>Node3</title>
<g id="a_node3"><a xlink:href="classobjects_1_1GameObject.html" target="_top" xlink:title=" ">
<polygon fill="white" stroke="#666666" points="28.05,-672.5 28.05,-949.5 351.05,-949.5 351.05,-672.5 28.05,-672.5"/>
<text text-anchor="middle" x="189.55" y="-937.5" font-family="Helvetica,sans-Serif" font-size="10.00">objects.GameObject</text>
<polyline fill="none" stroke="#666666" points="28.05,-930.5 351.05,-930.5"/>
<text text-anchor="start" x="36.05" y="-918.5" font-family="Helvetica,sans-Serif" font-size="10.00"># double x</text>
<text text-anchor="start" x="36.05" y="-907.5" font-family="Helvetica,sans-Serif" font-size="10.00"># double y</text>
<text text-anchor="start" x="36.05" y="-896.5" font-family="Helvetica,sans-Serif" font-size="10.00"># double width</text>
<text text-anchor="start" x="36.05" y="-885.5" font-family="Helvetica,sans-Serif" font-size="10.00"># double length</text>
<polyline fill="none" stroke="#666666" points="28.05,-878.5 351.05,-878.5"/>
<text text-anchor="start" x="36.05" y="-866.5" font-family="Helvetica,sans-Serif" font-size="10.00">+ GameObject(double x, double y, double width, double length)</text>
<text text-anchor="start" x="36.05" y="-855.5" font-family="Helvetica,sans-Serif" font-size="10.00">+ GameObject(Block.Lane lane, double y, double width, double length)</text>
<text text-anchor="start" x="36.05" y="-844.5" font-family="Helvetica,sans-Serif" font-size="10.00">+ GameObject(Block.Lane lane, double y, double cubeLength)</text>
<text text-anchor="start" x="36.05" y="-833.5" font-family="Helvetica,sans-Serif" font-size="10.00">+ GameObject(double x, double y, double cubeLength)</text>
<text text-anchor="start" x="36.05" y="-822.5" font-family="Helvetica,sans-Serif" font-size="10.00">+ double getWidth()</text>
<text text-anchor="start" x="36.05" y="-811.5" font-family="Helvetica,sans-Serif" font-size="10.00">+ double getLength()</text>
<text text-anchor="start" x="36.05" y="-800.5" font-family="Helvetica,sans-Serif" font-size="10.00">+ void setColor(Color color)</text>
<text text-anchor="start" x="36.05" y="-789.5" font-family="Helvetica,sans-Serif" font-size="10.00">+ void setLanePath(Block.Lane path)</text>
<text text-anchor="start" x="36.05" y="-778.5" font-family="Helvetica,sans-Serif" font-size="10.00">+ Block.Lane getLane()</text>
<text text-anchor="start" x="36.05" y="-767.5" font-family="Helvetica,sans-Serif" font-size="10.00">+ void setX(double x)</text>
<text text-anchor="start" x="36.05" y="-756.5" font-family="Helvetica,sans-Serif" font-size="10.00">+ void setY(double y)</text>
<text text-anchor="start" x="36.05" y="-745.5" font-family="Helvetica,sans-Serif" font-size="10.00">+ double getY()</text>
<text text-anchor="start" x="36.05" y="-734.5" font-family="Helvetica,sans-Serif" font-size="10.00">+ double getX()</text>
<text text-anchor="start" x="36.05" y="-723.5" font-family="Helvetica,sans-Serif" font-size="10.00">+ void Draw()</text>
<text text-anchor="start" x="36.05" y="-712.5" font-family="Helvetica,sans-Serif" font-size="10.00">+ boolean interesects(double x, double y)</text>
<text text-anchor="start" x="36.05" y="-701.5" font-family="Helvetica,sans-Serif" font-size="10.00">+ boolean interesects(Block.Lane lane, double y)</text>
<text text-anchor="start" x="36.05" y="-690.5" font-family="Helvetica,sans-Serif" font-size="10.00">+ boolean touches(GameObject other)</text>
<text text-anchor="start" x="36.05" y="-679.5" font-family="Helvetica,sans-Serif" font-size="10.00">+ boolean within(GameObject other)</text>
</a>
</g>
</g>
<!-- Node3&#45;&gt;Node2 -->
<g id="edge2" class="edge">
<title>Node3&#45;&gt;Node2</title>
<path fill="none" stroke="#63b8ff" d="M228.05,-662.02C231.47,-648.9 234.78,-636.18 237.82,-624.48"/>
<polygon fill="none" stroke="#63b8ff" points="224.43,-661.06 225.3,-671.62 231.2,-662.82 224.43,-661.06"/>
</g>
<!-- Node4 -->
<g id="node4" class="node">
<title>Node4</title>
<g id="a_node4"><a xlink:title=" ">
<polygon fill="white" stroke="#666666" points="15.55,-1025 15.55,-1082 55.55,-1082 55.55,-1025 15.55,-1025"/>
<text text-anchor="middle" x="35.55" y="-1070" font-family="Helvetica,sans-Serif" font-size="10.00">Color</text>
<polyline fill="none" stroke="#666666" points="15.55,-1063 55.55,-1063"/>
<text text-anchor="middle" x="35.55" y="-1051" font-family="Helvetica,sans-Serif" font-size="10.00"> </text>
<polyline fill="none" stroke="#666666" points="15.55,-1044 55.55,-1044"/>
<text text-anchor="middle" x="35.55" y="-1032" font-family="Helvetica,sans-Serif" font-size="10.00"> </text>
</a>
</g>
</g>
<!-- Node4&#45;&gt;Node1 -->
<g id="edge9" class="edge">
<title>Node4&#45;&gt;Node1</title>
<path fill="none" stroke="#404040" d="M28.59,-1025.09C8.42,-939.08 -41.63,-670.24 72.55,-501 131.02,-414.33 224.87,-340.64 297.73,-291.75"/>
<polygon fill="none" stroke="#404040" points="297.57,-291.85 300.35,-285.2 307.57,-285.21 304.78,-291.86 297.57,-291.85"/>
<text text-anchor="middle" x="41.55" y="-646" font-family="Helvetica,sans-Serif" font-size="10.00"> &#45;playerColor</text>
</g>
<!-- Node4&#45;&gt;Node3 -->
<g id="edge3" class="edge">
<title>Node4&#45;&gt;Node3</title>
<path fill="none" stroke="#404040" d="M52.92,-1025.38C63.76,-1008.45 78.66,-985.17 94.66,-960.2"/>
<polygon fill="none" stroke="#404040" points="94.61,-960.27 94.48,-953.06 101.09,-950.16 101.22,-957.37 94.61,-960.27"/>
<text text-anchor="middle" x="100.55" y="-971" font-family="Helvetica,sans-Serif" font-size="10.00"> #color</text>
</g>
<!-- Node5 -->
<g id="node5" class="node">
<title>Node5</title>
<g id="a_node5"><a xlink:title=" ">
<polygon fill="white" stroke="#666666" points="105.55,-1025 105.55,-1082 149.55,-1082 149.55,-1025 105.55,-1025"/>
<text text-anchor="middle" x="127.55" y="-1070" font-family="Helvetica,sans-Serif" font-size="10.00">Image</text>
<polyline fill="none" stroke="#666666" points="105.55,-1063 149.55,-1063"/>
<text text-anchor="middle" x="127.55" y="-1051" font-family="Helvetica,sans-Serif" font-size="10.00"> </text>
<polyline fill="none" stroke="#666666" points="105.55,-1044 149.55,-1044"/>
<text text-anchor="middle" x="127.55" y="-1032" font-family="Helvetica,sans-Serif" font-size="10.00"> </text>
</a>
</g>
</g>
<!-- Node5&#45;&gt;Node3 -->
<g id="edge4" class="edge">
<title>Node5&#45;&gt;Node3</title>
<path fill="none" stroke="#404040" d="M134.55,-1025.38C138.81,-1008.83 144.64,-986.21 150.92,-961.87"/>
<polygon fill="none" stroke="#404040" points="150.91,-961.89 148.54,-955.08 153.91,-950.27 156.28,-957.08 150.91,-961.89"/>
<text text-anchor="middle" x="166.05" y="-971" font-family="Helvetica,sans-Serif" font-size="10.00"> #image</text>
</g>
<!-- Node6 -->
<g id="node6" class="node">
<title>Node6</title>
<g id="a_node6"><a xlink:href="classobjects_1_1Block.html" target="_top" xlink:title=" ">
<polygon fill="white" stroke="#666666" points="167.55,-997.5 167.55,-1109.5 425.55,-1109.5 425.55,-997.5 167.55,-997.5"/>
<text text-anchor="middle" x="296.55" y="-1097.5" font-family="Helvetica,sans-Serif" font-size="10.00">objects.Block</text>
<polyline fill="none" stroke="#666666" points="167.55,-1090.5 425.55,-1090.5"/>
<text text-anchor="start" x="175.55" y="-1078.5" font-family="Helvetica,sans-Serif" font-size="10.00">+ static final double speed</text>
<text text-anchor="start" x="175.55" y="-1067.5" font-family="Helvetica,sans-Serif" font-size="10.00">&#45; double currentY</text>
<polyline fill="none" stroke="#666666" points="167.55,-1060.5 425.55,-1060.5"/>
<text text-anchor="start" x="175.55" y="-1048.5" font-family="Helvetica,sans-Serif" font-size="10.00">+ Block(ArrayList&lt; Obstacle &gt; left, ArrayList&lt; Obstacle</text>
<text text-anchor="start" x="175.55" y="-1037.5" font-family="Helvetica,sans-Serif" font-size="10.00"> &gt; center, ArrayList&lt; Obstacle &gt; right)</text>
<text text-anchor="start" x="175.55" y="-1026.5" font-family="Helvetica,sans-Serif" font-size="10.00">+ void frameUpdate()</text>
<text text-anchor="start" x="175.55" y="-1015.5" font-family="Helvetica,sans-Serif" font-size="10.00">+ double getCurrentY()</text>
<text text-anchor="start" x="175.55" y="-1004.5" font-family="Helvetica,sans-Serif" font-size="10.00">+ ArrayList&lt; Obstacle &gt; getLane(Lane lane)</text>
</a>
</g>
</g>
<!-- Node6&#45;&gt;Node2 -->
<g id="edge8" class="edge">
<title>Node6&#45;&gt;Node2</title>
<path fill="none" stroke="#404040" d="M337.84,-997.65C346.75,-982.92 354.89,-966.48 359.55,-950 393.17,-831.11 406.3,-786.37 359.55,-672 354.06,-658.55 345.99,-645.87 336.72,-634.26"/>
<polygon fill="none" stroke="#404040" points="336.64,-634.17 329.71,-632.19 328.87,-625.02 335.81,-627.01 336.64,-634.17"/>
<text text-anchor="middle" x="404.05" y="-808.5" font-family="Helvetica,sans-Serif" font-size="10.00"> #lane</text>
</g>
<!-- Node6&#45;&gt;Node3 -->
<g id="edge5" class="edge">
<title>Node6&#45;&gt;Node3</title>
<path fill="none" stroke="#404040" d="M272.14,-997.63C267.13,-986.37 261.64,-974.03 255.94,-961.21"/>
<polygon fill="none" stroke="#404040" points="255.9,-961.12 249.8,-957.26 251.02,-950.15 257.11,-954.01 255.9,-961.12"/>
<text text-anchor="middle" x="276.05" y="-971" font-family="Helvetica,sans-Serif" font-size="10.00"> #lane</text>
</g>
<!-- Node7 -->
<g id="node7" class="node">
<title>Node7</title>
<g id="a_node7"><a xlink:title=" ">
<polygon fill="white" stroke="#666666" points="236.05,-1204.5 236.05,-1261.5 383.05,-1261.5 383.05,-1204.5 236.05,-1204.5"/>
<text text-anchor="middle" x="309.55" y="-1249.5" font-family="Helvetica,sans-Serif" font-size="10.00">ArrayList&lt; objects.Obstacle &gt;</text>
<polyline fill="none" stroke="#666666" points="236.05,-1242.5 383.05,-1242.5"/>
<text text-anchor="middle" x="309.55" y="-1230.5" font-family="Helvetica,sans-Serif" font-size="10.00"> </text>
<polyline fill="none" stroke="#666666" points="236.05,-1223.5 383.05,-1223.5"/>
<text text-anchor="middle" x="309.55" y="-1211.5" font-family="Helvetica,sans-Serif" font-size="10.00"> </text>
</a>
</g>
</g>
<!-- Node7&#45;&gt;Node6 -->
<g id="edge6" class="edge">
<title>Node7&#45;&gt;Node6</title>
<path fill="none" stroke="#404040" d="M307.55,-1204.65C305.94,-1182.73 303.62,-1150.99 301.52,-1122.34"/>
<polygon fill="none" stroke="#404040" points="301.52,-1122.31 297.09,-1116.62 300.64,-1110.34 305.07,-1116.03 301.52,-1122.31"/>
<text text-anchor="middle" x="325.05" y="-1165.5" font-family="Helvetica,sans-Serif" font-size="10.00"> +center</text>
<text text-anchor="middle" x="325.05" y="-1154.5" font-family="Helvetica,sans-Serif" font-size="10.00">+left</text>
<text text-anchor="middle" x="325.05" y="-1143.5" font-family="Helvetica,sans-Serif" font-size="10.00">+right</text>
</g>
<!-- Node8 -->
<g id="node8" class="node">
<title>Node8</title>
<g id="a_node8"><a xlink:title=" ">
<polygon fill="white" stroke="#666666" points="359.55,-1309.5 359.55,-1366.5 415.55,-1366.5 415.55,-1309.5 359.55,-1309.5"/>
<text text-anchor="middle" x="387.55" y="-1354.5" font-family="Helvetica,sans-Serif" font-size="10.00">ArrayList</text>
<polyline fill="none" stroke="#666666" points="359.55,-1347.5 415.55,-1347.5"/>
<text text-anchor="middle" x="387.55" y="-1335.5" font-family="Helvetica,sans-Serif" font-size="10.00"> </text>
<polyline fill="none" stroke="#666666" points="359.55,-1328.5 415.55,-1328.5"/>
<text text-anchor="middle" x="387.55" y="-1316.5" font-family="Helvetica,sans-Serif" font-size="10.00"> </text>
</a>
</g>
</g>
<!-- Node8&#45;&gt;Node7 -->
<g id="edge7" class="edge">
<title>Node8&#45;&gt;Node7</title>
<path fill="none" stroke="orange" d="M351.33,-1312.68C343.71,-1306.31 336.27,-1298.97 330.55,-1291 324.22,-1282.17 319.58,-1271.22 316.3,-1261.29"/>
<polygon fill="orange" stroke="orange" points="348.56,-1315.74 358.58,-1319.19 352.9,-1310.25 348.56,-1315.74"/>
<text text-anchor="middle" x="379.55" y="-1283" font-family="Helvetica,sans-Serif" font-size="10.00"> &lt; objects::Obstacle &gt;</text>
</g>
<!-- Node10 -->
<g id="node10" class="node">
<title>Node10</title>
<g id="a_node10"><a xlink:title=" ">
<polygon fill="white" stroke="#666666" points="401.05,-1128.5 401.05,-1185.5 502.05,-1185.5 502.05,-1128.5 401.05,-1128.5"/>
<text text-anchor="middle" x="451.55" y="-1173.5" font-family="Helvetica,sans-Serif" font-size="10.00">ArrayList&lt; Image &gt;</text>
<polyline fill="none" stroke="#666666" points="401.05,-1166.5 502.05,-1166.5"/>
<text text-anchor="middle" x="451.55" y="-1154.5" font-family="Helvetica,sans-Serif" font-size="10.00"> </text>
<polyline fill="none" stroke="#666666" points="401.05,-1147.5 502.05,-1147.5"/>
<text text-anchor="middle" x="451.55" y="-1135.5" font-family="Helvetica,sans-Serif" font-size="10.00"> </text>
</a>
</g>
</g>
<!-- Node8&#45;&gt;Node10 -->
<g id="edge12" class="edge">
<title>Node8&#45;&gt;Node10</title>
<path fill="none" stroke="orange" d="M422.01,-1302.08C424.49,-1298.51 426.72,-1294.79 428.55,-1291 444.95,-1257.02 449.82,-1213.18 451.18,-1185.32"/>
<polygon fill="orange" stroke="orange" points="418.77,-1299.55 415.46,-1309.62 424.32,-1303.81 418.77,-1299.55"/>
<text text-anchor="middle" x="458.05" y="-1283" font-family="Helvetica,sans-Serif" font-size="10.00"> &lt; Image &gt;</text>
</g>
<!-- Node9 -->
<g id="node9" class="node">
<title>Node9</title>
<g id="a_node9"><a xlink:href="enumobjects_1_1Player_1_1Level.html" target="_top" xlink:title=" ">
<polygon fill="white" stroke="#666666" points="482.05,-529 482.05,-597 587.05,-597 587.05,-529 482.05,-529"/>
<text text-anchor="middle" x="534.55" y="-585" font-family="Helvetica,sans-Serif" font-size="10.00">objects.Player.Level</text>
<polyline fill="none" stroke="#666666" points="482.05,-578 587.05,-578"/>
<text text-anchor="start" x="490.05" y="-566" font-family="Helvetica,sans-Serif" font-size="10.00">+ LOW</text>
<text text-anchor="start" x="490.05" y="-555" font-family="Helvetica,sans-Serif" font-size="10.00">+ HIGH</text>
<polyline fill="none" stroke="#666666" points="482.05,-548 587.05,-548"/>
<text text-anchor="middle" x="534.55" y="-536" font-family="Helvetica,sans-Serif" font-size="10.00"> </text>
</a>
</g>
</g>
<!-- Node9&#45;&gt;Node1 -->
<g id="edge10" class="edge">
<title>Node9&#45;&gt;Node1</title>
<path fill="none" stroke="#404040" d="M521.63,-529.06C515,-512.15 506.28,-489.91 496.57,-465.15"/>
<polygon fill="none" stroke="#404040" points="496.6,-465.23 490.68,-461.1 492.22,-454.05 498.13,-458.18 496.6,-465.23"/>
<text text-anchor="middle" x="516.05" y="-475" font-family="Helvetica,sans-Serif" font-size="10.00"> &#45;level</text>
</g>
<!-- Node10&#45;&gt;Node1 -->
<g id="edge11" class="edge">
<title>Node10&#45;&gt;Node1</title>
<path fill="none" stroke="#404040" d="M452.04,-1128.63C452.63,-1093.11 453.55,-1029.17 453.55,-974.5 453.55,-974.5 453.55,-974.5 453.55,-562 453.55,-530.81 451.4,-498.17 447.98,-466.02"/>
<polygon fill="none" stroke="#404040" points="447.98,-466.06 443.34,-460.55 446.65,-454.14 451.29,-459.66 447.98,-466.06"/>
<text text-anchor="middle" x="485.55" y="-814" font-family="Helvetica,sans-Serif" font-size="10.00"> &#45;deathFrames</text>
<text text-anchor="middle" x="485.55" y="-803" font-family="Helvetica,sans-Serif" font-size="10.00">&#45;runFrames</text>
</g>
</g>
</svg>
