<?xml version="1.0" encoding="UTF-8" standalone="no"?>
<!DOCTYPE svg PUBLIC "-//W3C//DTD SVG 1.1//EN"
 "http://www.w3.org/Graphics/SVG/1.1/DTD/svg11.dtd">
<!-- Generated by graphviz version 3.0.0 (20221109.1736)
 -->
<!-- Title: objects.TrailerWithRamp Pages: 1 -->
<svg width="499pt" height="1299pt"
 viewBox="0.00 0.00 499.00 1299.00" xmlns="http://www.w3.org/2000/svg" xmlns:xlink="http://www.w3.org/1999/xlink">
<g id="graph0" class="graph" transform="scale(1 1) rotate(0) translate(4 1295)">
<title>objects.TrailerWithRamp</title>
<polygon fill="white" stroke="transparent" points="-4,4 -4,-1295 495,-1295 495,4 -4,4"/>
<!-- Node1 -->
<g id="node1" class="node">
<title>Node1</title>
<g id="a_node1"><a xlink:title=" ">
<polygon fill="#bfbfbf" stroke="black" points="138.5,-0.5 138.5,-101.5 372.5,-101.5 372.5,-0.5 138.5,-0.5"/>
<text text-anchor="middle" x="255.5" y="-89.5" font-family="Helvetica,sans-Serif" font-size="10.00">objects.TrailerWithRamp</text>
<polyline fill="none" stroke="black" points="138.5,-82.5 372.5,-82.5 "/>
<text text-anchor="start" x="146.5" y="-70.5" font-family="Helvetica,sans-Serif" font-size="10.00">+ static final double rampSize</text>
<text text-anchor="start" x="146.5" y="-59.5" font-family="Helvetica,sans-Serif" font-size="10.00"># final int trailerCount</text>
<polyline fill="none" stroke="black" points="138.5,-52.5 372.5,-52.5 "/>
<text text-anchor="start" x="146.5" y="-40.5" font-family="Helvetica,sans-Serif" font-size="10.00">+ TrailerWithRamp(Block.Lane lane, double length)</text>
<text text-anchor="start" x="146.5" y="-29.5" font-family="Helvetica,sans-Serif" font-size="10.00">+ TrailerWithRamp(Block.Lane lane)</text>
<text text-anchor="start" x="146.5" y="-18.5" font-family="Helvetica,sans-Serif" font-size="10.00">+ void setLane(Block.Lane lane)</text>
<text text-anchor="start" x="146.5" y="-7.5" font-family="Helvetica,sans-Serif" font-size="10.00">+ void Draw()</text>
</a>
</g>
</g>
<!-- Node2 -->
<g id="node2" class="node">
<title>Node2</title>
<g id="a_node2"><a xlink:href="classobjects_1_1Obstacle.html" target="_top" xlink:title=" ">
<polygon fill="white" stroke="black" points="134.5,-299.5 134.5,-389.5 376.5,-389.5 376.5,-299.5 134.5,-299.5"/>
<text text-anchor="middle" x="255.5" y="-377.5" font-family="Helvetica,sans-Serif" font-size="10.00">objects.Obstacle</text>
<polyline fill="none" stroke="black" points="134.5,-370.5 376.5,-370.5 "/>
<text text-anchor="start" x="142.5" y="-358.5" font-family="Helvetica,sans-Serif" font-size="10.00">+ static final double obestacleWidth</text>
<polyline fill="none" stroke="black" points="134.5,-351.5 376.5,-351.5 "/>
<text text-anchor="start" x="142.5" y="-339.5" font-family="Helvetica,sans-Serif" font-size="10.00">+ Obstacle(Block.Lane lane, double y, double length)</text>
<text text-anchor="start" x="142.5" y="-328.5" font-family="Helvetica,sans-Serif" font-size="10.00">+ void addY(double diff)</text>
<text text-anchor="start" x="142.5" y="-317.5" font-family="Helvetica,sans-Serif" font-size="10.00">+ boolean isOffTheScreen()</text>
<text text-anchor="start" x="142.5" y="-306.5" font-family="Helvetica,sans-Serif" font-size="10.00">+ void Draw()</text>
</a>
</g>
</g>
<!-- Node2&#45;&gt;Node1 -->
<g id="edge1" class="edge">
<title>Node2&#45;&gt;Node1</title>
<path fill="none" stroke="midnightblue" d="M238.7,-289.12C236.54,-280.14 234.68,-270.87 233.5,-262 226.9,-212.21 227.91,-198.91 233.5,-149 235.23,-133.56 238.46,-116.98 241.93,-101.98"/>
<polygon fill="none" stroke="midnightblue" points="235.38,-290.27 241.24,-299.09 242.17,-288.54 235.38,-290.27"/>
</g>
<!-- Node2&#45;&gt;Node1 -->
<g id="edge12" class="edge">
<title>Node2&#45;&gt;Node1</title>
<path fill="none" stroke="#404040" d="M255.5,-299.23C255.5,-249.77 255.5,-169.37 255.5,-113.75"/>
<polygon fill="none" stroke="#404040" points="255.5,-113.58 251.5,-107.58 255.5,-101.58 259.5,-107.58 255.5,-113.58"/>
<text text-anchor="middle" x="269.5" y="-203" font-family="Helvetica,sans-Serif" font-size="10.00"> &#45;ramp</text>
</g>
<!-- Node10 -->
<g id="node10" class="node">
<title>Node10</title>
<g id="a_node10"><a xlink:href="classobjects_1_1Trailer.html" target="_top" xlink:title=" ">
<polygon fill="white" stroke="black" points="302,-149.5 302,-261.5 491,-261.5 491,-149.5 302,-149.5"/>
<text text-anchor="middle" x="396.5" y="-249.5" font-family="Helvetica,sans-Serif" font-size="10.00">objects.Trailer</text>
<polyline fill="none" stroke="black" points="302,-242.5 491,-242.5 "/>
<text text-anchor="start" x="310" y="-230.5" font-family="Helvetica,sans-Serif" font-size="10.00">+ static final double singleTrailerLength</text>
<text text-anchor="start" x="310" y="-219.5" font-family="Helvetica,sans-Serif" font-size="10.00">+ static final int maxNumberOfTrailers</text>
<text text-anchor="start" x="310" y="-208.5" font-family="Helvetica,sans-Serif" font-size="10.00"># final int TrailerCount</text>
<polyline fill="none" stroke="black" points="302,-201.5 491,-201.5 "/>
<text text-anchor="start" x="310" y="-189.5" font-family="Helvetica,sans-Serif" font-size="10.00">+ Trailer(Block.Lane lane, int count)</text>
<text text-anchor="start" x="310" y="-178.5" font-family="Helvetica,sans-Serif" font-size="10.00">+ Trailer(Block.Lane lane)</text>
<text text-anchor="start" x="310" y="-167.5" font-family="Helvetica,sans-Serif" font-size="10.00">+ Trailer(Block.Lane lane, double length)</text>
<text text-anchor="start" x="310" y="-156.5" font-family="Helvetica,sans-Serif" font-size="10.00">+ void Draw()</text>
</a>
</g>
</g>
<!-- Node2&#45;&gt;Node10 -->
<g id="edge11" class="edge">
<title>Node2&#45;&gt;Node10</title>
<path fill="none" stroke="midnightblue" d="M308.28,-292.22C318.57,-282.22 329.4,-271.69 339.82,-261.57"/>
<polygon fill="none" stroke="midnightblue" points="305.62,-289.92 300.89,-299.4 310.5,-294.94 305.62,-289.92"/>
</g>
<!-- Node3 -->
<g id="node3" class="node">
<title>Node3</title>
<g id="a_node3"><a xlink:href="classobjects_1_1GameLaneObject.html" target="_top" xlink:title=" ">
<polygon fill="white" stroke="black" points="86.5,-427.5 86.5,-561.5 424.5,-561.5 424.5,-427.5 86.5,-427.5"/>
<text text-anchor="middle" x="255.5" y="-549.5" font-family="Helvetica,sans-Serif" font-size="10.00">objects.GameLaneObject</text>
<polyline fill="none" stroke="black" points="86.5,-542.5 424.5,-542.5 "/>
<text text-anchor="middle" x="255.5" y="-530.5" font-family="Helvetica,sans-Serif" font-size="10.00"> </text>
<polyline fill="none" stroke="black" points="86.5,-523.5 424.5,-523.5 "/>
<text text-anchor="start" x="94.5" y="-511.5" font-family="Helvetica,sans-Serif" font-size="10.00">+ GameLaneObject(Block.Lane lane, double y, double width, double length)</text>
<text text-anchor="start" x="94.5" y="-500.5" font-family="Helvetica,sans-Serif" font-size="10.00">+ GameLaneObject(Block.Lane lane, double y, double cubeLength)</text>
<text text-anchor="start" x="94.5" y="-489.5" font-family="Helvetica,sans-Serif" font-size="10.00">+ void setLane(Block.Lane path)</text>
<text text-anchor="start" x="94.5" y="-478.5" font-family="Helvetica,sans-Serif" font-size="10.00">+ Block.Lane getLane()</text>
<text text-anchor="start" x="94.5" y="-467.5" font-family="Helvetica,sans-Serif" font-size="10.00">+ void Draw()</text>
<text text-anchor="start" x="94.5" y="-456.5" font-family="Helvetica,sans-Serif" font-size="10.00">+ boolean contains(Block.Lane lane, double y)</text>
<text text-anchor="start" x="94.5" y="-445.5" font-family="Helvetica,sans-Serif" font-size="10.00">+ boolean touches(GameLaneObject other)</text>
<text text-anchor="start" x="94.5" y="-434.5" font-family="Helvetica,sans-Serif" font-size="10.00">+ double distance(GameLaneObject other)</text>
</a>
</g>
</g>
<!-- Node3&#45;&gt;Node2 -->
<g id="edge2" class="edge">
<title>Node3&#45;&gt;Node2</title>
<path fill="none" stroke="midnightblue" d="M255.5,-417.07C255.5,-407.65 255.5,-398.28 255.5,-389.57"/>
<polygon fill="none" stroke="midnightblue" points="252,-417.29 255.5,-427.29 259,-417.29 252,-417.29"/>
</g>
<!-- Node4 -->
<g id="node4" class="node">
<title>Node4</title>
<g id="a_node4"><a xlink:href="classobjects_1_1GameObject.html" target="_top" xlink:title=" ">
<polygon fill="white" stroke="black" points="0,-599.5 0,-865.5 317,-865.5 317,-599.5 0,-599.5"/>
<text text-anchor="middle" x="158.5" y="-853.5" font-family="Helvetica,sans-Serif" font-size="10.00">objects.GameObject</text>
<polyline fill="none" stroke="black" points="0,-846.5 317,-846.5 "/>
<text text-anchor="start" x="8" y="-834.5" font-family="Helvetica,sans-Serif" font-size="10.00"># double x</text>
<text text-anchor="start" x="8" y="-823.5" font-family="Helvetica,sans-Serif" font-size="10.00"># double y</text>
<text text-anchor="start" x="8" y="-812.5" font-family="Helvetica,sans-Serif" font-size="10.00"># double width</text>
<text text-anchor="start" x="8" y="-801.5" font-family="Helvetica,sans-Serif" font-size="10.00"># double length</text>
<polyline fill="none" stroke="black" points="0,-794.5 317,-794.5 "/>
<text text-anchor="start" x="8" y="-782.5" font-family="Helvetica,sans-Serif" font-size="10.00">+ GameObject(double x, double y, double width, double length)</text>
<text text-anchor="start" x="8" y="-771.5" font-family="Helvetica,sans-Serif" font-size="10.00">+ GameObject(Block.Lane lane, double y, double width, double length)</text>
<text text-anchor="start" x="8" y="-760.5" font-family="Helvetica,sans-Serif" font-size="10.00">+ GameObject(Block.Lane lane, double y, double cubeLength)</text>
<text text-anchor="start" x="8" y="-749.5" font-family="Helvetica,sans-Serif" font-size="10.00">+ GameObject(double x, double y, double cubeLength)</text>
<text text-anchor="start" x="8" y="-738.5" font-family="Helvetica,sans-Serif" font-size="10.00">+ double getWidth()</text>
<text text-anchor="start" x="8" y="-727.5" font-family="Helvetica,sans-Serif" font-size="10.00">+ double getLength()</text>
<text text-anchor="start" x="8" y="-716.5" font-family="Helvetica,sans-Serif" font-size="10.00">+ void setColor(Color color)</text>
<text text-anchor="start" x="8" y="-705.5" font-family="Helvetica,sans-Serif" font-size="10.00">+ void setLane(Block.Lane path)</text>
<text text-anchor="start" x="8" y="-694.5" font-family="Helvetica,sans-Serif" font-size="10.00">+ Block.Lane getLane()</text>
<text text-anchor="start" x="8" y="-683.5" font-family="Helvetica,sans-Serif" font-size="10.00">+ void setX(double x)</text>
<text text-anchor="start" x="8" y="-672.5" font-family="Helvetica,sans-Serif" font-size="10.00">+ void setY(double y)</text>
<text text-anchor="start" x="8" y="-661.5" font-family="Helvetica,sans-Serif" font-size="10.00">+ double getY()</text>
<text text-anchor="start" x="8" y="-650.5" font-family="Helvetica,sans-Serif" font-size="10.00">+ double getX()</text>
<text text-anchor="start" x="8" y="-639.5" font-family="Helvetica,sans-Serif" font-size="10.00">+ void Draw()</text>
<text text-anchor="start" x="8" y="-628.5" font-family="Helvetica,sans-Serif" font-size="10.00">+ boolean interesects(double x, double y)</text>
<text text-anchor="start" x="8" y="-617.5" font-family="Helvetica,sans-Serif" font-size="10.00">+ boolean interesects(Block.Lane lane, double y)</text>
<text text-anchor="start" x="8" y="-606.5" font-family="Helvetica,sans-Serif" font-size="10.00">+ boolean touches(GameObject other)</text>
</a>
</g>
</g>
<!-- Node4&#45;&gt;Node3 -->
<g id="edge3" class="edge">
<title>Node4&#45;&gt;Node3</title>
<path fill="none" stroke="midnightblue" d="M216.69,-589.92C220.71,-580.14 224.64,-570.58 228.36,-561.53"/>
<polygon fill="none" stroke="midnightblue" points="213.38,-588.78 212.81,-599.36 219.85,-591.44 213.38,-588.78"/>
</g>
<!-- Node5 -->
<g id="node5" class="node">
<title>Node5</title>
<g id="a_node5"><a xlink:title=" ">
<polygon fill="white" stroke="black" points="86,-957.5 86,-1014.5 125,-1014.5 125,-957.5 86,-957.5"/>
<text text-anchor="middle" x="105.5" y="-1002.5" font-family="Helvetica,sans-Serif" font-size="10.00">Color</text>
<polyline fill="none" stroke="black" points="86,-995.5 125,-995.5 "/>
<text text-anchor="middle" x="105.5" y="-983.5" font-family="Helvetica,sans-Serif" font-size="10.00"> </text>
<polyline fill="none" stroke="black" points="86,-976.5 125,-976.5 "/>
<text text-anchor="middle" x="105.5" y="-964.5" font-family="Helvetica,sans-Serif" font-size="10.00"> </text>
</a>
</g>
</g>
<!-- Node5&#45;&gt;Node4 -->
<g id="edge4" class="edge">
<title>Node5&#45;&gt;Node4</title>
<path fill="none" stroke="#404040" d="M111.37,-957.12C115.61,-937.03 121.68,-908.2 128.07,-877.9"/>
<polygon fill="none" stroke="#404040" points="128.15,-877.51 125.47,-870.82 130.63,-865.77 133.3,-872.47 128.15,-877.51"/>
<text text-anchor="middle" x="140" y="-887" font-family="Helvetica,sans-Serif" font-size="10.00"> #color</text>
</g>
<!-- Node6 -->
<g id="node6" class="node">
<title>Node6</title>
<g id="a_node6"><a xlink:title=" ">
<polygon fill="white" stroke="black" points="143.5,-957.5 143.5,-1014.5 187.5,-1014.5 187.5,-957.5 143.5,-957.5"/>
<text text-anchor="middle" x="165.5" y="-1002.5" font-family="Helvetica,sans-Serif" font-size="10.00">Image</text>
<polyline fill="none" stroke="black" points="143.5,-995.5 187.5,-995.5 "/>
<text text-anchor="middle" x="165.5" y="-983.5" font-family="Helvetica,sans-Serif" font-size="10.00"> </text>
<polyline fill="none" stroke="black" points="143.5,-976.5 187.5,-976.5 "/>
<text text-anchor="middle" x="165.5" y="-964.5" font-family="Helvetica,sans-Serif" font-size="10.00"> </text>
</a>
</g>
</g>
<!-- Node6&#45;&gt;Node4 -->
<g id="edge5" class="edge">
<title>Node6&#45;&gt;Node4</title>
<path fill="none" stroke="#404040" d="M164.72,-957.12C164.16,-937.03 163.36,-908.2 162.52,-877.9"/>
<polygon fill="none" stroke="#404040" points="162.52,-877.76 158.35,-871.88 162.18,-865.77 166.35,-871.66 162.52,-877.76"/>
<text text-anchor="middle" x="179.5" y="-887" font-family="Helvetica,sans-Serif" font-size="10.00"> #image</text>
</g>
<!-- Node7 -->
<g id="node7" class="node">
<title>Node7</title>
<g id="a_node7"><a xlink:href="classobjects_1_1Block.html" target="_top" xlink:title=" ">
<polygon fill="white" stroke="black" points="219.5,-913.5 219.5,-1058.5 473.5,-1058.5 473.5,-913.5 219.5,-913.5"/>
<text text-anchor="middle" x="346.5" y="-1046.5" font-family="Helvetica,sans-Serif" font-size="10.00">objects.Block</text>
<polyline fill="none" stroke="black" points="219.5,-1039.5 473.5,-1039.5 "/>
<text text-anchor="start" x="227.5" y="-1027.5" font-family="Helvetica,sans-Serif" font-size="10.00">+ static final double speed</text>
<text text-anchor="start" x="227.5" y="-1016.5" font-family="Helvetica,sans-Serif" font-size="10.00">&#45; double currentY</text>
<polyline fill="none" stroke="black" points="219.5,-1009.5 473.5,-1009.5 "/>
<text text-anchor="start" x="227.5" y="-997.5" font-family="Helvetica,sans-Serif" font-size="10.00">+ Block(ArrayList&lt; Obstacle &gt; left, ArrayList&lt; Obstacle</text>
<text text-anchor="start" x="227.5" y="-986.5" font-family="Helvetica,sans-Serif" font-size="10.00"> &gt; center, ArrayList&lt; Obstacle &gt; right)</text>
<text text-anchor="start" x="227.5" y="-975.5" font-family="Helvetica,sans-Serif" font-size="10.00">+ double getCurrentY()</text>
<text text-anchor="start" x="227.5" y="-964.5" font-family="Helvetica,sans-Serif" font-size="10.00">+ ArrayList&lt; Obstacle &gt; getLane(Lane lane)</text>
<text text-anchor="start" x="227.5" y="-953.5" font-family="Helvetica,sans-Serif" font-size="10.00">+ ArrayList&lt; Obstacle &gt; getLeftLane()</text>
<text text-anchor="start" x="227.5" y="-942.5" font-family="Helvetica,sans-Serif" font-size="10.00">+ ArrayList&lt; Obstacle &gt; getCenterLane()</text>
<text text-anchor="start" x="227.5" y="-931.5" font-family="Helvetica,sans-Serif" font-size="10.00">+ ArrayList&lt; Obstacle &gt; getRightLane()</text>
<text text-anchor="start" x="227.5" y="-920.5" font-family="Helvetica,sans-Serif" font-size="10.00">+ void frameUpdate()</text>
</a>
</g>
</g>
<!-- Node7&#45;&gt;Node3 -->
<g id="edge9" class="edge">
<title>Node7&#45;&gt;Node3</title>
<path fill="none" stroke="#404040" d="M354.15,-913.47C360.05,-834.3 362.07,-704.03 326.5,-599 323.42,-589.9 319.29,-580.87 314.58,-572.15"/>
<polygon fill="none" stroke="#404040" points="314.54,-572.09 308.08,-568.88 308.56,-561.68 315.02,-564.89 314.54,-572.09"/>
<text text-anchor="middle" x="370.5" y="-730" font-family="Helvetica,sans-Serif" font-size="10.00"> #lane</text>
</g>
<!-- Node7&#45;&gt;Node4 -->
<g id="edge6" class="edge">
<title>Node7&#45;&gt;Node4</title>
<path fill="none" stroke="#404040" d="M292.88,-913.27C283.97,-901.35 274.47,-888.63 264.78,-875.68"/>
<polygon fill="none" stroke="#404040" points="264.54,-875.35 257.74,-872.94 257.35,-865.74 264.15,-868.15 264.54,-875.35"/>
<text text-anchor="middle" x="287.5" y="-887" font-family="Helvetica,sans-Serif" font-size="10.00"> #lane</text>
</g>
<!-- Node8 -->
<g id="node8" class="node">
<title>Node8</title>
<g id="a_node8"><a xlink:title=" ">
<polygon fill="white" stroke="black" points="274,-1128.5 274,-1185.5 419,-1185.5 419,-1128.5 274,-1128.5"/>
<text text-anchor="middle" x="346.5" y="-1173.5" font-family="Helvetica,sans-Serif" font-size="10.00">ArrayList&lt; objects.Obstacle &gt;</text>
<polyline fill="none" stroke="black" points="274,-1166.5 419,-1166.5 "/>
<text text-anchor="middle" x="346.5" y="-1154.5" font-family="Helvetica,sans-Serif" font-size="10.00"> </text>
<polyline fill="none" stroke="black" points="274,-1147.5 419,-1147.5 "/>
<text text-anchor="middle" x="346.5" y="-1135.5" font-family="Helvetica,sans-Serif" font-size="10.00"> </text>
</a>
</g>
</g>
<!-- Node8&#45;&gt;Node7 -->
<g id="edge7" class="edge">
<title>Node8&#45;&gt;Node7</title>
<path fill="none" stroke="#404040" d="M346.5,-1128.47C346.5,-1112.6 346.5,-1091.71 346.5,-1070.87"/>
<polygon fill="none" stroke="#404040" points="346.5,-1070.64 342.5,-1064.64 346.5,-1058.64 350.5,-1064.64 346.5,-1070.64"/>
<text text-anchor="middle" x="363" y="-1102" font-family="Helvetica,sans-Serif" font-size="10.00"> &#45;center</text>
<text text-anchor="middle" x="363" y="-1091" font-family="Helvetica,sans-Serif" font-size="10.00">&#45;left</text>
<text text-anchor="middle" x="363" y="-1080" font-family="Helvetica,sans-Serif" font-size="10.00">&#45;right</text>
</g>
<!-- Node9 -->
<g id="node9" class="node">
<title>Node9</title>
<g id="a_node9"><a xlink:title=" ">
<polygon fill="white" stroke="black" points="318.5,-1233.5 318.5,-1290.5 374.5,-1290.5 374.5,-1233.5 318.5,-1233.5"/>
<text text-anchor="middle" x="346.5" y="-1278.5" font-family="Helvetica,sans-Serif" font-size="10.00">ArrayList</text>
<polyline fill="none" stroke="black" points="318.5,-1271.5 374.5,-1271.5 "/>
<text text-anchor="middle" x="346.5" y="-1259.5" font-family="Helvetica,sans-Serif" font-size="10.00"> </text>
<polyline fill="none" stroke="black" points="318.5,-1252.5 374.5,-1252.5 "/>
<text text-anchor="middle" x="346.5" y="-1240.5" font-family="Helvetica,sans-Serif" font-size="10.00"> </text>
</a>
</g>
</g>
<!-- Node9&#45;&gt;Node8 -->
<g id="edge8" class="edge">
<title>Node9&#45;&gt;Node8</title>
<path fill="none" stroke="orange" d="M346.5,-1223.29C346.5,-1210.84 346.5,-1197.23 346.5,-1185.68"/>
<polygon fill="orange" stroke="orange" points="343,-1223.4 346.5,-1233.4 350,-1223.4 343,-1223.4"/>
<text text-anchor="middle" x="393.5" y="-1207" font-family="Helvetica,sans-Serif" font-size="10.00"> &lt; objects::Obstacle &gt;</text>
</g>
<!-- Node10&#45;&gt;Node1 -->
<g id="edge10" class="edge">
<title>Node10&#45;&gt;Node1</title>
<path fill="none" stroke="#404040" d="M345.6,-149.44C333.98,-136.88 321.59,-123.48 309.84,-110.77"/>
<polygon fill="none" stroke="#404040" points="309.56,-110.47 302.55,-108.78 301.41,-101.66 308.42,-103.35 309.56,-110.47"/>
<text text-anchor="middle" x="340.5" y="-123" font-family="Helvetica,sans-Serif" font-size="10.00"> &#45;trailer</text>
</g>
</g>
</svg>
