<?xml version="1.0" encoding="UTF-8" standalone="no"?>
<!DOCTYPE svg PUBLIC "-//W3C//DTD SVG 1.1//EN"
 "http://www.w3.org/Graphics/SVG/1.1/DTD/svg11.dtd">
<!-- Generated by graphviz version 3.0.0 (20221109.1736)
 -->
<!-- Title: objects.Ground Pages: 1 -->
<svg width="398pt" height="828pt"
 viewBox="0.00 0.00 397.50 828.00" xmlns="http://www.w3.org/2000/svg" xmlns:xlink="http://www.w3.org/1999/xlink">
<g id="graph0" class="graph" transform="scale(1 1) rotate(0) translate(4 824)">
<title>objects.Ground</title>
<polygon fill="white" stroke="transparent" points="-4,4 -4,-824 393.5,-824 393.5,4 -4,4"/>
<!-- Node1 -->
<g id="node1" class="node">
<title>Node1</title>
<g id="a_node1"><a xlink:title=" ">
<polygon fill="#bfbfbf" stroke="black" points="154,-0.5 154,-90.5 373,-90.5 373,-0.5 154,-0.5"/>
<text text-anchor="middle" x="263.5" y="-78.5" font-family="Helvetica,sans-Serif" font-size="10.00">objects.Ground</text>
<polyline fill="none" stroke="black" points="154,-71.5 373,-71.5 "/>
<text text-anchor="start" x="162" y="-59.5" font-family="Helvetica,sans-Serif" font-size="10.00">+ static final double laneImageWidth</text>
<text text-anchor="start" x="162" y="-48.5" font-family="Helvetica,sans-Serif" font-size="10.00">&#45; double yDisplacement</text>
<polyline fill="none" stroke="black" points="154,-41.5 373,-41.5 "/>
<text text-anchor="start" x="162" y="-29.5" font-family="Helvetica,sans-Serif" font-size="10.00">+ Ground(double x, double width, double length)</text>
<text text-anchor="start" x="162" y="-18.5" font-family="Helvetica,sans-Serif" font-size="10.00">+ void frameUpdate()</text>
<text text-anchor="start" x="162" y="-7.5" font-family="Helvetica,sans-Serif" font-size="10.00">+ void Draw()</text>
</a>
</g>
</g>
<!-- Node2 -->
<g id="node2" class="node">
<title>Node2</title>
<g id="a_node2"><a xlink:href="classobjects_1_1GameObject.html" target="_top" xlink:title=" ">
<polygon fill="white" stroke="black" points="8,-128.5 8,-394.5 325,-394.5 325,-128.5 8,-128.5"/>
<text text-anchor="middle" x="166.5" y="-382.5" font-family="Helvetica,sans-Serif" font-size="10.00">objects.GameObject</text>
<polyline fill="none" stroke="black" points="8,-375.5 325,-375.5 "/>
<text text-anchor="start" x="16" y="-363.5" font-family="Helvetica,sans-Serif" font-size="10.00"># double x</text>
<text text-anchor="start" x="16" y="-352.5" font-family="Helvetica,sans-Serif" font-size="10.00"># double y</text>
<text text-anchor="start" x="16" y="-341.5" font-family="Helvetica,sans-Serif" font-size="10.00"># double width</text>
<text text-anchor="start" x="16" y="-330.5" font-family="Helvetica,sans-Serif" font-size="10.00"># double length</text>
<polyline fill="none" stroke="black" points="8,-323.5 325,-323.5 "/>
<text text-anchor="start" x="16" y="-311.5" font-family="Helvetica,sans-Serif" font-size="10.00">+ GameObject(double x, double y, double width, double length)</text>
<text text-anchor="start" x="16" y="-300.5" font-family="Helvetica,sans-Serif" font-size="10.00">+ GameObject(Block.Lane lane, double y, double width, double length)</text>
<text text-anchor="start" x="16" y="-289.5" font-family="Helvetica,sans-Serif" font-size="10.00">+ GameObject(Block.Lane lane, double y, double cubeLength)</text>
<text text-anchor="start" x="16" y="-278.5" font-family="Helvetica,sans-Serif" font-size="10.00">+ GameObject(double x, double y, double cubeLength)</text>
<text text-anchor="start" x="16" y="-267.5" font-family="Helvetica,sans-Serif" font-size="10.00">+ double getWidth()</text>
<text text-anchor="start" x="16" y="-256.5" font-family="Helvetica,sans-Serif" font-size="10.00">+ double getLength()</text>
<text text-anchor="start" x="16" y="-245.5" font-family="Helvetica,sans-Serif" font-size="10.00">+ void setColor(Color color)</text>
<text text-anchor="start" x="16" y="-234.5" font-family="Helvetica,sans-Serif" font-size="10.00">+ void setLane(Block.Lane path)</text>
<text text-anchor="start" x="16" y="-223.5" font-family="Helvetica,sans-Serif" font-size="10.00">+ Block.Lane getLane()</text>
<text text-anchor="start" x="16" y="-212.5" font-family="Helvetica,sans-Serif" font-size="10.00">+ void setX(double x)</text>
<text text-anchor="start" x="16" y="-201.5" font-family="Helvetica,sans-Serif" font-size="10.00">+ void setY(double y)</text>
<text text-anchor="start" x="16" y="-190.5" font-family="Helvetica,sans-Serif" font-size="10.00">+ double getY()</text>
<text text-anchor="start" x="16" y="-179.5" font-family="Helvetica,sans-Serif" font-size="10.00">+ double getX()</text>
<text text-anchor="start" x="16" y="-168.5" font-family="Helvetica,sans-Serif" font-size="10.00">+ void Draw()</text>
<text text-anchor="start" x="16" y="-157.5" font-family="Helvetica,sans-Serif" font-size="10.00">+ boolean interesects(double x, double y)</text>
<text text-anchor="start" x="16" y="-146.5" font-family="Helvetica,sans-Serif" font-size="10.00">+ boolean interesects(Block.Lane lane, double y)</text>
<text text-anchor="start" x="16" y="-135.5" font-family="Helvetica,sans-Serif" font-size="10.00">+ boolean touches(GameObject other)</text>
</a>
</g>
</g>
<!-- Node2&#45;&gt;Node1 -->
<g id="edge1" class="edge">
<title>Node2&#45;&gt;Node1</title>
<path fill="none" stroke="midnightblue" d="M230.63,-119.02C235.17,-109.01 239.5,-99.46 243.44,-90.76"/>
<polygon fill="none" stroke="midnightblue" points="227.35,-117.77 226.41,-128.32 233.73,-120.66 227.35,-117.77"/>
</g>
<!-- Node3 -->
<g id="node3" class="node">
<title>Node3</title>
<g id="a_node3"><a xlink:title=" ">
<polygon fill="white" stroke="black" points="0,-486.5 0,-543.5 39,-543.5 39,-486.5 0,-486.5"/>
<text text-anchor="middle" x="19.5" y="-531.5" font-family="Helvetica,sans-Serif" font-size="10.00">Color</text>
<polyline fill="none" stroke="black" points="0,-524.5 39,-524.5 "/>
<text text-anchor="middle" x="19.5" y="-512.5" font-family="Helvetica,sans-Serif" font-size="10.00"> </text>
<polyline fill="none" stroke="black" points="0,-505.5 39,-505.5 "/>
<text text-anchor="middle" x="19.5" y="-493.5" font-family="Helvetica,sans-Serif" font-size="10.00"> </text>
</a>
</g>
</g>
<!-- Node3&#45;&gt;Node2 -->
<g id="edge2" class="edge">
<title>Node3&#45;&gt;Node2</title>
<path fill="none" stroke="#404040" d="M29.14,-486.42C34.27,-472.76 41.06,-456.21 48.5,-442 54.92,-429.74 61.95,-417.26 69.3,-404.89"/>
<polygon fill="none" stroke="#404040" points="69.34,-404.81 69.01,-397.6 75.53,-394.52 75.86,-401.73 69.34,-404.81"/>
<text text-anchor="middle" x="78" y="-416" font-family="Helvetica,sans-Serif" font-size="10.00"> #color</text>
</g>
<!-- Node4 -->
<g id="node4" class="node">
<title>Node4</title>
<g id="a_node4"><a xlink:title=" ">
<polygon fill="white" stroke="black" points="336.5,-486.5 336.5,-543.5 380.5,-543.5 380.5,-486.5 336.5,-486.5"/>
<text text-anchor="middle" x="358.5" y="-531.5" font-family="Helvetica,sans-Serif" font-size="10.00">Image</text>
<polyline fill="none" stroke="black" points="336.5,-524.5 380.5,-524.5 "/>
<text text-anchor="middle" x="358.5" y="-512.5" font-family="Helvetica,sans-Serif" font-size="10.00"> </text>
<polyline fill="none" stroke="black" points="336.5,-505.5 380.5,-505.5 "/>
<text text-anchor="middle" x="358.5" y="-493.5" font-family="Helvetica,sans-Serif" font-size="10.00"> </text>
</a>
</g>
</g>
<!-- Node4&#45;&gt;Node1 -->
<g id="edge7" class="edge">
<title>Node4&#45;&gt;Node1</title>
<path fill="none" stroke="#404040" d="M362.62,-486.47C371.16,-421.27 385.99,-253.48 334.5,-128 330.51,-118.29 324.88,-108.93 318.51,-100.23"/>
<polygon fill="none" stroke="#404040" points="318.45,-100.16 311.6,-97.9 311.05,-90.71 317.9,-92.97 318.45,-100.16"/>
<text text-anchor="middle" x="380" y="-259" font-family="Helvetica,sans-Serif" font-size="10.00"> &#45;tile</text>
</g>
<!-- Node4&#45;&gt;Node2 -->
<g id="edge3" class="edge">
<title>Node4&#45;&gt;Node2</title>
<path fill="none" stroke="#404040" d="M345.63,-486.16C338.84,-472.44 329.96,-455.91 320.5,-442 311.94,-429.42 302.64,-416.72 292.98,-404.2"/>
<polygon fill="none" stroke="#404040" points="292.91,-404.12 286.07,-401.86 285.53,-394.67 292.37,-396.93 292.91,-404.12"/>
<text text-anchor="middle" x="322.5" y="-416" font-family="Helvetica,sans-Serif" font-size="10.00"> #image</text>
</g>
<!-- Node5 -->
<g id="node5" class="node">
<title>Node5</title>
<g id="a_node5"><a xlink:href="classobjects_1_1Block.html" target="_top" xlink:title=" ">
<polygon fill="white" stroke="black" points="57.5,-442.5 57.5,-587.5 311.5,-587.5 311.5,-442.5 57.5,-442.5"/>
<text text-anchor="middle" x="184.5" y="-575.5" font-family="Helvetica,sans-Serif" font-size="10.00">objects.Block</text>
<polyline fill="none" stroke="black" points="57.5,-568.5 311.5,-568.5 "/>
<text text-anchor="start" x="65.5" y="-556.5" font-family="Helvetica,sans-Serif" font-size="10.00">+ static final double speed</text>
<text text-anchor="start" x="65.5" y="-545.5" font-family="Helvetica,sans-Serif" font-size="10.00">&#45; double currentY</text>
<polyline fill="none" stroke="black" points="57.5,-538.5 311.5,-538.5 "/>
<text text-anchor="start" x="65.5" y="-526.5" font-family="Helvetica,sans-Serif" font-size="10.00">+ Block(ArrayList&lt; Obstacle &gt; left, ArrayList&lt; Obstacle</text>
<text text-anchor="start" x="65.5" y="-515.5" font-family="Helvetica,sans-Serif" font-size="10.00"> &gt; center, ArrayList&lt; Obstacle &gt; right)</text>
<text text-anchor="start" x="65.5" y="-504.5" font-family="Helvetica,sans-Serif" font-size="10.00">+ double getCurrentY()</text>
<text text-anchor="start" x="65.5" y="-493.5" font-family="Helvetica,sans-Serif" font-size="10.00">+ ArrayList&lt; Obstacle &gt; getLane(Lane lane)</text>
<text text-anchor="start" x="65.5" y="-482.5" font-family="Helvetica,sans-Serif" font-size="10.00">+ ArrayList&lt; Obstacle &gt; getLeftLane()</text>
<text text-anchor="start" x="65.5" y="-471.5" font-family="Helvetica,sans-Serif" font-size="10.00">+ ArrayList&lt; Obstacle &gt; getCenterLane()</text>
<text text-anchor="start" x="65.5" y="-460.5" font-family="Helvetica,sans-Serif" font-size="10.00">+ ArrayList&lt; Obstacle &gt; getRightLane()</text>
<text text-anchor="start" x="65.5" y="-449.5" font-family="Helvetica,sans-Serif" font-size="10.00">+ void frameUpdate()</text>
</a>
</g>
</g>
<!-- Node5&#45;&gt;Node2 -->
<g id="edge4" class="edge">
<title>Node5&#45;&gt;Node2</title>
<path fill="none" stroke="#404040" d="M179.37,-442.27C178.56,-431.05 177.71,-419.13 176.84,-406.96"/>
<polygon fill="none" stroke="#404040" points="176.82,-406.71 172.4,-401.01 175.96,-394.74 180.38,-400.44 176.82,-406.71"/>
<text text-anchor="middle" x="190.5" y="-416" font-family="Helvetica,sans-Serif" font-size="10.00"> #lane</text>
</g>
<!-- Node6 -->
<g id="node6" class="node">
<title>Node6</title>
<g id="a_node6"><a xlink:title=" ">
<polygon fill="white" stroke="black" points="112,-657.5 112,-714.5 257,-714.5 257,-657.5 112,-657.5"/>
<text text-anchor="middle" x="184.5" y="-702.5" font-family="Helvetica,sans-Serif" font-size="10.00">ArrayList&lt; objects.Obstacle &gt;</text>
<polyline fill="none" stroke="black" points="112,-695.5 257,-695.5 "/>
<text text-anchor="middle" x="184.5" y="-683.5" font-family="Helvetica,sans-Serif" font-size="10.00"> </text>
<polyline fill="none" stroke="black" points="112,-676.5 257,-676.5 "/>
<text text-anchor="middle" x="184.5" y="-664.5" font-family="Helvetica,sans-Serif" font-size="10.00"> </text>
</a>
</g>
</g>
<!-- Node6&#45;&gt;Node5 -->
<g id="edge5" class="edge">
<title>Node6&#45;&gt;Node5</title>
<path fill="none" stroke="#404040" d="M184.5,-657.47C184.5,-641.6 184.5,-620.71 184.5,-599.87"/>
<polygon fill="none" stroke="#404040" points="184.5,-599.64 180.5,-593.64 184.5,-587.64 188.5,-593.64 184.5,-599.64"/>
<text text-anchor="middle" x="201" y="-631" font-family="Helvetica,sans-Serif" font-size="10.00"> &#45;center</text>
<text text-anchor="middle" x="201" y="-620" font-family="Helvetica,sans-Serif" font-size="10.00">&#45;left</text>
<text text-anchor="middle" x="201" y="-609" font-family="Helvetica,sans-Serif" font-size="10.00">&#45;right</text>
</g>
<!-- Node7 -->
<g id="node7" class="node">
<title>Node7</title>
<g id="a_node7"><a xlink:title=" ">
<polygon fill="white" stroke="black" points="156.5,-762.5 156.5,-819.5 212.5,-819.5 212.5,-762.5 156.5,-762.5"/>
<text text-anchor="middle" x="184.5" y="-807.5" font-family="Helvetica,sans-Serif" font-size="10.00">ArrayList</text>
<polyline fill="none" stroke="black" points="156.5,-800.5 212.5,-800.5 "/>
<text text-anchor="middle" x="184.5" y="-788.5" font-family="Helvetica,sans-Serif" font-size="10.00"> </text>
<polyline fill="none" stroke="black" points="156.5,-781.5 212.5,-781.5 "/>
<text text-anchor="middle" x="184.5" y="-769.5" font-family="Helvetica,sans-Serif" font-size="10.00"> </text>
</a>
</g>
</g>
<!-- Node7&#45;&gt;Node6 -->
<g id="edge6" class="edge">
<title>Node7&#45;&gt;Node6</title>
<path fill="none" stroke="orange" d="M184.5,-752.29C184.5,-739.84 184.5,-726.23 184.5,-714.68"/>
<polygon fill="orange" stroke="orange" points="181,-752.4 184.5,-762.4 188,-752.4 181,-752.4"/>
<text text-anchor="middle" x="231.5" y="-736" font-family="Helvetica,sans-Serif" font-size="10.00"> &lt; objects::Obstacle &gt;</text>
</g>
</g>
</svg>
