<?xml version="1.0" encoding="UTF-8" standalone="no"?>
<!DOCTYPE svg PUBLIC "-//W3C//DTD SVG 1.1//EN"
 "http://www.w3.org/Graphics/SVG/1.1/DTD/svg11.dtd">
<!-- Generated by graphviz version 8.0.3 (0)
 -->
<!-- Title: objects.Trailer Pages: 1 -->
<svg width="490pt" height="1150pt"
 viewBox="0.00 0.00 489.50 1150.00" xmlns="http://www.w3.org/2000/svg" xmlns:xlink="http://www.w3.org/1999/xlink">
<g id="graph0" class="graph" transform="scale(1 1) rotate(0) translate(4 1146)">
<title>objects.Trailer</title>
<!-- Node1 -->
<g id="node1" class="node">
<title>Node1</title>
<g id="a_node1"><a xlink:title=" ">
<polygon fill="#999999" stroke="#666666" points="165,-0.5 165,-112.5 356,-112.5 356,-0.5 165,-0.5"/>
<text text-anchor="middle" x="260.5" y="-100.5" font-family="Helvetica,sans-Serif" font-size="10.00">objects.Trailer</text>
<polyline fill="none" stroke="#666666" points="165,-93.5 356,-93.5"/>
<text text-anchor="start" x="173" y="-81.5" font-family="Helvetica,sans-Serif" font-size="10.00">+ static final double singleTrailerLength</text>
<text text-anchor="start" x="173" y="-70.5" font-family="Helvetica,sans-Serif" font-size="10.00">+ static final int maxNumberOfTrailers</text>
<text text-anchor="start" x="173" y="-59.5" font-family="Helvetica,sans-Serif" font-size="10.00"># final int TrailerCount</text>
<polyline fill="none" stroke="#666666" points="165,-52.5 356,-52.5"/>
<text text-anchor="start" x="173" y="-40.5" font-family="Helvetica,sans-Serif" font-size="10.00">+ Trailer(Block.Lane lane, int count)</text>
<text text-anchor="start" x="173" y="-29.5" font-family="Helvetica,sans-Serif" font-size="10.00">+ Trailer(Block.Lane lane)</text>
<text text-anchor="start" x="173" y="-18.5" font-family="Helvetica,sans-Serif" font-size="10.00">+ Trailer(Block.Lane lane, double length)</text>
<text text-anchor="start" x="173" y="-7.5" font-family="Helvetica,sans-Serif" font-size="10.00">+ void Draw()</text>
</a>
</g>
</g>
<!-- Node2 -->
<g id="node2" class="node">
<title>Node2</title>
<g id="a_node2"><a xlink:href="classobjects_1_1Obstacle.html" target="_top" xlink:title=" ">
<polygon fill="white" stroke="#666666" points="137.5,-150.5 137.5,-240.5 383.5,-240.5 383.5,-150.5 137.5,-150.5"/>
<text text-anchor="middle" x="260.5" y="-228.5" font-family="Helvetica,sans-Serif" font-size="10.00">objects.Obstacle</text>
<polyline fill="none" stroke="#666666" points="137.5,-221.5 383.5,-221.5"/>
<text text-anchor="start" x="145.5" y="-209.5" font-family="Helvetica,sans-Serif" font-size="10.00">+ static final double obestacleWidth</text>
<polyline fill="none" stroke="#666666" points="137.5,-202.5 383.5,-202.5"/>
<text text-anchor="start" x="145.5" y="-190.5" font-family="Helvetica,sans-Serif" font-size="10.00">+ Obstacle(Block.Lane lane, double y, double length)</text>
<text text-anchor="start" x="145.5" y="-179.5" font-family="Helvetica,sans-Serif" font-size="10.00">+ void addY(double diff)</text>
<text text-anchor="start" x="145.5" y="-168.5" font-family="Helvetica,sans-Serif" font-size="10.00">+ boolean isOffTheScreen()</text>
<text text-anchor="start" x="145.5" y="-157.5" font-family="Helvetica,sans-Serif" font-size="10.00">+ void Draw()</text>
</a>
</g>
</g>
<!-- Node2&#45;&gt;Node1 -->
<g id="edge1" class="edge">
<title>Node2&#45;&gt;Node1</title>
<path fill="none" stroke="#63b8ff" d="M260.5,-139.92C260.5,-130.85 260.5,-121.44 260.5,-112.36"/>
<polygon fill="none" stroke="#63b8ff" points="257,-139.78 260.5,-149.78 264,-139.78 257,-139.78"/>
</g>
<!-- Node3 -->
<g id="node3" class="node">
<title>Node3</title>
<g id="a_node3"><a xlink:href="classobjects_1_1GameLaneObject.html" target="_top" xlink:title=" ">
<polygon fill="white" stroke="#666666" points="88.5,-278.5 88.5,-412.5 432.5,-412.5 432.5,-278.5 88.5,-278.5"/>
<text text-anchor="middle" x="260.5" y="-400.5" font-family="Helvetica,sans-Serif" font-size="10.00">objects.GameLaneObject</text>
<polyline fill="none" stroke="#666666" points="88.5,-393.5 432.5,-393.5"/>
<text text-anchor="middle" x="260.5" y="-381.5" font-family="Helvetica,sans-Serif" font-size="10.00"> </text>
<polyline fill="none" stroke="#666666" points="88.5,-374.5 432.5,-374.5"/>
<text text-anchor="start" x="96.5" y="-362.5" font-family="Helvetica,sans-Serif" font-size="10.00">+ GameLaneObject(Block.Lane lane, double y, double width, double length)</text>
<text text-anchor="start" x="96.5" y="-351.5" font-family="Helvetica,sans-Serif" font-size="10.00">+ GameLaneObject(Block.Lane lane, double y, double cubeLength)</text>
<text text-anchor="start" x="96.5" y="-340.5" font-family="Helvetica,sans-Serif" font-size="10.00">+ void setLane(Block.Lane path)</text>
<text text-anchor="start" x="96.5" y="-329.5" font-family="Helvetica,sans-Serif" font-size="10.00">+ Block.Lane getLane()</text>
<text text-anchor="start" x="96.5" y="-318.5" font-family="Helvetica,sans-Serif" font-size="10.00">+ void Draw()</text>
<text text-anchor="start" x="96.5" y="-307.5" font-family="Helvetica,sans-Serif" font-size="10.00">+ boolean contains(Block.Lane lane, double y)</text>
<text text-anchor="start" x="96.5" y="-296.5" font-family="Helvetica,sans-Serif" font-size="10.00">+ boolean touches(GameLaneObject other)</text>
<text text-anchor="start" x="96.5" y="-285.5" font-family="Helvetica,sans-Serif" font-size="10.00">+ double distance(GameLaneObject other)</text>
</a>
</g>
</g>
<!-- Node3&#45;&gt;Node2 -->
<g id="edge2" class="edge">
<title>Node3&#45;&gt;Node2</title>
<path fill="none" stroke="#63b8ff" d="M260.5,-267.73C260.5,-258.37 260.5,-249.06 260.5,-240.41"/>
<polygon fill="none" stroke="#63b8ff" points="257,-267.72 260.5,-277.72 264,-267.72 257,-267.72"/>
</g>
<!-- Node4 -->
<g id="node4" class="node">
<title>Node4</title>
<g id="a_node4"><a xlink:href="classobjects_1_1GameObject.html" target="_top" xlink:title=" ">
<polygon fill="white" stroke="#666666" points="0,-450.5 0,-716.5 323,-716.5 323,-450.5 0,-450.5"/>
<text text-anchor="middle" x="161.5" y="-704.5" font-family="Helvetica,sans-Serif" font-size="10.00">objects.GameObject</text>
<polyline fill="none" stroke="#666666" points="0,-697.5 323,-697.5"/>
<text text-anchor="start" x="8" y="-685.5" font-family="Helvetica,sans-Serif" font-size="10.00"># double x</text>
<text text-anchor="start" x="8" y="-674.5" font-family="Helvetica,sans-Serif" font-size="10.00"># double y</text>
<text text-anchor="start" x="8" y="-663.5" font-family="Helvetica,sans-Serif" font-size="10.00"># double width</text>
<text text-anchor="start" x="8" y="-652.5" font-family="Helvetica,sans-Serif" font-size="10.00"># double length</text>
<polyline fill="none" stroke="#666666" points="0,-645.5 323,-645.5"/>
<text text-anchor="start" x="8" y="-633.5" font-family="Helvetica,sans-Serif" font-size="10.00">+ GameObject(double x, double y, double width, double length)</text>
<text text-anchor="start" x="8" y="-622.5" font-family="Helvetica,sans-Serif" font-size="10.00">+ GameObject(Block.Lane lane, double y, double width, double length)</text>
<text text-anchor="start" x="8" y="-611.5" font-family="Helvetica,sans-Serif" font-size="10.00">+ GameObject(Block.Lane lane, double y, double cubeLength)</text>
<text text-anchor="start" x="8" y="-600.5" font-family="Helvetica,sans-Serif" font-size="10.00">+ GameObject(double x, double y, double cubeLength)</text>
<text text-anchor="start" x="8" y="-589.5" font-family="Helvetica,sans-Serif" font-size="10.00">+ double getWidth()</text>
<text text-anchor="start" x="8" y="-578.5" font-family="Helvetica,sans-Serif" font-size="10.00">+ double getLength()</text>
<text text-anchor="start" x="8" y="-567.5" font-family="Helvetica,sans-Serif" font-size="10.00">+ void setColor(Color color)</text>
<text text-anchor="start" x="8" y="-556.5" font-family="Helvetica,sans-Serif" font-size="10.00">+ void setLane(Block.Lane path)</text>
<text text-anchor="start" x="8" y="-545.5" font-family="Helvetica,sans-Serif" font-size="10.00">+ Block.Lane getLane()</text>
<text text-anchor="start" x="8" y="-534.5" font-family="Helvetica,sans-Serif" font-size="10.00">+ void setX(double x)</text>
<text text-anchor="start" x="8" y="-523.5" font-family="Helvetica,sans-Serif" font-size="10.00">+ void setY(double y)</text>
<text text-anchor="start" x="8" y="-512.5" font-family="Helvetica,sans-Serif" font-size="10.00">+ double getY()</text>
<text text-anchor="start" x="8" y="-501.5" font-family="Helvetica,sans-Serif" font-size="10.00">+ double getX()</text>
<text text-anchor="start" x="8" y="-490.5" font-family="Helvetica,sans-Serif" font-size="10.00">+ void Draw()</text>
<text text-anchor="start" x="8" y="-479.5" font-family="Helvetica,sans-Serif" font-size="10.00">+ boolean interesects(double x, double y)</text>
<text text-anchor="start" x="8" y="-468.5" font-family="Helvetica,sans-Serif" font-size="10.00">+ boolean interesects(Block.Lane lane, double y)</text>
<text text-anchor="start" x="8" y="-457.5" font-family="Helvetica,sans-Serif" font-size="10.00">+ boolean touches(GameObject other)</text>
</a>
</g>
</g>
<!-- Node4&#45;&gt;Node3 -->
<g id="edge3" class="edge">
<title>Node4&#45;&gt;Node3</title>
<path fill="none" stroke="#63b8ff" d="M220.92,-440.86C225.02,-431.08 229.03,-421.52 232.82,-412.48"/>
<polygon fill="none" stroke="#63b8ff" points="217.43,-439.12 216.79,-449.7 223.88,-441.83 217.43,-439.12"/>
</g>
<!-- Node5 -->
<g id="node5" class="node">
<title>Node5</title>
<g id="a_node5"><a xlink:title=" ">
<polygon fill="white" stroke="#666666" points="89.5,-808.5 89.5,-865.5 129.5,-865.5 129.5,-808.5 89.5,-808.5"/>
<text text-anchor="middle" x="109.5" y="-853.5" font-family="Helvetica,sans-Serif" font-size="10.00">Color</text>
<polyline fill="none" stroke="#666666" points="89.5,-846.5 129.5,-846.5"/>
<text text-anchor="middle" x="109.5" y="-834.5" font-family="Helvetica,sans-Serif" font-size="10.00"> </text>
<polyline fill="none" stroke="#666666" points="89.5,-827.5 129.5,-827.5"/>
<text text-anchor="middle" x="109.5" y="-815.5" font-family="Helvetica,sans-Serif" font-size="10.00"> </text>
</a>
</g>
</g>
<!-- Node5&#45;&gt;Node4 -->
<g id="edge4" class="edge">
<title>Node5&#45;&gt;Node4</title>
<path fill="none" stroke="#404040" d="M115.16,-808.61C119.32,-788.52 125.31,-759.54 131.61,-729.04"/>
<polygon fill="none" stroke="#404040" points="131.62,-729.01 128.92,-722.32 134.05,-717.25 136.75,-723.94 131.62,-729.01"/>
<text text-anchor="middle" x="143.5" y="-738" font-family="Helvetica,sans-Serif" font-size="10.00"> #color</text>
</g>
<!-- Node6 -->
<g id="node6" class="node">
<title>Node6</title>
<g id="a_node6"><a xlink:title=" ">
<polygon fill="white" stroke="#666666" points="147.5,-808.5 147.5,-865.5 191.5,-865.5 191.5,-808.5 147.5,-808.5"/>
<text text-anchor="middle" x="169.5" y="-853.5" font-family="Helvetica,sans-Serif" font-size="10.00">Image</text>
<polyline fill="none" stroke="#666666" points="147.5,-846.5 191.5,-846.5"/>
<text text-anchor="middle" x="169.5" y="-834.5" font-family="Helvetica,sans-Serif" font-size="10.00"> </text>
<polyline fill="none" stroke="#666666" points="147.5,-827.5 191.5,-827.5"/>
<text text-anchor="middle" x="169.5" y="-815.5" font-family="Helvetica,sans-Serif" font-size="10.00"> </text>
</a>
</g>
</g>
<!-- Node6&#45;&gt;Node4 -->
<g id="edge5" class="edge">
<title>Node6&#45;&gt;Node4</title>
<path fill="none" stroke="#404040" d="M168.63,-808.61C167.99,-788.52 167.07,-759.54 166.1,-729.04"/>
<polygon fill="none" stroke="#404040" points="166.11,-729.27 161.92,-723.4 165.72,-717.27 169.91,-723.14 166.11,-729.27"/>
<text text-anchor="middle" x="183" y="-738" font-family="Helvetica,sans-Serif" font-size="10.00"> #image</text>
</g>
<!-- Node7 -->
<g id="node7" class="node">
<title>Node7</title>
<g id="a_node7"><a xlink:href="classobjects_1_1Block.html" target="_top" xlink:title=" ">
<polygon fill="white" stroke="#666666" points="223.5,-764.5 223.5,-909.5 481.5,-909.5 481.5,-764.5 223.5,-764.5"/>
<text text-anchor="middle" x="352.5" y="-897.5" font-family="Helvetica,sans-Serif" font-size="10.00">objects.Block</text>
<polyline fill="none" stroke="#666666" points="223.5,-890.5 481.5,-890.5"/>
<text text-anchor="start" x="231.5" y="-878.5" font-family="Helvetica,sans-Serif" font-size="10.00">+ static final double speed</text>
<text text-anchor="start" x="231.5" y="-867.5" font-family="Helvetica,sans-Serif" font-size="10.00">&#45; double currentY</text>
<polyline fill="none" stroke="#666666" points="223.5,-860.5 481.5,-860.5"/>
<text text-anchor="start" x="231.5" y="-848.5" font-family="Helvetica,sans-Serif" font-size="10.00">+ Block(ArrayList&lt; Obstacle &gt; left, ArrayList&lt; Obstacle</text>
<text text-anchor="start" x="231.5" y="-837.5" font-family="Helvetica,sans-Serif" font-size="10.00"> &gt; center, ArrayList&lt; Obstacle &gt; right)</text>
<text text-anchor="start" x="231.5" y="-826.5" font-family="Helvetica,sans-Serif" font-size="10.00">+ double getCurrentY()</text>
<text text-anchor="start" x="231.5" y="-815.5" font-family="Helvetica,sans-Serif" font-size="10.00">+ ArrayList&lt; Obstacle &gt; getLane(Lane lane)</text>
<text text-anchor="start" x="231.5" y="-804.5" font-family="Helvetica,sans-Serif" font-size="10.00">+ ArrayList&lt; Obstacle &gt; getLeftLane()</text>
<text text-anchor="start" x="231.5" y="-793.5" font-family="Helvetica,sans-Serif" font-size="10.00">+ ArrayList&lt; Obstacle &gt; getCenterLane()</text>
<text text-anchor="start" x="231.5" y="-782.5" font-family="Helvetica,sans-Serif" font-size="10.00">+ ArrayList&lt; Obstacle &gt; getRightLane()</text>
<text text-anchor="start" x="231.5" y="-771.5" font-family="Helvetica,sans-Serif" font-size="10.00">+ void frameUpdate()</text>
</a>
</g>
</g>
<!-- Node7&#45;&gt;Node3 -->
<g id="edge9" class="edge">
<title>Node7&#45;&gt;Node3</title>
<path fill="none" stroke="#404040" d="M360.25,-764.78C366.29,-685.61 368.46,-555.07 332.5,-450 329.42,-441 325.31,-432.07 320.61,-423.45"/>
<polygon fill="none" stroke="#404040" points="320.62,-423.47 314.14,-420.3 314.58,-413.1 321.06,-416.27 320.62,-423.47"/>
<text text-anchor="middle" x="377" y="-581" font-family="Helvetica,sans-Serif" font-size="10.00"> #lane</text>
</g>
<!-- Node7&#45;&gt;Node4 -->
<g id="edge6" class="edge">
<title>Node7&#45;&gt;Node4</title>
<path fill="none" stroke="#404040" d="M298.28,-764.6C289.05,-752.45 279.19,-739.46 269.14,-726.23"/>
<polygon fill="none" stroke="#404040" points="269.23,-726.35 262.42,-723.99 261.97,-716.8 268.79,-719.16 269.23,-726.35"/>
<text text-anchor="middle" x="293" y="-738" font-family="Helvetica,sans-Serif" font-size="10.00"> #lane</text>
</g>
<!-- Node8 -->
<g id="node8" class="node">
<title>Node8</title>
<g id="a_node8"><a xlink:title=" ">
<polygon fill="white" stroke="#666666" points="279,-979.5 279,-1036.5 426,-1036.5 426,-979.5 279,-979.5"/>
<text text-anchor="middle" x="352.5" y="-1024.5" font-family="Helvetica,sans-Serif" font-size="10.00">ArrayList&lt; objects.Obstacle &gt;</text>
<polyline fill="none" stroke="#666666" points="279,-1017.5 426,-1017.5"/>
<text text-anchor="middle" x="352.5" y="-1005.5" font-family="Helvetica,sans-Serif" font-size="10.00"> </text>
<polyline fill="none" stroke="#666666" points="279,-998.5 426,-998.5"/>
<text text-anchor="middle" x="352.5" y="-986.5" font-family="Helvetica,sans-Serif" font-size="10.00"> </text>
</a>
</g>
</g>
<!-- Node8&#45;&gt;Node7 -->
<g id="edge7" class="edge">
<title>Node8&#45;&gt;Node7</title>
<path fill="none" stroke="#404040" d="M352.5,-979.85C352.5,-964.01 352.5,-943.08 352.5,-922.17"/>
<polygon fill="none" stroke="#404040" points="352.5,-922.11 348.5,-916.11 352.5,-910.11 356.5,-916.11 352.5,-922.11"/>
<text text-anchor="middle" x="369.5" y="-953" font-family="Helvetica,sans-Serif" font-size="10.00"> &#45;center</text>
<text text-anchor="middle" x="369.5" y="-942" font-family="Helvetica,sans-Serif" font-size="10.00">&#45;left</text>
<text text-anchor="middle" x="369.5" y="-931" font-family="Helvetica,sans-Serif" font-size="10.00">&#45;right</text>
</g>
<!-- Node9 -->
<g id="node9" class="node">
<title>Node9</title>
<g id="a_node9"><a xlink:title=" ">
<polygon fill="white" stroke="#666666" points="324.5,-1084.5 324.5,-1141.5 380.5,-1141.5 380.5,-1084.5 324.5,-1084.5"/>
<text text-anchor="middle" x="352.5" y="-1129.5" font-family="Helvetica,sans-Serif" font-size="10.00">ArrayList</text>
<polyline fill="none" stroke="#666666" points="324.5,-1122.5 380.5,-1122.5"/>
<text text-anchor="middle" x="352.5" y="-1110.5" font-family="Helvetica,sans-Serif" font-size="10.00"> </text>
<polyline fill="none" stroke="#666666" points="324.5,-1103.5 380.5,-1103.5"/>
<text text-anchor="middle" x="352.5" y="-1091.5" font-family="Helvetica,sans-Serif" font-size="10.00"> </text>
</a>
</g>
</g>
<!-- Node9&#45;&gt;Node8 -->
<g id="edge8" class="edge">
<title>Node9&#45;&gt;Node8</title>
<path fill="none" stroke="orange" d="M352.5,-1073.71C352.5,-1061.34 352.5,-1047.88 352.5,-1036.46"/>
<polygon fill="orange" stroke="orange" points="349,-1073.67 352.5,-1083.67 356,-1073.67 349,-1073.67"/>
<text text-anchor="middle" x="401.5" y="-1058" font-family="Helvetica,sans-Serif" font-size="10.00"> &lt; objects::Obstacle &gt;</text>
</g>
</g>
</svg>
