<?xml version="1.0" encoding="UTF-8" standalone="no"?>
<!DOCTYPE svg PUBLIC "-//W3C//DTD SVG 1.1//EN"
 "http://www.w3.org/Graphics/SVG/1.1/DTD/svg11.dtd">
<!-- Generated by graphviz version 8.0.3 (0)
 -->
<!-- Title: eu.anwar.madrunner.MadRunner.ResizableCanvas Pages: 1 -->
<svg width="247pt" height="160pt"
 viewBox="0.00 0.00 247.00 160.00" xmlns="http://www.w3.org/2000/svg" xmlns:xlink="http://www.w3.org/1999/xlink">
<g id="graph0" class="graph" transform="scale(1 1) rotate(0) translate(4 156)">
<title>eu.anwar.madrunner.MadRunner.ResizableCanvas</title>
<!-- Node1 -->
<g id="node1" class="node">
<title>Node1</title>
<g id="a_node1"><a xlink:title=" ">
<polygon fill="#999999" stroke="#666666" points="0,-0.5 0,-57.5 239,-57.5 239,-0.5 0,-0.5"/>
<text text-anchor="middle" x="119.5" y="-45.5" font-family="Helvetica,sans-Serif" font-size="10.00">eu.anwar.madrunner.MadRunner.ResizableCanvas</text>
<polyline fill="none" stroke="#666666" points="0,-38.5 239,-38.5"/>
<text text-anchor="middle" x="119.5" y="-26.5" font-family="Helvetica,sans-Serif" font-size="10.00"> </text>
<polyline fill="none" stroke="#666666" points="0,-19.5 239,-19.5"/>
<text text-anchor="start" x="8" y="-7.5" font-family="Helvetica,sans-Serif" font-size="10.00">+ boolean isResizable()</text>
</a>
</g>
</g>
<!-- Node2 -->
<g id="node2" class="node">
<title>Node2</title>
<g id="a_node2"><a xlink:title=" ">
<polygon fill="white" stroke="#666666" points="94.5,-94.5 94.5,-151.5 144.5,-151.5 144.5,-94.5 94.5,-94.5"/>
<text text-anchor="middle" x="119.5" y="-139.5" font-family="Helvetica,sans-Serif" font-size="10.00">Canvas</text>
<polyline fill="none" stroke="#666666" points="94.5,-132.5 144.5,-132.5"/>
<text text-anchor="middle" x="119.5" y="-120.5" font-family="Helvetica,sans-Serif" font-size="10.00"> </text>
<polyline fill="none" stroke="#666666" points="94.5,-113.5 144.5,-113.5"/>
<text text-anchor="middle" x="119.5" y="-101.5" font-family="Helvetica,sans-Serif" font-size="10.00"> </text>
</a>
</g>
</g>
<!-- Node2&#45;&gt;Node1 -->
<g id="edge1" class="edge">
<title>Node2&#45;&gt;Node1</title>
<path fill="none" stroke="#63b8ff" d="M119.5,-84.19C119.5,-75.15 119.5,-65.68 119.5,-57.23"/>
<polygon fill="none" stroke="#63b8ff" points="116,-83.89 119.5,-93.89 123,-83.89 116,-83.89"/>
</g>
</g>
</svg>
