<?xml version="1.0" encoding="UTF-8" standalone="no"?>
<!DOCTYPE svg PUBLIC "-//W3C//DTD SVG 1.1//EN"
 "http://www.w3.org/Graphics/SVG/1.1/DTD/svg11.dtd">
<!-- Generated by graphviz version 8.0.3 (0)
 -->
<!-- Title: eu.anwar.madrunner.MadRunner Pages: 1 -->
<svg width="169pt" height="193pt"
 viewBox="0.00 0.00 169.00 193.00" xmlns="http://www.w3.org/2000/svg" xmlns:xlink="http://www.w3.org/1999/xlink">
<g id="graph0" class="graph" transform="scale(1 1) rotate(0) translate(4 189)">
<title>eu.anwar.madrunner.MadRunner</title>
<!-- Node1 -->
<g id="node1" class="node">
<title>Node1</title>
<g id="a_node1"><a xlink:title=" ">
<polygon fill="#999999" stroke="#666666" points="0,-0.5 0,-90.5 161,-90.5 161,-0.5 0,-0.5"/>
<text text-anchor="middle" x="80.5" y="-78.5" font-family="Helvetica,sans-Serif" font-size="10.00">eu.anwar.madrunner.MadRunner</text>
<polyline fill="none" stroke="#666666" points="0,-71.5 161,-71.5"/>
<text text-anchor="start" x="8" y="-59.5" font-family="Helvetica,sans-Serif" font-size="10.00">+ static MediaPlayer mainTheme</text>
<text text-anchor="start" x="8" y="-48.5" font-family="Helvetica,sans-Serif" font-size="10.00">+ static final double minScreenY</text>
<text text-anchor="start" x="8" y="-37.5" font-family="Helvetica,sans-Serif" font-size="10.00">+ static final double minScreenX</text>
<polyline fill="none" stroke="#666666" points="0,-30.5 161,-30.5"/>
<text text-anchor="start" x="8" y="-18.5" font-family="Helvetica,sans-Serif" font-size="10.00">+ void start(Stage stage)</text>
<text text-anchor="start" x="8" y="-7.5" font-family="Helvetica,sans-Serif" font-size="10.00">+ static void main(String[] args)</text>
</a>
</g>
</g>
<!-- Node2 -->
<g id="node2" class="node">
<title>Node2</title>
<g id="a_node2"><a xlink:title=" ">
<polygon fill="white" stroke="#666666" points="48,-127.5 48,-184.5 113,-184.5 113,-127.5 48,-127.5"/>
<text text-anchor="middle" x="80.5" y="-172.5" font-family="Helvetica,sans-Serif" font-size="10.00">Application</text>
<polyline fill="none" stroke="#666666" points="48,-165.5 113,-165.5"/>
<text text-anchor="middle" x="80.5" y="-153.5" font-family="Helvetica,sans-Serif" font-size="10.00"> </text>
<polyline fill="none" stroke="#666666" points="48,-146.5 113,-146.5"/>
<text text-anchor="middle" x="80.5" y="-134.5" font-family="Helvetica,sans-Serif" font-size="10.00"> </text>
</a>
</g>
</g>
<!-- Node2&#45;&gt;Node1 -->
<g id="edge1" class="edge">
<title>Node2&#45;&gt;Node1</title>
<path fill="none" stroke="#63b8ff" d="M80.5,-116.79C80.5,-108.24 80.5,-99.1 80.5,-90.34"/>
<polygon fill="none" stroke="#63b8ff" points="77,-116.62 80.5,-126.62 84,-116.62 77,-116.62"/>
</g>
</g>
</svg>
