<?xml version="1.0" encoding="UTF-8" standalone="no"?>
<!DOCTYPE svg PUBLIC "-//W3C//DTD SVG 1.1//EN"
 "http://www.w3.org/Graphics/SVG/1.1/DTD/svg11.dtd">
<!-- Generated by graphviz version 8.0.3 (0)
 -->
<!-- Title: game.GameLoop Pages: 1 -->
<svg width="1653pt" height="1852pt"
 viewBox="0.00 0.00 1653.00 1852.00" xmlns="http://www.w3.org/2000/svg" xmlns:xlink="http://www.w3.org/1999/xlink">
<g id="graph0" class="graph" transform="scale(1 1) rotate(0) translate(4 1848)">
<title>game.GameLoop</title>
<!-- Node1 -->
<g id="node1" class="node">
<title>Node1</title>
<g id="a_node1"><a xlink:title=" ">
<polygon fill="#999999" stroke="#666666" points="201.5,-0.5 201.5,-90.5 348.5,-90.5 348.5,-0.5 201.5,-0.5"/>
<text text-anchor="middle" x="275" y="-78.5" font-family="Helvetica,sans-Serif" font-size="10.00">game.GameLoop</text>
<polyline fill="none" stroke="#666666" points="201.5,-71.5 348.5,-71.5"/>
<text text-anchor="start" x="209.5" y="-59.5" font-family="Helvetica,sans-Serif" font-size="10.00">+ static final double fontSize</text>
<text text-anchor="start" x="209.5" y="-48.5" font-family="Helvetica,sans-Serif" font-size="10.00">+ static final long FPS</text>
<text text-anchor="start" x="209.5" y="-37.5" font-family="Helvetica,sans-Serif" font-size="10.00">&#45; long last</text>
<polyline fill="none" stroke="#666666" points="201.5,-30.5 348.5,-30.5"/>
<text text-anchor="start" x="209.5" y="-18.5" font-family="Helvetica,sans-Serif" font-size="10.00">+ GameLoop(Canvas canvas)</text>
<text text-anchor="start" x="209.5" y="-7.5" font-family="Helvetica,sans-Serif" font-size="10.00">+ void handle(long now)</text>
</a>
</g>
</g>
<!-- Node2 -->
<g id="node2" class="node">
<title>Node2</title>
<g id="a_node2"><a xlink:title=" ">
<polygon fill="white" stroke="#666666" points="101.5,-182.5 101.5,-239.5 186.5,-239.5 186.5,-182.5 101.5,-182.5"/>
<text text-anchor="middle" x="144" y="-227.5" font-family="Helvetica,sans-Serif" font-size="10.00">AnimationTimer</text>
<polyline fill="none" stroke="#666666" points="101.5,-220.5 186.5,-220.5"/>
<text text-anchor="middle" x="144" y="-208.5" font-family="Helvetica,sans-Serif" font-size="10.00"> </text>
<polyline fill="none" stroke="#666666" points="101.5,-201.5 186.5,-201.5"/>
<text text-anchor="middle" x="144" y="-189.5" font-family="Helvetica,sans-Serif" font-size="10.00"> </text>
</a>
</g>
</g>
<!-- Node2&#45;&gt;Node1 -->
<g id="edge1" class="edge">
<title>Node2&#45;&gt;Node1</title>
<path fill="none" stroke="#63b8ff" d="M164.69,-173.3C176.58,-153.46 192.42,-129 209,-109 214.24,-102.68 220.07,-96.35 226.04,-90.28"/>
<polygon fill="none" stroke="#63b8ff" points="161.25,-171.24 159.18,-181.63 167.28,-174.8 161.25,-171.24"/>
</g>
<!-- Node3 -->
<g id="node3" class="node">
<title>Node3</title>
<g id="a_node3"><a xlink:title=" ">
<polygon fill="white" stroke="#666666" points="0,-524 0,-581 90,-581 90,-524 0,-524"/>
<text text-anchor="middle" x="45" y="-569" font-family="Helvetica,sans-Serif" font-size="10.00">GraphicsContext</text>
<polyline fill="none" stroke="#666666" points="0,-562 90,-562"/>
<text text-anchor="middle" x="45" y="-550" font-family="Helvetica,sans-Serif" font-size="10.00"> </text>
<polyline fill="none" stroke="#666666" points="0,-543 90,-543"/>
<text text-anchor="middle" x="45" y="-531" font-family="Helvetica,sans-Serif" font-size="10.00"> </text>
</a>
</g>
</g>
<!-- Node3&#45;&gt;Node1 -->
<g id="edge2" class="edge">
<title>Node3&#45;&gt;Node1</title>
<path fill="none" stroke="#404040" d="M44.59,-524.23C45.31,-479.11 52.9,-388.25 99,-331 128.79,-294 163.67,-319.71 195,-284 239.97,-232.75 259.86,-155.24 268.53,-102.83"/>
<polygon fill="none" stroke="#404040" points="268.53,-102.83 265.49,-96.29 270.36,-90.97 273.4,-97.51 268.53,-102.83"/>
<text text-anchor="middle" x="270.5" y="-208.5" font-family="Helvetica,sans-Serif" font-size="10.00"> &#45;gc</text>
</g>
<!-- Node4 -->
<g id="node4" class="node">
<title>Node4</title>
<g id="a_node4"><a xlink:href="classlogic_1_1Logic.html" target="_top" xlink:title=" ">
<polygon fill="white" stroke="#666666" points="500.5,-138.5 500.5,-283.5 693.5,-283.5 693.5,-138.5 500.5,-138.5"/>
<text text-anchor="middle" x="597" y="-271.5" font-family="Helvetica,sans-Serif" font-size="10.00">logic.Logic</text>
<polyline fill="none" stroke="#666666" points="500.5,-264.5 693.5,-264.5"/>
<text text-anchor="start" x="508.5" y="-252.5" font-family="Helvetica,sans-Serif" font-size="10.00">&#45; boolean playerDied</text>
<text text-anchor="start" x="508.5" y="-241.5" font-family="Helvetica,sans-Serif" font-size="10.00">&#45; long last1000Millisecond</text>
<polyline fill="none" stroke="#666666" points="500.5,-234.5 693.5,-234.5"/>
<text text-anchor="start" x="508.5" y="-222.5" font-family="Helvetica,sans-Serif" font-size="10.00">+ Logic(GraphicsContext gc)</text>
<text text-anchor="start" x="508.5" y="-211.5" font-family="Helvetica,sans-Serif" font-size="10.00">+ void tick(Long now)</text>
<text text-anchor="start" x="508.5" y="-200.5" font-family="Helvetica,sans-Serif" font-size="10.00">+ boolean playerCollision()</text>
<text text-anchor="start" x="508.5" y="-189.5" font-family="Helvetica,sans-Serif" font-size="10.00">+ Obstacle getPlayerTouchingObstacle()</text>
<text text-anchor="start" x="508.5" y="-178.5" font-family="Helvetica,sans-Serif" font-size="10.00">+ Player.Level getPlayerLevel()</text>
<text text-anchor="start" x="508.5" y="-167.5" font-family="Helvetica,sans-Serif" font-size="10.00">+ static Bounderies getBounderies()</text>
<text text-anchor="start" x="508.5" y="-156.5" font-family="Helvetica,sans-Serif" font-size="10.00">&#45; void playerDied()</text>
<text text-anchor="start" x="508.5" y="-145.5" font-family="Helvetica,sans-Serif" font-size="10.00">&#45; void startPlayer()</text>
</a>
</g>
</g>
<!-- Node3&#45;&gt;Node4 -->
<g id="edge4" class="edge">
<title>Node3&#45;&gt;Node4</title>
<path fill="none" stroke="#404040" d="M42.77,-524.32C40.55,-477.23 43.57,-380.76 99,-331 121.52,-310.78 204.35,-319.07 234,-313 320.63,-295.26 416.99,-268.1 488.64,-246.4"/>
<polygon fill="none" stroke="#404040" points="488.48,-246.45 493.06,-240.88 499.96,-242.96 495.39,-248.53 488.48,-246.45"/>
<text text-anchor="middle" x="295" y="-305" font-family="Helvetica,sans-Serif" font-size="10.00"> +gc</text>
</g>
<!-- Node4&#45;&gt;Node1 -->
<g id="edge3" class="edge">
<title>Node4&#45;&gt;Node1</title>
<path fill="none" stroke="#404040" d="M500.83,-161.17C456,-138.41 403.13,-111.56 359.81,-89.57"/>
<polygon fill="none" stroke="#404040" points="359.95,-89.63 352.79,-90.48 349.25,-84.2 356.41,-83.35 359.95,-89.63"/>
<text text-anchor="middle" x="444" y="-112" font-family="Helvetica,sans-Serif" font-size="10.00"> &#45;gameLogic</text>
</g>
<!-- Node5 -->
<g id="node5" class="node">
<title>Node5</title>
<g id="a_node5"><a xlink:href="classlogic_1_1Logic_1_1Bounderies.html" target="_top" xlink:title=" ">
<polygon fill="white" stroke="#666666" points="108,-430.5 108,-674.5 370,-674.5 370,-430.5 108,-430.5"/>
<text text-anchor="middle" x="239" y="-662.5" font-family="Helvetica,sans-Serif" font-size="10.00">logic.Logic.Bounderies</text>
<polyline fill="none" stroke="#666666" points="108,-655.5 370,-655.5"/>
<text text-anchor="start" x="116" y="-643.5" font-family="Helvetica,sans-Serif" font-size="10.00">&#45; final double groundPaddingPercentage</text>
<text text-anchor="start" x="116" y="-632.5" font-family="Helvetica,sans-Serif" font-size="10.00">&#45; final double groundStartX</text>
<text text-anchor="start" x="116" y="-621.5" font-family="Helvetica,sans-Serif" font-size="10.00">&#45; final double groundWidth</text>
<text text-anchor="start" x="116" y="-610.5" font-family="Helvetica,sans-Serif" font-size="10.00">&#45; final double groundEndX</text>
<text text-anchor="start" x="116" y="-599.5" font-family="Helvetica,sans-Serif" font-size="10.00">&#45; final double laneWidth</text>
<text text-anchor="start" x="116" y="-588.5" font-family="Helvetica,sans-Serif" font-size="10.00">&#45; final double screenWidth</text>
<text text-anchor="start" x="116" y="-577.5" font-family="Helvetica,sans-Serif" font-size="10.00">&#45; final double screenHeight</text>
<text text-anchor="start" x="116" y="-566.5" font-family="Helvetica,sans-Serif" font-size="10.00">&#45; final double playerYPercentage</text>
<polyline fill="none" stroke="#666666" points="108,-559.5 370,-559.5"/>
<text text-anchor="start" x="116" y="-547.5" font-family="Helvetica,sans-Serif" font-size="10.00">+ Bounderies(double screenWidth, double screenHeight)</text>
<text text-anchor="start" x="116" y="-536.5" font-family="Helvetica,sans-Serif" font-size="10.00">+ double getGroundStartX()</text>
<text text-anchor="start" x="116" y="-525.5" font-family="Helvetica,sans-Serif" font-size="10.00">+ double getGroundEndX()</text>
<text text-anchor="start" x="116" y="-514.5" font-family="Helvetica,sans-Serif" font-size="10.00">+ double getPlayerY()</text>
<text text-anchor="start" x="116" y="-503.5" font-family="Helvetica,sans-Serif" font-size="10.00">+ double getScreenHeight()</text>
<text text-anchor="start" x="116" y="-492.5" font-family="Helvetica,sans-Serif" font-size="10.00">+ double getScreenWidth()</text>
<text text-anchor="start" x="116" y="-481.5" font-family="Helvetica,sans-Serif" font-size="10.00">+ double getGroundWidth()</text>
<text text-anchor="start" x="116" y="-470.5" font-family="Helvetica,sans-Serif" font-size="10.00">+ double getLaneWidth()</text>
<text text-anchor="start" x="116" y="-459.5" font-family="Helvetica,sans-Serif" font-size="10.00">+ double getLaneStartX()</text>
<text text-anchor="start" x="116" y="-448.5" font-family="Helvetica,sans-Serif" font-size="10.00">+ double getLanePadding()</text>
<text text-anchor="start" x="116" y="-437.5" font-family="Helvetica,sans-Serif" font-size="10.00">+ double getLaneStartX(Block.Lane path)</text>
</a>
</g>
</g>
<!-- Node5&#45;&gt;Node4 -->
<g id="edge5" class="edge">
<title>Node5&#45;&gt;Node4</title>
<path fill="none" stroke="#404040" d="M300.43,-430.78C322.04,-395.81 348.63,-359.43 379,-331 410.81,-301.22 451.47,-276.42 489.04,-257.29"/>
<polygon fill="none" stroke="#404040" points="489.04,-257.29 492.63,-251.03 499.78,-251.94 496.2,-258.2 489.04,-257.29"/>
<text text-anchor="middle" x="449" y="-305" font-family="Helvetica,sans-Serif" font-size="10.00"> +bounderiesOBJ</text>
</g>
<!-- Node6 -->
<g id="node6" class="node">
<title>Node6</title>
<g id="a_node6"><a xlink:href="classobjects_1_1Ground.html" target="_top" xlink:title=" ">
<polygon fill="white" stroke="#666666" points="772,-967.5 772,-1057.5 996,-1057.5 996,-967.5 772,-967.5"/>
<text text-anchor="middle" x="884" y="-1045.5" font-family="Helvetica,sans-Serif" font-size="10.00">objects.Ground</text>
<polyline fill="none" stroke="#666666" points="772,-1038.5 996,-1038.5"/>
<text text-anchor="start" x="780" y="-1026.5" font-family="Helvetica,sans-Serif" font-size="10.00">+ static final double laneImageWidth</text>
<text text-anchor="start" x="780" y="-1015.5" font-family="Helvetica,sans-Serif" font-size="10.00">&#45; double yDisplacement</text>
<polyline fill="none" stroke="#666666" points="772,-1008.5 996,-1008.5"/>
<text text-anchor="start" x="780" y="-996.5" font-family="Helvetica,sans-Serif" font-size="10.00">+ Ground(double x, double width, double length)</text>
<text text-anchor="start" x="780" y="-985.5" font-family="Helvetica,sans-Serif" font-size="10.00">+ void frameUpdate()</text>
<text text-anchor="start" x="780" y="-974.5" font-family="Helvetica,sans-Serif" font-size="10.00">+ void Draw()</text>
</a>
</g>
</g>
<!-- Node6&#45;&gt;Node4 -->
<g id="edge6" class="edge">
<title>Node6&#45;&gt;Node4</title>
<path fill="none" stroke="#404040" d="M901.98,-967.73C946.57,-851.43 1048.84,-530.03 907,-331 855.32,-258.49 795.08,-312.76 705.61,-284.27"/>
<polygon fill="none" stroke="#404040" points="705.53,-284.24 698.54,-286 694.23,-280.22 701.22,-278.46 705.53,-284.24"/>
<text text-anchor="middle" x="997" y="-550" font-family="Helvetica,sans-Serif" font-size="10.00"> &#45;ground</text>
</g>
<!-- Node7 -->
<g id="node7" class="node">
<title>Node7</title>
<g id="a_node7"><a xlink:href="classobjects_1_1GameObject.html" target="_top" xlink:title=" ">
<polygon fill="white" stroke="#666666" points="796.5,-1127.5 796.5,-1393.5 1119.5,-1393.5 1119.5,-1127.5 796.5,-1127.5"/>
<text text-anchor="middle" x="958" y="-1381.5" font-family="Helvetica,sans-Serif" font-size="10.00">objects.GameObject</text>
<polyline fill="none" stroke="#666666" points="796.5,-1374.5 1119.5,-1374.5"/>
<text text-anchor="start" x="804.5" y="-1362.5" font-family="Helvetica,sans-Serif" font-size="10.00"># double x</text>
<text text-anchor="start" x="804.5" y="-1351.5" font-family="Helvetica,sans-Serif" font-size="10.00"># double y</text>
<text text-anchor="start" x="804.5" y="-1340.5" font-family="Helvetica,sans-Serif" font-size="10.00"># double width</text>
<text text-anchor="start" x="804.5" y="-1329.5" font-family="Helvetica,sans-Serif" font-size="10.00"># double length</text>
<polyline fill="none" stroke="#666666" points="796.5,-1322.5 1119.5,-1322.5"/>
<text text-anchor="start" x="804.5" y="-1310.5" font-family="Helvetica,sans-Serif" font-size="10.00">+ GameObject(double x, double y, double width, double length)</text>
<text text-anchor="start" x="804.5" y="-1299.5" font-family="Helvetica,sans-Serif" font-size="10.00">+ GameObject(Block.Lane lane, double y, double width, double length)</text>
<text text-anchor="start" x="804.5" y="-1288.5" font-family="Helvetica,sans-Serif" font-size="10.00">+ GameObject(Block.Lane lane, double y, double cubeLength)</text>
<text text-anchor="start" x="804.5" y="-1277.5" font-family="Helvetica,sans-Serif" font-size="10.00">+ GameObject(double x, double y, double cubeLength)</text>
<text text-anchor="start" x="804.5" y="-1266.5" font-family="Helvetica,sans-Serif" font-size="10.00">+ double getWidth()</text>
<text text-anchor="start" x="804.5" y="-1255.5" font-family="Helvetica,sans-Serif" font-size="10.00">+ double getLength()</text>
<text text-anchor="start" x="804.5" y="-1244.5" font-family="Helvetica,sans-Serif" font-size="10.00">+ void setColor(Color color)</text>
<text text-anchor="start" x="804.5" y="-1233.5" font-family="Helvetica,sans-Serif" font-size="10.00">+ void setLane(Block.Lane path)</text>
<text text-anchor="start" x="804.5" y="-1222.5" font-family="Helvetica,sans-Serif" font-size="10.00">+ Block.Lane getLane()</text>
<text text-anchor="start" x="804.5" y="-1211.5" font-family="Helvetica,sans-Serif" font-size="10.00">+ void setX(double x)</text>
<text text-anchor="start" x="804.5" y="-1200.5" font-family="Helvetica,sans-Serif" font-size="10.00">+ void setY(double y)</text>
<text text-anchor="start" x="804.5" y="-1189.5" font-family="Helvetica,sans-Serif" font-size="10.00">+ double getY()</text>
<text text-anchor="start" x="804.5" y="-1178.5" font-family="Helvetica,sans-Serif" font-size="10.00">+ double getX()</text>
<text text-anchor="start" x="804.5" y="-1167.5" font-family="Helvetica,sans-Serif" font-size="10.00">+ void Draw()</text>
<text text-anchor="start" x="804.5" y="-1156.5" font-family="Helvetica,sans-Serif" font-size="10.00">+ boolean interesects(double x, double y)</text>
<text text-anchor="start" x="804.5" y="-1145.5" font-family="Helvetica,sans-Serif" font-size="10.00">+ boolean interesects(Block.Lane lane, double y)</text>
<text text-anchor="start" x="804.5" y="-1134.5" font-family="Helvetica,sans-Serif" font-size="10.00">+ boolean touches(GameObject other)</text>
</a>
</g>
</g>
<!-- Node7&#45;&gt;Node6 -->
<g id="edge7" class="edge">
<title>Node7&#45;&gt;Node6</title>
<path fill="none" stroke="#63b8ff" d="M915.27,-1117.45C908.71,-1095.65 902.4,-1074.66 897.18,-1057.32"/>
<polygon fill="none" stroke="#63b8ff" points="912.17,-1118.29 918.4,-1126.86 918.87,-1116.27 912.17,-1118.29"/>
</g>
<!-- Node17 -->
<g id="node17" class="node">
<title>Node17</title>
<g id="a_node17"><a xlink:href="classobjects_1_1GameLaneObject.html" target="_top" xlink:title=" ">
<polygon fill="white" stroke="#666666" points="1014,-945.5 1014,-1079.5 1358,-1079.5 1358,-945.5 1014,-945.5"/>
<text text-anchor="middle" x="1186" y="-1067.5" font-family="Helvetica,sans-Serif" font-size="10.00">objects.GameLaneObject</text>
<polyline fill="none" stroke="#666666" points="1014,-1060.5 1358,-1060.5"/>
<text text-anchor="middle" x="1186" y="-1048.5" font-family="Helvetica,sans-Serif" font-size="10.00"> </text>
<polyline fill="none" stroke="#666666" points="1014,-1041.5 1358,-1041.5"/>
<text text-anchor="start" x="1022" y="-1029.5" font-family="Helvetica,sans-Serif" font-size="10.00">+ GameLaneObject(Block.Lane lane, double y, double width, double length)</text>
<text text-anchor="start" x="1022" y="-1018.5" font-family="Helvetica,sans-Serif" font-size="10.00">+ GameLaneObject(Block.Lane lane, double y, double cubeLength)</text>
<text text-anchor="start" x="1022" y="-1007.5" font-family="Helvetica,sans-Serif" font-size="10.00">+ void setLane(Block.Lane path)</text>
<text text-anchor="start" x="1022" y="-996.5" font-family="Helvetica,sans-Serif" font-size="10.00">+ Block.Lane getLane()</text>
<text text-anchor="start" x="1022" y="-985.5" font-family="Helvetica,sans-Serif" font-size="10.00">+ void Draw()</text>
<text text-anchor="start" x="1022" y="-974.5" font-family="Helvetica,sans-Serif" font-size="10.00">+ boolean contains(Block.Lane lane, double y)</text>
<text text-anchor="start" x="1022" y="-963.5" font-family="Helvetica,sans-Serif" font-size="10.00">+ boolean touches(GameLaneObject other)</text>
<text text-anchor="start" x="1022" y="-952.5" font-family="Helvetica,sans-Serif" font-size="10.00">+ double distance(GameLaneObject other)</text>
</a>
</g>
</g>
<!-- Node7&#45;&gt;Node17 -->
<g id="edge19" class="edge">
<title>Node7&#45;&gt;Node17</title>
<path fill="none" stroke="#63b8ff" d="M1087.29,-1120.01C1100.34,-1105.92 1113.12,-1092.13 1124.93,-1079.39"/>
<polygon fill="none" stroke="#63b8ff" points="1085.24,-1117.14 1081.01,-1126.86 1090.37,-1121.9 1085.24,-1117.14"/>
</g>
<!-- Node20 -->
<g id="node20" class="node">
<title>Node20</title>
<g id="a_node20"><a xlink:href="classlogic_1_1Logic_1_1Score.html" target="_top" xlink:title=" ">
<polygon fill="white" stroke="#666666" points="685.5,-792.5 685.5,-926.5 826.5,-926.5 826.5,-792.5 685.5,-792.5"/>
<text text-anchor="middle" x="756" y="-914.5" font-family="Helvetica,sans-Serif" font-size="10.00">logic.Logic.Score</text>
<polyline fill="none" stroke="#666666" points="685.5,-907.5 826.5,-907.5"/>
<text text-anchor="start" x="693.5" y="-895.5" font-family="Helvetica,sans-Serif" font-size="10.00">+ static final double length</text>
<text text-anchor="start" x="693.5" y="-884.5" font-family="Helvetica,sans-Serif" font-size="10.00">+ static final double padding</text>
<text text-anchor="start" x="693.5" y="-873.5" font-family="Helvetica,sans-Serif" font-size="10.00">&#45; int currentScore</text>
<polyline fill="none" stroke="#666666" points="685.5,-866.5 826.5,-866.5"/>
<text text-anchor="start" x="693.5" y="-854.5" font-family="Helvetica,sans-Serif" font-size="10.00">+ void increaseScore(int diff)</text>
<text text-anchor="start" x="693.5" y="-843.5" font-family="Helvetica,sans-Serif" font-size="10.00">+ void incrementScore()</text>
<text text-anchor="start" x="693.5" y="-832.5" font-family="Helvetica,sans-Serif" font-size="10.00">+ int getScore()</text>
<text text-anchor="start" x="693.5" y="-821.5" font-family="Helvetica,sans-Serif" font-size="10.00">+ void resetScore()</text>
<text text-anchor="start" x="693.5" y="-810.5" font-family="Helvetica,sans-Serif" font-size="10.00">+ void Draw()</text>
<text text-anchor="start" x="693.5" y="-799.5" font-family="Helvetica,sans-Serif" font-size="10.00">~ Score()</text>
</a>
</g>
</g>
<!-- Node7&#45;&gt;Node20 -->
<g id="edge26" class="edge">
<title>Node7&#45;&gt;Node20</title>
<path fill="none" stroke="#63b8ff" d="M789.83,-1124.45C779.33,-1110.45 770.14,-1095.59 763,-1080 741.02,-1031.99 740.77,-971.68 745.18,-926.43"/>
<polygon fill="none" stroke="#63b8ff" points="787.62,-1126.32 796.52,-1132.06 793.15,-1122.02 787.62,-1126.32"/>
</g>
<!-- Node8 -->
<g id="node8" class="node">
<title>Node8</title>
<g id="a_node8"><a xlink:title=" ">
<polygon fill="white" stroke="#666666" points="1412,-1485.5 1412,-1542.5 1452,-1542.5 1452,-1485.5 1412,-1485.5"/>
<text text-anchor="middle" x="1432" y="-1530.5" font-family="Helvetica,sans-Serif" font-size="10.00">Color</text>
<polyline fill="none" stroke="#666666" points="1412,-1523.5 1452,-1523.5"/>
<text text-anchor="middle" x="1432" y="-1511.5" font-family="Helvetica,sans-Serif" font-size="10.00"> </text>
<polyline fill="none" stroke="#666666" points="1412,-1504.5 1452,-1504.5"/>
<text text-anchor="middle" x="1432" y="-1492.5" font-family="Helvetica,sans-Serif" font-size="10.00"> </text>
</a>
</g>
</g>
<!-- Node8&#45;&gt;Node7 -->
<g id="edge8" class="edge">
<title>Node8&#45;&gt;Node7</title>
<path fill="none" stroke="#404040" d="M1412,-1496.96C1391.11,-1480.87 1356.87,-1456.35 1324,-1441 1256.84,-1409.64 1231.41,-1424.81 1164,-1394 1153.02,-1388.98 1141.94,-1383.45 1130.92,-1377.57"/>
<polygon fill="none" stroke="#404040" points="1130.8,-1377.51 1123.62,-1378.15 1120.26,-1371.77 1127.44,-1371.12 1130.8,-1377.51"/>
<text text-anchor="middle" x="1287" y="-1415" font-family="Helvetica,sans-Serif" font-size="10.00"> #color</text>
</g>
<!-- Node16 -->
<g id="node16" class="node">
<title>Node16</title>
<g id="a_node16"><a xlink:href="classobjects_1_1Player.html" target="_top" xlink:title=" ">
<polygon fill="white" stroke="#666666" points="1333.5,-331.5 1333.5,-773.5 1524.5,-773.5 1524.5,-331.5 1333.5,-331.5"/>
<text text-anchor="middle" x="1429" y="-761.5" font-family="Helvetica,sans-Serif" font-size="10.00">objects.Player</text>
<polyline fill="none" stroke="#666666" points="1333.5,-754.5 1524.5,-754.5"/>
<text text-anchor="start" x="1341.5" y="-742.5" font-family="Helvetica,sans-Serif" font-size="10.00">+ static final double playerLength</text>
<text text-anchor="start" x="1341.5" y="-731.5" font-family="Helvetica,sans-Serif" font-size="10.00">+ static final int maxJumpFrames</text>
<text text-anchor="start" x="1341.5" y="-720.5" font-family="Helvetica,sans-Serif" font-size="10.00">+ static final int maxJumpLength</text>
<text text-anchor="start" x="1341.5" y="-709.5" font-family="Helvetica,sans-Serif" font-size="10.00">+ static final int maxRampFrames</text>
<text text-anchor="start" x="1341.5" y="-698.5" font-family="Helvetica,sans-Serif" font-size="10.00">+ static final double jumpFormulaATerm</text>
<text text-anchor="start" x="1341.5" y="-687.5" font-family="Helvetica,sans-Serif" font-size="10.00">+ static final double jumpFormulaBTerm</text>
<text text-anchor="start" x="1341.5" y="-676.5" font-family="Helvetica,sans-Serif" font-size="10.00">&#45; boolean jumping</text>
<text text-anchor="start" x="1341.5" y="-665.5" font-family="Helvetica,sans-Serif" font-size="10.00">&#45; boolean isClimbingRamp</text>
<text text-anchor="start" x="1341.5" y="-654.5" font-family="Helvetica,sans-Serif" font-size="10.00">&#45; Boolean alive</text>
<text text-anchor="start" x="1341.5" y="-643.5" font-family="Helvetica,sans-Serif" font-size="10.00">&#45; Boolean isDying</text>
<text text-anchor="start" x="1341.5" y="-632.5" font-family="Helvetica,sans-Serif" font-size="10.00">&#45; int currentJumpFrame</text>
<text text-anchor="start" x="1341.5" y="-621.5" font-family="Helvetica,sans-Serif" font-size="10.00">&#45; int currentRunningFrame</text>
<text text-anchor="start" x="1341.5" y="-610.5" font-family="Helvetica,sans-Serif" font-size="10.00">&#45; int currentDeathFrame</text>
<text text-anchor="start" x="1341.5" y="-599.5" font-family="Helvetica,sans-Serif" font-size="10.00">&#45; int currentClimbingFrame</text>
<polyline fill="none" stroke="#666666" points="1333.5,-592.5 1524.5,-592.5"/>
<text text-anchor="start" x="1341.5" y="-580.5" font-family="Helvetica,sans-Serif" font-size="10.00">+ Player()</text>
<text text-anchor="start" x="1341.5" y="-569.5" font-family="Helvetica,sans-Serif" font-size="10.00">+ Level getLevel()</text>
<text text-anchor="start" x="1341.5" y="-558.5" font-family="Helvetica,sans-Serif" font-size="10.00">+ void setLevel(Level level)</text>
<text text-anchor="start" x="1341.5" y="-547.5" font-family="Helvetica,sans-Serif" font-size="10.00">+ void moveLeft()</text>
<text text-anchor="start" x="1341.5" y="-536.5" font-family="Helvetica,sans-Serif" font-size="10.00">+ void moveRight()</text>
<text text-anchor="start" x="1341.5" y="-525.5" font-family="Helvetica,sans-Serif" font-size="10.00">+ boolean isJumping()</text>
<text text-anchor="start" x="1341.5" y="-514.5" font-family="Helvetica,sans-Serif" font-size="10.00">+ boolean isAlive()</text>
<text text-anchor="start" x="1341.5" y="-503.5" font-family="Helvetica,sans-Serif" font-size="10.00">+ boolean isDying()</text>
<text text-anchor="start" x="1341.5" y="-492.5" font-family="Helvetica,sans-Serif" font-size="10.00">+ void die()</text>
<text text-anchor="start" x="1341.5" y="-481.5" font-family="Helvetica,sans-Serif" font-size="10.00">+ void rampClimb()</text>
<text text-anchor="start" x="1341.5" y="-470.5" font-family="Helvetica,sans-Serif" font-size="10.00">+ void jump()</text>
<text text-anchor="start" x="1341.5" y="-459.5" font-family="Helvetica,sans-Serif" font-size="10.00">+ void setIsDying()</text>
<text text-anchor="start" x="1341.5" y="-448.5" font-family="Helvetica,sans-Serif" font-size="10.00">+ void jumpUpdate()</text>
<text text-anchor="start" x="1341.5" y="-437.5" font-family="Helvetica,sans-Serif" font-size="10.00">+ void setPlayerLevelLow()</text>
<text text-anchor="start" x="1341.5" y="-426.5" font-family="Helvetica,sans-Serif" font-size="10.00">+ void setPlayerLevelHigh()</text>
<text text-anchor="start" x="1341.5" y="-415.5" font-family="Helvetica,sans-Serif" font-size="10.00">+ void rampUpdate()</text>
<text text-anchor="start" x="1341.5" y="-404.5" font-family="Helvetica,sans-Serif" font-size="10.00">+ void updateDeathAnimation()</text>
<text text-anchor="start" x="1341.5" y="-393.5" font-family="Helvetica,sans-Serif" font-size="10.00">+ void playerUpdateAnimation()</text>
<text text-anchor="start" x="1341.5" y="-382.5" font-family="Helvetica,sans-Serif" font-size="10.00">&#45; void setAnimations()</text>
<text text-anchor="start" x="1341.5" y="-371.5" font-family="Helvetica,sans-Serif" font-size="10.00">&#45; void playerLengthIncrease(double diff)</text>
<text text-anchor="start" x="1341.5" y="-360.5" font-family="Helvetica,sans-Serif" font-size="10.00">&#45; void playerLengthDecrease(double diff)</text>
<text text-anchor="start" x="1341.5" y="-349.5" font-family="Helvetica,sans-Serif" font-size="10.00">&#45; double jumpCurrentValue(int frame)</text>
<text text-anchor="start" x="1341.5" y="-338.5" font-family="Helvetica,sans-Serif" font-size="10.00">&#45; void updateRunningAnimation()</text>
</a>
</g>
</g>
<!-- Node8&#45;&gt;Node16 -->
<g id="edge21" class="edge">
<title>Node8&#45;&gt;Node16</title>
<path fill="none" stroke="#404040" d="M1438.41,-1485.56C1456.81,-1403.59 1507.39,-1153.3 1491,-945 1486.94,-893.35 1479.9,-838.21 1471.99,-786.11"/>
<polygon fill="none" stroke="#404040" points="1471.98,-786.04 1467.11,-780.72 1470.15,-774.18 1475.02,-779.5 1471.98,-786.04"/>
<text text-anchor="middle" x="1520" y="-1101" font-family="Helvetica,sans-Serif" font-size="10.00"> &#45;playerColor</text>
</g>
<!-- Node9 -->
<g id="node9" class="node">
<title>Node9</title>
<g id="a_node9"><a xlink:title=" ">
<polygon fill="white" stroke="#666666" points="801,-1485.5 801,-1542.5 845,-1542.5 845,-1485.5 801,-1485.5"/>
<text text-anchor="middle" x="823" y="-1530.5" font-family="Helvetica,sans-Serif" font-size="10.00">Image</text>
<polyline fill="none" stroke="#666666" points="801,-1523.5 845,-1523.5"/>
<text text-anchor="middle" x="823" y="-1511.5" font-family="Helvetica,sans-Serif" font-size="10.00"> </text>
<polyline fill="none" stroke="#666666" points="801,-1504.5 845,-1504.5"/>
<text text-anchor="middle" x="823" y="-1492.5" font-family="Helvetica,sans-Serif" font-size="10.00"> </text>
</a>
</g>
</g>
<!-- Node9&#45;&gt;Node6 -->
<g id="edge13" class="edge">
<title>Node9&#45;&gt;Node6</title>
<path fill="none" stroke="#404040" d="M806.59,-1485.8C793.5,-1462.4 776.19,-1427.26 769,-1394 743.92,-1278.01 723.23,-1236.48 769,-1127 778.63,-1103.97 795.46,-1083.24 813.32,-1065.98"/>
<polygon fill="none" stroke="#404040" points="813.25,-1066.05 814.94,-1059.04 822.06,-1057.9 820.37,-1064.91 813.25,-1066.05"/>
<text text-anchor="middle" x="778.5" y="-1258" font-family="Helvetica,sans-Serif" font-size="10.00"> &#45;tile</text>
</g>
<!-- Node9&#45;&gt;Node7 -->
<g id="edge9" class="edge">
<title>Node9&#45;&gt;Node7</title>
<path fill="none" stroke="#404040" d="M837.7,-1485.61C848.63,-1465.25 864.46,-1435.76 881.07,-1404.82"/>
<polygon fill="none" stroke="#404040" points="881.11,-1404.74 880.43,-1397.56 886.79,-1394.17 887.47,-1401.34 881.11,-1404.74"/>
<text text-anchor="middle" x="891.5" y="-1415" font-family="Helvetica,sans-Serif" font-size="10.00"> #image</text>
</g>
<!-- Node10 -->
<g id="node10" class="node">
<title>Node10</title>
<g id="a_node10"><a xlink:href="classobjects_1_1Block.html" target="_top" xlink:title=" ">
<polygon fill="white" stroke="#666666" points="1057,-1441.5 1057,-1586.5 1315,-1586.5 1315,-1441.5 1057,-1441.5"/>
<text text-anchor="middle" x="1186" y="-1574.5" font-family="Helvetica,sans-Serif" font-size="10.00">objects.Block</text>
<polyline fill="none" stroke="#666666" points="1057,-1567.5 1315,-1567.5"/>
<text text-anchor="start" x="1065" y="-1555.5" font-family="Helvetica,sans-Serif" font-size="10.00">+ static final double speed</text>
<text text-anchor="start" x="1065" y="-1544.5" font-family="Helvetica,sans-Serif" font-size="10.00">&#45; double currentY</text>
<polyline fill="none" stroke="#666666" points="1057,-1537.5 1315,-1537.5"/>
<text text-anchor="start" x="1065" y="-1525.5" font-family="Helvetica,sans-Serif" font-size="10.00">+ Block(ArrayList&lt; Obstacle &gt; left, ArrayList&lt; Obstacle</text>
<text text-anchor="start" x="1065" y="-1514.5" font-family="Helvetica,sans-Serif" font-size="10.00"> &gt; center, ArrayList&lt; Obstacle &gt; right)</text>
<text text-anchor="start" x="1065" y="-1503.5" font-family="Helvetica,sans-Serif" font-size="10.00">+ double getCurrentY()</text>
<text text-anchor="start" x="1065" y="-1492.5" font-family="Helvetica,sans-Serif" font-size="10.00">+ ArrayList&lt; Obstacle &gt; getLane(Lane lane)</text>
<text text-anchor="start" x="1065" y="-1481.5" font-family="Helvetica,sans-Serif" font-size="10.00">+ ArrayList&lt; Obstacle &gt; getLeftLane()</text>
<text text-anchor="start" x="1065" y="-1470.5" font-family="Helvetica,sans-Serif" font-size="10.00">+ ArrayList&lt; Obstacle &gt; getCenterLane()</text>
<text text-anchor="start" x="1065" y="-1459.5" font-family="Helvetica,sans-Serif" font-size="10.00">+ ArrayList&lt; Obstacle &gt; getRightLane()</text>
<text text-anchor="start" x="1065" y="-1448.5" font-family="Helvetica,sans-Serif" font-size="10.00">+ void frameUpdate()</text>
</a>
</g>
</g>
<!-- Node10&#45;&gt;Node7 -->
<g id="edge10" class="edge">
<title>Node10&#45;&gt;Node7</title>
<path fill="none" stroke="#404040" d="M1121.27,-1441.6C1110.04,-1429.21 1098.02,-1415.95 1085.78,-1402.45"/>
<polygon fill="none" stroke="#404040" points="1085.95,-1402.64 1078.96,-1400.88 1077.89,-1393.75 1084.88,-1395.51 1085.95,-1402.64"/>
<text text-anchor="middle" x="1112.5" y="-1415" font-family="Helvetica,sans-Serif" font-size="10.00"> #lane</text>
</g>
<!-- Node10&#45;&gt;Node17 -->
<g id="edge20" class="edge">
<title>Node10&#45;&gt;Node17</title>
<path fill="none" stroke="#404040" d="M1186,-1441.7C1186,-1349.18 1186,-1188.28 1186,-1092.25"/>
<polygon fill="none" stroke="#404040" points="1186,-1092.34 1182,-1086.34 1186,-1080.34 1190,-1086.34 1186,-1092.34"/>
<text text-anchor="middle" x="1199.5" y="-1258" font-family="Helvetica,sans-Serif" font-size="10.00"> #lane</text>
</g>
<!-- Node11 -->
<g id="node11" class="node">
<title>Node11</title>
<g id="a_node11"><a xlink:title=" ">
<polygon fill="white" stroke="#666666" points="1317.5,-1681.5 1317.5,-1738.5 1464.5,-1738.5 1464.5,-1681.5 1317.5,-1681.5"/>
<text text-anchor="middle" x="1391" y="-1726.5" font-family="Helvetica,sans-Serif" font-size="10.00">ArrayList&lt; objects.Obstacle &gt;</text>
<polyline fill="none" stroke="#666666" points="1317.5,-1719.5 1464.5,-1719.5"/>
<text text-anchor="middle" x="1391" y="-1707.5" font-family="Helvetica,sans-Serif" font-size="10.00"> </text>
<polyline fill="none" stroke="#666666" points="1317.5,-1700.5 1464.5,-1700.5"/>
<text text-anchor="middle" x="1391" y="-1688.5" font-family="Helvetica,sans-Serif" font-size="10.00"> </text>
</a>
</g>
</g>
<!-- Node11&#45;&gt;Node10 -->
<g id="edge11" class="edge">
<title>Node11&#45;&gt;Node10</title>
<path fill="none" stroke="#404040" d="M1362.06,-1681.62C1338.15,-1658.99 1302.96,-1625.68 1270.31,-1594.78"/>
<polygon fill="none" stroke="#404040" points="1270.55,-1595.01 1263.44,-1593.79 1261.83,-1586.76 1268.94,-1587.98 1270.55,-1595.01"/>
<text text-anchor="middle" x="1358" y="-1642.5" font-family="Helvetica,sans-Serif" font-size="10.00"> &#45;center</text>
<text text-anchor="middle" x="1358" y="-1631.5" font-family="Helvetica,sans-Serif" font-size="10.00">&#45;left</text>
<text text-anchor="middle" x="1358" y="-1620.5" font-family="Helvetica,sans-Serif" font-size="10.00">&#45;right</text>
</g>
<!-- Node12 -->
<g id="node12" class="node">
<title>Node12</title>
<g id="a_node12"><a xlink:title=" ">
<polygon fill="white" stroke="#666666" points="1457,-1786.5 1457,-1843.5 1513,-1843.5 1513,-1786.5 1457,-1786.5"/>
<text text-anchor="middle" x="1485" y="-1831.5" font-family="Helvetica,sans-Serif" font-size="10.00">ArrayList</text>
<polyline fill="none" stroke="#666666" points="1457,-1824.5 1513,-1824.5"/>
<text text-anchor="middle" x="1485" y="-1812.5" font-family="Helvetica,sans-Serif" font-size="10.00"> </text>
<polyline fill="none" stroke="#666666" points="1457,-1805.5 1513,-1805.5"/>
<text text-anchor="middle" x="1485" y="-1793.5" font-family="Helvetica,sans-Serif" font-size="10.00"> </text>
</a>
</g>
</g>
<!-- Node12&#45;&gt;Node11 -->
<g id="edge12" class="edge">
<title>Node12&#45;&gt;Node11</title>
<path fill="none" stroke="orange" d="M1452.8,-1778.71C1440.78,-1765.55 1427.34,-1750.81 1416.06,-1738.46"/>
<polygon fill="orange" stroke="orange" points="1449.73,-1780.64 1459.06,-1785.67 1454.9,-1775.92 1449.73,-1780.64"/>
<text text-anchor="middle" x="1489" y="-1760" font-family="Helvetica,sans-Serif" font-size="10.00"> &lt; objects::Obstacle &gt;</text>
</g>
<!-- Node19 -->
<g id="node19" class="node">
<title>Node19</title>
<g id="a_node19"><a xlink:title=" ">
<polygon fill="white" stroke="#666666" points="1521.5,-1605.5 1521.5,-1662.5 1622.5,-1662.5 1622.5,-1605.5 1521.5,-1605.5"/>
<text text-anchor="middle" x="1572" y="-1650.5" font-family="Helvetica,sans-Serif" font-size="10.00">ArrayList&lt; Image &gt;</text>
<polyline fill="none" stroke="#666666" points="1521.5,-1643.5 1622.5,-1643.5"/>
<text text-anchor="middle" x="1572" y="-1631.5" font-family="Helvetica,sans-Serif" font-size="10.00"> </text>
<polyline fill="none" stroke="#666666" points="1521.5,-1624.5 1622.5,-1624.5"/>
<text text-anchor="middle" x="1572" y="-1612.5" font-family="Helvetica,sans-Serif" font-size="10.00"> </text>
</a>
</g>
</g>
<!-- Node12&#45;&gt;Node19 -->
<g id="edge24" class="edge">
<title>Node12&#45;&gt;Node19</title>
<path fill="none" stroke="orange" d="M1521.1,-1790.26C1528.63,-1783.83 1535.83,-1776.32 1541,-1768 1561.27,-1735.38 1568.3,-1690.78 1570.73,-1662.43"/>
<polygon fill="orange" stroke="orange" points="1519.54,-1787.83 1513.9,-1796.8 1523.9,-1793.3 1519.54,-1787.83"/>
<text text-anchor="middle" x="1570.5" y="-1760" font-family="Helvetica,sans-Serif" font-size="10.00"> &lt; Image &gt;</text>
</g>
<!-- Node13 -->
<g id="node13" class="node">
<title>Node13</title>
<g id="a_node13"><a xlink:href="classlogic_1_1ObstacleFactory.html" target="_top" xlink:title=" ">
<polygon fill="white" stroke="#666666" points="528,-469 528,-636 828,-636 828,-469 528,-469"/>
<text text-anchor="middle" x="678" y="-624" font-family="Helvetica,sans-Serif" font-size="10.00">logic.ObstacleFactory</text>
<polyline fill="none" stroke="#666666" points="528,-617 828,-617"/>
<text text-anchor="start" x="536" y="-605" font-family="Helvetica,sans-Serif" font-size="10.00">+ static final int buildingScreens</text>
<text text-anchor="start" x="536" y="-594" font-family="Helvetica,sans-Serif" font-size="10.00">+ static final int bufferScreens</text>
<text text-anchor="start" x="536" y="-583" font-family="Helvetica,sans-Serif" font-size="10.00">&#45; final double logicalLaneLength</text>
<text text-anchor="start" x="536" y="-572" font-family="Helvetica,sans-Serif" font-size="10.00">&#45; static final double minSpace</text>
<text text-anchor="start" x="536" y="-561" font-family="Helvetica,sans-Serif" font-size="10.00">&#45; static final double space</text>
<text text-anchor="start" x="536" y="-550" font-family="Helvetica,sans-Serif" font-size="10.00">&#45; static final double testObjectStep</text>
<text text-anchor="start" x="536" y="-539" font-family="Helvetica,sans-Serif" font-size="10.00">&#45; static final double testObjectLength</text>
<polyline fill="none" stroke="#666666" points="528,-532 828,-532"/>
<text text-anchor="start" x="536" y="-520" font-family="Helvetica,sans-Serif" font-size="10.00">+ ObstacleFactory()</text>
<text text-anchor="start" x="536" y="-509" font-family="Helvetica,sans-Serif" font-size="10.00">+ Block generateBlock()</text>
<text text-anchor="start" x="536" y="-498" font-family="Helvetica,sans-Serif" font-size="10.00">+ ArrayList&lt; Obstacle &gt; generatePath()</text>
<text text-anchor="start" x="536" y="-487" font-family="Helvetica,sans-Serif" font-size="10.00">+ boolean winningPath(ArrayList&lt; ArrayList&lt; Obstacle &gt; &gt; lanes)</text>
<text text-anchor="start" x="536" y="-476" font-family="Helvetica,sans-Serif" font-size="10.00">+ Obstacle generateObstacle()</text>
</a>
</g>
</g>
<!-- Node13&#45;&gt;Node4 -->
<g id="edge14" class="edge">
<title>Node13&#45;&gt;Node4</title>
<path fill="none" stroke="#404040" d="M658.39,-469.32C645.84,-416.72 629.61,-348.68 616.99,-295.78"/>
<polygon fill="none" stroke="#404040" points="617.02,-295.91 611.74,-291 614.23,-284.24 619.52,-289.15 617.02,-295.91"/>
<text text-anchor="middle" x="658" y="-305" font-family="Helvetica,sans-Serif" font-size="10.00"> &#45;obstacleFactory</text>
</g>
<!-- Node14 -->
<g id="node14" class="node">
<title>Node14</title>
<g id="a_node14"><a xlink:title=" ">
<polygon fill="white" stroke="#666666" points="388,-524 388,-581 510,-581 510,-524 388,-524"/>
<text text-anchor="middle" x="449" y="-569" font-family="Helvetica,sans-Serif" font-size="10.00">Deque&lt; objects.Block &gt;</text>
<polyline fill="none" stroke="#666666" points="388,-562 510,-562"/>
<text text-anchor="middle" x="449" y="-550" font-family="Helvetica,sans-Serif" font-size="10.00"> </text>
<polyline fill="none" stroke="#666666" points="388,-543 510,-543"/>
<text text-anchor="middle" x="449" y="-531" font-family="Helvetica,sans-Serif" font-size="10.00"> </text>
</a>
</g>
</g>
<!-- Node14&#45;&gt;Node4 -->
<g id="edge15" class="edge">
<title>Node14&#45;&gt;Node4</title>
<path fill="none" stroke="#404040" d="M454.23,-524.31C464.29,-476.55 489.47,-375.66 535,-302 536.6,-299.41 538.24,-296.8 539.92,-294.17"/>
<polygon fill="none" stroke="#404040" points="539.94,-294.13 539.83,-286.92 546.45,-284.05 546.55,-291.27 539.94,-294.13"/>
<text text-anchor="middle" x="574.5" y="-305" font-family="Helvetica,sans-Serif" font-size="10.00"> &#45;obstaclesBlocks</text>
</g>
<!-- Node15 -->
<g id="node15" class="node">
<title>Node15</title>
<g id="a_node15"><a xlink:title=" ">
<polygon fill="white" stroke="#666666" points="426.5,-984 426.5,-1041 471.5,-1041 471.5,-984 426.5,-984"/>
<text text-anchor="middle" x="449" y="-1029" font-family="Helvetica,sans-Serif" font-size="10.00">Deque</text>
<polyline fill="none" stroke="#666666" points="426.5,-1022 471.5,-1022"/>
<text text-anchor="middle" x="449" y="-1010" font-family="Helvetica,sans-Serif" font-size="10.00"> </text>
<polyline fill="none" stroke="#666666" points="426.5,-1003 471.5,-1003"/>
<text text-anchor="middle" x="449" y="-991" font-family="Helvetica,sans-Serif" font-size="10.00"> </text>
</a>
</g>
</g>
<!-- Node15&#45;&gt;Node14 -->
<g id="edge16" class="edge">
<title>Node15&#45;&gt;Node14</title>
<path fill="none" stroke="orange" d="M449,-973.43C449,-883.41 449,-659.13 449,-580.92"/>
<polygon fill="orange" stroke="orange" points="445.5,-973.22 449,-983.22 452.5,-973.22 445.5,-973.22"/>
<text text-anchor="middle" x="491" y="-857" font-family="Helvetica,sans-Serif" font-size="10.00"> &lt; objects::Block &gt;</text>
</g>
<!-- Node16&#45;&gt;Node4 -->
<g id="edge17" class="edge">
<title>Node16&#45;&gt;Node4</title>
<path fill="none" stroke="#404040" d="M1333.59,-372.44C1319.15,-356.46 1302.97,-342.15 1285,-331 1192.2,-273.43 1149.81,-311.35 1041,-302 969.64,-295.87 792.37,-306.86 705.6,-284.03"/>
<polygon fill="none" stroke="#404040" points="705.59,-284.03 698.69,-286.14 694.09,-280.58 700.99,-278.47 705.59,-284.03"/>
<text text-anchor="middle" x="1264.5" y="-305" font-family="Helvetica,sans-Serif" font-size="10.00"> &#45;player</text>
</g>
<!-- Node17&#45;&gt;Node16 -->
<g id="edge18" class="edge">
<title>Node17&#45;&gt;Node16</title>
<path fill="none" stroke="#63b8ff" d="M1225.95,-936.2C1255.17,-881.13 1296.08,-804.02 1333.53,-733.44"/>
<polygon fill="none" stroke="#63b8ff" points="1222.41,-934.41 1220.82,-944.88 1228.59,-937.69 1222.41,-934.41"/>
</g>
<!-- Node21 -->
<g id="node21" class="node">
<title>Node21</title>
<g id="a_node21"><a xlink:href="classobjects_1_1Obstacle.html" target="_top" xlink:title=" ">
<polygon fill="white" stroke="#666666" points="1030,-507.5 1030,-597.5 1276,-597.5 1276,-507.5 1030,-507.5"/>
<text text-anchor="middle" x="1153" y="-585.5" font-family="Helvetica,sans-Serif" font-size="10.00">objects.Obstacle</text>
<polyline fill="none" stroke="#666666" points="1030,-578.5 1276,-578.5"/>
<text text-anchor="start" x="1038" y="-566.5" font-family="Helvetica,sans-Serif" font-size="10.00">+ static final double obestacleWidth</text>
<polyline fill="none" stroke="#666666" points="1030,-559.5 1276,-559.5"/>
<text text-anchor="start" x="1038" y="-547.5" font-family="Helvetica,sans-Serif" font-size="10.00">+ Obstacle(Block.Lane lane, double y, double length)</text>
<text text-anchor="start" x="1038" y="-536.5" font-family="Helvetica,sans-Serif" font-size="10.00">+ void addY(double diff)</text>
<text text-anchor="start" x="1038" y="-525.5" font-family="Helvetica,sans-Serif" font-size="10.00">+ boolean isOffTheScreen()</text>
<text text-anchor="start" x="1038" y="-514.5" font-family="Helvetica,sans-Serif" font-size="10.00">+ void Draw()</text>
</a>
</g>
</g>
<!-- Node17&#45;&gt;Node21 -->
<g id="edge28" class="edge">
<title>Node17&#45;&gt;Node21</title>
<path fill="none" stroke="#63b8ff" d="M1180.49,-935.01C1173.52,-838.32 1161.76,-675.13 1156.16,-597.32"/>
<polygon fill="none" stroke="#63b8ff" points="1177.06,-935.16 1181.27,-944.88 1184.04,-934.65 1177.06,-935.16"/>
</g>
<!-- Node18 -->
<g id="node18" class="node">
<title>Node18</title>
<g id="a_node18"><a xlink:href="enumobjects_1_1Player_1_1Level.html" target="_top" xlink:title=" ">
<polygon fill="white" stroke="#666666" points="1376.5,-978.5 1376.5,-1046.5 1481.5,-1046.5 1481.5,-978.5 1376.5,-978.5"/>
<text text-anchor="middle" x="1429" y="-1034.5" font-family="Helvetica,sans-Serif" font-size="10.00">objects.Player.Level</text>
<polyline fill="none" stroke="#666666" points="1376.5,-1027.5 1481.5,-1027.5"/>
<text text-anchor="start" x="1384.5" y="-1015.5" font-family="Helvetica,sans-Serif" font-size="10.00">+ LOW</text>
<text text-anchor="start" x="1384.5" y="-1004.5" font-family="Helvetica,sans-Serif" font-size="10.00">+ HIGH</text>
<polyline fill="none" stroke="#666666" points="1376.5,-997.5 1481.5,-997.5"/>
<text text-anchor="middle" x="1429" y="-985.5" font-family="Helvetica,sans-Serif" font-size="10.00"> </text>
</a>
</g>
</g>
<!-- Node18&#45;&gt;Node16 -->
<g id="edge22" class="edge">
<title>Node18&#45;&gt;Node16</title>
<path fill="none" stroke="#404040" d="M1429,-978.56C1429,-936.98 1429,-861.7 1429,-785.91"/>
<polygon fill="none" stroke="#404040" points="1429,-786.16 1425,-780.16 1429,-774.16 1433,-780.16 1429,-786.16"/>
<text text-anchor="middle" x="1442.5" y="-857" font-family="Helvetica,sans-Serif" font-size="10.00"> &#45;level</text>
</g>
<!-- Node19&#45;&gt;Node16 -->
<g id="edge23" class="edge">
<title>Node19&#45;&gt;Node16</title>
<path fill="none" stroke="#404040" d="M1573.89,-1605.59C1576.53,-1564.82 1581,-1485.78 1581,-1418.5 1581,-1418.5 1581,-1418.5 1581,-1011.5 1581,-927.2 1557.52,-838.42 1529.02,-761.7"/>
<polygon fill="none" stroke="#404040" points="1528.96,-761.56 1523.1,-757.36 1524.72,-750.33 1530.58,-754.53 1528.96,-761.56"/>
<text text-anchor="middle" x="1613" y="-1263.5" font-family="Helvetica,sans-Serif" font-size="10.00"> &#45;deathFrames</text>
<text text-anchor="middle" x="1613" y="-1252.5" font-family="Helvetica,sans-Serif" font-size="10.00">&#45;runFrames</text>
</g>
<!-- Node20&#45;&gt;Node4 -->
<g id="edge25" class="edge">
<title>Node20&#45;&gt;Node4</title>
<path fill="none" stroke="#404040" d="M826.43,-793.84C830.61,-787.52 834.23,-780.88 837,-774 873.71,-682.66 893.94,-411.31 837,-331 802.71,-282.63 764.32,-308.74 705.14,-284.35"/>
<polygon fill="none" stroke="#404040" points="705.15,-284.35 698.03,-285.48 694.25,-279.34 701.37,-278.21 705.15,-284.35"/>
<text text-anchor="middle" x="887.5" y="-550" font-family="Helvetica,sans-Serif" font-size="10.00"> &#45;score</text>
</g>
<!-- Node21&#45;&gt;Node4 -->
<g id="edge27" class="edge">
<title>Node21&#45;&gt;Node4</title>
<path fill="none" stroke="#404040" d="M1131.66,-507.97C1100.08,-449.04 1034.82,-346.18 945,-302 899.63,-279.69 771.39,-298.99 705.55,-283.76"/>
<polygon fill="none" stroke="#404040" points="705.66,-283.79 698.79,-285.98 694.13,-280.48 701,-278.29 705.66,-283.79"/>
<text text-anchor="middle" x="998.5" y="-305" font-family="Helvetica,sans-Serif" font-size="10.00"> &#45;lastTouchedObs</text>
</g>
<!-- Node22 -->
<g id="node22" class="node">
<title>Node22</title>
<g id="a_node22"><a xlink:title=" ">
<polygon fill="white" stroke="#666666" points="712,-182.5 712,-239.5 748,-239.5 748,-182.5 712,-182.5"/>
<text text-anchor="middle" x="730" y="-227.5" font-family="Helvetica,sans-Serif" font-size="10.00">Font</text>
<polyline fill="none" stroke="#666666" points="712,-220.5 748,-220.5"/>
<text text-anchor="middle" x="730" y="-208.5" font-family="Helvetica,sans-Serif" font-size="10.00"> </text>
<polyline fill="none" stroke="#666666" points="712,-201.5 748,-201.5"/>
<text text-anchor="middle" x="730" y="-189.5" font-family="Helvetica,sans-Serif" font-size="10.00"> </text>
</a>
</g>
</g>
<!-- Node22&#45;&gt;Node1 -->
<g id="edge29" class="edge">
<title>Node22&#45;&gt;Node1</title>
<path fill="none" stroke="#404040" d="M726.29,-182.72C722.8,-167.44 716.05,-149.24 703,-138 652.62,-94.58 470.98,-67.75 361.18,-55.13"/>
<polygon fill="none" stroke="#404040" points="361.3,-55.15 354.89,-58.45 349.38,-53.8 355.79,-50.5 361.3,-55.15"/>
<text text-anchor="middle" x="690" y="-112" font-family="Helvetica,sans-Serif" font-size="10.00"> &#45;gameFont</text>
</g>
</g>
</svg>
