<?xml version="1.0" encoding="UTF-8" standalone="no"?>
<!DOCTYPE svg PUBLIC "-//W3C//DTD SVG 1.1//EN"
 "http://www.w3.org/Graphics/SVG/1.1/DTD/svg11.dtd">
<!-- Generated by graphviz version 3.0.0 (20221109.1736)
 -->
<!-- Title: objects.Ground Pages: 1 -->
<svg width="400pt" height="850pt"
 viewBox="0.00 0.00 399.50 850.00" xmlns="http://www.w3.org/2000/svg" xmlns:xlink="http://www.w3.org/1999/xlink">
<g id="graph0" class="graph" transform="scale(1 1) rotate(0) translate(4 846)">
<title>objects.Ground</title>
<polygon fill="white" stroke="transparent" points="-4,4 -4,-846 395.5,-846 395.5,4 -4,4"/>
<!-- Node1 -->
<g id="node1" class="node">
<title>Node1</title>
<g id="a_node1"><a xlink:title=" ">
<polygon fill="#bfbfbf" stroke="black" points="154,-0.5 154,-90.5 373,-90.5 373,-0.5 154,-0.5"/>
<text text-anchor="middle" x="263.5" y="-78.5" font-family="Helvetica,sans-Serif" font-size="10.00">objects.Ground</text>
<polyline fill="none" stroke="black" points="154,-71.5 373,-71.5 "/>
<text text-anchor="start" x="162" y="-59.5" font-family="Helvetica,sans-Serif" font-size="10.00">+ static final double laneImageWidth</text>
<text text-anchor="start" x="162" y="-48.5" font-family="Helvetica,sans-Serif" font-size="10.00">&#45; double yDisplacement</text>
<polyline fill="none" stroke="black" points="154,-41.5 373,-41.5 "/>
<text text-anchor="start" x="162" y="-29.5" font-family="Helvetica,sans-Serif" font-size="10.00">+ Ground(double x, double width, double length)</text>
<text text-anchor="start" x="162" y="-18.5" font-family="Helvetica,sans-Serif" font-size="10.00">+ void frameUpdate()</text>
<text text-anchor="start" x="162" y="-7.5" font-family="Helvetica,sans-Serif" font-size="10.00">+ void Draw()</text>
</a>
</g>
</g>
<!-- Node2 -->
<g id="node2" class="node">
<title>Node2</title>
<g id="a_node2"><a xlink:href="classobjects_1_1GameObject.html" target="_top" xlink:title=" ">
<polygon fill="white" stroke="black" points="8,-128.5 8,-416.5 325,-416.5 325,-128.5 8,-128.5"/>
<text text-anchor="middle" x="166.5" y="-404.5" font-family="Helvetica,sans-Serif" font-size="10.00">objects.GameObject</text>
<polyline fill="none" stroke="black" points="8,-397.5 325,-397.5 "/>
<text text-anchor="start" x="16" y="-385.5" font-family="Helvetica,sans-Serif" font-size="10.00"># double x</text>
<text text-anchor="start" x="16" y="-374.5" font-family="Helvetica,sans-Serif" font-size="10.00"># double y</text>
<text text-anchor="start" x="16" y="-363.5" font-family="Helvetica,sans-Serif" font-size="10.00"># double width</text>
<text text-anchor="start" x="16" y="-352.5" font-family="Helvetica,sans-Serif" font-size="10.00"># double length</text>
<polyline fill="none" stroke="black" points="8,-345.5 325,-345.5 "/>
<text text-anchor="start" x="16" y="-333.5" font-family="Helvetica,sans-Serif" font-size="10.00">+ GameObject(double x, double y, double width, double length)</text>
<text text-anchor="start" x="16" y="-322.5" font-family="Helvetica,sans-Serif" font-size="10.00">+ GameObject(Block.Lane lane, double y, double width, double length)</text>
<text text-anchor="start" x="16" y="-311.5" font-family="Helvetica,sans-Serif" font-size="10.00">+ GameObject(Block.Lane lane, double y, double cubeLength)</text>
<text text-anchor="start" x="16" y="-300.5" font-family="Helvetica,sans-Serif" font-size="10.00">+ GameObject(double x, double y, double cubeLength)</text>
<text text-anchor="start" x="16" y="-289.5" font-family="Helvetica,sans-Serif" font-size="10.00">+ double getWidth()</text>
<text text-anchor="start" x="16" y="-278.5" font-family="Helvetica,sans-Serif" font-size="10.00">+ double getLength()</text>
<text text-anchor="start" x="16" y="-267.5" font-family="Helvetica,sans-Serif" font-size="10.00">+ void setColor(Color color)</text>
<text text-anchor="start" x="16" y="-256.5" font-family="Helvetica,sans-Serif" font-size="10.00">+ void setLane(Block.Lane path)</text>
<text text-anchor="start" x="16" y="-245.5" font-family="Helvetica,sans-Serif" font-size="10.00">+ void setImage(Image image)</text>
<text text-anchor="start" x="16" y="-234.5" font-family="Helvetica,sans-Serif" font-size="10.00">+ Block.Lane getLane()</text>
<text text-anchor="start" x="16" y="-223.5" font-family="Helvetica,sans-Serif" font-size="10.00">+ Image getImage()</text>
<text text-anchor="start" x="16" y="-212.5" font-family="Helvetica,sans-Serif" font-size="10.00">+ void setX(double x)</text>
<text text-anchor="start" x="16" y="-201.5" font-family="Helvetica,sans-Serif" font-size="10.00">+ void setY(double y)</text>
<text text-anchor="start" x="16" y="-190.5" font-family="Helvetica,sans-Serif" font-size="10.00">+ double getY()</text>
<text text-anchor="start" x="16" y="-179.5" font-family="Helvetica,sans-Serif" font-size="10.00">+ double getX()</text>
<text text-anchor="start" x="16" y="-168.5" font-family="Helvetica,sans-Serif" font-size="10.00">+ void Draw()</text>
<text text-anchor="start" x="16" y="-157.5" font-family="Helvetica,sans-Serif" font-size="10.00">+ boolean interesects(double x, double y)</text>
<text text-anchor="start" x="16" y="-146.5" font-family="Helvetica,sans-Serif" font-size="10.00">+ boolean interesects(Block.Lane lane, double y)</text>
<text text-anchor="start" x="16" y="-135.5" font-family="Helvetica,sans-Serif" font-size="10.00">+ boolean touches(GameObject other)</text>
</a>
</g>
</g>
<!-- Node2&#45;&gt;Node1 -->
<g id="edge1" class="edge">
<title>Node2&#45;&gt;Node1</title>
<path fill="none" stroke="midnightblue" d="M232.25,-118.98C236.6,-108.89 240.74,-99.3 244.49,-90.59"/>
<polygon fill="none" stroke="midnightblue" points="228.95,-117.8 228.21,-128.37 235.38,-120.57 228.95,-117.8"/>
</g>
<!-- Node3 -->
<g id="node3" class="node">
<title>Node3</title>
<g id="a_node3"><a xlink:title=" ">
<polygon fill="white" stroke="black" points="0,-508.5 0,-565.5 39,-565.5 39,-508.5 0,-508.5"/>
<text text-anchor="middle" x="19.5" y="-553.5" font-family="Helvetica,sans-Serif" font-size="10.00">Color</text>
<polyline fill="none" stroke="black" points="0,-546.5 39,-546.5 "/>
<text text-anchor="middle" x="19.5" y="-534.5" font-family="Helvetica,sans-Serif" font-size="10.00"> </text>
<polyline fill="none" stroke="black" points="0,-527.5 39,-527.5 "/>
<text text-anchor="middle" x="19.5" y="-515.5" font-family="Helvetica,sans-Serif" font-size="10.00"> </text>
</a>
</g>
</g>
<!-- Node3&#45;&gt;Node2 -->
<g id="edge2" class="edge">
<title>Node3&#45;&gt;Node2</title>
<path fill="none" stroke="#404040" d="M29.43,-508.16C34.59,-494.59 41.32,-478.19 48.5,-464 54.62,-451.92 61.25,-439.6 68.15,-427.34"/>
<polygon fill="none" stroke="#404040" points="68.34,-427.01 67.83,-419.82 74.27,-416.58 74.78,-423.77 68.34,-427.01"/>
<text text-anchor="middle" x="78" y="-438" font-family="Helvetica,sans-Serif" font-size="10.00"> #color</text>
</g>
<!-- Node4 -->
<g id="node4" class="node">
<title>Node4</title>
<g id="a_node4"><a xlink:href="classobjects_1_1obstacles_1_1Block.html" target="_top" xlink:title=" ">
<polygon fill="white" stroke="black" points="57.5,-464.5 57.5,-609.5 311.5,-609.5 311.5,-464.5 57.5,-464.5"/>
<text text-anchor="middle" x="184.5" y="-597.5" font-family="Helvetica,sans-Serif" font-size="10.00">objects.obstacles.Block</text>
<polyline fill="none" stroke="black" points="57.5,-590.5 311.5,-590.5 "/>
<text text-anchor="start" x="65.5" y="-578.5" font-family="Helvetica,sans-Serif" font-size="10.00">+ static final double speed</text>
<text text-anchor="start" x="65.5" y="-567.5" font-family="Helvetica,sans-Serif" font-size="10.00">&#45; double currentY</text>
<polyline fill="none" stroke="black" points="57.5,-560.5 311.5,-560.5 "/>
<text text-anchor="start" x="65.5" y="-548.5" font-family="Helvetica,sans-Serif" font-size="10.00">+ Block(ArrayList&lt; Obstacle &gt; left, ArrayList&lt; Obstacle</text>
<text text-anchor="start" x="65.5" y="-537.5" font-family="Helvetica,sans-Serif" font-size="10.00"> &gt; center, ArrayList&lt; Obstacle &gt; right)</text>
<text text-anchor="start" x="65.5" y="-526.5" font-family="Helvetica,sans-Serif" font-size="10.00">+ double getCurrentY()</text>
<text text-anchor="start" x="65.5" y="-515.5" font-family="Helvetica,sans-Serif" font-size="10.00">+ ArrayList&lt; Obstacle &gt; getLane(Lane lane)</text>
<text text-anchor="start" x="65.5" y="-504.5" font-family="Helvetica,sans-Serif" font-size="10.00">+ ArrayList&lt; Obstacle &gt; getLeftLane()</text>
<text text-anchor="start" x="65.5" y="-493.5" font-family="Helvetica,sans-Serif" font-size="10.00">+ ArrayList&lt; Obstacle &gt; getCenterLane()</text>
<text text-anchor="start" x="65.5" y="-482.5" font-family="Helvetica,sans-Serif" font-size="10.00">+ ArrayList&lt; Obstacle &gt; getRightLane()</text>
<text text-anchor="start" x="65.5" y="-471.5" font-family="Helvetica,sans-Serif" font-size="10.00">+ void frameUpdate()</text>
</a>
</g>
</g>
<!-- Node4&#45;&gt;Node2 -->
<g id="edge3" class="edge">
<title>Node4&#45;&gt;Node2</title>
<path fill="none" stroke="#404040" d="M179.58,-464.27C178.81,-453.06 177.99,-441.11 177.15,-428.87"/>
<polygon fill="none" stroke="#404040" points="177.13,-428.52 172.73,-422.81 176.31,-416.55 180.71,-422.26 177.13,-428.52"/>
<text text-anchor="middle" x="191.5" y="-438" font-family="Helvetica,sans-Serif" font-size="10.00"> #lane</text>
</g>
<!-- Node5 -->
<g id="node5" class="node">
<title>Node5</title>
<g id="a_node5"><a xlink:title=" ">
<polygon fill="white" stroke="black" points="90,-679.5 90,-736.5 279,-736.5 279,-679.5 90,-679.5"/>
<text text-anchor="middle" x="184.5" y="-724.5" font-family="Helvetica,sans-Serif" font-size="10.00">ArrayList&lt; objects.obstacles.Obstacle &gt;</text>
<polyline fill="none" stroke="black" points="90,-717.5 279,-717.5 "/>
<text text-anchor="middle" x="184.5" y="-705.5" font-family="Helvetica,sans-Serif" font-size="10.00"> </text>
<polyline fill="none" stroke="black" points="90,-698.5 279,-698.5 "/>
<text text-anchor="middle" x="184.5" y="-686.5" font-family="Helvetica,sans-Serif" font-size="10.00"> </text>
</a>
</g>
</g>
<!-- Node5&#45;&gt;Node4 -->
<g id="edge4" class="edge">
<title>Node5&#45;&gt;Node4</title>
<path fill="none" stroke="#404040" d="M184.5,-679.47C184.5,-663.6 184.5,-642.71 184.5,-621.87"/>
<polygon fill="none" stroke="#404040" points="184.5,-621.64 180.5,-615.64 184.5,-609.64 188.5,-615.64 184.5,-621.64"/>
<text text-anchor="middle" x="201" y="-653" font-family="Helvetica,sans-Serif" font-size="10.00"> &#45;center</text>
<text text-anchor="middle" x="201" y="-642" font-family="Helvetica,sans-Serif" font-size="10.00">&#45;left</text>
<text text-anchor="middle" x="201" y="-631" font-family="Helvetica,sans-Serif" font-size="10.00">&#45;right</text>
</g>
<!-- Node6 -->
<g id="node6" class="node">
<title>Node6</title>
<g id="a_node6"><a xlink:title=" ">
<polygon fill="white" stroke="black" points="156.5,-784.5 156.5,-841.5 212.5,-841.5 212.5,-784.5 156.5,-784.5"/>
<text text-anchor="middle" x="184.5" y="-829.5" font-family="Helvetica,sans-Serif" font-size="10.00">ArrayList</text>
<polyline fill="none" stroke="black" points="156.5,-822.5 212.5,-822.5 "/>
<text text-anchor="middle" x="184.5" y="-810.5" font-family="Helvetica,sans-Serif" font-size="10.00"> </text>
<polyline fill="none" stroke="black" points="156.5,-803.5 212.5,-803.5 "/>
<text text-anchor="middle" x="184.5" y="-791.5" font-family="Helvetica,sans-Serif" font-size="10.00"> </text>
</a>
</g>
</g>
<!-- Node6&#45;&gt;Node5 -->
<g id="edge5" class="edge">
<title>Node6&#45;&gt;Node5</title>
<path fill="none" stroke="orange" d="M184.5,-774.29C184.5,-761.84 184.5,-748.23 184.5,-736.68"/>
<polygon fill="orange" stroke="orange" points="181,-774.4 184.5,-784.4 188,-774.4 181,-774.4"/>
<text text-anchor="middle" x="255" y="-758" font-family="Helvetica,sans-Serif" font-size="10.00"> &lt; objects::obstacles::Obstacle &gt;</text>
</g>
<!-- Node7 -->
<g id="node7" class="node">
<title>Node7</title>
<g id="a_node7"><a xlink:title=" ">
<polygon fill="white" stroke="black" points="336.5,-508.5 336.5,-565.5 380.5,-565.5 380.5,-508.5 336.5,-508.5"/>
<text text-anchor="middle" x="358.5" y="-553.5" font-family="Helvetica,sans-Serif" font-size="10.00">Image</text>
<polyline fill="none" stroke="black" points="336.5,-546.5 380.5,-546.5 "/>
<text text-anchor="middle" x="358.5" y="-534.5" font-family="Helvetica,sans-Serif" font-size="10.00"> </text>
<polyline fill="none" stroke="black" points="336.5,-527.5 380.5,-527.5 "/>
<text text-anchor="middle" x="358.5" y="-515.5" font-family="Helvetica,sans-Serif" font-size="10.00"> </text>
</a>
</g>
</g>
<!-- Node7&#45;&gt;Node1 -->
<g id="edge7" class="edge">
<title>Node7&#45;&gt;Node1</title>
<path fill="none" stroke="#404040" d="M362.77,-508.43C372.06,-440.64 389.09,-261.68 334.5,-128 330.53,-118.28 324.91,-108.92 318.54,-100.22"/>
<polygon fill="none" stroke="#404040" points="318.48,-100.14 311.63,-97.89 311.08,-90.7 317.93,-92.95 318.48,-100.14"/>
<text text-anchor="middle" x="382" y="-270" font-family="Helvetica,sans-Serif" font-size="10.00"> &#45;tile</text>
</g>
<!-- Node7&#45;&gt;Node2 -->
<g id="edge6" class="edge">
<title>Node7&#45;&gt;Node2</title>
<path fill="none" stroke="#404040" d="M345.45,-508.28C338.62,-494.59 329.76,-478.04 320.5,-464 312.33,-451.6 303.52,-439.04 294.4,-426.59"/>
<polygon fill="none" stroke="#404040" points="294.17,-426.28 287.39,-423.84 287.03,-416.64 293.82,-419.08 294.17,-426.28"/>
<text text-anchor="middle" x="321.5" y="-438" font-family="Helvetica,sans-Serif" font-size="10.00"> &#45;image</text>
</g>
</g>
</svg>
