<?xml version="1.0" encoding="UTF-8" standalone="no"?>
<!DOCTYPE svg PUBLIC "-//W3C//DTD SVG 1.1//EN"
 "http://www.w3.org/Graphics/SVG/1.1/DTD/svg11.dtd">
<!-- Generated by graphviz version 3.0.0 (20221109.1736)
 -->
<!-- Title: objects.Player Pages: 1 -->
<svg width="593pt" height="1419pt"
 viewBox="0.00 0.00 593.40 1419.00" xmlns="http://www.w3.org/2000/svg" xmlns:xlink="http://www.w3.org/1999/xlink">
<g id="graph0" class="graph" transform="scale(1 1) rotate(0) translate(4 1415)">
<title>objects.Player</title>
<polygon fill="white" stroke="transparent" points="-4,4 -4,-1415 589.4,-1415 589.4,4 -4,4"/>
<!-- Node1 -->
<g id="node1" class="node">
<title>Node1</title>
<g id="a_node1"><a xlink:title=" ">
<polygon fill="#bfbfbf" stroke="black" points="309.4,-0.5 309.4,-442.5 497.4,-442.5 497.4,-0.5 309.4,-0.5"/>
<text text-anchor="middle" x="403.4" y="-430.5" font-family="Helvetica,sans-Serif" font-size="10.00">objects.Player</text>
<polyline fill="none" stroke="black" points="309.4,-423.5 497.4,-423.5 "/>
<text text-anchor="start" x="317.4" y="-411.5" font-family="Helvetica,sans-Serif" font-size="10.00">+ static final double playerLength</text>
<text text-anchor="start" x="317.4" y="-400.5" font-family="Helvetica,sans-Serif" font-size="10.00">+ static final int maxJumpFrames</text>
<text text-anchor="start" x="317.4" y="-389.5" font-family="Helvetica,sans-Serif" font-size="10.00">+ static final int maxJumpLength</text>
<text text-anchor="start" x="317.4" y="-378.5" font-family="Helvetica,sans-Serif" font-size="10.00">+ static final int maxRampFrames</text>
<text text-anchor="start" x="317.4" y="-367.5" font-family="Helvetica,sans-Serif" font-size="10.00">+ static final double jumpFormulaATerm</text>
<text text-anchor="start" x="317.4" y="-356.5" font-family="Helvetica,sans-Serif" font-size="10.00">+ static final double jumpFormulaBTerm</text>
<text text-anchor="start" x="317.4" y="-345.5" font-family="Helvetica,sans-Serif" font-size="10.00">&#45; boolean jumping</text>
<text text-anchor="start" x="317.4" y="-334.5" font-family="Helvetica,sans-Serif" font-size="10.00">&#45; boolean isClimbingRamp</text>
<text text-anchor="start" x="317.4" y="-323.5" font-family="Helvetica,sans-Serif" font-size="10.00">&#45; Boolean alive</text>
<text text-anchor="start" x="317.4" y="-312.5" font-family="Helvetica,sans-Serif" font-size="10.00">&#45; Boolean isDying</text>
<text text-anchor="start" x="317.4" y="-301.5" font-family="Helvetica,sans-Serif" font-size="10.00">&#45; int currentJumpFrame</text>
<text text-anchor="start" x="317.4" y="-290.5" font-family="Helvetica,sans-Serif" font-size="10.00">&#45; int currentRunningFrame</text>
<text text-anchor="start" x="317.4" y="-279.5" font-family="Helvetica,sans-Serif" font-size="10.00">&#45; int currentDeathFrame</text>
<text text-anchor="start" x="317.4" y="-268.5" font-family="Helvetica,sans-Serif" font-size="10.00">&#45; int currentClimbingFrame</text>
<polyline fill="none" stroke="black" points="309.4,-261.5 497.4,-261.5 "/>
<text text-anchor="start" x="317.4" y="-249.5" font-family="Helvetica,sans-Serif" font-size="10.00">+ Player()</text>
<text text-anchor="start" x="317.4" y="-238.5" font-family="Helvetica,sans-Serif" font-size="10.00">+ Level getLevel()</text>
<text text-anchor="start" x="317.4" y="-227.5" font-family="Helvetica,sans-Serif" font-size="10.00">+ void setLevel(Level level)</text>
<text text-anchor="start" x="317.4" y="-216.5" font-family="Helvetica,sans-Serif" font-size="10.00">+ void moveLeft()</text>
<text text-anchor="start" x="317.4" y="-205.5" font-family="Helvetica,sans-Serif" font-size="10.00">+ void moveRight()</text>
<text text-anchor="start" x="317.4" y="-194.5" font-family="Helvetica,sans-Serif" font-size="10.00">+ boolean isJumping()</text>
<text text-anchor="start" x="317.4" y="-183.5" font-family="Helvetica,sans-Serif" font-size="10.00">+ boolean isAlive()</text>
<text text-anchor="start" x="317.4" y="-172.5" font-family="Helvetica,sans-Serif" font-size="10.00">+ boolean isDying()</text>
<text text-anchor="start" x="317.4" y="-161.5" font-family="Helvetica,sans-Serif" font-size="10.00">+ void die()</text>
<text text-anchor="start" x="317.4" y="-150.5" font-family="Helvetica,sans-Serif" font-size="10.00">+ void rampClimb()</text>
<text text-anchor="start" x="317.4" y="-139.5" font-family="Helvetica,sans-Serif" font-size="10.00">+ void jump()</text>
<text text-anchor="start" x="317.4" y="-128.5" font-family="Helvetica,sans-Serif" font-size="10.00">+ void setIsDying()</text>
<text text-anchor="start" x="317.4" y="-117.5" font-family="Helvetica,sans-Serif" font-size="10.00">+ void jumpUpdate()</text>
<text text-anchor="start" x="317.4" y="-106.5" font-family="Helvetica,sans-Serif" font-size="10.00">+ void setPlayerLevelLow()</text>
<text text-anchor="start" x="317.4" y="-95.5" font-family="Helvetica,sans-Serif" font-size="10.00">+ void setPlayerLevelHigh()</text>
<text text-anchor="start" x="317.4" y="-84.5" font-family="Helvetica,sans-Serif" font-size="10.00">+ void rampUpdate()</text>
<text text-anchor="start" x="317.4" y="-73.5" font-family="Helvetica,sans-Serif" font-size="10.00">+ void updateDeathAnimation()</text>
<text text-anchor="start" x="317.4" y="-62.5" font-family="Helvetica,sans-Serif" font-size="10.00">+ void playerUpdateAnimation()</text>
<text text-anchor="start" x="317.4" y="-51.5" font-family="Helvetica,sans-Serif" font-size="10.00">&#45; void setAnimations()</text>
<text text-anchor="start" x="317.4" y="-40.5" font-family="Helvetica,sans-Serif" font-size="10.00">&#45; void playerLengthIncrease(double diff)</text>
<text text-anchor="start" x="317.4" y="-29.5" font-family="Helvetica,sans-Serif" font-size="10.00">&#45; void playerLengthDecrease(double diff)</text>
<text text-anchor="start" x="317.4" y="-18.5" font-family="Helvetica,sans-Serif" font-size="10.00">&#45; double jumpCurrentValue(int frame)</text>
<text text-anchor="start" x="317.4" y="-7.5" font-family="Helvetica,sans-Serif" font-size="10.00">&#45; void updateRunningAnimation()</text>
</a>
</g>
</g>
<!-- Node2 -->
<g id="node2" class="node">
<title>Node2</title>
<g id="a_node2"><a xlink:href="classobjects_1_1GameLaneObject.html" target="_top" xlink:title=" ">
<polygon fill="white" stroke="black" points="87.4,-490.5 87.4,-624.5 425.4,-624.5 425.4,-490.5 87.4,-490.5"/>
<text text-anchor="middle" x="256.4" y="-612.5" font-family="Helvetica,sans-Serif" font-size="10.00">objects.GameLaneObject</text>
<polyline fill="none" stroke="black" points="87.4,-605.5 425.4,-605.5 "/>
<text text-anchor="middle" x="256.4" y="-593.5" font-family="Helvetica,sans-Serif" font-size="10.00"> </text>
<polyline fill="none" stroke="black" points="87.4,-586.5 425.4,-586.5 "/>
<text text-anchor="start" x="95.4" y="-574.5" font-family="Helvetica,sans-Serif" font-size="10.00">+ GameLaneObject(Block.Lane lane, double y, double width, double length)</text>
<text text-anchor="start" x="95.4" y="-563.5" font-family="Helvetica,sans-Serif" font-size="10.00">+ GameLaneObject(Block.Lane lane, double y, double cubeLength)</text>
<text text-anchor="start" x="95.4" y="-552.5" font-family="Helvetica,sans-Serif" font-size="10.00">+ void setLane(Block.Lane path)</text>
<text text-anchor="start" x="95.4" y="-541.5" font-family="Helvetica,sans-Serif" font-size="10.00">+ Block.Lane getLane()</text>
<text text-anchor="start" x="95.4" y="-530.5" font-family="Helvetica,sans-Serif" font-size="10.00">+ void Draw()</text>
<text text-anchor="start" x="95.4" y="-519.5" font-family="Helvetica,sans-Serif" font-size="10.00">+ boolean contains(Block.Lane lane, double y)</text>
<text text-anchor="start" x="95.4" y="-508.5" font-family="Helvetica,sans-Serif" font-size="10.00">+ boolean touches(GameLaneObject other)</text>
<text text-anchor="start" x="95.4" y="-497.5" font-family="Helvetica,sans-Serif" font-size="10.00">+ double distance(GameLaneObject other)</text>
</a>
</g>
</g>
<!-- Node2&#45;&gt;Node1 -->
<g id="edge1" class="edge">
<title>Node2&#45;&gt;Node1</title>
<path fill="none" stroke="midnightblue" d="M289.74,-480.76C295.81,-466.95 302.41,-451.95 309.28,-436.36"/>
<polygon fill="none" stroke="midnightblue" points="286.44,-479.55 285.62,-490.11 292.85,-482.37 286.44,-479.55"/>
</g>
<!-- Node3 -->
<g id="node3" class="node">
<title>Node3</title>
<g id="a_node3"><a xlink:href="classobjects_1_1GameObject.html" target="_top" xlink:title=" ">
<polygon fill="white" stroke="black" points="30.9,-672.5 30.9,-960.5 347.9,-960.5 347.9,-672.5 30.9,-672.5"/>
<text text-anchor="middle" x="189.4" y="-948.5" font-family="Helvetica,sans-Serif" font-size="10.00">objects.GameObject</text>
<polyline fill="none" stroke="black" points="30.9,-941.5 347.9,-941.5 "/>
<text text-anchor="start" x="38.9" y="-929.5" font-family="Helvetica,sans-Serif" font-size="10.00"># double x</text>
<text text-anchor="start" x="38.9" y="-918.5" font-family="Helvetica,sans-Serif" font-size="10.00"># double y</text>
<text text-anchor="start" x="38.9" y="-907.5" font-family="Helvetica,sans-Serif" font-size="10.00"># double width</text>
<text text-anchor="start" x="38.9" y="-896.5" font-family="Helvetica,sans-Serif" font-size="10.00"># double length</text>
<polyline fill="none" stroke="black" points="30.9,-889.5 347.9,-889.5 "/>
<text text-anchor="start" x="38.9" y="-877.5" font-family="Helvetica,sans-Serif" font-size="10.00">+ GameObject(double x, double y, double width, double length)</text>
<text text-anchor="start" x="38.9" y="-866.5" font-family="Helvetica,sans-Serif" font-size="10.00">+ GameObject(Block.Lane lane, double y, double width, double length)</text>
<text text-anchor="start" x="38.9" y="-855.5" font-family="Helvetica,sans-Serif" font-size="10.00">+ GameObject(Block.Lane lane, double y, double cubeLength)</text>
<text text-anchor="start" x="38.9" y="-844.5" font-family="Helvetica,sans-Serif" font-size="10.00">+ GameObject(double x, double y, double cubeLength)</text>
<text text-anchor="start" x="38.9" y="-833.5" font-family="Helvetica,sans-Serif" font-size="10.00">+ double getWidth()</text>
<text text-anchor="start" x="38.9" y="-822.5" font-family="Helvetica,sans-Serif" font-size="10.00">+ double getLength()</text>
<text text-anchor="start" x="38.9" y="-811.5" font-family="Helvetica,sans-Serif" font-size="10.00">+ void setColor(Color color)</text>
<text text-anchor="start" x="38.9" y="-800.5" font-family="Helvetica,sans-Serif" font-size="10.00">+ void setLane(Block.Lane path)</text>
<text text-anchor="start" x="38.9" y="-789.5" font-family="Helvetica,sans-Serif" font-size="10.00">+ void setImage(Image image)</text>
<text text-anchor="start" x="38.9" y="-778.5" font-family="Helvetica,sans-Serif" font-size="10.00">+ Block.Lane getLane()</text>
<text text-anchor="start" x="38.9" y="-767.5" font-family="Helvetica,sans-Serif" font-size="10.00">+ Image getImage()</text>
<text text-anchor="start" x="38.9" y="-756.5" font-family="Helvetica,sans-Serif" font-size="10.00">+ void setX(double x)</text>
<text text-anchor="start" x="38.9" y="-745.5" font-family="Helvetica,sans-Serif" font-size="10.00">+ void setY(double y)</text>
<text text-anchor="start" x="38.9" y="-734.5" font-family="Helvetica,sans-Serif" font-size="10.00">+ double getY()</text>
<text text-anchor="start" x="38.9" y="-723.5" font-family="Helvetica,sans-Serif" font-size="10.00">+ double getX()</text>
<text text-anchor="start" x="38.9" y="-712.5" font-family="Helvetica,sans-Serif" font-size="10.00">+ void Draw()</text>
<text text-anchor="start" x="38.9" y="-701.5" font-family="Helvetica,sans-Serif" font-size="10.00">+ boolean interesects(double x, double y)</text>
<text text-anchor="start" x="38.9" y="-690.5" font-family="Helvetica,sans-Serif" font-size="10.00">+ boolean interesects(Block.Lane lane, double y)</text>
<text text-anchor="start" x="38.9" y="-679.5" font-family="Helvetica,sans-Serif" font-size="10.00">+ boolean touches(GameObject other)</text>
</a>
</g>
</g>
<!-- Node3&#45;&gt;Node2 -->
<g id="edge2" class="edge">
<title>Node3&#45;&gt;Node2</title>
<path fill="none" stroke="midnightblue" d="M229.24,-662.67C232.69,-649.45 236.04,-636.59 239.15,-624.67"/>
<polygon fill="none" stroke="midnightblue" points="225.86,-661.79 226.72,-672.35 232.63,-663.55 225.86,-661.79"/>
</g>
<!-- Node4 -->
<g id="node4" class="node">
<title>Node4</title>
<g id="a_node4"><a xlink:title=" ">
<polygon fill="white" stroke="black" points="16.9,-1052.5 16.9,-1109.5 55.9,-1109.5 55.9,-1052.5 16.9,-1052.5"/>
<text text-anchor="middle" x="36.4" y="-1097.5" font-family="Helvetica,sans-Serif" font-size="10.00">Color</text>
<polyline fill="none" stroke="black" points="16.9,-1090.5 55.9,-1090.5 "/>
<text text-anchor="middle" x="36.4" y="-1078.5" font-family="Helvetica,sans-Serif" font-size="10.00"> </text>
<polyline fill="none" stroke="black" points="16.9,-1071.5 55.9,-1071.5 "/>
<text text-anchor="middle" x="36.4" y="-1059.5" font-family="Helvetica,sans-Serif" font-size="10.00"> </text>
</a>
</g>
</g>
<!-- Node4&#45;&gt;Node1 -->
<g id="edge9" class="edge">
<title>Node4&#45;&gt;Node1</title>
<path fill="none" stroke="#404040" d="M29.51,-1052.29C8.76,-962.09 -44.38,-672.26 78.4,-490 135.51,-405.23 227.23,-333.23 298.7,-285.36"/>
<polygon fill="none" stroke="#404040" points="299.08,-285.11 301.88,-278.46 309.09,-278.48 306.3,-285.13 299.08,-285.11"/>
<text text-anchor="middle" x="42.4" y="-646" font-family="Helvetica,sans-Serif" font-size="10.00"> &#45;playerColor</text>
</g>
<!-- Node4&#45;&gt;Node3 -->
<g id="edge3" class="edge">
<title>Node4&#45;&gt;Node3</title>
<path fill="none" stroke="#404040" d="M52.48,-1052.4C64.34,-1032.06 81.51,-1002.6 99.71,-971.38"/>
<polygon fill="none" stroke="#404040" points="99.87,-971.1 99.44,-963.9 105.92,-960.73 106.35,-967.93 99.87,-971.1"/>
<text text-anchor="middle" x="109.9" y="-982" font-family="Helvetica,sans-Serif" font-size="10.00"> #color</text>
</g>
<!-- Node5 -->
<g id="node5" class="node">
<title>Node5</title>
<g id="a_node5"><a xlink:href="classobjects_1_1obstacles_1_1Block.html" target="_top" xlink:title=" ">
<polygon fill="white" stroke="black" points="167.4,-1008.5 167.4,-1153.5 421.4,-1153.5 421.4,-1008.5 167.4,-1008.5"/>
<text text-anchor="middle" x="294.4" y="-1141.5" font-family="Helvetica,sans-Serif" font-size="10.00">objects.obstacles.Block</text>
<polyline fill="none" stroke="black" points="167.4,-1134.5 421.4,-1134.5 "/>
<text text-anchor="start" x="175.4" y="-1122.5" font-family="Helvetica,sans-Serif" font-size="10.00">+ static final double speed</text>
<text text-anchor="start" x="175.4" y="-1111.5" font-family="Helvetica,sans-Serif" font-size="10.00">&#45; double currentY</text>
<polyline fill="none" stroke="black" points="167.4,-1104.5 421.4,-1104.5 "/>
<text text-anchor="start" x="175.4" y="-1092.5" font-family="Helvetica,sans-Serif" font-size="10.00">+ Block(ArrayList&lt; Obstacle &gt; left, ArrayList&lt; Obstacle</text>
<text text-anchor="start" x="175.4" y="-1081.5" font-family="Helvetica,sans-Serif" font-size="10.00"> &gt; center, ArrayList&lt; Obstacle &gt; right)</text>
<text text-anchor="start" x="175.4" y="-1070.5" font-family="Helvetica,sans-Serif" font-size="10.00">+ double getCurrentY()</text>
<text text-anchor="start" x="175.4" y="-1059.5" font-family="Helvetica,sans-Serif" font-size="10.00">+ ArrayList&lt; Obstacle &gt; getLane(Lane lane)</text>
<text text-anchor="start" x="175.4" y="-1048.5" font-family="Helvetica,sans-Serif" font-size="10.00">+ ArrayList&lt; Obstacle &gt; getLeftLane()</text>
<text text-anchor="start" x="175.4" y="-1037.5" font-family="Helvetica,sans-Serif" font-size="10.00">+ ArrayList&lt; Obstacle &gt; getCenterLane()</text>
<text text-anchor="start" x="175.4" y="-1026.5" font-family="Helvetica,sans-Serif" font-size="10.00">+ ArrayList&lt; Obstacle &gt; getRightLane()</text>
<text text-anchor="start" x="175.4" y="-1015.5" font-family="Helvetica,sans-Serif" font-size="10.00">+ void frameUpdate()</text>
</a>
</g>
</g>
<!-- Node5&#45;&gt;Node2 -->
<g id="edge8" class="edge">
<title>Node5&#45;&gt;Node2</title>
<path fill="none" stroke="#404040" d="M338.73,-1008.23C346.04,-993.14 352.49,-976.95 356.4,-961 386.95,-836.24 401.78,-792.16 356.4,-672 351.4,-658.76 344.07,-646.06 335.61,-634.26"/>
<polygon fill="none" stroke="#404040" points="335.52,-634.14 328.71,-631.77 328.27,-624.57 335.09,-626.94 335.52,-634.14"/>
<text text-anchor="middle" x="398.4" y="-814" font-family="Helvetica,sans-Serif" font-size="10.00"> #lane</text>
</g>
<!-- Node5&#45;&gt;Node3 -->
<g id="edge4" class="edge">
<title>Node5&#45;&gt;Node3</title>
<path fill="none" stroke="#404040" d="M265.71,-1008.27C261.08,-996.71 256.14,-984.36 251.09,-971.72"/>
<polygon fill="none" stroke="#404040" points="251.08,-971.69 245.13,-967.6 246.62,-960.55 252.56,-964.63 251.08,-971.69"/>
<text text-anchor="middle" x="271.4" y="-982" font-family="Helvetica,sans-Serif" font-size="10.00"> #lane</text>
</g>
<!-- Node6 -->
<g id="node6" class="node">
<title>Node6</title>
<g id="a_node6"><a xlink:title=" ">
<polygon fill="white" stroke="black" points="197.9,-1248.5 197.9,-1305.5 386.9,-1305.5 386.9,-1248.5 197.9,-1248.5"/>
<text text-anchor="middle" x="292.4" y="-1293.5" font-family="Helvetica,sans-Serif" font-size="10.00">ArrayList&lt; objects.obstacles.Obstacle &gt;</text>
<polyline fill="none" stroke="black" points="197.9,-1286.5 386.9,-1286.5 "/>
<text text-anchor="middle" x="292.4" y="-1274.5" font-family="Helvetica,sans-Serif" font-size="10.00"> </text>
<polyline fill="none" stroke="black" points="197.9,-1267.5 386.9,-1267.5 "/>
<text text-anchor="middle" x="292.4" y="-1255.5" font-family="Helvetica,sans-Serif" font-size="10.00"> </text>
</a>
</g>
</g>
<!-- Node6&#45;&gt;Node5 -->
<g id="edge5" class="edge">
<title>Node6&#45;&gt;Node5</title>
<path fill="none" stroke="#404040" d="M292.69,-1248.2C292.91,-1226.56 293.23,-1195.34 293.54,-1165.78"/>
<polygon fill="none" stroke="#404040" points="293.54,-1165.68 289.6,-1159.64 293.66,-1153.69 297.6,-1159.73 293.54,-1165.68"/>
<text text-anchor="middle" x="310.9" y="-1209.5" font-family="Helvetica,sans-Serif" font-size="10.00"> &#45;center</text>
<text text-anchor="middle" x="310.9" y="-1198.5" font-family="Helvetica,sans-Serif" font-size="10.00">&#45;left</text>
<text text-anchor="middle" x="310.9" y="-1187.5" font-family="Helvetica,sans-Serif" font-size="10.00">&#45;right</text>
</g>
<!-- Node7 -->
<g id="node7" class="node">
<title>Node7</title>
<g id="a_node7"><a xlink:title=" ">
<polygon fill="white" stroke="black" points="345.4,-1353.5 345.4,-1410.5 401.4,-1410.5 401.4,-1353.5 345.4,-1353.5"/>
<text text-anchor="middle" x="373.4" y="-1398.5" font-family="Helvetica,sans-Serif" font-size="10.00">ArrayList</text>
<polyline fill="none" stroke="black" points="345.4,-1391.5 401.4,-1391.5 "/>
<text text-anchor="middle" x="373.4" y="-1379.5" font-family="Helvetica,sans-Serif" font-size="10.00"> </text>
<polyline fill="none" stroke="black" points="345.4,-1372.5 401.4,-1372.5 "/>
<text text-anchor="middle" x="373.4" y="-1360.5" font-family="Helvetica,sans-Serif" font-size="10.00"> </text>
</a>
</g>
</g>
<!-- Node7&#45;&gt;Node6 -->
<g id="edge6" class="edge">
<title>Node7&#45;&gt;Node6</title>
<path fill="none" stroke="orange" d="M335.77,-1369.36C319.41,-1362.21 301.85,-1351.24 292.4,-1335 287.32,-1326.28 286.29,-1315.46 286.89,-1305.59"/>
<polygon fill="orange" stroke="orange" points="334.61,-1372.66 345.19,-1373.13 337.21,-1366.16 334.61,-1372.66"/>
<text text-anchor="middle" x="362.9" y="-1327" font-family="Helvetica,sans-Serif" font-size="10.00"> &lt; objects::obstacles::Obstacle &gt;</text>
</g>
<!-- Node10 -->
<g id="node10" class="node">
<title>Node10</title>
<g id="a_node10"><a xlink:title=" ">
<polygon fill="white" stroke="black" points="404.9,-1172.5 404.9,-1229.5 503.9,-1229.5 503.9,-1172.5 404.9,-1172.5"/>
<text text-anchor="middle" x="454.4" y="-1217.5" font-family="Helvetica,sans-Serif" font-size="10.00">ArrayList&lt; Image &gt;</text>
<polyline fill="none" stroke="black" points="404.9,-1210.5 503.9,-1210.5 "/>
<text text-anchor="middle" x="454.4" y="-1198.5" font-family="Helvetica,sans-Serif" font-size="10.00"> </text>
<polyline fill="none" stroke="black" points="404.9,-1191.5 503.9,-1191.5 "/>
<text text-anchor="middle" x="454.4" y="-1179.5" font-family="Helvetica,sans-Serif" font-size="10.00"> </text>
</a>
</g>
</g>
<!-- Node7&#45;&gt;Node10 -->
<g id="edge12" class="edge">
<title>Node7&#45;&gt;Node10</title>
<path fill="none" stroke="orange" d="M409.84,-1360.04C418.86,-1353.18 427.59,-1344.76 433.4,-1335 452.7,-1302.55 456.01,-1258.11 455.82,-1229.73"/>
<polygon fill="orange" stroke="orange" points="407.69,-1357.27 401.55,-1365.91 411.74,-1362.99 407.69,-1357.27"/>
<text text-anchor="middle" x="461.4" y="-1327" font-family="Helvetica,sans-Serif" font-size="10.00"> &lt; Image &gt;</text>
</g>
<!-- Node8 -->
<g id="node8" class="node">
<title>Node8</title>
<g id="a_node8"><a xlink:title=" ">
<polygon fill="white" stroke="black" points="105.4,-1052.5 105.4,-1109.5 149.4,-1109.5 149.4,-1052.5 105.4,-1052.5"/>
<text text-anchor="middle" x="127.4" y="-1097.5" font-family="Helvetica,sans-Serif" font-size="10.00">Image</text>
<polyline fill="none" stroke="black" points="105.4,-1090.5 149.4,-1090.5 "/>
<text text-anchor="middle" x="127.4" y="-1078.5" font-family="Helvetica,sans-Serif" font-size="10.00"> </text>
<polyline fill="none" stroke="black" points="105.4,-1071.5 149.4,-1071.5 "/>
<text text-anchor="middle" x="127.4" y="-1059.5" font-family="Helvetica,sans-Serif" font-size="10.00"> </text>
</a>
</g>
</g>
<!-- Node8&#45;&gt;Node3 -->
<g id="edge7" class="edge">
<title>Node8&#45;&gt;Node3</title>
<path fill="none" stroke="#404040" d="M133.92,-1052.4C138.66,-1032.33 145.5,-1003.37 152.77,-972.6"/>
<polygon fill="none" stroke="#404040" points="152.81,-972.41 150.3,-965.65 155.57,-960.73 158.08,-967.49 152.81,-972.41"/>
<text text-anchor="middle" x="167.4" y="-982" font-family="Helvetica,sans-Serif" font-size="10.00"> &#45;image</text>
</g>
<!-- Node9 -->
<g id="node9" class="node">
<title>Node9</title>
<g id="a_node9"><a xlink:href="enumobjects_1_1Player_1_1Level.html" target="_top" xlink:title=" ">
<polygon fill="white" stroke="black" points="481.4,-523.5 481.4,-591.5 585.4,-591.5 585.4,-523.5 481.4,-523.5"/>
<text text-anchor="middle" x="533.4" y="-579.5" font-family="Helvetica,sans-Serif" font-size="10.00">objects.Player.Level</text>
<polyline fill="none" stroke="black" points="481.4,-572.5 585.4,-572.5 "/>
<text text-anchor="start" x="489.4" y="-560.5" font-family="Helvetica,sans-Serif" font-size="10.00">+ LOW</text>
<text text-anchor="start" x="489.4" y="-549.5" font-family="Helvetica,sans-Serif" font-size="10.00">+ HIGH</text>
<polyline fill="none" stroke="black" points="481.4,-542.5 585.4,-542.5 "/>
<text text-anchor="middle" x="533.4" y="-530.5" font-family="Helvetica,sans-Serif" font-size="10.00"> </text>
</a>
</g>
</g>
<!-- Node9&#45;&gt;Node1 -->
<g id="edge10" class="edge">
<title>Node9&#45;&gt;Node1</title>
<path fill="none" stroke="#404040" d="M520.46,-523.25C513.38,-505.05 503.91,-480.74 493.42,-453.78"/>
<polygon fill="none" stroke="#404040" points="493.38,-453.68 487.48,-449.54 489.03,-442.5 494.93,-446.64 493.38,-453.68"/>
<text text-anchor="middle" x="511.4" y="-464" font-family="Helvetica,sans-Serif" font-size="10.00"> &#45;level</text>
</g>
<!-- Node10&#45;&gt;Node1 -->
<g id="edge11" class="edge">
<title>Node10&#45;&gt;Node1</title>
<path fill="none" stroke="#404040" d="M454.19,-1172.23C453.89,-1131.35 453.4,-1052.53 453.4,-985.5 453.4,-985.5 453.4,-985.5 453.4,-556.5 453.4,-523.46 450.98,-488.78 447.2,-454.78"/>
<polygon fill="none" stroke="#404040" points="447.19,-454.71 442.52,-449.21 445.81,-442.79 450.47,-448.29 447.19,-454.71"/>
<text text-anchor="middle" x="484.9" y="-819.5" font-family="Helvetica,sans-Serif" font-size="10.00"> &#45;deathFrames</text>
<text text-anchor="middle" x="484.9" y="-808.5" font-family="Helvetica,sans-Serif" font-size="10.00">&#45;runFrames</text>
</g>
</g>
</svg>
