<?xml version="1.0" encoding="UTF-8" standalone="no"?>
<!DOCTYPE svg PUBLIC "-//W3C//DTD SVG 1.1//EN"
 "http://www.w3.org/Graphics/SVG/1.1/DTD/svg11.dtd">
<!-- Generated by graphviz version 3.0.0 (20221109.1736)
 -->
<!-- Title: objects.menus.GameOver Pages: 1 -->
<svg width="382pt" height="1044pt"
 viewBox="0.00 0.00 381.50 1044.00" xmlns="http://www.w3.org/2000/svg" xmlns:xlink="http://www.w3.org/1999/xlink">
<g id="graph0" class="graph" transform="scale(1 1) rotate(0) translate(4 1040)">
<title>objects.menus.GameOver</title>
<polygon fill="white" stroke="transparent" points="-4,4 -4,-1040 377.5,-1040 377.5,4 -4,4"/>
<!-- Node1 -->
<g id="node1" class="node">
<title>Node1</title>
<g id="a_node1"><a xlink:title=" ">
<polygon fill="#bfbfbf" stroke="black" points="113,-0.5 113,-112.5 256,-112.5 256,-0.5 113,-0.5"/>
<text text-anchor="middle" x="184.5" y="-100.5" font-family="Helvetica,sans-Serif" font-size="10.00">objects.menus.GameOver</text>
<polyline fill="none" stroke="black" points="113,-93.5 256,-93.5 "/>
<text text-anchor="start" x="121" y="-81.5" font-family="Helvetica,sans-Serif" font-size="10.00">+ static String gameOverText</text>
<text text-anchor="start" x="121" y="-70.5" font-family="Helvetica,sans-Serif" font-size="10.00">+ static String scoreTxt</text>
<text text-anchor="start" x="121" y="-59.5" font-family="Helvetica,sans-Serif" font-size="10.00">&#45; int maxScore</text>
<text text-anchor="start" x="121" y="-48.5" font-family="Helvetica,sans-Serif" font-size="10.00">&#45; int currentScore</text>
<polyline fill="none" stroke="black" points="113,-41.5 256,-41.5 "/>
<text text-anchor="start" x="121" y="-29.5" font-family="Helvetica,sans-Serif" font-size="10.00">+ GameOver()</text>
<text text-anchor="start" x="121" y="-18.5" font-family="Helvetica,sans-Serif" font-size="10.00">+ void setScore(int score)</text>
<text text-anchor="start" x="121" y="-7.5" font-family="Helvetica,sans-Serif" font-size="10.00">+ void Draw()</text>
</a>
</g>
</g>
<!-- Node2 -->
<g id="node2" class="node">
<title>Node2</title>
<g id="a_node2"><a xlink:href="classobjects_1_1menus_1_1GamePause.html" target="_top" xlink:title=" ">
<polygon fill="white" stroke="black" points="60.5,-150.5 60.5,-284.5 308.5,-284.5 308.5,-150.5 60.5,-150.5"/>
<text text-anchor="middle" x="184.5" y="-272.5" font-family="Helvetica,sans-Serif" font-size="10.00">objects.menus.GamePause</text>
<polyline fill="none" stroke="black" points="60.5,-265.5 308.5,-265.5 "/>
<text text-anchor="start" x="68.5" y="-253.5" font-family="Helvetica,sans-Serif" font-size="10.00"># String centerTxt</text>
<text text-anchor="start" x="68.5" y="-242.5" font-family="Helvetica,sans-Serif" font-size="10.00">&#45; Boolean enabled</text>
<polyline fill="none" stroke="black" points="60.5,-235.5 308.5,-235.5 "/>
<text text-anchor="start" x="68.5" y="-223.5" font-family="Helvetica,sans-Serif" font-size="10.00">+ GamePause()</text>
<text text-anchor="start" x="68.5" y="-212.5" font-family="Helvetica,sans-Serif" font-size="10.00">+ void enable()</text>
<text text-anchor="start" x="68.5" y="-201.5" font-family="Helvetica,sans-Serif" font-size="10.00">+ void disable()</text>
<text text-anchor="start" x="68.5" y="-190.5" font-family="Helvetica,sans-Serif" font-size="10.00">+ Boolean isEnabled()</text>
<text text-anchor="start" x="68.5" y="-179.5" font-family="Helvetica,sans-Serif" font-size="10.00">+ void toggle()</text>
<text text-anchor="start" x="68.5" y="-168.5" font-family="Helvetica,sans-Serif" font-size="10.00">+ void updateDeminsions(double width, double length)</text>
<text text-anchor="start" x="68.5" y="-157.5" font-family="Helvetica,sans-Serif" font-size="10.00">+ void Draw()</text>
</a>
</g>
</g>
<!-- Node2&#45;&gt;Node1 -->
<g id="edge1" class="edge">
<title>Node2&#45;&gt;Node1</title>
<path fill="none" stroke="midnightblue" d="M184.5,-140.16C184.5,-130.99 184.5,-121.78 184.5,-112.99"/>
<polygon fill="none" stroke="midnightblue" points="181,-140.45 184.5,-150.45 188,-140.45 181,-140.45"/>
</g>
<!-- Node3 -->
<g id="node3" class="node">
<title>Node3</title>
<g id="a_node3"><a xlink:href="classobjects_1_1GameObject.html" target="_top" xlink:title=" ">
<polygon fill="white" stroke="black" points="26,-322.5 26,-610.5 343,-610.5 343,-322.5 26,-322.5"/>
<text text-anchor="middle" x="184.5" y="-598.5" font-family="Helvetica,sans-Serif" font-size="10.00">objects.GameObject</text>
<polyline fill="none" stroke="black" points="26,-591.5 343,-591.5 "/>
<text text-anchor="start" x="34" y="-579.5" font-family="Helvetica,sans-Serif" font-size="10.00"># double x</text>
<text text-anchor="start" x="34" y="-568.5" font-family="Helvetica,sans-Serif" font-size="10.00"># double y</text>
<text text-anchor="start" x="34" y="-557.5" font-family="Helvetica,sans-Serif" font-size="10.00"># double width</text>
<text text-anchor="start" x="34" y="-546.5" font-family="Helvetica,sans-Serif" font-size="10.00"># double length</text>
<polyline fill="none" stroke="black" points="26,-539.5 343,-539.5 "/>
<text text-anchor="start" x="34" y="-527.5" font-family="Helvetica,sans-Serif" font-size="10.00">+ GameObject(double x, double y, double width, double length)</text>
<text text-anchor="start" x="34" y="-516.5" font-family="Helvetica,sans-Serif" font-size="10.00">+ GameObject(Block.Lane lane, double y, double width, double length)</text>
<text text-anchor="start" x="34" y="-505.5" font-family="Helvetica,sans-Serif" font-size="10.00">+ GameObject(Block.Lane lane, double y, double cubeLength)</text>
<text text-anchor="start" x="34" y="-494.5" font-family="Helvetica,sans-Serif" font-size="10.00">+ GameObject(double x, double y, double cubeLength)</text>
<text text-anchor="start" x="34" y="-483.5" font-family="Helvetica,sans-Serif" font-size="10.00">+ double getWidth()</text>
<text text-anchor="start" x="34" y="-472.5" font-family="Helvetica,sans-Serif" font-size="10.00">+ double getLength()</text>
<text text-anchor="start" x="34" y="-461.5" font-family="Helvetica,sans-Serif" font-size="10.00">+ void setColor(Color color)</text>
<text text-anchor="start" x="34" y="-450.5" font-family="Helvetica,sans-Serif" font-size="10.00">+ void setLane(Block.Lane path)</text>
<text text-anchor="start" x="34" y="-439.5" font-family="Helvetica,sans-Serif" font-size="10.00">+ void setImage(Image image)</text>
<text text-anchor="start" x="34" y="-428.5" font-family="Helvetica,sans-Serif" font-size="10.00">+ Block.Lane getLane()</text>
<text text-anchor="start" x="34" y="-417.5" font-family="Helvetica,sans-Serif" font-size="10.00">+ Image getImage()</text>
<text text-anchor="start" x="34" y="-406.5" font-family="Helvetica,sans-Serif" font-size="10.00">+ void setX(double x)</text>
<text text-anchor="start" x="34" y="-395.5" font-family="Helvetica,sans-Serif" font-size="10.00">+ void setY(double y)</text>
<text text-anchor="start" x="34" y="-384.5" font-family="Helvetica,sans-Serif" font-size="10.00">+ double getY()</text>
<text text-anchor="start" x="34" y="-373.5" font-family="Helvetica,sans-Serif" font-size="10.00">+ double getX()</text>
<text text-anchor="start" x="34" y="-362.5" font-family="Helvetica,sans-Serif" font-size="10.00">+ void Draw()</text>
<text text-anchor="start" x="34" y="-351.5" font-family="Helvetica,sans-Serif" font-size="10.00">+ boolean interesects(double x, double y)</text>
<text text-anchor="start" x="34" y="-340.5" font-family="Helvetica,sans-Serif" font-size="10.00">+ boolean interesects(Block.Lane lane, double y)</text>
<text text-anchor="start" x="34" y="-329.5" font-family="Helvetica,sans-Serif" font-size="10.00">+ boolean touches(GameObject other)</text>
</a>
</g>
</g>
<!-- Node3&#45;&gt;Node2 -->
<g id="edge2" class="edge">
<title>Node3&#45;&gt;Node2</title>
<path fill="none" stroke="midnightblue" d="M184.5,-311.91C184.5,-302.52 184.5,-293.38 184.5,-284.73"/>
<polygon fill="none" stroke="midnightblue" points="181,-312.18 184.5,-322.18 188,-312.18 181,-312.18"/>
</g>
<!-- Node4 -->
<g id="node4" class="node">
<title>Node4</title>
<g id="a_node4"><a xlink:title=" ">
<polygon fill="white" stroke="black" points="0,-702.5 0,-759.5 39,-759.5 39,-702.5 0,-702.5"/>
<text text-anchor="middle" x="19.5" y="-747.5" font-family="Helvetica,sans-Serif" font-size="10.00">Color</text>
<polyline fill="none" stroke="black" points="0,-740.5 39,-740.5 "/>
<text text-anchor="middle" x="19.5" y="-728.5" font-family="Helvetica,sans-Serif" font-size="10.00"> </text>
<polyline fill="none" stroke="black" points="0,-721.5 39,-721.5 "/>
<text text-anchor="middle" x="19.5" y="-709.5" font-family="Helvetica,sans-Serif" font-size="10.00"> </text>
</a>
</g>
</g>
<!-- Node4&#45;&gt;Node3 -->
<g id="edge3" class="edge">
<title>Node4&#45;&gt;Node3</title>
<path fill="none" stroke="#404040" d="M28.9,-702.29C33.98,-688.61 40.79,-672.06 48.5,-658 55.25,-645.68 62.66,-633.22 70.43,-620.87"/>
<polygon fill="none" stroke="#404040" points="70.57,-620.64 70.43,-613.43 77.03,-610.53 77.17,-617.74 70.57,-620.64"/>
<text text-anchor="middle" x="79" y="-632" font-family="Helvetica,sans-Serif" font-size="10.00"> #color</text>
</g>
<!-- Node5 -->
<g id="node5" class="node">
<title>Node5</title>
<g id="a_node5"><a xlink:href="classobjects_1_1obstacles_1_1Block.html" target="_top" xlink:title=" ">
<polygon fill="white" stroke="black" points="57.5,-658.5 57.5,-803.5 311.5,-803.5 311.5,-658.5 57.5,-658.5"/>
<text text-anchor="middle" x="184.5" y="-791.5" font-family="Helvetica,sans-Serif" font-size="10.00">objects.obstacles.Block</text>
<polyline fill="none" stroke="black" points="57.5,-784.5 311.5,-784.5 "/>
<text text-anchor="start" x="65.5" y="-772.5" font-family="Helvetica,sans-Serif" font-size="10.00">+ static final double speed</text>
<text text-anchor="start" x="65.5" y="-761.5" font-family="Helvetica,sans-Serif" font-size="10.00">&#45; double currentY</text>
<polyline fill="none" stroke="black" points="57.5,-754.5 311.5,-754.5 "/>
<text text-anchor="start" x="65.5" y="-742.5" font-family="Helvetica,sans-Serif" font-size="10.00">+ Block(ArrayList&lt; Obstacle &gt; left, ArrayList&lt; Obstacle</text>
<text text-anchor="start" x="65.5" y="-731.5" font-family="Helvetica,sans-Serif" font-size="10.00"> &gt; center, ArrayList&lt; Obstacle &gt; right)</text>
<text text-anchor="start" x="65.5" y="-720.5" font-family="Helvetica,sans-Serif" font-size="10.00">+ double getCurrentY()</text>
<text text-anchor="start" x="65.5" y="-709.5" font-family="Helvetica,sans-Serif" font-size="10.00">+ ArrayList&lt; Obstacle &gt; getLane(Lane lane)</text>
<text text-anchor="start" x="65.5" y="-698.5" font-family="Helvetica,sans-Serif" font-size="10.00">+ ArrayList&lt; Obstacle &gt; getLeftLane()</text>
<text text-anchor="start" x="65.5" y="-687.5" font-family="Helvetica,sans-Serif" font-size="10.00">+ ArrayList&lt; Obstacle &gt; getCenterLane()</text>
<text text-anchor="start" x="65.5" y="-676.5" font-family="Helvetica,sans-Serif" font-size="10.00">+ ArrayList&lt; Obstacle &gt; getRightLane()</text>
<text text-anchor="start" x="65.5" y="-665.5" font-family="Helvetica,sans-Serif" font-size="10.00">+ void frameUpdate()</text>
</a>
</g>
</g>
<!-- Node5&#45;&gt;Node3 -->
<g id="edge4" class="edge">
<title>Node5&#45;&gt;Node3</title>
<path fill="none" stroke="#404040" d="M184.5,-658.27C184.5,-647.06 184.5,-635.11 184.5,-622.87"/>
<polygon fill="none" stroke="#404040" points="184.5,-622.55 180.5,-616.55 184.5,-610.55 188.5,-616.55 184.5,-622.55"/>
<text text-anchor="middle" x="197.5" y="-632" font-family="Helvetica,sans-Serif" font-size="10.00"> #lane</text>
</g>
<!-- Node6 -->
<g id="node6" class="node">
<title>Node6</title>
<g id="a_node6"><a xlink:title=" ">
<polygon fill="white" stroke="black" points="90,-873.5 90,-930.5 279,-930.5 279,-873.5 90,-873.5"/>
<text text-anchor="middle" x="184.5" y="-918.5" font-family="Helvetica,sans-Serif" font-size="10.00">ArrayList&lt; objects.obstacles.Obstacle &gt;</text>
<polyline fill="none" stroke="black" points="90,-911.5 279,-911.5 "/>
<text text-anchor="middle" x="184.5" y="-899.5" font-family="Helvetica,sans-Serif" font-size="10.00"> </text>
<polyline fill="none" stroke="black" points="90,-892.5 279,-892.5 "/>
<text text-anchor="middle" x="184.5" y="-880.5" font-family="Helvetica,sans-Serif" font-size="10.00"> </text>
</a>
</g>
</g>
<!-- Node6&#45;&gt;Node5 -->
<g id="edge5" class="edge">
<title>Node6&#45;&gt;Node5</title>
<path fill="none" stroke="#404040" d="M184.5,-873.47C184.5,-857.6 184.5,-836.71 184.5,-815.87"/>
<polygon fill="none" stroke="#404040" points="184.5,-815.64 180.5,-809.64 184.5,-803.64 188.5,-809.64 184.5,-815.64"/>
<text text-anchor="middle" x="201" y="-847" font-family="Helvetica,sans-Serif" font-size="10.00"> &#45;center</text>
<text text-anchor="middle" x="201" y="-836" font-family="Helvetica,sans-Serif" font-size="10.00">&#45;left</text>
<text text-anchor="middle" x="201" y="-825" font-family="Helvetica,sans-Serif" font-size="10.00">&#45;right</text>
</g>
<!-- Node7 -->
<g id="node7" class="node">
<title>Node7</title>
<g id="a_node7"><a xlink:title=" ">
<polygon fill="white" stroke="black" points="156.5,-978.5 156.5,-1035.5 212.5,-1035.5 212.5,-978.5 156.5,-978.5"/>
<text text-anchor="middle" x="184.5" y="-1023.5" font-family="Helvetica,sans-Serif" font-size="10.00">ArrayList</text>
<polyline fill="none" stroke="black" points="156.5,-1016.5 212.5,-1016.5 "/>
<text text-anchor="middle" x="184.5" y="-1004.5" font-family="Helvetica,sans-Serif" font-size="10.00"> </text>
<polyline fill="none" stroke="black" points="156.5,-997.5 212.5,-997.5 "/>
<text text-anchor="middle" x="184.5" y="-985.5" font-family="Helvetica,sans-Serif" font-size="10.00"> </text>
</a>
</g>
</g>
<!-- Node7&#45;&gt;Node6 -->
<g id="edge6" class="edge">
<title>Node7&#45;&gt;Node6</title>
<path fill="none" stroke="orange" d="M184.5,-968.29C184.5,-955.84 184.5,-942.23 184.5,-930.68"/>
<polygon fill="orange" stroke="orange" points="181,-968.4 184.5,-978.4 188,-968.4 181,-968.4"/>
<text text-anchor="middle" x="255" y="-952" font-family="Helvetica,sans-Serif" font-size="10.00"> &lt; objects::obstacles::Obstacle &gt;</text>
</g>
<!-- Node8 -->
<g id="node8" class="node">
<title>Node8</title>
<g id="a_node8"><a xlink:title=" ">
<polygon fill="white" stroke="black" points="329.5,-702.5 329.5,-759.5 373.5,-759.5 373.5,-702.5 329.5,-702.5"/>
<text text-anchor="middle" x="351.5" y="-747.5" font-family="Helvetica,sans-Serif" font-size="10.00">Image</text>
<polyline fill="none" stroke="black" points="329.5,-740.5 373.5,-740.5 "/>
<text text-anchor="middle" x="351.5" y="-728.5" font-family="Helvetica,sans-Serif" font-size="10.00"> </text>
<polyline fill="none" stroke="black" points="329.5,-721.5 373.5,-721.5 "/>
<text text-anchor="middle" x="351.5" y="-709.5" font-family="Helvetica,sans-Serif" font-size="10.00"> </text>
</a>
</g>
</g>
<!-- Node8&#45;&gt;Node3 -->
<g id="edge7" class="edge">
<title>Node8&#45;&gt;Node3</title>
<path fill="none" stroke="#404040" d="M341.2,-702.33C335.71,-688.66 328.45,-672.11 320.5,-658 313.6,-645.76 306.09,-633.36 298.25,-621.05"/>
<polygon fill="none" stroke="#404040" points="298.1,-620.82 291.49,-617.95 291.59,-610.74 298.21,-613.61 298.1,-620.82"/>
<text text-anchor="middle" x="323.5" y="-632" font-family="Helvetica,sans-Serif" font-size="10.00"> &#45;image</text>
</g>
</g>
</svg>
