<?xml version="1.0" encoding="UTF-8" standalone="no"?>
<!DOCTYPE svg PUBLIC "-//W3C//DTD SVG 1.1//EN"
 "http://www.w3.org/Graphics/SVG/1.1/DTD/svg11.dtd">
<!-- Generated by graphviz version 3.0.0 (20221109.1736)
 -->
<!-- Title: src/main/java Pages: 1 -->
<svg width="326pt" height="111pt"
 viewBox="0.00 0.00 326.00 111.00" xmlns="http://www.w3.org/2000/svg" xmlns:xlink="http://www.w3.org/1999/xlink">
<g id="graph0" class="graph" transform="scale(1 1) rotate(0) translate(4 107)">
<title>src/main/java</title>
<polygon fill="white" stroke="transparent" points="-4,4 -4,-107 322,-107 322,4 -4,4"/>
<g id="clust1" class="cluster">
<title>clusterdir_5eb159725f84c66aafd839904a4acdd0</title>
<g id="a_clust1"><a xlink:href="dir_5eb159725f84c66aafd839904a4acdd0.html" target="_top" xlink:title="main">
<polygon fill="#edf0f7" stroke="#7f7f7f" stroke-dasharray="5,2" points="8,-8 8,-95 310,-95 310,-8 8,-8"/>
<text text-anchor="middle" x="159" y="-83" font-family="Helvetica,sans-Serif" font-size="10.00">main</text>
</a>
</g>
</g>
<g id="clust2" class="cluster">
<title>clusterdir_fd3f6763802dee1ad875f6c80eac0bda</title>
<g id="a_clust2"><a xlink:href="dir_fd3f6763802dee1ad875f6c80eac0bda.html" target="_top">
<polygon fill="#edf0f7" stroke="#404040" stroke-width="2" points="16,-16 16,-68 302,-68 302,-16 16,-16"/>
</a>
</g>
</g>
<!-- dir_fd3f6763802dee1ad875f6c80eac0bda -->
<g id="node1" class="node">
<title>dir_fd3f6763802dee1ad875f6c80eac0bda</title>
<text text-anchor="middle" x="267" y="-39.5" font-family="Helvetica,sans-Serif" font-size="10.00">java</text>
</g>
<!-- dir_2ad98635ecb5bf317e6d6b73e3af3ee1 -->
<g id="node2" class="node">
<title>dir_2ad98635ecb5bf317e6d6b73e3af3ee1</title>
<g id="a_node2"><a xlink:href="dir_2ad98635ecb5bf317e6d6b73e3af3ee1.html" target="_top" xlink:title="game">
<polygon fill="#a2b4d6" stroke="#404040" points="222,-60 168,-60 168,-24 222,-24 222,-60"/>
<text text-anchor="middle" x="195" y="-39.5" font-family="Helvetica,sans-Serif" font-size="10.00">game</text>
</a>
</g>
</g>
<!-- dir_b6e99bd0a2787f09ce035a0213915c01 -->
<g id="node3" class="node">
<title>dir_b6e99bd0a2787f09ce035a0213915c01</title>
<g id="a_node3"><a xlink:href="dir_b6e99bd0a2787f09ce035a0213915c01.html" target="_top" xlink:title="logic">
<polygon fill="#a2b4d6" stroke="#404040" points="150,-60 96,-60 96,-24 150,-24 150,-60"/>
<text text-anchor="middle" x="123" y="-39.5" font-family="Helvetica,sans-Serif" font-size="10.00">logic</text>
</a>
</g>
</g>
<!-- dir_6fb03b7c75cce4a3691948ec68c3a590 -->
<g id="node4" class="node">
<title>dir_6fb03b7c75cce4a3691948ec68c3a590</title>
<g id="a_node4"><a xlink:href="dir_6fb03b7c75cce4a3691948ec68c3a590.html" target="_top" xlink:title="objects">
<polygon fill="#a2b4d6" stroke="#404040" points="78,-60 24,-60 24,-24 78,-24 78,-60"/>
<text text-anchor="middle" x="51" y="-39.5" font-family="Helvetica,sans-Serif" font-size="10.00">objects</text>
</a>
</g>
</g>
</g>
</svg>
