<?xml version="1.0" encoding="UTF-8" standalone="no"?>
<!DOCTYPE svg PUBLIC "-//W3C//DTD SVG 1.1//EN"
 "http://www.w3.org/Graphics/SVG/1.1/DTD/svg11.dtd">
<!-- Generated by graphviz version 3.0.0 (20221109.1736)
 -->
<!-- Title: src/main/java/objects Pages: 1 -->
<svg width="260pt" height="111pt"
 viewBox="0.00 0.00 260.00 111.00" xmlns="http://www.w3.org/2000/svg" xmlns:xlink="http://www.w3.org/1999/xlink">
<g id="graph0" class="graph" transform="scale(1 1) rotate(0) translate(4 107)">
<title>src/main/java/objects</title>
<polygon fill="white" stroke="transparent" points="-4,4 -4,-107 256,-107 256,4 -4,4"/>
<g id="clust1" class="cluster">
<title>clusterdir_fd3f6763802dee1ad875f6c80eac0bda</title>
<g id="a_clust1"><a xlink:href="dir_fd3f6763802dee1ad875f6c80eac0bda.html" target="_top" xlink:title="java">
<polygon fill="#edf0f7" stroke="#7f7f7f" stroke-dasharray="5,2" points="8,-8 8,-95 244,-95 244,-8 8,-8"/>
<text text-anchor="middle" x="126" y="-83" font-family="Helvetica,sans-Serif" font-size="10.00">java</text>
</a>
</g>
</g>
<g id="clust2" class="cluster">
<title>clusterdir_6fb03b7c75cce4a3691948ec68c3a590</title>
<g id="a_clust2"><a xlink:href="dir_6fb03b7c75cce4a3691948ec68c3a590.html" target="_top">
<polygon fill="#edf0f7" stroke="#404040" stroke-width="2" points="16,-16 16,-68 236,-68 236,-16 16,-16"/>
</a>
</g>
</g>
<!-- dir_6fb03b7c75cce4a3691948ec68c3a590 -->
<g id="node1" class="node">
<title>dir_6fb03b7c75cce4a3691948ec68c3a590</title>
<text text-anchor="middle" x="201" y="-39.5" font-family="Helvetica,sans-Serif" font-size="10.00">objects</text>
</g>
<!-- dir_e4347807b9ad7e98c7dd5ce71ff46c3b -->
<g id="node2" class="node">
<title>dir_e4347807b9ad7e98c7dd5ce71ff46c3b</title>
<g id="a_node2"><a xlink:href="dir_e4347807b9ad7e98c7dd5ce71ff46c3b.html" target="_top" xlink:title="menus">
<polygon fill="#a2b4d6" stroke="#404040" points="156,-60 102,-60 102,-24 156,-24 156,-60"/>
<text text-anchor="middle" x="129" y="-39.5" font-family="Helvetica,sans-Serif" font-size="10.00">menus</text>
</a>
</g>
</g>
<!-- dir_281d2997f71de7cdb907e83528ce1d89 -->
<g id="node3" class="node">
<title>dir_281d2997f71de7cdb907e83528ce1d89</title>
<g id="a_node3"><a xlink:href="dir_281d2997f71de7cdb907e83528ce1d89.html" target="_top" xlink:title="obstacles">
<polygon fill="#a2b4d6" stroke="#404040" points="83.5,-60 24.5,-60 24.5,-24 83.5,-24 83.5,-60"/>
<text text-anchor="middle" x="54" y="-39.5" font-family="Helvetica,sans-Serif" font-size="10.00">obstacles</text>
</a>
</g>
</g>
</g>
</svg>
