<?xml version="1.0" encoding="UTF-8" standalone="no"?>
<!DOCTYPE svg PUBLIC "-//W3C//DTD SVG 1.1//EN"
 "http://www.w3.org/Graphics/SVG/1.1/DTD/svg11.dtd">
<!-- Generated by graphviz version 3.0.0 (20221109.1736)
 -->
<!-- Title: Graphical Class Hierarchy Pages: 1 -->
<svg width="559pt" height="123pt"
 viewBox="0.00 0.00 559.00 123.00" xmlns="http://www.w3.org/2000/svg" xmlns:xlink="http://www.w3.org/1999/xlink">
<g id="graph0" class="graph" transform="scale(1 1) rotate(0) translate(4 119)">
<title>Graphical Class Hierarchy</title>
<polygon fill="white" stroke="transparent" points="-4,4 -4,-119 555,-119 555,4 -4,4"/>
<!-- Node0 -->
<g id="node1" class="node">
<title>Node0</title>
<g id="a_node1"><a xlink:href="classobjects_1_1GameObject.html" target="_top" xlink:title=" ">
<polygon fill="white" stroke="black" points="0,-38.5 0,-57.5 105,-57.5 105,-38.5 0,-38.5"/>
<text text-anchor="middle" x="52.5" y="-45.5" font-family="Helvetica,sans-Serif" font-size="10.00">objects.GameObject</text>
</a>
</g>
</g>
<!-- Node1 -->
<g id="node2" class="node">
<title>Node1</title>
<g id="a_node2"><a xlink:href="classlogic_1_1Logic_1_1Score.html" target="_top" xlink:title=" ">
<polygon fill="white" stroke="black" points="159,-76.5 159,-95.5 250,-95.5 250,-76.5 159,-76.5"/>
<text text-anchor="middle" x="204.5" y="-83.5" font-family="Helvetica,sans-Serif" font-size="10.00">logic.Logic.Score</text>
</a>
</g>
</g>
<!-- Node0&#45;&gt;Node1 -->
<g id="edge1" class="edge">
<title>Node0&#45;&gt;Node1</title>
<path fill="none" stroke="midnightblue" d="M101.31,-60.11C122.2,-65.4 146.35,-71.52 165.92,-76.48"/>
<polygon fill="midnightblue" stroke="midnightblue" points="101.9,-56.65 91.35,-57.59 100.19,-63.44 101.9,-56.65"/>
</g>
<!-- Node2 -->
<g id="node3" class="node">
<title>Node2</title>
<g id="a_node3"><a xlink:href="classobjects_1_1GameLaneObject.html" target="_top" xlink:title=" ">
<polygon fill="white" stroke="black" points="141,-38.5 141,-57.5 268,-57.5 268,-38.5 141,-38.5"/>
<text text-anchor="middle" x="204.5" y="-45.5" font-family="Helvetica,sans-Serif" font-size="10.00">objects.GameLaneObject</text>
</a>
</g>
</g>
<!-- Node0&#45;&gt;Node2 -->
<g id="edge2" class="edge">
<title>Node0&#45;&gt;Node2</title>
<path fill="none" stroke="midnightblue" d="M115.29,-48C123.75,-48 132.43,-48 140.9,-48"/>
<polygon fill="midnightblue" stroke="midnightblue" points="115.12,-44.5 105.12,-48 115.12,-51.5 115.12,-44.5"/>
</g>
<!-- Node8 -->
<g id="node9" class="node">
<title>Node8</title>
<g id="a_node9"><a xlink:href="classobjects_1_1Ground.html" target="_top" xlink:title=" ">
<polygon fill="white" stroke="black" points="163.5,-0.5 163.5,-19.5 245.5,-19.5 245.5,-0.5 163.5,-0.5"/>
<text text-anchor="middle" x="204.5" y="-7.5" font-family="Helvetica,sans-Serif" font-size="10.00">objects.Ground</text>
</a>
</g>
</g>
<!-- Node0&#45;&gt;Node8 -->
<g id="edge8" class="edge">
<title>Node0&#45;&gt;Node8</title>
<path fill="none" stroke="midnightblue" d="M101.31,-35.89C122.2,-30.6 146.35,-24.48 165.92,-19.52"/>
<polygon fill="midnightblue" stroke="midnightblue" points="100.19,-32.56 91.35,-38.41 101.9,-39.35 100.19,-32.56"/>
</g>
<!-- Node3 -->
<g id="node4" class="node">
<title>Node3</title>
<g id="a_node4"><a xlink:href="classobjects_1_1Obstacle.html" target="_top" xlink:title=" ">
<polygon fill="white" stroke="black" points="304,-57.5 304,-76.5 393,-76.5 393,-57.5 304,-57.5"/>
<text text-anchor="middle" x="348.5" y="-64.5" font-family="Helvetica,sans-Serif" font-size="10.00">objects.Obstacle</text>
</a>
</g>
</g>
<!-- Node2&#45;&gt;Node3 -->
<g id="edge3" class="edge">
<title>Node2&#45;&gt;Node3</title>
<path fill="none" stroke="midnightblue" d="M278.11,-57.72C286.91,-58.89 295.67,-60.07 303.86,-61.16"/>
<polygon fill="midnightblue" stroke="midnightblue" points="278.57,-54.25 268.2,-56.39 277.64,-61.18 278.57,-54.25"/>
</g>
<!-- Node7 -->
<g id="node8" class="node">
<title>Node7</title>
<g id="a_node8"><a xlink:href="classobjects_1_1Player.html" target="_top" xlink:title=" ">
<polygon fill="white" stroke="black" points="310,-19.5 310,-38.5 387,-38.5 387,-19.5 310,-19.5"/>
<text text-anchor="middle" x="348.5" y="-26.5" font-family="Helvetica,sans-Serif" font-size="10.00">objects.Player</text>
</a>
</g>
</g>
<!-- Node2&#45;&gt;Node7 -->
<g id="edge7" class="edge">
<title>Node2&#45;&gt;Node7</title>
<path fill="none" stroke="midnightblue" d="M278.17,-38.28C289.04,-36.82 299.86,-35.37 309.6,-34.07"/>
<polygon fill="midnightblue" stroke="midnightblue" points="277.64,-34.82 268.2,-39.61 278.57,-41.75 277.64,-34.82"/>
</g>
<!-- Node4 -->
<g id="node5" class="node">
<title>Node4</title>
<g id="a_node5"><a xlink:href="classobjects_1_1RoadBlock.html" target="_top" xlink:title=" ">
<polygon fill="white" stroke="black" points="441,-95.5 441,-114.5 539,-114.5 539,-95.5 441,-95.5"/>
<text text-anchor="middle" x="490" y="-102.5" font-family="Helvetica,sans-Serif" font-size="10.00">objects.RoadBlock</text>
</a>
</g>
</g>
<!-- Node3&#45;&gt;Node4 -->
<g id="edge4" class="edge">
<title>Node3&#45;&gt;Node4</title>
<path fill="none" stroke="midnightblue" d="M394.46,-79.25C413.68,-84.48 435.8,-90.51 453.81,-95.41"/>
<polygon fill="midnightblue" stroke="midnightblue" points="395.27,-75.84 384.7,-76.59 393.43,-82.59 395.27,-75.84"/>
</g>
<!-- Node5 -->
<g id="node6" class="node">
<title>Node5</title>
<g id="a_node6"><a xlink:href="classobjects_1_1Trailer.html" target="_top" xlink:title=" ">
<polygon fill="white" stroke="black" points="451.5,-57.5 451.5,-76.5 528.5,-76.5 528.5,-57.5 451.5,-57.5"/>
<text text-anchor="middle" x="490" y="-64.5" font-family="Helvetica,sans-Serif" font-size="10.00">objects.Trailer</text>
</a>
</g>
</g>
<!-- Node3&#45;&gt;Node5 -->
<g id="edge5" class="edge">
<title>Node3&#45;&gt;Node5</title>
<path fill="none" stroke="midnightblue" d="M403.49,-67C419.37,-67 436.4,-67 451.05,-67"/>
<polygon fill="midnightblue" stroke="midnightblue" points="403.26,-63.5 393.26,-67 403.26,-70.5 403.26,-63.5"/>
</g>
<!-- Node6 -->
<g id="node7" class="node">
<title>Node6</title>
<g id="a_node7"><a xlink:href="classobjects_1_1TrailerWithRamp.html" target="_top" xlink:title=" ">
<polygon fill="white" stroke="black" points="429,-19.5 429,-38.5 551,-38.5 551,-19.5 429,-19.5"/>
<text text-anchor="middle" x="490" y="-26.5" font-family="Helvetica,sans-Serif" font-size="10.00">objects.TrailerWithRamp</text>
</a>
</g>
</g>
<!-- Node3&#45;&gt;Node6 -->
<g id="edge6" class="edge">
<title>Node3&#45;&gt;Node6</title>
<path fill="none" stroke="midnightblue" d="M394.46,-54.75C413.68,-49.52 435.8,-43.49 453.81,-38.59"/>
<polygon fill="midnightblue" stroke="midnightblue" points="393.43,-51.41 384.7,-57.41 395.27,-58.16 393.43,-51.41"/>
</g>
</g>
</svg>
