<?xml version="1.0" encoding="UTF-8" standalone="no"?>
<!DOCTYPE svg PUBLIC "-//W3C//DTD SVG 1.1//EN"
 "http://www.w3.org/Graphics/SVG/1.1/DTD/svg11.dtd">
<!-- Generated by graphviz version 8.0.3 (0)
 -->
<!-- Title: Graphical Class Hierarchy Pages: 1 -->
<svg width="1030pt" height="119pt"
 viewBox="0.00 0.00 1030.00 119.00" xmlns="http://www.w3.org/2000/svg" xmlns:xlink="http://www.w3.org/1999/xlink">
<g id="graph0" class="graph" transform="scale(1 1) rotate(0) translate(4 115)">
<title>Graphical Class Hierarchy</title>
<!-- Node0 -->
<g id="node1" class="node">
<title>Node0</title>
<g id="a_node1"><a xlink:href="classeu_1_1anwar_1_1madrunner_1_1objects_1_1GameObject.html" target="_top" xlink:title=" ">
<polygon fill="white" stroke="#666666" points="197,-56 0,-56 0,-37 197,-37 197,-56"/>
<text text-anchor="middle" x="98.5" y="-44" font-family="Helvetica,sans-Serif" font-size="10.00">eu.anwar.madrunner.objects.GameObject</text>
</a>
</g>
</g>
<!-- Node1 -->
<g id="node2" class="node">
<title>Node1</title>
<g id="a_node2"><a xlink:href="classeu_1_1anwar_1_1madrunner_1_1objects_1_1GameLaneObject.html" target="_top" xlink:title=" ">
<polygon fill="white" stroke="#666666" points="456.5,-93 238.5,-93 238.5,-74 456.5,-74 456.5,-93"/>
<text text-anchor="middle" x="347.5" y="-81" font-family="Helvetica,sans-Serif" font-size="10.00">eu.anwar.madrunner.objects.GameLaneObject</text>
</a>
</g>
</g>
<!-- Node0&#45;&gt;Node1 -->
<g id="edge1" class="edge">
<title>Node0&#45;&gt;Node1</title>
<path fill="none" stroke="#63b8ff" d="M176.57,-58.04C209.68,-63 248,-68.75 279.86,-73.52"/>
<polygon fill="#63b8ff" stroke="#63b8ff" points="177.42,-54.48 167.02,-56.46 176.39,-61.41 177.42,-54.48"/>
</g>
<!-- Node7 -->
<g id="node8" class="node">
<title>Node7</title>
<g id="a_node8"><a xlink:href="classeu_1_1anwar_1_1madrunner_1_1objects_1_1Ground.html" target="_top" xlink:title=" ">
<polygon fill="white" stroke="#666666" points="434.5,-56 260.5,-56 260.5,-37 434.5,-37 434.5,-56"/>
<text text-anchor="middle" x="347.5" y="-44" font-family="Helvetica,sans-Serif" font-size="10.00">eu.anwar.madrunner.objects.Ground</text>
</a>
</g>
</g>
<!-- Node0&#45;&gt;Node7 -->
<g id="edge7" class="edge">
<title>Node0&#45;&gt;Node7</title>
<path fill="none" stroke="#63b8ff" d="M208.25,-46.5C225.65,-46.5 243.45,-46.5 260.23,-46.5"/>
<polygon fill="#63b8ff" stroke="#63b8ff" points="208.48,-43 198.48,-46.5 208.48,-50 208.48,-43"/>
</g>
<!-- Node8 -->
<g id="node9" class="node">
<title>Node8</title>
<g id="a_node9"><a xlink:href="classeu_1_1anwar_1_1madrunner_1_1objects_1_1menus_1_1GamePause.html" target="_top" xlink:title=" ">
<polygon fill="white" stroke="#666666" points="462,-19 233,-19 233,0 462,0 462,-19"/>
<text text-anchor="middle" x="347.5" y="-7" font-family="Helvetica,sans-Serif" font-size="10.00">eu.anwar.madrunner.objects.menus.GamePause</text>
</a>
</g>
</g>
<!-- Node0&#45;&gt;Node8 -->
<g id="edge8" class="edge">
<title>Node0&#45;&gt;Node8</title>
<path fill="none" stroke="#63b8ff" d="M176.57,-34.96C209.68,-30 248,-24.25 279.86,-19.48"/>
<polygon fill="#63b8ff" stroke="#63b8ff" points="176.39,-31.59 167.02,-36.54 177.42,-38.52 176.39,-31.59"/>
</g>
<!-- Node2 -->
<g id="node3" class="node">
<title>Node2</title>
<g id="a_node3"><a xlink:href="classeu_1_1anwar_1_1madrunner_1_1objects_1_1Player.html" target="_top" xlink:title=" ">
<polygon fill="white" stroke="#666666" points="696.5,-111 526.5,-111 526.5,-92 696.5,-92 696.5,-111"/>
<text text-anchor="middle" x="611.5" y="-99" font-family="Helvetica,sans-Serif" font-size="10.00">eu.anwar.madrunner.objects.Player</text>
</a>
</g>
</g>
<!-- Node1&#45;&gt;Node2 -->
<g id="edge2" class="edge">
<title>Node1&#45;&gt;Node2</title>
<path fill="none" stroke="#63b8ff" d="M467.84,-91.7C487.51,-93.05 507.54,-94.43 526.12,-95.7"/>
<polygon fill="#63b8ff" stroke="#63b8ff" points="468.17,-88.14 457.96,-90.95 467.69,-95.13 468.17,-88.14"/>
</g>
<!-- Node3 -->
<g id="node4" class="node">
<title>Node3</title>
<g id="a_node4"><a xlink:href="classeu_1_1anwar_1_1madrunner_1_1objects_1_1obstacles_1_1Obstacle.html" target="_top" xlink:title=" ">
<polygon fill="white" stroke="#666666" points="725,-74 498,-74 498,-55 725,-55 725,-74"/>
<text text-anchor="middle" x="611.5" y="-62" font-family="Helvetica,sans-Serif" font-size="10.00">eu.anwar.madrunner.objects.obstacles.Obstacle</text>
</a>
</g>
</g>
<!-- Node1&#45;&gt;Node3 -->
<g id="edge3" class="edge">
<title>Node1&#45;&gt;Node3</title>
<path fill="none" stroke="#63b8ff" d="M467.78,-74.85C477.81,-74.12 487.92,-73.39 497.89,-72.67"/>
<polygon fill="#63b8ff" stroke="#63b8ff" points="467.68,-71.42 457.96,-75.63 468.18,-78.4 467.68,-71.42"/>
</g>
<!-- Node4 -->
<g id="node5" class="node">
<title>Node4</title>
<g id="a_node5"><a xlink:href="classeu_1_1anwar_1_1madrunner_1_1objects_1_1obstacles_1_1RoadBlock.html" target="_top" xlink:title=" ">
<polygon fill="white" stroke="#666666" points="1009.5,-111 773.5,-111 773.5,-92 1009.5,-92 1009.5,-111"/>
<text text-anchor="middle" x="891.5" y="-99" font-family="Helvetica,sans-Serif" font-size="10.00">eu.anwar.madrunner.objects.obstacles.RoadBlock</text>
</a>
</g>
</g>
<!-- Node3&#45;&gt;Node4 -->
<g id="edge4" class="edge">
<title>Node3&#45;&gt;Node4</title>
<path fill="none" stroke="#63b8ff" d="M697.79,-75.85C735.39,-80.86 779.17,-86.68 815.5,-91.52"/>
<polygon fill="#63b8ff" stroke="#63b8ff" points="698.74,-72.31 688.36,-74.46 697.82,-79.25 698.74,-72.31"/>
</g>
<!-- Node5 -->
<g id="node6" class="node">
<title>Node5</title>
<g id="a_node6"><a xlink:href="classeu_1_1anwar_1_1madrunner_1_1objects_1_1obstacles_1_1Trailer.html" target="_top" xlink:title=" ">
<polygon fill="white" stroke="#666666" points="999,-74 784,-74 784,-55 999,-55 999,-74"/>
<text text-anchor="middle" x="891.5" y="-62" font-family="Helvetica,sans-Serif" font-size="10.00">eu.anwar.madrunner.objects.obstacles.Trailer</text>
</a>
</g>
</g>
<!-- Node3&#45;&gt;Node5 -->
<g id="edge5" class="edge">
<title>Node3&#45;&gt;Node5</title>
<path fill="none" stroke="#63b8ff" d="M736.07,-64.5C751.89,-64.5 767.99,-64.5 783.51,-64.5"/>
<polygon fill="#63b8ff" stroke="#63b8ff" points="736.17,-61 726.17,-64.5 736.17,-68 736.17,-61"/>
</g>
<!-- Node6 -->
<g id="node7" class="node">
<title>Node6</title>
<g id="a_node7"><a xlink:href="classeu_1_1anwar_1_1madrunner_1_1objects_1_1obstacles_1_1TrailerWithRamp.html" target="_top" xlink:title=" ">
<polygon fill="white" stroke="#666666" points="1022,-37 761,-37 761,-18 1022,-18 1022,-37"/>
<text text-anchor="middle" x="891.5" y="-25" font-family="Helvetica,sans-Serif" font-size="10.00">eu.anwar.madrunner.objects.obstacles.TrailerWithRamp</text>
</a>
</g>
</g>
<!-- Node3&#45;&gt;Node6 -->
<g id="edge6" class="edge">
<title>Node3&#45;&gt;Node6</title>
<path fill="none" stroke="#63b8ff" d="M697.79,-53.15C735.39,-48.14 779.17,-42.32 815.5,-37.48"/>
<polygon fill="#63b8ff" stroke="#63b8ff" points="697.82,-49.75 688.36,-54.54 698.74,-56.69 697.82,-49.75"/>
</g>
<!-- Node9 -->
<g id="node10" class="node">
<title>Node9</title>
<g id="a_node10"><a xlink:href="classeu_1_1anwar_1_1madrunner_1_1objects_1_1menus_1_1GameOver.html" target="_top" xlink:title=" ">
<polygon fill="white" stroke="#666666" points="722.5,-19 500.5,-19 500.5,0 722.5,0 722.5,-19"/>
<text text-anchor="middle" x="611.5" y="-7" font-family="Helvetica,sans-Serif" font-size="10.00">eu.anwar.madrunner.objects.menus.GameOver</text>
</a>
</g>
</g>
<!-- Node8&#45;&gt;Node9 -->
<g id="edge9" class="edge">
<title>Node8&#45;&gt;Node9</title>
<path fill="none" stroke="#63b8ff" d="M473.21,-9.5C482.21,-9.5 491.24,-9.5 500.15,-9.5"/>
<polygon fill="#63b8ff" stroke="#63b8ff" points="473.27,-6 463.27,-9.5 473.27,-13 473.27,-6"/>
</g>
</g>
</svg>
