<?xml version="1.0" encoding="UTF-8" standalone="no"?>
<!DOCTYPE svg PUBLIC "-//W3C//DTD SVG 1.1//EN"
 "http://www.w3.org/Graphics/SVG/1.1/DTD/svg11.dtd">
<!-- Generated by graphviz version 8.0.3 (0)
 -->
<!-- Title: objects.Obstacle Pages: 1 -->
<svg width="656pt" height="755pt"
 viewBox="0.00 0.00 656.00 755.00" xmlns="http://www.w3.org/2000/svg" xmlns:xlink="http://www.w3.org/1999/xlink">
<g id="graph0" class="graph" transform="scale(1 1) rotate(0) translate(4 751)">
<title>objects.Obstacle</title>
<!-- Node1 -->
<g id="node1" class="node">
<title>Node1</title>
<g id="a_node1"><a xlink:title=" ">
<polygon fill="#999999" stroke="#666666" points="173,-160.5 173,-239.5 419,-239.5 419,-160.5 173,-160.5"/>
<text text-anchor="middle" x="296" y="-227.5" font-family="Helvetica,sans-Serif" font-size="10.00">objects.Obstacle</text>
<polyline fill="none" stroke="#666666" points="173,-220.5 419,-220.5"/>
<text text-anchor="start" x="181" y="-208.5" font-family="Helvetica,sans-Serif" font-size="10.00">+ static final double obestacleWidth</text>
<polyline fill="none" stroke="#666666" points="173,-201.5 419,-201.5"/>
<text text-anchor="start" x="181" y="-189.5" font-family="Helvetica,sans-Serif" font-size="10.00">+ Obstacle(Block.Lane lane, double y, double length)</text>
<text text-anchor="start" x="181" y="-178.5" font-family="Helvetica,sans-Serif" font-size="10.00">+ void setY(double y)</text>
<text text-anchor="start" x="181" y="-167.5" font-family="Helvetica,sans-Serif" font-size="10.00">+ void addY(double diff)</text>
</a>
</g>
</g>
<!-- Node4 -->
<g id="node4" class="node">
<title>Node4</title>
<g id="a_node4"><a xlink:href="classobjects_1_1RoadBlock.html" target="_top" xlink:title=" ">
<polygon fill="white" stroke="#666666" points="0,-33.5 0,-90.5 182,-90.5 182,-33.5 0,-33.5"/>
<text text-anchor="middle" x="91" y="-78.5" font-family="Helvetica,sans-Serif" font-size="10.00">objects.RoadBlock</text>
<polyline fill="none" stroke="#666666" points="0,-71.5 182,-71.5"/>
<text text-anchor="start" x="8" y="-59.5" font-family="Helvetica,sans-Serif" font-size="10.00">+ static final double RoadBlockLength</text>
<polyline fill="none" stroke="#666666" points="0,-52.5 182,-52.5"/>
<text text-anchor="start" x="8" y="-40.5" font-family="Helvetica,sans-Serif" font-size="10.00">+ RoadBlock(Block.Lane lane)</text>
</a>
</g>
</g>
<!-- Node1&#45;&gt;Node4 -->
<g id="edge3" class="edge">
<title>Node1&#45;&gt;Node4</title>
<path fill="none" stroke="#63b8ff" d="M229.21,-154.69C197.24,-133.48 159.97,-108.76 132.2,-90.33"/>
<polygon fill="none" stroke="#63b8ff" points="226.81,-157.96 237.08,-160.57 230.68,-152.13 226.81,-157.96"/>
</g>
<!-- Node5 -->
<g id="node5" class="node">
<title>Node5</title>
<g id="a_node5"><a xlink:href="classobjects_1_1Trailer.html" target="_top" xlink:title=" ">
<polygon fill="white" stroke="#666666" points="200.5,-6 200.5,-118 391.5,-118 391.5,-6 200.5,-6"/>
<text text-anchor="middle" x="296" y="-106" font-family="Helvetica,sans-Serif" font-size="10.00">objects.Trailer</text>
<polyline fill="none" stroke="#666666" points="200.5,-99 391.5,-99"/>
<text text-anchor="start" x="208.5" y="-87" font-family="Helvetica,sans-Serif" font-size="10.00">+ static final double singleTrailerLength</text>
<text text-anchor="start" x="208.5" y="-76" font-family="Helvetica,sans-Serif" font-size="10.00">+ static final int maxNumberOfTrailers</text>
<text text-anchor="start" x="208.5" y="-65" font-family="Helvetica,sans-Serif" font-size="10.00"># final int count</text>
<polyline fill="none" stroke="#666666" points="200.5,-58 391.5,-58"/>
<text text-anchor="start" x="208.5" y="-46" font-family="Helvetica,sans-Serif" font-size="10.00">+ Trailer(Block.Lane lane, int count)</text>
<text text-anchor="start" x="208.5" y="-35" font-family="Helvetica,sans-Serif" font-size="10.00">+ Trailer(Block.Lane lane)</text>
<text text-anchor="start" x="208.5" y="-24" font-family="Helvetica,sans-Serif" font-size="10.00">+ Trailer(Block.Lane lane, double length)</text>
<text text-anchor="start" x="208.5" y="-13" font-family="Helvetica,sans-Serif" font-size="10.00">+ void Draw()</text>
</a>
</g>
</g>
<!-- Node1&#45;&gt;Node5 -->
<g id="edge4" class="edge">
<title>Node1&#45;&gt;Node5</title>
<path fill="none" stroke="#63b8ff" d="M296,-149.83C296,-139.48 296,-128.5 296,-117.96"/>
<polygon fill="none" stroke="#63b8ff" points="292.5,-149.75 296,-159.75 299.5,-149.75 292.5,-149.75"/>
</g>
<!-- Node6 -->
<g id="node6" class="node">
<title>Node6</title>
<g id="a_node6"><a xlink:href="classobjects_1_1TrailerWithRamp.html" target="_top" xlink:title=" ">
<polygon fill="white" stroke="#666666" points="410,-0.5 410,-123.5 648,-123.5 648,-0.5 410,-0.5"/>
<text text-anchor="middle" x="529" y="-111.5" font-family="Helvetica,sans-Serif" font-size="10.00">objects.TrailerWithRamp</text>
<polyline fill="none" stroke="#666666" points="410,-104.5 648,-104.5"/>
<text text-anchor="start" x="418" y="-92.5" font-family="Helvetica,sans-Serif" font-size="10.00">+ static final double rampSize</text>
<text text-anchor="start" x="418" y="-81.5" font-family="Helvetica,sans-Serif" font-size="10.00"># final int count</text>
<text text-anchor="start" x="418" y="-70.5" font-family="Helvetica,sans-Serif" font-size="10.00">&#45; Trailer trailer</text>
<text text-anchor="start" x="418" y="-59.5" font-family="Helvetica,sans-Serif" font-size="10.00">&#45; Obstacle ramp</text>
<polyline fill="none" stroke="#666666" points="410,-52.5 648,-52.5"/>
<text text-anchor="start" x="418" y="-40.5" font-family="Helvetica,sans-Serif" font-size="10.00">+ TrailerWithRamp(Block.Lane lane, double length)</text>
<text text-anchor="start" x="418" y="-29.5" font-family="Helvetica,sans-Serif" font-size="10.00">+ TrailerWithRamp(Block.Lane lane)</text>
<text text-anchor="start" x="418" y="-18.5" font-family="Helvetica,sans-Serif" font-size="10.00">+ void setLanePath(Block.Lane path)</text>
<text text-anchor="start" x="418" y="-7.5" font-family="Helvetica,sans-Serif" font-size="10.00">+ void Draw()</text>
</a>
</g>
</g>
<!-- Node1&#45;&gt;Node6 -->
<g id="edge5" class="edge">
<title>Node1&#45;&gt;Node6</title>
<path fill="none" stroke="#63b8ff" d="M371.27,-155.06C388.54,-144.99 407.19,-134.1 425.42,-123.46"/>
<polygon fill="none" stroke="#63b8ff" points="369.71,-152.51 362.83,-160.57 373.24,-158.55 369.71,-152.51"/>
</g>
<!-- Node2 -->
<g id="node2" class="node">
<title>Node2</title>
<g id="a_node2"><a xlink:href="classobjects_1_1GameLaneObject.html" target="_top" xlink:title=" ">
<polygon fill="white" stroke="#666666" points="124,-276.5 124,-399.5 468,-399.5 468,-276.5 124,-276.5"/>
<text text-anchor="middle" x="296" y="-387.5" font-family="Helvetica,sans-Serif" font-size="10.00">objects.GameLaneObject</text>
<polyline fill="none" stroke="#666666" points="124,-380.5 468,-380.5"/>
<text text-anchor="start" x="132" y="-368.5" font-family="Helvetica,sans-Serif" font-size="10.00"># Block.Lane lane</text>
<polyline fill="none" stroke="#666666" points="124,-361.5 468,-361.5"/>
<text text-anchor="start" x="132" y="-349.5" font-family="Helvetica,sans-Serif" font-size="10.00">+ GameLaneObject(Block.Lane lane, double y, double width, double length)</text>
<text text-anchor="start" x="132" y="-338.5" font-family="Helvetica,sans-Serif" font-size="10.00">+ GameLaneObject(Block.Lane lane, double y, double cubeLength)</text>
<text text-anchor="start" x="132" y="-327.5" font-family="Helvetica,sans-Serif" font-size="10.00">+ void setLanePath(Block.Lane path)</text>
<text text-anchor="start" x="132" y="-316.5" font-family="Helvetica,sans-Serif" font-size="10.00">+ Block.Lane getLane()</text>
<text text-anchor="start" x="132" y="-305.5" font-family="Helvetica,sans-Serif" font-size="10.00">+ void Draw()</text>
<text text-anchor="start" x="132" y="-294.5" font-family="Helvetica,sans-Serif" font-size="10.00">+ boolean contains(Block.Lane lane, double y)</text>
<text text-anchor="start" x="132" y="-283.5" font-family="Helvetica,sans-Serif" font-size="10.00">+ boolean touches(GameLaneObject other)</text>
</a>
</g>
</g>
<!-- Node2&#45;&gt;Node1 -->
<g id="edge1" class="edge">
<title>Node2&#45;&gt;Node1</title>
<path fill="none" stroke="#63b8ff" d="M296,-265.56C296,-256.54 296,-247.61 296,-239.39"/>
<polygon fill="none" stroke="#63b8ff" points="292.5,-265.56 296,-275.56 299.5,-265.56 292.5,-265.56"/>
</g>
<!-- Node3 -->
<g id="node3" class="node">
<title>Node3</title>
<g id="a_node3"><a xlink:href="classobjects_1_1GameObject.html" target="_top" xlink:title=" ">
<polygon fill="white" stroke="#666666" points="134.5,-436.5 134.5,-746.5 457.5,-746.5 457.5,-436.5 134.5,-436.5"/>
<text text-anchor="middle" x="296" y="-734.5" font-family="Helvetica,sans-Serif" font-size="10.00">objects.GameObject</text>
<polyline fill="none" stroke="#666666" points="134.5,-727.5 457.5,-727.5"/>
<text text-anchor="start" x="142.5" y="-715.5" font-family="Helvetica,sans-Serif" font-size="10.00"># Color color</text>
<text text-anchor="start" x="142.5" y="-704.5" font-family="Helvetica,sans-Serif" font-size="10.00"># Image image</text>
<text text-anchor="start" x="142.5" y="-693.5" font-family="Helvetica,sans-Serif" font-size="10.00"># Block.Lane lane</text>
<text text-anchor="start" x="142.5" y="-682.5" font-family="Helvetica,sans-Serif" font-size="10.00"># double x</text>
<text text-anchor="start" x="142.5" y="-671.5" font-family="Helvetica,sans-Serif" font-size="10.00"># double y</text>
<text text-anchor="start" x="142.5" y="-660.5" font-family="Helvetica,sans-Serif" font-size="10.00"># double width</text>
<text text-anchor="start" x="142.5" y="-649.5" font-family="Helvetica,sans-Serif" font-size="10.00"># double length</text>
<polyline fill="none" stroke="#666666" points="134.5,-642.5 457.5,-642.5"/>
<text text-anchor="start" x="142.5" y="-630.5" font-family="Helvetica,sans-Serif" font-size="10.00">+ GameObject(double x, double y, double width, double length)</text>
<text text-anchor="start" x="142.5" y="-619.5" font-family="Helvetica,sans-Serif" font-size="10.00">+ GameObject(Block.Lane lane, double y, double width, double length)</text>
<text text-anchor="start" x="142.5" y="-608.5" font-family="Helvetica,sans-Serif" font-size="10.00">+ GameObject(Block.Lane lane, double y, double cubeLength)</text>
<text text-anchor="start" x="142.5" y="-597.5" font-family="Helvetica,sans-Serif" font-size="10.00">+ GameObject(double x, double y, double cubeLength)</text>
<text text-anchor="start" x="142.5" y="-586.5" font-family="Helvetica,sans-Serif" font-size="10.00">+ double getWidth()</text>
<text text-anchor="start" x="142.5" y="-575.5" font-family="Helvetica,sans-Serif" font-size="10.00">+ double getLength()</text>
<text text-anchor="start" x="142.5" y="-564.5" font-family="Helvetica,sans-Serif" font-size="10.00">+ void setColor(Color color)</text>
<text text-anchor="start" x="142.5" y="-553.5" font-family="Helvetica,sans-Serif" font-size="10.00">+ void setLanePath(Block.Lane path)</text>
<text text-anchor="start" x="142.5" y="-542.5" font-family="Helvetica,sans-Serif" font-size="10.00">+ Block.Lane getLane()</text>
<text text-anchor="start" x="142.5" y="-531.5" font-family="Helvetica,sans-Serif" font-size="10.00">+ void setX(double x)</text>
<text text-anchor="start" x="142.5" y="-520.5" font-family="Helvetica,sans-Serif" font-size="10.00">+ void setY(double y)</text>
<text text-anchor="start" x="142.5" y="-509.5" font-family="Helvetica,sans-Serif" font-size="10.00">+ double getY()</text>
<text text-anchor="start" x="142.5" y="-498.5" font-family="Helvetica,sans-Serif" font-size="10.00">+ double getX()</text>
<text text-anchor="start" x="142.5" y="-487.5" font-family="Helvetica,sans-Serif" font-size="10.00">+ void Draw()</text>
<text text-anchor="start" x="142.5" y="-476.5" font-family="Helvetica,sans-Serif" font-size="10.00">+ boolean interesects(double x, double y)</text>
<text text-anchor="start" x="142.5" y="-465.5" font-family="Helvetica,sans-Serif" font-size="10.00">+ boolean interesects(Block.Lane lane, double y)</text>
<text text-anchor="start" x="142.5" y="-454.5" font-family="Helvetica,sans-Serif" font-size="10.00">+ boolean touches(GameObject other)</text>
<text text-anchor="start" x="142.5" y="-443.5" font-family="Helvetica,sans-Serif" font-size="10.00">+ boolean within(GameObject other)</text>
</a>
</g>
</g>
<!-- Node3&#45;&gt;Node2 -->
<g id="edge2" class="edge">
<title>Node3&#45;&gt;Node2</title>
<path fill="none" stroke="#63b8ff" d="M296,-425.7C296,-416.52 296,-407.66 296,-399.32"/>
<polygon fill="none" stroke="#63b8ff" points="292.5,-425.6 296,-435.6 299.5,-425.6 292.5,-425.6"/>
</g>
</g>
</svg>
