<?xml version="1.0" encoding="UTF-8" standalone="no"?>
<!DOCTYPE svg PUBLIC "-//W3C//DTD SVG 1.1//EN"
 "http://www.w3.org/Graphics/SVG/1.1/DTD/svg11.dtd">
<!-- Generated by graphviz version 3.0.0 (20221109.1736)
 -->
<!-- Title: objects.GameLaneObject Pages: 1 -->
<svg width="496pt" height="894pt"
 viewBox="0.00 0.00 495.50 894.00" xmlns="http://www.w3.org/2000/svg" xmlns:xlink="http://www.w3.org/1999/xlink">
<g id="graph0" class="graph" transform="scale(1 1) rotate(0) translate(4 890)">
<title>objects.GameLaneObject</title>
<polygon fill="white" stroke="transparent" points="-4,4 -4,-890 491.5,-890 491.5,4 -4,4"/>
<!-- Node1 -->
<g id="node1" class="node">
<title>Node1</title>
<g id="a_node1"><a xlink:title=" ">
<polygon fill="#bfbfbf" stroke="black" points="86.5,-0.5 86.5,-134.5 424.5,-134.5 424.5,-0.5 86.5,-0.5"/>
<text text-anchor="middle" x="255.5" y="-122.5" font-family="Helvetica,sans-Serif" font-size="10.00">objects.GameLaneObject</text>
<polyline fill="none" stroke="black" points="86.5,-115.5 424.5,-115.5 "/>
<text text-anchor="middle" x="255.5" y="-103.5" font-family="Helvetica,sans-Serif" font-size="10.00"> </text>
<polyline fill="none" stroke="black" points="86.5,-96.5 424.5,-96.5 "/>
<text text-anchor="start" x="94.5" y="-84.5" font-family="Helvetica,sans-Serif" font-size="10.00">+ GameLaneObject(Block.Lane lane, double y, double width, double length)</text>
<text text-anchor="start" x="94.5" y="-73.5" font-family="Helvetica,sans-Serif" font-size="10.00">+ GameLaneObject(Block.Lane lane, double y, double cubeLength)</text>
<text text-anchor="start" x="94.5" y="-62.5" font-family="Helvetica,sans-Serif" font-size="10.00">+ void setLane(Block.Lane path)</text>
<text text-anchor="start" x="94.5" y="-51.5" font-family="Helvetica,sans-Serif" font-size="10.00">+ Block.Lane getLane()</text>
<text text-anchor="start" x="94.5" y="-40.5" font-family="Helvetica,sans-Serif" font-size="10.00">+ void Draw()</text>
<text text-anchor="start" x="94.5" y="-29.5" font-family="Helvetica,sans-Serif" font-size="10.00">+ boolean contains(Block.Lane lane, double y)</text>
<text text-anchor="start" x="94.5" y="-18.5" font-family="Helvetica,sans-Serif" font-size="10.00">+ boolean touches(GameLaneObject other)</text>
<text text-anchor="start" x="94.5" y="-7.5" font-family="Helvetica,sans-Serif" font-size="10.00">+ double distance(GameLaneObject other)</text>
</a>
</g>
</g>
<!-- Node2 -->
<g id="node2" class="node">
<title>Node2</title>
<g id="a_node2"><a xlink:href="classobjects_1_1GameObject.html" target="_top" xlink:title=" ">
<polygon fill="white" stroke="black" points="0,-172.5 0,-460.5 317,-460.5 317,-172.5 0,-172.5"/>
<text text-anchor="middle" x="158.5" y="-448.5" font-family="Helvetica,sans-Serif" font-size="10.00">objects.GameObject</text>
<polyline fill="none" stroke="black" points="0,-441.5 317,-441.5 "/>
<text text-anchor="start" x="8" y="-429.5" font-family="Helvetica,sans-Serif" font-size="10.00"># double x</text>
<text text-anchor="start" x="8" y="-418.5" font-family="Helvetica,sans-Serif" font-size="10.00"># double y</text>
<text text-anchor="start" x="8" y="-407.5" font-family="Helvetica,sans-Serif" font-size="10.00"># double width</text>
<text text-anchor="start" x="8" y="-396.5" font-family="Helvetica,sans-Serif" font-size="10.00"># double length</text>
<polyline fill="none" stroke="black" points="0,-389.5 317,-389.5 "/>
<text text-anchor="start" x="8" y="-377.5" font-family="Helvetica,sans-Serif" font-size="10.00">+ GameObject(double x, double y, double width, double length)</text>
<text text-anchor="start" x="8" y="-366.5" font-family="Helvetica,sans-Serif" font-size="10.00">+ GameObject(Block.Lane lane, double y, double width, double length)</text>
<text text-anchor="start" x="8" y="-355.5" font-family="Helvetica,sans-Serif" font-size="10.00">+ GameObject(Block.Lane lane, double y, double cubeLength)</text>
<text text-anchor="start" x="8" y="-344.5" font-family="Helvetica,sans-Serif" font-size="10.00">+ GameObject(double x, double y, double cubeLength)</text>
<text text-anchor="start" x="8" y="-333.5" font-family="Helvetica,sans-Serif" font-size="10.00">+ double getWidth()</text>
<text text-anchor="start" x="8" y="-322.5" font-family="Helvetica,sans-Serif" font-size="10.00">+ double getLength()</text>
<text text-anchor="start" x="8" y="-311.5" font-family="Helvetica,sans-Serif" font-size="10.00">+ void setColor(Color color)</text>
<text text-anchor="start" x="8" y="-300.5" font-family="Helvetica,sans-Serif" font-size="10.00">+ void setLane(Block.Lane path)</text>
<text text-anchor="start" x="8" y="-289.5" font-family="Helvetica,sans-Serif" font-size="10.00">+ void setImage(Image image)</text>
<text text-anchor="start" x="8" y="-278.5" font-family="Helvetica,sans-Serif" font-size="10.00">+ Block.Lane getLane()</text>
<text text-anchor="start" x="8" y="-267.5" font-family="Helvetica,sans-Serif" font-size="10.00">+ Image getImage()</text>
<text text-anchor="start" x="8" y="-256.5" font-family="Helvetica,sans-Serif" font-size="10.00">+ void setX(double x)</text>
<text text-anchor="start" x="8" y="-245.5" font-family="Helvetica,sans-Serif" font-size="10.00">+ void setY(double y)</text>
<text text-anchor="start" x="8" y="-234.5" font-family="Helvetica,sans-Serif" font-size="10.00">+ double getY()</text>
<text text-anchor="start" x="8" y="-223.5" font-family="Helvetica,sans-Serif" font-size="10.00">+ double getX()</text>
<text text-anchor="start" x="8" y="-212.5" font-family="Helvetica,sans-Serif" font-size="10.00">+ void Draw()</text>
<text text-anchor="start" x="8" y="-201.5" font-family="Helvetica,sans-Serif" font-size="10.00">+ boolean interesects(double x, double y)</text>
<text text-anchor="start" x="8" y="-190.5" font-family="Helvetica,sans-Serif" font-size="10.00">+ boolean interesects(Block.Lane lane, double y)</text>
<text text-anchor="start" x="8" y="-179.5" font-family="Helvetica,sans-Serif" font-size="10.00">+ boolean touches(GameObject other)</text>
</a>
</g>
</g>
<!-- Node2&#45;&gt;Node1 -->
<g id="edge1" class="edge">
<title>Node2&#45;&gt;Node1</title>
<path fill="none" stroke="midnightblue" d="M218.46,-162.81C222.27,-153.1 225.98,-143.66 229.49,-134.73"/>
<polygon fill="none" stroke="midnightblue" points="215.18,-161.59 214.78,-172.18 221.7,-164.15 215.18,-161.59"/>
</g>
<!-- Node3 -->
<g id="node3" class="node">
<title>Node3</title>
<g id="a_node3"><a xlink:title=" ">
<polygon fill="white" stroke="black" points="86,-552.5 86,-609.5 125,-609.5 125,-552.5 86,-552.5"/>
<text text-anchor="middle" x="105.5" y="-597.5" font-family="Helvetica,sans-Serif" font-size="10.00">Color</text>
<polyline fill="none" stroke="black" points="86,-590.5 125,-590.5 "/>
<text text-anchor="middle" x="105.5" y="-578.5" font-family="Helvetica,sans-Serif" font-size="10.00"> </text>
<polyline fill="none" stroke="black" points="86,-571.5 125,-571.5 "/>
<text text-anchor="middle" x="105.5" y="-559.5" font-family="Helvetica,sans-Serif" font-size="10.00"> </text>
</a>
</g>
</g>
<!-- Node3&#45;&gt;Node2 -->
<g id="edge2" class="edge">
<title>Node3&#45;&gt;Node2</title>
<path fill="none" stroke="#404040" d="M111.07,-552.4C115.13,-532.33 120.97,-503.37 127.18,-472.6"/>
<polygon fill="none" stroke="#404040" points="127.21,-472.5 124.47,-465.82 129.58,-460.73 132.31,-467.41 127.21,-472.5"/>
<text text-anchor="middle" x="140" y="-482" font-family="Helvetica,sans-Serif" font-size="10.00"> #color</text>
</g>
<!-- Node4 -->
<g id="node4" class="node">
<title>Node4</title>
<g id="a_node4"><a xlink:href="classobjects_1_1obstacles_1_1Block.html" target="_top" xlink:title=" ">
<polygon fill="white" stroke="black" points="219.5,-508.5 219.5,-653.5 473.5,-653.5 473.5,-508.5 219.5,-508.5"/>
<text text-anchor="middle" x="346.5" y="-641.5" font-family="Helvetica,sans-Serif" font-size="10.00">objects.obstacles.Block</text>
<polyline fill="none" stroke="black" points="219.5,-634.5 473.5,-634.5 "/>
<text text-anchor="start" x="227.5" y="-622.5" font-family="Helvetica,sans-Serif" font-size="10.00">+ static final double speed</text>
<text text-anchor="start" x="227.5" y="-611.5" font-family="Helvetica,sans-Serif" font-size="10.00">&#45; double currentY</text>
<polyline fill="none" stroke="black" points="219.5,-604.5 473.5,-604.5 "/>
<text text-anchor="start" x="227.5" y="-592.5" font-family="Helvetica,sans-Serif" font-size="10.00">+ Block(ArrayList&lt; Obstacle &gt; left, ArrayList&lt; Obstacle</text>
<text text-anchor="start" x="227.5" y="-581.5" font-family="Helvetica,sans-Serif" font-size="10.00"> &gt; center, ArrayList&lt; Obstacle &gt; right)</text>
<text text-anchor="start" x="227.5" y="-570.5" font-family="Helvetica,sans-Serif" font-size="10.00">+ double getCurrentY()</text>
<text text-anchor="start" x="227.5" y="-559.5" font-family="Helvetica,sans-Serif" font-size="10.00">+ ArrayList&lt; Obstacle &gt; getLane(Lane lane)</text>
<text text-anchor="start" x="227.5" y="-548.5" font-family="Helvetica,sans-Serif" font-size="10.00">+ ArrayList&lt; Obstacle &gt; getLeftLane()</text>
<text text-anchor="start" x="227.5" y="-537.5" font-family="Helvetica,sans-Serif" font-size="10.00">+ ArrayList&lt; Obstacle &gt; getCenterLane()</text>
<text text-anchor="start" x="227.5" y="-526.5" font-family="Helvetica,sans-Serif" font-size="10.00">+ ArrayList&lt; Obstacle &gt; getRightLane()</text>
<text text-anchor="start" x="227.5" y="-515.5" font-family="Helvetica,sans-Serif" font-size="10.00">+ void frameUpdate()</text>
</a>
</g>
</g>
<!-- Node4&#45;&gt;Node1 -->
<g id="edge7" class="edge">
<title>Node4&#45;&gt;Node1</title>
<path fill="none" stroke="#404040" d="M354.56,-508.16C361.29,-424.91 364.5,-284.73 326.5,-172 323.43,-162.9 319.32,-153.86 314.6,-145.14"/>
<polygon fill="none" stroke="#404040" points="314.57,-145.08 308.11,-141.87 308.59,-134.67 315.05,-137.88 314.57,-145.08"/>
<text text-anchor="middle" x="371.5" y="-314" font-family="Helvetica,sans-Serif" font-size="10.00"> #lane</text>
</g>
<!-- Node4&#45;&gt;Node2 -->
<g id="edge3" class="edge">
<title>Node4&#45;&gt;Node2</title>
<path fill="none" stroke="#404040" d="M295.13,-508.27C286.59,-496.36 277.47,-483.61 268.13,-470.57"/>
<polygon fill="none" stroke="#404040" points="267.94,-470.3 261.19,-467.75 260.95,-460.55 267.7,-463.1 267.94,-470.3"/>
<text text-anchor="middle" x="292.5" y="-482" font-family="Helvetica,sans-Serif" font-size="10.00"> #lane</text>
</g>
<!-- Node5 -->
<g id="node5" class="node">
<title>Node5</title>
<g id="a_node5"><a xlink:title=" ">
<polygon fill="white" stroke="black" points="252,-723.5 252,-780.5 441,-780.5 441,-723.5 252,-723.5"/>
<text text-anchor="middle" x="346.5" y="-768.5" font-family="Helvetica,sans-Serif" font-size="10.00">ArrayList&lt; objects.obstacles.Obstacle &gt;</text>
<polyline fill="none" stroke="black" points="252,-761.5 441,-761.5 "/>
<text text-anchor="middle" x="346.5" y="-749.5" font-family="Helvetica,sans-Serif" font-size="10.00"> </text>
<polyline fill="none" stroke="black" points="252,-742.5 441,-742.5 "/>
<text text-anchor="middle" x="346.5" y="-730.5" font-family="Helvetica,sans-Serif" font-size="10.00"> </text>
</a>
</g>
</g>
<!-- Node5&#45;&gt;Node4 -->
<g id="edge4" class="edge">
<title>Node5&#45;&gt;Node4</title>
<path fill="none" stroke="#404040" d="M346.5,-723.47C346.5,-707.6 346.5,-686.71 346.5,-665.87"/>
<polygon fill="none" stroke="#404040" points="346.5,-665.64 342.5,-659.64 346.5,-653.64 350.5,-659.64 346.5,-665.64"/>
<text text-anchor="middle" x="363" y="-697" font-family="Helvetica,sans-Serif" font-size="10.00"> &#45;center</text>
<text text-anchor="middle" x="363" y="-686" font-family="Helvetica,sans-Serif" font-size="10.00">&#45;left</text>
<text text-anchor="middle" x="363" y="-675" font-family="Helvetica,sans-Serif" font-size="10.00">&#45;right</text>
</g>
<!-- Node6 -->
<g id="node6" class="node">
<title>Node6</title>
<g id="a_node6"><a xlink:title=" ">
<polygon fill="white" stroke="black" points="318.5,-828.5 318.5,-885.5 374.5,-885.5 374.5,-828.5 318.5,-828.5"/>
<text text-anchor="middle" x="346.5" y="-873.5" font-family="Helvetica,sans-Serif" font-size="10.00">ArrayList</text>
<polyline fill="none" stroke="black" points="318.5,-866.5 374.5,-866.5 "/>
<text text-anchor="middle" x="346.5" y="-854.5" font-family="Helvetica,sans-Serif" font-size="10.00"> </text>
<polyline fill="none" stroke="black" points="318.5,-847.5 374.5,-847.5 "/>
<text text-anchor="middle" x="346.5" y="-835.5" font-family="Helvetica,sans-Serif" font-size="10.00"> </text>
</a>
</g>
</g>
<!-- Node6&#45;&gt;Node5 -->
<g id="edge5" class="edge">
<title>Node6&#45;&gt;Node5</title>
<path fill="none" stroke="orange" d="M346.5,-818.29C346.5,-805.84 346.5,-792.23 346.5,-780.68"/>
<polygon fill="orange" stroke="orange" points="343,-818.4 346.5,-828.4 350,-818.4 343,-818.4"/>
<text text-anchor="middle" x="417" y="-802" font-family="Helvetica,sans-Serif" font-size="10.00"> &lt; objects::obstacles::Obstacle &gt;</text>
</g>
<!-- Node7 -->
<g id="node7" class="node">
<title>Node7</title>
<g id="a_node7"><a xlink:title=" ">
<polygon fill="white" stroke="black" points="143.5,-552.5 143.5,-609.5 187.5,-609.5 187.5,-552.5 143.5,-552.5"/>
<text text-anchor="middle" x="165.5" y="-597.5" font-family="Helvetica,sans-Serif" font-size="10.00">Image</text>
<polyline fill="none" stroke="black" points="143.5,-590.5 187.5,-590.5 "/>
<text text-anchor="middle" x="165.5" y="-578.5" font-family="Helvetica,sans-Serif" font-size="10.00"> </text>
<polyline fill="none" stroke="black" points="143.5,-571.5 187.5,-571.5 "/>
<text text-anchor="middle" x="165.5" y="-559.5" font-family="Helvetica,sans-Serif" font-size="10.00"> </text>
</a>
</g>
</g>
<!-- Node7&#45;&gt;Node2 -->
<g id="edge6" class="edge">
<title>Node7&#45;&gt;Node2</title>
<path fill="none" stroke="#404040" d="M164.76,-552.4C164.23,-532.42 163.46,-503.62 162.65,-473.01"/>
<polygon fill="none" stroke="#404040" points="162.64,-472.73 158.48,-466.84 162.32,-460.73 166.48,-466.62 162.64,-472.73"/>
<text text-anchor="middle" x="178.5" y="-482" font-family="Helvetica,sans-Serif" font-size="10.00"> &#45;image</text>
</g>
</g>
</svg>
