<?xml version="1.0" encoding="UTF-8" standalone="no"?>
<!DOCTYPE svg PUBLIC "-//W3C//DTD SVG 1.1//EN"
 "http://www.w3.org/Graphics/SVG/1.1/DTD/svg11.dtd">
<!-- Generated by graphviz version 3.0.0 (20221109.1736)
 -->
<!-- Title: objects.obstacles.Obstacle Pages: 1 -->
<svg width="496pt" height="1022pt"
 viewBox="0.00 0.00 495.50 1022.00" xmlns="http://www.w3.org/2000/svg" xmlns:xlink="http://www.w3.org/1999/xlink">
<g id="graph0" class="graph" transform="scale(1 1) rotate(0) translate(4 1018)">
<title>objects.obstacles.Obstacle</title>
<polygon fill="white" stroke="transparent" points="-4,4 -4,-1018 491.5,-1018 491.5,4 -4,4"/>
<!-- Node1 -->
<g id="node1" class="node">
<title>Node1</title>
<g id="a_node1"><a xlink:title=" ">
<polygon fill="#bfbfbf" stroke="black" points="134.5,-0.5 134.5,-90.5 376.5,-90.5 376.5,-0.5 134.5,-0.5"/>
<text text-anchor="middle" x="255.5" y="-78.5" font-family="Helvetica,sans-Serif" font-size="10.00">objects.obstacles.Obstacle</text>
<polyline fill="none" stroke="black" points="134.5,-71.5 376.5,-71.5 "/>
<text text-anchor="start" x="142.5" y="-59.5" font-family="Helvetica,sans-Serif" font-size="10.00">+ static final double obestacleWidth</text>
<polyline fill="none" stroke="black" points="134.5,-52.5 376.5,-52.5 "/>
<text text-anchor="start" x="142.5" y="-40.5" font-family="Helvetica,sans-Serif" font-size="10.00">+ Obstacle(Block.Lane lane, double y, double length)</text>
<text text-anchor="start" x="142.5" y="-29.5" font-family="Helvetica,sans-Serif" font-size="10.00">+ void addY(double diff)</text>
<text text-anchor="start" x="142.5" y="-18.5" font-family="Helvetica,sans-Serif" font-size="10.00">+ boolean isOffTheScreen()</text>
<text text-anchor="start" x="142.5" y="-7.5" font-family="Helvetica,sans-Serif" font-size="10.00">+ void Draw()</text>
</a>
</g>
</g>
<!-- Node2 -->
<g id="node2" class="node">
<title>Node2</title>
<g id="a_node2"><a xlink:href="classobjects_1_1GameLaneObject.html" target="_top" xlink:title=" ">
<polygon fill="white" stroke="black" points="86.5,-128.5 86.5,-262.5 424.5,-262.5 424.5,-128.5 86.5,-128.5"/>
<text text-anchor="middle" x="255.5" y="-250.5" font-family="Helvetica,sans-Serif" font-size="10.00">objects.GameLaneObject</text>
<polyline fill="none" stroke="black" points="86.5,-243.5 424.5,-243.5 "/>
<text text-anchor="middle" x="255.5" y="-231.5" font-family="Helvetica,sans-Serif" font-size="10.00"> </text>
<polyline fill="none" stroke="black" points="86.5,-224.5 424.5,-224.5 "/>
<text text-anchor="start" x="94.5" y="-212.5" font-family="Helvetica,sans-Serif" font-size="10.00">+ GameLaneObject(Block.Lane lane, double y, double width, double length)</text>
<text text-anchor="start" x="94.5" y="-201.5" font-family="Helvetica,sans-Serif" font-size="10.00">+ GameLaneObject(Block.Lane lane, double y, double cubeLength)</text>
<text text-anchor="start" x="94.5" y="-190.5" font-family="Helvetica,sans-Serif" font-size="10.00">+ void setLane(Block.Lane path)</text>
<text text-anchor="start" x="94.5" y="-179.5" font-family="Helvetica,sans-Serif" font-size="10.00">+ Block.Lane getLane()</text>
<text text-anchor="start" x="94.5" y="-168.5" font-family="Helvetica,sans-Serif" font-size="10.00">+ void Draw()</text>
<text text-anchor="start" x="94.5" y="-157.5" font-family="Helvetica,sans-Serif" font-size="10.00">+ boolean contains(Block.Lane lane, double y)</text>
<text text-anchor="start" x="94.5" y="-146.5" font-family="Helvetica,sans-Serif" font-size="10.00">+ boolean touches(GameLaneObject other)</text>
<text text-anchor="start" x="94.5" y="-135.5" font-family="Helvetica,sans-Serif" font-size="10.00">+ double distance(GameLaneObject other)</text>
</a>
</g>
</g>
<!-- Node2&#45;&gt;Node1 -->
<g id="edge1" class="edge">
<title>Node2&#45;&gt;Node1</title>
<path fill="none" stroke="midnightblue" d="M255.5,-118.07C255.5,-108.65 255.5,-99.28 255.5,-90.57"/>
<polygon fill="none" stroke="midnightblue" points="252,-118.29 255.5,-128.29 259,-118.29 252,-118.29"/>
</g>
<!-- Node3 -->
<g id="node3" class="node">
<title>Node3</title>
<g id="a_node3"><a xlink:href="classobjects_1_1GameObject.html" target="_top" xlink:title=" ">
<polygon fill="white" stroke="black" points="0,-300.5 0,-588.5 317,-588.5 317,-300.5 0,-300.5"/>
<text text-anchor="middle" x="158.5" y="-576.5" font-family="Helvetica,sans-Serif" font-size="10.00">objects.GameObject</text>
<polyline fill="none" stroke="black" points="0,-569.5 317,-569.5 "/>
<text text-anchor="start" x="8" y="-557.5" font-family="Helvetica,sans-Serif" font-size="10.00"># double x</text>
<text text-anchor="start" x="8" y="-546.5" font-family="Helvetica,sans-Serif" font-size="10.00"># double y</text>
<text text-anchor="start" x="8" y="-535.5" font-family="Helvetica,sans-Serif" font-size="10.00"># double width</text>
<text text-anchor="start" x="8" y="-524.5" font-family="Helvetica,sans-Serif" font-size="10.00"># double length</text>
<polyline fill="none" stroke="black" points="0,-517.5 317,-517.5 "/>
<text text-anchor="start" x="8" y="-505.5" font-family="Helvetica,sans-Serif" font-size="10.00">+ GameObject(double x, double y, double width, double length)</text>
<text text-anchor="start" x="8" y="-494.5" font-family="Helvetica,sans-Serif" font-size="10.00">+ GameObject(Block.Lane lane, double y, double width, double length)</text>
<text text-anchor="start" x="8" y="-483.5" font-family="Helvetica,sans-Serif" font-size="10.00">+ GameObject(Block.Lane lane, double y, double cubeLength)</text>
<text text-anchor="start" x="8" y="-472.5" font-family="Helvetica,sans-Serif" font-size="10.00">+ GameObject(double x, double y, double cubeLength)</text>
<text text-anchor="start" x="8" y="-461.5" font-family="Helvetica,sans-Serif" font-size="10.00">+ double getWidth()</text>
<text text-anchor="start" x="8" y="-450.5" font-family="Helvetica,sans-Serif" font-size="10.00">+ double getLength()</text>
<text text-anchor="start" x="8" y="-439.5" font-family="Helvetica,sans-Serif" font-size="10.00">+ void setColor(Color color)</text>
<text text-anchor="start" x="8" y="-428.5" font-family="Helvetica,sans-Serif" font-size="10.00">+ void setLane(Block.Lane path)</text>
<text text-anchor="start" x="8" y="-417.5" font-family="Helvetica,sans-Serif" font-size="10.00">+ void setImage(Image image)</text>
<text text-anchor="start" x="8" y="-406.5" font-family="Helvetica,sans-Serif" font-size="10.00">+ Block.Lane getLane()</text>
<text text-anchor="start" x="8" y="-395.5" font-family="Helvetica,sans-Serif" font-size="10.00">+ Image getImage()</text>
<text text-anchor="start" x="8" y="-384.5" font-family="Helvetica,sans-Serif" font-size="10.00">+ void setX(double x)</text>
<text text-anchor="start" x="8" y="-373.5" font-family="Helvetica,sans-Serif" font-size="10.00">+ void setY(double y)</text>
<text text-anchor="start" x="8" y="-362.5" font-family="Helvetica,sans-Serif" font-size="10.00">+ double getY()</text>
<text text-anchor="start" x="8" y="-351.5" font-family="Helvetica,sans-Serif" font-size="10.00">+ double getX()</text>
<text text-anchor="start" x="8" y="-340.5" font-family="Helvetica,sans-Serif" font-size="10.00">+ void Draw()</text>
<text text-anchor="start" x="8" y="-329.5" font-family="Helvetica,sans-Serif" font-size="10.00">+ boolean interesects(double x, double y)</text>
<text text-anchor="start" x="8" y="-318.5" font-family="Helvetica,sans-Serif" font-size="10.00">+ boolean interesects(Block.Lane lane, double y)</text>
<text text-anchor="start" x="8" y="-307.5" font-family="Helvetica,sans-Serif" font-size="10.00">+ boolean touches(GameObject other)</text>
</a>
</g>
</g>
<!-- Node3&#45;&gt;Node2 -->
<g id="edge2" class="edge">
<title>Node3&#45;&gt;Node2</title>
<path fill="none" stroke="midnightblue" d="M218.46,-290.81C222.27,-281.1 225.98,-271.66 229.49,-262.73"/>
<polygon fill="none" stroke="midnightblue" points="215.18,-289.59 214.78,-300.18 221.7,-292.15 215.18,-289.59"/>
</g>
<!-- Node4 -->
<g id="node4" class="node">
<title>Node4</title>
<g id="a_node4"><a xlink:title=" ">
<polygon fill="white" stroke="black" points="86,-680.5 86,-737.5 125,-737.5 125,-680.5 86,-680.5"/>
<text text-anchor="middle" x="105.5" y="-725.5" font-family="Helvetica,sans-Serif" font-size="10.00">Color</text>
<polyline fill="none" stroke="black" points="86,-718.5 125,-718.5 "/>
<text text-anchor="middle" x="105.5" y="-706.5" font-family="Helvetica,sans-Serif" font-size="10.00"> </text>
<polyline fill="none" stroke="black" points="86,-699.5 125,-699.5 "/>
<text text-anchor="middle" x="105.5" y="-687.5" font-family="Helvetica,sans-Serif" font-size="10.00"> </text>
</a>
</g>
</g>
<!-- Node4&#45;&gt;Node3 -->
<g id="edge3" class="edge">
<title>Node4&#45;&gt;Node3</title>
<path fill="none" stroke="#404040" d="M111.07,-680.4C115.13,-660.33 120.97,-631.37 127.18,-600.6"/>
<polygon fill="none" stroke="#404040" points="127.21,-600.5 124.47,-593.82 129.58,-588.73 132.31,-595.41 127.21,-600.5"/>
<text text-anchor="middle" x="140" y="-610" font-family="Helvetica,sans-Serif" font-size="10.00"> #color</text>
</g>
<!-- Node5 -->
<g id="node5" class="node">
<title>Node5</title>
<g id="a_node5"><a xlink:href="classobjects_1_1obstacles_1_1Block.html" target="_top" xlink:title=" ">
<polygon fill="white" stroke="black" points="219.5,-636.5 219.5,-781.5 473.5,-781.5 473.5,-636.5 219.5,-636.5"/>
<text text-anchor="middle" x="346.5" y="-769.5" font-family="Helvetica,sans-Serif" font-size="10.00">objects.obstacles.Block</text>
<polyline fill="none" stroke="black" points="219.5,-762.5 473.5,-762.5 "/>
<text text-anchor="start" x="227.5" y="-750.5" font-family="Helvetica,sans-Serif" font-size="10.00">+ static final double speed</text>
<text text-anchor="start" x="227.5" y="-739.5" font-family="Helvetica,sans-Serif" font-size="10.00">&#45; double currentY</text>
<polyline fill="none" stroke="black" points="219.5,-732.5 473.5,-732.5 "/>
<text text-anchor="start" x="227.5" y="-720.5" font-family="Helvetica,sans-Serif" font-size="10.00">+ Block(ArrayList&lt; Obstacle &gt; left, ArrayList&lt; Obstacle</text>
<text text-anchor="start" x="227.5" y="-709.5" font-family="Helvetica,sans-Serif" font-size="10.00"> &gt; center, ArrayList&lt; Obstacle &gt; right)</text>
<text text-anchor="start" x="227.5" y="-698.5" font-family="Helvetica,sans-Serif" font-size="10.00">+ double getCurrentY()</text>
<text text-anchor="start" x="227.5" y="-687.5" font-family="Helvetica,sans-Serif" font-size="10.00">+ ArrayList&lt; Obstacle &gt; getLane(Lane lane)</text>
<text text-anchor="start" x="227.5" y="-676.5" font-family="Helvetica,sans-Serif" font-size="10.00">+ ArrayList&lt; Obstacle &gt; getLeftLane()</text>
<text text-anchor="start" x="227.5" y="-665.5" font-family="Helvetica,sans-Serif" font-size="10.00">+ ArrayList&lt; Obstacle &gt; getCenterLane()</text>
<text text-anchor="start" x="227.5" y="-654.5" font-family="Helvetica,sans-Serif" font-size="10.00">+ ArrayList&lt; Obstacle &gt; getRightLane()</text>
<text text-anchor="start" x="227.5" y="-643.5" font-family="Helvetica,sans-Serif" font-size="10.00">+ void frameUpdate()</text>
</a>
</g>
</g>
<!-- Node5&#45;&gt;Node2 -->
<g id="edge8" class="edge">
<title>Node5&#45;&gt;Node2</title>
<path fill="none" stroke="#404040" d="M354.56,-636.16C361.29,-552.91 364.5,-412.73 326.5,-300 323.43,-290.9 319.32,-281.86 314.6,-273.14"/>
<polygon fill="none" stroke="#404040" points="314.57,-273.08 308.11,-269.87 308.59,-262.67 315.05,-265.88 314.57,-273.08"/>
<text text-anchor="middle" x="371.5" y="-442" font-family="Helvetica,sans-Serif" font-size="10.00"> #lane</text>
</g>
<!-- Node5&#45;&gt;Node3 -->
<g id="edge4" class="edge">
<title>Node5&#45;&gt;Node3</title>
<path fill="none" stroke="#404040" d="M295.13,-636.27C286.59,-624.36 277.47,-611.61 268.13,-598.57"/>
<polygon fill="none" stroke="#404040" points="267.94,-598.3 261.19,-595.75 260.95,-588.55 267.7,-591.1 267.94,-598.3"/>
<text text-anchor="middle" x="292.5" y="-610" font-family="Helvetica,sans-Serif" font-size="10.00"> #lane</text>
</g>
<!-- Node6 -->
<g id="node6" class="node">
<title>Node6</title>
<g id="a_node6"><a xlink:title=" ">
<polygon fill="white" stroke="black" points="252,-851.5 252,-908.5 441,-908.5 441,-851.5 252,-851.5"/>
<text text-anchor="middle" x="346.5" y="-896.5" font-family="Helvetica,sans-Serif" font-size="10.00">ArrayList&lt; objects.obstacles.Obstacle &gt;</text>
<polyline fill="none" stroke="black" points="252,-889.5 441,-889.5 "/>
<text text-anchor="middle" x="346.5" y="-877.5" font-family="Helvetica,sans-Serif" font-size="10.00"> </text>
<polyline fill="none" stroke="black" points="252,-870.5 441,-870.5 "/>
<text text-anchor="middle" x="346.5" y="-858.5" font-family="Helvetica,sans-Serif" font-size="10.00"> </text>
</a>
</g>
</g>
<!-- Node6&#45;&gt;Node5 -->
<g id="edge5" class="edge">
<title>Node6&#45;&gt;Node5</title>
<path fill="none" stroke="#404040" d="M346.5,-851.47C346.5,-835.6 346.5,-814.71 346.5,-793.87"/>
<polygon fill="none" stroke="#404040" points="346.5,-793.64 342.5,-787.64 346.5,-781.64 350.5,-787.64 346.5,-793.64"/>
<text text-anchor="middle" x="363" y="-825" font-family="Helvetica,sans-Serif" font-size="10.00"> &#45;center</text>
<text text-anchor="middle" x="363" y="-814" font-family="Helvetica,sans-Serif" font-size="10.00">&#45;left</text>
<text text-anchor="middle" x="363" y="-803" font-family="Helvetica,sans-Serif" font-size="10.00">&#45;right</text>
</g>
<!-- Node7 -->
<g id="node7" class="node">
<title>Node7</title>
<g id="a_node7"><a xlink:title=" ">
<polygon fill="white" stroke="black" points="318.5,-956.5 318.5,-1013.5 374.5,-1013.5 374.5,-956.5 318.5,-956.5"/>
<text text-anchor="middle" x="346.5" y="-1001.5" font-family="Helvetica,sans-Serif" font-size="10.00">ArrayList</text>
<polyline fill="none" stroke="black" points="318.5,-994.5 374.5,-994.5 "/>
<text text-anchor="middle" x="346.5" y="-982.5" font-family="Helvetica,sans-Serif" font-size="10.00"> </text>
<polyline fill="none" stroke="black" points="318.5,-975.5 374.5,-975.5 "/>
<text text-anchor="middle" x="346.5" y="-963.5" font-family="Helvetica,sans-Serif" font-size="10.00"> </text>
</a>
</g>
</g>
<!-- Node7&#45;&gt;Node6 -->
<g id="edge6" class="edge">
<title>Node7&#45;&gt;Node6</title>
<path fill="none" stroke="orange" d="M346.5,-946.29C346.5,-933.84 346.5,-920.23 346.5,-908.68"/>
<polygon fill="orange" stroke="orange" points="343,-946.4 346.5,-956.4 350,-946.4 343,-946.4"/>
<text text-anchor="middle" x="417" y="-930" font-family="Helvetica,sans-Serif" font-size="10.00"> &lt; objects::obstacles::Obstacle &gt;</text>
</g>
<!-- Node8 -->
<g id="node8" class="node">
<title>Node8</title>
<g id="a_node8"><a xlink:title=" ">
<polygon fill="white" stroke="black" points="143.5,-680.5 143.5,-737.5 187.5,-737.5 187.5,-680.5 143.5,-680.5"/>
<text text-anchor="middle" x="165.5" y="-725.5" font-family="Helvetica,sans-Serif" font-size="10.00">Image</text>
<polyline fill="none" stroke="black" points="143.5,-718.5 187.5,-718.5 "/>
<text text-anchor="middle" x="165.5" y="-706.5" font-family="Helvetica,sans-Serif" font-size="10.00"> </text>
<polyline fill="none" stroke="black" points="143.5,-699.5 187.5,-699.5 "/>
<text text-anchor="middle" x="165.5" y="-687.5" font-family="Helvetica,sans-Serif" font-size="10.00"> </text>
</a>
</g>
</g>
<!-- Node8&#45;&gt;Node3 -->
<g id="edge7" class="edge">
<title>Node8&#45;&gt;Node3</title>
<path fill="none" stroke="#404040" d="M164.76,-680.4C164.23,-660.42 163.46,-631.62 162.65,-601.01"/>
<polygon fill="none" stroke="#404040" points="162.64,-600.73 158.48,-594.84 162.32,-588.73 166.48,-594.62 162.64,-600.73"/>
<text text-anchor="middle" x="178.5" y="-610" font-family="Helvetica,sans-Serif" font-size="10.00"> &#45;image</text>
</g>
</g>
</svg>
