<?xml version="1.0" encoding="UTF-8" standalone="no"?>
<!DOCTYPE svg PUBLIC "-//W3C//DTD SVG 1.1//EN"
 "http://www.w3.org/Graphics/SVG/1.1/DTD/svg11.dtd">
<!-- Generated by graphviz version 8.0.3 (0)
 -->
<!-- Title: objects.Trailer Pages: 1 -->
<svg width="490pt" height="1106pt"
 viewBox="0.00 0.00 489.50 1106.00" xmlns="http://www.w3.org/2000/svg" xmlns:xlink="http://www.w3.org/1999/xlink">
<g id="graph0" class="graph" transform="scale(1 1) rotate(0) translate(4 1102)">
<title>objects.Trailer</title>
<!-- Node1 -->
<g id="node1" class="node">
<title>Node1</title>
<g id="a_node1"><a xlink:title=" ">
<polygon fill="#999999" stroke="#666666" points="165,-0.5 165,-112.5 356,-112.5 356,-0.5 165,-0.5"/>
<text text-anchor="middle" x="260.5" y="-100.5" font-family="Helvetica,sans-Serif" font-size="10.00">objects.Trailer</text>
<polyline fill="none" stroke="#666666" points="165,-93.5 356,-93.5"/>
<text text-anchor="start" x="173" y="-81.5" font-family="Helvetica,sans-Serif" font-size="10.00">+ static final double singleTrailerLength</text>
<text text-anchor="start" x="173" y="-70.5" font-family="Helvetica,sans-Serif" font-size="10.00">+ static final int maxNumberOfTrailers</text>
<text text-anchor="start" x="173" y="-59.5" font-family="Helvetica,sans-Serif" font-size="10.00"># final int count</text>
<polyline fill="none" stroke="#666666" points="165,-52.5 356,-52.5"/>
<text text-anchor="start" x="173" y="-40.5" font-family="Helvetica,sans-Serif" font-size="10.00">+ Trailer(Block.Lane lane, int count)</text>
<text text-anchor="start" x="173" y="-29.5" font-family="Helvetica,sans-Serif" font-size="10.00">+ Trailer(Block.Lane lane)</text>
<text text-anchor="start" x="173" y="-18.5" font-family="Helvetica,sans-Serif" font-size="10.00">+ Trailer(Block.Lane lane, double length)</text>
<text text-anchor="start" x="173" y="-7.5" font-family="Helvetica,sans-Serif" font-size="10.00">+ void Draw()</text>
</a>
</g>
</g>
<!-- Node2 -->
<g id="node2" class="node">
<title>Node2</title>
<g id="a_node2"><a xlink:href="classobjects_1_1Obstacle.html" target="_top" xlink:title=" ">
<polygon fill="white" stroke="#666666" points="137.5,-150.5 137.5,-229.5 383.5,-229.5 383.5,-150.5 137.5,-150.5"/>
<text text-anchor="middle" x="260.5" y="-217.5" font-family="Helvetica,sans-Serif" font-size="10.00">objects.Obstacle</text>
<polyline fill="none" stroke="#666666" points="137.5,-210.5 383.5,-210.5"/>
<text text-anchor="start" x="145.5" y="-198.5" font-family="Helvetica,sans-Serif" font-size="10.00">+ static final double obestacleWidth</text>
<polyline fill="none" stroke="#666666" points="137.5,-191.5 383.5,-191.5"/>
<text text-anchor="start" x="145.5" y="-179.5" font-family="Helvetica,sans-Serif" font-size="10.00">+ Obstacle(Block.Lane lane, double y, double length)</text>
<text text-anchor="start" x="145.5" y="-168.5" font-family="Helvetica,sans-Serif" font-size="10.00">+ void setY(double y)</text>
<text text-anchor="start" x="145.5" y="-157.5" font-family="Helvetica,sans-Serif" font-size="10.00">+ void addY(double diff)</text>
</a>
</g>
</g>
<!-- Node2&#45;&gt;Node1 -->
<g id="edge1" class="edge">
<title>Node2&#45;&gt;Node1</title>
<path fill="none" stroke="#63b8ff" d="M260.5,-139.9C260.5,-130.9 260.5,-121.46 260.5,-112.31"/>
<polygon fill="none" stroke="#63b8ff" points="257,-139.61 260.5,-149.61 264,-139.61 257,-139.61"/>
</g>
<!-- Node3 -->
<g id="node3" class="node">
<title>Node3</title>
<g id="a_node3"><a xlink:href="classobjects_1_1GameLaneObject.html" target="_top" xlink:title=" ">
<polygon fill="white" stroke="#666666" points="88.5,-267.5 88.5,-390.5 432.5,-390.5 432.5,-267.5 88.5,-267.5"/>
<text text-anchor="middle" x="260.5" y="-378.5" font-family="Helvetica,sans-Serif" font-size="10.00">objects.GameLaneObject</text>
<polyline fill="none" stroke="#666666" points="88.5,-371.5 432.5,-371.5"/>
<text text-anchor="middle" x="260.5" y="-359.5" font-family="Helvetica,sans-Serif" font-size="10.00"> </text>
<polyline fill="none" stroke="#666666" points="88.5,-352.5 432.5,-352.5"/>
<text text-anchor="start" x="96.5" y="-340.5" font-family="Helvetica,sans-Serif" font-size="10.00">+ GameLaneObject(Block.Lane lane, double y, double width, double length)</text>
<text text-anchor="start" x="96.5" y="-329.5" font-family="Helvetica,sans-Serif" font-size="10.00">+ GameLaneObject(Block.Lane lane, double y, double cubeLength)</text>
<text text-anchor="start" x="96.5" y="-318.5" font-family="Helvetica,sans-Serif" font-size="10.00">+ void setLanePath(Block.Lane path)</text>
<text text-anchor="start" x="96.5" y="-307.5" font-family="Helvetica,sans-Serif" font-size="10.00">+ Block.Lane getLane()</text>
<text text-anchor="start" x="96.5" y="-296.5" font-family="Helvetica,sans-Serif" font-size="10.00">+ void Draw()</text>
<text text-anchor="start" x="96.5" y="-285.5" font-family="Helvetica,sans-Serif" font-size="10.00">+ boolean contains(Block.Lane lane, double y)</text>
<text text-anchor="start" x="96.5" y="-274.5" font-family="Helvetica,sans-Serif" font-size="10.00">+ boolean touches(GameLaneObject other)</text>
</a>
</g>
</g>
<!-- Node3&#45;&gt;Node2 -->
<g id="edge2" class="edge">
<title>Node3&#45;&gt;Node2</title>
<path fill="none" stroke="#63b8ff" d="M260.5,-256.76C260.5,-247.23 260.5,-237.77 260.5,-229.12"/>
<polygon fill="none" stroke="#63b8ff" points="257,-256.51 260.5,-266.51 264,-256.51 257,-256.51"/>
</g>
<!-- Node4 -->
<g id="node4" class="node">
<title>Node4</title>
<g id="a_node4"><a xlink:href="classobjects_1_1GameObject.html" target="_top" xlink:title=" ">
<polygon fill="white" stroke="#666666" points="0,-428.5 0,-705.5 323,-705.5 323,-428.5 0,-428.5"/>
<text text-anchor="middle" x="161.5" y="-693.5" font-family="Helvetica,sans-Serif" font-size="10.00">objects.GameObject</text>
<polyline fill="none" stroke="#666666" points="0,-686.5 323,-686.5"/>
<text text-anchor="start" x="8" y="-674.5" font-family="Helvetica,sans-Serif" font-size="10.00"># double x</text>
<text text-anchor="start" x="8" y="-663.5" font-family="Helvetica,sans-Serif" font-size="10.00"># double y</text>
<text text-anchor="start" x="8" y="-652.5" font-family="Helvetica,sans-Serif" font-size="10.00"># double width</text>
<text text-anchor="start" x="8" y="-641.5" font-family="Helvetica,sans-Serif" font-size="10.00"># double length</text>
<polyline fill="none" stroke="#666666" points="0,-634.5 323,-634.5"/>
<text text-anchor="start" x="8" y="-622.5" font-family="Helvetica,sans-Serif" font-size="10.00">+ GameObject(double x, double y, double width, double length)</text>
<text text-anchor="start" x="8" y="-611.5" font-family="Helvetica,sans-Serif" font-size="10.00">+ GameObject(Block.Lane lane, double y, double width, double length)</text>
<text text-anchor="start" x="8" y="-600.5" font-family="Helvetica,sans-Serif" font-size="10.00">+ GameObject(Block.Lane lane, double y, double cubeLength)</text>
<text text-anchor="start" x="8" y="-589.5" font-family="Helvetica,sans-Serif" font-size="10.00">+ GameObject(double x, double y, double cubeLength)</text>
<text text-anchor="start" x="8" y="-578.5" font-family="Helvetica,sans-Serif" font-size="10.00">+ double getWidth()</text>
<text text-anchor="start" x="8" y="-567.5" font-family="Helvetica,sans-Serif" font-size="10.00">+ double getLength()</text>
<text text-anchor="start" x="8" y="-556.5" font-family="Helvetica,sans-Serif" font-size="10.00">+ void setColor(Color color)</text>
<text text-anchor="start" x="8" y="-545.5" font-family="Helvetica,sans-Serif" font-size="10.00">+ void setLanePath(Block.Lane path)</text>
<text text-anchor="start" x="8" y="-534.5" font-family="Helvetica,sans-Serif" font-size="10.00">+ Block.Lane getLane()</text>
<text text-anchor="start" x="8" y="-523.5" font-family="Helvetica,sans-Serif" font-size="10.00">+ void setX(double x)</text>
<text text-anchor="start" x="8" y="-512.5" font-family="Helvetica,sans-Serif" font-size="10.00">+ void setY(double y)</text>
<text text-anchor="start" x="8" y="-501.5" font-family="Helvetica,sans-Serif" font-size="10.00">+ double getY()</text>
<text text-anchor="start" x="8" y="-490.5" font-family="Helvetica,sans-Serif" font-size="10.00">+ double getX()</text>
<text text-anchor="start" x="8" y="-479.5" font-family="Helvetica,sans-Serif" font-size="10.00">+ void Draw()</text>
<text text-anchor="start" x="8" y="-468.5" font-family="Helvetica,sans-Serif" font-size="10.00">+ boolean interesects(double x, double y)</text>
<text text-anchor="start" x="8" y="-457.5" font-family="Helvetica,sans-Serif" font-size="10.00">+ boolean interesects(Block.Lane lane, double y)</text>
<text text-anchor="start" x="8" y="-446.5" font-family="Helvetica,sans-Serif" font-size="10.00">+ boolean touches(GameObject other)</text>
<text text-anchor="start" x="8" y="-435.5" font-family="Helvetica,sans-Serif" font-size="10.00">+ boolean within(GameObject other)</text>
</a>
</g>
</g>
<!-- Node4&#45;&gt;Node3 -->
<g id="edge3" class="edge">
<title>Node4&#45;&gt;Node3</title>
<path fill="none" stroke="#63b8ff" d="M223.27,-418.75C227.41,-408.88 231.43,-399.29 235.21,-390.3"/>
<polygon fill="none" stroke="#63b8ff" points="219.73,-417.14 219.09,-427.72 226.18,-419.85 219.73,-417.14"/>
</g>
<!-- Node5 -->
<g id="node5" class="node">
<title>Node5</title>
<g id="a_node5"><a xlink:title=" ">
<polygon fill="white" stroke="#666666" points="89.5,-781 89.5,-838 129.5,-838 129.5,-781 89.5,-781"/>
<text text-anchor="middle" x="109.5" y="-826" font-family="Helvetica,sans-Serif" font-size="10.00">Color</text>
<polyline fill="none" stroke="#666666" points="89.5,-819 129.5,-819"/>
<text text-anchor="middle" x="109.5" y="-807" font-family="Helvetica,sans-Serif" font-size="10.00"> </text>
<polyline fill="none" stroke="#666666" points="89.5,-800 129.5,-800"/>
<text text-anchor="middle" x="109.5" y="-788" font-family="Helvetica,sans-Serif" font-size="10.00"> </text>
</a>
</g>
</g>
<!-- Node5&#45;&gt;Node4 -->
<g id="edge4" class="edge">
<title>Node5&#45;&gt;Node4</title>
<path fill="none" stroke="#404040" d="M115.36,-781.38C118.94,-764.83 123.83,-742.21 129.1,-717.87"/>
<polygon fill="none" stroke="#404040" points="129.07,-718.01 126.42,-711.3 131.6,-706.28 134.24,-712.99 129.07,-718.01"/>
<text text-anchor="middle" x="140.5" y="-727" font-family="Helvetica,sans-Serif" font-size="10.00"> #color</text>
</g>
<!-- Node6 -->
<g id="node6" class="node">
<title>Node6</title>
<g id="a_node6"><a xlink:title=" ">
<polygon fill="white" stroke="#666666" points="147.5,-781 147.5,-838 191.5,-838 191.5,-781 147.5,-781"/>
<text text-anchor="middle" x="169.5" y="-826" font-family="Helvetica,sans-Serif" font-size="10.00">Image</text>
<polyline fill="none" stroke="#666666" points="147.5,-819 191.5,-819"/>
<text text-anchor="middle" x="169.5" y="-807" font-family="Helvetica,sans-Serif" font-size="10.00"> </text>
<polyline fill="none" stroke="#666666" points="147.5,-800 191.5,-800"/>
<text text-anchor="middle" x="169.5" y="-788" font-family="Helvetica,sans-Serif" font-size="10.00"> </text>
</a>
</g>
</g>
<!-- Node6&#45;&gt;Node4 -->
<g id="edge5" class="edge">
<title>Node6&#45;&gt;Node4</title>
<path fill="none" stroke="#404040" d="M168.6,-781.38C168.05,-764.9 167.3,-742.42 166.5,-718.2"/>
<polygon fill="none" stroke="#404040" points="166.5,-718.29 162.3,-712.43 166.1,-706.3 170.3,-712.16 166.5,-718.29"/>
<text text-anchor="middle" x="184" y="-727" font-family="Helvetica,sans-Serif" font-size="10.00"> #image</text>
</g>
<!-- Node7 -->
<g id="node7" class="node">
<title>Node7</title>
<g id="a_node7"><a xlink:href="classobjects_1_1Block.html" target="_top" xlink:title=" ">
<polygon fill="white" stroke="#666666" points="223.5,-753.5 223.5,-865.5 481.5,-865.5 481.5,-753.5 223.5,-753.5"/>
<text text-anchor="middle" x="352.5" y="-853.5" font-family="Helvetica,sans-Serif" font-size="10.00">objects.Block</text>
<polyline fill="none" stroke="#666666" points="223.5,-846.5 481.5,-846.5"/>
<text text-anchor="start" x="231.5" y="-834.5" font-family="Helvetica,sans-Serif" font-size="10.00">+ static final double speed</text>
<text text-anchor="start" x="231.5" y="-823.5" font-family="Helvetica,sans-Serif" font-size="10.00">&#45; double currentY</text>
<polyline fill="none" stroke="#666666" points="223.5,-816.5 481.5,-816.5"/>
<text text-anchor="start" x="231.5" y="-804.5" font-family="Helvetica,sans-Serif" font-size="10.00">+ Block(ArrayList&lt; Obstacle &gt; left, ArrayList&lt; Obstacle</text>
<text text-anchor="start" x="231.5" y="-793.5" font-family="Helvetica,sans-Serif" font-size="10.00"> &gt; center, ArrayList&lt; Obstacle &gt; right)</text>
<text text-anchor="start" x="231.5" y="-782.5" font-family="Helvetica,sans-Serif" font-size="10.00">+ void frameUpdate()</text>
<text text-anchor="start" x="231.5" y="-771.5" font-family="Helvetica,sans-Serif" font-size="10.00">+ double getCurrentY()</text>
<text text-anchor="start" x="231.5" y="-760.5" font-family="Helvetica,sans-Serif" font-size="10.00">+ ArrayList&lt; Obstacle &gt; getLane(Lane lane)</text>
</a>
</g>
</g>
<!-- Node7&#45;&gt;Node3 -->
<g id="edge9" class="edge">
<title>Node7&#45;&gt;Node3</title>
<path fill="none" stroke="#404040" d="M359.21,-753.66C366.37,-677.95 371.89,-538.26 332.5,-428 329.27,-418.95 324.9,-410.01 319.92,-401.44"/>
<polygon fill="none" stroke="#404040" points="319.86,-401.35 313.3,-398.38 313.52,-391.17 320.09,-394.15 319.86,-401.35"/>
<text text-anchor="middle" x="377" y="-564.5" font-family="Helvetica,sans-Serif" font-size="10.00"> #lane</text>
</g>
<!-- Node7&#45;&gt;Node4 -->
<g id="edge6" class="edge">
<title>Node7&#45;&gt;Node4</title>
<path fill="none" stroke="#404040" d="M308.92,-753.63C299.53,-741.8 289.18,-728.76 278.44,-715.25"/>
<polygon fill="none" stroke="#404040" points="278.59,-715.43 271.72,-713.22 271.13,-706.04 277.99,-708.25 278.59,-715.43"/>
<text text-anchor="middle" x="304" y="-727" font-family="Helvetica,sans-Serif" font-size="10.00"> #lane</text>
</g>
<!-- Node8 -->
<g id="node8" class="node">
<title>Node8</title>
<g id="a_node8"><a xlink:title=" ">
<polygon fill="white" stroke="#666666" points="279,-935.5 279,-992.5 426,-992.5 426,-935.5 279,-935.5"/>
<text text-anchor="middle" x="352.5" y="-980.5" font-family="Helvetica,sans-Serif" font-size="10.00">ArrayList&lt; objects.Obstacle &gt;</text>
<polyline fill="none" stroke="#666666" points="279,-973.5 426,-973.5"/>
<text text-anchor="middle" x="352.5" y="-961.5" font-family="Helvetica,sans-Serif" font-size="10.00"> </text>
<polyline fill="none" stroke="#666666" points="279,-954.5 426,-954.5"/>
<text text-anchor="middle" x="352.5" y="-942.5" font-family="Helvetica,sans-Serif" font-size="10.00"> </text>
</a>
</g>
</g>
<!-- Node8&#45;&gt;Node7 -->
<g id="edge7" class="edge">
<title>Node8&#45;&gt;Node7</title>
<path fill="none" stroke="#404040" d="M352.5,-935.74C352.5,-919.64 352.5,-898.48 352.5,-878.16"/>
<polygon fill="none" stroke="#404040" points="352.5,-878.22 348.5,-872.22 352.5,-866.22 356.5,-872.22 352.5,-878.22"/>
<text text-anchor="middle" x="371" y="-909" font-family="Helvetica,sans-Serif" font-size="10.00"> +center</text>
<text text-anchor="middle" x="371" y="-898" font-family="Helvetica,sans-Serif" font-size="10.00">+left</text>
<text text-anchor="middle" x="371" y="-887" font-family="Helvetica,sans-Serif" font-size="10.00">+right</text>
</g>
<!-- Node9 -->
<g id="node9" class="node">
<title>Node9</title>
<g id="a_node9"><a xlink:title=" ">
<polygon fill="white" stroke="#666666" points="324.5,-1040.5 324.5,-1097.5 380.5,-1097.5 380.5,-1040.5 324.5,-1040.5"/>
<text text-anchor="middle" x="352.5" y="-1085.5" font-family="Helvetica,sans-Serif" font-size="10.00">ArrayList</text>
<polyline fill="none" stroke="#666666" points="324.5,-1078.5 380.5,-1078.5"/>
<text text-anchor="middle" x="352.5" y="-1066.5" font-family="Helvetica,sans-Serif" font-size="10.00"> </text>
<polyline fill="none" stroke="#666666" points="324.5,-1059.5 380.5,-1059.5"/>
<text text-anchor="middle" x="352.5" y="-1047.5" font-family="Helvetica,sans-Serif" font-size="10.00"> </text>
</a>
</g>
</g>
<!-- Node9&#45;&gt;Node8 -->
<g id="edge8" class="edge">
<title>Node9&#45;&gt;Node8</title>
<path fill="none" stroke="orange" d="M352.5,-1029.71C352.5,-1017.34 352.5,-1003.88 352.5,-992.46"/>
<polygon fill="orange" stroke="orange" points="349,-1029.67 352.5,-1039.67 356,-1029.67 349,-1029.67"/>
<text text-anchor="middle" x="401.5" y="-1014" font-family="Helvetica,sans-Serif" font-size="10.00"> &lt; objects::Obstacle &gt;</text>
</g>
</g>
</svg>
