<?xml version="1.0" encoding="UTF-8" standalone="no"?>
<!DOCTYPE svg PUBLIC "-//W3C//DTD SVG 1.1//EN"
 "http://www.w3.org/Graphics/SVG/1.1/DTD/svg11.dtd">
<!-- Generated by graphviz version 8.0.3 (0)
 -->
<!-- Title: eu.anwar.madrunner.objects.Ground Pages: 1 -->
<svg width="442pt" height="850pt"
 viewBox="0.00 0.00 442.00 850.00" xmlns="http://www.w3.org/2000/svg" xmlns:xlink="http://www.w3.org/1999/xlink">
<g id="graph0" class="graph" transform="scale(1 1) rotate(0) translate(4 846)">
<title>eu.anwar.madrunner.objects.Ground</title>
<!-- Node1 -->
<g id="node1" class="node">
<title>Node1</title>
<g id="a_node1"><a xlink:title=" ">
<polygon fill="#999999" stroke="#666666" points="156,-0.5 156,-90.5 380,-90.5 380,-0.5 156,-0.5"/>
<text text-anchor="middle" x="268" y="-78.5" font-family="Helvetica,sans-Serif" font-size="10.00">eu.anwar.madrunner.objects.Ground</text>
<polyline fill="none" stroke="#666666" points="156,-71.5 380,-71.5"/>
<text text-anchor="start" x="164" y="-59.5" font-family="Helvetica,sans-Serif" font-size="10.00">+ static final double laneImageWidth</text>
<text text-anchor="start" x="164" y="-48.5" font-family="Helvetica,sans-Serif" font-size="10.00">&#45; double yDisplacement</text>
<polyline fill="none" stroke="#666666" points="156,-41.5 380,-41.5"/>
<text text-anchor="start" x="164" y="-29.5" font-family="Helvetica,sans-Serif" font-size="10.00">+ Ground(double x, double width, double length)</text>
<text text-anchor="start" x="164" y="-18.5" font-family="Helvetica,sans-Serif" font-size="10.00">+ void frameUpdate()</text>
<text text-anchor="start" x="164" y="-7.5" font-family="Helvetica,sans-Serif" font-size="10.00">+ void Draw()</text>
</a>
</g>
</g>
<!-- Node2 -->
<g id="node2" class="node">
<title>Node2</title>
<g id="a_node2"><a xlink:href="classeu_1_1anwar_1_1madrunner_1_1objects_1_1GameObject.html" target="_top" xlink:title=" ">
<polygon fill="white" stroke="#666666" points="7.5,-128.5 7.5,-416.5 330.5,-416.5 330.5,-128.5 7.5,-128.5"/>
<text text-anchor="middle" x="169" y="-404.5" font-family="Helvetica,sans-Serif" font-size="10.00">eu.anwar.madrunner.objects.GameObject</text>
<polyline fill="none" stroke="#666666" points="7.5,-397.5 330.5,-397.5"/>
<text text-anchor="start" x="15.5" y="-385.5" font-family="Helvetica,sans-Serif" font-size="10.00"># double x</text>
<text text-anchor="start" x="15.5" y="-374.5" font-family="Helvetica,sans-Serif" font-size="10.00"># double y</text>
<text text-anchor="start" x="15.5" y="-363.5" font-family="Helvetica,sans-Serif" font-size="10.00"># double width</text>
<text text-anchor="start" x="15.5" y="-352.5" font-family="Helvetica,sans-Serif" font-size="10.00"># double length</text>
<polyline fill="none" stroke="#666666" points="7.5,-345.5 330.5,-345.5"/>
<text text-anchor="start" x="15.5" y="-333.5" font-family="Helvetica,sans-Serif" font-size="10.00">+ GameObject(double x, double y, double width, double length)</text>
<text text-anchor="start" x="15.5" y="-322.5" font-family="Helvetica,sans-Serif" font-size="10.00">+ GameObject(Block.Lane lane, double y, double width, double length)</text>
<text text-anchor="start" x="15.5" y="-311.5" font-family="Helvetica,sans-Serif" font-size="10.00">+ GameObject(Block.Lane lane, double y, double cubeLength)</text>
<text text-anchor="start" x="15.5" y="-300.5" font-family="Helvetica,sans-Serif" font-size="10.00">+ GameObject(double x, double y, double cubeLength)</text>
<text text-anchor="start" x="15.5" y="-289.5" font-family="Helvetica,sans-Serif" font-size="10.00">+ double getWidth()</text>
<text text-anchor="start" x="15.5" y="-278.5" font-family="Helvetica,sans-Serif" font-size="10.00">+ double getLength()</text>
<text text-anchor="start" x="15.5" y="-267.5" font-family="Helvetica,sans-Serif" font-size="10.00">+ void setColor(Color color)</text>
<text text-anchor="start" x="15.5" y="-256.5" font-family="Helvetica,sans-Serif" font-size="10.00">+ void setLane(Block.Lane path)</text>
<text text-anchor="start" x="15.5" y="-245.5" font-family="Helvetica,sans-Serif" font-size="10.00">+ void setImage(Image image)</text>
<text text-anchor="start" x="15.5" y="-234.5" font-family="Helvetica,sans-Serif" font-size="10.00">+ Block.Lane getLane()</text>
<text text-anchor="start" x="15.5" y="-223.5" font-family="Helvetica,sans-Serif" font-size="10.00">+ Image getImage()</text>
<text text-anchor="start" x="15.5" y="-212.5" font-family="Helvetica,sans-Serif" font-size="10.00">+ void setX(double x)</text>
<text text-anchor="start" x="15.5" y="-201.5" font-family="Helvetica,sans-Serif" font-size="10.00">+ void setY(double y)</text>
<text text-anchor="start" x="15.5" y="-190.5" font-family="Helvetica,sans-Serif" font-size="10.00">+ double getY()</text>
<text text-anchor="start" x="15.5" y="-179.5" font-family="Helvetica,sans-Serif" font-size="10.00">+ double getX()</text>
<text text-anchor="start" x="15.5" y="-168.5" font-family="Helvetica,sans-Serif" font-size="10.00">+ void Draw()</text>
<text text-anchor="start" x="15.5" y="-157.5" font-family="Helvetica,sans-Serif" font-size="10.00">+ boolean interesects(double x, double y)</text>
<text text-anchor="start" x="15.5" y="-146.5" font-family="Helvetica,sans-Serif" font-size="10.00">+ boolean interesects(Block.Lane lane, double y)</text>
<text text-anchor="start" x="15.5" y="-135.5" font-family="Helvetica,sans-Serif" font-size="10.00">+ boolean touches(GameObject other)</text>
</a>
</g>
</g>
<!-- Node2&#45;&gt;Node1 -->
<g id="edge1" class="edge">
<title>Node2&#45;&gt;Node1</title>
<path fill="none" stroke="#63b8ff" d="M236.17,-118.83C240.63,-108.7 244.87,-99.07 248.71,-90.34"/>
<polygon fill="none" stroke="#63b8ff" points="232.66,-117.12 231.84,-127.69 239.07,-119.94 232.66,-117.12"/>
</g>
<!-- Node3 -->
<g id="node3" class="node">
<title>Node3</title>
<g id="a_node3"><a xlink:title=" ">
<polygon fill="white" stroke="#666666" points="0,-508.5 0,-565.5 40,-565.5 40,-508.5 0,-508.5"/>
<text text-anchor="middle" x="20" y="-553.5" font-family="Helvetica,sans-Serif" font-size="10.00">Color</text>
<polyline fill="none" stroke="#666666" points="0,-546.5 40,-546.5"/>
<text text-anchor="middle" x="20" y="-534.5" font-family="Helvetica,sans-Serif" font-size="10.00"> </text>
<polyline fill="none" stroke="#666666" points="0,-527.5 40,-527.5"/>
<text text-anchor="middle" x="20" y="-515.5" font-family="Helvetica,sans-Serif" font-size="10.00"> </text>
</a>
</g>
</g>
<!-- Node3&#45;&gt;Node2 -->
<g id="edge2" class="edge">
<title>Node3&#45;&gt;Node2</title>
<path fill="none" stroke="#404040" d="M29.63,-508.82C34.81,-495.12 41.64,-478.4 49,-464 55.13,-452.01 61.78,-439.79 68.71,-427.63"/>
<polygon fill="none" stroke="#404040" points="68.69,-427.67 68.22,-420.47 74.68,-417.27 75.15,-424.47 68.69,-427.67"/>
<text text-anchor="middle" x="79" y="-438" font-family="Helvetica,sans-Serif" font-size="10.00"> #color</text>
</g>
<!-- Node4 -->
<g id="node4" class="node">
<title>Node4</title>
<g id="a_node4"><a xlink:href="classeu_1_1anwar_1_1madrunner_1_1objects_1_1obstacles_1_1Block.html" target="_top" xlink:title=" ">
<polygon fill="white" stroke="#666666" points="58,-464.5 58,-609.5 316,-609.5 316,-464.5 58,-464.5"/>
<text text-anchor="middle" x="187" y="-597.5" font-family="Helvetica,sans-Serif" font-size="10.00">eu.anwar.madrunner.objects.obstacles.Block</text>
<polyline fill="none" stroke="#666666" points="58,-590.5 316,-590.5"/>
<text text-anchor="start" x="66" y="-578.5" font-family="Helvetica,sans-Serif" font-size="10.00">+ static final double speed</text>
<text text-anchor="start" x="66" y="-567.5" font-family="Helvetica,sans-Serif" font-size="10.00">&#45; double currentY</text>
<polyline fill="none" stroke="#666666" points="58,-560.5 316,-560.5"/>
<text text-anchor="start" x="66" y="-548.5" font-family="Helvetica,sans-Serif" font-size="10.00">+ Block(ArrayList&lt; Obstacle &gt; left, ArrayList&lt; Obstacle</text>
<text text-anchor="start" x="66" y="-537.5" font-family="Helvetica,sans-Serif" font-size="10.00"> &gt; center, ArrayList&lt; Obstacle &gt; right)</text>
<text text-anchor="start" x="66" y="-526.5" font-family="Helvetica,sans-Serif" font-size="10.00">+ double getCurrentY()</text>
<text text-anchor="start" x="66" y="-515.5" font-family="Helvetica,sans-Serif" font-size="10.00">+ ArrayList&lt; Obstacle &gt; getLane(Lane lane)</text>
<text text-anchor="start" x="66" y="-504.5" font-family="Helvetica,sans-Serif" font-size="10.00">+ ArrayList&lt; Obstacle &gt; getLeftLane()</text>
<text text-anchor="start" x="66" y="-493.5" font-family="Helvetica,sans-Serif" font-size="10.00">+ ArrayList&lt; Obstacle &gt; getCenterLane()</text>
<text text-anchor="start" x="66" y="-482.5" font-family="Helvetica,sans-Serif" font-size="10.00">+ ArrayList&lt; Obstacle &gt; getRightLane()</text>
<text text-anchor="start" x="66" y="-471.5" font-family="Helvetica,sans-Serif" font-size="10.00">+ void frameUpdate()</text>
</a>
</g>
</g>
<!-- Node4&#45;&gt;Node2 -->
<g id="edge3" class="edge">
<title>Node4&#45;&gt;Node2</title>
<path fill="none" stroke="#404040" d="M182.11,-464.62C181.34,-453.41 180.52,-441.45 179.68,-429.2"/>
<polygon fill="none" stroke="#404040" points="179.68,-429.22 175.28,-423.51 178.86,-417.25 183.26,-422.97 179.68,-429.22"/>
<text text-anchor="middle" x="194.5" y="-438" font-family="Helvetica,sans-Serif" font-size="10.00"> #lane</text>
</g>
<!-- Node5 -->
<g id="node5" class="node">
<title>Node5</title>
<g id="a_node5"><a xlink:title=" ">
<polygon fill="white" stroke="#666666" points="45,-679.5 45,-736.5 329,-736.5 329,-679.5 45,-679.5"/>
<text text-anchor="middle" x="187" y="-724.5" font-family="Helvetica,sans-Serif" font-size="10.00">ArrayList&lt; eu.anwar.madrunner.objects.obstacles.Obstacle &gt;</text>
<polyline fill="none" stroke="#666666" points="45,-717.5 329,-717.5"/>
<text text-anchor="middle" x="187" y="-705.5" font-family="Helvetica,sans-Serif" font-size="10.00"> </text>
<polyline fill="none" stroke="#666666" points="45,-698.5 329,-698.5"/>
<text text-anchor="middle" x="187" y="-686.5" font-family="Helvetica,sans-Serif" font-size="10.00"> </text>
</a>
</g>
</g>
<!-- Node5&#45;&gt;Node4 -->
<g id="edge4" class="edge">
<title>Node5&#45;&gt;Node4</title>
<path fill="none" stroke="#404040" d="M187,-679.85C187,-664.01 187,-643.08 187,-622.17"/>
<polygon fill="none" stroke="#404040" points="187,-622.11 183,-616.11 187,-610.11 191,-616.11 187,-622.11"/>
<text text-anchor="middle" x="204" y="-653" font-family="Helvetica,sans-Serif" font-size="10.00"> &#45;center</text>
<text text-anchor="middle" x="204" y="-642" font-family="Helvetica,sans-Serif" font-size="10.00">&#45;left</text>
<text text-anchor="middle" x="204" y="-631" font-family="Helvetica,sans-Serif" font-size="10.00">&#45;right</text>
</g>
<!-- Node6 -->
<g id="node6" class="node">
<title>Node6</title>
<g id="a_node6"><a xlink:title=" ">
<polygon fill="white" stroke="#666666" points="159,-784.5 159,-841.5 215,-841.5 215,-784.5 159,-784.5"/>
<text text-anchor="middle" x="187" y="-829.5" font-family="Helvetica,sans-Serif" font-size="10.00">ArrayList</text>
<polyline fill="none" stroke="#666666" points="159,-822.5 215,-822.5"/>
<text text-anchor="middle" x="187" y="-810.5" font-family="Helvetica,sans-Serif" font-size="10.00"> </text>
<polyline fill="none" stroke="#666666" points="159,-803.5 215,-803.5"/>
<text text-anchor="middle" x="187" y="-791.5" font-family="Helvetica,sans-Serif" font-size="10.00"> </text>
</a>
</g>
</g>
<!-- Node6&#45;&gt;Node5 -->
<g id="edge5" class="edge">
<title>Node6&#45;&gt;Node5</title>
<path fill="none" stroke="orange" d="M187,-773.71C187,-761.34 187,-747.88 187,-736.46"/>
<polygon fill="orange" stroke="orange" points="183.5,-773.67 187,-783.67 190.5,-773.67 183.5,-773.67"/>
<text text-anchor="middle" x="310.5" y="-758" font-family="Helvetica,sans-Serif" font-size="10.00"> &lt; eu::anwar::madrunner::objects::obstacles::Obstacle &gt;</text>
</g>
<!-- Node7 -->
<g id="node7" class="node">
<title>Node7</title>
<g id="a_node7"><a xlink:title=" ">
<polygon fill="white" stroke="#666666" points="341,-508.5 341,-565.5 385,-565.5 385,-508.5 341,-508.5"/>
<text text-anchor="middle" x="363" y="-553.5" font-family="Helvetica,sans-Serif" font-size="10.00">Image</text>
<polyline fill="none" stroke="#666666" points="341,-546.5 385,-546.5"/>
<text text-anchor="middle" x="363" y="-534.5" font-family="Helvetica,sans-Serif" font-size="10.00"> </text>
<polyline fill="none" stroke="#666666" points="341,-527.5 385,-527.5"/>
<text text-anchor="middle" x="363" y="-515.5" font-family="Helvetica,sans-Serif" font-size="10.00"> </text>
</a>
</g>
</g>
<!-- Node7&#45;&gt;Node1 -->
<g id="edge7" class="edge">
<title>Node7&#45;&gt;Node1</title>
<path fill="none" stroke="#404040" d="M367.38,-508.66C377,-441.03 394.95,-261.7 340,-128 336.02,-118.32 330.39,-109 324,-100.36"/>
<polygon fill="none" stroke="#404040" points="323.92,-100.26 317.06,-98.05 316.46,-90.86 323.33,-93.07 323.92,-100.26"/>
<text text-anchor="middle" x="387.5" y="-270" font-family="Helvetica,sans-Serif" font-size="10.00"> &#45;tile</text>
</g>
<!-- Node7&#45;&gt;Node2 -->
<g id="edge6" class="edge">
<title>Node7&#45;&gt;Node2</title>
<path fill="none" stroke="#404040" d="M350.16,-508.59C343.31,-494.84 334.38,-478.13 325,-464 316.78,-451.62 307.92,-439.08 298.74,-426.67"/>
<polygon fill="none" stroke="#404040" points="298.69,-426.61 291.89,-424.2 291.5,-417 298.3,-419.41 298.69,-426.61"/>
<text text-anchor="middle" x="325.5" y="-438" font-family="Helvetica,sans-Serif" font-size="10.00"> &#45;image</text>
</g>
</g>
</svg>
