<?xml version="1.0" encoding="UTF-8" standalone="no"?>
<!DOCTYPE svg PUBLIC "-//W3C//DTD SVG 1.1//EN"
 "http://www.w3.org/Graphics/SVG/1.1/DTD/svg11.dtd">
<!-- Generated by graphviz version 3.0.0 (20221109.1736)
 -->
<!-- Title: eu.anwar.madrunner.objects.obstacles.TrailerWithRamp Pages: 1 -->
<svg width="562pt" height="1233pt"
 viewBox="0.00 0.00 561.50 1233.00" xmlns="http://www.w3.org/2000/svg" xmlns:xlink="http://www.w3.org/1999/xlink">
<g id="graph0" class="graph" transform="scale(1 1) rotate(0) translate(4 1229)">
<title>eu.anwar.madrunner.objects.obstacles.TrailerWithRamp</title>
<polygon fill="white" stroke="transparent" points="-4,4 -4,-1229 557.5,-1229 557.5,4 -4,4"/>
<!-- Node1 -->
<g id="node1" class="node">
<title>Node1</title>
<g id="a_node1"><a xlink:title=" ">
<polygon fill="#bfbfbf" stroke="black" points="102.5,-0.5 102.5,-101.5 358.5,-101.5 358.5,-0.5 102.5,-0.5"/>
<text text-anchor="middle" x="230.5" y="-89.5" font-family="Helvetica,sans-Serif" font-size="10.00">eu.anwar.madrunner.objects.obstacles.TrailerWithRamp</text>
<polyline fill="none" stroke="black" points="102.5,-82.5 358.5,-82.5 "/>
<text text-anchor="start" x="110.5" y="-70.5" font-family="Helvetica,sans-Serif" font-size="10.00">+ static final double rampSize</text>
<text text-anchor="start" x="110.5" y="-59.5" font-family="Helvetica,sans-Serif" font-size="10.00"># final int trailerCount</text>
<polyline fill="none" stroke="black" points="102.5,-52.5 358.5,-52.5 "/>
<text text-anchor="start" x="110.5" y="-40.5" font-family="Helvetica,sans-Serif" font-size="10.00">+ TrailerWithRamp(Block.Lane lane, double length)</text>
<text text-anchor="start" x="110.5" y="-29.5" font-family="Helvetica,sans-Serif" font-size="10.00">+ TrailerWithRamp(Block.Lane lane)</text>
<text text-anchor="start" x="110.5" y="-18.5" font-family="Helvetica,sans-Serif" font-size="10.00">+ void setLane(Block.Lane lane)</text>
<text text-anchor="start" x="110.5" y="-7.5" font-family="Helvetica,sans-Serif" font-size="10.00">+ void Draw()</text>
</a>
</g>
</g>
<!-- Node2 -->
<g id="node2" class="node">
<title>Node2</title>
<g id="a_node2"><a xlink:href="classeu_1_1anwar_1_1madrunner_1_1objects_1_1obstacles_1_1Obstacle.html" target="_top" xlink:title=" ">
<polygon fill="white" stroke="black" points="109.5,-299.5 109.5,-389.5 351.5,-389.5 351.5,-299.5 109.5,-299.5"/>
<text text-anchor="middle" x="230.5" y="-377.5" font-family="Helvetica,sans-Serif" font-size="10.00">eu.anwar.madrunner.objects.obstacles.Obstacle</text>
<polyline fill="none" stroke="black" points="109.5,-370.5 351.5,-370.5 "/>
<text text-anchor="start" x="117.5" y="-358.5" font-family="Helvetica,sans-Serif" font-size="10.00">+ static final double obestacleWidth</text>
<polyline fill="none" stroke="black" points="109.5,-351.5 351.5,-351.5 "/>
<text text-anchor="start" x="117.5" y="-339.5" font-family="Helvetica,sans-Serif" font-size="10.00">+ Obstacle(Block.Lane lane, double y, double length)</text>
<text text-anchor="start" x="117.5" y="-328.5" font-family="Helvetica,sans-Serif" font-size="10.00">+ void addY(double diff)</text>
<text text-anchor="start" x="117.5" y="-317.5" font-family="Helvetica,sans-Serif" font-size="10.00">+ boolean isOffTheScreen()</text>
<text text-anchor="start" x="117.5" y="-306.5" font-family="Helvetica,sans-Serif" font-size="10.00">+ void Draw()</text>
</a>
</g>
</g>
<!-- Node2&#45;&gt;Node1 -->
<g id="edge1" class="edge">
<title>Node2&#45;&gt;Node1</title>
<path fill="none" stroke="midnightblue" d="M213.7,-289.12C211.54,-280.14 209.68,-270.87 208.5,-262 201.9,-212.21 202.91,-198.91 208.5,-149 210.23,-133.56 213.46,-116.98 216.93,-101.98"/>
<polygon fill="none" stroke="midnightblue" points="210.38,-290.27 216.24,-299.09 217.17,-288.54 210.38,-290.27"/>
</g>
<!-- Node2&#45;&gt;Node1 -->
<g id="edge12" class="edge">
<title>Node2&#45;&gt;Node1</title>
<path fill="none" stroke="#404040" d="M230.5,-299.23C230.5,-249.77 230.5,-169.37 230.5,-113.75"/>
<polygon fill="none" stroke="#404040" points="230.5,-113.58 226.5,-107.58 230.5,-101.58 234.5,-107.58 230.5,-113.58"/>
<text text-anchor="middle" x="244.5" y="-203" font-family="Helvetica,sans-Serif" font-size="10.00"> &#45;ramp</text>
</g>
<!-- Node10 -->
<g id="node10" class="node">
<title>Node10</title>
<g id="a_node10"><a xlink:href="classeu_1_1anwar_1_1madrunner_1_1objects_1_1obstacles_1_1Trailer.html" target="_top" xlink:title=" ">
<polygon fill="white" stroke="black" points="277,-149.5 277,-261.5 488,-261.5 488,-149.5 277,-149.5"/>
<text text-anchor="middle" x="382.5" y="-249.5" font-family="Helvetica,sans-Serif" font-size="10.00">eu.anwar.madrunner.objects.obstacles.Trailer</text>
<polyline fill="none" stroke="black" points="277,-242.5 488,-242.5 "/>
<text text-anchor="start" x="285" y="-230.5" font-family="Helvetica,sans-Serif" font-size="10.00">+ static final double singleTrailerLength</text>
<text text-anchor="start" x="285" y="-219.5" font-family="Helvetica,sans-Serif" font-size="10.00">+ static final int maxNumberOfTrailers</text>
<text text-anchor="start" x="285" y="-208.5" font-family="Helvetica,sans-Serif" font-size="10.00"># final int TrailerCount</text>
<polyline fill="none" stroke="black" points="277,-201.5 488,-201.5 "/>
<text text-anchor="start" x="285" y="-189.5" font-family="Helvetica,sans-Serif" font-size="10.00">+ Trailer(Block.Lane lane, int count)</text>
<text text-anchor="start" x="285" y="-178.5" font-family="Helvetica,sans-Serif" font-size="10.00">+ Trailer(Block.Lane lane)</text>
<text text-anchor="start" x="285" y="-167.5" font-family="Helvetica,sans-Serif" font-size="10.00">+ Trailer(Block.Lane lane, double length)</text>
<text text-anchor="start" x="285" y="-156.5" font-family="Helvetica,sans-Serif" font-size="10.00">+ void Draw()</text>
</a>
</g>
</g>
<!-- Node2&#45;&gt;Node10 -->
<g id="edge11" class="edge">
<title>Node2&#45;&gt;Node10</title>
<path fill="none" stroke="midnightblue" d="M287.07,-292.51C298.26,-282.42 310.06,-271.79 321.4,-261.57"/>
<polygon fill="none" stroke="midnightblue" points="284.52,-290.1 279.43,-299.4 289.2,-295.3 284.52,-290.1"/>
</g>
<!-- Node3 -->
<g id="node3" class="node">
<title>Node3</title>
<g id="a_node3"><a xlink:href="classeu_1_1anwar_1_1madrunner_1_1objects_1_1GameLaneObject.html" target="_top" xlink:title=" ">
<polygon fill="white" stroke="black" points="61.5,-427.5 61.5,-561.5 399.5,-561.5 399.5,-427.5 61.5,-427.5"/>
<text text-anchor="middle" x="230.5" y="-549.5" font-family="Helvetica,sans-Serif" font-size="10.00">eu.anwar.madrunner.objects.GameLaneObject</text>
<polyline fill="none" stroke="black" points="61.5,-542.5 399.5,-542.5 "/>
<text text-anchor="middle" x="230.5" y="-530.5" font-family="Helvetica,sans-Serif" font-size="10.00"> </text>
<polyline fill="none" stroke="black" points="61.5,-523.5 399.5,-523.5 "/>
<text text-anchor="start" x="69.5" y="-511.5" font-family="Helvetica,sans-Serif" font-size="10.00">+ GameLaneObject(Block.Lane lane, double y, double width, double length)</text>
<text text-anchor="start" x="69.5" y="-500.5" font-family="Helvetica,sans-Serif" font-size="10.00">+ GameLaneObject(Block.Lane lane, double y, double cubeLength)</text>
<text text-anchor="start" x="69.5" y="-489.5" font-family="Helvetica,sans-Serif" font-size="10.00">+ void setLane(Block.Lane path)</text>
<text text-anchor="start" x="69.5" y="-478.5" font-family="Helvetica,sans-Serif" font-size="10.00">+ Block.Lane getLane()</text>
<text text-anchor="start" x="69.5" y="-467.5" font-family="Helvetica,sans-Serif" font-size="10.00">+ void Draw()</text>
<text text-anchor="start" x="69.5" y="-456.5" font-family="Helvetica,sans-Serif" font-size="10.00">+ boolean contains(Block.Lane lane, double y)</text>
<text text-anchor="start" x="69.5" y="-445.5" font-family="Helvetica,sans-Serif" font-size="10.00">+ boolean touches(GameLaneObject other)</text>
<text text-anchor="start" x="69.5" y="-434.5" font-family="Helvetica,sans-Serif" font-size="10.00">+ double distance(GameLaneObject other)</text>
</a>
</g>
</g>
<!-- Node3&#45;&gt;Node2 -->
<g id="edge2" class="edge">
<title>Node3&#45;&gt;Node2</title>
<path fill="none" stroke="midnightblue" d="M230.5,-417.07C230.5,-407.65 230.5,-398.28 230.5,-389.57"/>
<polygon fill="none" stroke="midnightblue" points="227,-417.29 230.5,-427.29 234,-417.29 227,-417.29"/>
</g>
<!-- Node4 -->
<g id="node4" class="node">
<title>Node4</title>
<g id="a_node4"><a xlink:href="classeu_1_1anwar_1_1madrunner_1_1objects_1_1GameObject.html" target="_top" xlink:title=" ">
<polygon fill="white" stroke="black" points="0,-599.5 0,-799.5 283,-799.5 283,-599.5 0,-599.5"/>
<text text-anchor="middle" x="141.5" y="-787.5" font-family="Helvetica,sans-Serif" font-size="10.00">eu.anwar.madrunner.objects.GameObject</text>
<polyline fill="none" stroke="black" points="0,-780.5 283,-780.5 "/>
<text text-anchor="start" x="8" y="-768.5" font-family="Helvetica,sans-Serif" font-size="10.00"># double x</text>
<text text-anchor="start" x="8" y="-757.5" font-family="Helvetica,sans-Serif" font-size="10.00"># double y</text>
<text text-anchor="start" x="8" y="-746.5" font-family="Helvetica,sans-Serif" font-size="10.00"># double width</text>
<text text-anchor="start" x="8" y="-735.5" font-family="Helvetica,sans-Serif" font-size="10.00"># double length</text>
<polyline fill="none" stroke="black" points="0,-728.5 283,-728.5 "/>
<text text-anchor="start" x="8" y="-716.5" font-family="Helvetica,sans-Serif" font-size="10.00">+ GameObject(double x, double y, double width, double length)</text>
<text text-anchor="start" x="8" y="-705.5" font-family="Helvetica,sans-Serif" font-size="10.00">+ double getWidth()</text>
<text text-anchor="start" x="8" y="-694.5" font-family="Helvetica,sans-Serif" font-size="10.00">+ double getLength()</text>
<text text-anchor="start" x="8" y="-683.5" font-family="Helvetica,sans-Serif" font-size="10.00">+ void setColor(Color color)</text>
<text text-anchor="start" x="8" y="-672.5" font-family="Helvetica,sans-Serif" font-size="10.00">+ void setLane(Block.Lane path)</text>
<text text-anchor="start" x="8" y="-661.5" font-family="Helvetica,sans-Serif" font-size="10.00">+ void setImage(Image image)</text>
<text text-anchor="start" x="8" y="-650.5" font-family="Helvetica,sans-Serif" font-size="10.00">+ Block.Lane getLane()</text>
<text text-anchor="start" x="8" y="-639.5" font-family="Helvetica,sans-Serif" font-size="10.00">+ Image getImage()</text>
<text text-anchor="start" x="8" y="-628.5" font-family="Helvetica,sans-Serif" font-size="10.00">+ void setY(double y)</text>
<text text-anchor="start" x="8" y="-617.5" font-family="Helvetica,sans-Serif" font-size="10.00">+ double getY()</text>
<text text-anchor="start" x="8" y="-606.5" font-family="Helvetica,sans-Serif" font-size="10.00">+ void Draw()</text>
</a>
</g>
</g>
<!-- Node4&#45;&gt;Node3 -->
<g id="edge3" class="edge">
<title>Node4&#45;&gt;Node3</title>
<path fill="none" stroke="midnightblue" d="M189.03,-590.09C193.27,-580.43 197.47,-570.84 201.48,-561.69"/>
<polygon fill="none" stroke="midnightblue" points="185.77,-588.81 184.96,-599.38 192.18,-591.63 185.77,-588.81"/>
</g>
<!-- Node5 -->
<g id="node5" class="node">
<title>Node5</title>
<g id="a_node5"><a xlink:title=" ">
<polygon fill="white" stroke="black" points="65,-891.5 65,-948.5 104,-948.5 104,-891.5 65,-891.5"/>
<text text-anchor="middle" x="84.5" y="-936.5" font-family="Helvetica,sans-Serif" font-size="10.00">Color</text>
<polyline fill="none" stroke="black" points="65,-929.5 104,-929.5 "/>
<text text-anchor="middle" x="84.5" y="-917.5" font-family="Helvetica,sans-Serif" font-size="10.00"> </text>
<polyline fill="none" stroke="black" points="65,-910.5 104,-910.5 "/>
<text text-anchor="middle" x="84.5" y="-898.5" font-family="Helvetica,sans-Serif" font-size="10.00"> </text>
</a>
</g>
</g>
<!-- Node5&#45;&gt;Node4 -->
<g id="edge4" class="edge">
<title>Node5&#45;&gt;Node4</title>
<path fill="none" stroke="#404040" d="M91.22,-891.09C96.16,-870.79 103.09,-842.65 109.5,-818 110.09,-815.74 110.69,-813.45 111.29,-811.14"/>
<polygon fill="none" stroke="#404040" points="111.3,-811.11 108.96,-804.28 114.36,-799.5 116.7,-806.32 111.3,-811.11"/>
<text text-anchor="middle" x="124" y="-821" font-family="Helvetica,sans-Serif" font-size="10.00"> #color</text>
</g>
<!-- Node6 -->
<g id="node6" class="node">
<title>Node6</title>
<g id="a_node6"><a xlink:href="classeu_1_1anwar_1_1madrunner_1_1objects_1_1obstacles_1_1Block.html" target="_top" xlink:title=" ">
<polygon fill="white" stroke="black" points="189.5,-847.5 189.5,-992.5 443.5,-992.5 443.5,-847.5 189.5,-847.5"/>
<text text-anchor="middle" x="316.5" y="-980.5" font-family="Helvetica,sans-Serif" font-size="10.00">eu.anwar.madrunner.objects.obstacles.Block</text>
<polyline fill="none" stroke="black" points="189.5,-973.5 443.5,-973.5 "/>
<text text-anchor="start" x="197.5" y="-961.5" font-family="Helvetica,sans-Serif" font-size="10.00">+ static final double speed</text>
<text text-anchor="start" x="197.5" y="-950.5" font-family="Helvetica,sans-Serif" font-size="10.00">&#45; double currentY</text>
<polyline fill="none" stroke="black" points="189.5,-943.5 443.5,-943.5 "/>
<text text-anchor="start" x="197.5" y="-931.5" font-family="Helvetica,sans-Serif" font-size="10.00">+ Block(ArrayList&lt; Obstacle &gt; left, ArrayList&lt; Obstacle</text>
<text text-anchor="start" x="197.5" y="-920.5" font-family="Helvetica,sans-Serif" font-size="10.00"> &gt; center, ArrayList&lt; Obstacle &gt; right)</text>
<text text-anchor="start" x="197.5" y="-909.5" font-family="Helvetica,sans-Serif" font-size="10.00">+ double getCurrentY()</text>
<text text-anchor="start" x="197.5" y="-898.5" font-family="Helvetica,sans-Serif" font-size="10.00">+ ArrayList&lt; Obstacle &gt; getLane(Lane lane)</text>
<text text-anchor="start" x="197.5" y="-887.5" font-family="Helvetica,sans-Serif" font-size="10.00">+ ArrayList&lt; Obstacle &gt; getLeftLane()</text>
<text text-anchor="start" x="197.5" y="-876.5" font-family="Helvetica,sans-Serif" font-size="10.00">+ ArrayList&lt; Obstacle &gt; getCenterLane()</text>
<text text-anchor="start" x="197.5" y="-865.5" font-family="Helvetica,sans-Serif" font-size="10.00">+ ArrayList&lt; Obstacle &gt; getRightLane()</text>
<text text-anchor="start" x="197.5" y="-854.5" font-family="Helvetica,sans-Serif" font-size="10.00">+ void frameUpdate()</text>
</a>
</g>
</g>
<!-- Node6&#45;&gt;Node3 -->
<g id="edge9" class="edge">
<title>Node6&#45;&gt;Node3</title>
<path fill="none" stroke="#404040" d="M320.44,-847.31C321.91,-781.26 318.62,-681.31 292.5,-599 289.67,-590.09 285.94,-581.13 281.72,-572.43"/>
<polygon fill="none" stroke="#404040" points="281.61,-572.22 275.31,-568.71 276.12,-561.55 282.42,-565.06 281.61,-572.22"/>
<text text-anchor="middle" x="332.5" y="-697" font-family="Helvetica,sans-Serif" font-size="10.00"> #lane</text>
</g>
<!-- Node6&#45;&gt;Node4 -->
<g id="edge5" class="edge">
<title>Node6&#45;&gt;Node4</title>
<path fill="none" stroke="#404040" d="M259.2,-847.45C249.33,-835.14 238.88,-822.09 228.44,-809.05"/>
<polygon fill="none" stroke="#404040" points="228.35,-808.94 221.48,-806.76 220.85,-799.58 227.72,-801.76 228.35,-808.94"/>
<text text-anchor="middle" x="251.5" y="-821" font-family="Helvetica,sans-Serif" font-size="10.00"> #lane</text>
</g>
<!-- Node7 -->
<g id="node7" class="node">
<title>Node7</title>
<g id="a_node7"><a xlink:title=" ">
<polygon fill="white" stroke="black" points="177.5,-1062.5 177.5,-1119.5 455.5,-1119.5 455.5,-1062.5 177.5,-1062.5"/>
<text text-anchor="middle" x="316.5" y="-1107.5" font-family="Helvetica,sans-Serif" font-size="10.00">ArrayList&lt; eu.anwar.madrunner.objects.obstacles.Obstacle &gt;</text>
<polyline fill="none" stroke="black" points="177.5,-1100.5 455.5,-1100.5 "/>
<text text-anchor="middle" x="316.5" y="-1088.5" font-family="Helvetica,sans-Serif" font-size="10.00"> </text>
<polyline fill="none" stroke="black" points="177.5,-1081.5 455.5,-1081.5 "/>
<text text-anchor="middle" x="316.5" y="-1069.5" font-family="Helvetica,sans-Serif" font-size="10.00"> </text>
</a>
</g>
</g>
<!-- Node7&#45;&gt;Node6 -->
<g id="edge6" class="edge">
<title>Node7&#45;&gt;Node6</title>
<path fill="none" stroke="#404040" d="M316.5,-1062.47C316.5,-1046.6 316.5,-1025.71 316.5,-1004.87"/>
<polygon fill="none" stroke="#404040" points="316.5,-1004.64 312.5,-998.64 316.5,-992.64 320.5,-998.64 316.5,-1004.64"/>
<text text-anchor="middle" x="333" y="-1036" font-family="Helvetica,sans-Serif" font-size="10.00"> &#45;center</text>
<text text-anchor="middle" x="333" y="-1025" font-family="Helvetica,sans-Serif" font-size="10.00">&#45;left</text>
<text text-anchor="middle" x="333" y="-1014" font-family="Helvetica,sans-Serif" font-size="10.00">&#45;right</text>
</g>
<!-- Node8 -->
<g id="node8" class="node">
<title>Node8</title>
<g id="a_node8"><a xlink:title=" ">
<polygon fill="white" stroke="black" points="288.5,-1167.5 288.5,-1224.5 344.5,-1224.5 344.5,-1167.5 288.5,-1167.5"/>
<text text-anchor="middle" x="316.5" y="-1212.5" font-family="Helvetica,sans-Serif" font-size="10.00">ArrayList</text>
<polyline fill="none" stroke="black" points="288.5,-1205.5 344.5,-1205.5 "/>
<text text-anchor="middle" x="316.5" y="-1193.5" font-family="Helvetica,sans-Serif" font-size="10.00"> </text>
<polyline fill="none" stroke="black" points="288.5,-1186.5 344.5,-1186.5 "/>
<text text-anchor="middle" x="316.5" y="-1174.5" font-family="Helvetica,sans-Serif" font-size="10.00"> </text>
</a>
</g>
</g>
<!-- Node8&#45;&gt;Node7 -->
<g id="edge7" class="edge">
<title>Node8&#45;&gt;Node7</title>
<path fill="none" stroke="orange" d="M316.5,-1157.29C316.5,-1144.84 316.5,-1131.23 316.5,-1119.68"/>
<polygon fill="orange" stroke="orange" points="313,-1157.4 316.5,-1167.4 320,-1157.4 313,-1157.4"/>
<text text-anchor="middle" x="435" y="-1141" font-family="Helvetica,sans-Serif" font-size="10.00"> &lt; eu::anwar::madrunner::objects::obstacles::Obstacle &gt;</text>
</g>
<!-- Node9 -->
<g id="node9" class="node">
<title>Node9</title>
<g id="a_node9"><a xlink:title=" ">
<polygon fill="white" stroke="black" points="122.5,-891.5 122.5,-948.5 166.5,-948.5 166.5,-891.5 122.5,-891.5"/>
<text text-anchor="middle" x="144.5" y="-936.5" font-family="Helvetica,sans-Serif" font-size="10.00">Image</text>
<polyline fill="none" stroke="black" points="122.5,-929.5 166.5,-929.5 "/>
<text text-anchor="middle" x="144.5" y="-917.5" font-family="Helvetica,sans-Serif" font-size="10.00"> </text>
<polyline fill="none" stroke="black" points="122.5,-910.5 166.5,-910.5 "/>
<text text-anchor="middle" x="144.5" y="-898.5" font-family="Helvetica,sans-Serif" font-size="10.00"> </text>
</a>
</g>
</g>
<!-- Node9&#45;&gt;Node4 -->
<g id="edge8" class="edge">
<title>Node9&#45;&gt;Node4</title>
<path fill="none" stroke="#404040" d="M144.12,-891.33C143.84,-870.84 143.44,-841.46 143.03,-811.87"/>
<polygon fill="none" stroke="#404040" points="143.03,-811.65 138.94,-805.7 142.86,-799.65 146.94,-805.59 143.03,-811.65"/>
<text text-anchor="middle" x="158.5" y="-821" font-family="Helvetica,sans-Serif" font-size="10.00"> &#45;image</text>
</g>
<!-- Node10&#45;&gt;Node1 -->
<g id="edge10" class="edge">
<title>Node10&#45;&gt;Node1</title>
<path fill="none" stroke="#404040" d="M327.62,-149.44C314.98,-136.76 301.49,-123.22 288.71,-110.4"/>
<polygon fill="none" stroke="#404040" points="288.47,-110.16 281.4,-108.73 279.99,-101.66 287.06,-103.08 288.47,-110.16"/>
<text text-anchor="middle" x="321.5" y="-123" font-family="Helvetica,sans-Serif" font-size="10.00"> &#45;trailer</text>
</g>
</g>
</svg>
