<?xml version="1.0" encoding="UTF-8" standalone="no"?>
<!DOCTYPE svg PUBLIC "-//W3C//DTD SVG 1.1//EN"
 "http://www.w3.org/Graphics/SVG/1.1/DTD/svg11.dtd">
<!-- Generated by graphviz version 3.0.0 (20221109.1736)
 -->
<!-- Title: eu.anwar.madrunner.objects.menus.GamePause Pages: 1 -->
<svg width="430pt" height="806pt"
 viewBox="0.00 0.00 429.50 806.00" xmlns="http://www.w3.org/2000/svg" xmlns:xlink="http://www.w3.org/1999/xlink">
<g id="graph0" class="graph" transform="scale(1 1) rotate(0) translate(4 802)">
<title>eu.anwar.madrunner.objects.menus.GamePause</title>
<polygon fill="white" stroke="transparent" points="-4,4 -4,-802 425.5,-802 425.5,4 -4,4"/>
<!-- Node1 -->
<g id="node1" class="node">
<title>Node1</title>
<g id="a_node1"><a xlink:title=" ">
<polygon fill="#bfbfbf" stroke="black" points="60.5,-0.5 60.5,-134.5 308.5,-134.5 308.5,-0.5 60.5,-0.5"/>
<text text-anchor="middle" x="184.5" y="-122.5" font-family="Helvetica,sans-Serif" font-size="10.00">eu.anwar.madrunner.objects.menus.GamePause</text>
<polyline fill="none" stroke="black" points="60.5,-115.5 308.5,-115.5 "/>
<text text-anchor="start" x="68.5" y="-103.5" font-family="Helvetica,sans-Serif" font-size="10.00"># String centerTxt</text>
<text text-anchor="start" x="68.5" y="-92.5" font-family="Helvetica,sans-Serif" font-size="10.00">&#45; Boolean enabled</text>
<polyline fill="none" stroke="black" points="60.5,-85.5 308.5,-85.5 "/>
<text text-anchor="start" x="68.5" y="-73.5" font-family="Helvetica,sans-Serif" font-size="10.00">+ GamePause()</text>
<text text-anchor="start" x="68.5" y="-62.5" font-family="Helvetica,sans-Serif" font-size="10.00">+ void enable()</text>
<text text-anchor="start" x="68.5" y="-51.5" font-family="Helvetica,sans-Serif" font-size="10.00">+ void disable()</text>
<text text-anchor="start" x="68.5" y="-40.5" font-family="Helvetica,sans-Serif" font-size="10.00">+ Boolean isEnabled()</text>
<text text-anchor="start" x="68.5" y="-29.5" font-family="Helvetica,sans-Serif" font-size="10.00">+ void toggle()</text>
<text text-anchor="start" x="68.5" y="-18.5" font-family="Helvetica,sans-Serif" font-size="10.00">+ void updateDeminsions(double width, double length)</text>
<text text-anchor="start" x="68.5" y="-7.5" font-family="Helvetica,sans-Serif" font-size="10.00">+ void Draw()</text>
</a>
</g>
</g>
<!-- Node2 -->
<g id="node2" class="node">
<title>Node2</title>
<g id="a_node2"><a xlink:href="classeu_1_1anwar_1_1madrunner_1_1objects_1_1GameObject.html" target="_top" xlink:title=" ">
<polygon fill="white" stroke="black" points="43,-172.5 43,-372.5 326,-372.5 326,-172.5 43,-172.5"/>
<text text-anchor="middle" x="184.5" y="-360.5" font-family="Helvetica,sans-Serif" font-size="10.00">eu.anwar.madrunner.objects.GameObject</text>
<polyline fill="none" stroke="black" points="43,-353.5 326,-353.5 "/>
<text text-anchor="start" x="51" y="-341.5" font-family="Helvetica,sans-Serif" font-size="10.00"># double x</text>
<text text-anchor="start" x="51" y="-330.5" font-family="Helvetica,sans-Serif" font-size="10.00"># double y</text>
<text text-anchor="start" x="51" y="-319.5" font-family="Helvetica,sans-Serif" font-size="10.00"># double width</text>
<text text-anchor="start" x="51" y="-308.5" font-family="Helvetica,sans-Serif" font-size="10.00"># double length</text>
<polyline fill="none" stroke="black" points="43,-301.5 326,-301.5 "/>
<text text-anchor="start" x="51" y="-289.5" font-family="Helvetica,sans-Serif" font-size="10.00">+ GameObject(double x, double y, double width, double length)</text>
<text text-anchor="start" x="51" y="-278.5" font-family="Helvetica,sans-Serif" font-size="10.00">+ double getWidth()</text>
<text text-anchor="start" x="51" y="-267.5" font-family="Helvetica,sans-Serif" font-size="10.00">+ double getLength()</text>
<text text-anchor="start" x="51" y="-256.5" font-family="Helvetica,sans-Serif" font-size="10.00">+ void setColor(Color color)</text>
<text text-anchor="start" x="51" y="-245.5" font-family="Helvetica,sans-Serif" font-size="10.00">+ void setLane(Block.Lane path)</text>
<text text-anchor="start" x="51" y="-234.5" font-family="Helvetica,sans-Serif" font-size="10.00">+ void setImage(Image image)</text>
<text text-anchor="start" x="51" y="-223.5" font-family="Helvetica,sans-Serif" font-size="10.00">+ Block.Lane getLane()</text>
<text text-anchor="start" x="51" y="-212.5" font-family="Helvetica,sans-Serif" font-size="10.00">+ Image getImage()</text>
<text text-anchor="start" x="51" y="-201.5" font-family="Helvetica,sans-Serif" font-size="10.00">+ void setY(double y)</text>
<text text-anchor="start" x="51" y="-190.5" font-family="Helvetica,sans-Serif" font-size="10.00">+ double getY()</text>
<text text-anchor="start" x="51" y="-179.5" font-family="Helvetica,sans-Serif" font-size="10.00">+ void Draw()</text>
</a>
</g>
</g>
<!-- Node2&#45;&gt;Node1 -->
<g id="edge1" class="edge">
<title>Node2&#45;&gt;Node1</title>
<path fill="none" stroke="midnightblue" d="M184.5,-162.2C184.5,-152.83 184.5,-143.56 184.5,-134.69"/>
<polygon fill="none" stroke="midnightblue" points="181,-162.38 184.5,-172.38 188,-162.38 181,-162.38"/>
</g>
<!-- Node3 -->
<g id="node3" class="node">
<title>Node3</title>
<g id="a_node3"><a xlink:title=" ">
<polygon fill="white" stroke="black" points="0,-464.5 0,-521.5 39,-521.5 39,-464.5 0,-464.5"/>
<text text-anchor="middle" x="19.5" y="-509.5" font-family="Helvetica,sans-Serif" font-size="10.00">Color</text>
<polyline fill="none" stroke="black" points="0,-502.5 39,-502.5 "/>
<text text-anchor="middle" x="19.5" y="-490.5" font-family="Helvetica,sans-Serif" font-size="10.00"> </text>
<polyline fill="none" stroke="black" points="0,-483.5 39,-483.5 "/>
<text text-anchor="middle" x="19.5" y="-471.5" font-family="Helvetica,sans-Serif" font-size="10.00"> </text>
</a>
</g>
</g>
<!-- Node3&#45;&gt;Node2 -->
<g id="edge2" class="edge">
<title>Node3&#45;&gt;Node2</title>
<path fill="none" stroke="#404040" d="M28.02,-464.19C32.92,-450.33 39.83,-433.65 48.5,-420 56.65,-407.16 66,-394.42 75.89,-382.13"/>
<polygon fill="none" stroke="#404040" points="75.93,-382.08 76.65,-374.91 83.55,-372.82 82.83,-379.99 75.93,-382.08"/>
<text text-anchor="middle" x="82" y="-394" font-family="Helvetica,sans-Serif" font-size="10.00"> #color</text>
</g>
<!-- Node4 -->
<g id="node4" class="node">
<title>Node4</title>
<g id="a_node4"><a xlink:href="classeu_1_1anwar_1_1madrunner_1_1objects_1_1obstacles_1_1Block.html" target="_top" xlink:title=" ">
<polygon fill="white" stroke="black" points="57.5,-420.5 57.5,-565.5 311.5,-565.5 311.5,-420.5 57.5,-420.5"/>
<text text-anchor="middle" x="184.5" y="-553.5" font-family="Helvetica,sans-Serif" font-size="10.00">eu.anwar.madrunner.objects.obstacles.Block</text>
<polyline fill="none" stroke="black" points="57.5,-546.5 311.5,-546.5 "/>
<text text-anchor="start" x="65.5" y="-534.5" font-family="Helvetica,sans-Serif" font-size="10.00">+ static final double speed</text>
<text text-anchor="start" x="65.5" y="-523.5" font-family="Helvetica,sans-Serif" font-size="10.00">&#45; double currentY</text>
<polyline fill="none" stroke="black" points="57.5,-516.5 311.5,-516.5 "/>
<text text-anchor="start" x="65.5" y="-504.5" font-family="Helvetica,sans-Serif" font-size="10.00">+ Block(ArrayList&lt; Obstacle &gt; left, ArrayList&lt; Obstacle</text>
<text text-anchor="start" x="65.5" y="-493.5" font-family="Helvetica,sans-Serif" font-size="10.00"> &gt; center, ArrayList&lt; Obstacle &gt; right)</text>
<text text-anchor="start" x="65.5" y="-482.5" font-family="Helvetica,sans-Serif" font-size="10.00">+ double getCurrentY()</text>
<text text-anchor="start" x="65.5" y="-471.5" font-family="Helvetica,sans-Serif" font-size="10.00">+ ArrayList&lt; Obstacle &gt; getLane(Lane lane)</text>
<text text-anchor="start" x="65.5" y="-460.5" font-family="Helvetica,sans-Serif" font-size="10.00">+ ArrayList&lt; Obstacle &gt; getLeftLane()</text>
<text text-anchor="start" x="65.5" y="-449.5" font-family="Helvetica,sans-Serif" font-size="10.00">+ ArrayList&lt; Obstacle &gt; getCenterLane()</text>
<text text-anchor="start" x="65.5" y="-438.5" font-family="Helvetica,sans-Serif" font-size="10.00">+ ArrayList&lt; Obstacle &gt; getRightLane()</text>
<text text-anchor="start" x="65.5" y="-427.5" font-family="Helvetica,sans-Serif" font-size="10.00">+ void frameUpdate()</text>
</a>
</g>
</g>
<!-- Node4&#45;&gt;Node2 -->
<g id="edge3" class="edge">
<title>Node4&#45;&gt;Node2</title>
<path fill="none" stroke="#404040" d="M184.5,-420.45C184.5,-408.97 184.5,-396.86 184.5,-384.71"/>
<polygon fill="none" stroke="#404040" points="184.5,-384.58 180.5,-378.58 184.5,-372.58 188.5,-378.58 184.5,-384.58"/>
<text text-anchor="middle" x="197.5" y="-394" font-family="Helvetica,sans-Serif" font-size="10.00"> #lane</text>
</g>
<!-- Node5 -->
<g id="node5" class="node">
<title>Node5</title>
<g id="a_node5"><a xlink:title=" ">
<polygon fill="white" stroke="black" points="45.5,-635.5 45.5,-692.5 323.5,-692.5 323.5,-635.5 45.5,-635.5"/>
<text text-anchor="middle" x="184.5" y="-680.5" font-family="Helvetica,sans-Serif" font-size="10.00">ArrayList&lt; eu.anwar.madrunner.objects.obstacles.Obstacle &gt;</text>
<polyline fill="none" stroke="black" points="45.5,-673.5 323.5,-673.5 "/>
<text text-anchor="middle" x="184.5" y="-661.5" font-family="Helvetica,sans-Serif" font-size="10.00"> </text>
<polyline fill="none" stroke="black" points="45.5,-654.5 323.5,-654.5 "/>
<text text-anchor="middle" x="184.5" y="-642.5" font-family="Helvetica,sans-Serif" font-size="10.00"> </text>
</a>
</g>
</g>
<!-- Node5&#45;&gt;Node4 -->
<g id="edge4" class="edge">
<title>Node5&#45;&gt;Node4</title>
<path fill="none" stroke="#404040" d="M184.5,-635.47C184.5,-619.6 184.5,-598.71 184.5,-577.87"/>
<polygon fill="none" stroke="#404040" points="184.5,-577.64 180.5,-571.64 184.5,-565.64 188.5,-571.64 184.5,-577.64"/>
<text text-anchor="middle" x="201" y="-609" font-family="Helvetica,sans-Serif" font-size="10.00"> &#45;center</text>
<text text-anchor="middle" x="201" y="-598" font-family="Helvetica,sans-Serif" font-size="10.00">&#45;left</text>
<text text-anchor="middle" x="201" y="-587" font-family="Helvetica,sans-Serif" font-size="10.00">&#45;right</text>
</g>
<!-- Node6 -->
<g id="node6" class="node">
<title>Node6</title>
<g id="a_node6"><a xlink:title=" ">
<polygon fill="white" stroke="black" points="156.5,-740.5 156.5,-797.5 212.5,-797.5 212.5,-740.5 156.5,-740.5"/>
<text text-anchor="middle" x="184.5" y="-785.5" font-family="Helvetica,sans-Serif" font-size="10.00">ArrayList</text>
<polyline fill="none" stroke="black" points="156.5,-778.5 212.5,-778.5 "/>
<text text-anchor="middle" x="184.5" y="-766.5" font-family="Helvetica,sans-Serif" font-size="10.00"> </text>
<polyline fill="none" stroke="black" points="156.5,-759.5 212.5,-759.5 "/>
<text text-anchor="middle" x="184.5" y="-747.5" font-family="Helvetica,sans-Serif" font-size="10.00"> </text>
</a>
</g>
</g>
<!-- Node6&#45;&gt;Node5 -->
<g id="edge5" class="edge">
<title>Node6&#45;&gt;Node5</title>
<path fill="none" stroke="orange" d="M184.5,-730.29C184.5,-717.84 184.5,-704.23 184.5,-692.68"/>
<polygon fill="orange" stroke="orange" points="181,-730.4 184.5,-740.4 188,-730.4 181,-730.4"/>
<text text-anchor="middle" x="303" y="-714" font-family="Helvetica,sans-Serif" font-size="10.00"> &lt; eu::anwar::madrunner::objects::obstacles::Obstacle &gt;</text>
</g>
<!-- Node7 -->
<g id="node7" class="node">
<title>Node7</title>
<g id="a_node7"><a xlink:title=" ">
<polygon fill="white" stroke="black" points="329.5,-464.5 329.5,-521.5 373.5,-521.5 373.5,-464.5 329.5,-464.5"/>
<text text-anchor="middle" x="351.5" y="-509.5" font-family="Helvetica,sans-Serif" font-size="10.00">Image</text>
<polyline fill="none" stroke="black" points="329.5,-502.5 373.5,-502.5 "/>
<text text-anchor="middle" x="351.5" y="-490.5" font-family="Helvetica,sans-Serif" font-size="10.00"> </text>
<polyline fill="none" stroke="black" points="329.5,-483.5 373.5,-483.5 "/>
<text text-anchor="middle" x="351.5" y="-471.5" font-family="Helvetica,sans-Serif" font-size="10.00"> </text>
</a>
</g>
</g>
<!-- Node7&#45;&gt;Node2 -->
<g id="edge6" class="edge">
<title>Node7&#45;&gt;Node2</title>
<path fill="none" stroke="#404040" d="M342.1,-464.22C336.78,-450.36 329.41,-433.68 320.5,-420 312.12,-407.14 302.58,-394.35 292.53,-381.99"/>
<polygon fill="none" stroke="#404040" points="292.42,-381.86 285.51,-379.8 284.75,-372.63 291.66,-374.69 292.42,-381.86"/>
<text text-anchor="middle" x="320.5" y="-394" font-family="Helvetica,sans-Serif" font-size="10.00"> &#45;image</text>
</g>
</g>
</svg>
