<?xml version="1.0" encoding="UTF-8" standalone="no"?>
<!DOCTYPE svg PUBLIC "-//W3C//DTD SVG 1.1//EN"
 "http://www.w3.org/Graphics/SVG/1.1/DTD/svg11.dtd">
<!-- Generated by graphviz version 8.0.3 (0)
 -->
<!-- Title: logic.Logic Pages: 1 -->
<svg width="1583pt" height="1714pt"
 viewBox="0.00 0.00 1583.00 1714.00" xmlns="http://www.w3.org/2000/svg" xmlns:xlink="http://www.w3.org/1999/xlink">
<g id="graph0" class="graph" transform="scale(1 1) rotate(0) translate(4 1710)">
<title>logic.Logic</title>
<!-- Node1 -->
<g id="node1" class="node">
<title>Node1</title>
<g id="a_node1"><a xlink:title=" ">
<polygon fill="#999999" stroke="#666666" points="674.5,-0.5 674.5,-145.5 867.5,-145.5 867.5,-0.5 674.5,-0.5"/>
<text text-anchor="middle" x="771" y="-133.5" font-family="Helvetica,sans-Serif" font-size="10.00">logic.Logic</text>
<polyline fill="none" stroke="#666666" points="674.5,-126.5 867.5,-126.5"/>
<text text-anchor="start" x="682.5" y="-114.5" font-family="Helvetica,sans-Serif" font-size="10.00">&#45; boolean playerDied</text>
<text text-anchor="start" x="682.5" y="-103.5" font-family="Helvetica,sans-Serif" font-size="10.00">&#45; long last1000Millisecond</text>
<polyline fill="none" stroke="#666666" points="674.5,-96.5 867.5,-96.5"/>
<text text-anchor="start" x="682.5" y="-84.5" font-family="Helvetica,sans-Serif" font-size="10.00">+ Logic(GraphicsContext gc)</text>
<text text-anchor="start" x="682.5" y="-73.5" font-family="Helvetica,sans-Serif" font-size="10.00">+ void tick(Long now)</text>
<text text-anchor="start" x="682.5" y="-62.5" font-family="Helvetica,sans-Serif" font-size="10.00">+ boolean playerCollision()</text>
<text text-anchor="start" x="682.5" y="-51.5" font-family="Helvetica,sans-Serif" font-size="10.00">+ Obstacle getPlayerTouchingObstacle()</text>
<text text-anchor="start" x="682.5" y="-40.5" font-family="Helvetica,sans-Serif" font-size="10.00">+ Player.Level getPlayerLevel()</text>
<text text-anchor="start" x="682.5" y="-29.5" font-family="Helvetica,sans-Serif" font-size="10.00">+ static Bounderies getBounderies()</text>
<text text-anchor="start" x="682.5" y="-18.5" font-family="Helvetica,sans-Serif" font-size="10.00">&#45; void playerDied()</text>
<text text-anchor="start" x="682.5" y="-7.5" font-family="Helvetica,sans-Serif" font-size="10.00">&#45; void startPlayer()</text>
</a>
</g>
</g>
<!-- Node2 -->
<g id="node2" class="node">
<title>Node2</title>
<g id="a_node2"><a xlink:title=" ">
<polygon fill="white" stroke="#666666" points="0,-386 0,-443 90,-443 90,-386 0,-386"/>
<text text-anchor="middle" x="45" y="-431" font-family="Helvetica,sans-Serif" font-size="10.00">GraphicsContext</text>
<polyline fill="none" stroke="#666666" points="0,-424 90,-424"/>
<text text-anchor="middle" x="45" y="-412" font-family="Helvetica,sans-Serif" font-size="10.00"> </text>
<polyline fill="none" stroke="#666666" points="0,-405 90,-405"/>
<text text-anchor="middle" x="45" y="-393" font-family="Helvetica,sans-Serif" font-size="10.00"> </text>
</a>
</g>
</g>
<!-- Node2&#45;&gt;Node1 -->
<g id="edge1" class="edge">
<title>Node2&#45;&gt;Node1</title>
<path fill="none" stroke="#404040" d="M42.98,-386.19C41.14,-339.34 44.79,-243.8 99,-193 178.78,-118.23 492.82,-89.42 661.87,-79.16"/>
<polygon fill="none" stroke="#404040" points="661.9,-79.16 667.65,-74.81 673.88,-78.45 668.12,-82.8 661.9,-79.16"/>
<text text-anchor="middle" x="155" y="-167" font-family="Helvetica,sans-Serif" font-size="10.00"> +gc</text>
</g>
<!-- Node3 -->
<g id="node3" class="node">
<title>Node3</title>
<g id="a_node3"><a xlink:href="classlogic_1_1Logic_1_1Bounderies.html" target="_top" xlink:title=" ">
<polygon fill="white" stroke="#666666" points="108,-292.5 108,-536.5 370,-536.5 370,-292.5 108,-292.5"/>
<text text-anchor="middle" x="239" y="-524.5" font-family="Helvetica,sans-Serif" font-size="10.00">logic.Logic.Bounderies</text>
<polyline fill="none" stroke="#666666" points="108,-517.5 370,-517.5"/>
<text text-anchor="start" x="116" y="-505.5" font-family="Helvetica,sans-Serif" font-size="10.00">&#45; final double groundPaddingPercentage</text>
<text text-anchor="start" x="116" y="-494.5" font-family="Helvetica,sans-Serif" font-size="10.00">&#45; final double groundStartX</text>
<text text-anchor="start" x="116" y="-483.5" font-family="Helvetica,sans-Serif" font-size="10.00">&#45; final double groundWidth</text>
<text text-anchor="start" x="116" y="-472.5" font-family="Helvetica,sans-Serif" font-size="10.00">&#45; final double groundEndX</text>
<text text-anchor="start" x="116" y="-461.5" font-family="Helvetica,sans-Serif" font-size="10.00">&#45; final double laneWidth</text>
<text text-anchor="start" x="116" y="-450.5" font-family="Helvetica,sans-Serif" font-size="10.00">&#45; final double screenWidth</text>
<text text-anchor="start" x="116" y="-439.5" font-family="Helvetica,sans-Serif" font-size="10.00">&#45; final double screenHeight</text>
<text text-anchor="start" x="116" y="-428.5" font-family="Helvetica,sans-Serif" font-size="10.00">&#45; final double playerYPercentage</text>
<polyline fill="none" stroke="#666666" points="108,-421.5 370,-421.5"/>
<text text-anchor="start" x="116" y="-409.5" font-family="Helvetica,sans-Serif" font-size="10.00">+ Bounderies(double screenWidth, double screenHeight)</text>
<text text-anchor="start" x="116" y="-398.5" font-family="Helvetica,sans-Serif" font-size="10.00">+ double getGroundStartX()</text>
<text text-anchor="start" x="116" y="-387.5" font-family="Helvetica,sans-Serif" font-size="10.00">+ double getGroundEndX()</text>
<text text-anchor="start" x="116" y="-376.5" font-family="Helvetica,sans-Serif" font-size="10.00">+ double getPlayerY()</text>
<text text-anchor="start" x="116" y="-365.5" font-family="Helvetica,sans-Serif" font-size="10.00">+ double getScreenHeight()</text>
<text text-anchor="start" x="116" y="-354.5" font-family="Helvetica,sans-Serif" font-size="10.00">+ double getScreenWidth()</text>
<text text-anchor="start" x="116" y="-343.5" font-family="Helvetica,sans-Serif" font-size="10.00">+ double getGroundWidth()</text>
<text text-anchor="start" x="116" y="-332.5" font-family="Helvetica,sans-Serif" font-size="10.00">+ double getLaneWidth()</text>
<text text-anchor="start" x="116" y="-321.5" font-family="Helvetica,sans-Serif" font-size="10.00">+ double getLaneStartX()</text>
<text text-anchor="start" x="116" y="-310.5" font-family="Helvetica,sans-Serif" font-size="10.00">+ double getLanePadding()</text>
<text text-anchor="start" x="116" y="-299.5" font-family="Helvetica,sans-Serif" font-size="10.00">+ double getLaneStartX(Block.Lane path)</text>
</a>
</g>
</g>
<!-- Node3&#45;&gt;Node1 -->
<g id="edge2" class="edge">
<title>Node3&#45;&gt;Node1</title>
<path fill="none" stroke="#404040" d="M296.07,-292.62C317.84,-256.61 345.62,-219.69 379,-193 460.37,-127.94 576.96,-98.37 661.83,-84.98"/>
<polygon fill="none" stroke="#404040" points="661.88,-84.97 667.22,-80.12 673.75,-83.18 668.41,-88.03 661.88,-84.97"/>
<text text-anchor="middle" x="453" y="-167" font-family="Helvetica,sans-Serif" font-size="10.00"> +bounderiesOBJ</text>
</g>
<!-- Node4 -->
<g id="node4" class="node">
<title>Node4</title>
<g id="a_node4"><a xlink:href="classobjects_1_1Ground.html" target="_top" xlink:title=" ">
<polygon fill="white" stroke="#666666" points="697,-829.5 697,-919.5 921,-919.5 921,-829.5 697,-829.5"/>
<text text-anchor="middle" x="809" y="-907.5" font-family="Helvetica,sans-Serif" font-size="10.00">objects.Ground</text>
<polyline fill="none" stroke="#666666" points="697,-900.5 921,-900.5"/>
<text text-anchor="start" x="705" y="-888.5" font-family="Helvetica,sans-Serif" font-size="10.00">+ static final double laneImageWidth</text>
<text text-anchor="start" x="705" y="-877.5" font-family="Helvetica,sans-Serif" font-size="10.00">&#45; double yDisplacement</text>
<polyline fill="none" stroke="#666666" points="697,-870.5 921,-870.5"/>
<text text-anchor="start" x="705" y="-858.5" font-family="Helvetica,sans-Serif" font-size="10.00">+ Ground(double x, double width, double length)</text>
<text text-anchor="start" x="705" y="-847.5" font-family="Helvetica,sans-Serif" font-size="10.00">+ void frameUpdate()</text>
<text text-anchor="start" x="705" y="-836.5" font-family="Helvetica,sans-Serif" font-size="10.00">+ void Draw()</text>
</a>
</g>
</g>
<!-- Node4&#45;&gt;Node1 -->
<g id="edge3" class="edge">
<title>Node4&#45;&gt;Node1</title>
<path fill="none" stroke="#404040" d="M817.45,-829.64C836.99,-720.8 880.43,-429.97 837,-193 834.76,-180.8 830.67,-168.6 825.57,-156.91"/>
<polygon fill="none" stroke="#404040" points="825.66,-157.09 819.49,-153.36 820.56,-146.23 826.73,-149.96 825.66,-157.09"/>
<text text-anchor="middle" x="873" y="-412" font-family="Helvetica,sans-Serif" font-size="10.00"> &#45;ground</text>
</g>
<!-- Node5 -->
<g id="node5" class="node">
<title>Node5</title>
<g id="a_node5"><a xlink:href="classobjects_1_1GameObject.html" target="_top" xlink:title=" ">
<polygon fill="white" stroke="#666666" points="834.5,-989.5 834.5,-1255.5 1157.5,-1255.5 1157.5,-989.5 834.5,-989.5"/>
<text text-anchor="middle" x="996" y="-1243.5" font-family="Helvetica,sans-Serif" font-size="10.00">objects.GameObject</text>
<polyline fill="none" stroke="#666666" points="834.5,-1236.5 1157.5,-1236.5"/>
<text text-anchor="start" x="842.5" y="-1224.5" font-family="Helvetica,sans-Serif" font-size="10.00"># double x</text>
<text text-anchor="start" x="842.5" y="-1213.5" font-family="Helvetica,sans-Serif" font-size="10.00"># double y</text>
<text text-anchor="start" x="842.5" y="-1202.5" font-family="Helvetica,sans-Serif" font-size="10.00"># double width</text>
<text text-anchor="start" x="842.5" y="-1191.5" font-family="Helvetica,sans-Serif" font-size="10.00"># double length</text>
<polyline fill="none" stroke="#666666" points="834.5,-1184.5 1157.5,-1184.5"/>
<text text-anchor="start" x="842.5" y="-1172.5" font-family="Helvetica,sans-Serif" font-size="10.00">+ GameObject(double x, double y, double width, double length)</text>
<text text-anchor="start" x="842.5" y="-1161.5" font-family="Helvetica,sans-Serif" font-size="10.00">+ GameObject(Block.Lane lane, double y, double width, double length)</text>
<text text-anchor="start" x="842.5" y="-1150.5" font-family="Helvetica,sans-Serif" font-size="10.00">+ GameObject(Block.Lane lane, double y, double cubeLength)</text>
<text text-anchor="start" x="842.5" y="-1139.5" font-family="Helvetica,sans-Serif" font-size="10.00">+ GameObject(double x, double y, double cubeLength)</text>
<text text-anchor="start" x="842.5" y="-1128.5" font-family="Helvetica,sans-Serif" font-size="10.00">+ double getWidth()</text>
<text text-anchor="start" x="842.5" y="-1117.5" font-family="Helvetica,sans-Serif" font-size="10.00">+ double getLength()</text>
<text text-anchor="start" x="842.5" y="-1106.5" font-family="Helvetica,sans-Serif" font-size="10.00">+ void setColor(Color color)</text>
<text text-anchor="start" x="842.5" y="-1095.5" font-family="Helvetica,sans-Serif" font-size="10.00">+ void setLane(Block.Lane path)</text>
<text text-anchor="start" x="842.5" y="-1084.5" font-family="Helvetica,sans-Serif" font-size="10.00">+ Block.Lane getLane()</text>
<text text-anchor="start" x="842.5" y="-1073.5" font-family="Helvetica,sans-Serif" font-size="10.00">+ void setX(double x)</text>
<text text-anchor="start" x="842.5" y="-1062.5" font-family="Helvetica,sans-Serif" font-size="10.00">+ void setY(double y)</text>
<text text-anchor="start" x="842.5" y="-1051.5" font-family="Helvetica,sans-Serif" font-size="10.00">+ double getY()</text>
<text text-anchor="start" x="842.5" y="-1040.5" font-family="Helvetica,sans-Serif" font-size="10.00">+ double getX()</text>
<text text-anchor="start" x="842.5" y="-1029.5" font-family="Helvetica,sans-Serif" font-size="10.00">+ void Draw()</text>
<text text-anchor="start" x="842.5" y="-1018.5" font-family="Helvetica,sans-Serif" font-size="10.00">+ boolean interesects(double x, double y)</text>
<text text-anchor="start" x="842.5" y="-1007.5" font-family="Helvetica,sans-Serif" font-size="10.00">+ boolean interesects(Block.Lane lane, double y)</text>
<text text-anchor="start" x="842.5" y="-996.5" font-family="Helvetica,sans-Serif" font-size="10.00">+ boolean touches(GameObject other)</text>
</a>
</g>
</g>
<!-- Node5&#45;&gt;Node4 -->
<g id="edge4" class="edge">
<title>Node5&#45;&gt;Node4</title>
<path fill="none" stroke="#63b8ff" d="M889.37,-981.23C872.31,-958.79 855.85,-937.13 842.31,-919.32"/>
<polygon fill="none" stroke="#63b8ff" points="887.09,-983.01 895.93,-988.86 892.67,-978.78 887.09,-983.01"/>
</g>
<!-- Node15 -->
<g id="node15" class="node">
<title>Node15</title>
<g id="a_node15"><a xlink:href="classobjects_1_1GameLaneObject.html" target="_top" xlink:title=" ">
<polygon fill="white" stroke="#666666" points="977,-807.5 977,-941.5 1321,-941.5 1321,-807.5 977,-807.5"/>
<text text-anchor="middle" x="1149" y="-929.5" font-family="Helvetica,sans-Serif" font-size="10.00">objects.GameLaneObject</text>
<polyline fill="none" stroke="#666666" points="977,-922.5 1321,-922.5"/>
<text text-anchor="middle" x="1149" y="-910.5" font-family="Helvetica,sans-Serif" font-size="10.00"> </text>
<polyline fill="none" stroke="#666666" points="977,-903.5 1321,-903.5"/>
<text text-anchor="start" x="985" y="-891.5" font-family="Helvetica,sans-Serif" font-size="10.00">+ GameLaneObject(Block.Lane lane, double y, double width, double length)</text>
<text text-anchor="start" x="985" y="-880.5" font-family="Helvetica,sans-Serif" font-size="10.00">+ GameLaneObject(Block.Lane lane, double y, double cubeLength)</text>
<text text-anchor="start" x="985" y="-869.5" font-family="Helvetica,sans-Serif" font-size="10.00">+ void setLane(Block.Lane path)</text>
<text text-anchor="start" x="985" y="-858.5" font-family="Helvetica,sans-Serif" font-size="10.00">+ Block.Lane getLane()</text>
<text text-anchor="start" x="985" y="-847.5" font-family="Helvetica,sans-Serif" font-size="10.00">+ void Draw()</text>
<text text-anchor="start" x="985" y="-836.5" font-family="Helvetica,sans-Serif" font-size="10.00">+ boolean contains(Block.Lane lane, double y)</text>
<text text-anchor="start" x="985" y="-825.5" font-family="Helvetica,sans-Serif" font-size="10.00">+ boolean touches(GameLaneObject other)</text>
<text text-anchor="start" x="985" y="-814.5" font-family="Helvetica,sans-Serif" font-size="10.00">+ double distance(GameLaneObject other)</text>
</a>
</g>
</g>
<!-- Node5&#45;&gt;Node15 -->
<g id="edge16" class="edge">
<title>Node5&#45;&gt;Node15</title>
<path fill="none" stroke="#63b8ff" d="M1083.49,-980.83C1091.99,-967.16 1100.32,-953.78 1108.02,-941.39"/>
<polygon fill="none" stroke="#63b8ff" points="1080.18,-978.52 1077.87,-988.86 1086.13,-982.21 1080.18,-978.52"/>
</g>
<!-- Node18 -->
<g id="node18" class="node">
<title>Node18</title>
<g id="a_node18"><a xlink:href="classlogic_1_1Logic_1_1Score.html" target="_top" xlink:title=" ">
<polygon fill="white" stroke="#666666" points="879.5,-654.5 879.5,-788.5 1020.5,-788.5 1020.5,-654.5 879.5,-654.5"/>
<text text-anchor="middle" x="950" y="-776.5" font-family="Helvetica,sans-Serif" font-size="10.00">logic.Logic.Score</text>
<polyline fill="none" stroke="#666666" points="879.5,-769.5 1020.5,-769.5"/>
<text text-anchor="start" x="887.5" y="-757.5" font-family="Helvetica,sans-Serif" font-size="10.00">+ static final double length</text>
<text text-anchor="start" x="887.5" y="-746.5" font-family="Helvetica,sans-Serif" font-size="10.00">+ static final double padding</text>
<text text-anchor="start" x="887.5" y="-735.5" font-family="Helvetica,sans-Serif" font-size="10.00">&#45; int currentScore</text>
<polyline fill="none" stroke="#666666" points="879.5,-728.5 1020.5,-728.5"/>
<text text-anchor="start" x="887.5" y="-716.5" font-family="Helvetica,sans-Serif" font-size="10.00">+ void increaseScore(int diff)</text>
<text text-anchor="start" x="887.5" y="-705.5" font-family="Helvetica,sans-Serif" font-size="10.00">+ void incrementScore()</text>
<text text-anchor="start" x="887.5" y="-694.5" font-family="Helvetica,sans-Serif" font-size="10.00">+ int getScore()</text>
<text text-anchor="start" x="887.5" y="-683.5" font-family="Helvetica,sans-Serif" font-size="10.00">+ void resetScore()</text>
<text text-anchor="start" x="887.5" y="-672.5" font-family="Helvetica,sans-Serif" font-size="10.00">+ void Draw()</text>
<text text-anchor="start" x="887.5" y="-661.5" font-family="Helvetica,sans-Serif" font-size="10.00">~ Score()</text>
</a>
</g>
</g>
<!-- Node5&#45;&gt;Node18 -->
<g id="edge23" class="edge">
<title>Node5&#45;&gt;Node18</title>
<path fill="none" stroke="#63b8ff" d="M972.84,-979.24C971.08,-966.66 969.44,-954.11 968,-942 961.89,-890.55 957.2,-832.07 954.15,-788.42"/>
<polygon fill="none" stroke="#63b8ff" points="969.46,-979.39 974.33,-988.8 976.39,-978.41 969.46,-979.39"/>
</g>
<!-- Node6 -->
<g id="node6" class="node">
<title>Node6</title>
<g id="a_node6"><a xlink:title=" ">
<polygon fill="white" stroke="#666666" points="1329,-1347.5 1329,-1404.5 1369,-1404.5 1369,-1347.5 1329,-1347.5"/>
<text text-anchor="middle" x="1349" y="-1392.5" font-family="Helvetica,sans-Serif" font-size="10.00">Color</text>
<polyline fill="none" stroke="#666666" points="1329,-1385.5 1369,-1385.5"/>
<text text-anchor="middle" x="1349" y="-1373.5" font-family="Helvetica,sans-Serif" font-size="10.00"> </text>
<polyline fill="none" stroke="#666666" points="1329,-1366.5 1369,-1366.5"/>
<text text-anchor="middle" x="1349" y="-1354.5" font-family="Helvetica,sans-Serif" font-size="10.00"> </text>
</a>
</g>
</g>
<!-- Node6&#45;&gt;Node5 -->
<g id="edge5" class="edge">
<title>Node6&#45;&gt;Node5</title>
<path fill="none" stroke="#404040" d="M1343.99,-1347.8C1339.9,-1332.73 1332.65,-1314.73 1320,-1303 1269.39,-1256.07 1233.33,-1287.65 1172,-1256 1170.94,-1255.45 1169.88,-1254.9 1168.82,-1254.34"/>
<polygon fill="none" stroke="#404040" points="1168.78,-1254.32 1161.6,-1254.95 1158.26,-1248.56 1165.44,-1247.93 1168.78,-1254.32"/>
<text text-anchor="middle" x="1308" y="-1277" font-family="Helvetica,sans-Serif" font-size="10.00"> #color</text>
</g>
<!-- Node14 -->
<g id="node14" class="node">
<title>Node14</title>
<g id="a_node14"><a xlink:href="classobjects_1_1Player.html" target="_top" xlink:title=" ">
<polygon fill="white" stroke="#666666" points="1253.5,-193.5 1253.5,-635.5 1444.5,-635.5 1444.5,-193.5 1253.5,-193.5"/>
<text text-anchor="middle" x="1349" y="-623.5" font-family="Helvetica,sans-Serif" font-size="10.00">objects.Player</text>
<polyline fill="none" stroke="#666666" points="1253.5,-616.5 1444.5,-616.5"/>
<text text-anchor="start" x="1261.5" y="-604.5" font-family="Helvetica,sans-Serif" font-size="10.00">+ static final double playerLength</text>
<text text-anchor="start" x="1261.5" y="-593.5" font-family="Helvetica,sans-Serif" font-size="10.00">+ static final int maxJumpFrames</text>
<text text-anchor="start" x="1261.5" y="-582.5" font-family="Helvetica,sans-Serif" font-size="10.00">+ static final int maxJumpLength</text>
<text text-anchor="start" x="1261.5" y="-571.5" font-family="Helvetica,sans-Serif" font-size="10.00">+ static final int maxRampFrames</text>
<text text-anchor="start" x="1261.5" y="-560.5" font-family="Helvetica,sans-Serif" font-size="10.00">+ static final double jumpFormulaATerm</text>
<text text-anchor="start" x="1261.5" y="-549.5" font-family="Helvetica,sans-Serif" font-size="10.00">+ static final double jumpFormulaBTerm</text>
<text text-anchor="start" x="1261.5" y="-538.5" font-family="Helvetica,sans-Serif" font-size="10.00">&#45; boolean jumping</text>
<text text-anchor="start" x="1261.5" y="-527.5" font-family="Helvetica,sans-Serif" font-size="10.00">&#45; boolean isClimbingRamp</text>
<text text-anchor="start" x="1261.5" y="-516.5" font-family="Helvetica,sans-Serif" font-size="10.00">&#45; Boolean alive</text>
<text text-anchor="start" x="1261.5" y="-505.5" font-family="Helvetica,sans-Serif" font-size="10.00">&#45; Boolean isDying</text>
<text text-anchor="start" x="1261.5" y="-494.5" font-family="Helvetica,sans-Serif" font-size="10.00">&#45; int currentJumpFrame</text>
<text text-anchor="start" x="1261.5" y="-483.5" font-family="Helvetica,sans-Serif" font-size="10.00">&#45; int currentRunningFrame</text>
<text text-anchor="start" x="1261.5" y="-472.5" font-family="Helvetica,sans-Serif" font-size="10.00">&#45; int currentDeathFrame</text>
<text text-anchor="start" x="1261.5" y="-461.5" font-family="Helvetica,sans-Serif" font-size="10.00">&#45; int currentClimbingFrame</text>
<polyline fill="none" stroke="#666666" points="1253.5,-454.5 1444.5,-454.5"/>
<text text-anchor="start" x="1261.5" y="-442.5" font-family="Helvetica,sans-Serif" font-size="10.00">+ Player()</text>
<text text-anchor="start" x="1261.5" y="-431.5" font-family="Helvetica,sans-Serif" font-size="10.00">+ Level getLevel()</text>
<text text-anchor="start" x="1261.5" y="-420.5" font-family="Helvetica,sans-Serif" font-size="10.00">+ void setLevel(Level level)</text>
<text text-anchor="start" x="1261.5" y="-409.5" font-family="Helvetica,sans-Serif" font-size="10.00">+ void moveLeft()</text>
<text text-anchor="start" x="1261.5" y="-398.5" font-family="Helvetica,sans-Serif" font-size="10.00">+ void moveRight()</text>
<text text-anchor="start" x="1261.5" y="-387.5" font-family="Helvetica,sans-Serif" font-size="10.00">+ boolean isJumping()</text>
<text text-anchor="start" x="1261.5" y="-376.5" font-family="Helvetica,sans-Serif" font-size="10.00">+ boolean isAlive()</text>
<text text-anchor="start" x="1261.5" y="-365.5" font-family="Helvetica,sans-Serif" font-size="10.00">+ boolean isDying()</text>
<text text-anchor="start" x="1261.5" y="-354.5" font-family="Helvetica,sans-Serif" font-size="10.00">+ void die()</text>
<text text-anchor="start" x="1261.5" y="-343.5" font-family="Helvetica,sans-Serif" font-size="10.00">+ void rampClimb()</text>
<text text-anchor="start" x="1261.5" y="-332.5" font-family="Helvetica,sans-Serif" font-size="10.00">+ void jump()</text>
<text text-anchor="start" x="1261.5" y="-321.5" font-family="Helvetica,sans-Serif" font-size="10.00">+ void setIsDying()</text>
<text text-anchor="start" x="1261.5" y="-310.5" font-family="Helvetica,sans-Serif" font-size="10.00">+ void jumpUpdate()</text>
<text text-anchor="start" x="1261.5" y="-299.5" font-family="Helvetica,sans-Serif" font-size="10.00">+ void setPlayerLevelLow()</text>
<text text-anchor="start" x="1261.5" y="-288.5" font-family="Helvetica,sans-Serif" font-size="10.00">+ void setPlayerLevelHigh()</text>
<text text-anchor="start" x="1261.5" y="-277.5" font-family="Helvetica,sans-Serif" font-size="10.00">+ void rampUpdate()</text>
<text text-anchor="start" x="1261.5" y="-266.5" font-family="Helvetica,sans-Serif" font-size="10.00">+ void updateDeathAnimation()</text>
<text text-anchor="start" x="1261.5" y="-255.5" font-family="Helvetica,sans-Serif" font-size="10.00">+ void playerUpdateAnimation()</text>
<text text-anchor="start" x="1261.5" y="-244.5" font-family="Helvetica,sans-Serif" font-size="10.00">&#45; void setAnimations()</text>
<text text-anchor="start" x="1261.5" y="-233.5" font-family="Helvetica,sans-Serif" font-size="10.00">&#45; void playerLengthIncrease(double diff)</text>
<text text-anchor="start" x="1261.5" y="-222.5" font-family="Helvetica,sans-Serif" font-size="10.00">&#45; void playerLengthDecrease(double diff)</text>
<text text-anchor="start" x="1261.5" y="-211.5" font-family="Helvetica,sans-Serif" font-size="10.00">&#45; double jumpCurrentValue(int frame)</text>
<text text-anchor="start" x="1261.5" y="-200.5" font-family="Helvetica,sans-Serif" font-size="10.00">&#45; void updateRunningAnimation()</text>
</a>
</g>
</g>
<!-- Node6&#45;&gt;Node14 -->
<g id="edge18" class="edge">
<title>Node6&#45;&gt;Node14</title>
<path fill="none" stroke="#404040" d="M1349,-1347.57C1349,-1246.75 1349,-889.95 1349,-648.22"/>
<polygon fill="none" stroke="#404040" points="1349,-648.25 1345,-642.25 1349,-636.25 1353,-642.25 1349,-648.25"/>
<text text-anchor="middle" x="1377" y="-963" font-family="Helvetica,sans-Serif" font-size="10.00"> &#45;playerColor</text>
</g>
<!-- Node7 -->
<g id="node7" class="node">
<title>Node7</title>
<g id="a_node7"><a xlink:title=" ">
<polygon fill="white" stroke="#666666" points="845,-1347.5 845,-1404.5 889,-1404.5 889,-1347.5 845,-1347.5"/>
<text text-anchor="middle" x="867" y="-1392.5" font-family="Helvetica,sans-Serif" font-size="10.00">Image</text>
<polyline fill="none" stroke="#666666" points="845,-1385.5 889,-1385.5"/>
<text text-anchor="middle" x="867" y="-1373.5" font-family="Helvetica,sans-Serif" font-size="10.00"> </text>
<polyline fill="none" stroke="#666666" points="845,-1366.5 889,-1366.5"/>
<text text-anchor="middle" x="867" y="-1354.5" font-family="Helvetica,sans-Serif" font-size="10.00"> </text>
</a>
</g>
</g>
<!-- Node7&#45;&gt;Node4 -->
<g id="edge10" class="edge">
<title>Node7&#45;&gt;Node4</title>
<path fill="none" stroke="#404040" d="M848.5,-1347.59C833.99,-1324.35 814.98,-1289.54 807,-1256 780.29,-1143.69 790.98,-1007.4 800.45,-932.21"/>
<polygon fill="none" stroke="#404040" points="800.46,-932.14 797.28,-925.67 802.02,-920.24 805.21,-926.71 800.46,-932.14"/>
<text text-anchor="middle" x="816.5" y="-1120" font-family="Helvetica,sans-Serif" font-size="10.00"> &#45;tile</text>
</g>
<!-- Node7&#45;&gt;Node5 -->
<g id="edge6" class="edge">
<title>Node7&#45;&gt;Node5</title>
<path fill="none" stroke="#404040" d="M881.05,-1347.61C891.49,-1327.25 906.62,-1297.76 922.49,-1266.82"/>
<polygon fill="none" stroke="#404040" points="922.47,-1266.85 921.65,-1259.69 927.95,-1256.17 928.77,-1263.34 922.47,-1266.85"/>
<text text-anchor="middle" x="933.5" y="-1277" font-family="Helvetica,sans-Serif" font-size="10.00"> #image</text>
</g>
<!-- Node8 -->
<g id="node8" class="node">
<title>Node8</title>
<g id="a_node8"><a xlink:href="classobjects_1_1Block.html" target="_top" xlink:title=" ">
<polygon fill="white" stroke="#666666" points="1053,-1303.5 1053,-1448.5 1311,-1448.5 1311,-1303.5 1053,-1303.5"/>
<text text-anchor="middle" x="1182" y="-1436.5" font-family="Helvetica,sans-Serif" font-size="10.00">objects.Block</text>
<polyline fill="none" stroke="#666666" points="1053,-1429.5 1311,-1429.5"/>
<text text-anchor="start" x="1061" y="-1417.5" font-family="Helvetica,sans-Serif" font-size="10.00">+ static final double speed</text>
<text text-anchor="start" x="1061" y="-1406.5" font-family="Helvetica,sans-Serif" font-size="10.00">&#45; double currentY</text>
<polyline fill="none" stroke="#666666" points="1053,-1399.5 1311,-1399.5"/>
<text text-anchor="start" x="1061" y="-1387.5" font-family="Helvetica,sans-Serif" font-size="10.00">+ Block(ArrayList&lt; Obstacle &gt; left, ArrayList&lt; Obstacle</text>
<text text-anchor="start" x="1061" y="-1376.5" font-family="Helvetica,sans-Serif" font-size="10.00"> &gt; center, ArrayList&lt; Obstacle &gt; right)</text>
<text text-anchor="start" x="1061" y="-1365.5" font-family="Helvetica,sans-Serif" font-size="10.00">+ double getCurrentY()</text>
<text text-anchor="start" x="1061" y="-1354.5" font-family="Helvetica,sans-Serif" font-size="10.00">+ ArrayList&lt; Obstacle &gt; getLane(Lane lane)</text>
<text text-anchor="start" x="1061" y="-1343.5" font-family="Helvetica,sans-Serif" font-size="10.00">+ ArrayList&lt; Obstacle &gt; getLeftLane()</text>
<text text-anchor="start" x="1061" y="-1332.5" font-family="Helvetica,sans-Serif" font-size="10.00">+ ArrayList&lt; Obstacle &gt; getCenterLane()</text>
<text text-anchor="start" x="1061" y="-1321.5" font-family="Helvetica,sans-Serif" font-size="10.00">+ ArrayList&lt; Obstacle &gt; getRightLane()</text>
<text text-anchor="start" x="1061" y="-1310.5" font-family="Helvetica,sans-Serif" font-size="10.00">+ void frameUpdate()</text>
</a>
</g>
</g>
<!-- Node8&#45;&gt;Node5 -->
<g id="edge7" class="edge">
<title>Node8&#45;&gt;Node5</title>
<path fill="none" stroke="#404040" d="M1065.53,-1303.73C1059.53,-1297.81 1053.95,-1291.56 1049,-1285 1044.56,-1279.12 1040.48,-1272.84 1036.73,-1266.31"/>
<polygon fill="none" stroke="#404040" points="1036.82,-1266.47 1030.47,-1263.07 1031.17,-1255.89 1037.52,-1259.3 1036.82,-1266.47"/>
<text text-anchor="middle" x="1062.5" y="-1277" font-family="Helvetica,sans-Serif" font-size="10.00"> #lane</text>
</g>
<!-- Node8&#45;&gt;Node15 -->
<g id="edge17" class="edge">
<title>Node8&#45;&gt;Node15</title>
<path fill="none" stroke="#404040" d="M1181.9,-1303.67C1181.16,-1226.06 1178.14,-1098.42 1167,-989 1165.84,-977.63 1164.3,-965.67 1162.61,-953.94"/>
<polygon fill="none" stroke="#404040" points="1162.63,-954.11 1157.79,-948.77 1160.85,-942.25 1165.7,-947.59 1162.63,-954.11"/>
<text text-anchor="middle" x="1194.5" y="-1120" font-family="Helvetica,sans-Serif" font-size="10.00"> #lane</text>
</g>
<!-- Node9 -->
<g id="node9" class="node">
<title>Node9</title>
<g id="a_node9"><a xlink:title=" ">
<polygon fill="white" stroke="#666666" points="1264.5,-1543.5 1264.5,-1600.5 1411.5,-1600.5 1411.5,-1543.5 1264.5,-1543.5"/>
<text text-anchor="middle" x="1338" y="-1588.5" font-family="Helvetica,sans-Serif" font-size="10.00">ArrayList&lt; objects.Obstacle &gt;</text>
<polyline fill="none" stroke="#666666" points="1264.5,-1581.5 1411.5,-1581.5"/>
<text text-anchor="middle" x="1338" y="-1569.5" font-family="Helvetica,sans-Serif" font-size="10.00"> </text>
<polyline fill="none" stroke="#666666" points="1264.5,-1562.5 1411.5,-1562.5"/>
<text text-anchor="middle" x="1338" y="-1550.5" font-family="Helvetica,sans-Serif" font-size="10.00"> </text>
</a>
</g>
</g>
<!-- Node9&#45;&gt;Node8 -->
<g id="edge8" class="edge">
<title>Node9&#45;&gt;Node8</title>
<path fill="none" stroke="#404040" d="M1315.98,-1543.62C1298.02,-1521.28 1271.69,-1488.53 1247.11,-1457.97"/>
<polygon fill="none" stroke="#404040" points="1247.29,-1458.2 1240.41,-1456.03 1239.77,-1448.84 1246.65,-1451.01 1247.29,-1458.2"/>
<text text-anchor="middle" x="1317" y="-1504.5" font-family="Helvetica,sans-Serif" font-size="10.00"> &#45;center</text>
<text text-anchor="middle" x="1317" y="-1493.5" font-family="Helvetica,sans-Serif" font-size="10.00">&#45;left</text>
<text text-anchor="middle" x="1317" y="-1482.5" font-family="Helvetica,sans-Serif" font-size="10.00">&#45;right</text>
</g>
<!-- Node10 -->
<g id="node10" class="node">
<title>Node10</title>
<g id="a_node10"><a xlink:title=" ">
<polygon fill="white" stroke="#666666" points="1396,-1648.5 1396,-1705.5 1452,-1705.5 1452,-1648.5 1396,-1648.5"/>
<text text-anchor="middle" x="1424" y="-1693.5" font-family="Helvetica,sans-Serif" font-size="10.00">ArrayList</text>
<polyline fill="none" stroke="#666666" points="1396,-1686.5 1452,-1686.5"/>
<text text-anchor="middle" x="1424" y="-1674.5" font-family="Helvetica,sans-Serif" font-size="10.00"> </text>
<polyline fill="none" stroke="#666666" points="1396,-1667.5 1452,-1667.5"/>
<text text-anchor="middle" x="1424" y="-1655.5" font-family="Helvetica,sans-Serif" font-size="10.00"> </text>
</a>
</g>
</g>
<!-- Node10&#45;&gt;Node9 -->
<g id="edge9" class="edge">
<title>Node10&#45;&gt;Node9</title>
<path fill="none" stroke="orange" d="M1389.04,-1642.35C1385.21,-1638.28 1381.45,-1634.11 1378,-1630 1370.22,-1620.74 1362.42,-1610.02 1355.8,-1600.39"/>
<polygon fill="orange" stroke="orange" points="1385.96,-1644.23 1395.43,-1648.99 1390.99,-1639.37 1385.96,-1644.23"/>
<text text-anchor="middle" x="1427" y="-1622" font-family="Helvetica,sans-Serif" font-size="10.00"> &lt; objects::Obstacle &gt;</text>
</g>
<!-- Node17 -->
<g id="node17" class="node">
<title>Node17</title>
<g id="a_node17"><a xlink:title=" ">
<polygon fill="white" stroke="#666666" points="1453.5,-1467.5 1453.5,-1524.5 1554.5,-1524.5 1554.5,-1467.5 1453.5,-1467.5"/>
<text text-anchor="middle" x="1504" y="-1512.5" font-family="Helvetica,sans-Serif" font-size="10.00">ArrayList&lt; Image &gt;</text>
<polyline fill="none" stroke="#666666" points="1453.5,-1505.5 1554.5,-1505.5"/>
<text text-anchor="middle" x="1504" y="-1493.5" font-family="Helvetica,sans-Serif" font-size="10.00"> </text>
<polyline fill="none" stroke="#666666" points="1453.5,-1486.5 1554.5,-1486.5"/>
<text text-anchor="middle" x="1504" y="-1474.5" font-family="Helvetica,sans-Serif" font-size="10.00"> </text>
</a>
</g>
</g>
<!-- Node10&#45;&gt;Node17 -->
<g id="edge21" class="edge">
<title>Node10&#45;&gt;Node17</title>
<path fill="none" stroke="orange" d="M1459.85,-1649.89C1466.01,-1643.96 1471.78,-1637.25 1476,-1630 1495.23,-1596.96 1501.33,-1552.48 1503.22,-1524.26"/>
<polygon fill="orange" stroke="orange" points="1458.05,-1646.69 1452.91,-1655.95 1462.71,-1651.92 1458.05,-1646.69"/>
<text text-anchor="middle" x="1504.5" y="-1622" font-family="Helvetica,sans-Serif" font-size="10.00"> &lt; Image &gt;</text>
</g>
<!-- Node11 -->
<g id="node11" class="node">
<title>Node11</title>
<g id="a_node11"><a xlink:href="classlogic_1_1ObstacleFactory.html" target="_top" xlink:title=" ">
<polygon fill="white" stroke="#666666" points="528,-331 528,-498 828,-498 828,-331 528,-331"/>
<text text-anchor="middle" x="678" y="-486" font-family="Helvetica,sans-Serif" font-size="10.00">logic.ObstacleFactory</text>
<polyline fill="none" stroke="#666666" points="528,-479 828,-479"/>
<text text-anchor="start" x="536" y="-467" font-family="Helvetica,sans-Serif" font-size="10.00">+ static final int buildingScreens</text>
<text text-anchor="start" x="536" y="-456" font-family="Helvetica,sans-Serif" font-size="10.00">+ static final int bufferScreens</text>
<text text-anchor="start" x="536" y="-445" font-family="Helvetica,sans-Serif" font-size="10.00">&#45; final double logicalLaneLength</text>
<text text-anchor="start" x="536" y="-434" font-family="Helvetica,sans-Serif" font-size="10.00">&#45; static final double minSpace</text>
<text text-anchor="start" x="536" y="-423" font-family="Helvetica,sans-Serif" font-size="10.00">&#45; static final double space</text>
<text text-anchor="start" x="536" y="-412" font-family="Helvetica,sans-Serif" font-size="10.00">&#45; static final double testObjectStep</text>
<text text-anchor="start" x="536" y="-401" font-family="Helvetica,sans-Serif" font-size="10.00">&#45; static final double testObjectLength</text>
<polyline fill="none" stroke="#666666" points="528,-394 828,-394"/>
<text text-anchor="start" x="536" y="-382" font-family="Helvetica,sans-Serif" font-size="10.00">+ ObstacleFactory()</text>
<text text-anchor="start" x="536" y="-371" font-family="Helvetica,sans-Serif" font-size="10.00">+ Block generateBlock()</text>
<text text-anchor="start" x="536" y="-360" font-family="Helvetica,sans-Serif" font-size="10.00">+ ArrayList&lt; Obstacle &gt; generatePath()</text>
<text text-anchor="start" x="536" y="-349" font-family="Helvetica,sans-Serif" font-size="10.00">+ boolean winningPath(ArrayList&lt; ArrayList&lt; Obstacle &gt; &gt; lanes)</text>
<text text-anchor="start" x="536" y="-338" font-family="Helvetica,sans-Serif" font-size="10.00">+ Obstacle generateObstacle()</text>
</a>
</g>
</g>
<!-- Node11&#45;&gt;Node1 -->
<g id="edge11" class="edge">
<title>Node11&#45;&gt;Node1</title>
<path fill="none" stroke="#404040" d="M700.51,-331.32C714.92,-278.72 733.56,-210.68 748.05,-157.78"/>
<polygon fill="none" stroke="#404040" points="748.04,-157.8 745.77,-150.96 751.21,-146.23 753.49,-153.07 748.04,-157.8"/>
<text text-anchor="middle" x="784" y="-167" font-family="Helvetica,sans-Serif" font-size="10.00"> &#45;obstacleFactory</text>
</g>
<!-- Node12 -->
<g id="node12" class="node">
<title>Node12</title>
<g id="a_node12"><a xlink:title=" ">
<polygon fill="white" stroke="#666666" points="388,-386 388,-443 510,-443 510,-386 388,-386"/>
<text text-anchor="middle" x="449" y="-431" font-family="Helvetica,sans-Serif" font-size="10.00">Deque&lt; objects.Block &gt;</text>
<polyline fill="none" stroke="#666666" points="388,-424 510,-424"/>
<text text-anchor="middle" x="449" y="-412" font-family="Helvetica,sans-Serif" font-size="10.00"> </text>
<polyline fill="none" stroke="#666666" points="388,-405 510,-405"/>
<text text-anchor="middle" x="449" y="-393" font-family="Helvetica,sans-Serif" font-size="10.00"> </text>
</a>
</g>
</g>
<!-- Node12&#45;&gt;Node1 -->
<g id="edge12" class="edge">
<title>Node12&#45;&gt;Node1</title>
<path fill="none" stroke="#404040" d="M450.77,-386.04C455.08,-340.64 469.69,-249.39 519,-193 556.44,-150.18 612.63,-121.6 662.46,-103.2"/>
<polygon fill="none" stroke="#404040" points="662.49,-103.19 666.8,-97.41 673.8,-99.16 669.49,-104.94 662.49,-103.19"/>
<text text-anchor="middle" x="584.5" y="-167" font-family="Helvetica,sans-Serif" font-size="10.00"> &#45;obstaclesBlocks</text>
</g>
<!-- Node13 -->
<g id="node13" class="node">
<title>Node13</title>
<g id="a_node13"><a xlink:title=" ">
<polygon fill="white" stroke="#666666" points="426.5,-846 426.5,-903 471.5,-903 471.5,-846 426.5,-846"/>
<text text-anchor="middle" x="449" y="-891" font-family="Helvetica,sans-Serif" font-size="10.00">Deque</text>
<polyline fill="none" stroke="#666666" points="426.5,-884 471.5,-884"/>
<text text-anchor="middle" x="449" y="-872" font-family="Helvetica,sans-Serif" font-size="10.00"> </text>
<polyline fill="none" stroke="#666666" points="426.5,-865 471.5,-865"/>
<text text-anchor="middle" x="449" y="-853" font-family="Helvetica,sans-Serif" font-size="10.00"> </text>
</a>
</g>
</g>
<!-- Node13&#45;&gt;Node12 -->
<g id="edge13" class="edge">
<title>Node13&#45;&gt;Node12</title>
<path fill="none" stroke="orange" d="M449,-835.43C449,-745.41 449,-521.13 449,-442.92"/>
<polygon fill="orange" stroke="orange" points="445.5,-835.22 449,-845.22 452.5,-835.22 445.5,-835.22"/>
<text text-anchor="middle" x="491" y="-719" font-family="Helvetica,sans-Serif" font-size="10.00"> &lt; objects::Block &gt;</text>
</g>
<!-- Node14&#45;&gt;Node1 -->
<g id="edge14" class="edge">
<title>Node14&#45;&gt;Node1</title>
<path fill="none" stroke="#404040" d="M1253.51,-202.31C1250.12,-199.06 1246.62,-195.96 1243,-193 1139.48,-108.46 983.72,-82.96 879.78,-75.81"/>
<polygon fill="none" stroke="#404040" points="879.93,-75.82 873.69,-79.44 867.95,-75.07 874.19,-71.45 879.93,-75.82"/>
<text text-anchor="middle" x="1227.5" y="-167" font-family="Helvetica,sans-Serif" font-size="10.00"> &#45;player</text>
</g>
<!-- Node15&#45;&gt;Node14 -->
<g id="edge15" class="edge">
<title>Node15&#45;&gt;Node14</title>
<path fill="none" stroke="#63b8ff" d="M1182.01,-797.9C1201.73,-752.75 1227.87,-692.88 1253.61,-633.94"/>
<polygon fill="none" stroke="#63b8ff" points="1178.45,-796.31 1177.66,-806.88 1184.86,-799.12 1178.45,-796.31"/>
</g>
<!-- Node19 -->
<g id="node19" class="node">
<title>Node19</title>
<g id="a_node19"><a xlink:href="classobjects_1_1Obstacle.html" target="_top" xlink:title=" ">
<polygon fill="white" stroke="#666666" points="988,-369.5 988,-459.5 1234,-459.5 1234,-369.5 988,-369.5"/>
<text text-anchor="middle" x="1111" y="-447.5" font-family="Helvetica,sans-Serif" font-size="10.00">objects.Obstacle</text>
<polyline fill="none" stroke="#666666" points="988,-440.5 1234,-440.5"/>
<text text-anchor="start" x="996" y="-428.5" font-family="Helvetica,sans-Serif" font-size="10.00">+ static final double obestacleWidth</text>
<polyline fill="none" stroke="#666666" points="988,-421.5 1234,-421.5"/>
<text text-anchor="start" x="996" y="-409.5" font-family="Helvetica,sans-Serif" font-size="10.00">+ Obstacle(Block.Lane lane, double y, double length)</text>
<text text-anchor="start" x="996" y="-398.5" font-family="Helvetica,sans-Serif" font-size="10.00">+ void addY(double diff)</text>
<text text-anchor="start" x="996" y="-387.5" font-family="Helvetica,sans-Serif" font-size="10.00">+ boolean isOffTheScreen()</text>
<text text-anchor="start" x="996" y="-376.5" font-family="Helvetica,sans-Serif" font-size="10.00">+ void Draw()</text>
</a>
</g>
</g>
<!-- Node15&#45;&gt;Node19 -->
<g id="edge25" class="edge">
<title>Node15&#45;&gt;Node19</title>
<path fill="none" stroke="#63b8ff" d="M1142.65,-797.01C1134.63,-700.32 1121.09,-537.13 1114.64,-459.32"/>
<polygon fill="none" stroke="#63b8ff" points="1139.24,-797.2 1143.56,-806.88 1146.22,-796.62 1139.24,-797.2"/>
</g>
<!-- Node16 -->
<g id="node16" class="node">
<title>Node16</title>
<g id="a_node16"><a xlink:href="enumobjects_1_1Player_1_1Level.html" target="_top" xlink:title=" ">
<polygon fill="white" stroke="#666666" points="1377.5,-840.5 1377.5,-908.5 1482.5,-908.5 1482.5,-840.5 1377.5,-840.5"/>
<text text-anchor="middle" x="1430" y="-896.5" font-family="Helvetica,sans-Serif" font-size="10.00">objects.Player.Level</text>
<polyline fill="none" stroke="#666666" points="1377.5,-889.5 1482.5,-889.5"/>
<text text-anchor="start" x="1385.5" y="-877.5" font-family="Helvetica,sans-Serif" font-size="10.00">+ LOW</text>
<text text-anchor="start" x="1385.5" y="-866.5" font-family="Helvetica,sans-Serif" font-size="10.00">+ HIGH</text>
<polyline fill="none" stroke="#666666" points="1377.5,-859.5 1482.5,-859.5"/>
<text text-anchor="middle" x="1430" y="-847.5" font-family="Helvetica,sans-Serif" font-size="10.00"> </text>
</a>
</g>
</g>
<!-- Node16&#45;&gt;Node14 -->
<g id="edge19" class="edge">
<title>Node16&#45;&gt;Node14</title>
<path fill="none" stroke="#404040" d="M1424.17,-840.56C1416.82,-798.98 1403.51,-723.7 1390.1,-647.91"/>
<polygon fill="none" stroke="#404040" points="1390.11,-647.96 1385.13,-642.75 1388.02,-636.14 1393.01,-641.36 1390.11,-647.96"/>
<text text-anchor="middle" x="1427.5" y="-719" font-family="Helvetica,sans-Serif" font-size="10.00"> &#45;level</text>
</g>
<!-- Node17&#45;&gt;Node14 -->
<g id="edge20" class="edge">
<title>Node17&#45;&gt;Node14</title>
<path fill="none" stroke="#404040" d="M1505.47,-1467.58C1507.52,-1426.8 1511,-1347.75 1511,-1280.5 1511,-1280.5 1511,-1280.5 1511,-873.5 1511,-782.86 1482.45,-687.61 1449.33,-607.6"/>
<polygon fill="none" stroke="#404040" points="1449.41,-607.8 1443.4,-603.82 1444.76,-596.73 1450.77,-600.71 1449.41,-607.8"/>
<text text-anchor="middle" x="1543" y="-1125.5" font-family="Helvetica,sans-Serif" font-size="10.00"> &#45;deathFrames</text>
<text text-anchor="middle" x="1543" y="-1114.5" font-family="Helvetica,sans-Serif" font-size="10.00">&#45;runFrames</text>
</g>
<!-- Node18&#45;&gt;Node1 -->
<g id="edge22" class="edge">
<title>Node18&#45;&gt;Node1</title>
<path fill="none" stroke="#404040" d="M946.6,-654.72C939.43,-522.68 921.95,-234.41 904,-193 897.26,-177.44 887.32,-163.1 875.87,-150.16"/>
<polygon fill="none" stroke="#404040" points="876.1,-150.41 869.08,-148.77 867.89,-141.65 874.92,-143.3 876.1,-150.41"/>
<text text-anchor="middle" x="960.5" y="-412" font-family="Helvetica,sans-Serif" font-size="10.00"> &#45;score</text>
</g>
<!-- Node19&#45;&gt;Node1 -->
<g id="edge24" class="edge">
<title>Node19&#45;&gt;Node1</title>
<path fill="none" stroke="#404040" d="M1093.08,-369.94C1068.58,-315.18 1019.81,-221.43 952,-164 930.4,-145.71 904.45,-130.01 879.03,-117.08"/>
<polygon fill="none" stroke="#404040" points="878.97,-117.06 871.82,-117.98 868.21,-111.74 875.36,-110.81 878.97,-117.06"/>
<text text-anchor="middle" x="1001.5" y="-167" font-family="Helvetica,sans-Serif" font-size="10.00"> &#45;lastTouchedObs</text>
</g>
</g>
</svg>
