<?xml version="1.0" encoding="UTF-8" standalone="no"?>
<!DOCTYPE svg PUBLIC "-//W3C//DTD SVG 1.1//EN"
 "http://www.w3.org/Graphics/SVG/1.1/DTD/svg11.dtd">
<!-- Generated by graphviz version 8.0.3 (0)
 -->
<!-- Title: eu.anwar.madrunner.GameLoop Pages: 1 -->
<svg width="163pt" height="226pt"
 viewBox="0.00 0.00 163.00 226.00" xmlns="http://www.w3.org/2000/svg" xmlns:xlink="http://www.w3.org/1999/xlink">
<g id="graph0" class="graph" transform="scale(1 1) rotate(0) translate(4 222)">
<title>eu.anwar.madrunner.GameLoop</title>
<!-- Node1 -->
<g id="node1" class="node">
<title>Node1</title>
<g id="a_node1"><a xlink:title=" ">
<polygon fill="#999999" stroke="#666666" points="0,-0.5 0,-123.5 155,-123.5 155,-0.5 0,-0.5"/>
<text text-anchor="middle" x="77.5" y="-111.5" font-family="Helvetica,sans-Serif" font-size="10.00">eu.anwar.madrunner.GameLoop</text>
<polyline fill="none" stroke="#666666" points="0,-104.5 155,-104.5"/>
<text text-anchor="start" x="8" y="-92.5" font-family="Helvetica,sans-Serif" font-size="10.00">+ static final double fontSize</text>
<text text-anchor="start" x="8" y="-81.5" font-family="Helvetica,sans-Serif" font-size="10.00">+ static final long FPS</text>
<text text-anchor="start" x="8" y="-70.5" font-family="Helvetica,sans-Serif" font-size="10.00">&#45; GraphicsContext gc</text>
<text text-anchor="start" x="8" y="-59.5" font-family="Helvetica,sans-Serif" font-size="10.00">&#45; Logic gameLogic</text>
<text text-anchor="start" x="8" y="-48.5" font-family="Helvetica,sans-Serif" font-size="10.00">&#45; Font gameFont</text>
<text text-anchor="start" x="8" y="-37.5" font-family="Helvetica,sans-Serif" font-size="10.00">&#45; long last</text>
<polyline fill="none" stroke="#666666" points="0,-30.5 155,-30.5"/>
<text text-anchor="start" x="8" y="-18.5" font-family="Helvetica,sans-Serif" font-size="10.00">+ GameLoop(Canvas canvas)</text>
<text text-anchor="start" x="8" y="-7.5" font-family="Helvetica,sans-Serif" font-size="10.00">+ void handle(long now)</text>
</a>
</g>
</g>
<!-- Node2 -->
<g id="node2" class="node">
<title>Node2</title>
<g id="a_node2"><a xlink:title=" ">
<polygon fill="white" stroke="#666666" points="35,-160.5 35,-217.5 120,-217.5 120,-160.5 35,-160.5"/>
<text text-anchor="middle" x="77.5" y="-205.5" font-family="Helvetica,sans-Serif" font-size="10.00">AnimationTimer</text>
<polyline fill="none" stroke="#666666" points="35,-198.5 120,-198.5"/>
<text text-anchor="middle" x="77.5" y="-186.5" font-family="Helvetica,sans-Serif" font-size="10.00"> </text>
<polyline fill="none" stroke="#666666" points="35,-179.5 120,-179.5"/>
<text text-anchor="middle" x="77.5" y="-167.5" font-family="Helvetica,sans-Serif" font-size="10.00"> </text>
</a>
</g>
</g>
<!-- Node2&#45;&gt;Node1 -->
<g id="edge1" class="edge">
<title>Node2&#45;&gt;Node1</title>
<path fill="none" stroke="#63b8ff" d="M77.5,-149.7C77.5,-141.37 77.5,-132.37 77.5,-123.42"/>
<polygon fill="none" stroke="#63b8ff" points="74,-149.57 77.5,-159.57 81,-149.57 74,-149.57"/>
</g>
</g>
</svg>
