<?xml version="1.0" encoding="UTF-8" standalone="no"?>
<!DOCTYPE svg PUBLIC "-//W3C//DTD SVG 1.1//EN"
 "http://www.w3.org/Graphics/SVG/1.1/DTD/svg11.dtd">
<!-- Generated by graphviz version 8.0.3 (0)
 -->
<!-- Title: eu.anwar.madrunner.objects.Player Pages: 1 -->
<svg width="785pt" height="1430pt"
 viewBox="0.00 0.00 785.22 1430.00" xmlns="http://www.w3.org/2000/svg" xmlns:xlink="http://www.w3.org/1999/xlink">
<g id="graph0" class="graph" transform="scale(1 1) rotate(0) translate(4 1426)">
<title>eu.anwar.madrunner.objects.Player</title>
<!-- Node1 -->
<g id="node1" class="node">
<title>Node1</title>
<g id="a_node1"><a xlink:title=" ">
<polygon fill="#999999" stroke="#666666" points="367.22,-0.5 367.22,-442.5 558.22,-442.5 558.22,-0.5 367.22,-0.5"/>
<text text-anchor="middle" x="462.72" y="-430.5" font-family="Helvetica,sans-Serif" font-size="10.00">eu.anwar.madrunner.objects.Player</text>
<polyline fill="none" stroke="#666666" points="367.22,-423.5 558.22,-423.5"/>
<text text-anchor="start" x="375.22" y="-411.5" font-family="Helvetica,sans-Serif" font-size="10.00">+ static final double playerLength</text>
<text text-anchor="start" x="375.22" y="-400.5" font-family="Helvetica,sans-Serif" font-size="10.00">+ static final int maxJumpFrames</text>
<text text-anchor="start" x="375.22" y="-389.5" font-family="Helvetica,sans-Serif" font-size="10.00">+ static final int maxJumpLength</text>
<text text-anchor="start" x="375.22" y="-378.5" font-family="Helvetica,sans-Serif" font-size="10.00">+ static final int maxRampFrames</text>
<text text-anchor="start" x="375.22" y="-367.5" font-family="Helvetica,sans-Serif" font-size="10.00">+ static final double jumpFormulaATerm</text>
<text text-anchor="start" x="375.22" y="-356.5" font-family="Helvetica,sans-Serif" font-size="10.00">+ static final double jumpFormulaBTerm</text>
<text text-anchor="start" x="375.22" y="-345.5" font-family="Helvetica,sans-Serif" font-size="10.00">&#45; boolean jumping</text>
<text text-anchor="start" x="375.22" y="-334.5" font-family="Helvetica,sans-Serif" font-size="10.00">&#45; boolean isClimbingRamp</text>
<text text-anchor="start" x="375.22" y="-323.5" font-family="Helvetica,sans-Serif" font-size="10.00">&#45; Boolean alive</text>
<text text-anchor="start" x="375.22" y="-312.5" font-family="Helvetica,sans-Serif" font-size="10.00">&#45; Boolean isDying</text>
<text text-anchor="start" x="375.22" y="-301.5" font-family="Helvetica,sans-Serif" font-size="10.00">&#45; int currentJumpFrame</text>
<text text-anchor="start" x="375.22" y="-290.5" font-family="Helvetica,sans-Serif" font-size="10.00">&#45; int currentRunningFrame</text>
<text text-anchor="start" x="375.22" y="-279.5" font-family="Helvetica,sans-Serif" font-size="10.00">&#45; int currentDeathFrame</text>
<text text-anchor="start" x="375.22" y="-268.5" font-family="Helvetica,sans-Serif" font-size="10.00">&#45; int currentClimbingFrame</text>
<polyline fill="none" stroke="#666666" points="367.22,-261.5 558.22,-261.5"/>
<text text-anchor="start" x="375.22" y="-249.5" font-family="Helvetica,sans-Serif" font-size="10.00">+ Player()</text>
<text text-anchor="start" x="375.22" y="-238.5" font-family="Helvetica,sans-Serif" font-size="10.00">+ Level getLevel()</text>
<text text-anchor="start" x="375.22" y="-227.5" font-family="Helvetica,sans-Serif" font-size="10.00">+ void setLevel(Level level)</text>
<text text-anchor="start" x="375.22" y="-216.5" font-family="Helvetica,sans-Serif" font-size="10.00">+ void moveLeft()</text>
<text text-anchor="start" x="375.22" y="-205.5" font-family="Helvetica,sans-Serif" font-size="10.00">+ void moveRight()</text>
<text text-anchor="start" x="375.22" y="-194.5" font-family="Helvetica,sans-Serif" font-size="10.00">+ boolean isJumping()</text>
<text text-anchor="start" x="375.22" y="-183.5" font-family="Helvetica,sans-Serif" font-size="10.00">+ boolean isAlive()</text>
<text text-anchor="start" x="375.22" y="-172.5" font-family="Helvetica,sans-Serif" font-size="10.00">+ boolean isDying()</text>
<text text-anchor="start" x="375.22" y="-161.5" font-family="Helvetica,sans-Serif" font-size="10.00">+ void die()</text>
<text text-anchor="start" x="375.22" y="-150.5" font-family="Helvetica,sans-Serif" font-size="10.00">+ void rampClimb()</text>
<text text-anchor="start" x="375.22" y="-139.5" font-family="Helvetica,sans-Serif" font-size="10.00">+ void jump()</text>
<text text-anchor="start" x="375.22" y="-128.5" font-family="Helvetica,sans-Serif" font-size="10.00">+ void setIsDying()</text>
<text text-anchor="start" x="375.22" y="-117.5" font-family="Helvetica,sans-Serif" font-size="10.00">+ void jumpUpdate()</text>
<text text-anchor="start" x="375.22" y="-106.5" font-family="Helvetica,sans-Serif" font-size="10.00">+ void setPlayerLevelLow()</text>
<text text-anchor="start" x="375.22" y="-95.5" font-family="Helvetica,sans-Serif" font-size="10.00">+ void setPlayerLevelHigh()</text>
<text text-anchor="start" x="375.22" y="-84.5" font-family="Helvetica,sans-Serif" font-size="10.00">+ void rampUpdate()</text>
<text text-anchor="start" x="375.22" y="-73.5" font-family="Helvetica,sans-Serif" font-size="10.00">+ void updateDeathAnimation()</text>
<text text-anchor="start" x="375.22" y="-62.5" font-family="Helvetica,sans-Serif" font-size="10.00">+ void playerUpdateAnimation()</text>
<text text-anchor="start" x="375.22" y="-51.5" font-family="Helvetica,sans-Serif" font-size="10.00">&#45; void setAnimations()</text>
<text text-anchor="start" x="375.22" y="-40.5" font-family="Helvetica,sans-Serif" font-size="10.00">&#45; void playerLengthIncrease(double diff)</text>
<text text-anchor="start" x="375.22" y="-29.5" font-family="Helvetica,sans-Serif" font-size="10.00">&#45; void playerLengthDecrease(double diff)</text>
<text text-anchor="start" x="375.22" y="-18.5" font-family="Helvetica,sans-Serif" font-size="10.00">&#45; double jumpCurrentValue(int frame)</text>
<text text-anchor="start" x="375.22" y="-7.5" font-family="Helvetica,sans-Serif" font-size="10.00">&#45; void updateRunningAnimation()</text>
</a>
</g>
</g>
<!-- Node2 -->
<g id="node2" class="node">
<title>Node2</title>
<g id="a_node2"><a xlink:href="classeu_1_1anwar_1_1madrunner_1_1objects_1_1GameLaneObject.html" target="_top" xlink:title=" ">
<polygon fill="white" stroke="#666666" points="90.72,-501.5 90.72,-635.5 434.72,-635.5 434.72,-501.5 90.72,-501.5"/>
<text text-anchor="middle" x="262.72" y="-623.5" font-family="Helvetica,sans-Serif" font-size="10.00">eu.anwar.madrunner.objects.GameLaneObject</text>
<polyline fill="none" stroke="#666666" points="90.72,-616.5 434.72,-616.5"/>
<text text-anchor="middle" x="262.72" y="-604.5" font-family="Helvetica,sans-Serif" font-size="10.00"> </text>
<polyline fill="none" stroke="#666666" points="90.72,-597.5 434.72,-597.5"/>
<text text-anchor="start" x="98.72" y="-585.5" font-family="Helvetica,sans-Serif" font-size="10.00">+ GameLaneObject(Block.Lane lane, double y, double width, double length)</text>
<text text-anchor="start" x="98.72" y="-574.5" font-family="Helvetica,sans-Serif" font-size="10.00">+ GameLaneObject(Block.Lane lane, double y, double cubeLength)</text>
<text text-anchor="start" x="98.72" y="-563.5" font-family="Helvetica,sans-Serif" font-size="10.00">+ void setLane(Block.Lane path)</text>
<text text-anchor="start" x="98.72" y="-552.5" font-family="Helvetica,sans-Serif" font-size="10.00">+ Block.Lane getLane()</text>
<text text-anchor="start" x="98.72" y="-541.5" font-family="Helvetica,sans-Serif" font-size="10.00">+ void Draw()</text>
<text text-anchor="start" x="98.72" y="-530.5" font-family="Helvetica,sans-Serif" font-size="10.00">+ boolean contains(Block.Lane lane, double y)</text>
<text text-anchor="start" x="98.72" y="-519.5" font-family="Helvetica,sans-Serif" font-size="10.00">+ boolean touches(GameLaneObject other)</text>
<text text-anchor="start" x="98.72" y="-508.5" font-family="Helvetica,sans-Serif" font-size="10.00">+ double distance(GameLaneObject other)</text>
</a>
</g>
</g>
<!-- Node2&#45;&gt;Node1 -->
<g id="edge1" class="edge">
<title>Node2&#45;&gt;Node1</title>
<path fill="none" stroke="#63b8ff" d="M306.27,-492.37C324.27,-461.33 345.89,-424.03 367.24,-387.2"/>
<polygon fill="none" stroke="#63b8ff" points="302.79,-490.39 300.81,-500.8 308.85,-493.9 302.79,-490.39"/>
</g>
<!-- Node3 -->
<g id="node3" class="node">
<title>Node3</title>
<g id="a_node3"><a xlink:href="classeu_1_1anwar_1_1madrunner_1_1objects_1_1GameObject.html" target="_top" xlink:title=" ">
<polygon fill="white" stroke="#666666" points="33.22,-683.5 33.22,-971.5 356.22,-971.5 356.22,-683.5 33.22,-683.5"/>
<text text-anchor="middle" x="194.72" y="-959.5" font-family="Helvetica,sans-Serif" font-size="10.00">eu.anwar.madrunner.objects.GameObject</text>
<polyline fill="none" stroke="#666666" points="33.22,-952.5 356.22,-952.5"/>
<text text-anchor="start" x="41.22" y="-940.5" font-family="Helvetica,sans-Serif" font-size="10.00"># double x</text>
<text text-anchor="start" x="41.22" y="-929.5" font-family="Helvetica,sans-Serif" font-size="10.00"># double y</text>
<text text-anchor="start" x="41.22" y="-918.5" font-family="Helvetica,sans-Serif" font-size="10.00"># double width</text>
<text text-anchor="start" x="41.22" y="-907.5" font-family="Helvetica,sans-Serif" font-size="10.00"># double length</text>
<polyline fill="none" stroke="#666666" points="33.22,-900.5 356.22,-900.5"/>
<text text-anchor="start" x="41.22" y="-888.5" font-family="Helvetica,sans-Serif" font-size="10.00">+ GameObject(double x, double y, double width, double length)</text>
<text text-anchor="start" x="41.22" y="-877.5" font-family="Helvetica,sans-Serif" font-size="10.00">+ GameObject(Block.Lane lane, double y, double width, double length)</text>
<text text-anchor="start" x="41.22" y="-866.5" font-family="Helvetica,sans-Serif" font-size="10.00">+ GameObject(Block.Lane lane, double y, double cubeLength)</text>
<text text-anchor="start" x="41.22" y="-855.5" font-family="Helvetica,sans-Serif" font-size="10.00">+ GameObject(double x, double y, double cubeLength)</text>
<text text-anchor="start" x="41.22" y="-844.5" font-family="Helvetica,sans-Serif" font-size="10.00">+ double getWidth()</text>
<text text-anchor="start" x="41.22" y="-833.5" font-family="Helvetica,sans-Serif" font-size="10.00">+ double getLength()</text>
<text text-anchor="start" x="41.22" y="-822.5" font-family="Helvetica,sans-Serif" font-size="10.00">+ void setColor(Color color)</text>
<text text-anchor="start" x="41.22" y="-811.5" font-family="Helvetica,sans-Serif" font-size="10.00">+ void setLane(Block.Lane path)</text>
<text text-anchor="start" x="41.22" y="-800.5" font-family="Helvetica,sans-Serif" font-size="10.00">+ void setImage(Image image)</text>
<text text-anchor="start" x="41.22" y="-789.5" font-family="Helvetica,sans-Serif" font-size="10.00">+ Block.Lane getLane()</text>
<text text-anchor="start" x="41.22" y="-778.5" font-family="Helvetica,sans-Serif" font-size="10.00">+ Image getImage()</text>
<text text-anchor="start" x="41.22" y="-767.5" font-family="Helvetica,sans-Serif" font-size="10.00">+ void setX(double x)</text>
<text text-anchor="start" x="41.22" y="-756.5" font-family="Helvetica,sans-Serif" font-size="10.00">+ void setY(double y)</text>
<text text-anchor="start" x="41.22" y="-745.5" font-family="Helvetica,sans-Serif" font-size="10.00">+ double getY()</text>
<text text-anchor="start" x="41.22" y="-734.5" font-family="Helvetica,sans-Serif" font-size="10.00">+ double getX()</text>
<text text-anchor="start" x="41.22" y="-723.5" font-family="Helvetica,sans-Serif" font-size="10.00">+ void Draw()</text>
<text text-anchor="start" x="41.22" y="-712.5" font-family="Helvetica,sans-Serif" font-size="10.00">+ boolean interesects(double x, double y)</text>
<text text-anchor="start" x="41.22" y="-701.5" font-family="Helvetica,sans-Serif" font-size="10.00">+ boolean interesects(Block.Lane lane, double y)</text>
<text text-anchor="start" x="41.22" y="-690.5" font-family="Helvetica,sans-Serif" font-size="10.00">+ boolean touches(GameObject other)</text>
</a>
</g>
</g>
<!-- Node3&#45;&gt;Node2 -->
<g id="edge2" class="edge">
<title>Node3&#45;&gt;Node2</title>
<path fill="none" stroke="#63b8ff" d="M235.3,-673.1C238.79,-659.94 242.17,-647.15 245.31,-635.3"/>
<polygon fill="none" stroke="#63b8ff" points="231.67,-672.16 232.5,-682.72 238.44,-673.95 231.67,-672.16"/>
</g>
<!-- Node4 -->
<g id="node4" class="node">
<title>Node4</title>
<g id="a_node4"><a xlink:title=" ">
<polygon fill="white" stroke="#666666" points="18.72,-1063.5 18.72,-1120.5 58.72,-1120.5 58.72,-1063.5 18.72,-1063.5"/>
<text text-anchor="middle" x="38.72" y="-1108.5" font-family="Helvetica,sans-Serif" font-size="10.00">Color</text>
<polyline fill="none" stroke="#666666" points="18.72,-1101.5 58.72,-1101.5"/>
<text text-anchor="middle" x="38.72" y="-1089.5" font-family="Helvetica,sans-Serif" font-size="10.00"> </text>
<polyline fill="none" stroke="#666666" points="18.72,-1082.5 58.72,-1082.5"/>
<text text-anchor="middle" x="38.72" y="-1070.5" font-family="Helvetica,sans-Serif" font-size="10.00"> </text>
</a>
</g>
</g>
<!-- Node4&#45;&gt;Node1 -->
<g id="edge9" class="edge">
<title>Node4&#45;&gt;Node1</title>
<path fill="none" stroke="#404040" d="M31.59,-1063.61C9.79,-973.18 -47.01,-679.78 81.72,-501 153.08,-401.89 270.51,-323.78 356.16,-275.81"/>
<polygon fill="none" stroke="#404040" points="356.21,-275.78 359.53,-269.38 366.71,-269.97 363.4,-276.38 356.21,-275.78"/>
<text text-anchor="middle" x="43.72" y="-657" font-family="Helvetica,sans-Serif" font-size="10.00"> &#45;playerColor</text>
</g>
<!-- Node4&#45;&gt;Node3 -->
<g id="edge3" class="edge">
<title>Node4&#45;&gt;Node3</title>
<path fill="none" stroke="#404040" d="M54.82,-1063.9C66.91,-1043.57 84.52,-1013.93 103.2,-982.5"/>
<polygon fill="none" stroke="#404040" points="103.25,-982.41 102.88,-975.21 109.38,-972.1 109.75,-979.3 103.25,-982.41"/>
<text text-anchor="middle" x="113.72" y="-993" font-family="Helvetica,sans-Serif" font-size="10.00"> #color</text>
</g>
<!-- Node5 -->
<g id="node5" class="node">
<title>Node5</title>
<g id="a_node5"><a xlink:href="classeu_1_1anwar_1_1madrunner_1_1objects_1_1obstacles_1_1Block.html" target="_top" xlink:title=" ">
<polygon fill="white" stroke="#666666" points="170.72,-1019.5 170.72,-1164.5 428.72,-1164.5 428.72,-1019.5 170.72,-1019.5"/>
<text text-anchor="middle" x="299.72" y="-1152.5" font-family="Helvetica,sans-Serif" font-size="10.00">eu.anwar.madrunner.objects.obstacles.Block</text>
<polyline fill="none" stroke="#666666" points="170.72,-1145.5 428.72,-1145.5"/>
<text text-anchor="start" x="178.72" y="-1133.5" font-family="Helvetica,sans-Serif" font-size="10.00">+ static final double speed</text>
<text text-anchor="start" x="178.72" y="-1122.5" font-family="Helvetica,sans-Serif" font-size="10.00">&#45; double currentY</text>
<polyline fill="none" stroke="#666666" points="170.72,-1115.5 428.72,-1115.5"/>
<text text-anchor="start" x="178.72" y="-1103.5" font-family="Helvetica,sans-Serif" font-size="10.00">+ Block(ArrayList&lt; Obstacle &gt; left, ArrayList&lt; Obstacle</text>
<text text-anchor="start" x="178.72" y="-1092.5" font-family="Helvetica,sans-Serif" font-size="10.00"> &gt; center, ArrayList&lt; Obstacle &gt; right)</text>
<text text-anchor="start" x="178.72" y="-1081.5" font-family="Helvetica,sans-Serif" font-size="10.00">+ double getCurrentY()</text>
<text text-anchor="start" x="178.72" y="-1070.5" font-family="Helvetica,sans-Serif" font-size="10.00">+ ArrayList&lt; Obstacle &gt; getLane(Lane lane)</text>
<text text-anchor="start" x="178.72" y="-1059.5" font-family="Helvetica,sans-Serif" font-size="10.00">+ ArrayList&lt; Obstacle &gt; getLeftLane()</text>
<text text-anchor="start" x="178.72" y="-1048.5" font-family="Helvetica,sans-Serif" font-size="10.00">+ ArrayList&lt; Obstacle &gt; getCenterLane()</text>
<text text-anchor="start" x="178.72" y="-1037.5" font-family="Helvetica,sans-Serif" font-size="10.00">+ ArrayList&lt; Obstacle &gt; getRightLane()</text>
<text text-anchor="start" x="178.72" y="-1026.5" font-family="Helvetica,sans-Serif" font-size="10.00">+ void frameUpdate()</text>
</a>
</g>
</g>
<!-- Node5&#45;&gt;Node2 -->
<g id="edge8" class="edge">
<title>Node5&#45;&gt;Node2</title>
<path fill="none" stroke="#404040" d="M346.01,-1019.75C353.74,-1004.56 360.58,-988.19 364.72,-972 396.49,-847.55 410.69,-802.94 364.72,-683 359.66,-669.8 352.27,-657.17 343.76,-645.45"/>
<polygon fill="none" stroke="#404040" points="343.88,-645.61 337.05,-643.29 336.56,-636.1 343.39,-638.41 343.88,-645.61"/>
<text text-anchor="middle" x="408.22" y="-825" font-family="Helvetica,sans-Serif" font-size="10.00"> #lane</text>
</g>
<!-- Node5&#45;&gt;Node3 -->
<g id="edge4" class="edge">
<title>Node5&#45;&gt;Node3</title>
<path fill="none" stroke="#404040" d="M271.16,-1019.62C266.59,-1008.17 261.7,-995.95 256.69,-983.43"/>
<polygon fill="none" stroke="#404040" points="256.65,-983.33 250.71,-979.25 252.19,-972.19 258.14,-976.28 256.65,-983.33"/>
<text text-anchor="middle" x="277.22" y="-993" font-family="Helvetica,sans-Serif" font-size="10.00"> #lane</text>
</g>
<!-- Node6 -->
<g id="node6" class="node">
<title>Node6</title>
<g id="a_node6"><a xlink:title=" ">
<polygon fill="white" stroke="#666666" points="141.72,-1259.5 141.72,-1316.5 425.72,-1316.5 425.72,-1259.5 141.72,-1259.5"/>
<text text-anchor="middle" x="283.72" y="-1304.5" font-family="Helvetica,sans-Serif" font-size="10.00">ArrayList&lt; eu.anwar.madrunner.objects.obstacles.Obstacle &gt;</text>
<polyline fill="none" stroke="#666666" points="141.72,-1297.5 425.72,-1297.5"/>
<text text-anchor="middle" x="283.72" y="-1285.5" font-family="Helvetica,sans-Serif" font-size="10.00"> </text>
<polyline fill="none" stroke="#666666" points="141.72,-1278.5 425.72,-1278.5"/>
<text text-anchor="middle" x="283.72" y="-1266.5" font-family="Helvetica,sans-Serif" font-size="10.00"> </text>
</a>
</g>
</g>
<!-- Node6&#45;&gt;Node5 -->
<g id="edge5" class="edge">
<title>Node6&#45;&gt;Node5</title>
<path fill="none" stroke="#404040" d="M285.98,-1259.62C287.76,-1237.96 290.36,-1206.51 292.81,-1176.76"/>
<polygon fill="none" stroke="#404040" points="292.79,-1177 289.3,-1170.69 293.78,-1165.04 297.27,-1171.35 292.79,-1177"/>
<text text-anchor="middle" x="309.72" y="-1220.5" font-family="Helvetica,sans-Serif" font-size="10.00"> &#45;center</text>
<text text-anchor="middle" x="309.72" y="-1209.5" font-family="Helvetica,sans-Serif" font-size="10.00">&#45;left</text>
<text text-anchor="middle" x="309.72" y="-1198.5" font-family="Helvetica,sans-Serif" font-size="10.00">&#45;right</text>
</g>
<!-- Node7 -->
<g id="node7" class="node">
<title>Node7</title>
<g id="a_node7"><a xlink:title=" ">
<polygon fill="white" stroke="#666666" points="340.72,-1364.5 340.72,-1421.5 396.72,-1421.5 396.72,-1364.5 340.72,-1364.5"/>
<text text-anchor="middle" x="368.72" y="-1409.5" font-family="Helvetica,sans-Serif" font-size="10.00">ArrayList</text>
<polyline fill="none" stroke="#666666" points="340.72,-1402.5 396.72,-1402.5"/>
<text text-anchor="middle" x="368.72" y="-1390.5" font-family="Helvetica,sans-Serif" font-size="10.00"> </text>
<polyline fill="none" stroke="#666666" points="340.72,-1383.5 396.72,-1383.5"/>
<text text-anchor="middle" x="368.72" y="-1371.5" font-family="Helvetica,sans-Serif" font-size="10.00"> </text>
</a>
</g>
</g>
<!-- Node7&#45;&gt;Node6 -->
<g id="edge6" class="edge">
<title>Node7&#45;&gt;Node6</title>
<path fill="none" stroke="orange" d="M330.3,-1390.37C298.89,-1386.76 256.26,-1376.17 234.72,-1346 227.51,-1335.91 232.4,-1325.46 241.4,-1316.31"/>
<polygon fill="orange" stroke="orange" points="329.61,-1393.91 339.9,-1391.37 330.27,-1386.94 329.61,-1393.91"/>
<text text-anchor="middle" x="358.22" y="-1338" font-family="Helvetica,sans-Serif" font-size="10.00"> &lt; eu::anwar::madrunner::objects::obstacles::Obstacle &gt;</text>
</g>
<!-- Node11 -->
<g id="node11" class="node">
<title>Node11</title>
<g id="a_node11"><a xlink:title=" ">
<polygon fill="white" stroke="#666666" points="439.22,-1183.5 439.22,-1240.5 540.22,-1240.5 540.22,-1183.5 439.22,-1183.5"/>
<text text-anchor="middle" x="489.72" y="-1228.5" font-family="Helvetica,sans-Serif" font-size="10.00">ArrayList&lt; Image &gt;</text>
<polyline fill="none" stroke="#666666" points="439.22,-1221.5 540.22,-1221.5"/>
<text text-anchor="middle" x="489.72" y="-1209.5" font-family="Helvetica,sans-Serif" font-size="10.00"> </text>
<polyline fill="none" stroke="#666666" points="439.22,-1202.5 540.22,-1202.5"/>
<text text-anchor="middle" x="489.72" y="-1190.5" font-family="Helvetica,sans-Serif" font-size="10.00"> </text>
</a>
</g>
</g>
<!-- Node7&#45;&gt;Node11 -->
<g id="edge13" class="edge">
<title>Node7&#45;&gt;Node11</title>
<path fill="none" stroke="orange" d="M407.13,-1386.96C432.66,-1381.45 464.54,-1369.95 481.72,-1346 503.83,-1315.17 500.89,-1269.26 495.93,-1240.24"/>
<polygon fill="orange" stroke="orange" points="406.8,-1383.66 397.64,-1388.98 408.12,-1390.53 406.8,-1383.66"/>
<text text-anchor="middle" x="513.22" y="-1338" font-family="Helvetica,sans-Serif" font-size="10.00"> &lt; Image &gt;</text>
</g>
<!-- Node8 -->
<g id="node8" class="node">
<title>Node8</title>
<g id="a_node8"><a xlink:title=" ">
<polygon fill="white" stroke="#666666" points="108.72,-1063.5 108.72,-1120.5 152.72,-1120.5 152.72,-1063.5 108.72,-1063.5"/>
<text text-anchor="middle" x="130.72" y="-1108.5" font-family="Helvetica,sans-Serif" font-size="10.00">Image</text>
<polyline fill="none" stroke="#666666" points="108.72,-1101.5 152.72,-1101.5"/>
<text text-anchor="middle" x="130.72" y="-1089.5" font-family="Helvetica,sans-Serif" font-size="10.00"> </text>
<polyline fill="none" stroke="#666666" points="108.72,-1082.5 152.72,-1082.5"/>
<text text-anchor="middle" x="130.72" y="-1070.5" font-family="Helvetica,sans-Serif" font-size="10.00"> </text>
</a>
</g>
</g>
<!-- Node8&#45;&gt;Node3 -->
<g id="edge7" class="edge">
<title>Node8&#45;&gt;Node3</title>
<path fill="none" stroke="#404040" d="M137.33,-1063.9C142.22,-1043.83 149.32,-1014.71 156.87,-983.74"/>
<polygon fill="none" stroke="#404040" points="156.84,-983.86 154.37,-977.08 159.68,-972.2 162.15,-978.97 156.84,-983.86"/>
<text text-anchor="middle" x="172.22" y="-993" font-family="Helvetica,sans-Serif" font-size="10.00"> &#45;image</text>
</g>
<!-- Node9 -->
<g id="node9" class="node">
<title>Node9</title>
<g id="a_node9"><a xlink:title=" ">
<polygon fill="white" stroke="#666666" points="491.22,-540 491.22,-597 562.22,-597 562.22,-540 491.22,-540"/>
<text text-anchor="middle" x="526.72" y="-585" font-family="Helvetica,sans-Serif" font-size="10.00">MediaPlayer</text>
<polyline fill="none" stroke="#666666" points="491.22,-578 562.22,-578"/>
<text text-anchor="middle" x="526.72" y="-566" font-family="Helvetica,sans-Serif" font-size="10.00"> </text>
<polyline fill="none" stroke="#666666" points="491.22,-559 562.22,-559"/>
<text text-anchor="middle" x="526.72" y="-547" font-family="Helvetica,sans-Serif" font-size="10.00"> </text>
</a>
</g>
</g>
<!-- Node9&#45;&gt;Node1 -->
<g id="edge10" class="edge">
<title>Node9&#45;&gt;Node1</title>
<path fill="none" stroke="#404040" d="M521.64,-540.14C517.81,-519.49 512.14,-488.94 505.82,-454.83"/>
<polygon fill="none" stroke="#404040" points="505.81,-454.8 500.78,-449.63 503.62,-443 508.65,-448.17 505.81,-454.8"/>
<text text-anchor="middle" x="538.22" y="-475" font-family="Helvetica,sans-Serif" font-size="10.00"> &#45;deathMedia</text>
<text text-anchor="middle" x="538.22" y="-464" font-family="Helvetica,sans-Serif" font-size="10.00">&#45;jumpMedia</text>
</g>
<!-- Node10 -->
<g id="node10" class="node">
<title>Node10</title>
<g id="a_node10"><a xlink:href="enumeu_1_1anwar_1_1madrunner_1_1objects_1_1Player_1_1Level.html" target="_top" xlink:title=" ">
<polygon fill="white" stroke="#666666" points="580.22,-534.5 580.22,-602.5 777.22,-602.5 777.22,-534.5 580.22,-534.5"/>
<text text-anchor="middle" x="678.72" y="-590.5" font-family="Helvetica,sans-Serif" font-size="10.00">eu.anwar.madrunner.objects.Player.Level</text>
<polyline fill="none" stroke="#666666" points="580.22,-583.5 777.22,-583.5"/>
<text text-anchor="start" x="588.22" y="-571.5" font-family="Helvetica,sans-Serif" font-size="10.00">+ LOW</text>
<text text-anchor="start" x="588.22" y="-560.5" font-family="Helvetica,sans-Serif" font-size="10.00">+ HIGH</text>
<polyline fill="none" stroke="#666666" points="580.22,-553.5 777.22,-553.5"/>
<text text-anchor="middle" x="678.72" y="-541.5" font-family="Helvetica,sans-Serif" font-size="10.00"> </text>
</a>
</g>
</g>
<!-- Node10&#45;&gt;Node1 -->
<g id="edge11" class="edge">
<title>Node10&#45;&gt;Node1</title>
<path fill="none" stroke="#404040" d="M658.2,-534.73C636.39,-499.89 600.23,-442.13 564.9,-385.7"/>
<polygon fill="none" stroke="#404040" points="564.93,-385.75 558.35,-382.79 558.56,-375.58 565.13,-378.54 564.93,-385.75"/>
<text text-anchor="middle" x="634.22" y="-469.5" font-family="Helvetica,sans-Serif" font-size="10.00"> &#45;level</text>
</g>
<!-- Node11&#45;&gt;Node1 -->
<g id="edge12" class="edge">
<title>Node11&#45;&gt;Node1</title>
<path fill="none" stroke="#404040" d="M484.06,-1183.71C476.14,-1143.1 462.72,-1064.25 462.72,-996.5 462.72,-996.5 462.72,-996.5 462.72,-567.5 462.72,-531.18 462.72,-492.7 462.72,-455.13"/>
<polygon fill="none" stroke="#404040" points="462.72,-455.33 458.72,-449.33 462.72,-443.33 466.72,-449.33 462.72,-455.33"/>
<text text-anchor="middle" x="494.72" y="-830.5" font-family="Helvetica,sans-Serif" font-size="10.00"> &#45;deathFrames</text>
<text text-anchor="middle" x="494.72" y="-819.5" font-family="Helvetica,sans-Serif" font-size="10.00">&#45;runFrames</text>
</g>
</g>
</svg>
