<?xml version="1.0" encoding="UTF-8" standalone="no"?>
<!DOCTYPE svg PUBLIC "-//W3C//DTD SVG 1.1//EN"
 "http://www.w3.org/Graphics/SVG/1.1/DTD/svg11.dtd">
<!-- Generated by graphviz version 3.0.0 (20221109.1736)
 -->
<!-- Title: eu.anwar.madrunner.objects.obstacles.TrailerWithRamp Pages: 1 -->
<svg width="592pt" height="1321pt"
 viewBox="0.00 0.00 591.50 1321.00" xmlns="http://www.w3.org/2000/svg" xmlns:xlink="http://www.w3.org/1999/xlink">
<g id="graph0" class="graph" transform="scale(1 1) rotate(0) translate(4 1317)">
<title>eu.anwar.madrunner.objects.obstacles.TrailerWithRamp</title>
<polygon fill="white" stroke="transparent" points="-4,4 -4,-1317 587.5,-1317 587.5,4 -4,4"/>
<!-- Node1 -->
<g id="node1" class="node">
<title>Node1</title>
<g id="a_node1"><a xlink:title=" ">
<polygon fill="#bfbfbf" stroke="black" points="127.5,-0.5 127.5,-101.5 383.5,-101.5 383.5,-0.5 127.5,-0.5"/>
<text text-anchor="middle" x="255.5" y="-89.5" font-family="Helvetica,sans-Serif" font-size="10.00">eu.anwar.madrunner.objects.obstacles.TrailerWithRamp</text>
<polyline fill="none" stroke="black" points="127.5,-82.5 383.5,-82.5 "/>
<text text-anchor="start" x="135.5" y="-70.5" font-family="Helvetica,sans-Serif" font-size="10.00">+ static final double rampSize</text>
<text text-anchor="start" x="135.5" y="-59.5" font-family="Helvetica,sans-Serif" font-size="10.00"># final int trailerCount</text>
<polyline fill="none" stroke="black" points="127.5,-52.5 383.5,-52.5 "/>
<text text-anchor="start" x="135.5" y="-40.5" font-family="Helvetica,sans-Serif" font-size="10.00">+ TrailerWithRamp(Block.Lane lane, double length)</text>
<text text-anchor="start" x="135.5" y="-29.5" font-family="Helvetica,sans-Serif" font-size="10.00">+ TrailerWithRamp(Block.Lane lane)</text>
<text text-anchor="start" x="135.5" y="-18.5" font-family="Helvetica,sans-Serif" font-size="10.00">+ void setLane(Block.Lane lane)</text>
<text text-anchor="start" x="135.5" y="-7.5" font-family="Helvetica,sans-Serif" font-size="10.00">+ void Draw()</text>
</a>
</g>
</g>
<!-- Node2 -->
<g id="node2" class="node">
<title>Node2</title>
<g id="a_node2"><a xlink:href="classeu_1_1anwar_1_1madrunner_1_1objects_1_1obstacles_1_1Obstacle.html" target="_top" xlink:title=" ">
<polygon fill="white" stroke="black" points="134.5,-299.5 134.5,-389.5 376.5,-389.5 376.5,-299.5 134.5,-299.5"/>
<text text-anchor="middle" x="255.5" y="-377.5" font-family="Helvetica,sans-Serif" font-size="10.00">eu.anwar.madrunner.objects.obstacles.Obstacle</text>
<polyline fill="none" stroke="black" points="134.5,-370.5 376.5,-370.5 "/>
<text text-anchor="start" x="142.5" y="-358.5" font-family="Helvetica,sans-Serif" font-size="10.00">+ static final double obestacleWidth</text>
<polyline fill="none" stroke="black" points="134.5,-351.5 376.5,-351.5 "/>
<text text-anchor="start" x="142.5" y="-339.5" font-family="Helvetica,sans-Serif" font-size="10.00">+ Obstacle(Block.Lane lane, double y, double length)</text>
<text text-anchor="start" x="142.5" y="-328.5" font-family="Helvetica,sans-Serif" font-size="10.00">+ void addY(double diff)</text>
<text text-anchor="start" x="142.5" y="-317.5" font-family="Helvetica,sans-Serif" font-size="10.00">+ boolean isOffTheScreen()</text>
<text text-anchor="start" x="142.5" y="-306.5" font-family="Helvetica,sans-Serif" font-size="10.00">+ void Draw()</text>
</a>
</g>
</g>
<!-- Node2&#45;&gt;Node1 -->
<g id="edge1" class="edge">
<title>Node2&#45;&gt;Node1</title>
<path fill="none" stroke="midnightblue" d="M238.7,-289.12C236.54,-280.14 234.68,-270.87 233.5,-262 226.9,-212.21 227.91,-198.91 233.5,-149 235.23,-133.56 238.46,-116.98 241.93,-101.98"/>
<polygon fill="none" stroke="midnightblue" points="235.38,-290.27 241.24,-299.09 242.17,-288.54 235.38,-290.27"/>
</g>
<!-- Node2&#45;&gt;Node1 -->
<g id="edge12" class="edge">
<title>Node2&#45;&gt;Node1</title>
<path fill="none" stroke="#404040" d="M255.5,-299.23C255.5,-249.77 255.5,-169.37 255.5,-113.75"/>
<polygon fill="none" stroke="#404040" points="255.5,-113.58 251.5,-107.58 255.5,-101.58 259.5,-107.58 255.5,-113.58"/>
<text text-anchor="middle" x="269.5" y="-203" font-family="Helvetica,sans-Serif" font-size="10.00"> &#45;ramp</text>
</g>
<!-- Node10 -->
<g id="node10" class="node">
<title>Node10</title>
<g id="a_node10"><a xlink:href="classeu_1_1anwar_1_1madrunner_1_1objects_1_1obstacles_1_1Trailer.html" target="_top" xlink:title=" ">
<polygon fill="white" stroke="black" points="302,-149.5 302,-261.5 513,-261.5 513,-149.5 302,-149.5"/>
<text text-anchor="middle" x="407.5" y="-249.5" font-family="Helvetica,sans-Serif" font-size="10.00">eu.anwar.madrunner.objects.obstacles.Trailer</text>
<polyline fill="none" stroke="black" points="302,-242.5 513,-242.5 "/>
<text text-anchor="start" x="310" y="-230.5" font-family="Helvetica,sans-Serif" font-size="10.00">+ static final double singleTrailerLength</text>
<text text-anchor="start" x="310" y="-219.5" font-family="Helvetica,sans-Serif" font-size="10.00">+ static final int maxNumberOfTrailers</text>
<text text-anchor="start" x="310" y="-208.5" font-family="Helvetica,sans-Serif" font-size="10.00"># final int TrailerCount</text>
<polyline fill="none" stroke="black" points="302,-201.5 513,-201.5 "/>
<text text-anchor="start" x="310" y="-189.5" font-family="Helvetica,sans-Serif" font-size="10.00">+ Trailer(Block.Lane lane, int count)</text>
<text text-anchor="start" x="310" y="-178.5" font-family="Helvetica,sans-Serif" font-size="10.00">+ Trailer(Block.Lane lane)</text>
<text text-anchor="start" x="310" y="-167.5" font-family="Helvetica,sans-Serif" font-size="10.00">+ Trailer(Block.Lane lane, double length)</text>
<text text-anchor="start" x="310" y="-156.5" font-family="Helvetica,sans-Serif" font-size="10.00">+ void Draw()</text>
</a>
</g>
</g>
<!-- Node2&#45;&gt;Node10 -->
<g id="edge11" class="edge">
<title>Node2&#45;&gt;Node10</title>
<path fill="none" stroke="midnightblue" d="M312.07,-292.51C323.26,-282.42 335.06,-271.79 346.4,-261.57"/>
<polygon fill="none" stroke="midnightblue" points="309.52,-290.1 304.43,-299.4 314.2,-295.3 309.52,-290.1"/>
</g>
<!-- Node3 -->
<g id="node3" class="node">
<title>Node3</title>
<g id="a_node3"><a xlink:href="classeu_1_1anwar_1_1madrunner_1_1objects_1_1GameLaneObject.html" target="_top" xlink:title=" ">
<polygon fill="white" stroke="black" points="86.5,-427.5 86.5,-561.5 424.5,-561.5 424.5,-427.5 86.5,-427.5"/>
<text text-anchor="middle" x="255.5" y="-549.5" font-family="Helvetica,sans-Serif" font-size="10.00">eu.anwar.madrunner.objects.GameLaneObject</text>
<polyline fill="none" stroke="black" points="86.5,-542.5 424.5,-542.5 "/>
<text text-anchor="middle" x="255.5" y="-530.5" font-family="Helvetica,sans-Serif" font-size="10.00"> </text>
<polyline fill="none" stroke="black" points="86.5,-523.5 424.5,-523.5 "/>
<text text-anchor="start" x="94.5" y="-511.5" font-family="Helvetica,sans-Serif" font-size="10.00">+ GameLaneObject(Block.Lane lane, double y, double width, double length)</text>
<text text-anchor="start" x="94.5" y="-500.5" font-family="Helvetica,sans-Serif" font-size="10.00">+ GameLaneObject(Block.Lane lane, double y, double cubeLength)</text>
<text text-anchor="start" x="94.5" y="-489.5" font-family="Helvetica,sans-Serif" font-size="10.00">+ void setLane(Block.Lane path)</text>
<text text-anchor="start" x="94.5" y="-478.5" font-family="Helvetica,sans-Serif" font-size="10.00">+ Block.Lane getLane()</text>
<text text-anchor="start" x="94.5" y="-467.5" font-family="Helvetica,sans-Serif" font-size="10.00">+ void Draw()</text>
<text text-anchor="start" x="94.5" y="-456.5" font-family="Helvetica,sans-Serif" font-size="10.00">+ boolean contains(Block.Lane lane, double y)</text>
<text text-anchor="start" x="94.5" y="-445.5" font-family="Helvetica,sans-Serif" font-size="10.00">+ boolean touches(GameLaneObject other)</text>
<text text-anchor="start" x="94.5" y="-434.5" font-family="Helvetica,sans-Serif" font-size="10.00">+ double distance(GameLaneObject other)</text>
</a>
</g>
</g>
<!-- Node3&#45;&gt;Node2 -->
<g id="edge2" class="edge">
<title>Node3&#45;&gt;Node2</title>
<path fill="none" stroke="midnightblue" d="M255.5,-417.07C255.5,-407.65 255.5,-398.28 255.5,-389.57"/>
<polygon fill="none" stroke="midnightblue" points="252,-417.29 255.5,-427.29 259,-417.29 252,-417.29"/>
</g>
<!-- Node4 -->
<g id="node4" class="node">
<title>Node4</title>
<g id="a_node4"><a xlink:href="classeu_1_1anwar_1_1madrunner_1_1objects_1_1GameObject.html" target="_top" xlink:title=" ">
<polygon fill="white" stroke="black" points="0,-599.5 0,-887.5 317,-887.5 317,-599.5 0,-599.5"/>
<text text-anchor="middle" x="158.5" y="-875.5" font-family="Helvetica,sans-Serif" font-size="10.00">eu.anwar.madrunner.objects.GameObject</text>
<polyline fill="none" stroke="black" points="0,-868.5 317,-868.5 "/>
<text text-anchor="start" x="8" y="-856.5" font-family="Helvetica,sans-Serif" font-size="10.00"># double x</text>
<text text-anchor="start" x="8" y="-845.5" font-family="Helvetica,sans-Serif" font-size="10.00"># double y</text>
<text text-anchor="start" x="8" y="-834.5" font-family="Helvetica,sans-Serif" font-size="10.00"># double width</text>
<text text-anchor="start" x="8" y="-823.5" font-family="Helvetica,sans-Serif" font-size="10.00"># double length</text>
<polyline fill="none" stroke="black" points="0,-816.5 317,-816.5 "/>
<text text-anchor="start" x="8" y="-804.5" font-family="Helvetica,sans-Serif" font-size="10.00">+ GameObject(double x, double y, double width, double length)</text>
<text text-anchor="start" x="8" y="-793.5" font-family="Helvetica,sans-Serif" font-size="10.00">+ GameObject(Block.Lane lane, double y, double width, double length)</text>
<text text-anchor="start" x="8" y="-782.5" font-family="Helvetica,sans-Serif" font-size="10.00">+ GameObject(Block.Lane lane, double y, double cubeLength)</text>
<text text-anchor="start" x="8" y="-771.5" font-family="Helvetica,sans-Serif" font-size="10.00">+ GameObject(double x, double y, double cubeLength)</text>
<text text-anchor="start" x="8" y="-760.5" font-family="Helvetica,sans-Serif" font-size="10.00">+ double getWidth()</text>
<text text-anchor="start" x="8" y="-749.5" font-family="Helvetica,sans-Serif" font-size="10.00">+ double getLength()</text>
<text text-anchor="start" x="8" y="-738.5" font-family="Helvetica,sans-Serif" font-size="10.00">+ void setColor(Color color)</text>
<text text-anchor="start" x="8" y="-727.5" font-family="Helvetica,sans-Serif" font-size="10.00">+ void setLane(Block.Lane path)</text>
<text text-anchor="start" x="8" y="-716.5" font-family="Helvetica,sans-Serif" font-size="10.00">+ void setImage(Image image)</text>
<text text-anchor="start" x="8" y="-705.5" font-family="Helvetica,sans-Serif" font-size="10.00">+ Block.Lane getLane()</text>
<text text-anchor="start" x="8" y="-694.5" font-family="Helvetica,sans-Serif" font-size="10.00">+ Image getImage()</text>
<text text-anchor="start" x="8" y="-683.5" font-family="Helvetica,sans-Serif" font-size="10.00">+ void setX(double x)</text>
<text text-anchor="start" x="8" y="-672.5" font-family="Helvetica,sans-Serif" font-size="10.00">+ void setY(double y)</text>
<text text-anchor="start" x="8" y="-661.5" font-family="Helvetica,sans-Serif" font-size="10.00">+ double getY()</text>
<text text-anchor="start" x="8" y="-650.5" font-family="Helvetica,sans-Serif" font-size="10.00">+ double getX()</text>
<text text-anchor="start" x="8" y="-639.5" font-family="Helvetica,sans-Serif" font-size="10.00">+ void Draw()</text>
<text text-anchor="start" x="8" y="-628.5" font-family="Helvetica,sans-Serif" font-size="10.00">+ boolean interesects(double x, double y)</text>
<text text-anchor="start" x="8" y="-617.5" font-family="Helvetica,sans-Serif" font-size="10.00">+ boolean interesects(Block.Lane lane, double y)</text>
<text text-anchor="start" x="8" y="-606.5" font-family="Helvetica,sans-Serif" font-size="10.00">+ boolean touches(GameObject other)</text>
</a>
</g>
</g>
<!-- Node4&#45;&gt;Node3 -->
<g id="edge3" class="edge">
<title>Node4&#45;&gt;Node3</title>
<path fill="none" stroke="midnightblue" d="M218.46,-589.81C222.27,-580.1 225.98,-570.66 229.49,-561.73"/>
<polygon fill="none" stroke="midnightblue" points="215.18,-588.59 214.78,-599.18 221.7,-591.15 215.18,-588.59"/>
</g>
<!-- Node5 -->
<g id="node5" class="node">
<title>Node5</title>
<g id="a_node5"><a xlink:title=" ">
<polygon fill="white" stroke="black" points="86,-979.5 86,-1036.5 125,-1036.5 125,-979.5 86,-979.5"/>
<text text-anchor="middle" x="105.5" y="-1024.5" font-family="Helvetica,sans-Serif" font-size="10.00">Color</text>
<polyline fill="none" stroke="black" points="86,-1017.5 125,-1017.5 "/>
<text text-anchor="middle" x="105.5" y="-1005.5" font-family="Helvetica,sans-Serif" font-size="10.00"> </text>
<polyline fill="none" stroke="black" points="86,-998.5 125,-998.5 "/>
<text text-anchor="middle" x="105.5" y="-986.5" font-family="Helvetica,sans-Serif" font-size="10.00"> </text>
</a>
</g>
</g>
<!-- Node5&#45;&gt;Node4 -->
<g id="edge4" class="edge">
<title>Node5&#45;&gt;Node4</title>
<path fill="none" stroke="#404040" d="M111.07,-979.4C115.13,-959.33 120.97,-930.37 127.18,-899.6"/>
<polygon fill="none" stroke="#404040" points="127.21,-899.5 124.47,-892.82 129.58,-887.73 132.31,-894.41 127.21,-899.5"/>
<text text-anchor="middle" x="140" y="-909" font-family="Helvetica,sans-Serif" font-size="10.00"> #color</text>
</g>
<!-- Node6 -->
<g id="node6" class="node">
<title>Node6</title>
<g id="a_node6"><a xlink:href="classeu_1_1anwar_1_1madrunner_1_1objects_1_1obstacles_1_1Block.html" target="_top" xlink:title=" ">
<polygon fill="white" stroke="black" points="219.5,-935.5 219.5,-1080.5 473.5,-1080.5 473.5,-935.5 219.5,-935.5"/>
<text text-anchor="middle" x="346.5" y="-1068.5" font-family="Helvetica,sans-Serif" font-size="10.00">eu.anwar.madrunner.objects.obstacles.Block</text>
<polyline fill="none" stroke="black" points="219.5,-1061.5 473.5,-1061.5 "/>
<text text-anchor="start" x="227.5" y="-1049.5" font-family="Helvetica,sans-Serif" font-size="10.00">+ static final double speed</text>
<text text-anchor="start" x="227.5" y="-1038.5" font-family="Helvetica,sans-Serif" font-size="10.00">&#45; double currentY</text>
<polyline fill="none" stroke="black" points="219.5,-1031.5 473.5,-1031.5 "/>
<text text-anchor="start" x="227.5" y="-1019.5" font-family="Helvetica,sans-Serif" font-size="10.00">+ Block(ArrayList&lt; Obstacle &gt; left, ArrayList&lt; Obstacle</text>
<text text-anchor="start" x="227.5" y="-1008.5" font-family="Helvetica,sans-Serif" font-size="10.00"> &gt; center, ArrayList&lt; Obstacle &gt; right)</text>
<text text-anchor="start" x="227.5" y="-997.5" font-family="Helvetica,sans-Serif" font-size="10.00">+ double getCurrentY()</text>
<text text-anchor="start" x="227.5" y="-986.5" font-family="Helvetica,sans-Serif" font-size="10.00">+ ArrayList&lt; Obstacle &gt; getLane(Lane lane)</text>
<text text-anchor="start" x="227.5" y="-975.5" font-family="Helvetica,sans-Serif" font-size="10.00">+ ArrayList&lt; Obstacle &gt; getLeftLane()</text>
<text text-anchor="start" x="227.5" y="-964.5" font-family="Helvetica,sans-Serif" font-size="10.00">+ ArrayList&lt; Obstacle &gt; getCenterLane()</text>
<text text-anchor="start" x="227.5" y="-953.5" font-family="Helvetica,sans-Serif" font-size="10.00">+ ArrayList&lt; Obstacle &gt; getRightLane()</text>
<text text-anchor="start" x="227.5" y="-942.5" font-family="Helvetica,sans-Serif" font-size="10.00">+ void frameUpdate()</text>
</a>
</g>
</g>
<!-- Node6&#45;&gt;Node3 -->
<g id="edge9" class="edge">
<title>Node6&#45;&gt;Node3</title>
<path fill="none" stroke="#404040" d="M354.56,-935.16C361.29,-851.91 364.5,-711.73 326.5,-599 323.43,-589.9 319.32,-580.86 314.6,-572.14"/>
<polygon fill="none" stroke="#404040" points="314.57,-572.08 308.11,-568.87 308.59,-561.67 315.05,-564.88 314.57,-572.08"/>
<text text-anchor="middle" x="371.5" y="-741" font-family="Helvetica,sans-Serif" font-size="10.00"> #lane</text>
</g>
<!-- Node6&#45;&gt;Node4 -->
<g id="edge5" class="edge">
<title>Node6&#45;&gt;Node4</title>
<path fill="none" stroke="#404040" d="M295.13,-935.27C286.59,-923.36 277.47,-910.61 268.13,-897.57"/>
<polygon fill="none" stroke="#404040" points="267.94,-897.3 261.19,-894.75 260.95,-887.55 267.7,-890.1 267.94,-897.3"/>
<text text-anchor="middle" x="292.5" y="-909" font-family="Helvetica,sans-Serif" font-size="10.00"> #lane</text>
</g>
<!-- Node7 -->
<g id="node7" class="node">
<title>Node7</title>
<g id="a_node7"><a xlink:title=" ">
<polygon fill="white" stroke="black" points="207.5,-1150.5 207.5,-1207.5 485.5,-1207.5 485.5,-1150.5 207.5,-1150.5"/>
<text text-anchor="middle" x="346.5" y="-1195.5" font-family="Helvetica,sans-Serif" font-size="10.00">ArrayList&lt; eu.anwar.madrunner.objects.obstacles.Obstacle &gt;</text>
<polyline fill="none" stroke="black" points="207.5,-1188.5 485.5,-1188.5 "/>
<text text-anchor="middle" x="346.5" y="-1176.5" font-family="Helvetica,sans-Serif" font-size="10.00"> </text>
<polyline fill="none" stroke="black" points="207.5,-1169.5 485.5,-1169.5 "/>
<text text-anchor="middle" x="346.5" y="-1157.5" font-family="Helvetica,sans-Serif" font-size="10.00"> </text>
</a>
</g>
</g>
<!-- Node7&#45;&gt;Node6 -->
<g id="edge6" class="edge">
<title>Node7&#45;&gt;Node6</title>
<path fill="none" stroke="#404040" d="M346.5,-1150.47C346.5,-1134.6 346.5,-1113.71 346.5,-1092.87"/>
<polygon fill="none" stroke="#404040" points="346.5,-1092.64 342.5,-1086.64 346.5,-1080.64 350.5,-1086.64 346.5,-1092.64"/>
<text text-anchor="middle" x="363" y="-1124" font-family="Helvetica,sans-Serif" font-size="10.00"> &#45;center</text>
<text text-anchor="middle" x="363" y="-1113" font-family="Helvetica,sans-Serif" font-size="10.00">&#45;left</text>
<text text-anchor="middle" x="363" y="-1102" font-family="Helvetica,sans-Serif" font-size="10.00">&#45;right</text>
</g>
<!-- Node8 -->
<g id="node8" class="node">
<title>Node8</title>
<g id="a_node8"><a xlink:title=" ">
<polygon fill="white" stroke="black" points="318.5,-1255.5 318.5,-1312.5 374.5,-1312.5 374.5,-1255.5 318.5,-1255.5"/>
<text text-anchor="middle" x="346.5" y="-1300.5" font-family="Helvetica,sans-Serif" font-size="10.00">ArrayList</text>
<polyline fill="none" stroke="black" points="318.5,-1293.5 374.5,-1293.5 "/>
<text text-anchor="middle" x="346.5" y="-1281.5" font-family="Helvetica,sans-Serif" font-size="10.00"> </text>
<polyline fill="none" stroke="black" points="318.5,-1274.5 374.5,-1274.5 "/>
<text text-anchor="middle" x="346.5" y="-1262.5" font-family="Helvetica,sans-Serif" font-size="10.00"> </text>
</a>
</g>
</g>
<!-- Node8&#45;&gt;Node7 -->
<g id="edge7" class="edge">
<title>Node8&#45;&gt;Node7</title>
<path fill="none" stroke="orange" d="M346.5,-1245.29C346.5,-1232.84 346.5,-1219.23 346.5,-1207.68"/>
<polygon fill="orange" stroke="orange" points="343,-1245.4 346.5,-1255.4 350,-1245.4 343,-1245.4"/>
<text text-anchor="middle" x="465" y="-1229" font-family="Helvetica,sans-Serif" font-size="10.00"> &lt; eu::anwar::madrunner::objects::obstacles::Obstacle &gt;</text>
</g>
<!-- Node9 -->
<g id="node9" class="node">
<title>Node9</title>
<g id="a_node9"><a xlink:title=" ">
<polygon fill="white" stroke="black" points="143.5,-979.5 143.5,-1036.5 187.5,-1036.5 187.5,-979.5 143.5,-979.5"/>
<text text-anchor="middle" x="165.5" y="-1024.5" font-family="Helvetica,sans-Serif" font-size="10.00">Image</text>
<polyline fill="none" stroke="black" points="143.5,-1017.5 187.5,-1017.5 "/>
<text text-anchor="middle" x="165.5" y="-1005.5" font-family="Helvetica,sans-Serif" font-size="10.00"> </text>
<polyline fill="none" stroke="black" points="143.5,-998.5 187.5,-998.5 "/>
<text text-anchor="middle" x="165.5" y="-986.5" font-family="Helvetica,sans-Serif" font-size="10.00"> </text>
</a>
</g>
</g>
<!-- Node9&#45;&gt;Node4 -->
<g id="edge8" class="edge">
<title>Node9&#45;&gt;Node4</title>
<path fill="none" stroke="#404040" d="M164.76,-979.4C164.23,-959.42 163.46,-930.62 162.65,-900.01"/>
<polygon fill="none" stroke="#404040" points="162.64,-899.73 158.48,-893.84 162.32,-887.73 166.48,-893.62 162.64,-899.73"/>
<text text-anchor="middle" x="178.5" y="-909" font-family="Helvetica,sans-Serif" font-size="10.00"> &#45;image</text>
</g>
<!-- Node10&#45;&gt;Node1 -->
<g id="edge10" class="edge">
<title>Node10&#45;&gt;Node1</title>
<path fill="none" stroke="#404040" d="M352.62,-149.44C339.98,-136.76 326.49,-123.22 313.71,-110.4"/>
<polygon fill="none" stroke="#404040" points="313.47,-110.16 306.4,-108.73 304.99,-101.66 312.06,-103.08 313.47,-110.16"/>
<text text-anchor="middle" x="346.5" y="-123" font-family="Helvetica,sans-Serif" font-size="10.00"> &#45;trailer</text>
</g>
</g>
</svg>
