<?xml version="1.0" encoding="UTF-8" standalone="no"?>
<!DOCTYPE svg PUBLIC "-//W3C//DTD SVG 1.1//EN"
 "http://www.w3.org/Graphics/SVG/1.1/DTD/svg11.dtd">
<!-- Generated by graphviz version 8.0.3 (0)
 -->
<!-- Title: eu.anwar.madrunner.objects.obstacles.TrailerWithRamp Pages: 1 -->
<svg width="608pt" height="1321pt"
 viewBox="0.00 0.00 607.50 1321.00" xmlns="http://www.w3.org/2000/svg" xmlns:xlink="http://www.w3.org/1999/xlink">
<g id="graph0" class="graph" transform="scale(1 1) rotate(0) translate(4 1317)">
<title>eu.anwar.madrunner.objects.obstacles.TrailerWithRamp</title>
<!-- Node1 -->
<g id="node1" class="node">
<title>Node1</title>
<g id="a_node1"><a xlink:title=" ">
<polygon fill="#999999" stroke="#666666" points="130,-0.5 130,-101.5 391,-101.5 391,-0.5 130,-0.5"/>
<text text-anchor="middle" x="260.5" y="-89.5" font-family="Helvetica,sans-Serif" font-size="10.00">eu.anwar.madrunner.objects.obstacles.TrailerWithRamp</text>
<polyline fill="none" stroke="#666666" points="130,-82.5 391,-82.5"/>
<text text-anchor="start" x="138" y="-70.5" font-family="Helvetica,sans-Serif" font-size="10.00">+ static final double rampSize</text>
<text text-anchor="start" x="138" y="-59.5" font-family="Helvetica,sans-Serif" font-size="10.00"># final int trailerCount</text>
<polyline fill="none" stroke="#666666" points="130,-52.5 391,-52.5"/>
<text text-anchor="start" x="138" y="-40.5" font-family="Helvetica,sans-Serif" font-size="10.00">+ TrailerWithRamp(Block.Lane lane, double length)</text>
<text text-anchor="start" x="138" y="-29.5" font-family="Helvetica,sans-Serif" font-size="10.00">+ TrailerWithRamp(Block.Lane lane)</text>
<text text-anchor="start" x="138" y="-18.5" font-family="Helvetica,sans-Serif" font-size="10.00">+ void setLane(Block.Lane lane)</text>
<text text-anchor="start" x="138" y="-7.5" font-family="Helvetica,sans-Serif" font-size="10.00">+ void Draw()</text>
</a>
</g>
</g>
<!-- Node2 -->
<g id="node2" class="node">
<title>Node2</title>
<g id="a_node2"><a xlink:href="classeu_1_1anwar_1_1madrunner_1_1objects_1_1obstacles_1_1Obstacle.html" target="_top" xlink:title=" ">
<polygon fill="white" stroke="#666666" points="137.5,-299.5 137.5,-389.5 383.5,-389.5 383.5,-299.5 137.5,-299.5"/>
<text text-anchor="middle" x="260.5" y="-377.5" font-family="Helvetica,sans-Serif" font-size="10.00">eu.anwar.madrunner.objects.obstacles.Obstacle</text>
<polyline fill="none" stroke="#666666" points="137.5,-370.5 383.5,-370.5"/>
<text text-anchor="start" x="145.5" y="-358.5" font-family="Helvetica,sans-Serif" font-size="10.00">+ static final double obestacleWidth</text>
<polyline fill="none" stroke="#666666" points="137.5,-351.5 383.5,-351.5"/>
<text text-anchor="start" x="145.5" y="-339.5" font-family="Helvetica,sans-Serif" font-size="10.00">+ Obstacle(Block.Lane lane, double y, double length)</text>
<text text-anchor="start" x="145.5" y="-328.5" font-family="Helvetica,sans-Serif" font-size="10.00">+ void addY(double diff)</text>
<text text-anchor="start" x="145.5" y="-317.5" font-family="Helvetica,sans-Serif" font-size="10.00">+ boolean isOffTheScreen()</text>
<text text-anchor="start" x="145.5" y="-306.5" font-family="Helvetica,sans-Serif" font-size="10.00">+ void Draw()</text>
</a>
</g>
</g>
<!-- Node2&#45;&gt;Node1 -->
<g id="edge1" class="edge">
<title>Node2&#45;&gt;Node1</title>
<path fill="none" stroke="#63b8ff" d="M243.71,-289.14C241.55,-280.16 239.68,-270.88 238.5,-262 231.9,-212.21 232.91,-198.91 238.5,-149 240.25,-133.38 243.53,-116.61 247.04,-101.48"/>
<polygon fill="none" stroke="#63b8ff" points="240.49,-289.7 246.36,-298.52 247.27,-287.96 240.49,-289.7"/>
</g>
<!-- Node2&#45;&gt;Node1 -->
<g id="edge12" class="edge">
<title>Node2&#45;&gt;Node1</title>
<path fill="none" stroke="#404040" d="M260.5,-299.54C260.5,-250.22 260.5,-169.82 260.5,-114.09"/>
<polygon fill="none" stroke="#404040" points="260.5,-114.1 256.5,-108.1 260.5,-102.1 264.5,-108.1 260.5,-114.1"/>
<text text-anchor="middle" x="274.5" y="-203" font-family="Helvetica,sans-Serif" font-size="10.00"> &#45;ramp</text>
</g>
<!-- Node10 -->
<g id="node10" class="node">
<title>Node10</title>
<g id="a_node10"><a xlink:href="classeu_1_1anwar_1_1madrunner_1_1objects_1_1obstacles_1_1Trailer.html" target="_top" xlink:title=" ">
<polygon fill="white" stroke="#666666" points="307,-149.5 307,-261.5 522,-261.5 522,-149.5 307,-149.5"/>
<text text-anchor="middle" x="414.5" y="-249.5" font-family="Helvetica,sans-Serif" font-size="10.00">eu.anwar.madrunner.objects.obstacles.Trailer</text>
<polyline fill="none" stroke="#666666" points="307,-242.5 522,-242.5"/>
<text text-anchor="start" x="315" y="-230.5" font-family="Helvetica,sans-Serif" font-size="10.00">+ static final double singleTrailerLength</text>
<text text-anchor="start" x="315" y="-219.5" font-family="Helvetica,sans-Serif" font-size="10.00">+ static final int maxNumberOfTrailers</text>
<text text-anchor="start" x="315" y="-208.5" font-family="Helvetica,sans-Serif" font-size="10.00"># final int TrailerCount</text>
<polyline fill="none" stroke="#666666" points="307,-201.5 522,-201.5"/>
<text text-anchor="start" x="315" y="-189.5" font-family="Helvetica,sans-Serif" font-size="10.00">+ Trailer(Block.Lane lane, int count)</text>
<text text-anchor="start" x="315" y="-178.5" font-family="Helvetica,sans-Serif" font-size="10.00">+ Trailer(Block.Lane lane)</text>
<text text-anchor="start" x="315" y="-167.5" font-family="Helvetica,sans-Serif" font-size="10.00">+ Trailer(Block.Lane lane, double length)</text>
<text text-anchor="start" x="315" y="-156.5" font-family="Helvetica,sans-Serif" font-size="10.00">+ void Draw()</text>
</a>
</g>
</g>
<!-- Node2&#45;&gt;Node10 -->
<g id="edge11" class="edge">
<title>Node2&#45;&gt;Node10</title>
<path fill="none" stroke="#63b8ff" d="M317.84,-292.49C329.25,-282.34 341.28,-271.63 352.84,-261.36"/>
<polygon fill="none" stroke="#63b8ff" points="315.8,-289.51 310.65,-298.78 320.45,-294.74 315.8,-289.51"/>
</g>
<!-- Node3 -->
<g id="node3" class="node">
<title>Node3</title>
<g id="a_node3"><a xlink:href="classeu_1_1anwar_1_1madrunner_1_1objects_1_1GameLaneObject.html" target="_top" xlink:title=" ">
<polygon fill="white" stroke="#666666" points="88.5,-427.5 88.5,-561.5 432.5,-561.5 432.5,-427.5 88.5,-427.5"/>
<text text-anchor="middle" x="260.5" y="-549.5" font-family="Helvetica,sans-Serif" font-size="10.00">eu.anwar.madrunner.objects.GameLaneObject</text>
<polyline fill="none" stroke="#666666" points="88.5,-542.5 432.5,-542.5"/>
<text text-anchor="middle" x="260.5" y="-530.5" font-family="Helvetica,sans-Serif" font-size="10.00"> </text>
<polyline fill="none" stroke="#666666" points="88.5,-523.5 432.5,-523.5"/>
<text text-anchor="start" x="96.5" y="-511.5" font-family="Helvetica,sans-Serif" font-size="10.00">+ GameLaneObject(Block.Lane lane, double y, double width, double length)</text>
<text text-anchor="start" x="96.5" y="-500.5" font-family="Helvetica,sans-Serif" font-size="10.00">+ GameLaneObject(Block.Lane lane, double y, double cubeLength)</text>
<text text-anchor="start" x="96.5" y="-489.5" font-family="Helvetica,sans-Serif" font-size="10.00">+ void setLane(Block.Lane path)</text>
<text text-anchor="start" x="96.5" y="-478.5" font-family="Helvetica,sans-Serif" font-size="10.00">+ Block.Lane getLane()</text>
<text text-anchor="start" x="96.5" y="-467.5" font-family="Helvetica,sans-Serif" font-size="10.00">+ void Draw()</text>
<text text-anchor="start" x="96.5" y="-456.5" font-family="Helvetica,sans-Serif" font-size="10.00">+ boolean contains(Block.Lane lane, double y)</text>
<text text-anchor="start" x="96.5" y="-445.5" font-family="Helvetica,sans-Serif" font-size="10.00">+ boolean touches(GameLaneObject other)</text>
<text text-anchor="start" x="96.5" y="-434.5" font-family="Helvetica,sans-Serif" font-size="10.00">+ double distance(GameLaneObject other)</text>
</a>
</g>
</g>
<!-- Node3&#45;&gt;Node2 -->
<g id="edge2" class="edge">
<title>Node3&#45;&gt;Node2</title>
<path fill="none" stroke="#63b8ff" d="M260.5,-416.73C260.5,-407.37 260.5,-398.06 260.5,-389.41"/>
<polygon fill="none" stroke="#63b8ff" points="257,-416.72 260.5,-426.72 264,-416.72 257,-416.72"/>
</g>
<!-- Node4 -->
<g id="node4" class="node">
<title>Node4</title>
<g id="a_node4"><a xlink:href="classeu_1_1anwar_1_1madrunner_1_1objects_1_1GameObject.html" target="_top" xlink:title=" ">
<polygon fill="white" stroke="#666666" points="0,-599.5 0,-887.5 323,-887.5 323,-599.5 0,-599.5"/>
<text text-anchor="middle" x="161.5" y="-875.5" font-family="Helvetica,sans-Serif" font-size="10.00">eu.anwar.madrunner.objects.GameObject</text>
<polyline fill="none" stroke="#666666" points="0,-868.5 323,-868.5"/>
<text text-anchor="start" x="8" y="-856.5" font-family="Helvetica,sans-Serif" font-size="10.00"># double x</text>
<text text-anchor="start" x="8" y="-845.5" font-family="Helvetica,sans-Serif" font-size="10.00"># double y</text>
<text text-anchor="start" x="8" y="-834.5" font-family="Helvetica,sans-Serif" font-size="10.00"># double width</text>
<text text-anchor="start" x="8" y="-823.5" font-family="Helvetica,sans-Serif" font-size="10.00"># double length</text>
<polyline fill="none" stroke="#666666" points="0,-816.5 323,-816.5"/>
<text text-anchor="start" x="8" y="-804.5" font-family="Helvetica,sans-Serif" font-size="10.00">+ GameObject(double x, double y, double width, double length)</text>
<text text-anchor="start" x="8" y="-793.5" font-family="Helvetica,sans-Serif" font-size="10.00">+ GameObject(Block.Lane lane, double y, double width, double length)</text>
<text text-anchor="start" x="8" y="-782.5" font-family="Helvetica,sans-Serif" font-size="10.00">+ GameObject(Block.Lane lane, double y, double cubeLength)</text>
<text text-anchor="start" x="8" y="-771.5" font-family="Helvetica,sans-Serif" font-size="10.00">+ GameObject(double x, double y, double cubeLength)</text>
<text text-anchor="start" x="8" y="-760.5" font-family="Helvetica,sans-Serif" font-size="10.00">+ double getWidth()</text>
<text text-anchor="start" x="8" y="-749.5" font-family="Helvetica,sans-Serif" font-size="10.00">+ double getLength()</text>
<text text-anchor="start" x="8" y="-738.5" font-family="Helvetica,sans-Serif" font-size="10.00">+ void setColor(Color color)</text>
<text text-anchor="start" x="8" y="-727.5" font-family="Helvetica,sans-Serif" font-size="10.00">+ void setLane(Block.Lane path)</text>
<text text-anchor="start" x="8" y="-716.5" font-family="Helvetica,sans-Serif" font-size="10.00">+ void setImage(Image image)</text>
<text text-anchor="start" x="8" y="-705.5" font-family="Helvetica,sans-Serif" font-size="10.00">+ Block.Lane getLane()</text>
<text text-anchor="start" x="8" y="-694.5" font-family="Helvetica,sans-Serif" font-size="10.00">+ Image getImage()</text>
<text text-anchor="start" x="8" y="-683.5" font-family="Helvetica,sans-Serif" font-size="10.00">+ void setX(double x)</text>
<text text-anchor="start" x="8" y="-672.5" font-family="Helvetica,sans-Serif" font-size="10.00">+ void setY(double y)</text>
<text text-anchor="start" x="8" y="-661.5" font-family="Helvetica,sans-Serif" font-size="10.00">+ double getY()</text>
<text text-anchor="start" x="8" y="-650.5" font-family="Helvetica,sans-Serif" font-size="10.00">+ double getX()</text>
<text text-anchor="start" x="8" y="-639.5" font-family="Helvetica,sans-Serif" font-size="10.00">+ void Draw()</text>
<text text-anchor="start" x="8" y="-628.5" font-family="Helvetica,sans-Serif" font-size="10.00">+ boolean interesects(double x, double y)</text>
<text text-anchor="start" x="8" y="-617.5" font-family="Helvetica,sans-Serif" font-size="10.00">+ boolean interesects(Block.Lane lane, double y)</text>
<text text-anchor="start" x="8" y="-606.5" font-family="Helvetica,sans-Serif" font-size="10.00">+ boolean touches(GameObject other)</text>
</a>
</g>
</g>
<!-- Node4&#45;&gt;Node3 -->
<g id="edge3" class="edge">
<title>Node4&#45;&gt;Node3</title>
<path fill="none" stroke="#63b8ff" d="M222.87,-589.37C226.75,-579.7 230.52,-570.29 234.09,-561.39"/>
<polygon fill="none" stroke="#63b8ff" points="219.27,-587.95 218.8,-598.53 225.77,-590.55 219.27,-587.95"/>
</g>
<!-- Node5 -->
<g id="node5" class="node">
<title>Node5</title>
<g id="a_node5"><a xlink:title=" ">
<polygon fill="white" stroke="#666666" points="89.5,-979.5 89.5,-1036.5 129.5,-1036.5 129.5,-979.5 89.5,-979.5"/>
<text text-anchor="middle" x="109.5" y="-1024.5" font-family="Helvetica,sans-Serif" font-size="10.00">Color</text>
<polyline fill="none" stroke="#666666" points="89.5,-1017.5 129.5,-1017.5"/>
<text text-anchor="middle" x="109.5" y="-1005.5" font-family="Helvetica,sans-Serif" font-size="10.00"> </text>
<polyline fill="none" stroke="#666666" points="89.5,-998.5 129.5,-998.5"/>
<text text-anchor="middle" x="109.5" y="-986.5" font-family="Helvetica,sans-Serif" font-size="10.00"> </text>
</a>
</g>
</g>
<!-- Node5&#45;&gt;Node4 -->
<g id="edge4" class="edge">
<title>Node5&#45;&gt;Node4</title>
<path fill="none" stroke="#404040" d="M114.87,-979.9C118.84,-959.83 124.61,-930.71 130.75,-899.74"/>
<polygon fill="none" stroke="#404040" points="130.7,-899.98 127.94,-893.31 133.03,-888.21 135.79,-894.87 130.7,-899.98"/>
<text text-anchor="middle" x="143.5" y="-909" font-family="Helvetica,sans-Serif" font-size="10.00"> #color</text>
</g>
<!-- Node6 -->
<g id="node6" class="node">
<title>Node6</title>
<g id="a_node6"><a xlink:href="classeu_1_1anwar_1_1madrunner_1_1objects_1_1obstacles_1_1Block.html" target="_top" xlink:title=" ">
<polygon fill="white" stroke="#666666" points="223.5,-935.5 223.5,-1080.5 481.5,-1080.5 481.5,-935.5 223.5,-935.5"/>
<text text-anchor="middle" x="352.5" y="-1068.5" font-family="Helvetica,sans-Serif" font-size="10.00">eu.anwar.madrunner.objects.obstacles.Block</text>
<polyline fill="none" stroke="#666666" points="223.5,-1061.5 481.5,-1061.5"/>
<text text-anchor="start" x="231.5" y="-1049.5" font-family="Helvetica,sans-Serif" font-size="10.00">+ static final double speed</text>
<text text-anchor="start" x="231.5" y="-1038.5" font-family="Helvetica,sans-Serif" font-size="10.00">&#45; double currentY</text>
<polyline fill="none" stroke="#666666" points="223.5,-1031.5 481.5,-1031.5"/>
<text text-anchor="start" x="231.5" y="-1019.5" font-family="Helvetica,sans-Serif" font-size="10.00">+ Block(ArrayList&lt; Obstacle &gt; left, ArrayList&lt; Obstacle</text>
<text text-anchor="start" x="231.5" y="-1008.5" font-family="Helvetica,sans-Serif" font-size="10.00"> &gt; center, ArrayList&lt; Obstacle &gt; right)</text>
<text text-anchor="start" x="231.5" y="-997.5" font-family="Helvetica,sans-Serif" font-size="10.00">+ double getCurrentY()</text>
<text text-anchor="start" x="231.5" y="-986.5" font-family="Helvetica,sans-Serif" font-size="10.00">+ ArrayList&lt; Obstacle &gt; getLane(Lane lane)</text>
<text text-anchor="start" x="231.5" y="-975.5" font-family="Helvetica,sans-Serif" font-size="10.00">+ ArrayList&lt; Obstacle &gt; getLeftLane()</text>
<text text-anchor="start" x="231.5" y="-964.5" font-family="Helvetica,sans-Serif" font-size="10.00">+ ArrayList&lt; Obstacle &gt; getCenterLane()</text>
<text text-anchor="start" x="231.5" y="-953.5" font-family="Helvetica,sans-Serif" font-size="10.00">+ ArrayList&lt; Obstacle &gt; getRightLane()</text>
<text text-anchor="start" x="231.5" y="-942.5" font-family="Helvetica,sans-Serif" font-size="10.00">+ void frameUpdate()</text>
</a>
</g>
</g>
<!-- Node6&#45;&gt;Node3 -->
<g id="edge9" class="edge">
<title>Node6&#45;&gt;Node3</title>
<path fill="none" stroke="#404040" d="M360.63,-935.86C367.52,-852.66 370.98,-711.94 332.5,-599 329.43,-590 325.33,-581.07 320.64,-572.45"/>
<polygon fill="none" stroke="#404040" points="320.65,-572.46 314.17,-569.29 314.61,-562.09 321.09,-565.26 320.65,-572.46"/>
<text text-anchor="middle" x="378" y="-741" font-family="Helvetica,sans-Serif" font-size="10.00"> #lane</text>
</g>
<!-- Node6&#45;&gt;Node4 -->
<g id="edge5" class="edge">
<title>Node6&#45;&gt;Node4</title>
<path fill="none" stroke="#404040" d="M300.56,-935.62C291.89,-923.7 282.6,-910.94 273.1,-897.88"/>
<polygon fill="none" stroke="#404040" points="273.03,-897.79 266.27,-895.29 265.97,-888.08 272.74,-890.58 273.03,-897.79"/>
<text text-anchor="middle" x="298" y="-909" font-family="Helvetica,sans-Serif" font-size="10.00"> #lane</text>
</g>
<!-- Node7 -->
<g id="node7" class="node">
<title>Node7</title>
<g id="a_node7"><a xlink:title=" ">
<polygon fill="white" stroke="#666666" points="210.5,-1150.5 210.5,-1207.5 494.5,-1207.5 494.5,-1150.5 210.5,-1150.5"/>
<text text-anchor="middle" x="352.5" y="-1195.5" font-family="Helvetica,sans-Serif" font-size="10.00">ArrayList&lt; eu.anwar.madrunner.objects.obstacles.Obstacle &gt;</text>
<polyline fill="none" stroke="#666666" points="210.5,-1188.5 494.5,-1188.5"/>
<text text-anchor="middle" x="352.5" y="-1176.5" font-family="Helvetica,sans-Serif" font-size="10.00"> </text>
<polyline fill="none" stroke="#666666" points="210.5,-1169.5 494.5,-1169.5"/>
<text text-anchor="middle" x="352.5" y="-1157.5" font-family="Helvetica,sans-Serif" font-size="10.00"> </text>
</a>
</g>
</g>
<!-- Node7&#45;&gt;Node6 -->
<g id="edge6" class="edge">
<title>Node7&#45;&gt;Node6</title>
<path fill="none" stroke="#404040" d="M352.5,-1150.85C352.5,-1135.01 352.5,-1114.08 352.5,-1093.17"/>
<polygon fill="none" stroke="#404040" points="352.5,-1093.11 348.5,-1087.11 352.5,-1081.11 356.5,-1087.11 352.5,-1093.11"/>
<text text-anchor="middle" x="369.5" y="-1124" font-family="Helvetica,sans-Serif" font-size="10.00"> &#45;center</text>
<text text-anchor="middle" x="369.5" y="-1113" font-family="Helvetica,sans-Serif" font-size="10.00">&#45;left</text>
<text text-anchor="middle" x="369.5" y="-1102" font-family="Helvetica,sans-Serif" font-size="10.00">&#45;right</text>
</g>
<!-- Node8 -->
<g id="node8" class="node">
<title>Node8</title>
<g id="a_node8"><a xlink:title=" ">
<polygon fill="white" stroke="#666666" points="324.5,-1255.5 324.5,-1312.5 380.5,-1312.5 380.5,-1255.5 324.5,-1255.5"/>
<text text-anchor="middle" x="352.5" y="-1300.5" font-family="Helvetica,sans-Serif" font-size="10.00">ArrayList</text>
<polyline fill="none" stroke="#666666" points="324.5,-1293.5 380.5,-1293.5"/>
<text text-anchor="middle" x="352.5" y="-1281.5" font-family="Helvetica,sans-Serif" font-size="10.00"> </text>
<polyline fill="none" stroke="#666666" points="324.5,-1274.5 380.5,-1274.5"/>
<text text-anchor="middle" x="352.5" y="-1262.5" font-family="Helvetica,sans-Serif" font-size="10.00"> </text>
</a>
</g>
</g>
<!-- Node8&#45;&gt;Node7 -->
<g id="edge7" class="edge">
<title>Node8&#45;&gt;Node7</title>
<path fill="none" stroke="orange" d="M352.5,-1244.71C352.5,-1232.34 352.5,-1218.88 352.5,-1207.46"/>
<polygon fill="orange" stroke="orange" points="349,-1244.67 352.5,-1254.67 356,-1244.67 349,-1244.67"/>
<text text-anchor="middle" x="476" y="-1229" font-family="Helvetica,sans-Serif" font-size="10.00"> &lt; eu::anwar::madrunner::objects::obstacles::Obstacle &gt;</text>
</g>
<!-- Node9 -->
<g id="node9" class="node">
<title>Node9</title>
<g id="a_node9"><a xlink:title=" ">
<polygon fill="white" stroke="#666666" points="147.5,-979.5 147.5,-1036.5 191.5,-1036.5 191.5,-979.5 147.5,-979.5"/>
<text text-anchor="middle" x="169.5" y="-1024.5" font-family="Helvetica,sans-Serif" font-size="10.00">Image</text>
<polyline fill="none" stroke="#666666" points="147.5,-1017.5 191.5,-1017.5"/>
<text text-anchor="middle" x="169.5" y="-1005.5" font-family="Helvetica,sans-Serif" font-size="10.00"> </text>
<polyline fill="none" stroke="#666666" points="147.5,-998.5 191.5,-998.5"/>
<text text-anchor="middle" x="169.5" y="-986.5" font-family="Helvetica,sans-Serif" font-size="10.00"> </text>
</a>
</g>
</g>
<!-- Node9&#45;&gt;Node4 -->
<g id="edge8" class="edge">
<title>Node9&#45;&gt;Node4</title>
<path fill="none" stroke="#404040" d="M168.67,-979.9C168.07,-959.92 167.18,-930.96 166.24,-900.15"/>
<polygon fill="none" stroke="#404040" points="166.25,-900.22 162.06,-894.34 165.88,-888.22 170.06,-894.1 166.25,-900.22"/>
<text text-anchor="middle" x="183" y="-909" font-family="Helvetica,sans-Serif" font-size="10.00"> &#45;image</text>
</g>
<!-- Node10&#45;&gt;Node1 -->
<g id="edge10" class="edge">
<title>Node10&#45;&gt;Node1</title>
<path fill="none" stroke="#404040" d="M359.34,-149.87C346.36,-137.03 332.49,-123.29 319.36,-110.29"/>
<polygon fill="none" stroke="#404040" points="319.58,-110.5 312.5,-109.12 311.05,-102.06 318.13,-103.44 319.58,-110.5"/>
<text text-anchor="middle" x="353" y="-123" font-family="Helvetica,sans-Serif" font-size="10.00"> &#45;trailer</text>
</g>
</g>
</svg>
