<?xml version="1.0" encoding="UTF-8" standalone="no"?>
<!DOCTYPE svg PUBLIC "-//W3C//DTD SVG 1.1//EN"
 "http://www.w3.org/Graphics/SVG/1.1/DTD/svg11.dtd">
<!-- Generated by graphviz version 3.0.0 (20221109.1736)
 -->
<!-- Title: eu.anwar.madrunner.objects.obstacles.Trailer Pages: 1 -->
<svg width="562pt" height="1084pt"
 viewBox="0.00 0.00 561.50 1084.00" xmlns="http://www.w3.org/2000/svg" xmlns:xlink="http://www.w3.org/1999/xlink">
<g id="graph0" class="graph" transform="scale(1 1) rotate(0) translate(4 1080)">
<title>eu.anwar.madrunner.objects.obstacles.Trailer</title>
<polygon fill="white" stroke="transparent" points="-4,4 -4,-1080 557.5,-1080 557.5,4 -4,4"/>
<!-- Node1 -->
<g id="node1" class="node">
<title>Node1</title>
<g id="a_node1"><a xlink:title=" ">
<polygon fill="#bfbfbf" stroke="black" points="125,-0.5 125,-112.5 336,-112.5 336,-0.5 125,-0.5"/>
<text text-anchor="middle" x="230.5" y="-100.5" font-family="Helvetica,sans-Serif" font-size="10.00">eu.anwar.madrunner.objects.obstacles.Trailer</text>
<polyline fill="none" stroke="black" points="125,-93.5 336,-93.5 "/>
<text text-anchor="start" x="133" y="-81.5" font-family="Helvetica,sans-Serif" font-size="10.00">+ static final double singleTrailerLength</text>
<text text-anchor="start" x="133" y="-70.5" font-family="Helvetica,sans-Serif" font-size="10.00">+ static final int maxNumberOfTrailers</text>
<text text-anchor="start" x="133" y="-59.5" font-family="Helvetica,sans-Serif" font-size="10.00"># final int TrailerCount</text>
<polyline fill="none" stroke="black" points="125,-52.5 336,-52.5 "/>
<text text-anchor="start" x="133" y="-40.5" font-family="Helvetica,sans-Serif" font-size="10.00">+ Trailer(Block.Lane lane, int count)</text>
<text text-anchor="start" x="133" y="-29.5" font-family="Helvetica,sans-Serif" font-size="10.00">+ Trailer(Block.Lane lane)</text>
<text text-anchor="start" x="133" y="-18.5" font-family="Helvetica,sans-Serif" font-size="10.00">+ Trailer(Block.Lane lane, double length)</text>
<text text-anchor="start" x="133" y="-7.5" font-family="Helvetica,sans-Serif" font-size="10.00">+ void Draw()</text>
</a>
</g>
</g>
<!-- Node2 -->
<g id="node2" class="node">
<title>Node2</title>
<g id="a_node2"><a xlink:href="classeu_1_1anwar_1_1madrunner_1_1objects_1_1obstacles_1_1Obstacle.html" target="_top" xlink:title=" ">
<polygon fill="white" stroke="black" points="109.5,-150.5 109.5,-240.5 351.5,-240.5 351.5,-150.5 109.5,-150.5"/>
<text text-anchor="middle" x="230.5" y="-228.5" font-family="Helvetica,sans-Serif" font-size="10.00">eu.anwar.madrunner.objects.obstacles.Obstacle</text>
<polyline fill="none" stroke="black" points="109.5,-221.5 351.5,-221.5 "/>
<text text-anchor="start" x="117.5" y="-209.5" font-family="Helvetica,sans-Serif" font-size="10.00">+ static final double obestacleWidth</text>
<polyline fill="none" stroke="black" points="109.5,-202.5 351.5,-202.5 "/>
<text text-anchor="start" x="117.5" y="-190.5" font-family="Helvetica,sans-Serif" font-size="10.00">+ Obstacle(Block.Lane lane, double y, double length)</text>
<text text-anchor="start" x="117.5" y="-179.5" font-family="Helvetica,sans-Serif" font-size="10.00">+ void addY(double diff)</text>
<text text-anchor="start" x="117.5" y="-168.5" font-family="Helvetica,sans-Serif" font-size="10.00">+ boolean isOffTheScreen()</text>
<text text-anchor="start" x="117.5" y="-157.5" font-family="Helvetica,sans-Serif" font-size="10.00">+ void Draw()</text>
</a>
</g>
</g>
<!-- Node2&#45;&gt;Node1 -->
<g id="edge1" class="edge">
<title>Node2&#45;&gt;Node1</title>
<path fill="none" stroke="midnightblue" d="M230.5,-140.29C230.5,-131.18 230.5,-121.71 230.5,-112.57"/>
<polygon fill="none" stroke="midnightblue" points="227,-140.4 230.5,-150.4 234,-140.4 227,-140.4"/>
</g>
<!-- Node3 -->
<g id="node3" class="node">
<title>Node3</title>
<g id="a_node3"><a xlink:href="classeu_1_1anwar_1_1madrunner_1_1objects_1_1GameLaneObject.html" target="_top" xlink:title=" ">
<polygon fill="white" stroke="black" points="61.5,-278.5 61.5,-412.5 399.5,-412.5 399.5,-278.5 61.5,-278.5"/>
<text text-anchor="middle" x="230.5" y="-400.5" font-family="Helvetica,sans-Serif" font-size="10.00">eu.anwar.madrunner.objects.GameLaneObject</text>
<polyline fill="none" stroke="black" points="61.5,-393.5 399.5,-393.5 "/>
<text text-anchor="middle" x="230.5" y="-381.5" font-family="Helvetica,sans-Serif" font-size="10.00"> </text>
<polyline fill="none" stroke="black" points="61.5,-374.5 399.5,-374.5 "/>
<text text-anchor="start" x="69.5" y="-362.5" font-family="Helvetica,sans-Serif" font-size="10.00">+ GameLaneObject(Block.Lane lane, double y, double width, double length)</text>
<text text-anchor="start" x="69.5" y="-351.5" font-family="Helvetica,sans-Serif" font-size="10.00">+ GameLaneObject(Block.Lane lane, double y, double cubeLength)</text>
<text text-anchor="start" x="69.5" y="-340.5" font-family="Helvetica,sans-Serif" font-size="10.00">+ void setLane(Block.Lane path)</text>
<text text-anchor="start" x="69.5" y="-329.5" font-family="Helvetica,sans-Serif" font-size="10.00">+ Block.Lane getLane()</text>
<text text-anchor="start" x="69.5" y="-318.5" font-family="Helvetica,sans-Serif" font-size="10.00">+ void Draw()</text>
<text text-anchor="start" x="69.5" y="-307.5" font-family="Helvetica,sans-Serif" font-size="10.00">+ boolean contains(Block.Lane lane, double y)</text>
<text text-anchor="start" x="69.5" y="-296.5" font-family="Helvetica,sans-Serif" font-size="10.00">+ boolean touches(GameLaneObject other)</text>
<text text-anchor="start" x="69.5" y="-285.5" font-family="Helvetica,sans-Serif" font-size="10.00">+ double distance(GameLaneObject other)</text>
</a>
</g>
</g>
<!-- Node3&#45;&gt;Node2 -->
<g id="edge2" class="edge">
<title>Node3&#45;&gt;Node2</title>
<path fill="none" stroke="midnightblue" d="M230.5,-268.07C230.5,-258.65 230.5,-249.28 230.5,-240.57"/>
<polygon fill="none" stroke="midnightblue" points="227,-268.29 230.5,-278.29 234,-268.29 227,-268.29"/>
</g>
<!-- Node4 -->
<g id="node4" class="node">
<title>Node4</title>
<g id="a_node4"><a xlink:href="classeu_1_1anwar_1_1madrunner_1_1objects_1_1GameObject.html" target="_top" xlink:title=" ">
<polygon fill="white" stroke="black" points="0,-450.5 0,-650.5 283,-650.5 283,-450.5 0,-450.5"/>
<text text-anchor="middle" x="141.5" y="-638.5" font-family="Helvetica,sans-Serif" font-size="10.00">eu.anwar.madrunner.objects.GameObject</text>
<polyline fill="none" stroke="black" points="0,-631.5 283,-631.5 "/>
<text text-anchor="start" x="8" y="-619.5" font-family="Helvetica,sans-Serif" font-size="10.00"># double x</text>
<text text-anchor="start" x="8" y="-608.5" font-family="Helvetica,sans-Serif" font-size="10.00"># double y</text>
<text text-anchor="start" x="8" y="-597.5" font-family="Helvetica,sans-Serif" font-size="10.00"># double width</text>
<text text-anchor="start" x="8" y="-586.5" font-family="Helvetica,sans-Serif" font-size="10.00"># double length</text>
<polyline fill="none" stroke="black" points="0,-579.5 283,-579.5 "/>
<text text-anchor="start" x="8" y="-567.5" font-family="Helvetica,sans-Serif" font-size="10.00">+ GameObject(double x, double y, double width, double length)</text>
<text text-anchor="start" x="8" y="-556.5" font-family="Helvetica,sans-Serif" font-size="10.00">+ double getWidth()</text>
<text text-anchor="start" x="8" y="-545.5" font-family="Helvetica,sans-Serif" font-size="10.00">+ double getLength()</text>
<text text-anchor="start" x="8" y="-534.5" font-family="Helvetica,sans-Serif" font-size="10.00">+ void setColor(Color color)</text>
<text text-anchor="start" x="8" y="-523.5" font-family="Helvetica,sans-Serif" font-size="10.00">+ void setLane(Block.Lane path)</text>
<text text-anchor="start" x="8" y="-512.5" font-family="Helvetica,sans-Serif" font-size="10.00">+ void setImage(Image image)</text>
<text text-anchor="start" x="8" y="-501.5" font-family="Helvetica,sans-Serif" font-size="10.00">+ Block.Lane getLane()</text>
<text text-anchor="start" x="8" y="-490.5" font-family="Helvetica,sans-Serif" font-size="10.00">+ Image getImage()</text>
<text text-anchor="start" x="8" y="-479.5" font-family="Helvetica,sans-Serif" font-size="10.00">+ void setY(double y)</text>
<text text-anchor="start" x="8" y="-468.5" font-family="Helvetica,sans-Serif" font-size="10.00">+ double getY()</text>
<text text-anchor="start" x="8" y="-457.5" font-family="Helvetica,sans-Serif" font-size="10.00">+ void Draw()</text>
</a>
</g>
</g>
<!-- Node4&#45;&gt;Node3 -->
<g id="edge3" class="edge">
<title>Node4&#45;&gt;Node3</title>
<path fill="none" stroke="midnightblue" d="M189.03,-441.09C193.27,-431.43 197.47,-421.84 201.48,-412.69"/>
<polygon fill="none" stroke="midnightblue" points="185.77,-439.81 184.96,-450.38 192.18,-442.63 185.77,-439.81"/>
</g>
<!-- Node5 -->
<g id="node5" class="node">
<title>Node5</title>
<g id="a_node5"><a xlink:title=" ">
<polygon fill="white" stroke="black" points="65,-742.5 65,-799.5 104,-799.5 104,-742.5 65,-742.5"/>
<text text-anchor="middle" x="84.5" y="-787.5" font-family="Helvetica,sans-Serif" font-size="10.00">Color</text>
<polyline fill="none" stroke="black" points="65,-780.5 104,-780.5 "/>
<text text-anchor="middle" x="84.5" y="-768.5" font-family="Helvetica,sans-Serif" font-size="10.00"> </text>
<polyline fill="none" stroke="black" points="65,-761.5 104,-761.5 "/>
<text text-anchor="middle" x="84.5" y="-749.5" font-family="Helvetica,sans-Serif" font-size="10.00"> </text>
</a>
</g>
</g>
<!-- Node5&#45;&gt;Node4 -->
<g id="edge4" class="edge">
<title>Node5&#45;&gt;Node4</title>
<path fill="none" stroke="#404040" d="M91.22,-742.09C96.16,-721.79 103.09,-693.65 109.5,-669 110.09,-666.74 110.69,-664.45 111.29,-662.14"/>
<polygon fill="none" stroke="#404040" points="111.3,-662.11 108.96,-655.28 114.36,-650.5 116.7,-657.32 111.3,-662.11"/>
<text text-anchor="middle" x="124" y="-672" font-family="Helvetica,sans-Serif" font-size="10.00"> #color</text>
</g>
<!-- Node6 -->
<g id="node6" class="node">
<title>Node6</title>
<g id="a_node6"><a xlink:href="classeu_1_1anwar_1_1madrunner_1_1objects_1_1obstacles_1_1Block.html" target="_top" xlink:title=" ">
<polygon fill="white" stroke="black" points="189.5,-698.5 189.5,-843.5 443.5,-843.5 443.5,-698.5 189.5,-698.5"/>
<text text-anchor="middle" x="316.5" y="-831.5" font-family="Helvetica,sans-Serif" font-size="10.00">eu.anwar.madrunner.objects.obstacles.Block</text>
<polyline fill="none" stroke="black" points="189.5,-824.5 443.5,-824.5 "/>
<text text-anchor="start" x="197.5" y="-812.5" font-family="Helvetica,sans-Serif" font-size="10.00">+ static final double speed</text>
<text text-anchor="start" x="197.5" y="-801.5" font-family="Helvetica,sans-Serif" font-size="10.00">&#45; double currentY</text>
<polyline fill="none" stroke="black" points="189.5,-794.5 443.5,-794.5 "/>
<text text-anchor="start" x="197.5" y="-782.5" font-family="Helvetica,sans-Serif" font-size="10.00">+ Block(ArrayList&lt; Obstacle &gt; left, ArrayList&lt; Obstacle</text>
<text text-anchor="start" x="197.5" y="-771.5" font-family="Helvetica,sans-Serif" font-size="10.00"> &gt; center, ArrayList&lt; Obstacle &gt; right)</text>
<text text-anchor="start" x="197.5" y="-760.5" font-family="Helvetica,sans-Serif" font-size="10.00">+ double getCurrentY()</text>
<text text-anchor="start" x="197.5" y="-749.5" font-family="Helvetica,sans-Serif" font-size="10.00">+ ArrayList&lt; Obstacle &gt; getLane(Lane lane)</text>
<text text-anchor="start" x="197.5" y="-738.5" font-family="Helvetica,sans-Serif" font-size="10.00">+ ArrayList&lt; Obstacle &gt; getLeftLane()</text>
<text text-anchor="start" x="197.5" y="-727.5" font-family="Helvetica,sans-Serif" font-size="10.00">+ ArrayList&lt; Obstacle &gt; getCenterLane()</text>
<text text-anchor="start" x="197.5" y="-716.5" font-family="Helvetica,sans-Serif" font-size="10.00">+ ArrayList&lt; Obstacle &gt; getRightLane()</text>
<text text-anchor="start" x="197.5" y="-705.5" font-family="Helvetica,sans-Serif" font-size="10.00">+ void frameUpdate()</text>
</a>
</g>
</g>
<!-- Node6&#45;&gt;Node3 -->
<g id="edge9" class="edge">
<title>Node6&#45;&gt;Node3</title>
<path fill="none" stroke="#404040" d="M320.44,-698.31C321.91,-632.26 318.62,-532.31 292.5,-450 289.67,-441.09 285.94,-432.13 281.72,-423.43"/>
<polygon fill="none" stroke="#404040" points="281.61,-423.22 275.31,-419.71 276.12,-412.55 282.42,-416.06 281.61,-423.22"/>
<text text-anchor="middle" x="332.5" y="-548" font-family="Helvetica,sans-Serif" font-size="10.00"> #lane</text>
</g>
<!-- Node6&#45;&gt;Node4 -->
<g id="edge5" class="edge">
<title>Node6&#45;&gt;Node4</title>
<path fill="none" stroke="#404040" d="M259.2,-698.45C249.33,-686.14 238.88,-673.09 228.44,-660.05"/>
<polygon fill="none" stroke="#404040" points="228.35,-659.94 221.48,-657.76 220.85,-650.58 227.72,-652.76 228.35,-659.94"/>
<text text-anchor="middle" x="251.5" y="-672" font-family="Helvetica,sans-Serif" font-size="10.00"> #lane</text>
</g>
<!-- Node7 -->
<g id="node7" class="node">
<title>Node7</title>
<g id="a_node7"><a xlink:title=" ">
<polygon fill="white" stroke="black" points="177.5,-913.5 177.5,-970.5 455.5,-970.5 455.5,-913.5 177.5,-913.5"/>
<text text-anchor="middle" x="316.5" y="-958.5" font-family="Helvetica,sans-Serif" font-size="10.00">ArrayList&lt; eu.anwar.madrunner.objects.obstacles.Obstacle &gt;</text>
<polyline fill="none" stroke="black" points="177.5,-951.5 455.5,-951.5 "/>
<text text-anchor="middle" x="316.5" y="-939.5" font-family="Helvetica,sans-Serif" font-size="10.00"> </text>
<polyline fill="none" stroke="black" points="177.5,-932.5 455.5,-932.5 "/>
<text text-anchor="middle" x="316.5" y="-920.5" font-family="Helvetica,sans-Serif" font-size="10.00"> </text>
</a>
</g>
</g>
<!-- Node7&#45;&gt;Node6 -->
<g id="edge6" class="edge">
<title>Node7&#45;&gt;Node6</title>
<path fill="none" stroke="#404040" d="M316.5,-913.47C316.5,-897.6 316.5,-876.71 316.5,-855.87"/>
<polygon fill="none" stroke="#404040" points="316.5,-855.64 312.5,-849.64 316.5,-843.64 320.5,-849.64 316.5,-855.64"/>
<text text-anchor="middle" x="333" y="-887" font-family="Helvetica,sans-Serif" font-size="10.00"> &#45;center</text>
<text text-anchor="middle" x="333" y="-876" font-family="Helvetica,sans-Serif" font-size="10.00">&#45;left</text>
<text text-anchor="middle" x="333" y="-865" font-family="Helvetica,sans-Serif" font-size="10.00">&#45;right</text>
</g>
<!-- Node8 -->
<g id="node8" class="node">
<title>Node8</title>
<g id="a_node8"><a xlink:title=" ">
<polygon fill="white" stroke="black" points="288.5,-1018.5 288.5,-1075.5 344.5,-1075.5 344.5,-1018.5 288.5,-1018.5"/>
<text text-anchor="middle" x="316.5" y="-1063.5" font-family="Helvetica,sans-Serif" font-size="10.00">ArrayList</text>
<polyline fill="none" stroke="black" points="288.5,-1056.5 344.5,-1056.5 "/>
<text text-anchor="middle" x="316.5" y="-1044.5" font-family="Helvetica,sans-Serif" font-size="10.00"> </text>
<polyline fill="none" stroke="black" points="288.5,-1037.5 344.5,-1037.5 "/>
<text text-anchor="middle" x="316.5" y="-1025.5" font-family="Helvetica,sans-Serif" font-size="10.00"> </text>
</a>
</g>
</g>
<!-- Node8&#45;&gt;Node7 -->
<g id="edge7" class="edge">
<title>Node8&#45;&gt;Node7</title>
<path fill="none" stroke="orange" d="M316.5,-1008.29C316.5,-995.84 316.5,-982.23 316.5,-970.68"/>
<polygon fill="orange" stroke="orange" points="313,-1008.4 316.5,-1018.4 320,-1008.4 313,-1008.4"/>
<text text-anchor="middle" x="435" y="-992" font-family="Helvetica,sans-Serif" font-size="10.00"> &lt; eu::anwar::madrunner::objects::obstacles::Obstacle &gt;</text>
</g>
<!-- Node9 -->
<g id="node9" class="node">
<title>Node9</title>
<g id="a_node9"><a xlink:title=" ">
<polygon fill="white" stroke="black" points="122.5,-742.5 122.5,-799.5 166.5,-799.5 166.5,-742.5 122.5,-742.5"/>
<text text-anchor="middle" x="144.5" y="-787.5" font-family="Helvetica,sans-Serif" font-size="10.00">Image</text>
<polyline fill="none" stroke="black" points="122.5,-780.5 166.5,-780.5 "/>
<text text-anchor="middle" x="144.5" y="-768.5" font-family="Helvetica,sans-Serif" font-size="10.00"> </text>
<polyline fill="none" stroke="black" points="122.5,-761.5 166.5,-761.5 "/>
<text text-anchor="middle" x="144.5" y="-749.5" font-family="Helvetica,sans-Serif" font-size="10.00"> </text>
</a>
</g>
</g>
<!-- Node9&#45;&gt;Node4 -->
<g id="edge8" class="edge">
<title>Node9&#45;&gt;Node4</title>
<path fill="none" stroke="#404040" d="M144.12,-742.33C143.84,-721.84 143.44,-692.46 143.03,-662.87"/>
<polygon fill="none" stroke="#404040" points="143.03,-662.65 138.94,-656.7 142.86,-650.65 146.94,-656.59 143.03,-662.65"/>
<text text-anchor="middle" x="158.5" y="-672" font-family="Helvetica,sans-Serif" font-size="10.00"> &#45;image</text>
</g>
</g>
</svg>
