<?xml version="1.0" encoding="UTF-8" standalone="no"?>
<!DOCTYPE svg PUBLIC "-//W3C//DTD SVG 1.1//EN"
 "http://www.w3.org/Graphics/SVG/1.1/DTD/svg11.dtd">
<!-- Generated by graphviz version 3.0.0 (20221109.1736)
 -->
<!-- Title: eu.anwar.madrunner.objects.Player Pages: 1 -->
<svg width="684pt" height="1419pt"
 viewBox="0.00 0.00 683.81 1419.00" xmlns="http://www.w3.org/2000/svg" xmlns:xlink="http://www.w3.org/1999/xlink">
<g id="graph0" class="graph" transform="scale(1 1) rotate(0) translate(4 1415)">
<title>eu.anwar.madrunner.objects.Player</title>
<polygon fill="white" stroke="transparent" points="-4,4 -4,-1415 679.81,-1415 679.81,4 -4,4"/>
<!-- Node1 -->
<g id="node1" class="node">
<title>Node1</title>
<g id="a_node1"><a xlink:title=" ">
<polygon fill="#bfbfbf" stroke="black" points="310.31,-0.5 310.31,-442.5 498.31,-442.5 498.31,-0.5 310.31,-0.5"/>
<text text-anchor="middle" x="404.31" y="-430.5" font-family="Helvetica,sans-Serif" font-size="10.00">eu.anwar.madrunner.objects.Player</text>
<polyline fill="none" stroke="black" points="310.31,-423.5 498.31,-423.5 "/>
<text text-anchor="start" x="318.31" y="-411.5" font-family="Helvetica,sans-Serif" font-size="10.00">+ static final double playerLength</text>
<text text-anchor="start" x="318.31" y="-400.5" font-family="Helvetica,sans-Serif" font-size="10.00">+ static final int maxJumpFrames</text>
<text text-anchor="start" x="318.31" y="-389.5" font-family="Helvetica,sans-Serif" font-size="10.00">+ static final int maxJumpLength</text>
<text text-anchor="start" x="318.31" y="-378.5" font-family="Helvetica,sans-Serif" font-size="10.00">+ static final int maxRampFrames</text>
<text text-anchor="start" x="318.31" y="-367.5" font-family="Helvetica,sans-Serif" font-size="10.00">+ static final double jumpFormulaATerm</text>
<text text-anchor="start" x="318.31" y="-356.5" font-family="Helvetica,sans-Serif" font-size="10.00">+ static final double jumpFormulaBTerm</text>
<text text-anchor="start" x="318.31" y="-345.5" font-family="Helvetica,sans-Serif" font-size="10.00">&#45; boolean jumping</text>
<text text-anchor="start" x="318.31" y="-334.5" font-family="Helvetica,sans-Serif" font-size="10.00">&#45; boolean isClimbingRamp</text>
<text text-anchor="start" x="318.31" y="-323.5" font-family="Helvetica,sans-Serif" font-size="10.00">&#45; Boolean alive</text>
<text text-anchor="start" x="318.31" y="-312.5" font-family="Helvetica,sans-Serif" font-size="10.00">&#45; Boolean isDying</text>
<text text-anchor="start" x="318.31" y="-301.5" font-family="Helvetica,sans-Serif" font-size="10.00">&#45; int currentJumpFrame</text>
<text text-anchor="start" x="318.31" y="-290.5" font-family="Helvetica,sans-Serif" font-size="10.00">&#45; int currentRunningFrame</text>
<text text-anchor="start" x="318.31" y="-279.5" font-family="Helvetica,sans-Serif" font-size="10.00">&#45; int currentDeathFrame</text>
<text text-anchor="start" x="318.31" y="-268.5" font-family="Helvetica,sans-Serif" font-size="10.00">&#45; int currentClimbingFrame</text>
<polyline fill="none" stroke="black" points="310.31,-261.5 498.31,-261.5 "/>
<text text-anchor="start" x="318.31" y="-249.5" font-family="Helvetica,sans-Serif" font-size="10.00">+ Player()</text>
<text text-anchor="start" x="318.31" y="-238.5" font-family="Helvetica,sans-Serif" font-size="10.00">+ Level getLevel()</text>
<text text-anchor="start" x="318.31" y="-227.5" font-family="Helvetica,sans-Serif" font-size="10.00">+ void setLevel(Level level)</text>
<text text-anchor="start" x="318.31" y="-216.5" font-family="Helvetica,sans-Serif" font-size="10.00">+ void moveLeft()</text>
<text text-anchor="start" x="318.31" y="-205.5" font-family="Helvetica,sans-Serif" font-size="10.00">+ void moveRight()</text>
<text text-anchor="start" x="318.31" y="-194.5" font-family="Helvetica,sans-Serif" font-size="10.00">+ boolean isJumping()</text>
<text text-anchor="start" x="318.31" y="-183.5" font-family="Helvetica,sans-Serif" font-size="10.00">+ boolean isAlive()</text>
<text text-anchor="start" x="318.31" y="-172.5" font-family="Helvetica,sans-Serif" font-size="10.00">+ boolean isDying()</text>
<text text-anchor="start" x="318.31" y="-161.5" font-family="Helvetica,sans-Serif" font-size="10.00">+ void die()</text>
<text text-anchor="start" x="318.31" y="-150.5" font-family="Helvetica,sans-Serif" font-size="10.00">+ void rampClimb()</text>
<text text-anchor="start" x="318.31" y="-139.5" font-family="Helvetica,sans-Serif" font-size="10.00">+ void jump()</text>
<text text-anchor="start" x="318.31" y="-128.5" font-family="Helvetica,sans-Serif" font-size="10.00">+ void setIsDying()</text>
<text text-anchor="start" x="318.31" y="-117.5" font-family="Helvetica,sans-Serif" font-size="10.00">+ void jumpUpdate()</text>
<text text-anchor="start" x="318.31" y="-106.5" font-family="Helvetica,sans-Serif" font-size="10.00">+ void setPlayerLevelLow()</text>
<text text-anchor="start" x="318.31" y="-95.5" font-family="Helvetica,sans-Serif" font-size="10.00">+ void setPlayerLevelHigh()</text>
<text text-anchor="start" x="318.31" y="-84.5" font-family="Helvetica,sans-Serif" font-size="10.00">+ void rampUpdate()</text>
<text text-anchor="start" x="318.31" y="-73.5" font-family="Helvetica,sans-Serif" font-size="10.00">+ void updateDeathAnimation()</text>
<text text-anchor="start" x="318.31" y="-62.5" font-family="Helvetica,sans-Serif" font-size="10.00">+ void playerUpdateAnimation()</text>
<text text-anchor="start" x="318.31" y="-51.5" font-family="Helvetica,sans-Serif" font-size="10.00">&#45; void setAnimations()</text>
<text text-anchor="start" x="318.31" y="-40.5" font-family="Helvetica,sans-Serif" font-size="10.00">&#45; void playerLengthIncrease(double diff)</text>
<text text-anchor="start" x="318.31" y="-29.5" font-family="Helvetica,sans-Serif" font-size="10.00">&#45; void playerLengthDecrease(double diff)</text>
<text text-anchor="start" x="318.31" y="-18.5" font-family="Helvetica,sans-Serif" font-size="10.00">&#45; double jumpCurrentValue(int frame)</text>
<text text-anchor="start" x="318.31" y="-7.5" font-family="Helvetica,sans-Serif" font-size="10.00">&#45; void updateRunningAnimation()</text>
</a>
</g>
</g>
<!-- Node2 -->
<g id="node2" class="node">
<title>Node2</title>
<g id="a_node2"><a xlink:href="classeu_1_1anwar_1_1madrunner_1_1objects_1_1GameLaneObject.html" target="_top" xlink:title=" ">
<polygon fill="white" stroke="black" points="88.31,-490.5 88.31,-624.5 426.31,-624.5 426.31,-490.5 88.31,-490.5"/>
<text text-anchor="middle" x="257.31" y="-612.5" font-family="Helvetica,sans-Serif" font-size="10.00">eu.anwar.madrunner.objects.GameLaneObject</text>
<polyline fill="none" stroke="black" points="88.31,-605.5 426.31,-605.5 "/>
<text text-anchor="middle" x="257.31" y="-593.5" font-family="Helvetica,sans-Serif" font-size="10.00"> </text>
<polyline fill="none" stroke="black" points="88.31,-586.5 426.31,-586.5 "/>
<text text-anchor="start" x="96.31" y="-574.5" font-family="Helvetica,sans-Serif" font-size="10.00">+ GameLaneObject(Block.Lane lane, double y, double width, double length)</text>
<text text-anchor="start" x="96.31" y="-563.5" font-family="Helvetica,sans-Serif" font-size="10.00">+ GameLaneObject(Block.Lane lane, double y, double cubeLength)</text>
<text text-anchor="start" x="96.31" y="-552.5" font-family="Helvetica,sans-Serif" font-size="10.00">+ void setLane(Block.Lane path)</text>
<text text-anchor="start" x="96.31" y="-541.5" font-family="Helvetica,sans-Serif" font-size="10.00">+ Block.Lane getLane()</text>
<text text-anchor="start" x="96.31" y="-530.5" font-family="Helvetica,sans-Serif" font-size="10.00">+ void Draw()</text>
<text text-anchor="start" x="96.31" y="-519.5" font-family="Helvetica,sans-Serif" font-size="10.00">+ boolean contains(Block.Lane lane, double y)</text>
<text text-anchor="start" x="96.31" y="-508.5" font-family="Helvetica,sans-Serif" font-size="10.00">+ boolean touches(GameLaneObject other)</text>
<text text-anchor="start" x="96.31" y="-497.5" font-family="Helvetica,sans-Serif" font-size="10.00">+ double distance(GameLaneObject other)</text>
</a>
</g>
</g>
<!-- Node2&#45;&gt;Node1 -->
<g id="edge1" class="edge">
<title>Node2&#45;&gt;Node1</title>
<path fill="none" stroke="midnightblue" d="M290.65,-480.76C296.72,-466.95 303.32,-451.95 310.19,-436.36"/>
<polygon fill="none" stroke="midnightblue" points="287.35,-479.55 286.53,-490.11 293.76,-482.37 287.35,-479.55"/>
</g>
<!-- Node3 -->
<g id="node3" class="node">
<title>Node3</title>
<g id="a_node3"><a xlink:href="classeu_1_1anwar_1_1madrunner_1_1objects_1_1GameObject.html" target="_top" xlink:title=" ">
<polygon fill="white" stroke="black" points="30.81,-672.5 30.81,-960.5 347.81,-960.5 347.81,-672.5 30.81,-672.5"/>
<text text-anchor="middle" x="189.31" y="-948.5" font-family="Helvetica,sans-Serif" font-size="10.00">eu.anwar.madrunner.objects.GameObject</text>
<polyline fill="none" stroke="black" points="30.81,-941.5 347.81,-941.5 "/>
<text text-anchor="start" x="38.81" y="-929.5" font-family="Helvetica,sans-Serif" font-size="10.00"># double x</text>
<text text-anchor="start" x="38.81" y="-918.5" font-family="Helvetica,sans-Serif" font-size="10.00"># double y</text>
<text text-anchor="start" x="38.81" y="-907.5" font-family="Helvetica,sans-Serif" font-size="10.00"># double width</text>
<text text-anchor="start" x="38.81" y="-896.5" font-family="Helvetica,sans-Serif" font-size="10.00"># double length</text>
<polyline fill="none" stroke="black" points="30.81,-889.5 347.81,-889.5 "/>
<text text-anchor="start" x="38.81" y="-877.5" font-family="Helvetica,sans-Serif" font-size="10.00">+ GameObject(double x, double y, double width, double length)</text>
<text text-anchor="start" x="38.81" y="-866.5" font-family="Helvetica,sans-Serif" font-size="10.00">+ GameObject(Block.Lane lane, double y, double width, double length)</text>
<text text-anchor="start" x="38.81" y="-855.5" font-family="Helvetica,sans-Serif" font-size="10.00">+ GameObject(Block.Lane lane, double y, double cubeLength)</text>
<text text-anchor="start" x="38.81" y="-844.5" font-family="Helvetica,sans-Serif" font-size="10.00">+ GameObject(double x, double y, double cubeLength)</text>
<text text-anchor="start" x="38.81" y="-833.5" font-family="Helvetica,sans-Serif" font-size="10.00">+ double getWidth()</text>
<text text-anchor="start" x="38.81" y="-822.5" font-family="Helvetica,sans-Serif" font-size="10.00">+ double getLength()</text>
<text text-anchor="start" x="38.81" y="-811.5" font-family="Helvetica,sans-Serif" font-size="10.00">+ void setColor(Color color)</text>
<text text-anchor="start" x="38.81" y="-800.5" font-family="Helvetica,sans-Serif" font-size="10.00">+ void setLane(Block.Lane path)</text>
<text text-anchor="start" x="38.81" y="-789.5" font-family="Helvetica,sans-Serif" font-size="10.00">+ void setImage(Image image)</text>
<text text-anchor="start" x="38.81" y="-778.5" font-family="Helvetica,sans-Serif" font-size="10.00">+ Block.Lane getLane()</text>
<text text-anchor="start" x="38.81" y="-767.5" font-family="Helvetica,sans-Serif" font-size="10.00">+ Image getImage()</text>
<text text-anchor="start" x="38.81" y="-756.5" font-family="Helvetica,sans-Serif" font-size="10.00">+ void setX(double x)</text>
<text text-anchor="start" x="38.81" y="-745.5" font-family="Helvetica,sans-Serif" font-size="10.00">+ void setY(double y)</text>
<text text-anchor="start" x="38.81" y="-734.5" font-family="Helvetica,sans-Serif" font-size="10.00">+ double getY()</text>
<text text-anchor="start" x="38.81" y="-723.5" font-family="Helvetica,sans-Serif" font-size="10.00">+ double getX()</text>
<text text-anchor="start" x="38.81" y="-712.5" font-family="Helvetica,sans-Serif" font-size="10.00">+ void Draw()</text>
<text text-anchor="start" x="38.81" y="-701.5" font-family="Helvetica,sans-Serif" font-size="10.00">+ boolean interesects(double x, double y)</text>
<text text-anchor="start" x="38.81" y="-690.5" font-family="Helvetica,sans-Serif" font-size="10.00">+ boolean interesects(Block.Lane lane, double y)</text>
<text text-anchor="start" x="38.81" y="-679.5" font-family="Helvetica,sans-Serif" font-size="10.00">+ boolean touches(GameObject other)</text>
</a>
</g>
</g>
<!-- Node3&#45;&gt;Node2 -->
<g id="edge2" class="edge">
<title>Node3&#45;&gt;Node2</title>
<path fill="none" stroke="midnightblue" d="M229.75,-662.67C233.25,-649.45 236.65,-636.59 239.8,-624.67"/>
<polygon fill="none" stroke="midnightblue" points="226.36,-661.78 227.19,-672.35 233.13,-663.57 226.36,-661.78"/>
</g>
<!-- Node4 -->
<g id="node4" class="node">
<title>Node4</title>
<g id="a_node4"><a xlink:title=" ">
<polygon fill="white" stroke="black" points="15.81,-1052.5 15.81,-1109.5 54.81,-1109.5 54.81,-1052.5 15.81,-1052.5"/>
<text text-anchor="middle" x="35.31" y="-1097.5" font-family="Helvetica,sans-Serif" font-size="10.00">Color</text>
<polyline fill="none" stroke="black" points="15.81,-1090.5 54.81,-1090.5 "/>
<text text-anchor="middle" x="35.31" y="-1078.5" font-family="Helvetica,sans-Serif" font-size="10.00"> </text>
<polyline fill="none" stroke="black" points="15.81,-1071.5 54.81,-1071.5 "/>
<text text-anchor="middle" x="35.31" y="-1059.5" font-family="Helvetica,sans-Serif" font-size="10.00"> </text>
</a>
</g>
</g>
<!-- Node4&#45;&gt;Node1 -->
<g id="edge9" class="edge">
<title>Node4&#45;&gt;Node1</title>
<path fill="none" stroke="#404040" d="M28.52,-1052.26C8.12,-962 -43.95,-672 79.31,-490 136.63,-405.37 228.33,-333.36 299.74,-285.45"/>
<polygon fill="none" stroke="#404040" points="300.12,-285.2 302.91,-278.54 310.12,-278.56 307.33,-285.21 300.12,-285.2"/>
<text text-anchor="middle" x="43.31" y="-646" font-family="Helvetica,sans-Serif" font-size="10.00"> &#45;playerColor</text>
</g>
<!-- Node4&#45;&gt;Node3 -->
<g id="edge3" class="edge">
<title>Node4&#45;&gt;Node3</title>
<path fill="none" stroke="#404040" d="M51.5,-1052.4C63.43,-1032.06 80.72,-1002.6 99.03,-971.38"/>
<polygon fill="none" stroke="#404040" points="99.21,-971.08 98.79,-963.88 105.28,-960.73 105.69,-967.93 99.21,-971.08"/>
<text text-anchor="middle" x="108.81" y="-982" font-family="Helvetica,sans-Serif" font-size="10.00"> #color</text>
</g>
<!-- Node5 -->
<g id="node5" class="node">
<title>Node5</title>
<g id="a_node5"><a xlink:href="classeu_1_1anwar_1_1madrunner_1_1objects_1_1obstacles_1_1Block.html" target="_top" xlink:title=" ">
<polygon fill="white" stroke="black" points="166.31,-1008.5 166.31,-1153.5 420.31,-1153.5 420.31,-1008.5 166.31,-1008.5"/>
<text text-anchor="middle" x="293.31" y="-1141.5" font-family="Helvetica,sans-Serif" font-size="10.00">eu.anwar.madrunner.objects.obstacles.Block</text>
<polyline fill="none" stroke="black" points="166.31,-1134.5 420.31,-1134.5 "/>
<text text-anchor="start" x="174.31" y="-1122.5" font-family="Helvetica,sans-Serif" font-size="10.00">+ static final double speed</text>
<text text-anchor="start" x="174.31" y="-1111.5" font-family="Helvetica,sans-Serif" font-size="10.00">&#45; double currentY</text>
<polyline fill="none" stroke="black" points="166.31,-1104.5 420.31,-1104.5 "/>
<text text-anchor="start" x="174.31" y="-1092.5" font-family="Helvetica,sans-Serif" font-size="10.00">+ Block(ArrayList&lt; Obstacle &gt; left, ArrayList&lt; Obstacle</text>
<text text-anchor="start" x="174.31" y="-1081.5" font-family="Helvetica,sans-Serif" font-size="10.00"> &gt; center, ArrayList&lt; Obstacle &gt; right)</text>
<text text-anchor="start" x="174.31" y="-1070.5" font-family="Helvetica,sans-Serif" font-size="10.00">+ double getCurrentY()</text>
<text text-anchor="start" x="174.31" y="-1059.5" font-family="Helvetica,sans-Serif" font-size="10.00">+ ArrayList&lt; Obstacle &gt; getLane(Lane lane)</text>
<text text-anchor="start" x="174.31" y="-1048.5" font-family="Helvetica,sans-Serif" font-size="10.00">+ ArrayList&lt; Obstacle &gt; getLeftLane()</text>
<text text-anchor="start" x="174.31" y="-1037.5" font-family="Helvetica,sans-Serif" font-size="10.00">+ ArrayList&lt; Obstacle &gt; getCenterLane()</text>
<text text-anchor="start" x="174.31" y="-1026.5" font-family="Helvetica,sans-Serif" font-size="10.00">+ ArrayList&lt; Obstacle &gt; getRightLane()</text>
<text text-anchor="start" x="174.31" y="-1015.5" font-family="Helvetica,sans-Serif" font-size="10.00">+ void frameUpdate()</text>
</a>
</g>
</g>
<!-- Node5&#45;&gt;Node2 -->
<g id="edge8" class="edge">
<title>Node5&#45;&gt;Node2</title>
<path fill="none" stroke="#404040" d="M338.35,-1008.3C345.78,-993.2 352.34,-976.99 356.31,-961 387.27,-836.34 401.39,-792.27 356.31,-672 351.36,-658.8 344.11,-646.13 335.74,-634.35"/>
<polygon fill="none" stroke="#404040" points="335.68,-634.26 328.88,-631.87 328.47,-624.67 335.28,-627.06 335.68,-634.26"/>
<text text-anchor="middle" x="398.31" y="-814" font-family="Helvetica,sans-Serif" font-size="10.00"> #lane</text>
</g>
<!-- Node5&#45;&gt;Node3 -->
<g id="edge4" class="edge">
<title>Node5&#45;&gt;Node3</title>
<path fill="none" stroke="#404040" d="M264.89,-1008.27C260.31,-996.71 255.42,-984.36 250.41,-971.72"/>
<polygon fill="none" stroke="#404040" points="250.4,-971.7 244.48,-967.6 245.98,-960.55 251.91,-964.65 250.4,-971.7"/>
<text text-anchor="middle" x="270.31" y="-982" font-family="Helvetica,sans-Serif" font-size="10.00"> #lane</text>
</g>
<!-- Node6 -->
<g id="node6" class="node">
<title>Node6</title>
<g id="a_node6"><a xlink:title=" ">
<polygon fill="white" stroke="black" points="139.31,-1248.5 139.31,-1305.5 417.31,-1305.5 417.31,-1248.5 139.31,-1248.5"/>
<text text-anchor="middle" x="278.31" y="-1293.5" font-family="Helvetica,sans-Serif" font-size="10.00">ArrayList&lt; eu.anwar.madrunner.objects.obstacles.Obstacle &gt;</text>
<polyline fill="none" stroke="black" points="139.31,-1286.5 417.31,-1286.5 "/>
<text text-anchor="middle" x="278.31" y="-1274.5" font-family="Helvetica,sans-Serif" font-size="10.00"> </text>
<polyline fill="none" stroke="black" points="139.31,-1267.5 417.31,-1267.5 "/>
<text text-anchor="middle" x="278.31" y="-1255.5" font-family="Helvetica,sans-Serif" font-size="10.00"> </text>
</a>
</g>
</g>
<!-- Node6&#45;&gt;Node5 -->
<g id="edge5" class="edge">
<title>Node6&#45;&gt;Node5</title>
<path fill="none" stroke="#404040" d="M280.46,-1248.2C282.13,-1226.56 284.55,-1195.34 286.83,-1165.78"/>
<polygon fill="none" stroke="#404040" points="286.84,-1165.65 283.32,-1159.36 287.77,-1153.69 291.29,-1159.98 286.84,-1165.65"/>
<text text-anchor="middle" x="302.81" y="-1209.5" font-family="Helvetica,sans-Serif" font-size="10.00"> &#45;center</text>
<text text-anchor="middle" x="302.81" y="-1198.5" font-family="Helvetica,sans-Serif" font-size="10.00">&#45;left</text>
<text text-anchor="middle" x="302.81" y="-1187.5" font-family="Helvetica,sans-Serif" font-size="10.00">&#45;right</text>
</g>
<!-- Node7 -->
<g id="node7" class="node">
<title>Node7</title>
<g id="a_node7"><a xlink:title=" ">
<polygon fill="white" stroke="black" points="333.31,-1353.5 333.31,-1410.5 389.31,-1410.5 389.31,-1353.5 333.31,-1353.5"/>
<text text-anchor="middle" x="361.31" y="-1398.5" font-family="Helvetica,sans-Serif" font-size="10.00">ArrayList</text>
<polyline fill="none" stroke="black" points="333.31,-1391.5 389.31,-1391.5 "/>
<text text-anchor="middle" x="361.31" y="-1379.5" font-family="Helvetica,sans-Serif" font-size="10.00"> </text>
<polyline fill="none" stroke="black" points="333.31,-1372.5 389.31,-1372.5 "/>
<text text-anchor="middle" x="361.31" y="-1360.5" font-family="Helvetica,sans-Serif" font-size="10.00"> </text>
</a>
</g>
</g>
<!-- Node7&#45;&gt;Node6 -->
<g id="edge6" class="edge">
<title>Node7&#45;&gt;Node6</title>
<path fill="none" stroke="orange" d="M322.93,-1378.74C292.8,-1374.71 252.66,-1363.86 232.31,-1335 225.35,-1325.13 229.89,-1314.73 238.35,-1305.56"/>
<polygon fill="orange" stroke="orange" points="322.79,-1382.25 333.12,-1379.9 323.58,-1375.29 322.79,-1382.25"/>
<text text-anchor="middle" x="350.81" y="-1327" font-family="Helvetica,sans-Serif" font-size="10.00"> &lt; eu::anwar::madrunner::objects::obstacles::Obstacle &gt;</text>
</g>
<!-- Node10 -->
<g id="node10" class="node">
<title>Node10</title>
<g id="a_node10"><a xlink:title=" ">
<polygon fill="white" stroke="black" points="428.81,-1172.5 428.81,-1229.5 527.81,-1229.5 527.81,-1172.5 428.81,-1172.5"/>
<text text-anchor="middle" x="478.31" y="-1217.5" font-family="Helvetica,sans-Serif" font-size="10.00">ArrayList&lt; Image &gt;</text>
<polyline fill="none" stroke="black" points="428.81,-1210.5 527.81,-1210.5 "/>
<text text-anchor="middle" x="478.31" y="-1198.5" font-family="Helvetica,sans-Serif" font-size="10.00"> </text>
<polyline fill="none" stroke="black" points="428.81,-1191.5 527.81,-1191.5 "/>
<text text-anchor="middle" x="478.31" y="-1179.5" font-family="Helvetica,sans-Serif" font-size="10.00"> </text>
</a>
</g>
</g>
<!-- Node7&#45;&gt;Node10 -->
<g id="edge12" class="edge">
<title>Node7&#45;&gt;Node10</title>
<path fill="none" stroke="orange" d="M399.4,-1375.11C423.56,-1369.25 453.2,-1357.68 469.31,-1335 491.16,-1304.25 488.84,-1258.74 484.26,-1229.73"/>
<polygon fill="orange" stroke="orange" points="398.46,-1371.73 389.44,-1377.29 399.96,-1378.57 398.46,-1371.73"/>
<text text-anchor="middle" x="499.31" y="-1327" font-family="Helvetica,sans-Serif" font-size="10.00"> &lt; Image &gt;</text>
</g>
<!-- Node8 -->
<g id="node8" class="node">
<title>Node8</title>
<g id="a_node8"><a xlink:title=" ">
<polygon fill="white" stroke="black" points="104.31,-1052.5 104.31,-1109.5 148.31,-1109.5 148.31,-1052.5 104.31,-1052.5"/>
<text text-anchor="middle" x="126.31" y="-1097.5" font-family="Helvetica,sans-Serif" font-size="10.00">Image</text>
<polyline fill="none" stroke="black" points="104.31,-1090.5 148.31,-1090.5 "/>
<text text-anchor="middle" x="126.31" y="-1078.5" font-family="Helvetica,sans-Serif" font-size="10.00"> </text>
<polyline fill="none" stroke="black" points="104.31,-1071.5 148.31,-1071.5 "/>
<text text-anchor="middle" x="126.31" y="-1059.5" font-family="Helvetica,sans-Serif" font-size="10.00"> </text>
</a>
</g>
</g>
<!-- Node8&#45;&gt;Node3 -->
<g id="edge7" class="edge">
<title>Node8&#45;&gt;Node3</title>
<path fill="none" stroke="#404040" d="M132.93,-1052.4C137.75,-1032.33 144.7,-1003.37 152.09,-972.6"/>
<polygon fill="none" stroke="#404040" points="152.13,-972.4 149.64,-965.63 154.93,-960.73 157.42,-967.5 152.13,-972.4"/>
<text text-anchor="middle" x="167.31" y="-982" font-family="Helvetica,sans-Serif" font-size="10.00"> &#45;image</text>
</g>
<!-- Node9 -->
<g id="node9" class="node">
<title>Node9</title>
<g id="a_node9"><a xlink:href="enumeu_1_1anwar_1_1madrunner_1_1objects_1_1Player_1_1Level.html" target="_top" xlink:title=" ">
<polygon fill="white" stroke="black" points="482.81,-523.5 482.81,-591.5 675.81,-591.5 675.81,-523.5 482.81,-523.5"/>
<text text-anchor="middle" x="579.31" y="-579.5" font-family="Helvetica,sans-Serif" font-size="10.00">eu.anwar.madrunner.objects.Player.Level</text>
<polyline fill="none" stroke="black" points="482.81,-572.5 675.81,-572.5 "/>
<text text-anchor="start" x="490.81" y="-560.5" font-family="Helvetica,sans-Serif" font-size="10.00">+ LOW</text>
<text text-anchor="start" x="490.81" y="-549.5" font-family="Helvetica,sans-Serif" font-size="10.00">+ HIGH</text>
<polyline fill="none" stroke="black" points="482.81,-542.5 675.81,-542.5 "/>
<text text-anchor="middle" x="579.31" y="-530.5" font-family="Helvetica,sans-Serif" font-size="10.00"> </text>
</a>
</g>
</g>
<!-- Node9&#45;&gt;Node1 -->
<g id="edge10" class="edge">
<title>Node9&#45;&gt;Node1</title>
<path fill="none" stroke="#404040" d="M561.89,-523.25C547.7,-496.18 526.42,-455.56 504.06,-412.87"/>
<polygon fill="none" stroke="#404040" points="503.92,-412.61 497.59,-409.15 498.35,-401.98 504.68,-405.44 503.92,-412.61"/>
<text text-anchor="middle" x="545.31" y="-464" font-family="Helvetica,sans-Serif" font-size="10.00"> &#45;level</text>
</g>
<!-- Node10&#45;&gt;Node1 -->
<g id="edge11" class="edge">
<title>Node10&#45;&gt;Node1</title>
<path fill="none" stroke="#404040" d="M473.22,-1172.34C466.18,-1131.59 454.31,-1052.95 454.31,-985.5 454.31,-985.5 454.31,-985.5 454.31,-556.5 454.31,-523.46 451.89,-488.78 448.11,-454.78"/>
<polygon fill="none" stroke="#404040" points="448.1,-454.71 443.43,-449.21 446.72,-442.79 451.38,-448.29 448.1,-454.71"/>
<text text-anchor="middle" x="485.81" y="-819.5" font-family="Helvetica,sans-Serif" font-size="10.00"> &#45;deathFrames</text>
<text text-anchor="middle" x="485.81" y="-808.5" font-family="Helvetica,sans-Serif" font-size="10.00">&#45;runFrames</text>
</g>
</g>
</svg>
