<?xml version="1.0" encoding="UTF-8" standalone="no"?>
<!DOCTYPE svg PUBLIC "-//W3C//DTD SVG 1.1//EN"
 "http://www.w3.org/Graphics/SVG/1.1/DTD/svg11.dtd">
<!-- Generated by graphviz version 3.0.0 (20221109.1736)
 -->
<!-- Title: eu.anwar.madrunner.objects.menus.GameOver Pages: 1 -->
<svg width="430pt" height="956pt"
 viewBox="0.00 0.00 429.50 956.00" xmlns="http://www.w3.org/2000/svg" xmlns:xlink="http://www.w3.org/1999/xlink">
<g id="graph0" class="graph" transform="scale(1 1) rotate(0) translate(4 952)">
<title>eu.anwar.madrunner.objects.menus.GameOver</title>
<polygon fill="white" stroke="transparent" points="-4,4 -4,-952 425.5,-952 425.5,4 -4,4"/>
<!-- Node1 -->
<g id="node1" class="node">
<title>Node1</title>
<g id="a_node1"><a xlink:title=" ">
<polygon fill="#bfbfbf" stroke="black" points="75.5,-0.5 75.5,-112.5 293.5,-112.5 293.5,-0.5 75.5,-0.5"/>
<text text-anchor="middle" x="184.5" y="-100.5" font-family="Helvetica,sans-Serif" font-size="10.00">eu.anwar.madrunner.objects.menus.GameOver</text>
<polyline fill="none" stroke="black" points="75.5,-93.5 293.5,-93.5 "/>
<text text-anchor="start" x="83.5" y="-81.5" font-family="Helvetica,sans-Serif" font-size="10.00">+ static String gameOverText</text>
<text text-anchor="start" x="83.5" y="-70.5" font-family="Helvetica,sans-Serif" font-size="10.00">+ static String scoreTxt</text>
<text text-anchor="start" x="83.5" y="-59.5" font-family="Helvetica,sans-Serif" font-size="10.00">&#45; int maxScore</text>
<text text-anchor="start" x="83.5" y="-48.5" font-family="Helvetica,sans-Serif" font-size="10.00">&#45; int currentScore</text>
<polyline fill="none" stroke="black" points="75.5,-41.5 293.5,-41.5 "/>
<text text-anchor="start" x="83.5" y="-29.5" font-family="Helvetica,sans-Serif" font-size="10.00">+ GameOver()</text>
<text text-anchor="start" x="83.5" y="-18.5" font-family="Helvetica,sans-Serif" font-size="10.00">+ void setScore(int score)</text>
<text text-anchor="start" x="83.5" y="-7.5" font-family="Helvetica,sans-Serif" font-size="10.00">+ void Draw()</text>
</a>
</g>
</g>
<!-- Node2 -->
<g id="node2" class="node">
<title>Node2</title>
<g id="a_node2"><a xlink:href="classeu_1_1anwar_1_1madrunner_1_1objects_1_1menus_1_1GamePause.html" target="_top" xlink:title=" ">
<polygon fill="white" stroke="black" points="60.5,-150.5 60.5,-284.5 308.5,-284.5 308.5,-150.5 60.5,-150.5"/>
<text text-anchor="middle" x="184.5" y="-272.5" font-family="Helvetica,sans-Serif" font-size="10.00">eu.anwar.madrunner.objects.menus.GamePause</text>
<polyline fill="none" stroke="black" points="60.5,-265.5 308.5,-265.5 "/>
<text text-anchor="start" x="68.5" y="-253.5" font-family="Helvetica,sans-Serif" font-size="10.00"># String centerTxt</text>
<text text-anchor="start" x="68.5" y="-242.5" font-family="Helvetica,sans-Serif" font-size="10.00">&#45; Boolean enabled</text>
<polyline fill="none" stroke="black" points="60.5,-235.5 308.5,-235.5 "/>
<text text-anchor="start" x="68.5" y="-223.5" font-family="Helvetica,sans-Serif" font-size="10.00">+ GamePause()</text>
<text text-anchor="start" x="68.5" y="-212.5" font-family="Helvetica,sans-Serif" font-size="10.00">+ void enable()</text>
<text text-anchor="start" x="68.5" y="-201.5" font-family="Helvetica,sans-Serif" font-size="10.00">+ void disable()</text>
<text text-anchor="start" x="68.5" y="-190.5" font-family="Helvetica,sans-Serif" font-size="10.00">+ Boolean isEnabled()</text>
<text text-anchor="start" x="68.5" y="-179.5" font-family="Helvetica,sans-Serif" font-size="10.00">+ void toggle()</text>
<text text-anchor="start" x="68.5" y="-168.5" font-family="Helvetica,sans-Serif" font-size="10.00">+ void updateDeminsions(double width, double length)</text>
<text text-anchor="start" x="68.5" y="-157.5" font-family="Helvetica,sans-Serif" font-size="10.00">+ void Draw()</text>
</a>
</g>
</g>
<!-- Node2&#45;&gt;Node1 -->
<g id="edge1" class="edge">
<title>Node2&#45;&gt;Node1</title>
<path fill="none" stroke="midnightblue" d="M184.5,-140.16C184.5,-130.99 184.5,-121.78 184.5,-112.99"/>
<polygon fill="none" stroke="midnightblue" points="181,-140.45 184.5,-150.45 188,-140.45 181,-140.45"/>
</g>
<!-- Node3 -->
<g id="node3" class="node">
<title>Node3</title>
<g id="a_node3"><a xlink:href="classeu_1_1anwar_1_1madrunner_1_1objects_1_1GameObject.html" target="_top" xlink:title=" ">
<polygon fill="white" stroke="black" points="43,-322.5 43,-522.5 326,-522.5 326,-322.5 43,-322.5"/>
<text text-anchor="middle" x="184.5" y="-510.5" font-family="Helvetica,sans-Serif" font-size="10.00">eu.anwar.madrunner.objects.GameObject</text>
<polyline fill="none" stroke="black" points="43,-503.5 326,-503.5 "/>
<text text-anchor="start" x="51" y="-491.5" font-family="Helvetica,sans-Serif" font-size="10.00"># double x</text>
<text text-anchor="start" x="51" y="-480.5" font-family="Helvetica,sans-Serif" font-size="10.00"># double y</text>
<text text-anchor="start" x="51" y="-469.5" font-family="Helvetica,sans-Serif" font-size="10.00"># double width</text>
<text text-anchor="start" x="51" y="-458.5" font-family="Helvetica,sans-Serif" font-size="10.00"># double length</text>
<polyline fill="none" stroke="black" points="43,-451.5 326,-451.5 "/>
<text text-anchor="start" x="51" y="-439.5" font-family="Helvetica,sans-Serif" font-size="10.00">+ GameObject(double x, double y, double width, double length)</text>
<text text-anchor="start" x="51" y="-428.5" font-family="Helvetica,sans-Serif" font-size="10.00">+ double getWidth()</text>
<text text-anchor="start" x="51" y="-417.5" font-family="Helvetica,sans-Serif" font-size="10.00">+ double getLength()</text>
<text text-anchor="start" x="51" y="-406.5" font-family="Helvetica,sans-Serif" font-size="10.00">+ void setColor(Color color)</text>
<text text-anchor="start" x="51" y="-395.5" font-family="Helvetica,sans-Serif" font-size="10.00">+ void setLane(Block.Lane path)</text>
<text text-anchor="start" x="51" y="-384.5" font-family="Helvetica,sans-Serif" font-size="10.00">+ void setImage(Image image)</text>
<text text-anchor="start" x="51" y="-373.5" font-family="Helvetica,sans-Serif" font-size="10.00">+ Block.Lane getLane()</text>
<text text-anchor="start" x="51" y="-362.5" font-family="Helvetica,sans-Serif" font-size="10.00">+ Image getImage()</text>
<text text-anchor="start" x="51" y="-351.5" font-family="Helvetica,sans-Serif" font-size="10.00">+ void setY(double y)</text>
<text text-anchor="start" x="51" y="-340.5" font-family="Helvetica,sans-Serif" font-size="10.00">+ double getY()</text>
<text text-anchor="start" x="51" y="-329.5" font-family="Helvetica,sans-Serif" font-size="10.00">+ void Draw()</text>
</a>
</g>
</g>
<!-- Node3&#45;&gt;Node2 -->
<g id="edge2" class="edge">
<title>Node3&#45;&gt;Node2</title>
<path fill="none" stroke="midnightblue" d="M184.5,-312.2C184.5,-302.83 184.5,-293.56 184.5,-284.69"/>
<polygon fill="none" stroke="midnightblue" points="181,-312.38 184.5,-322.38 188,-312.38 181,-312.38"/>
</g>
<!-- Node4 -->
<g id="node4" class="node">
<title>Node4</title>
<g id="a_node4"><a xlink:title=" ">
<polygon fill="white" stroke="black" points="0,-614.5 0,-671.5 39,-671.5 39,-614.5 0,-614.5"/>
<text text-anchor="middle" x="19.5" y="-659.5" font-family="Helvetica,sans-Serif" font-size="10.00">Color</text>
<polyline fill="none" stroke="black" points="0,-652.5 39,-652.5 "/>
<text text-anchor="middle" x="19.5" y="-640.5" font-family="Helvetica,sans-Serif" font-size="10.00"> </text>
<polyline fill="none" stroke="black" points="0,-633.5 39,-633.5 "/>
<text text-anchor="middle" x="19.5" y="-621.5" font-family="Helvetica,sans-Serif" font-size="10.00"> </text>
</a>
</g>
</g>
<!-- Node4&#45;&gt;Node3 -->
<g id="edge3" class="edge">
<title>Node4&#45;&gt;Node3</title>
<path fill="none" stroke="#404040" d="M28.02,-614.19C32.92,-600.33 39.83,-583.65 48.5,-570 56.65,-557.16 66,-544.42 75.89,-532.13"/>
<polygon fill="none" stroke="#404040" points="75.93,-532.08 76.65,-524.91 83.55,-522.82 82.83,-529.99 75.93,-532.08"/>
<text text-anchor="middle" x="82" y="-544" font-family="Helvetica,sans-Serif" font-size="10.00"> #color</text>
</g>
<!-- Node5 -->
<g id="node5" class="node">
<title>Node5</title>
<g id="a_node5"><a xlink:href="classeu_1_1anwar_1_1madrunner_1_1objects_1_1obstacles_1_1Block.html" target="_top" xlink:title=" ">
<polygon fill="white" stroke="black" points="57.5,-570.5 57.5,-715.5 311.5,-715.5 311.5,-570.5 57.5,-570.5"/>
<text text-anchor="middle" x="184.5" y="-703.5" font-family="Helvetica,sans-Serif" font-size="10.00">eu.anwar.madrunner.objects.obstacles.Block</text>
<polyline fill="none" stroke="black" points="57.5,-696.5 311.5,-696.5 "/>
<text text-anchor="start" x="65.5" y="-684.5" font-family="Helvetica,sans-Serif" font-size="10.00">+ static final double speed</text>
<text text-anchor="start" x="65.5" y="-673.5" font-family="Helvetica,sans-Serif" font-size="10.00">&#45; double currentY</text>
<polyline fill="none" stroke="black" points="57.5,-666.5 311.5,-666.5 "/>
<text text-anchor="start" x="65.5" y="-654.5" font-family="Helvetica,sans-Serif" font-size="10.00">+ Block(ArrayList&lt; Obstacle &gt; left, ArrayList&lt; Obstacle</text>
<text text-anchor="start" x="65.5" y="-643.5" font-family="Helvetica,sans-Serif" font-size="10.00"> &gt; center, ArrayList&lt; Obstacle &gt; right)</text>
<text text-anchor="start" x="65.5" y="-632.5" font-family="Helvetica,sans-Serif" font-size="10.00">+ double getCurrentY()</text>
<text text-anchor="start" x="65.5" y="-621.5" font-family="Helvetica,sans-Serif" font-size="10.00">+ ArrayList&lt; Obstacle &gt; getLane(Lane lane)</text>
<text text-anchor="start" x="65.5" y="-610.5" font-family="Helvetica,sans-Serif" font-size="10.00">+ ArrayList&lt; Obstacle &gt; getLeftLane()</text>
<text text-anchor="start" x="65.5" y="-599.5" font-family="Helvetica,sans-Serif" font-size="10.00">+ ArrayList&lt; Obstacle &gt; getCenterLane()</text>
<text text-anchor="start" x="65.5" y="-588.5" font-family="Helvetica,sans-Serif" font-size="10.00">+ ArrayList&lt; Obstacle &gt; getRightLane()</text>
<text text-anchor="start" x="65.5" y="-577.5" font-family="Helvetica,sans-Serif" font-size="10.00">+ void frameUpdate()</text>
</a>
</g>
</g>
<!-- Node5&#45;&gt;Node3 -->
<g id="edge4" class="edge">
<title>Node5&#45;&gt;Node3</title>
<path fill="none" stroke="#404040" d="M184.5,-570.45C184.5,-558.97 184.5,-546.86 184.5,-534.71"/>
<polygon fill="none" stroke="#404040" points="184.5,-534.58 180.5,-528.58 184.5,-522.58 188.5,-528.58 184.5,-534.58"/>
<text text-anchor="middle" x="197.5" y="-544" font-family="Helvetica,sans-Serif" font-size="10.00"> #lane</text>
</g>
<!-- Node6 -->
<g id="node6" class="node">
<title>Node6</title>
<g id="a_node6"><a xlink:title=" ">
<polygon fill="white" stroke="black" points="45.5,-785.5 45.5,-842.5 323.5,-842.5 323.5,-785.5 45.5,-785.5"/>
<text text-anchor="middle" x="184.5" y="-830.5" font-family="Helvetica,sans-Serif" font-size="10.00">ArrayList&lt; eu.anwar.madrunner.objects.obstacles.Obstacle &gt;</text>
<polyline fill="none" stroke="black" points="45.5,-823.5 323.5,-823.5 "/>
<text text-anchor="middle" x="184.5" y="-811.5" font-family="Helvetica,sans-Serif" font-size="10.00"> </text>
<polyline fill="none" stroke="black" points="45.5,-804.5 323.5,-804.5 "/>
<text text-anchor="middle" x="184.5" y="-792.5" font-family="Helvetica,sans-Serif" font-size="10.00"> </text>
</a>
</g>
</g>
<!-- Node6&#45;&gt;Node5 -->
<g id="edge5" class="edge">
<title>Node6&#45;&gt;Node5</title>
<path fill="none" stroke="#404040" d="M184.5,-785.47C184.5,-769.6 184.5,-748.71 184.5,-727.87"/>
<polygon fill="none" stroke="#404040" points="184.5,-727.64 180.5,-721.64 184.5,-715.64 188.5,-721.64 184.5,-727.64"/>
<text text-anchor="middle" x="201" y="-759" font-family="Helvetica,sans-Serif" font-size="10.00"> &#45;center</text>
<text text-anchor="middle" x="201" y="-748" font-family="Helvetica,sans-Serif" font-size="10.00">&#45;left</text>
<text text-anchor="middle" x="201" y="-737" font-family="Helvetica,sans-Serif" font-size="10.00">&#45;right</text>
</g>
<!-- Node7 -->
<g id="node7" class="node">
<title>Node7</title>
<g id="a_node7"><a xlink:title=" ">
<polygon fill="white" stroke="black" points="156.5,-890.5 156.5,-947.5 212.5,-947.5 212.5,-890.5 156.5,-890.5"/>
<text text-anchor="middle" x="184.5" y="-935.5" font-family="Helvetica,sans-Serif" font-size="10.00">ArrayList</text>
<polyline fill="none" stroke="black" points="156.5,-928.5 212.5,-928.5 "/>
<text text-anchor="middle" x="184.5" y="-916.5" font-family="Helvetica,sans-Serif" font-size="10.00"> </text>
<polyline fill="none" stroke="black" points="156.5,-909.5 212.5,-909.5 "/>
<text text-anchor="middle" x="184.5" y="-897.5" font-family="Helvetica,sans-Serif" font-size="10.00"> </text>
</a>
</g>
</g>
<!-- Node7&#45;&gt;Node6 -->
<g id="edge6" class="edge">
<title>Node7&#45;&gt;Node6</title>
<path fill="none" stroke="orange" d="M184.5,-880.29C184.5,-867.84 184.5,-854.23 184.5,-842.68"/>
<polygon fill="orange" stroke="orange" points="181,-880.4 184.5,-890.4 188,-880.4 181,-880.4"/>
<text text-anchor="middle" x="303" y="-864" font-family="Helvetica,sans-Serif" font-size="10.00"> &lt; eu::anwar::madrunner::objects::obstacles::Obstacle &gt;</text>
</g>
<!-- Node8 -->
<g id="node8" class="node">
<title>Node8</title>
<g id="a_node8"><a xlink:title=" ">
<polygon fill="white" stroke="black" points="329.5,-614.5 329.5,-671.5 373.5,-671.5 373.5,-614.5 329.5,-614.5"/>
<text text-anchor="middle" x="351.5" y="-659.5" font-family="Helvetica,sans-Serif" font-size="10.00">Image</text>
<polyline fill="none" stroke="black" points="329.5,-652.5 373.5,-652.5 "/>
<text text-anchor="middle" x="351.5" y="-640.5" font-family="Helvetica,sans-Serif" font-size="10.00"> </text>
<polyline fill="none" stroke="black" points="329.5,-633.5 373.5,-633.5 "/>
<text text-anchor="middle" x="351.5" y="-621.5" font-family="Helvetica,sans-Serif" font-size="10.00"> </text>
</a>
</g>
</g>
<!-- Node8&#45;&gt;Node3 -->
<g id="edge7" class="edge">
<title>Node8&#45;&gt;Node3</title>
<path fill="none" stroke="#404040" d="M342.1,-614.22C336.78,-600.36 329.41,-583.68 320.5,-570 312.12,-557.14 302.58,-544.35 292.53,-531.99"/>
<polygon fill="none" stroke="#404040" points="292.42,-531.86 285.51,-529.8 284.75,-522.63 291.66,-524.69 292.42,-531.86"/>
<text text-anchor="middle" x="320.5" y="-544" font-family="Helvetica,sans-Serif" font-size="10.00"> &#45;image</text>
</g>
</g>
</svg>
