<?xml version="1.0" encoding="UTF-8" standalone="no"?>
<!DOCTYPE svg PUBLIC "-//W3C//DTD SVG 1.1//EN"
 "http://www.w3.org/Graphics/SVG/1.1/DTD/svg11.dtd">
<!-- Generated by graphviz version 3.0.0 (20221109.1736)
 -->
<!-- Title: eu.anwar.madrunner.objects.obstacles.RoadBlock Pages: 1 -->
<svg width="346pt" height="634pt"
 viewBox="0.00 0.00 346.00 634.00" xmlns="http://www.w3.org/2000/svg" xmlns:xlink="http://www.w3.org/1999/xlink">
<g id="graph0" class="graph" transform="scale(1 1) rotate(0) translate(4 630)">
<title>eu.anwar.madrunner.objects.obstacles.RoadBlock</title>
<polygon fill="white" stroke="transparent" points="-4,4 -4,-630 342,-630 342,4 -4,4"/>
<!-- Node1 -->
<g id="node1" class="node">
<title>Node1</title>
<g id="a_node1"><a xlink:title=" ">
<polygon fill="#bfbfbf" stroke="black" points="53.5,-0.5 53.5,-57.5 284.5,-57.5 284.5,-0.5 53.5,-0.5"/>
<text text-anchor="middle" x="169" y="-45.5" font-family="Helvetica,sans-Serif" font-size="10.00">eu.anwar.madrunner.objects.obstacles.RoadBlock</text>
<polyline fill="none" stroke="black" points="53.5,-38.5 284.5,-38.5 "/>
<text text-anchor="start" x="61.5" y="-26.5" font-family="Helvetica,sans-Serif" font-size="10.00">+ static final double RoadBlockLength</text>
<polyline fill="none" stroke="black" points="53.5,-19.5 284.5,-19.5 "/>
<text text-anchor="start" x="61.5" y="-7.5" font-family="Helvetica,sans-Serif" font-size="10.00">+ RoadBlock(Block.Lane lane)</text>
</a>
</g>
</g>
<!-- Node2 -->
<g id="node2" class="node">
<title>Node2</title>
<g id="a_node2"><a xlink:href="classeu_1_1anwar_1_1madrunner_1_1objects_1_1obstacles_1_1Obstacle.html" target="_top" xlink:title=" ">
<polygon fill="white" stroke="black" points="48,-94.5 48,-184.5 290,-184.5 290,-94.5 48,-94.5"/>
<text text-anchor="middle" x="169" y="-172.5" font-family="Helvetica,sans-Serif" font-size="10.00">eu.anwar.madrunner.objects.obstacles.Obstacle</text>
<polyline fill="none" stroke="black" points="48,-165.5 290,-165.5 "/>
<text text-anchor="start" x="56" y="-153.5" font-family="Helvetica,sans-Serif" font-size="10.00">+ static final double obestacleWidth</text>
<polyline fill="none" stroke="black" points="48,-146.5 290,-146.5 "/>
<text text-anchor="start" x="56" y="-134.5" font-family="Helvetica,sans-Serif" font-size="10.00">+ Obstacle(Block.Lane lane, double y, double length)</text>
<text text-anchor="start" x="56" y="-123.5" font-family="Helvetica,sans-Serif" font-size="10.00">+ void addY(double diff)</text>
<text text-anchor="start" x="56" y="-112.5" font-family="Helvetica,sans-Serif" font-size="10.00">+ boolean isOffTheScreen()</text>
<text text-anchor="start" x="56" y="-101.5" font-family="Helvetica,sans-Serif" font-size="10.00">+ void Draw()</text>
</a>
</g>
</g>
<!-- Node2&#45;&gt;Node1 -->
<g id="edge1" class="edge">
<title>Node2&#45;&gt;Node1</title>
<path fill="none" stroke="midnightblue" d="M169,-84.35C169,-75.07 169,-65.79 169,-57.59"/>
<polygon fill="none" stroke="midnightblue" points="165.5,-84.37 169,-94.37 172.5,-84.37 165.5,-84.37"/>
</g>
<!-- Node3 -->
<g id="node3" class="node">
<title>Node3</title>
<g id="a_node3"><a xlink:href="classeu_1_1anwar_1_1madrunner_1_1objects_1_1GameLaneObject.html" target="_top" xlink:title=" ">
<polygon fill="white" stroke="black" points="0,-221.5 0,-355.5 338,-355.5 338,-221.5 0,-221.5"/>
<text text-anchor="middle" x="169" y="-343.5" font-family="Helvetica,sans-Serif" font-size="10.00">eu.anwar.madrunner.objects.GameLaneObject</text>
<polyline fill="none" stroke="black" points="0,-336.5 338,-336.5 "/>
<text text-anchor="start" x="8" y="-324.5" font-family="Helvetica,sans-Serif" font-size="10.00"># Block.Lane lane</text>
<polyline fill="none" stroke="black" points="0,-317.5 338,-317.5 "/>
<text text-anchor="start" x="8" y="-305.5" font-family="Helvetica,sans-Serif" font-size="10.00">+ GameLaneObject(Block.Lane lane, double y, double width, double length)</text>
<text text-anchor="start" x="8" y="-294.5" font-family="Helvetica,sans-Serif" font-size="10.00">+ GameLaneObject(Block.Lane lane, double y, double cubeLength)</text>
<text text-anchor="start" x="8" y="-283.5" font-family="Helvetica,sans-Serif" font-size="10.00">+ void setLane(Block.Lane path)</text>
<text text-anchor="start" x="8" y="-272.5" font-family="Helvetica,sans-Serif" font-size="10.00">+ Block.Lane getLane()</text>
<text text-anchor="start" x="8" y="-261.5" font-family="Helvetica,sans-Serif" font-size="10.00">+ void Draw()</text>
<text text-anchor="start" x="8" y="-250.5" font-family="Helvetica,sans-Serif" font-size="10.00">+ boolean contains(Block.Lane lane, double y)</text>
<text text-anchor="start" x="8" y="-239.5" font-family="Helvetica,sans-Serif" font-size="10.00">+ boolean touches(GameLaneObject other)</text>
<text text-anchor="start" x="8" y="-228.5" font-family="Helvetica,sans-Serif" font-size="10.00">+ double distance(GameLaneObject other)</text>
</a>
</g>
</g>
<!-- Node3&#45;&gt;Node2 -->
<g id="edge2" class="edge">
<title>Node3&#45;&gt;Node2</title>
<path fill="none" stroke="midnightblue" d="M169,-211.15C169,-202.15 169,-193.2 169,-184.85"/>
<polygon fill="none" stroke="midnightblue" points="165.5,-211.31 169,-221.31 172.5,-211.31 165.5,-211.31"/>
</g>
<!-- Node4 -->
<g id="node4" class="node">
<title>Node4</title>
<g id="a_node4"><a xlink:href="classeu_1_1anwar_1_1madrunner_1_1objects_1_1GameObject.html" target="_top" xlink:title=" ">
<polygon fill="white" stroke="black" points="27.5,-392.5 27.5,-625.5 310.5,-625.5 310.5,-392.5 27.5,-392.5"/>
<text text-anchor="middle" x="169" y="-613.5" font-family="Helvetica,sans-Serif" font-size="10.00">eu.anwar.madrunner.objects.GameObject</text>
<polyline fill="none" stroke="black" points="27.5,-606.5 310.5,-606.5 "/>
<text text-anchor="start" x="35.5" y="-594.5" font-family="Helvetica,sans-Serif" font-size="10.00"># Color color</text>
<text text-anchor="start" x="35.5" y="-583.5" font-family="Helvetica,sans-Serif" font-size="10.00"># Block.Lane lane</text>
<text text-anchor="start" x="35.5" y="-572.5" font-family="Helvetica,sans-Serif" font-size="10.00"># double x</text>
<text text-anchor="start" x="35.5" y="-561.5" font-family="Helvetica,sans-Serif" font-size="10.00"># double y</text>
<text text-anchor="start" x="35.5" y="-550.5" font-family="Helvetica,sans-Serif" font-size="10.00"># double width</text>
<text text-anchor="start" x="35.5" y="-539.5" font-family="Helvetica,sans-Serif" font-size="10.00"># double length</text>
<text text-anchor="start" x="35.5" y="-528.5" font-family="Helvetica,sans-Serif" font-size="10.00">&#45; Image image</text>
<polyline fill="none" stroke="black" points="27.5,-521.5 310.5,-521.5 "/>
<text text-anchor="start" x="35.5" y="-509.5" font-family="Helvetica,sans-Serif" font-size="10.00">+ GameObject(double x, double y, double width, double length)</text>
<text text-anchor="start" x="35.5" y="-498.5" font-family="Helvetica,sans-Serif" font-size="10.00">+ double getWidth()</text>
<text text-anchor="start" x="35.5" y="-487.5" font-family="Helvetica,sans-Serif" font-size="10.00">+ double getLength()</text>
<text text-anchor="start" x="35.5" y="-476.5" font-family="Helvetica,sans-Serif" font-size="10.00">+ void setColor(Color color)</text>
<text text-anchor="start" x="35.5" y="-465.5" font-family="Helvetica,sans-Serif" font-size="10.00">+ void setLane(Block.Lane path)</text>
<text text-anchor="start" x="35.5" y="-454.5" font-family="Helvetica,sans-Serif" font-size="10.00">+ void setImage(Image image)</text>
<text text-anchor="start" x="35.5" y="-443.5" font-family="Helvetica,sans-Serif" font-size="10.00">+ Block.Lane getLane()</text>
<text text-anchor="start" x="35.5" y="-432.5" font-family="Helvetica,sans-Serif" font-size="10.00">+ Image getImage()</text>
<text text-anchor="start" x="35.5" y="-421.5" font-family="Helvetica,sans-Serif" font-size="10.00">+ void setY(double y)</text>
<text text-anchor="start" x="35.5" y="-410.5" font-family="Helvetica,sans-Serif" font-size="10.00">+ double getY()</text>
<text text-anchor="start" x="35.5" y="-399.5" font-family="Helvetica,sans-Serif" font-size="10.00">+ void Draw()</text>
</a>
</g>
</g>
<!-- Node4&#45;&gt;Node3 -->
<g id="edge3" class="edge">
<title>Node4&#45;&gt;Node3</title>
<path fill="none" stroke="midnightblue" d="M169,-382.06C169,-373 169,-364.09 169,-355.59"/>
<polygon fill="none" stroke="midnightblue" points="165.5,-382.35 169,-392.35 172.5,-382.35 165.5,-382.35"/>
</g>
</g>
</svg>
