<?xml version="1.0" encoding="UTF-8" standalone="no"?>
<!DOCTYPE svg PUBLIC "-//W3C//DTD SVG 1.1//EN"
 "http://www.w3.org/Graphics/SVG/1.1/DTD/svg11.dtd">
<!-- Generated by graphviz version 8.0.3 (0)
 -->
<!-- Title: game.GameLoop Pages: 1 -->
<svg width="1472pt" height="1852pt"
 viewBox="0.00 0.00 1472.00 1852.00" xmlns="http://www.w3.org/2000/svg" xmlns:xlink="http://www.w3.org/1999/xlink">
<g id="graph0" class="graph" transform="scale(1 1) rotate(0) translate(4 1848)">
<title>game.GameLoop</title>
<!-- Node1 -->
<g id="node1" class="node">
<title>Node1</title>
<g id="a_node1"><a xlink:title=" ">
<polygon fill="#999999" stroke="#666666" points="206.5,-0.5 206.5,-90.5 353.5,-90.5 353.5,-0.5 206.5,-0.5"/>
<text text-anchor="middle" x="280" y="-78.5" font-family="Helvetica,sans-Serif" font-size="10.00">game.GameLoop</text>
<polyline fill="none" stroke="#666666" points="206.5,-71.5 353.5,-71.5"/>
<text text-anchor="start" x="214.5" y="-59.5" font-family="Helvetica,sans-Serif" font-size="10.00">+ static double fontSize</text>
<text text-anchor="start" x="214.5" y="-48.5" font-family="Helvetica,sans-Serif" font-size="10.00">+ static final long FPS</text>
<text text-anchor="start" x="214.5" y="-37.5" font-family="Helvetica,sans-Serif" font-size="10.00">&#45; long last</text>
<polyline fill="none" stroke="#666666" points="206.5,-30.5 353.5,-30.5"/>
<text text-anchor="start" x="214.5" y="-18.5" font-family="Helvetica,sans-Serif" font-size="10.00">+ GameLoop(Canvas canvas)</text>
<text text-anchor="start" x="214.5" y="-7.5" font-family="Helvetica,sans-Serif" font-size="10.00">+ void handle(long now)</text>
</a>
</g>
</g>
<!-- Node2 -->
<g id="node2" class="node">
<title>Node2</title>
<g id="a_node2"><a xlink:title=" ">
<polygon fill="white" stroke="#666666" points="108.5,-193.5 108.5,-250.5 193.5,-250.5 193.5,-193.5 108.5,-193.5"/>
<text text-anchor="middle" x="151" y="-238.5" font-family="Helvetica,sans-Serif" font-size="10.00">AnimationTimer</text>
<polyline fill="none" stroke="#666666" points="108.5,-231.5 193.5,-231.5"/>
<text text-anchor="middle" x="151" y="-219.5" font-family="Helvetica,sans-Serif" font-size="10.00"> </text>
<polyline fill="none" stroke="#666666" points="108.5,-212.5 193.5,-212.5"/>
<text text-anchor="middle" x="151" y="-200.5" font-family="Helvetica,sans-Serif" font-size="10.00"> </text>
</a>
</g>
</g>
<!-- Node2&#45;&gt;Node1 -->
<g id="edge1" class="edge">
<title>Node2&#45;&gt;Node1</title>
<path fill="none" stroke="#63b8ff" d="M169.04,-184.31C180.95,-161.64 197.71,-132.49 216,-109 220.96,-102.63 226.55,-96.27 232.3,-90.17"/>
<polygon fill="none" stroke="#63b8ff" points="165.55,-182.42 164.07,-192.92 171.77,-185.64 165.55,-182.42"/>
</g>
<!-- Node3 -->
<g id="node3" class="node">
<title>Node3</title>
<g id="a_node3"><a xlink:title=" ">
<polygon fill="white" stroke="#666666" points="0,-551.5 0,-608.5 90,-608.5 90,-551.5 0,-551.5"/>
<text text-anchor="middle" x="45" y="-596.5" font-family="Helvetica,sans-Serif" font-size="10.00">GraphicsContext</text>
<polyline fill="none" stroke="#666666" points="0,-589.5 90,-589.5"/>
<text text-anchor="middle" x="45" y="-577.5" font-family="Helvetica,sans-Serif" font-size="10.00"> </text>
<polyline fill="none" stroke="#666666" points="0,-570.5 90,-570.5"/>
<text text-anchor="middle" x="45" y="-558.5" font-family="Helvetica,sans-Serif" font-size="10.00"> </text>
</a>
</g>
</g>
<!-- Node3&#45;&gt;Node1 -->
<g id="edge2" class="edge">
<title>Node3&#45;&gt;Node1</title>
<path fill="none" stroke="#404040" d="M44.21,-551.66C44.31,-505.49 50.93,-411.4 99,-353 130.98,-314.15 168.92,-343.92 202,-306 251.92,-248.78 269.9,-160.54 276.37,-103.15"/>
<polygon fill="none" stroke="#404040" points="276.37,-103.17 273,-96.79 277.59,-91.23 280.96,-97.6 276.37,-103.17"/>
<text text-anchor="middle" x="280.5" y="-219.5" font-family="Helvetica,sans-Serif" font-size="10.00"> &#45;gc</text>
</g>
<!-- Node4 -->
<g id="node4" class="node">
<title>Node4</title>
<g id="a_node4"><a xlink:href="classlogic_1_1Logic.html" target="_top" xlink:title=" ">
<polygon fill="white" stroke="#666666" points="380.5,-138.5 380.5,-305.5 573.5,-305.5 573.5,-138.5 380.5,-138.5"/>
<text text-anchor="middle" x="477" y="-293.5" font-family="Helvetica,sans-Serif" font-size="10.00">logic.Logic</text>
<polyline fill="none" stroke="#666666" points="380.5,-286.5 573.5,-286.5"/>
<text text-anchor="start" x="388.5" y="-274.5" font-family="Helvetica,sans-Serif" font-size="10.00">&#45; final double canvasWidth</text>
<text text-anchor="start" x="388.5" y="-263.5" font-family="Helvetica,sans-Serif" font-size="10.00">&#45; final double canvasHeight</text>
<text text-anchor="start" x="388.5" y="-252.5" font-family="Helvetica,sans-Serif" font-size="10.00">&#45; boolean playerDied</text>
<text text-anchor="start" x="388.5" y="-241.5" font-family="Helvetica,sans-Serif" font-size="10.00">&#45; long last1000Millisecond</text>
<polyline fill="none" stroke="#666666" points="380.5,-234.5 573.5,-234.5"/>
<text text-anchor="start" x="388.5" y="-222.5" font-family="Helvetica,sans-Serif" font-size="10.00">+ Logic(GraphicsContext gc)</text>
<text text-anchor="start" x="388.5" y="-211.5" font-family="Helvetica,sans-Serif" font-size="10.00">+ void tick(Long now)</text>
<text text-anchor="start" x="388.5" y="-200.5" font-family="Helvetica,sans-Serif" font-size="10.00">+ boolean playerCollision()</text>
<text text-anchor="start" x="388.5" y="-189.5" font-family="Helvetica,sans-Serif" font-size="10.00">+ Obstacle getPlayerTouchingObstacle()</text>
<text text-anchor="start" x="388.5" y="-178.5" font-family="Helvetica,sans-Serif" font-size="10.00">+ Player.Level getPlayerLevel()</text>
<text text-anchor="start" x="388.5" y="-167.5" font-family="Helvetica,sans-Serif" font-size="10.00">+ static Bounderies getBounderies()</text>
<text text-anchor="start" x="388.5" y="-156.5" font-family="Helvetica,sans-Serif" font-size="10.00">&#45; void playerDied()</text>
<text text-anchor="start" x="388.5" y="-145.5" font-family="Helvetica,sans-Serif" font-size="10.00">&#45; void startPlayer()</text>
</a>
</g>
</g>
<!-- Node3&#45;&gt;Node4 -->
<g id="edge4" class="edge">
<title>Node3&#45;&gt;Node4</title>
<path fill="none" stroke="#404040" d="M42.52,-551.51C39.85,-503.36 42.09,-404.05 99,-353 122.68,-331.76 210.47,-343.93 241,-335 284.48,-322.28 329.96,-302.44 369.26,-282.96"/>
<polygon fill="none" stroke="#404040" points="369.18,-283 372.75,-276.73 379.9,-277.62 376.34,-283.88 369.18,-283"/>
<text text-anchor="middle" x="278" y="-327" font-family="Helvetica,sans-Serif" font-size="10.00"> +gc</text>
</g>
<!-- Node4&#45;&gt;Node1 -->
<g id="edge3" class="edge">
<title>Node4&#45;&gt;Node1</title>
<path fill="none" stroke="#404040" d="M383.98,-138.6C368.68,-125.05 353.21,-111.35 339.04,-98.79"/>
<polygon fill="none" stroke="#404040" points="339.11,-98.86 331.97,-97.88 330.13,-90.9 337.27,-91.89 339.11,-98.86"/>
<text text-anchor="middle" x="388" y="-112" font-family="Helvetica,sans-Serif" font-size="10.00"> &#45;gameLogic</text>
</g>
<!-- Node5 -->
<g id="node5" class="node">
<title>Node5</title>
<g id="a_node5"><a xlink:href="classobjects_1_1Ground.html" target="_top" xlink:title=" ">
<polygon fill="white" stroke="#666666" points="311,-995 311,-1085 535,-1085 535,-995 311,-995"/>
<text text-anchor="middle" x="423" y="-1073" font-family="Helvetica,sans-Serif" font-size="10.00">objects.Ground</text>
<polyline fill="none" stroke="#666666" points="311,-1066 535,-1066"/>
<text text-anchor="start" x="319" y="-1054" font-family="Helvetica,sans-Serif" font-size="10.00">+ static final double laneImageWidth</text>
<text text-anchor="start" x="319" y="-1043" font-family="Helvetica,sans-Serif" font-size="10.00">&#45; double yDisplacement</text>
<polyline fill="none" stroke="#666666" points="311,-1036 535,-1036"/>
<text text-anchor="start" x="319" y="-1024" font-family="Helvetica,sans-Serif" font-size="10.00">+ Ground(double x, double width, double length)</text>
<text text-anchor="start" x="319" y="-1013" font-family="Helvetica,sans-Serif" font-size="10.00">+ void frameUpdate()</text>
<text text-anchor="start" x="319" y="-1002" font-family="Helvetica,sans-Serif" font-size="10.00">+ void Draw()</text>
</a>
</g>
</g>
<!-- Node5&#45;&gt;Node4 -->
<g id="edge5" class="edge">
<title>Node5&#45;&gt;Node4</title>
<path fill="none" stroke="#404040" d="M439.37,-995.31C455.69,-949.25 479.63,-874.19 489,-807 512.87,-635.89 499.65,-433.89 488.14,-317.89"/>
<polygon fill="none" stroke="#404040" points="488.16,-318.05 483.57,-312.48 486.95,-306.11 491.53,-311.67 488.16,-318.05"/>
<text text-anchor="middle" x="520" y="-577.5" font-family="Helvetica,sans-Serif" font-size="10.00"> &#45;ground</text>
</g>
<!-- Node6 -->
<g id="node6" class="node">
<title>Node6</title>
<g id="a_node6"><a xlink:href="classobjects_1_1GameObject.html" target="_top" xlink:title=" ">
<polygon fill="white" stroke="#666666" points="335.5,-1149.5 335.5,-1426.5 658.5,-1426.5 658.5,-1149.5 335.5,-1149.5"/>
<text text-anchor="middle" x="497" y="-1414.5" font-family="Helvetica,sans-Serif" font-size="10.00">objects.GameObject</text>
<polyline fill="none" stroke="#666666" points="335.5,-1407.5 658.5,-1407.5"/>
<text text-anchor="start" x="343.5" y="-1395.5" font-family="Helvetica,sans-Serif" font-size="10.00"># double x</text>
<text text-anchor="start" x="343.5" y="-1384.5" font-family="Helvetica,sans-Serif" font-size="10.00"># double y</text>
<text text-anchor="start" x="343.5" y="-1373.5" font-family="Helvetica,sans-Serif" font-size="10.00"># double width</text>
<text text-anchor="start" x="343.5" y="-1362.5" font-family="Helvetica,sans-Serif" font-size="10.00"># double length</text>
<polyline fill="none" stroke="#666666" points="335.5,-1355.5 658.5,-1355.5"/>
<text text-anchor="start" x="343.5" y="-1343.5" font-family="Helvetica,sans-Serif" font-size="10.00">+ GameObject(double x, double y, double width, double length)</text>
<text text-anchor="start" x="343.5" y="-1332.5" font-family="Helvetica,sans-Serif" font-size="10.00">+ GameObject(Block.Lane lane, double y, double width, double length)</text>
<text text-anchor="start" x="343.5" y="-1321.5" font-family="Helvetica,sans-Serif" font-size="10.00">+ GameObject(Block.Lane lane, double y, double cubeLength)</text>
<text text-anchor="start" x="343.5" y="-1310.5" font-family="Helvetica,sans-Serif" font-size="10.00">+ GameObject(double x, double y, double cubeLength)</text>
<text text-anchor="start" x="343.5" y="-1299.5" font-family="Helvetica,sans-Serif" font-size="10.00">+ double getWidth()</text>
<text text-anchor="start" x="343.5" y="-1288.5" font-family="Helvetica,sans-Serif" font-size="10.00">+ double getLength()</text>
<text text-anchor="start" x="343.5" y="-1277.5" font-family="Helvetica,sans-Serif" font-size="10.00">+ void setColor(Color color)</text>
<text text-anchor="start" x="343.5" y="-1266.5" font-family="Helvetica,sans-Serif" font-size="10.00">+ void setLanePath(Block.Lane path)</text>
<text text-anchor="start" x="343.5" y="-1255.5" font-family="Helvetica,sans-Serif" font-size="10.00">+ Block.Lane getLane()</text>
<text text-anchor="start" x="343.5" y="-1244.5" font-family="Helvetica,sans-Serif" font-size="10.00">+ void setX(double x)</text>
<text text-anchor="start" x="343.5" y="-1233.5" font-family="Helvetica,sans-Serif" font-size="10.00">+ void setY(double y)</text>
<text text-anchor="start" x="343.5" y="-1222.5" font-family="Helvetica,sans-Serif" font-size="10.00">+ double getY()</text>
<text text-anchor="start" x="343.5" y="-1211.5" font-family="Helvetica,sans-Serif" font-size="10.00">+ double getX()</text>
<text text-anchor="start" x="343.5" y="-1200.5" font-family="Helvetica,sans-Serif" font-size="10.00">+ void Draw()</text>
<text text-anchor="start" x="343.5" y="-1189.5" font-family="Helvetica,sans-Serif" font-size="10.00">+ boolean interesects(double x, double y)</text>
<text text-anchor="start" x="343.5" y="-1178.5" font-family="Helvetica,sans-Serif" font-size="10.00">+ boolean interesects(Block.Lane lane, double y)</text>
<text text-anchor="start" x="343.5" y="-1167.5" font-family="Helvetica,sans-Serif" font-size="10.00">+ boolean touches(GameObject other)</text>
<text text-anchor="start" x="343.5" y="-1156.5" font-family="Helvetica,sans-Serif" font-size="10.00">+ boolean within(GameObject other)</text>
</a>
</g>
</g>
<!-- Node6&#45;&gt;Node5 -->
<g id="edge6" class="edge">
<title>Node6&#45;&gt;Node5</title>
<path fill="none" stroke="#63b8ff" d="M452.55,-1139.23C446.62,-1119.52 440.95,-1100.68 436.2,-1084.88"/>
<polygon fill="none" stroke="#63b8ff" points="449.44,-1140.05 455.67,-1148.62 456.14,-1138.03 449.44,-1140.05"/>
</g>
<!-- Node16 -->
<g id="node16" class="node">
<title>Node16</title>
<g id="a_node16"><a xlink:href="classobjects_1_1GameLaneObject.html" target="_top" xlink:title=" ">
<polygon fill="white" stroke="#666666" points="553,-978.5 553,-1101.5 897,-1101.5 897,-978.5 553,-978.5"/>
<text text-anchor="middle" x="725" y="-1089.5" font-family="Helvetica,sans-Serif" font-size="10.00">objects.GameLaneObject</text>
<polyline fill="none" stroke="#666666" points="553,-1082.5 897,-1082.5"/>
<text text-anchor="middle" x="725" y="-1070.5" font-family="Helvetica,sans-Serif" font-size="10.00"> </text>
<polyline fill="none" stroke="#666666" points="553,-1063.5 897,-1063.5"/>
<text text-anchor="start" x="561" y="-1051.5" font-family="Helvetica,sans-Serif" font-size="10.00">+ GameLaneObject(Block.Lane lane, double y, double width, double length)</text>
<text text-anchor="start" x="561" y="-1040.5" font-family="Helvetica,sans-Serif" font-size="10.00">+ GameLaneObject(Block.Lane lane, double y, double cubeLength)</text>
<text text-anchor="start" x="561" y="-1029.5" font-family="Helvetica,sans-Serif" font-size="10.00">+ void setLanePath(Block.Lane path)</text>
<text text-anchor="start" x="561" y="-1018.5" font-family="Helvetica,sans-Serif" font-size="10.00">+ Block.Lane getLane()</text>
<text text-anchor="start" x="561" y="-1007.5" font-family="Helvetica,sans-Serif" font-size="10.00">+ void Draw()</text>
<text text-anchor="start" x="561" y="-996.5" font-family="Helvetica,sans-Serif" font-size="10.00">+ boolean contains(Block.Lane lane, double y)</text>
<text text-anchor="start" x="561" y="-985.5" font-family="Helvetica,sans-Serif" font-size="10.00">+ boolean touches(GameLaneObject other)</text>
</a>
</g>
</g>
<!-- Node6&#45;&gt;Node16 -->
<g id="edge18" class="edge">
<title>Node6&#45;&gt;Node16</title>
<path fill="none" stroke="#63b8ff" d="M631.62,-1141.75C644.67,-1127.67 657.35,-1113.99 668.95,-1101.48"/>
<polygon fill="none" stroke="#63b8ff" points="629.56,-1138.9 625.33,-1148.62 634.7,-1143.66 629.56,-1138.9"/>
</g>
<!-- Node19 -->
<g id="node19" class="node">
<title>Node19</title>
<g id="a_node19"><a xlink:href="classlogic_1_1Logic_1_1Score.html" target="_top" xlink:title=" ">
<polygon fill="white" stroke="#666666" points="283.5,-825.5 283.5,-959.5 424.5,-959.5 424.5,-825.5 283.5,-825.5"/>
<text text-anchor="middle" x="354" y="-947.5" font-family="Helvetica,sans-Serif" font-size="10.00">logic.Logic.Score</text>
<polyline fill="none" stroke="#666666" points="283.5,-940.5 424.5,-940.5"/>
<text text-anchor="start" x="291.5" y="-928.5" font-family="Helvetica,sans-Serif" font-size="10.00">+ static final double length</text>
<text text-anchor="start" x="291.5" y="-917.5" font-family="Helvetica,sans-Serif" font-size="10.00">+ static final double padding</text>
<text text-anchor="start" x="291.5" y="-906.5" font-family="Helvetica,sans-Serif" font-size="10.00">&#45; int currentScore</text>
<polyline fill="none" stroke="#666666" points="283.5,-899.5 424.5,-899.5"/>
<text text-anchor="start" x="291.5" y="-887.5" font-family="Helvetica,sans-Serif" font-size="10.00">+ void increaseScore(int diff)</text>
<text text-anchor="start" x="291.5" y="-876.5" font-family="Helvetica,sans-Serif" font-size="10.00">+ void incrementScore()</text>
<text text-anchor="start" x="291.5" y="-865.5" font-family="Helvetica,sans-Serif" font-size="10.00">+ int getScore()</text>
<text text-anchor="start" x="291.5" y="-854.5" font-family="Helvetica,sans-Serif" font-size="10.00">+ void resetScore()</text>
<text text-anchor="start" x="291.5" y="-843.5" font-family="Helvetica,sans-Serif" font-size="10.00">+ void Draw()</text>
<text text-anchor="start" x="291.5" y="-832.5" font-family="Helvetica,sans-Serif" font-size="10.00">~ Score()</text>
</a>
</g>
</g>
<!-- Node6&#45;&gt;Node19 -->
<g id="edge25" class="edge">
<title>Node6&#45;&gt;Node19</title>
<path fill="none" stroke="#63b8ff" d="M329.05,-1148.74C318.34,-1134.02 309.05,-1118.4 302,-1102 280.24,-1051.37 286.99,-1031.03 302,-978 303.78,-971.7 306.18,-965.41 308.98,-959.27"/>
<polygon fill="none" stroke="#63b8ff" points="326.69,-1150.43 335.51,-1156.31 332.28,-1146.22 326.69,-1150.43"/>
</g>
<!-- Node7 -->
<g id="node7" class="node">
<title>Node7</title>
<g id="a_node7"><a xlink:title=" ">
<polygon fill="white" stroke="#666666" points="889,-1502 889,-1559 929,-1559 929,-1502 889,-1502"/>
<text text-anchor="middle" x="909" y="-1547" font-family="Helvetica,sans-Serif" font-size="10.00">Color</text>
<polyline fill="none" stroke="#666666" points="889,-1540 929,-1540"/>
<text text-anchor="middle" x="909" y="-1528" font-family="Helvetica,sans-Serif" font-size="10.00"> </text>
<polyline fill="none" stroke="#666666" points="889,-1521 929,-1521"/>
<text text-anchor="middle" x="909" y="-1509" font-family="Helvetica,sans-Serif" font-size="10.00"> </text>
</a>
</g>
</g>
<!-- Node7&#45;&gt;Node6 -->
<g id="edge7" class="edge">
<title>Node7&#45;&gt;Node6</title>
<path fill="none" stroke="#404040" d="M891.54,-1502.18C883.87,-1492.06 874.08,-1481.29 863,-1474 801.1,-1433.25 770.12,-1458.43 703,-1427 691.82,-1421.76 680.55,-1415.97 669.37,-1409.8"/>
<polygon fill="none" stroke="#404040" points="669.45,-1409.85 662.26,-1410.39 659,-1403.96 666.19,-1403.42 669.45,-1409.85"/>
<text text-anchor="middle" x="840" y="-1448" font-family="Helvetica,sans-Serif" font-size="10.00"> #color</text>
</g>
<!-- Node15 -->
<g id="node15" class="node">
<title>Node15</title>
<g id="a_node15"><a xlink:href="classobjects_1_1Player.html" target="_top" xlink:title=" ">
<polygon fill="white" stroke="#666666" points="829.5,-353.5 829.5,-806.5 1020.5,-806.5 1020.5,-353.5 829.5,-353.5"/>
<text text-anchor="middle" x="925" y="-794.5" font-family="Helvetica,sans-Serif" font-size="10.00">objects.Player</text>
<polyline fill="none" stroke="#666666" points="829.5,-787.5 1020.5,-787.5"/>
<text text-anchor="start" x="837.5" y="-775.5" font-family="Helvetica,sans-Serif" font-size="10.00">+ boolean isClimbingRamp</text>
<text text-anchor="start" x="837.5" y="-764.5" font-family="Helvetica,sans-Serif" font-size="10.00">+ static final double playerLength</text>
<text text-anchor="start" x="837.5" y="-753.5" font-family="Helvetica,sans-Serif" font-size="10.00">+ static final int maxJumpFrames</text>
<text text-anchor="start" x="837.5" y="-742.5" font-family="Helvetica,sans-Serif" font-size="10.00">+ static final int maxJumpDistance</text>
<text text-anchor="start" x="837.5" y="-731.5" font-family="Helvetica,sans-Serif" font-size="10.00">+ static final int maxRampFrames</text>
<text text-anchor="start" x="837.5" y="-720.5" font-family="Helvetica,sans-Serif" font-size="10.00">+ static final double a</text>
<text text-anchor="start" x="837.5" y="-709.5" font-family="Helvetica,sans-Serif" font-size="10.00">+ static final double b</text>
<text text-anchor="start" x="837.5" y="-698.5" font-family="Helvetica,sans-Serif" font-size="10.00">&#45; Boolean alive</text>
<text text-anchor="start" x="837.5" y="-687.5" font-family="Helvetica,sans-Serif" font-size="10.00">&#45; Boolean isDying</text>
<text text-anchor="start" x="837.5" y="-676.5" font-family="Helvetica,sans-Serif" font-size="10.00">&#45; boolean jumping</text>
<text text-anchor="start" x="837.5" y="-665.5" font-family="Helvetica,sans-Serif" font-size="10.00">&#45; int currentJumpFrame</text>
<text text-anchor="start" x="837.5" y="-654.5" font-family="Helvetica,sans-Serif" font-size="10.00">&#45; int currentRunningFrame</text>
<text text-anchor="start" x="837.5" y="-643.5" font-family="Helvetica,sans-Serif" font-size="10.00">&#45; int currentDeathFrame</text>
<text text-anchor="start" x="837.5" y="-632.5" font-family="Helvetica,sans-Serif" font-size="10.00">&#45; int currentClimbingFrame</text>
<polyline fill="none" stroke="#666666" points="829.5,-625.5 1020.5,-625.5"/>
<text text-anchor="start" x="837.5" y="-613.5" font-family="Helvetica,sans-Serif" font-size="10.00">+ Player()</text>
<text text-anchor="start" x="837.5" y="-602.5" font-family="Helvetica,sans-Serif" font-size="10.00">+ Level getLevel()</text>
<text text-anchor="start" x="837.5" y="-591.5" font-family="Helvetica,sans-Serif" font-size="10.00">+ void setLevel(Level level)</text>
<text text-anchor="start" x="837.5" y="-580.5" font-family="Helvetica,sans-Serif" font-size="10.00">+ void moveLeft()</text>
<text text-anchor="start" x="837.5" y="-569.5" font-family="Helvetica,sans-Serif" font-size="10.00">+ void moveRight()</text>
<text text-anchor="start" x="837.5" y="-558.5" font-family="Helvetica,sans-Serif" font-size="10.00">+ void jumpUpdate()</text>
<text text-anchor="start" x="837.5" y="-547.5" font-family="Helvetica,sans-Serif" font-size="10.00">+ void setPlayerLevelLow()</text>
<text text-anchor="start" x="837.5" y="-536.5" font-family="Helvetica,sans-Serif" font-size="10.00">+ void setPlayerLevelHigh()</text>
<text text-anchor="start" x="837.5" y="-525.5" font-family="Helvetica,sans-Serif" font-size="10.00">+ void rampUpdate()</text>
<text text-anchor="start" x="837.5" y="-514.5" font-family="Helvetica,sans-Serif" font-size="10.00">+ void setDying()</text>
<text text-anchor="start" x="837.5" y="-503.5" font-family="Helvetica,sans-Serif" font-size="10.00">+ boolean isDying()</text>
<text text-anchor="start" x="837.5" y="-492.5" font-family="Helvetica,sans-Serif" font-size="10.00">+ void updateDeathAnimation()</text>
<text text-anchor="start" x="837.5" y="-481.5" font-family="Helvetica,sans-Serif" font-size="10.00">+ void playerUpdateAnimation()</text>
<text text-anchor="start" x="837.5" y="-470.5" font-family="Helvetica,sans-Serif" font-size="10.00">+ void jump()</text>
<text text-anchor="start" x="837.5" y="-459.5" font-family="Helvetica,sans-Serif" font-size="10.00">+ boolean isJumping()</text>
<text text-anchor="start" x="837.5" y="-448.5" font-family="Helvetica,sans-Serif" font-size="10.00">+ boolean isAlive()</text>
<text text-anchor="start" x="837.5" y="-437.5" font-family="Helvetica,sans-Serif" font-size="10.00">+ void die()</text>
<text text-anchor="start" x="837.5" y="-426.5" font-family="Helvetica,sans-Serif" font-size="10.00">+ void Draw()</text>
<text text-anchor="start" x="837.5" y="-415.5" font-family="Helvetica,sans-Serif" font-size="10.00">~ [static initializer]</text>
<text text-anchor="start" x="837.5" y="-404.5" font-family="Helvetica,sans-Serif" font-size="10.00">&#45; void setAnimations()</text>
<text text-anchor="start" x="837.5" y="-393.5" font-family="Helvetica,sans-Serif" font-size="10.00">&#45; void playerLengthIncrease(double diff)</text>
<text text-anchor="start" x="837.5" y="-382.5" font-family="Helvetica,sans-Serif" font-size="10.00">&#45; void playerLengthDecrease(double diff)</text>
<text text-anchor="start" x="837.5" y="-371.5" font-family="Helvetica,sans-Serif" font-size="10.00">&#45; double jumpCurrentValue(int frame)</text>
<text text-anchor="start" x="837.5" y="-360.5" font-family="Helvetica,sans-Serif" font-size="10.00">&#45; void updateRunningAnimation()</text>
</a>
</g>
</g>
<!-- Node7&#45;&gt;Node15 -->
<g id="edge20" class="edge">
<title>Node7&#45;&gt;Node15</title>
<path fill="none" stroke="#404040" d="M909.46,-1502.14C911.13,-1403.25 916.96,-1057.71 920.98,-819.16"/>
<polygon fill="none" stroke="#404040" points="920.98,-819.35 917.08,-813.29 921.18,-807.36 925.08,-813.42 920.98,-819.35"/>
<text text-anchor="middle" x="943" y="-1123" font-family="Helvetica,sans-Serif" font-size="10.00"> &#45;playerColor</text>
</g>
<!-- Node8 -->
<g id="node8" class="node">
<title>Node8</title>
<g id="a_node8"><a xlink:title=" ">
<polygon fill="white" stroke="#666666" points="340,-1502 340,-1559 384,-1559 384,-1502 340,-1502"/>
<text text-anchor="middle" x="362" y="-1547" font-family="Helvetica,sans-Serif" font-size="10.00">Image</text>
<polyline fill="none" stroke="#666666" points="340,-1540 384,-1540"/>
<text text-anchor="middle" x="362" y="-1528" font-family="Helvetica,sans-Serif" font-size="10.00"> </text>
<polyline fill="none" stroke="#666666" points="340,-1521 384,-1521"/>
<text text-anchor="middle" x="362" y="-1509" font-family="Helvetica,sans-Serif" font-size="10.00"> </text>
</a>
</g>
</g>
<!-- Node8&#45;&gt;Node5 -->
<g id="edge12" class="edge">
<title>Node8&#45;&gt;Node5</title>
<path fill="none" stroke="#404040" d="M342.6,-1502.33C329.69,-1482.5 313.89,-1454.42 307,-1427 276.88,-1307.17 257.69,-1262.29 307,-1149 316.17,-1127.93 331.71,-1109.11 348.48,-1093.31"/>
<polygon fill="none" stroke="#404040" points="348.3,-1093.48 350.09,-1086.49 357.22,-1085.46 355.43,-1092.44 348.3,-1093.48"/>
<text text-anchor="middle" x="316.5" y="-1285.5" font-family="Helvetica,sans-Serif" font-size="10.00"> &#45;tile</text>
</g>
<!-- Node8&#45;&gt;Node6 -->
<g id="edge8" class="edge">
<title>Node8&#45;&gt;Node6</title>
<path fill="none" stroke="#404040" d="M377.22,-1502.38C386.68,-1485.53 399.68,-1462.38 413.63,-1437.53"/>
<polygon fill="none" stroke="#404040" points="413.56,-1437.65 413.01,-1430.46 419.43,-1427.19 419.98,-1434.38 413.56,-1437.65"/>
<text text-anchor="middle" x="423.5" y="-1448" font-family="Helvetica,sans-Serif" font-size="10.00"> #image</text>
</g>
<!-- Node9 -->
<g id="node9" class="node">
<title>Node9</title>
<g id="a_node9"><a xlink:href="classobjects_1_1Block.html" target="_top" xlink:title=" ">
<polygon fill="white" stroke="#666666" points="596,-1474.5 596,-1586.5 854,-1586.5 854,-1474.5 596,-1474.5"/>
<text text-anchor="middle" x="725" y="-1574.5" font-family="Helvetica,sans-Serif" font-size="10.00">objects.Block</text>
<polyline fill="none" stroke="#666666" points="596,-1567.5 854,-1567.5"/>
<text text-anchor="start" x="604" y="-1555.5" font-family="Helvetica,sans-Serif" font-size="10.00">+ static final double speed</text>
<text text-anchor="start" x="604" y="-1544.5" font-family="Helvetica,sans-Serif" font-size="10.00">&#45; double currentY</text>
<polyline fill="none" stroke="#666666" points="596,-1537.5 854,-1537.5"/>
<text text-anchor="start" x="604" y="-1525.5" font-family="Helvetica,sans-Serif" font-size="10.00">+ Block(ArrayList&lt; Obstacle &gt; left, ArrayList&lt; Obstacle</text>
<text text-anchor="start" x="604" y="-1514.5" font-family="Helvetica,sans-Serif" font-size="10.00"> &gt; center, ArrayList&lt; Obstacle &gt; right)</text>
<text text-anchor="start" x="604" y="-1503.5" font-family="Helvetica,sans-Serif" font-size="10.00">+ void frameUpdate()</text>
<text text-anchor="start" x="604" y="-1492.5" font-family="Helvetica,sans-Serif" font-size="10.00">+ double getCurrentY()</text>
<text text-anchor="start" x="604" y="-1481.5" font-family="Helvetica,sans-Serif" font-size="10.00">+ ArrayList&lt; Obstacle &gt; getLane(Lane lane)</text>
</a>
</g>
</g>
<!-- Node9&#45;&gt;Node6 -->
<g id="edge9" class="edge">
<title>Node9&#45;&gt;Node6</title>
<path fill="none" stroke="#404040" d="M672.98,-1474.63C661.55,-1462.57 648.93,-1449.26 635.85,-1435.46"/>
<polygon fill="none" stroke="#404040" points="636.07,-1435.69 629.04,-1434.09 627.81,-1426.98 634.84,-1428.59 636.07,-1435.69"/>
<text text-anchor="middle" x="664.5" y="-1448" font-family="Helvetica,sans-Serif" font-size="10.00"> #lane</text>
</g>
<!-- Node9&#45;&gt;Node16 -->
<g id="edge19" class="edge">
<title>Node9&#45;&gt;Node16</title>
<path fill="none" stroke="#404040" d="M725,-1474.88C725,-1386.72 725,-1212.97 725,-1114.19"/>
<polygon fill="none" stroke="#404040" points="725,-1114.25 721,-1108.25 725,-1102.25 729,-1108.25 725,-1114.25"/>
<text text-anchor="middle" x="738.5" y="-1285.5" font-family="Helvetica,sans-Serif" font-size="10.00"> #lane</text>
</g>
<!-- Node10 -->
<g id="node10" class="node">
<title>Node10</title>
<g id="a_node10"><a xlink:title=" ">
<polygon fill="white" stroke="#666666" points="831.5,-1681.5 831.5,-1738.5 978.5,-1738.5 978.5,-1681.5 831.5,-1681.5"/>
<text text-anchor="middle" x="905" y="-1726.5" font-family="Helvetica,sans-Serif" font-size="10.00">ArrayList&lt; objects.Obstacle &gt;</text>
<polyline fill="none" stroke="#666666" points="831.5,-1719.5 978.5,-1719.5"/>
<text text-anchor="middle" x="905" y="-1707.5" font-family="Helvetica,sans-Serif" font-size="10.00"> </text>
<polyline fill="none" stroke="#666666" points="831.5,-1700.5 978.5,-1700.5"/>
<text text-anchor="middle" x="905" y="-1688.5" font-family="Helvetica,sans-Serif" font-size="10.00"> </text>
</a>
</g>
</g>
<!-- Node10&#45;&gt;Node9 -->
<g id="edge10" class="edge">
<title>Node10&#45;&gt;Node9</title>
<path fill="none" stroke="#404040" d="M877.27,-1681.65C854.03,-1658.74 819.93,-1625.12 789.89,-1595.49"/>
<polygon fill="none" stroke="#404040" points="789.9,-1595.5 782.82,-1594.14 781.36,-1587.08 788.44,-1588.44 789.9,-1595.5"/>
<text text-anchor="middle" x="874.5" y="-1642.5" font-family="Helvetica,sans-Serif" font-size="10.00"> +center</text>
<text text-anchor="middle" x="874.5" y="-1631.5" font-family="Helvetica,sans-Serif" font-size="10.00">+left</text>
<text text-anchor="middle" x="874.5" y="-1620.5" font-family="Helvetica,sans-Serif" font-size="10.00">+right</text>
</g>
<!-- Node11 -->
<g id="node11" class="node">
<title>Node11</title>
<g id="a_node11"><a xlink:title=" ">
<polygon fill="white" stroke="#666666" points="967,-1786.5 967,-1843.5 1023,-1843.5 1023,-1786.5 967,-1786.5"/>
<text text-anchor="middle" x="995" y="-1831.5" font-family="Helvetica,sans-Serif" font-size="10.00">ArrayList</text>
<polyline fill="none" stroke="#666666" points="967,-1824.5 1023,-1824.5"/>
<text text-anchor="middle" x="995" y="-1812.5" font-family="Helvetica,sans-Serif" font-size="10.00"> </text>
<polyline fill="none" stroke="#666666" points="967,-1805.5 1023,-1805.5"/>
<text text-anchor="middle" x="995" y="-1793.5" font-family="Helvetica,sans-Serif" font-size="10.00"> </text>
</a>
</g>
</g>
<!-- Node11&#45;&gt;Node10 -->
<g id="edge11" class="edge">
<title>Node11&#45;&gt;Node10</title>
<path fill="none" stroke="orange" d="M960.77,-1778.81C957.43,-1775.2 954.12,-1771.55 951,-1768 942.69,-1758.54 933.93,-1747.88 926.3,-1738.35"/>
<polygon fill="orange" stroke="orange" points="957.7,-1780.72 967.09,-1785.62 962.81,-1775.93 957.7,-1780.72"/>
<text text-anchor="middle" x="1000" y="-1760" font-family="Helvetica,sans-Serif" font-size="10.00"> &lt; objects::Obstacle &gt;</text>
</g>
<!-- Node18 -->
<g id="node18" class="node">
<title>Node18</title>
<g id="a_node18"><a xlink:title=" ">
<polygon fill="white" stroke="#666666" points="1028.5,-1605.5 1028.5,-1662.5 1129.5,-1662.5 1129.5,-1605.5 1028.5,-1605.5"/>
<text text-anchor="middle" x="1079" y="-1650.5" font-family="Helvetica,sans-Serif" font-size="10.00">ArrayList&lt; Image &gt;</text>
<polyline fill="none" stroke="#666666" points="1028.5,-1643.5 1129.5,-1643.5"/>
<text text-anchor="middle" x="1079" y="-1631.5" font-family="Helvetica,sans-Serif" font-size="10.00"> </text>
<polyline fill="none" stroke="#666666" points="1028.5,-1624.5 1129.5,-1624.5"/>
<text text-anchor="middle" x="1079" y="-1612.5" font-family="Helvetica,sans-Serif" font-size="10.00"> </text>
</a>
</g>
</g>
<!-- Node11&#45;&gt;Node18 -->
<g id="edge23" class="edge">
<title>Node11&#45;&gt;Node18</title>
<path fill="none" stroke="orange" d="M1030.92,-1789.14C1037.78,-1782.94 1044.28,-1775.8 1049,-1768 1068.83,-1735.18 1075.58,-1690.64 1077.86,-1662.35"/>
<polygon fill="orange" stroke="orange" points="1029.18,-1786.87 1023.78,-1795.98 1033.69,-1792.23 1029.18,-1786.87"/>
<text text-anchor="middle" x="1078.5" y="-1760" font-family="Helvetica,sans-Serif" font-size="10.00"> &lt; Image &gt;</text>
</g>
<!-- Node12 -->
<g id="node12" class="node">
<title>Node12</title>
<g id="a_node12"><a xlink:href="classlogic_1_1ObstacleFactory.html" target="_top" xlink:title=" ">
<polygon fill="white" stroke="#666666" points="108,-502 108,-658 408,-658 408,-502 108,-502"/>
<text text-anchor="middle" x="258" y="-646" font-family="Helvetica,sans-Serif" font-size="10.00">logic.ObstacleFactory</text>
<polyline fill="none" stroke="#666666" points="108,-639 408,-639"/>
<text text-anchor="start" x="116" y="-627" font-family="Helvetica,sans-Serif" font-size="10.00">+ static final int buildingScreens</text>
<text text-anchor="start" x="116" y="-616" font-family="Helvetica,sans-Serif" font-size="10.00">+ static final int bufferScreens</text>
<text text-anchor="start" x="116" y="-605" font-family="Helvetica,sans-Serif" font-size="10.00">&#45; final double logicalLaneLength</text>
<text text-anchor="start" x="116" y="-594" font-family="Helvetica,sans-Serif" font-size="10.00">&#45; static final double minSpace</text>
<text text-anchor="start" x="116" y="-583" font-family="Helvetica,sans-Serif" font-size="10.00">&#45; static final double space</text>
<text text-anchor="start" x="116" y="-572" font-family="Helvetica,sans-Serif" font-size="10.00">&#45; static final double testObjectStep</text>
<polyline fill="none" stroke="#666666" points="108,-565 408,-565"/>
<text text-anchor="start" x="116" y="-553" font-family="Helvetica,sans-Serif" font-size="10.00">+ ObstacleFactory()</text>
<text text-anchor="start" x="116" y="-542" font-family="Helvetica,sans-Serif" font-size="10.00">+ Block generateBlock()</text>
<text text-anchor="start" x="116" y="-531" font-family="Helvetica,sans-Serif" font-size="10.00">+ ArrayList&lt; Obstacle &gt; generatePath()</text>
<text text-anchor="start" x="116" y="-520" font-family="Helvetica,sans-Serif" font-size="10.00">+ boolean winningPath(ArrayList&lt; ArrayList&lt; Obstacle &gt; &gt; lanes)</text>
<text text-anchor="start" x="116" y="-509" font-family="Helvetica,sans-Serif" font-size="10.00">+ Obstacle generateObstacle()</text>
</a>
</g>
</g>
<!-- Node12&#45;&gt;Node4 -->
<g id="edge13" class="edge">
<title>Node12&#45;&gt;Node4</title>
<path fill="none" stroke="#404040" d="M275.59,-502.25C290.42,-448.8 315.5,-377.74 354,-324 359.31,-316.59 365.3,-309.41 371.69,-302.52"/>
<polygon fill="none" stroke="#404040" points="371.65,-302.57 372.97,-295.48 380.02,-293.97 378.7,-301.06 371.65,-302.57"/>
<text text-anchor="middle" x="392" y="-327" font-family="Helvetica,sans-Serif" font-size="10.00"> &#45;obstacleFactory</text>
</g>
<!-- Node13 -->
<g id="node13" class="node">
<title>Node13</title>
<g id="a_node13"><a xlink:title=" ">
<polygon fill="white" stroke="#666666" points="1319,-551.5 1319,-608.5 1441,-608.5 1441,-551.5 1319,-551.5"/>
<text text-anchor="middle" x="1380" y="-596.5" font-family="Helvetica,sans-Serif" font-size="10.00">Deque&lt; objects.Block &gt;</text>
<polyline fill="none" stroke="#666666" points="1319,-589.5 1441,-589.5"/>
<text text-anchor="middle" x="1380" y="-577.5" font-family="Helvetica,sans-Serif" font-size="10.00"> </text>
<polyline fill="none" stroke="#666666" points="1319,-570.5 1441,-570.5"/>
<text text-anchor="middle" x="1380" y="-558.5" font-family="Helvetica,sans-Serif" font-size="10.00"> </text>
</a>
</g>
</g>
<!-- Node13&#45;&gt;Node4 -->
<g id="edge14" class="edge">
<title>Node13&#45;&gt;Node4</title>
<path fill="none" stroke="#404040" d="M1380.42,-551.61C1379.54,-503.18 1370.08,-402.81 1310,-353 1188.42,-252.19 756.81,-356.34 585.56,-306.04"/>
<polygon fill="none" stroke="#404040" points="585.45,-306.01 578.5,-307.93 574.05,-302.25 581,-300.33 585.45,-306.01"/>
<text text-anchor="middle" x="1313.5" y="-327" font-family="Helvetica,sans-Serif" font-size="10.00"> &#45;obstaclesBlocks</text>
</g>
<!-- Node14 -->
<g id="node14" class="node">
<title>Node14</title>
<g id="a_node14"><a xlink:title=" ">
<polygon fill="white" stroke="#666666" points="1357.5,-1011.5 1357.5,-1068.5 1402.5,-1068.5 1402.5,-1011.5 1357.5,-1011.5"/>
<text text-anchor="middle" x="1380" y="-1056.5" font-family="Helvetica,sans-Serif" font-size="10.00">Deque</text>
<polyline fill="none" stroke="#666666" points="1357.5,-1049.5 1402.5,-1049.5"/>
<text text-anchor="middle" x="1380" y="-1037.5" font-family="Helvetica,sans-Serif" font-size="10.00"> </text>
<polyline fill="none" stroke="#666666" points="1357.5,-1030.5 1402.5,-1030.5"/>
<text text-anchor="middle" x="1380" y="-1018.5" font-family="Helvetica,sans-Serif" font-size="10.00"> </text>
</a>
</g>
</g>
<!-- Node14&#45;&gt;Node13 -->
<g id="edge15" class="edge">
<title>Node14&#45;&gt;Node13</title>
<path fill="none" stroke="orange" d="M1380,-1000.93C1380,-910.91 1380,-686.63 1380,-608.42"/>
<polygon fill="orange" stroke="orange" points="1376.5,-1000.72 1380,-1010.72 1383.5,-1000.72 1376.5,-1000.72"/>
<text text-anchor="middle" x="1422" y="-890" font-family="Helvetica,sans-Serif" font-size="10.00"> &lt; objects::Block &gt;</text>
</g>
<!-- Node15&#45;&gt;Node4 -->
<g id="edge16" class="edge">
<title>Node15&#45;&gt;Node4</title>
<path fill="none" stroke="#404040" d="M829.89,-361.41C826.7,-358.48 823.4,-355.67 820,-353 738.69,-289.13 684.73,-346.19 585.19,-306.34"/>
<polygon fill="none" stroke="#404040" points="585.33,-306.4 578.23,-307.7 574.31,-301.65 581.4,-300.35 585.33,-306.4"/>
<text text-anchor="middle" x="806.5" y="-327" font-family="Helvetica,sans-Serif" font-size="10.00"> &#45;player</text>
</g>
<!-- Node16&#45;&gt;Node15 -->
<g id="edge17" class="edge">
<title>Node16&#45;&gt;Node15</title>
<path fill="none" stroke="#63b8ff" d="M755.75,-968.58C775.7,-922.9 802.87,-860.69 829.6,-799.47"/>
<polygon fill="none" stroke="#63b8ff" points="752.15,-967.09 751.35,-977.65 758.56,-969.89 752.15,-967.09"/>
</g>
<!-- Node20 -->
<g id="node20" class="node">
<title>Node20</title>
<g id="a_node20"><a xlink:href="classobjects_1_1Obstacle.html" target="_top" xlink:title=" ">
<polygon fill="white" stroke="#666666" points="565,-540.5 565,-619.5 811,-619.5 811,-540.5 565,-540.5"/>
<text text-anchor="middle" x="688" y="-607.5" font-family="Helvetica,sans-Serif" font-size="10.00">objects.Obstacle</text>
<polyline fill="none" stroke="#666666" points="565,-600.5 811,-600.5"/>
<text text-anchor="start" x="573" y="-588.5" font-family="Helvetica,sans-Serif" font-size="10.00">+ static final double obestacleWidth</text>
<polyline fill="none" stroke="#666666" points="565,-581.5 811,-581.5"/>
<text text-anchor="start" x="573" y="-569.5" font-family="Helvetica,sans-Serif" font-size="10.00">+ Obstacle(Block.Lane lane, double y, double length)</text>
<text text-anchor="start" x="573" y="-558.5" font-family="Helvetica,sans-Serif" font-size="10.00">+ void setY(double y)</text>
<text text-anchor="start" x="573" y="-547.5" font-family="Helvetica,sans-Serif" font-size="10.00">+ void addY(double diff)</text>
</a>
</g>
</g>
<!-- Node16&#45;&gt;Node20 -->
<g id="edge27" class="edge">
<title>Node16&#45;&gt;Node20</title>
<path fill="none" stroke="#63b8ff" d="M719.26,-967.94C711.33,-869.8 697.3,-696.18 691.1,-619.38"/>
<polygon fill="none" stroke="#63b8ff" points="715.83,-967.97 720.12,-977.65 722.81,-967.4 715.83,-967.97"/>
</g>
<!-- Node17 -->
<g id="node17" class="node">
<title>Node17</title>
<g id="a_node17"><a xlink:href="enumobjects_1_1Player_1_1Level.html" target="_top" xlink:title=" ">
<polygon fill="white" stroke="#666666" points="953.5,-1006 953.5,-1074 1058.5,-1074 1058.5,-1006 953.5,-1006"/>
<text text-anchor="middle" x="1006" y="-1062" font-family="Helvetica,sans-Serif" font-size="10.00">objects.Player.Level</text>
<polyline fill="none" stroke="#666666" points="953.5,-1055 1058.5,-1055"/>
<text text-anchor="start" x="961.5" y="-1043" font-family="Helvetica,sans-Serif" font-size="10.00">+ LOW</text>
<text text-anchor="start" x="961.5" y="-1032" font-family="Helvetica,sans-Serif" font-size="10.00">+ HIGH</text>
<polyline fill="none" stroke="#666666" points="953.5,-1025 1058.5,-1025"/>
<text text-anchor="middle" x="1006" y="-1013" font-family="Helvetica,sans-Serif" font-size="10.00"> </text>
</a>
</g>
</g>
<!-- Node17&#45;&gt;Node15 -->
<g id="edge21" class="edge">
<title>Node17&#45;&gt;Node15</title>
<path fill="none" stroke="#404040" d="M1000.17,-1006.06C993.01,-965.54 980.18,-893 967.12,-819.18"/>
<polygon fill="none" stroke="#404040" points="967.1,-819.07 962.12,-813.86 965.01,-807.25 970,-812.46 967.1,-819.07"/>
<text text-anchor="middle" x="1003.5" y="-890" font-family="Helvetica,sans-Serif" font-size="10.00"> &#45;level</text>
</g>
<!-- Node18&#45;&gt;Node15 -->
<g id="edge22" class="edge">
<title>Node18&#45;&gt;Node15</title>
<path fill="none" stroke="#404040" d="M1080.96,-1605.65C1083.33,-1570.14 1087,-1506.22 1087,-1451.5 1087,-1451.5 1087,-1451.5 1087,-1039 1087,-993.54 1058.28,-905.16 1025.02,-818.06"/>
<polygon fill="none" stroke="#404040" points="1025.04,-818.11 1019.15,-813.94 1020.73,-806.91 1026.62,-811.07 1025.04,-818.11"/>
<text text-anchor="middle" x="1119" y="-1291" font-family="Helvetica,sans-Serif" font-size="10.00"> &#45;deathFrames</text>
<text text-anchor="middle" x="1119" y="-1280" font-family="Helvetica,sans-Serif" font-size="10.00">&#45;runFrames</text>
</g>
<!-- Node19&#45;&gt;Node4 -->
<g id="edge24" class="edge">
<title>Node19&#45;&gt;Node4</title>
<path fill="none" stroke="#404040" d="M408.12,-825.67C411.55,-819.58 414.58,-813.32 417,-807 489.39,-617.77 434.23,-554.2 458,-353 459.34,-341.69 460.87,-329.84 462.48,-318.1"/>
<polygon fill="none" stroke="#404040" points="462.47,-318.21 459.34,-311.72 464.13,-306.33 467.26,-312.82 462.47,-318.21"/>
<text text-anchor="middle" x="473.5" y="-577.5" font-family="Helvetica,sans-Serif" font-size="10.00"> &#45;score</text>
</g>
<!-- Node20&#45;&gt;Node4 -->
<g id="edge26" class="edge">
<title>Node20&#45;&gt;Node4</title>
<path fill="none" stroke="#404040" d="M665.22,-540.56C633.65,-487.29 575.58,-389.33 532.26,-316.24"/>
<polygon fill="none" stroke="#404040" points="532.29,-316.29 525.79,-313.17 526.17,-305.97 532.67,-309.09 532.29,-316.29"/>
<text text-anchor="middle" x="577.5" y="-327" font-family="Helvetica,sans-Serif" font-size="10.00"> &#45;lastTouchedObs</text>
</g>
<!-- Node21 -->
<g id="node21" class="node">
<title>Node21</title>
<g id="a_node21"><a xlink:href="classlogic_1_1Logic_1_1Bounderies.html" target="_top" xlink:title=" ">
<polygon fill="white" stroke="#666666" points="1039,-458 1039,-702 1301,-702 1301,-458 1039,-458"/>
<text text-anchor="middle" x="1170" y="-690" font-family="Helvetica,sans-Serif" font-size="10.00">logic.Logic.Bounderies</text>
<polyline fill="none" stroke="#666666" points="1039,-683 1301,-683"/>
<text text-anchor="start" x="1047" y="-671" font-family="Helvetica,sans-Serif" font-size="10.00">&#45; final double groundPaddingPercentage</text>
<text text-anchor="start" x="1047" y="-660" font-family="Helvetica,sans-Serif" font-size="10.00">&#45; final double groundStartX</text>
<text text-anchor="start" x="1047" y="-649" font-family="Helvetica,sans-Serif" font-size="10.00">&#45; final double groundWidth</text>
<text text-anchor="start" x="1047" y="-638" font-family="Helvetica,sans-Serif" font-size="10.00">&#45; final double groundEndX</text>
<text text-anchor="start" x="1047" y="-627" font-family="Helvetica,sans-Serif" font-size="10.00">&#45; final double laneWidth</text>
<text text-anchor="start" x="1047" y="-616" font-family="Helvetica,sans-Serif" font-size="10.00">&#45; final double screenWidth</text>
<text text-anchor="start" x="1047" y="-605" font-family="Helvetica,sans-Serif" font-size="10.00">&#45; final double screenHeight</text>
<text text-anchor="start" x="1047" y="-594" font-family="Helvetica,sans-Serif" font-size="10.00">&#45; final double playerYPercentage</text>
<polyline fill="none" stroke="#666666" points="1039,-587 1301,-587"/>
<text text-anchor="start" x="1047" y="-575" font-family="Helvetica,sans-Serif" font-size="10.00">+ Bounderies(double screenWidth, double screenHeight)</text>
<text text-anchor="start" x="1047" y="-564" font-family="Helvetica,sans-Serif" font-size="10.00">+ double getGroundStartX()</text>
<text text-anchor="start" x="1047" y="-553" font-family="Helvetica,sans-Serif" font-size="10.00">+ double getGroundEndX()</text>
<text text-anchor="start" x="1047" y="-542" font-family="Helvetica,sans-Serif" font-size="10.00">+ double getPlayerY()</text>
<text text-anchor="start" x="1047" y="-531" font-family="Helvetica,sans-Serif" font-size="10.00">+ double getScreenHeight()</text>
<text text-anchor="start" x="1047" y="-520" font-family="Helvetica,sans-Serif" font-size="10.00">+ double getScreenWidth()</text>
<text text-anchor="start" x="1047" y="-509" font-family="Helvetica,sans-Serif" font-size="10.00">+ double getGroundWidth()</text>
<text text-anchor="start" x="1047" y="-498" font-family="Helvetica,sans-Serif" font-size="10.00">+ double getLaneWidth()</text>
<text text-anchor="start" x="1047" y="-487" font-family="Helvetica,sans-Serif" font-size="10.00">+ double getLaneStartX()</text>
<text text-anchor="start" x="1047" y="-476" font-family="Helvetica,sans-Serif" font-size="10.00">+ double getLanePadding()</text>
<text text-anchor="start" x="1047" y="-465" font-family="Helvetica,sans-Serif" font-size="10.00">+ double getLaneStartX(Block.Lane path)</text>
</a>
</g>
</g>
<!-- Node21&#45;&gt;Node4 -->
<g id="edge28" class="edge">
<title>Node21&#45;&gt;Node4</title>
<path fill="none" stroke="#404040" d="M1120.76,-458.24C1098.74,-418.67 1068.82,-378.38 1030,-353 949.5,-300.37 695.96,-338.92 585.39,-305.96"/>
<polygon fill="none" stroke="#404040" points="585.47,-305.98 578.5,-307.83 574.11,-302.11 581.08,-300.26 585.47,-305.98"/>
<text text-anchor="middle" x="1015" y="-327" font-family="Helvetica,sans-Serif" font-size="10.00"> +bounderiesOBJ</text>
</g>
<!-- Node22 -->
<g id="node22" class="node">
<title>Node22</title>
<g id="a_node22"><a xlink:title=" ">
<polygon fill="white" stroke="#666666" points="592,-193.5 592,-250.5 628,-250.5 628,-193.5 592,-193.5"/>
<text text-anchor="middle" x="610" y="-238.5" font-family="Helvetica,sans-Serif" font-size="10.00">Font</text>
<polyline fill="none" stroke="#666666" points="592,-231.5 628,-231.5"/>
<text text-anchor="middle" x="610" y="-219.5" font-family="Helvetica,sans-Serif" font-size="10.00"> </text>
<polyline fill="none" stroke="#666666" points="592,-212.5 628,-212.5"/>
<text text-anchor="middle" x="610" y="-200.5" font-family="Helvetica,sans-Serif" font-size="10.00"> </text>
</a>
</g>
</g>
<!-- Node22&#45;&gt;Node1 -->
<g id="edge29" class="edge">
<title>Node22&#45;&gt;Node1</title>
<path fill="none" stroke="#404040" d="M607.6,-193.68C604.62,-175.6 597.94,-152.63 583,-138 525.08,-81.3 433.33,-59.56 365.94,-51.32"/>
<polygon fill="none" stroke="#404040" points="366.06,-51.33 359.65,-54.64 354.13,-49.99 360.54,-46.69 366.06,-51.33"/>
<text text-anchor="middle" x="582" y="-112" font-family="Helvetica,sans-Serif" font-size="10.00"> &#45;gameFont</text>
</g>
</g>
</svg>
