<?xml version="1.0" encoding="UTF-8" standalone="no"?>
<!DOCTYPE svg PUBLIC "-//W3C//DTD SVG 1.1//EN"
 "http://www.w3.org/Graphics/SVG/1.1/DTD/svg11.dtd">
<!-- Generated by graphviz version 8.0.3 (0)
 -->
<!-- Title: objects.Obstacle Pages: 1 -->
<svg width="490pt" height="1000pt"
 viewBox="0.00 0.00 489.50 1000.00" xmlns="http://www.w3.org/2000/svg" xmlns:xlink="http://www.w3.org/1999/xlink">
<g id="graph0" class="graph" transform="scale(1 1) rotate(0) translate(4 996)">
<title>objects.Obstacle</title>
<!-- Node1 -->
<g id="node1" class="node">
<title>Node1</title>
<g id="a_node1"><a xlink:title=" ">
<polygon fill="#999999" stroke="#666666" points="137.5,-0.5 137.5,-90.5 383.5,-90.5 383.5,-0.5 137.5,-0.5"/>
<text text-anchor="middle" x="260.5" y="-78.5" font-family="Helvetica,sans-Serif" font-size="10.00">objects.Obstacle</text>
<polyline fill="none" stroke="#666666" points="137.5,-71.5 383.5,-71.5"/>
<text text-anchor="start" x="145.5" y="-59.5" font-family="Helvetica,sans-Serif" font-size="10.00">+ static final double obestacleWidth</text>
<polyline fill="none" stroke="#666666" points="137.5,-52.5 383.5,-52.5"/>
<text text-anchor="start" x="145.5" y="-40.5" font-family="Helvetica,sans-Serif" font-size="10.00">+ Obstacle(Block.Lane lane, double y, double length)</text>
<text text-anchor="start" x="145.5" y="-29.5" font-family="Helvetica,sans-Serif" font-size="10.00">+ void addY(double diff)</text>
<text text-anchor="start" x="145.5" y="-18.5" font-family="Helvetica,sans-Serif" font-size="10.00">+ boolean isOffTheScreen()</text>
<text text-anchor="start" x="145.5" y="-7.5" font-family="Helvetica,sans-Serif" font-size="10.00">+ void Draw()</text>
</a>
</g>
</g>
<!-- Node2 -->
<g id="node2" class="node">
<title>Node2</title>
<g id="a_node2"><a xlink:href="classobjects_1_1GameLaneObject.html" target="_top" xlink:title=" ">
<polygon fill="white" stroke="#666666" points="88.5,-128.5 88.5,-262.5 432.5,-262.5 432.5,-128.5 88.5,-128.5"/>
<text text-anchor="middle" x="260.5" y="-250.5" font-family="Helvetica,sans-Serif" font-size="10.00">objects.GameLaneObject</text>
<polyline fill="none" stroke="#666666" points="88.5,-243.5 432.5,-243.5"/>
<text text-anchor="middle" x="260.5" y="-231.5" font-family="Helvetica,sans-Serif" font-size="10.00"> </text>
<polyline fill="none" stroke="#666666" points="88.5,-224.5 432.5,-224.5"/>
<text text-anchor="start" x="96.5" y="-212.5" font-family="Helvetica,sans-Serif" font-size="10.00">+ GameLaneObject(Block.Lane lane, double y, double width, double length)</text>
<text text-anchor="start" x="96.5" y="-201.5" font-family="Helvetica,sans-Serif" font-size="10.00">+ GameLaneObject(Block.Lane lane, double y, double cubeLength)</text>
<text text-anchor="start" x="96.5" y="-190.5" font-family="Helvetica,sans-Serif" font-size="10.00">+ void setLane(Block.Lane path)</text>
<text text-anchor="start" x="96.5" y="-179.5" font-family="Helvetica,sans-Serif" font-size="10.00">+ Block.Lane getLane()</text>
<text text-anchor="start" x="96.5" y="-168.5" font-family="Helvetica,sans-Serif" font-size="10.00">+ void Draw()</text>
<text text-anchor="start" x="96.5" y="-157.5" font-family="Helvetica,sans-Serif" font-size="10.00">+ boolean contains(Block.Lane lane, double y)</text>
<text text-anchor="start" x="96.5" y="-146.5" font-family="Helvetica,sans-Serif" font-size="10.00">+ boolean touches(GameLaneObject other)</text>
<text text-anchor="start" x="96.5" y="-135.5" font-family="Helvetica,sans-Serif" font-size="10.00">+ double distance(GameLaneObject other)</text>
</a>
</g>
</g>
<!-- Node2&#45;&gt;Node1 -->
<g id="edge1" class="edge">
<title>Node2&#45;&gt;Node1</title>
<path fill="none" stroke="#63b8ff" d="M260.5,-117.73C260.5,-108.37 260.5,-99.06 260.5,-90.41"/>
<polygon fill="none" stroke="#63b8ff" points="257,-117.72 260.5,-127.72 264,-117.72 257,-117.72"/>
</g>
<!-- Node3 -->
<g id="node3" class="node">
<title>Node3</title>
<g id="a_node3"><a xlink:href="classobjects_1_1GameObject.html" target="_top" xlink:title=" ">
<polygon fill="white" stroke="#666666" points="0,-300.5 0,-566.5 323,-566.5 323,-300.5 0,-300.5"/>
<text text-anchor="middle" x="161.5" y="-554.5" font-family="Helvetica,sans-Serif" font-size="10.00">objects.GameObject</text>
<polyline fill="none" stroke="#666666" points="0,-547.5 323,-547.5"/>
<text text-anchor="start" x="8" y="-535.5" font-family="Helvetica,sans-Serif" font-size="10.00"># double x</text>
<text text-anchor="start" x="8" y="-524.5" font-family="Helvetica,sans-Serif" font-size="10.00"># double y</text>
<text text-anchor="start" x="8" y="-513.5" font-family="Helvetica,sans-Serif" font-size="10.00"># double width</text>
<text text-anchor="start" x="8" y="-502.5" font-family="Helvetica,sans-Serif" font-size="10.00"># double length</text>
<polyline fill="none" stroke="#666666" points="0,-495.5 323,-495.5"/>
<text text-anchor="start" x="8" y="-483.5" font-family="Helvetica,sans-Serif" font-size="10.00">+ GameObject(double x, double y, double width, double length)</text>
<text text-anchor="start" x="8" y="-472.5" font-family="Helvetica,sans-Serif" font-size="10.00">+ GameObject(Block.Lane lane, double y, double width, double length)</text>
<text text-anchor="start" x="8" y="-461.5" font-family="Helvetica,sans-Serif" font-size="10.00">+ GameObject(Block.Lane lane, double y, double cubeLength)</text>
<text text-anchor="start" x="8" y="-450.5" font-family="Helvetica,sans-Serif" font-size="10.00">+ GameObject(double x, double y, double cubeLength)</text>
<text text-anchor="start" x="8" y="-439.5" font-family="Helvetica,sans-Serif" font-size="10.00">+ double getWidth()</text>
<text text-anchor="start" x="8" y="-428.5" font-family="Helvetica,sans-Serif" font-size="10.00">+ double getLength()</text>
<text text-anchor="start" x="8" y="-417.5" font-family="Helvetica,sans-Serif" font-size="10.00">+ void setColor(Color color)</text>
<text text-anchor="start" x="8" y="-406.5" font-family="Helvetica,sans-Serif" font-size="10.00">+ void setLane(Block.Lane path)</text>
<text text-anchor="start" x="8" y="-395.5" font-family="Helvetica,sans-Serif" font-size="10.00">+ Block.Lane getLane()</text>
<text text-anchor="start" x="8" y="-384.5" font-family="Helvetica,sans-Serif" font-size="10.00">+ void setX(double x)</text>
<text text-anchor="start" x="8" y="-373.5" font-family="Helvetica,sans-Serif" font-size="10.00">+ void setY(double y)</text>
<text text-anchor="start" x="8" y="-362.5" font-family="Helvetica,sans-Serif" font-size="10.00">+ double getY()</text>
<text text-anchor="start" x="8" y="-351.5" font-family="Helvetica,sans-Serif" font-size="10.00">+ double getX()</text>
<text text-anchor="start" x="8" y="-340.5" font-family="Helvetica,sans-Serif" font-size="10.00">+ void Draw()</text>
<text text-anchor="start" x="8" y="-329.5" font-family="Helvetica,sans-Serif" font-size="10.00">+ boolean interesects(double x, double y)</text>
<text text-anchor="start" x="8" y="-318.5" font-family="Helvetica,sans-Serif" font-size="10.00">+ boolean interesects(Block.Lane lane, double y)</text>
<text text-anchor="start" x="8" y="-307.5" font-family="Helvetica,sans-Serif" font-size="10.00">+ boolean touches(GameObject other)</text>
</a>
</g>
</g>
<!-- Node3&#45;&gt;Node2 -->
<g id="edge2" class="edge">
<title>Node3&#45;&gt;Node2</title>
<path fill="none" stroke="#63b8ff" d="M220.92,-290.86C225.02,-281.08 229.03,-271.52 232.82,-262.48"/>
<polygon fill="none" stroke="#63b8ff" points="217.43,-289.12 216.79,-299.7 223.88,-291.83 217.43,-289.12"/>
</g>
<!-- Node4 -->
<g id="node4" class="node">
<title>Node4</title>
<g id="a_node4"><a xlink:title=" ">
<polygon fill="white" stroke="#666666" points="89.5,-658.5 89.5,-715.5 129.5,-715.5 129.5,-658.5 89.5,-658.5"/>
<text text-anchor="middle" x="109.5" y="-703.5" font-family="Helvetica,sans-Serif" font-size="10.00">Color</text>
<polyline fill="none" stroke="#666666" points="89.5,-696.5 129.5,-696.5"/>
<text text-anchor="middle" x="109.5" y="-684.5" font-family="Helvetica,sans-Serif" font-size="10.00"> </text>
<polyline fill="none" stroke="#666666" points="89.5,-677.5 129.5,-677.5"/>
<text text-anchor="middle" x="109.5" y="-665.5" font-family="Helvetica,sans-Serif" font-size="10.00"> </text>
</a>
</g>
</g>
<!-- Node4&#45;&gt;Node3 -->
<g id="edge3" class="edge">
<title>Node4&#45;&gt;Node3</title>
<path fill="none" stroke="#404040" d="M115.16,-658.61C119.32,-638.52 125.31,-609.54 131.61,-579.04"/>
<polygon fill="none" stroke="#404040" points="131.62,-579.01 128.92,-572.32 134.05,-567.25 136.75,-573.94 131.62,-579.01"/>
<text text-anchor="middle" x="143.5" y="-588" font-family="Helvetica,sans-Serif" font-size="10.00"> #color</text>
</g>
<!-- Node5 -->
<g id="node5" class="node">
<title>Node5</title>
<g id="a_node5"><a xlink:title=" ">
<polygon fill="white" stroke="#666666" points="147.5,-658.5 147.5,-715.5 191.5,-715.5 191.5,-658.5 147.5,-658.5"/>
<text text-anchor="middle" x="169.5" y="-703.5" font-family="Helvetica,sans-Serif" font-size="10.00">Image</text>
<polyline fill="none" stroke="#666666" points="147.5,-696.5 191.5,-696.5"/>
<text text-anchor="middle" x="169.5" y="-684.5" font-family="Helvetica,sans-Serif" font-size="10.00"> </text>
<polyline fill="none" stroke="#666666" points="147.5,-677.5 191.5,-677.5"/>
<text text-anchor="middle" x="169.5" y="-665.5" font-family="Helvetica,sans-Serif" font-size="10.00"> </text>
</a>
</g>
</g>
<!-- Node5&#45;&gt;Node3 -->
<g id="edge4" class="edge">
<title>Node5&#45;&gt;Node3</title>
<path fill="none" stroke="#404040" d="M168.63,-658.61C167.99,-638.52 167.07,-609.54 166.1,-579.04"/>
<polygon fill="none" stroke="#404040" points="166.11,-579.27 161.92,-573.4 165.72,-567.27 169.91,-573.14 166.11,-579.27"/>
<text text-anchor="middle" x="183" y="-588" font-family="Helvetica,sans-Serif" font-size="10.00"> #image</text>
</g>
<!-- Node6 -->
<g id="node6" class="node">
<title>Node6</title>
<g id="a_node6"><a xlink:href="classobjects_1_1Block.html" target="_top" xlink:title=" ">
<polygon fill="white" stroke="#666666" points="223.5,-614.5 223.5,-759.5 481.5,-759.5 481.5,-614.5 223.5,-614.5"/>
<text text-anchor="middle" x="352.5" y="-747.5" font-family="Helvetica,sans-Serif" font-size="10.00">objects.Block</text>
<polyline fill="none" stroke="#666666" points="223.5,-740.5 481.5,-740.5"/>
<text text-anchor="start" x="231.5" y="-728.5" font-family="Helvetica,sans-Serif" font-size="10.00">+ static final double speed</text>
<text text-anchor="start" x="231.5" y="-717.5" font-family="Helvetica,sans-Serif" font-size="10.00">&#45; double currentY</text>
<polyline fill="none" stroke="#666666" points="223.5,-710.5 481.5,-710.5"/>
<text text-anchor="start" x="231.5" y="-698.5" font-family="Helvetica,sans-Serif" font-size="10.00">+ Block(ArrayList&lt; Obstacle &gt; left, ArrayList&lt; Obstacle</text>
<text text-anchor="start" x="231.5" y="-687.5" font-family="Helvetica,sans-Serif" font-size="10.00"> &gt; center, ArrayList&lt; Obstacle &gt; right)</text>
<text text-anchor="start" x="231.5" y="-676.5" font-family="Helvetica,sans-Serif" font-size="10.00">+ double getCurrentY()</text>
<text text-anchor="start" x="231.5" y="-665.5" font-family="Helvetica,sans-Serif" font-size="10.00">+ ArrayList&lt; Obstacle &gt; getLane(Lane lane)</text>
<text text-anchor="start" x="231.5" y="-654.5" font-family="Helvetica,sans-Serif" font-size="10.00">+ ArrayList&lt; Obstacle &gt; getLeftLane()</text>
<text text-anchor="start" x="231.5" y="-643.5" font-family="Helvetica,sans-Serif" font-size="10.00">+ ArrayList&lt; Obstacle &gt; getCenterLane()</text>
<text text-anchor="start" x="231.5" y="-632.5" font-family="Helvetica,sans-Serif" font-size="10.00">+ ArrayList&lt; Obstacle &gt; getRightLane()</text>
<text text-anchor="start" x="231.5" y="-621.5" font-family="Helvetica,sans-Serif" font-size="10.00">+ void frameUpdate()</text>
</a>
</g>
</g>
<!-- Node6&#45;&gt;Node2 -->
<g id="edge8" class="edge">
<title>Node6&#45;&gt;Node2</title>
<path fill="none" stroke="#404040" d="M360.25,-614.78C366.29,-535.61 368.46,-405.07 332.5,-300 329.42,-291 325.31,-282.07 320.61,-273.45"/>
<polygon fill="none" stroke="#404040" points="320.62,-273.47 314.14,-270.3 314.58,-263.1 321.06,-266.27 320.62,-273.47"/>
<text text-anchor="middle" x="377" y="-431" font-family="Helvetica,sans-Serif" font-size="10.00"> #lane</text>
</g>
<!-- Node6&#45;&gt;Node3 -->
<g id="edge5" class="edge">
<title>Node6&#45;&gt;Node3</title>
<path fill="none" stroke="#404040" d="M298.28,-614.6C289.05,-602.45 279.19,-589.46 269.14,-576.23"/>
<polygon fill="none" stroke="#404040" points="269.23,-576.35 262.42,-573.99 261.97,-566.8 268.79,-569.16 269.23,-576.35"/>
<text text-anchor="middle" x="293" y="-588" font-family="Helvetica,sans-Serif" font-size="10.00"> #lane</text>
</g>
<!-- Node7 -->
<g id="node7" class="node">
<title>Node7</title>
<g id="a_node7"><a xlink:title=" ">
<polygon fill="white" stroke="#666666" points="279,-829.5 279,-886.5 426,-886.5 426,-829.5 279,-829.5"/>
<text text-anchor="middle" x="352.5" y="-874.5" font-family="Helvetica,sans-Serif" font-size="10.00">ArrayList&lt; objects.Obstacle &gt;</text>
<polyline fill="none" stroke="#666666" points="279,-867.5 426,-867.5"/>
<text text-anchor="middle" x="352.5" y="-855.5" font-family="Helvetica,sans-Serif" font-size="10.00"> </text>
<polyline fill="none" stroke="#666666" points="279,-848.5 426,-848.5"/>
<text text-anchor="middle" x="352.5" y="-836.5" font-family="Helvetica,sans-Serif" font-size="10.00"> </text>
</a>
</g>
</g>
<!-- Node7&#45;&gt;Node6 -->
<g id="edge6" class="edge">
<title>Node7&#45;&gt;Node6</title>
<path fill="none" stroke="#404040" d="M352.5,-829.85C352.5,-814.01 352.5,-793.08 352.5,-772.17"/>
<polygon fill="none" stroke="#404040" points="352.5,-772.11 348.5,-766.11 352.5,-760.11 356.5,-766.11 352.5,-772.11"/>
<text text-anchor="middle" x="369.5" y="-803" font-family="Helvetica,sans-Serif" font-size="10.00"> &#45;center</text>
<text text-anchor="middle" x="369.5" y="-792" font-family="Helvetica,sans-Serif" font-size="10.00">&#45;left</text>
<text text-anchor="middle" x="369.5" y="-781" font-family="Helvetica,sans-Serif" font-size="10.00">&#45;right</text>
</g>
<!-- Node8 -->
<g id="node8" class="node">
<title>Node8</title>
<g id="a_node8"><a xlink:title=" ">
<polygon fill="white" stroke="#666666" points="324.5,-934.5 324.5,-991.5 380.5,-991.5 380.5,-934.5 324.5,-934.5"/>
<text text-anchor="middle" x="352.5" y="-979.5" font-family="Helvetica,sans-Serif" font-size="10.00">ArrayList</text>
<polyline fill="none" stroke="#666666" points="324.5,-972.5 380.5,-972.5"/>
<text text-anchor="middle" x="352.5" y="-960.5" font-family="Helvetica,sans-Serif" font-size="10.00"> </text>
<polyline fill="none" stroke="#666666" points="324.5,-953.5 380.5,-953.5"/>
<text text-anchor="middle" x="352.5" y="-941.5" font-family="Helvetica,sans-Serif" font-size="10.00"> </text>
</a>
</g>
</g>
<!-- Node8&#45;&gt;Node7 -->
<g id="edge7" class="edge">
<title>Node8&#45;&gt;Node7</title>
<path fill="none" stroke="orange" d="M352.5,-923.71C352.5,-911.34 352.5,-897.88 352.5,-886.46"/>
<polygon fill="orange" stroke="orange" points="349,-923.67 352.5,-933.67 356,-923.67 349,-923.67"/>
<text text-anchor="middle" x="401.5" y="-908" font-family="Helvetica,sans-Serif" font-size="10.00"> &lt; objects::Obstacle &gt;</text>
</g>
</g>
</svg>
