<?xml version="1.0" encoding="UTF-8" standalone="no"?>
<!DOCTYPE svg PUBLIC "-//W3C//DTD SVG 1.1//EN"
 "http://www.w3.org/Graphics/SVG/1.1/DTD/svg11.dtd">
<!-- Generated by graphviz version 8.0.3 (0)
 -->
<!-- Title: objects.GameLaneObject Pages: 1 -->
<svg width="490pt" height="839pt"
 viewBox="0.00 0.00 489.50 839.00" xmlns="http://www.w3.org/2000/svg" xmlns:xlink="http://www.w3.org/1999/xlink">
<g id="graph0" class="graph" transform="scale(1 1) rotate(0) translate(4 835)">
<title>objects.GameLaneObject</title>
<!-- Node1 -->
<g id="node1" class="node">
<title>Node1</title>
<g id="a_node1"><a xlink:title=" ">
<polygon fill="#999999" stroke="#666666" points="88.5,-0.5 88.5,-123.5 432.5,-123.5 432.5,-0.5 88.5,-0.5"/>
<text text-anchor="middle" x="260.5" y="-111.5" font-family="Helvetica,sans-Serif" font-size="10.00">objects.GameLaneObject</text>
<polyline fill="none" stroke="#666666" points="88.5,-104.5 432.5,-104.5"/>
<text text-anchor="middle" x="260.5" y="-92.5" font-family="Helvetica,sans-Serif" font-size="10.00"> </text>
<polyline fill="none" stroke="#666666" points="88.5,-85.5 432.5,-85.5"/>
<text text-anchor="start" x="96.5" y="-73.5" font-family="Helvetica,sans-Serif" font-size="10.00">+ GameLaneObject(Block.Lane lane, double y, double width, double length)</text>
<text text-anchor="start" x="96.5" y="-62.5" font-family="Helvetica,sans-Serif" font-size="10.00">+ GameLaneObject(Block.Lane lane, double y, double cubeLength)</text>
<text text-anchor="start" x="96.5" y="-51.5" font-family="Helvetica,sans-Serif" font-size="10.00">+ void setLanePath(Block.Lane path)</text>
<text text-anchor="start" x="96.5" y="-40.5" font-family="Helvetica,sans-Serif" font-size="10.00">+ Block.Lane getLane()</text>
<text text-anchor="start" x="96.5" y="-29.5" font-family="Helvetica,sans-Serif" font-size="10.00">+ void Draw()</text>
<text text-anchor="start" x="96.5" y="-18.5" font-family="Helvetica,sans-Serif" font-size="10.00">+ boolean contains(Block.Lane lane, double y)</text>
<text text-anchor="start" x="96.5" y="-7.5" font-family="Helvetica,sans-Serif" font-size="10.00">+ boolean touches(GameLaneObject other)</text>
</a>
</g>
</g>
<!-- Node2 -->
<g id="node2" class="node">
<title>Node2</title>
<g id="a_node2"><a xlink:href="classobjects_1_1GameObject.html" target="_top" xlink:title=" ">
<polygon fill="white" stroke="#666666" points="0,-161.5 0,-438.5 323,-438.5 323,-161.5 0,-161.5"/>
<text text-anchor="middle" x="161.5" y="-426.5" font-family="Helvetica,sans-Serif" font-size="10.00">objects.GameObject</text>
<polyline fill="none" stroke="#666666" points="0,-419.5 323,-419.5"/>
<text text-anchor="start" x="8" y="-407.5" font-family="Helvetica,sans-Serif" font-size="10.00"># double x</text>
<text text-anchor="start" x="8" y="-396.5" font-family="Helvetica,sans-Serif" font-size="10.00"># double y</text>
<text text-anchor="start" x="8" y="-385.5" font-family="Helvetica,sans-Serif" font-size="10.00"># double width</text>
<text text-anchor="start" x="8" y="-374.5" font-family="Helvetica,sans-Serif" font-size="10.00"># double length</text>
<polyline fill="none" stroke="#666666" points="0,-367.5 323,-367.5"/>
<text text-anchor="start" x="8" y="-355.5" font-family="Helvetica,sans-Serif" font-size="10.00">+ GameObject(double x, double y, double width, double length)</text>
<text text-anchor="start" x="8" y="-344.5" font-family="Helvetica,sans-Serif" font-size="10.00">+ GameObject(Block.Lane lane, double y, double width, double length)</text>
<text text-anchor="start" x="8" y="-333.5" font-family="Helvetica,sans-Serif" font-size="10.00">+ GameObject(Block.Lane lane, double y, double cubeLength)</text>
<text text-anchor="start" x="8" y="-322.5" font-family="Helvetica,sans-Serif" font-size="10.00">+ GameObject(double x, double y, double cubeLength)</text>
<text text-anchor="start" x="8" y="-311.5" font-family="Helvetica,sans-Serif" font-size="10.00">+ double getWidth()</text>
<text text-anchor="start" x="8" y="-300.5" font-family="Helvetica,sans-Serif" font-size="10.00">+ double getLength()</text>
<text text-anchor="start" x="8" y="-289.5" font-family="Helvetica,sans-Serif" font-size="10.00">+ void setColor(Color color)</text>
<text text-anchor="start" x="8" y="-278.5" font-family="Helvetica,sans-Serif" font-size="10.00">+ void setLanePath(Block.Lane path)</text>
<text text-anchor="start" x="8" y="-267.5" font-family="Helvetica,sans-Serif" font-size="10.00">+ Block.Lane getLane()</text>
<text text-anchor="start" x="8" y="-256.5" font-family="Helvetica,sans-Serif" font-size="10.00">+ void setX(double x)</text>
<text text-anchor="start" x="8" y="-245.5" font-family="Helvetica,sans-Serif" font-size="10.00">+ void setY(double y)</text>
<text text-anchor="start" x="8" y="-234.5" font-family="Helvetica,sans-Serif" font-size="10.00">+ double getY()</text>
<text text-anchor="start" x="8" y="-223.5" font-family="Helvetica,sans-Serif" font-size="10.00">+ double getX()</text>
<text text-anchor="start" x="8" y="-212.5" font-family="Helvetica,sans-Serif" font-size="10.00">+ void Draw()</text>
<text text-anchor="start" x="8" y="-201.5" font-family="Helvetica,sans-Serif" font-size="10.00">+ boolean interesects(double x, double y)</text>
<text text-anchor="start" x="8" y="-190.5" font-family="Helvetica,sans-Serif" font-size="10.00">+ boolean interesects(Block.Lane lane, double y)</text>
<text text-anchor="start" x="8" y="-179.5" font-family="Helvetica,sans-Serif" font-size="10.00">+ boolean touches(GameObject other)</text>
<text text-anchor="start" x="8" y="-168.5" font-family="Helvetica,sans-Serif" font-size="10.00">+ boolean within(GameObject other)</text>
</a>
</g>
</g>
<!-- Node2&#45;&gt;Node1 -->
<g id="edge1" class="edge">
<title>Node2&#45;&gt;Node1</title>
<path fill="none" stroke="#63b8ff" d="M223.27,-151.75C227.41,-141.88 231.43,-132.29 235.21,-123.3"/>
<polygon fill="none" stroke="#63b8ff" points="219.73,-150.14 219.09,-160.72 226.18,-152.85 219.73,-150.14"/>
</g>
<!-- Node3 -->
<g id="node3" class="node">
<title>Node3</title>
<g id="a_node3"><a xlink:title=" ">
<polygon fill="white" stroke="#666666" points="89.5,-514 89.5,-571 129.5,-571 129.5,-514 89.5,-514"/>
<text text-anchor="middle" x="109.5" y="-559" font-family="Helvetica,sans-Serif" font-size="10.00">Color</text>
<polyline fill="none" stroke="#666666" points="89.5,-552 129.5,-552"/>
<text text-anchor="middle" x="109.5" y="-540" font-family="Helvetica,sans-Serif" font-size="10.00"> </text>
<polyline fill="none" stroke="#666666" points="89.5,-533 129.5,-533"/>
<text text-anchor="middle" x="109.5" y="-521" font-family="Helvetica,sans-Serif" font-size="10.00"> </text>
</a>
</g>
</g>
<!-- Node3&#45;&gt;Node2 -->
<g id="edge2" class="edge">
<title>Node3&#45;&gt;Node2</title>
<path fill="none" stroke="#404040" d="M115.36,-514.38C118.94,-497.83 123.83,-475.21 129.1,-450.87"/>
<polygon fill="none" stroke="#404040" points="129.07,-451.01 126.42,-444.3 131.6,-439.28 134.24,-445.99 129.07,-451.01"/>
<text text-anchor="middle" x="140.5" y="-460" font-family="Helvetica,sans-Serif" font-size="10.00"> #color</text>
</g>
<!-- Node4 -->
<g id="node4" class="node">
<title>Node4</title>
<g id="a_node4"><a xlink:title=" ">
<polygon fill="white" stroke="#666666" points="147.5,-514 147.5,-571 191.5,-571 191.5,-514 147.5,-514"/>
<text text-anchor="middle" x="169.5" y="-559" font-family="Helvetica,sans-Serif" font-size="10.00">Image</text>
<polyline fill="none" stroke="#666666" points="147.5,-552 191.5,-552"/>
<text text-anchor="middle" x="169.5" y="-540" font-family="Helvetica,sans-Serif" font-size="10.00"> </text>
<polyline fill="none" stroke="#666666" points="147.5,-533 191.5,-533"/>
<text text-anchor="middle" x="169.5" y="-521" font-family="Helvetica,sans-Serif" font-size="10.00"> </text>
</a>
</g>
</g>
<!-- Node4&#45;&gt;Node2 -->
<g id="edge3" class="edge">
<title>Node4&#45;&gt;Node2</title>
<path fill="none" stroke="#404040" d="M168.6,-514.38C168.05,-497.9 167.3,-475.42 166.5,-451.2"/>
<polygon fill="none" stroke="#404040" points="166.5,-451.29 162.3,-445.43 166.1,-439.3 170.3,-445.16 166.5,-451.29"/>
<text text-anchor="middle" x="184" y="-460" font-family="Helvetica,sans-Serif" font-size="10.00"> #image</text>
</g>
<!-- Node5 -->
<g id="node5" class="node">
<title>Node5</title>
<g id="a_node5"><a xlink:href="classobjects_1_1Block.html" target="_top" xlink:title=" ">
<polygon fill="white" stroke="#666666" points="223.5,-486.5 223.5,-598.5 481.5,-598.5 481.5,-486.5 223.5,-486.5"/>
<text text-anchor="middle" x="352.5" y="-586.5" font-family="Helvetica,sans-Serif" font-size="10.00">objects.Block</text>
<polyline fill="none" stroke="#666666" points="223.5,-579.5 481.5,-579.5"/>
<text text-anchor="start" x="231.5" y="-567.5" font-family="Helvetica,sans-Serif" font-size="10.00">+ static final double speed</text>
<text text-anchor="start" x="231.5" y="-556.5" font-family="Helvetica,sans-Serif" font-size="10.00">&#45; double currentY</text>
<polyline fill="none" stroke="#666666" points="223.5,-549.5 481.5,-549.5"/>
<text text-anchor="start" x="231.5" y="-537.5" font-family="Helvetica,sans-Serif" font-size="10.00">+ Block(ArrayList&lt; Obstacle &gt; left, ArrayList&lt; Obstacle</text>
<text text-anchor="start" x="231.5" y="-526.5" font-family="Helvetica,sans-Serif" font-size="10.00"> &gt; center, ArrayList&lt; Obstacle &gt; right)</text>
<text text-anchor="start" x="231.5" y="-515.5" font-family="Helvetica,sans-Serif" font-size="10.00">+ void frameUpdate()</text>
<text text-anchor="start" x="231.5" y="-504.5" font-family="Helvetica,sans-Serif" font-size="10.00">+ double getCurrentY()</text>
<text text-anchor="start" x="231.5" y="-493.5" font-family="Helvetica,sans-Serif" font-size="10.00">+ ArrayList&lt; Obstacle &gt; getLane(Lane lane)</text>
</a>
</g>
</g>
<!-- Node5&#45;&gt;Node1 -->
<g id="edge7" class="edge">
<title>Node5&#45;&gt;Node1</title>
<path fill="none" stroke="#404040" d="M359.21,-486.66C366.37,-410.95 371.89,-271.26 332.5,-161 329.27,-151.95 324.9,-143.01 319.92,-134.44"/>
<polygon fill="none" stroke="#404040" points="319.86,-134.35 313.3,-131.38 313.52,-124.17 320.09,-127.15 319.86,-134.35"/>
<text text-anchor="middle" x="377" y="-297.5" font-family="Helvetica,sans-Serif" font-size="10.00"> #lane</text>
</g>
<!-- Node5&#45;&gt;Node2 -->
<g id="edge4" class="edge">
<title>Node5&#45;&gt;Node2</title>
<path fill="none" stroke="#404040" d="M308.92,-486.63C299.53,-474.8 289.18,-461.76 278.44,-448.25"/>
<polygon fill="none" stroke="#404040" points="278.59,-448.43 271.72,-446.22 271.13,-439.04 277.99,-441.25 278.59,-448.43"/>
<text text-anchor="middle" x="304" y="-460" font-family="Helvetica,sans-Serif" font-size="10.00"> #lane</text>
</g>
<!-- Node6 -->
<g id="node6" class="node">
<title>Node6</title>
<g id="a_node6"><a xlink:title=" ">
<polygon fill="white" stroke="#666666" points="279,-668.5 279,-725.5 426,-725.5 426,-668.5 279,-668.5"/>
<text text-anchor="middle" x="352.5" y="-713.5" font-family="Helvetica,sans-Serif" font-size="10.00">ArrayList&lt; objects.Obstacle &gt;</text>
<polyline fill="none" stroke="#666666" points="279,-706.5 426,-706.5"/>
<text text-anchor="middle" x="352.5" y="-694.5" font-family="Helvetica,sans-Serif" font-size="10.00"> </text>
<polyline fill="none" stroke="#666666" points="279,-687.5 426,-687.5"/>
<text text-anchor="middle" x="352.5" y="-675.5" font-family="Helvetica,sans-Serif" font-size="10.00"> </text>
</a>
</g>
</g>
<!-- Node6&#45;&gt;Node5 -->
<g id="edge5" class="edge">
<title>Node6&#45;&gt;Node5</title>
<path fill="none" stroke="#404040" d="M352.5,-668.74C352.5,-652.64 352.5,-631.48 352.5,-611.16"/>
<polygon fill="none" stroke="#404040" points="352.5,-611.22 348.5,-605.22 352.5,-599.22 356.5,-605.22 352.5,-611.22"/>
<text text-anchor="middle" x="371" y="-642" font-family="Helvetica,sans-Serif" font-size="10.00"> +center</text>
<text text-anchor="middle" x="371" y="-631" font-family="Helvetica,sans-Serif" font-size="10.00">+left</text>
<text text-anchor="middle" x="371" y="-620" font-family="Helvetica,sans-Serif" font-size="10.00">+right</text>
</g>
<!-- Node7 -->
<g id="node7" class="node">
<title>Node7</title>
<g id="a_node7"><a xlink:title=" ">
<polygon fill="white" stroke="#666666" points="324.5,-773.5 324.5,-830.5 380.5,-830.5 380.5,-773.5 324.5,-773.5"/>
<text text-anchor="middle" x="352.5" y="-818.5" font-family="Helvetica,sans-Serif" font-size="10.00">ArrayList</text>
<polyline fill="none" stroke="#666666" points="324.5,-811.5 380.5,-811.5"/>
<text text-anchor="middle" x="352.5" y="-799.5" font-family="Helvetica,sans-Serif" font-size="10.00"> </text>
<polyline fill="none" stroke="#666666" points="324.5,-792.5 380.5,-792.5"/>
<text text-anchor="middle" x="352.5" y="-780.5" font-family="Helvetica,sans-Serif" font-size="10.00"> </text>
</a>
</g>
</g>
<!-- Node7&#45;&gt;Node6 -->
<g id="edge6" class="edge">
<title>Node7&#45;&gt;Node6</title>
<path fill="none" stroke="orange" d="M352.5,-762.71C352.5,-750.34 352.5,-736.88 352.5,-725.46"/>
<polygon fill="orange" stroke="orange" points="349,-762.67 352.5,-772.67 356,-762.67 349,-762.67"/>
<text text-anchor="middle" x="401.5" y="-747" font-family="Helvetica,sans-Serif" font-size="10.00"> &lt; objects::Obstacle &gt;</text>
</g>
</g>
</svg>
