<?xml version="1.0" encoding="UTF-8" standalone="no"?>
<!DOCTYPE svg PUBLIC "-//W3C//DTD SVG 1.1//EN"
 "http://www.w3.org/Graphics/SVG/1.1/DTD/svg11.dtd">
<!-- Generated by graphviz version 3.0.0 (20221109.1736)
 -->
<!-- Title: eu.anwar.madrunner.objects.menus.GamePause Pages: 1 -->
<svg width="430pt" height="894pt"
 viewBox="0.00 0.00 429.50 894.00" xmlns="http://www.w3.org/2000/svg" xmlns:xlink="http://www.w3.org/1999/xlink">
<g id="graph0" class="graph" transform="scale(1 1) rotate(0) translate(4 890)">
<title>eu.anwar.madrunner.objects.menus.GamePause</title>
<polygon fill="white" stroke="transparent" points="-4,4 -4,-890 425.5,-890 425.5,4 -4,4"/>
<!-- Node1 -->
<g id="node1" class="node">
<title>Node1</title>
<g id="a_node1"><a xlink:title=" ">
<polygon fill="#bfbfbf" stroke="black" points="60.5,-0.5 60.5,-134.5 308.5,-134.5 308.5,-0.5 60.5,-0.5"/>
<text text-anchor="middle" x="184.5" y="-122.5" font-family="Helvetica,sans-Serif" font-size="10.00">eu.anwar.madrunner.objects.menus.GamePause</text>
<polyline fill="none" stroke="black" points="60.5,-115.5 308.5,-115.5 "/>
<text text-anchor="start" x="68.5" y="-103.5" font-family="Helvetica,sans-Serif" font-size="10.00"># String centerTxt</text>
<text text-anchor="start" x="68.5" y="-92.5" font-family="Helvetica,sans-Serif" font-size="10.00">&#45; Boolean enabled</text>
<polyline fill="none" stroke="black" points="60.5,-85.5 308.5,-85.5 "/>
<text text-anchor="start" x="68.5" y="-73.5" font-family="Helvetica,sans-Serif" font-size="10.00">+ GamePause()</text>
<text text-anchor="start" x="68.5" y="-62.5" font-family="Helvetica,sans-Serif" font-size="10.00">+ void enable()</text>
<text text-anchor="start" x="68.5" y="-51.5" font-family="Helvetica,sans-Serif" font-size="10.00">+ void disable()</text>
<text text-anchor="start" x="68.5" y="-40.5" font-family="Helvetica,sans-Serif" font-size="10.00">+ Boolean isEnabled()</text>
<text text-anchor="start" x="68.5" y="-29.5" font-family="Helvetica,sans-Serif" font-size="10.00">+ void toggle()</text>
<text text-anchor="start" x="68.5" y="-18.5" font-family="Helvetica,sans-Serif" font-size="10.00">+ void updateDeminsions(double width, double length)</text>
<text text-anchor="start" x="68.5" y="-7.5" font-family="Helvetica,sans-Serif" font-size="10.00">+ void Draw()</text>
</a>
</g>
</g>
<!-- Node2 -->
<g id="node2" class="node">
<title>Node2</title>
<g id="a_node2"><a xlink:href="classeu_1_1anwar_1_1madrunner_1_1objects_1_1GameObject.html" target="_top" xlink:title=" ">
<polygon fill="white" stroke="black" points="26,-172.5 26,-460.5 343,-460.5 343,-172.5 26,-172.5"/>
<text text-anchor="middle" x="184.5" y="-448.5" font-family="Helvetica,sans-Serif" font-size="10.00">eu.anwar.madrunner.objects.GameObject</text>
<polyline fill="none" stroke="black" points="26,-441.5 343,-441.5 "/>
<text text-anchor="start" x="34" y="-429.5" font-family="Helvetica,sans-Serif" font-size="10.00"># double x</text>
<text text-anchor="start" x="34" y="-418.5" font-family="Helvetica,sans-Serif" font-size="10.00"># double y</text>
<text text-anchor="start" x="34" y="-407.5" font-family="Helvetica,sans-Serif" font-size="10.00"># double width</text>
<text text-anchor="start" x="34" y="-396.5" font-family="Helvetica,sans-Serif" font-size="10.00"># double length</text>
<polyline fill="none" stroke="black" points="26,-389.5 343,-389.5 "/>
<text text-anchor="start" x="34" y="-377.5" font-family="Helvetica,sans-Serif" font-size="10.00">+ GameObject(double x, double y, double width, double length)</text>
<text text-anchor="start" x="34" y="-366.5" font-family="Helvetica,sans-Serif" font-size="10.00">+ GameObject(Block.Lane lane, double y, double width, double length)</text>
<text text-anchor="start" x="34" y="-355.5" font-family="Helvetica,sans-Serif" font-size="10.00">+ GameObject(Block.Lane lane, double y, double cubeLength)</text>
<text text-anchor="start" x="34" y="-344.5" font-family="Helvetica,sans-Serif" font-size="10.00">+ GameObject(double x, double y, double cubeLength)</text>
<text text-anchor="start" x="34" y="-333.5" font-family="Helvetica,sans-Serif" font-size="10.00">+ double getWidth()</text>
<text text-anchor="start" x="34" y="-322.5" font-family="Helvetica,sans-Serif" font-size="10.00">+ double getLength()</text>
<text text-anchor="start" x="34" y="-311.5" font-family="Helvetica,sans-Serif" font-size="10.00">+ void setColor(Color color)</text>
<text text-anchor="start" x="34" y="-300.5" font-family="Helvetica,sans-Serif" font-size="10.00">+ void setLane(Block.Lane path)</text>
<text text-anchor="start" x="34" y="-289.5" font-family="Helvetica,sans-Serif" font-size="10.00">+ void setImage(Image image)</text>
<text text-anchor="start" x="34" y="-278.5" font-family="Helvetica,sans-Serif" font-size="10.00">+ Block.Lane getLane()</text>
<text text-anchor="start" x="34" y="-267.5" font-family="Helvetica,sans-Serif" font-size="10.00">+ Image getImage()</text>
<text text-anchor="start" x="34" y="-256.5" font-family="Helvetica,sans-Serif" font-size="10.00">+ void setX(double x)</text>
<text text-anchor="start" x="34" y="-245.5" font-family="Helvetica,sans-Serif" font-size="10.00">+ void setY(double y)</text>
<text text-anchor="start" x="34" y="-234.5" font-family="Helvetica,sans-Serif" font-size="10.00">+ double getY()</text>
<text text-anchor="start" x="34" y="-223.5" font-family="Helvetica,sans-Serif" font-size="10.00">+ double getX()</text>
<text text-anchor="start" x="34" y="-212.5" font-family="Helvetica,sans-Serif" font-size="10.00">+ void Draw()</text>
<text text-anchor="start" x="34" y="-201.5" font-family="Helvetica,sans-Serif" font-size="10.00">+ boolean interesects(double x, double y)</text>
<text text-anchor="start" x="34" y="-190.5" font-family="Helvetica,sans-Serif" font-size="10.00">+ boolean interesects(Block.Lane lane, double y)</text>
<text text-anchor="start" x="34" y="-179.5" font-family="Helvetica,sans-Serif" font-size="10.00">+ boolean touches(GameObject other)</text>
</a>
</g>
</g>
<!-- Node2&#45;&gt;Node1 -->
<g id="edge1" class="edge">
<title>Node2&#45;&gt;Node1</title>
<path fill="none" stroke="midnightblue" d="M184.5,-161.91C184.5,-152.52 184.5,-143.38 184.5,-134.73"/>
<polygon fill="none" stroke="midnightblue" points="181,-162.18 184.5,-172.18 188,-162.18 181,-162.18"/>
</g>
<!-- Node3 -->
<g id="node3" class="node">
<title>Node3</title>
<g id="a_node3"><a xlink:title=" ">
<polygon fill="white" stroke="black" points="0,-552.5 0,-609.5 39,-609.5 39,-552.5 0,-552.5"/>
<text text-anchor="middle" x="19.5" y="-597.5" font-family="Helvetica,sans-Serif" font-size="10.00">Color</text>
<polyline fill="none" stroke="black" points="0,-590.5 39,-590.5 "/>
<text text-anchor="middle" x="19.5" y="-578.5" font-family="Helvetica,sans-Serif" font-size="10.00"> </text>
<polyline fill="none" stroke="black" points="0,-571.5 39,-571.5 "/>
<text text-anchor="middle" x="19.5" y="-559.5" font-family="Helvetica,sans-Serif" font-size="10.00"> </text>
</a>
</g>
</g>
<!-- Node3&#45;&gt;Node2 -->
<g id="edge2" class="edge">
<title>Node3&#45;&gt;Node2</title>
<path fill="none" stroke="#404040" d="M28.9,-552.29C33.98,-538.61 40.79,-522.06 48.5,-508 55.25,-495.68 62.66,-483.22 70.43,-470.87"/>
<polygon fill="none" stroke="#404040" points="70.57,-470.64 70.43,-463.43 77.03,-460.53 77.17,-467.74 70.57,-470.64"/>
<text text-anchor="middle" x="79" y="-482" font-family="Helvetica,sans-Serif" font-size="10.00"> #color</text>
</g>
<!-- Node4 -->
<g id="node4" class="node">
<title>Node4</title>
<g id="a_node4"><a xlink:href="classeu_1_1anwar_1_1madrunner_1_1objects_1_1obstacles_1_1Block.html" target="_top" xlink:title=" ">
<polygon fill="white" stroke="black" points="57.5,-508.5 57.5,-653.5 311.5,-653.5 311.5,-508.5 57.5,-508.5"/>
<text text-anchor="middle" x="184.5" y="-641.5" font-family="Helvetica,sans-Serif" font-size="10.00">eu.anwar.madrunner.objects.obstacles.Block</text>
<polyline fill="none" stroke="black" points="57.5,-634.5 311.5,-634.5 "/>
<text text-anchor="start" x="65.5" y="-622.5" font-family="Helvetica,sans-Serif" font-size="10.00">+ static final double speed</text>
<text text-anchor="start" x="65.5" y="-611.5" font-family="Helvetica,sans-Serif" font-size="10.00">&#45; double currentY</text>
<polyline fill="none" stroke="black" points="57.5,-604.5 311.5,-604.5 "/>
<text text-anchor="start" x="65.5" y="-592.5" font-family="Helvetica,sans-Serif" font-size="10.00">+ Block(ArrayList&lt; Obstacle &gt; left, ArrayList&lt; Obstacle</text>
<text text-anchor="start" x="65.5" y="-581.5" font-family="Helvetica,sans-Serif" font-size="10.00"> &gt; center, ArrayList&lt; Obstacle &gt; right)</text>
<text text-anchor="start" x="65.5" y="-570.5" font-family="Helvetica,sans-Serif" font-size="10.00">+ double getCurrentY()</text>
<text text-anchor="start" x="65.5" y="-559.5" font-family="Helvetica,sans-Serif" font-size="10.00">+ ArrayList&lt; Obstacle &gt; getLane(Lane lane)</text>
<text text-anchor="start" x="65.5" y="-548.5" font-family="Helvetica,sans-Serif" font-size="10.00">+ ArrayList&lt; Obstacle &gt; getLeftLane()</text>
<text text-anchor="start" x="65.5" y="-537.5" font-family="Helvetica,sans-Serif" font-size="10.00">+ ArrayList&lt; Obstacle &gt; getCenterLane()</text>
<text text-anchor="start" x="65.5" y="-526.5" font-family="Helvetica,sans-Serif" font-size="10.00">+ ArrayList&lt; Obstacle &gt; getRightLane()</text>
<text text-anchor="start" x="65.5" y="-515.5" font-family="Helvetica,sans-Serif" font-size="10.00">+ void frameUpdate()</text>
</a>
</g>
</g>
<!-- Node4&#45;&gt;Node2 -->
<g id="edge3" class="edge">
<title>Node4&#45;&gt;Node2</title>
<path fill="none" stroke="#404040" d="M184.5,-508.27C184.5,-497.06 184.5,-485.11 184.5,-472.87"/>
<polygon fill="none" stroke="#404040" points="184.5,-472.55 180.5,-466.55 184.5,-460.55 188.5,-466.55 184.5,-472.55"/>
<text text-anchor="middle" x="197.5" y="-482" font-family="Helvetica,sans-Serif" font-size="10.00"> #lane</text>
</g>
<!-- Node5 -->
<g id="node5" class="node">
<title>Node5</title>
<g id="a_node5"><a xlink:title=" ">
<polygon fill="white" stroke="black" points="45.5,-723.5 45.5,-780.5 323.5,-780.5 323.5,-723.5 45.5,-723.5"/>
<text text-anchor="middle" x="184.5" y="-768.5" font-family="Helvetica,sans-Serif" font-size="10.00">ArrayList&lt; eu.anwar.madrunner.objects.obstacles.Obstacle &gt;</text>
<polyline fill="none" stroke="black" points="45.5,-761.5 323.5,-761.5 "/>
<text text-anchor="middle" x="184.5" y="-749.5" font-family="Helvetica,sans-Serif" font-size="10.00"> </text>
<polyline fill="none" stroke="black" points="45.5,-742.5 323.5,-742.5 "/>
<text text-anchor="middle" x="184.5" y="-730.5" font-family="Helvetica,sans-Serif" font-size="10.00"> </text>
</a>
</g>
</g>
<!-- Node5&#45;&gt;Node4 -->
<g id="edge4" class="edge">
<title>Node5&#45;&gt;Node4</title>
<path fill="none" stroke="#404040" d="M184.5,-723.47C184.5,-707.6 184.5,-686.71 184.5,-665.87"/>
<polygon fill="none" stroke="#404040" points="184.5,-665.64 180.5,-659.64 184.5,-653.64 188.5,-659.64 184.5,-665.64"/>
<text text-anchor="middle" x="201" y="-697" font-family="Helvetica,sans-Serif" font-size="10.00"> &#45;center</text>
<text text-anchor="middle" x="201" y="-686" font-family="Helvetica,sans-Serif" font-size="10.00">&#45;left</text>
<text text-anchor="middle" x="201" y="-675" font-family="Helvetica,sans-Serif" font-size="10.00">&#45;right</text>
</g>
<!-- Node6 -->
<g id="node6" class="node">
<title>Node6</title>
<g id="a_node6"><a xlink:title=" ">
<polygon fill="white" stroke="black" points="156.5,-828.5 156.5,-885.5 212.5,-885.5 212.5,-828.5 156.5,-828.5"/>
<text text-anchor="middle" x="184.5" y="-873.5" font-family="Helvetica,sans-Serif" font-size="10.00">ArrayList</text>
<polyline fill="none" stroke="black" points="156.5,-866.5 212.5,-866.5 "/>
<text text-anchor="middle" x="184.5" y="-854.5" font-family="Helvetica,sans-Serif" font-size="10.00"> </text>
<polyline fill="none" stroke="black" points="156.5,-847.5 212.5,-847.5 "/>
<text text-anchor="middle" x="184.5" y="-835.5" font-family="Helvetica,sans-Serif" font-size="10.00"> </text>
</a>
</g>
</g>
<!-- Node6&#45;&gt;Node5 -->
<g id="edge5" class="edge">
<title>Node6&#45;&gt;Node5</title>
<path fill="none" stroke="orange" d="M184.5,-818.29C184.5,-805.84 184.5,-792.23 184.5,-780.68"/>
<polygon fill="orange" stroke="orange" points="181,-818.4 184.5,-828.4 188,-818.4 181,-818.4"/>
<text text-anchor="middle" x="303" y="-802" font-family="Helvetica,sans-Serif" font-size="10.00"> &lt; eu::anwar::madrunner::objects::obstacles::Obstacle &gt;</text>
</g>
<!-- Node7 -->
<g id="node7" class="node">
<title>Node7</title>
<g id="a_node7"><a xlink:title=" ">
<polygon fill="white" stroke="black" points="329.5,-552.5 329.5,-609.5 373.5,-609.5 373.5,-552.5 329.5,-552.5"/>
<text text-anchor="middle" x="351.5" y="-597.5" font-family="Helvetica,sans-Serif" font-size="10.00">Image</text>
<polyline fill="none" stroke="black" points="329.5,-590.5 373.5,-590.5 "/>
<text text-anchor="middle" x="351.5" y="-578.5" font-family="Helvetica,sans-Serif" font-size="10.00"> </text>
<polyline fill="none" stroke="black" points="329.5,-571.5 373.5,-571.5 "/>
<text text-anchor="middle" x="351.5" y="-559.5" font-family="Helvetica,sans-Serif" font-size="10.00"> </text>
</a>
</g>
</g>
<!-- Node7&#45;&gt;Node2 -->
<g id="edge6" class="edge">
<title>Node7&#45;&gt;Node2</title>
<path fill="none" stroke="#404040" d="M341.2,-552.33C335.71,-538.66 328.45,-522.11 320.5,-508 313.6,-495.76 306.09,-483.36 298.25,-471.05"/>
<polygon fill="none" stroke="#404040" points="298.1,-470.82 291.49,-467.95 291.59,-460.74 298.21,-463.61 298.1,-470.82"/>
<text text-anchor="middle" x="323.5" y="-482" font-family="Helvetica,sans-Serif" font-size="10.00"> &#45;image</text>
</g>
</g>
</svg>
