<?xml version="1.0" encoding="UTF-8" standalone="no"?>
<!DOCTYPE svg PUBLIC "-//W3C//DTD SVG 1.1//EN"
 "http://www.w3.org/Graphics/SVG/1.1/DTD/svg11.dtd">
<!-- Generated by graphviz version 3.0.0 (20221109.1736)
 -->
<!-- Title: eu.anwar.madrunner.objects.obstacles.RoadBlock Pages: 1 -->
<svg width="562pt" height="1029pt"
 viewBox="0.00 0.00 561.50 1029.00" xmlns="http://www.w3.org/2000/svg" xmlns:xlink="http://www.w3.org/1999/xlink">
<g id="graph0" class="graph" transform="scale(1 1) rotate(0) translate(4 1025)">
<title>eu.anwar.madrunner.objects.obstacles.RoadBlock</title>
<polygon fill="white" stroke="transparent" points="-4,4 -4,-1025 557.5,-1025 557.5,4 -4,4"/>
<!-- Node1 -->
<g id="node1" class="node">
<title>Node1</title>
<g id="a_node1"><a xlink:title=" ">
<polygon fill="#bfbfbf" stroke="black" points="115,-0.5 115,-57.5 346,-57.5 346,-0.5 115,-0.5"/>
<text text-anchor="middle" x="230.5" y="-45.5" font-family="Helvetica,sans-Serif" font-size="10.00">eu.anwar.madrunner.objects.obstacles.RoadBlock</text>
<polyline fill="none" stroke="black" points="115,-38.5 346,-38.5 "/>
<text text-anchor="start" x="123" y="-26.5" font-family="Helvetica,sans-Serif" font-size="10.00">+ static final double RoadBlockLength</text>
<polyline fill="none" stroke="black" points="115,-19.5 346,-19.5 "/>
<text text-anchor="start" x="123" y="-7.5" font-family="Helvetica,sans-Serif" font-size="10.00">+ RoadBlock(Block.Lane lane)</text>
</a>
</g>
</g>
<!-- Node2 -->
<g id="node2" class="node">
<title>Node2</title>
<g id="a_node2"><a xlink:href="classeu_1_1anwar_1_1madrunner_1_1objects_1_1obstacles_1_1Obstacle.html" target="_top" xlink:title=" ">
<polygon fill="white" stroke="black" points="109.5,-95.5 109.5,-185.5 351.5,-185.5 351.5,-95.5 109.5,-95.5"/>
<text text-anchor="middle" x="230.5" y="-173.5" font-family="Helvetica,sans-Serif" font-size="10.00">eu.anwar.madrunner.objects.obstacles.Obstacle</text>
<polyline fill="none" stroke="black" points="109.5,-166.5 351.5,-166.5 "/>
<text text-anchor="start" x="117.5" y="-154.5" font-family="Helvetica,sans-Serif" font-size="10.00">+ static final double obestacleWidth</text>
<polyline fill="none" stroke="black" points="109.5,-147.5 351.5,-147.5 "/>
<text text-anchor="start" x="117.5" y="-135.5" font-family="Helvetica,sans-Serif" font-size="10.00">+ Obstacle(Block.Lane lane, double y, double length)</text>
<text text-anchor="start" x="117.5" y="-124.5" font-family="Helvetica,sans-Serif" font-size="10.00">+ void addY(double diff)</text>
<text text-anchor="start" x="117.5" y="-113.5" font-family="Helvetica,sans-Serif" font-size="10.00">+ boolean isOffTheScreen()</text>
<text text-anchor="start" x="117.5" y="-102.5" font-family="Helvetica,sans-Serif" font-size="10.00">+ void Draw()</text>
</a>
</g>
</g>
<!-- Node2&#45;&gt;Node1 -->
<g id="edge1" class="edge">
<title>Node2&#45;&gt;Node1</title>
<path fill="none" stroke="midnightblue" d="M230.5,-85.04C230.5,-75.56 230.5,-66.06 230.5,-57.69"/>
<polygon fill="none" stroke="midnightblue" points="227,-85.28 230.5,-95.28 234,-85.28 227,-85.28"/>
</g>
<!-- Node3 -->
<g id="node3" class="node">
<title>Node3</title>
<g id="a_node3"><a xlink:href="classeu_1_1anwar_1_1madrunner_1_1objects_1_1GameLaneObject.html" target="_top" xlink:title=" ">
<polygon fill="white" stroke="black" points="61.5,-223.5 61.5,-357.5 399.5,-357.5 399.5,-223.5 61.5,-223.5"/>
<text text-anchor="middle" x="230.5" y="-345.5" font-family="Helvetica,sans-Serif" font-size="10.00">eu.anwar.madrunner.objects.GameLaneObject</text>
<polyline fill="none" stroke="black" points="61.5,-338.5 399.5,-338.5 "/>
<text text-anchor="middle" x="230.5" y="-326.5" font-family="Helvetica,sans-Serif" font-size="10.00"> </text>
<polyline fill="none" stroke="black" points="61.5,-319.5 399.5,-319.5 "/>
<text text-anchor="start" x="69.5" y="-307.5" font-family="Helvetica,sans-Serif" font-size="10.00">+ GameLaneObject(Block.Lane lane, double y, double width, double length)</text>
<text text-anchor="start" x="69.5" y="-296.5" font-family="Helvetica,sans-Serif" font-size="10.00">+ GameLaneObject(Block.Lane lane, double y, double cubeLength)</text>
<text text-anchor="start" x="69.5" y="-285.5" font-family="Helvetica,sans-Serif" font-size="10.00">+ void setLane(Block.Lane path)</text>
<text text-anchor="start" x="69.5" y="-274.5" font-family="Helvetica,sans-Serif" font-size="10.00">+ Block.Lane getLane()</text>
<text text-anchor="start" x="69.5" y="-263.5" font-family="Helvetica,sans-Serif" font-size="10.00">+ void Draw()</text>
<text text-anchor="start" x="69.5" y="-252.5" font-family="Helvetica,sans-Serif" font-size="10.00">+ boolean contains(Block.Lane lane, double y)</text>
<text text-anchor="start" x="69.5" y="-241.5" font-family="Helvetica,sans-Serif" font-size="10.00">+ boolean touches(GameLaneObject other)</text>
<text text-anchor="start" x="69.5" y="-230.5" font-family="Helvetica,sans-Serif" font-size="10.00">+ double distance(GameLaneObject other)</text>
</a>
</g>
</g>
<!-- Node3&#45;&gt;Node2 -->
<g id="edge2" class="edge">
<title>Node3&#45;&gt;Node2</title>
<path fill="none" stroke="midnightblue" d="M230.5,-213.07C230.5,-203.65 230.5,-194.28 230.5,-185.57"/>
<polygon fill="none" stroke="midnightblue" points="227,-213.29 230.5,-223.29 234,-213.29 227,-213.29"/>
</g>
<!-- Node4 -->
<g id="node4" class="node">
<title>Node4</title>
<g id="a_node4"><a xlink:href="classeu_1_1anwar_1_1madrunner_1_1objects_1_1GameObject.html" target="_top" xlink:title=" ">
<polygon fill="white" stroke="black" points="0,-395.5 0,-595.5 283,-595.5 283,-395.5 0,-395.5"/>
<text text-anchor="middle" x="141.5" y="-583.5" font-family="Helvetica,sans-Serif" font-size="10.00">eu.anwar.madrunner.objects.GameObject</text>
<polyline fill="none" stroke="black" points="0,-576.5 283,-576.5 "/>
<text text-anchor="start" x="8" y="-564.5" font-family="Helvetica,sans-Serif" font-size="10.00"># double x</text>
<text text-anchor="start" x="8" y="-553.5" font-family="Helvetica,sans-Serif" font-size="10.00"># double y</text>
<text text-anchor="start" x="8" y="-542.5" font-family="Helvetica,sans-Serif" font-size="10.00"># double width</text>
<text text-anchor="start" x="8" y="-531.5" font-family="Helvetica,sans-Serif" font-size="10.00"># double length</text>
<polyline fill="none" stroke="black" points="0,-524.5 283,-524.5 "/>
<text text-anchor="start" x="8" y="-512.5" font-family="Helvetica,sans-Serif" font-size="10.00">+ GameObject(double x, double y, double width, double length)</text>
<text text-anchor="start" x="8" y="-501.5" font-family="Helvetica,sans-Serif" font-size="10.00">+ double getWidth()</text>
<text text-anchor="start" x="8" y="-490.5" font-family="Helvetica,sans-Serif" font-size="10.00">+ double getLength()</text>
<text text-anchor="start" x="8" y="-479.5" font-family="Helvetica,sans-Serif" font-size="10.00">+ void setColor(Color color)</text>
<text text-anchor="start" x="8" y="-468.5" font-family="Helvetica,sans-Serif" font-size="10.00">+ void setLane(Block.Lane path)</text>
<text text-anchor="start" x="8" y="-457.5" font-family="Helvetica,sans-Serif" font-size="10.00">+ void setImage(Image image)</text>
<text text-anchor="start" x="8" y="-446.5" font-family="Helvetica,sans-Serif" font-size="10.00">+ Block.Lane getLane()</text>
<text text-anchor="start" x="8" y="-435.5" font-family="Helvetica,sans-Serif" font-size="10.00">+ Image getImage()</text>
<text text-anchor="start" x="8" y="-424.5" font-family="Helvetica,sans-Serif" font-size="10.00">+ void setY(double y)</text>
<text text-anchor="start" x="8" y="-413.5" font-family="Helvetica,sans-Serif" font-size="10.00">+ double getY()</text>
<text text-anchor="start" x="8" y="-402.5" font-family="Helvetica,sans-Serif" font-size="10.00">+ void Draw()</text>
</a>
</g>
</g>
<!-- Node4&#45;&gt;Node3 -->
<g id="edge3" class="edge">
<title>Node4&#45;&gt;Node3</title>
<path fill="none" stroke="midnightblue" d="M189.03,-386.09C193.27,-376.43 197.47,-366.84 201.48,-357.69"/>
<polygon fill="none" stroke="midnightblue" points="185.77,-384.81 184.96,-395.38 192.18,-387.63 185.77,-384.81"/>
</g>
<!-- Node5 -->
<g id="node5" class="node">
<title>Node5</title>
<g id="a_node5"><a xlink:title=" ">
<polygon fill="white" stroke="black" points="65,-687.5 65,-744.5 104,-744.5 104,-687.5 65,-687.5"/>
<text text-anchor="middle" x="84.5" y="-732.5" font-family="Helvetica,sans-Serif" font-size="10.00">Color</text>
<polyline fill="none" stroke="black" points="65,-725.5 104,-725.5 "/>
<text text-anchor="middle" x="84.5" y="-713.5" font-family="Helvetica,sans-Serif" font-size="10.00"> </text>
<polyline fill="none" stroke="black" points="65,-706.5 104,-706.5 "/>
<text text-anchor="middle" x="84.5" y="-694.5" font-family="Helvetica,sans-Serif" font-size="10.00"> </text>
</a>
</g>
</g>
<!-- Node5&#45;&gt;Node4 -->
<g id="edge4" class="edge">
<title>Node5&#45;&gt;Node4</title>
<path fill="none" stroke="#404040" d="M91.22,-687.09C96.16,-666.79 103.09,-638.65 109.5,-614 110.09,-611.74 110.69,-609.45 111.29,-607.14"/>
<polygon fill="none" stroke="#404040" points="111.3,-607.11 108.96,-600.28 114.36,-595.5 116.7,-602.32 111.3,-607.11"/>
<text text-anchor="middle" x="124" y="-617" font-family="Helvetica,sans-Serif" font-size="10.00"> #color</text>
</g>
<!-- Node6 -->
<g id="node6" class="node">
<title>Node6</title>
<g id="a_node6"><a xlink:href="classeu_1_1anwar_1_1madrunner_1_1objects_1_1obstacles_1_1Block.html" target="_top" xlink:title=" ">
<polygon fill="white" stroke="black" points="189.5,-643.5 189.5,-788.5 443.5,-788.5 443.5,-643.5 189.5,-643.5"/>
<text text-anchor="middle" x="316.5" y="-776.5" font-family="Helvetica,sans-Serif" font-size="10.00">eu.anwar.madrunner.objects.obstacles.Block</text>
<polyline fill="none" stroke="black" points="189.5,-769.5 443.5,-769.5 "/>
<text text-anchor="start" x="197.5" y="-757.5" font-family="Helvetica,sans-Serif" font-size="10.00">+ static final double speed</text>
<text text-anchor="start" x="197.5" y="-746.5" font-family="Helvetica,sans-Serif" font-size="10.00">&#45; double currentY</text>
<polyline fill="none" stroke="black" points="189.5,-739.5 443.5,-739.5 "/>
<text text-anchor="start" x="197.5" y="-727.5" font-family="Helvetica,sans-Serif" font-size="10.00">+ Block(ArrayList&lt; Obstacle &gt; left, ArrayList&lt; Obstacle</text>
<text text-anchor="start" x="197.5" y="-716.5" font-family="Helvetica,sans-Serif" font-size="10.00"> &gt; center, ArrayList&lt; Obstacle &gt; right)</text>
<text text-anchor="start" x="197.5" y="-705.5" font-family="Helvetica,sans-Serif" font-size="10.00">+ double getCurrentY()</text>
<text text-anchor="start" x="197.5" y="-694.5" font-family="Helvetica,sans-Serif" font-size="10.00">+ ArrayList&lt; Obstacle &gt; getLane(Lane lane)</text>
<text text-anchor="start" x="197.5" y="-683.5" font-family="Helvetica,sans-Serif" font-size="10.00">+ ArrayList&lt; Obstacle &gt; getLeftLane()</text>
<text text-anchor="start" x="197.5" y="-672.5" font-family="Helvetica,sans-Serif" font-size="10.00">+ ArrayList&lt; Obstacle &gt; getCenterLane()</text>
<text text-anchor="start" x="197.5" y="-661.5" font-family="Helvetica,sans-Serif" font-size="10.00">+ ArrayList&lt; Obstacle &gt; getRightLane()</text>
<text text-anchor="start" x="197.5" y="-650.5" font-family="Helvetica,sans-Serif" font-size="10.00">+ void frameUpdate()</text>
</a>
</g>
</g>
<!-- Node6&#45;&gt;Node3 -->
<g id="edge9" class="edge">
<title>Node6&#45;&gt;Node3</title>
<path fill="none" stroke="#404040" d="M320.44,-643.31C321.91,-577.26 318.62,-477.31 292.5,-395 289.67,-386.09 285.94,-377.13 281.72,-368.43"/>
<polygon fill="none" stroke="#404040" points="281.61,-368.22 275.31,-364.71 276.12,-357.55 282.42,-361.06 281.61,-368.22"/>
<text text-anchor="middle" x="332.5" y="-493" font-family="Helvetica,sans-Serif" font-size="10.00"> #lane</text>
</g>
<!-- Node6&#45;&gt;Node4 -->
<g id="edge5" class="edge">
<title>Node6&#45;&gt;Node4</title>
<path fill="none" stroke="#404040" d="M259.2,-643.45C249.33,-631.14 238.88,-618.09 228.44,-605.05"/>
<polygon fill="none" stroke="#404040" points="228.35,-604.94 221.48,-602.76 220.85,-595.58 227.72,-597.76 228.35,-604.94"/>
<text text-anchor="middle" x="251.5" y="-617" font-family="Helvetica,sans-Serif" font-size="10.00"> #lane</text>
</g>
<!-- Node7 -->
<g id="node7" class="node">
<title>Node7</title>
<g id="a_node7"><a xlink:title=" ">
<polygon fill="white" stroke="black" points="177.5,-858.5 177.5,-915.5 455.5,-915.5 455.5,-858.5 177.5,-858.5"/>
<text text-anchor="middle" x="316.5" y="-903.5" font-family="Helvetica,sans-Serif" font-size="10.00">ArrayList&lt; eu.anwar.madrunner.objects.obstacles.Obstacle &gt;</text>
<polyline fill="none" stroke="black" points="177.5,-896.5 455.5,-896.5 "/>
<text text-anchor="middle" x="316.5" y="-884.5" font-family="Helvetica,sans-Serif" font-size="10.00"> </text>
<polyline fill="none" stroke="black" points="177.5,-877.5 455.5,-877.5 "/>
<text text-anchor="middle" x="316.5" y="-865.5" font-family="Helvetica,sans-Serif" font-size="10.00"> </text>
</a>
</g>
</g>
<!-- Node7&#45;&gt;Node6 -->
<g id="edge6" class="edge">
<title>Node7&#45;&gt;Node6</title>
<path fill="none" stroke="#404040" d="M316.5,-858.47C316.5,-842.6 316.5,-821.71 316.5,-800.87"/>
<polygon fill="none" stroke="#404040" points="316.5,-800.64 312.5,-794.64 316.5,-788.64 320.5,-794.64 316.5,-800.64"/>
<text text-anchor="middle" x="333" y="-832" font-family="Helvetica,sans-Serif" font-size="10.00"> &#45;center</text>
<text text-anchor="middle" x="333" y="-821" font-family="Helvetica,sans-Serif" font-size="10.00">&#45;left</text>
<text text-anchor="middle" x="333" y="-810" font-family="Helvetica,sans-Serif" font-size="10.00">&#45;right</text>
</g>
<!-- Node8 -->
<g id="node8" class="node">
<title>Node8</title>
<g id="a_node8"><a xlink:title=" ">
<polygon fill="white" stroke="black" points="288.5,-963.5 288.5,-1020.5 344.5,-1020.5 344.5,-963.5 288.5,-963.5"/>
<text text-anchor="middle" x="316.5" y="-1008.5" font-family="Helvetica,sans-Serif" font-size="10.00">ArrayList</text>
<polyline fill="none" stroke="black" points="288.5,-1001.5 344.5,-1001.5 "/>
<text text-anchor="middle" x="316.5" y="-989.5" font-family="Helvetica,sans-Serif" font-size="10.00"> </text>
<polyline fill="none" stroke="black" points="288.5,-982.5 344.5,-982.5 "/>
<text text-anchor="middle" x="316.5" y="-970.5" font-family="Helvetica,sans-Serif" font-size="10.00"> </text>
</a>
</g>
</g>
<!-- Node8&#45;&gt;Node7 -->
<g id="edge7" class="edge">
<title>Node8&#45;&gt;Node7</title>
<path fill="none" stroke="orange" d="M316.5,-953.29C316.5,-940.84 316.5,-927.23 316.5,-915.68"/>
<polygon fill="orange" stroke="orange" points="313,-953.4 316.5,-963.4 320,-953.4 313,-953.4"/>
<text text-anchor="middle" x="435" y="-937" font-family="Helvetica,sans-Serif" font-size="10.00"> &lt; eu::anwar::madrunner::objects::obstacles::Obstacle &gt;</text>
</g>
<!-- Node9 -->
<g id="node9" class="node">
<title>Node9</title>
<g id="a_node9"><a xlink:title=" ">
<polygon fill="white" stroke="black" points="122.5,-687.5 122.5,-744.5 166.5,-744.5 166.5,-687.5 122.5,-687.5"/>
<text text-anchor="middle" x="144.5" y="-732.5" font-family="Helvetica,sans-Serif" font-size="10.00">Image</text>
<polyline fill="none" stroke="black" points="122.5,-725.5 166.5,-725.5 "/>
<text text-anchor="middle" x="144.5" y="-713.5" font-family="Helvetica,sans-Serif" font-size="10.00"> </text>
<polyline fill="none" stroke="black" points="122.5,-706.5 166.5,-706.5 "/>
<text text-anchor="middle" x="144.5" y="-694.5" font-family="Helvetica,sans-Serif" font-size="10.00"> </text>
</a>
</g>
</g>
<!-- Node9&#45;&gt;Node4 -->
<g id="edge8" class="edge">
<title>Node9&#45;&gt;Node4</title>
<path fill="none" stroke="#404040" d="M144.12,-687.33C143.84,-666.84 143.44,-637.46 143.03,-607.87"/>
<polygon fill="none" stroke="#404040" points="143.03,-607.65 138.94,-601.7 142.86,-595.65 146.94,-601.59 143.03,-607.65"/>
<text text-anchor="middle" x="158.5" y="-617" font-family="Helvetica,sans-Serif" font-size="10.00"> &#45;image</text>
</g>
</g>
</svg>
