<?xml version="1.0" encoding="UTF-8" standalone="no"?>
<!DOCTYPE svg PUBLIC "-//W3C//DTD SVG 1.1//EN"
 "http://www.w3.org/Graphics/SVG/1.1/DTD/svg11.dtd">
<!-- Generated by graphviz version 3.0.0 (20221109.1736)
 -->
<!-- Title: eu.anwar.madrunner.objects.obstacles.Obstacle Pages: 1 -->
<svg width="743pt" height="700pt"
 viewBox="0.00 0.00 742.50 700.00" xmlns="http://www.w3.org/2000/svg" xmlns:xlink="http://www.w3.org/1999/xlink">
<g id="graph0" class="graph" transform="scale(1 1) rotate(0) translate(4 696)">
<title>eu.anwar.madrunner.objects.obstacles.Obstacle</title>
<polygon fill="white" stroke="transparent" points="-4,4 -4,-696 738.5,-696 738.5,4 -4,4"/>
<!-- Node1 -->
<g id="node1" class="node">
<title>Node1</title>
<g id="a_node1"><a xlink:title=" ">
<polygon fill="#bfbfbf" stroke="black" points="233.5,-160.5 233.5,-250.5 475.5,-250.5 475.5,-160.5 233.5,-160.5"/>
<text text-anchor="middle" x="354.5" y="-238.5" font-family="Helvetica,sans-Serif" font-size="10.00">eu.anwar.madrunner.objects.obstacles.Obstacle</text>
<polyline fill="none" stroke="black" points="233.5,-231.5 475.5,-231.5 "/>
<text text-anchor="start" x="241.5" y="-219.5" font-family="Helvetica,sans-Serif" font-size="10.00">+ static final double obestacleWidth</text>
<polyline fill="none" stroke="black" points="233.5,-212.5 475.5,-212.5 "/>
<text text-anchor="start" x="241.5" y="-200.5" font-family="Helvetica,sans-Serif" font-size="10.00">+ Obstacle(Block.Lane lane, double y, double length)</text>
<text text-anchor="start" x="241.5" y="-189.5" font-family="Helvetica,sans-Serif" font-size="10.00">+ void addY(double diff)</text>
<text text-anchor="start" x="241.5" y="-178.5" font-family="Helvetica,sans-Serif" font-size="10.00">+ boolean isOffTheScreen()</text>
<text text-anchor="start" x="241.5" y="-167.5" font-family="Helvetica,sans-Serif" font-size="10.00">+ void Draw()</text>
</a>
</g>
</g>
<!-- Node4 -->
<g id="node4" class="node">
<title>Node4</title>
<g id="a_node4"><a xlink:href="classeu_1_1anwar_1_1madrunner_1_1objects_1_1obstacles_1_1RoadBlock.html" target="_top" xlink:title=" ">
<polygon fill="white" stroke="black" points="0,-33.5 0,-90.5 231,-90.5 231,-33.5 0,-33.5"/>
<text text-anchor="middle" x="115.5" y="-78.5" font-family="Helvetica,sans-Serif" font-size="10.00">eu.anwar.madrunner.objects.obstacles.RoadBlock</text>
<polyline fill="none" stroke="black" points="0,-71.5 231,-71.5 "/>
<text text-anchor="start" x="8" y="-59.5" font-family="Helvetica,sans-Serif" font-size="10.00">+ static final double RoadBlockLength</text>
<polyline fill="none" stroke="black" points="0,-52.5 231,-52.5 "/>
<text text-anchor="start" x="8" y="-40.5" font-family="Helvetica,sans-Serif" font-size="10.00">+ RoadBlock(Block.Lane lane)</text>
</a>
</g>
</g>
<!-- Node1&#45;&gt;Node4 -->
<g id="edge3" class="edge">
<title>Node1&#45;&gt;Node4</title>
<path fill="none" stroke="midnightblue" d="M271.18,-155.17C234.65,-133.54 193.14,-108.97 162.18,-90.64"/>
<polygon fill="none" stroke="midnightblue" points="269.47,-158.23 279.86,-160.31 273.04,-152.2 269.47,-158.23"/>
</g>
<!-- Node5 -->
<g id="node5" class="node">
<title>Node5</title>
<g id="a_node5"><a xlink:href="classeu_1_1anwar_1_1madrunner_1_1objects_1_1obstacles_1_1Trailer.html" target="_top" xlink:title=" ">
<polygon fill="white" stroke="black" points="249,-6 249,-118 460,-118 460,-6 249,-6"/>
<text text-anchor="middle" x="354.5" y="-106" font-family="Helvetica,sans-Serif" font-size="10.00">eu.anwar.madrunner.objects.obstacles.Trailer</text>
<polyline fill="none" stroke="black" points="249,-99 460,-99 "/>
<text text-anchor="start" x="257" y="-87" font-family="Helvetica,sans-Serif" font-size="10.00">+ static final double singleTrailerLength</text>
<text text-anchor="start" x="257" y="-76" font-family="Helvetica,sans-Serif" font-size="10.00">+ static final int maxNumberOfTrailers</text>
<text text-anchor="start" x="257" y="-65" font-family="Helvetica,sans-Serif" font-size="10.00"># final int TrailerCount</text>
<polyline fill="none" stroke="black" points="249,-58 460,-58 "/>
<text text-anchor="start" x="257" y="-46" font-family="Helvetica,sans-Serif" font-size="10.00">+ Trailer(Block.Lane lane, int count)</text>
<text text-anchor="start" x="257" y="-35" font-family="Helvetica,sans-Serif" font-size="10.00">+ Trailer(Block.Lane lane)</text>
<text text-anchor="start" x="257" y="-24" font-family="Helvetica,sans-Serif" font-size="10.00">+ Trailer(Block.Lane lane, double length)</text>
<text text-anchor="start" x="257" y="-13" font-family="Helvetica,sans-Serif" font-size="10.00">+ void Draw()</text>
</a>
</g>
</g>
<!-- Node1&#45;&gt;Node5 -->
<g id="edge4" class="edge">
<title>Node1&#45;&gt;Node5</title>
<path fill="none" stroke="midnightblue" d="M354.5,-149.91C354.5,-139.51 354.5,-128.61 354.5,-118.19"/>
<polygon fill="none" stroke="midnightblue" points="351,-150.12 354.5,-160.12 358,-150.12 351,-150.12"/>
</g>
<!-- Node6 -->
<g id="node6" class="node">
<title>Node6</title>
<g id="a_node6"><a xlink:href="classeu_1_1anwar_1_1madrunner_1_1objects_1_1obstacles_1_1TrailerWithRamp.html" target="_top" xlink:title=" ">
<polygon fill="white" stroke="black" points="478.5,-0.5 478.5,-123.5 734.5,-123.5 734.5,-0.5 478.5,-0.5"/>
<text text-anchor="middle" x="606.5" y="-111.5" font-family="Helvetica,sans-Serif" font-size="10.00">eu.anwar.madrunner.objects.obstacles.TrailerWithRamp</text>
<polyline fill="none" stroke="black" points="478.5,-104.5 734.5,-104.5 "/>
<text text-anchor="start" x="486.5" y="-92.5" font-family="Helvetica,sans-Serif" font-size="10.00">+ static final double rampSize</text>
<text text-anchor="start" x="486.5" y="-81.5" font-family="Helvetica,sans-Serif" font-size="10.00"># final int trailerCount</text>
<text text-anchor="start" x="486.5" y="-70.5" font-family="Helvetica,sans-Serif" font-size="10.00">&#45; Trailer trailer</text>
<text text-anchor="start" x="486.5" y="-59.5" font-family="Helvetica,sans-Serif" font-size="10.00">&#45; Obstacle ramp</text>
<polyline fill="none" stroke="black" points="478.5,-52.5 734.5,-52.5 "/>
<text text-anchor="start" x="486.5" y="-40.5" font-family="Helvetica,sans-Serif" font-size="10.00">+ TrailerWithRamp(Block.Lane lane, double length)</text>
<text text-anchor="start" x="486.5" y="-29.5" font-family="Helvetica,sans-Serif" font-size="10.00">+ TrailerWithRamp(Block.Lane lane)</text>
<text text-anchor="start" x="486.5" y="-18.5" font-family="Helvetica,sans-Serif" font-size="10.00">+ void setLane(Block.Lane lane)</text>
<text text-anchor="start" x="486.5" y="-7.5" font-family="Helvetica,sans-Serif" font-size="10.00">+ void Draw()</text>
</a>
</g>
</g>
<!-- Node1&#45;&gt;Node6 -->
<g id="edge5" class="edge">
<title>Node1&#45;&gt;Node6</title>
<path fill="none" stroke="midnightblue" d="M442.02,-155.36C460.2,-145.15 479.56,-134.28 498.38,-123.71"/>
<polygon fill="none" stroke="midnightblue" points="440.2,-152.36 433.2,-160.31 443.63,-158.47 440.2,-152.36"/>
</g>
<!-- Node2 -->
<g id="node2" class="node">
<title>Node2</title>
<g id="a_node2"><a xlink:href="classeu_1_1anwar_1_1madrunner_1_1objects_1_1GameLaneObject.html" target="_top" xlink:title=" ">
<polygon fill="white" stroke="black" points="185.5,-287.5 185.5,-421.5 523.5,-421.5 523.5,-287.5 185.5,-287.5"/>
<text text-anchor="middle" x="354.5" y="-409.5" font-family="Helvetica,sans-Serif" font-size="10.00">eu.anwar.madrunner.objects.GameLaneObject</text>
<polyline fill="none" stroke="black" points="185.5,-402.5 523.5,-402.5 "/>
<text text-anchor="start" x="193.5" y="-390.5" font-family="Helvetica,sans-Serif" font-size="10.00"># Block.Lane lane</text>
<polyline fill="none" stroke="black" points="185.5,-383.5 523.5,-383.5 "/>
<text text-anchor="start" x="193.5" y="-371.5" font-family="Helvetica,sans-Serif" font-size="10.00">+ GameLaneObject(Block.Lane lane, double y, double width, double length)</text>
<text text-anchor="start" x="193.5" y="-360.5" font-family="Helvetica,sans-Serif" font-size="10.00">+ GameLaneObject(Block.Lane lane, double y, double cubeLength)</text>
<text text-anchor="start" x="193.5" y="-349.5" font-family="Helvetica,sans-Serif" font-size="10.00">+ void setLane(Block.Lane path)</text>
<text text-anchor="start" x="193.5" y="-338.5" font-family="Helvetica,sans-Serif" font-size="10.00">+ Block.Lane getLane()</text>
<text text-anchor="start" x="193.5" y="-327.5" font-family="Helvetica,sans-Serif" font-size="10.00">+ void Draw()</text>
<text text-anchor="start" x="193.5" y="-316.5" font-family="Helvetica,sans-Serif" font-size="10.00">+ boolean contains(Block.Lane lane, double y)</text>
<text text-anchor="start" x="193.5" y="-305.5" font-family="Helvetica,sans-Serif" font-size="10.00">+ boolean touches(GameLaneObject other)</text>
<text text-anchor="start" x="193.5" y="-294.5" font-family="Helvetica,sans-Serif" font-size="10.00">+ double distance(GameLaneObject other)</text>
</a>
</g>
</g>
<!-- Node2&#45;&gt;Node1 -->
<g id="edge1" class="edge">
<title>Node2&#45;&gt;Node1</title>
<path fill="none" stroke="midnightblue" d="M354.5,-277.15C354.5,-268.15 354.5,-259.2 354.5,-250.85"/>
<polygon fill="none" stroke="midnightblue" points="351,-277.31 354.5,-287.31 358,-277.31 351,-277.31"/>
</g>
<!-- Node3 -->
<g id="node3" class="node">
<title>Node3</title>
<g id="a_node3"><a xlink:href="classeu_1_1anwar_1_1madrunner_1_1objects_1_1GameObject.html" target="_top" xlink:title=" ">
<polygon fill="white" stroke="black" points="213,-458.5 213,-691.5 496,-691.5 496,-458.5 213,-458.5"/>
<text text-anchor="middle" x="354.5" y="-679.5" font-family="Helvetica,sans-Serif" font-size="10.00">eu.anwar.madrunner.objects.GameObject</text>
<polyline fill="none" stroke="black" points="213,-672.5 496,-672.5 "/>
<text text-anchor="start" x="221" y="-660.5" font-family="Helvetica,sans-Serif" font-size="10.00"># Color color</text>
<text text-anchor="start" x="221" y="-649.5" font-family="Helvetica,sans-Serif" font-size="10.00"># Block.Lane lane</text>
<text text-anchor="start" x="221" y="-638.5" font-family="Helvetica,sans-Serif" font-size="10.00"># double x</text>
<text text-anchor="start" x="221" y="-627.5" font-family="Helvetica,sans-Serif" font-size="10.00"># double y</text>
<text text-anchor="start" x="221" y="-616.5" font-family="Helvetica,sans-Serif" font-size="10.00"># double width</text>
<text text-anchor="start" x="221" y="-605.5" font-family="Helvetica,sans-Serif" font-size="10.00"># double length</text>
<text text-anchor="start" x="221" y="-594.5" font-family="Helvetica,sans-Serif" font-size="10.00">&#45; Image image</text>
<polyline fill="none" stroke="black" points="213,-587.5 496,-587.5 "/>
<text text-anchor="start" x="221" y="-575.5" font-family="Helvetica,sans-Serif" font-size="10.00">+ GameObject(double x, double y, double width, double length)</text>
<text text-anchor="start" x="221" y="-564.5" font-family="Helvetica,sans-Serif" font-size="10.00">+ double getWidth()</text>
<text text-anchor="start" x="221" y="-553.5" font-family="Helvetica,sans-Serif" font-size="10.00">+ double getLength()</text>
<text text-anchor="start" x="221" y="-542.5" font-family="Helvetica,sans-Serif" font-size="10.00">+ void setColor(Color color)</text>
<text text-anchor="start" x="221" y="-531.5" font-family="Helvetica,sans-Serif" font-size="10.00">+ void setLane(Block.Lane path)</text>
<text text-anchor="start" x="221" y="-520.5" font-family="Helvetica,sans-Serif" font-size="10.00">+ void setImage(Image image)</text>
<text text-anchor="start" x="221" y="-509.5" font-family="Helvetica,sans-Serif" font-size="10.00">+ Block.Lane getLane()</text>
<text text-anchor="start" x="221" y="-498.5" font-family="Helvetica,sans-Serif" font-size="10.00">+ Image getImage()</text>
<text text-anchor="start" x="221" y="-487.5" font-family="Helvetica,sans-Serif" font-size="10.00">+ void setY(double y)</text>
<text text-anchor="start" x="221" y="-476.5" font-family="Helvetica,sans-Serif" font-size="10.00">+ double getY()</text>
<text text-anchor="start" x="221" y="-465.5" font-family="Helvetica,sans-Serif" font-size="10.00">+ void Draw()</text>
</a>
</g>
</g>
<!-- Node3&#45;&gt;Node2 -->
<g id="edge2" class="edge">
<title>Node3&#45;&gt;Node2</title>
<path fill="none" stroke="midnightblue" d="M354.5,-448.06C354.5,-439 354.5,-430.09 354.5,-421.59"/>
<polygon fill="none" stroke="midnightblue" points="351,-448.35 354.5,-458.35 358,-448.35 351,-448.35"/>
</g>
</g>
</svg>
