<?xml version="1.0" encoding="UTF-8" standalone="no"?>
<!DOCTYPE svg PUBLIC "-//W3C//DTD SVG 1.1//EN"
 "http://www.w3.org/Graphics/SVG/1.1/DTD/svg11.dtd">
<!-- Generated by graphviz version 3.0.0 (20221109.1736)
 -->
<!-- Title: eu.anwar.madrunner.logic.Logic.GameControls Pages: 1 -->
<svg width="225pt" height="160pt"
 viewBox="0.00 0.00 225.00 160.00" xmlns="http://www.w3.org/2000/svg" xmlns:xlink="http://www.w3.org/1999/xlink">
<g id="graph0" class="graph" transform="scale(1 1) rotate(0) translate(4 156)">
<title>eu.anwar.madrunner.logic.Logic.GameControls</title>
<polygon fill="white" stroke="transparent" points="-4,4 -4,-156 221,-156 221,4 -4,4"/>
<!-- Node1 -->
<g id="node1" class="node">
<title>Node1</title>
<g id="a_node1"><a xlink:title=" ">
<polygon fill="#bfbfbf" stroke="black" points="0,-0.5 0,-57.5 217,-57.5 217,-0.5 0,-0.5"/>
<text text-anchor="middle" x="108.5" y="-45.5" font-family="Helvetica,sans-Serif" font-size="10.00">eu.anwar.madrunner.logic.Logic.GameControls</text>
<polyline fill="none" stroke="black" points="0,-38.5 217,-38.5 "/>
<text text-anchor="middle" x="108.5" y="-26.5" font-family="Helvetica,sans-Serif" font-size="10.00"> </text>
<polyline fill="none" stroke="black" points="0,-19.5 217,-19.5 "/>
<text text-anchor="start" x="8" y="-7.5" font-family="Helvetica,sans-Serif" font-size="10.00">+ void handle(KeyEvent event)</text>
</a>
</g>
</g>
<!-- Node2 -->
<g id="node2" class="node">
<title>Node2</title>
<g id="a_node2"><a xlink:title=" ">
<polygon fill="white" stroke="black" points="42,-94.5 42,-151.5 175,-151.5 175,-94.5 42,-94.5"/>
<text text-anchor="middle" x="108.5" y="-139.5" font-family="Helvetica,sans-Serif" font-size="10.00">EventHandler&lt; KeyEvent &gt;</text>
<polyline fill="none" stroke="black" points="42,-132.5 175,-132.5 "/>
<text text-anchor="middle" x="108.5" y="-120.5" font-family="Helvetica,sans-Serif" font-size="10.00"> </text>
<polyline fill="none" stroke="black" points="42,-113.5 175,-113.5 "/>
<text text-anchor="middle" x="108.5" y="-101.5" font-family="Helvetica,sans-Serif" font-size="10.00"> </text>
</a>
</g>
</g>
<!-- Node2&#45;&gt;Node1 -->
<g id="edge1" class="edge">
<title>Node2&#45;&gt;Node1</title>
<path fill="none" stroke="midnightblue" d="M108.5,-84.21C108.5,-75.29 108.5,-65.95 108.5,-57.58"/>
<polygon fill="none" stroke="midnightblue" points="105,-84.4 108.5,-94.4 112,-84.4 105,-84.4"/>
</g>
</g>
</svg>
