<?xml version="1.0" encoding="UTF-8" standalone="no"?>
<!DOCTYPE svg PUBLIC "-//W3C//DTD SVG 1.1//EN"
 "http://www.w3.org/Graphics/SVG/1.1/DTD/svg11.dtd">
<!-- Generated by graphviz version 8.0.3 (0)
 -->
<!-- Title: game.MadRunner Pages: 1 -->
<svg width="166pt" height="182pt"
 viewBox="0.00 0.00 166.00 182.00" xmlns="http://www.w3.org/2000/svg" xmlns:xlink="http://www.w3.org/1999/xlink">
<g id="graph0" class="graph" transform="scale(1 1) rotate(0) translate(4 178)">
<title>game.MadRunner</title>
<!-- Node1 -->
<g id="node1" class="node">
<title>Node1</title>
<g id="a_node1"><a xlink:title=" ">
<polygon fill="#999999" stroke="#666666" points="0,-0.5 0,-79.5 158,-79.5 158,-0.5 0,-0.5"/>
<text text-anchor="middle" x="79" y="-67.5" font-family="Helvetica,sans-Serif" font-size="10.00">game.MadRunner</text>
<polyline fill="none" stroke="#666666" points="0,-60.5 158,-60.5"/>
<text text-anchor="start" x="8" y="-48.5" font-family="Helvetica,sans-Serif" font-size="10.00">+ static final double minScreenY</text>
<text text-anchor="start" x="8" y="-37.5" font-family="Helvetica,sans-Serif" font-size="10.00">+ static final double minScreenX</text>
<polyline fill="none" stroke="#666666" points="0,-30.5 158,-30.5"/>
<text text-anchor="start" x="8" y="-18.5" font-family="Helvetica,sans-Serif" font-size="10.00">+ void start(Stage stage)</text>
<text text-anchor="start" x="8" y="-7.5" font-family="Helvetica,sans-Serif" font-size="10.00">+ static void main(String[] args)</text>
</a>
</g>
</g>
<!-- Node2 -->
<g id="node2" class="node">
<title>Node2</title>
<g id="a_node2"><a xlink:title=" ">
<polygon fill="white" stroke="#666666" points="46.5,-116.5 46.5,-173.5 111.5,-173.5 111.5,-116.5 46.5,-116.5"/>
<text text-anchor="middle" x="79" y="-161.5" font-family="Helvetica,sans-Serif" font-size="10.00">Application</text>
<polyline fill="none" stroke="#666666" points="46.5,-154.5 111.5,-154.5"/>
<text text-anchor="middle" x="79" y="-142.5" font-family="Helvetica,sans-Serif" font-size="10.00"> </text>
<polyline fill="none" stroke="#666666" points="46.5,-135.5 111.5,-135.5"/>
<text text-anchor="middle" x="79" y="-123.5" font-family="Helvetica,sans-Serif" font-size="10.00"> </text>
</a>
</g>
</g>
<!-- Node2&#45;&gt;Node1 -->
<g id="edge1" class="edge">
<title>Node2&#45;&gt;Node1</title>
<path fill="none" stroke="#63b8ff" d="M79,-105.72C79,-97.1 79,-87.94 79,-79.32"/>
<polygon fill="none" stroke="#63b8ff" points="75.5,-105.67 79,-115.67 82.5,-105.67 75.5,-105.67"/>
</g>
</g>
</svg>
