<?xml version="1.0" encoding="UTF-8" standalone="no"?>
<!DOCTYPE svg PUBLIC "-//W3C//DTD SVG 1.1//EN"
 "http://www.w3.org/Graphics/SVG/1.1/DTD/svg11.dtd">
<!-- Generated by graphviz version 8.0.3 (0)
 -->
<!-- Title: objects.TrailerWithRamp Pages: 1 -->
<svg width="506pt" height="1299pt"
 viewBox="0.00 0.00 506.00 1299.00" xmlns="http://www.w3.org/2000/svg" xmlns:xlink="http://www.w3.org/1999/xlink">
<g id="graph0" class="graph" transform="scale(1 1) rotate(0) translate(4 1295)">
<title>objects.TrailerWithRamp</title>
<!-- Node1 -->
<g id="node1" class="node">
<title>Node1</title>
<g id="a_node1"><a xlink:title=" ">
<polygon fill="#999999" stroke="#666666" points="141.5,-0.5 141.5,-101.5 379.5,-101.5 379.5,-0.5 141.5,-0.5"/>
<text text-anchor="middle" x="260.5" y="-89.5" font-family="Helvetica,sans-Serif" font-size="10.00">objects.TrailerWithRamp</text>
<polyline fill="none" stroke="#666666" points="141.5,-82.5 379.5,-82.5"/>
<text text-anchor="start" x="149.5" y="-70.5" font-family="Helvetica,sans-Serif" font-size="10.00">+ static final double rampSize</text>
<text text-anchor="start" x="149.5" y="-59.5" font-family="Helvetica,sans-Serif" font-size="10.00"># final int trailerCount</text>
<polyline fill="none" stroke="#666666" points="141.5,-52.5 379.5,-52.5"/>
<text text-anchor="start" x="149.5" y="-40.5" font-family="Helvetica,sans-Serif" font-size="10.00">+ TrailerWithRamp(Block.Lane lane, double length)</text>
<text text-anchor="start" x="149.5" y="-29.5" font-family="Helvetica,sans-Serif" font-size="10.00">+ TrailerWithRamp(Block.Lane lane)</text>
<text text-anchor="start" x="149.5" y="-18.5" font-family="Helvetica,sans-Serif" font-size="10.00">+ void setLane(Block.Lane lane)</text>
<text text-anchor="start" x="149.5" y="-7.5" font-family="Helvetica,sans-Serif" font-size="10.00">+ void Draw()</text>
</a>
</g>
</g>
<!-- Node2 -->
<g id="node2" class="node">
<title>Node2</title>
<g id="a_node2"><a xlink:href="classobjects_1_1Obstacle.html" target="_top" xlink:title=" ">
<polygon fill="white" stroke="#666666" points="137.5,-299.5 137.5,-389.5 383.5,-389.5 383.5,-299.5 137.5,-299.5"/>
<text text-anchor="middle" x="260.5" y="-377.5" font-family="Helvetica,sans-Serif" font-size="10.00">objects.Obstacle</text>
<polyline fill="none" stroke="#666666" points="137.5,-370.5 383.5,-370.5"/>
<text text-anchor="start" x="145.5" y="-358.5" font-family="Helvetica,sans-Serif" font-size="10.00">+ static final double obestacleWidth</text>
<polyline fill="none" stroke="#666666" points="137.5,-351.5 383.5,-351.5"/>
<text text-anchor="start" x="145.5" y="-339.5" font-family="Helvetica,sans-Serif" font-size="10.00">+ Obstacle(Block.Lane lane, double y, double length)</text>
<text text-anchor="start" x="145.5" y="-328.5" font-family="Helvetica,sans-Serif" font-size="10.00">+ void addY(double diff)</text>
<text text-anchor="start" x="145.5" y="-317.5" font-family="Helvetica,sans-Serif" font-size="10.00">+ boolean isOffTheScreen()</text>
<text text-anchor="start" x="145.5" y="-306.5" font-family="Helvetica,sans-Serif" font-size="10.00">+ void Draw()</text>
</a>
</g>
</g>
<!-- Node2&#45;&gt;Node1 -->
<g id="edge1" class="edge">
<title>Node2&#45;&gt;Node1</title>
<path fill="none" stroke="#63b8ff" d="M243.71,-289.14C241.55,-280.16 239.68,-270.88 238.5,-262 231.9,-212.21 232.91,-198.91 238.5,-149 240.25,-133.38 243.53,-116.61 247.04,-101.48"/>
<polygon fill="none" stroke="#63b8ff" points="240.49,-289.7 246.36,-298.52 247.27,-287.96 240.49,-289.7"/>
</g>
<!-- Node2&#45;&gt;Node1 -->
<g id="edge12" class="edge">
<title>Node2&#45;&gt;Node1</title>
<path fill="none" stroke="#404040" d="M260.5,-299.54C260.5,-250.22 260.5,-169.82 260.5,-114.09"/>
<polygon fill="none" stroke="#404040" points="260.5,-114.1 256.5,-108.1 260.5,-102.1 264.5,-108.1 260.5,-114.1"/>
<text text-anchor="middle" x="274.5" y="-203" font-family="Helvetica,sans-Serif" font-size="10.00"> &#45;ramp</text>
</g>
<!-- Node10 -->
<g id="node10" class="node">
<title>Node10</title>
<g id="a_node10"><a xlink:href="classobjects_1_1Trailer.html" target="_top" xlink:title=" ">
<polygon fill="white" stroke="#666666" points="307,-149.5 307,-261.5 498,-261.5 498,-149.5 307,-149.5"/>
<text text-anchor="middle" x="402.5" y="-249.5" font-family="Helvetica,sans-Serif" font-size="10.00">objects.Trailer</text>
<polyline fill="none" stroke="#666666" points="307,-242.5 498,-242.5"/>
<text text-anchor="start" x="315" y="-230.5" font-family="Helvetica,sans-Serif" font-size="10.00">+ static final double singleTrailerLength</text>
<text text-anchor="start" x="315" y="-219.5" font-family="Helvetica,sans-Serif" font-size="10.00">+ static final int maxNumberOfTrailers</text>
<text text-anchor="start" x="315" y="-208.5" font-family="Helvetica,sans-Serif" font-size="10.00"># final int TrailerCount</text>
<polyline fill="none" stroke="#666666" points="307,-201.5 498,-201.5"/>
<text text-anchor="start" x="315" y="-189.5" font-family="Helvetica,sans-Serif" font-size="10.00">+ Trailer(Block.Lane lane, int count)</text>
<text text-anchor="start" x="315" y="-178.5" font-family="Helvetica,sans-Serif" font-size="10.00">+ Trailer(Block.Lane lane)</text>
<text text-anchor="start" x="315" y="-167.5" font-family="Helvetica,sans-Serif" font-size="10.00">+ Trailer(Block.Lane lane, double length)</text>
<text text-anchor="start" x="315" y="-156.5" font-family="Helvetica,sans-Serif" font-size="10.00">+ void Draw()</text>
</a>
</g>
</g>
<!-- Node2&#45;&gt;Node10 -->
<g id="edge11" class="edge">
<title>Node2&#45;&gt;Node10</title>
<path fill="none" stroke="#63b8ff" d="M313.68,-292.2C324.11,-282.13 335.09,-271.53 345.64,-261.36"/>
<polygon fill="none" stroke="#63b8ff" points="311.59,-289.31 306.82,-298.78 316.45,-294.35 311.59,-289.31"/>
</g>
<!-- Node3 -->
<g id="node3" class="node">
<title>Node3</title>
<g id="a_node3"><a xlink:href="classobjects_1_1GameLaneObject.html" target="_top" xlink:title=" ">
<polygon fill="white" stroke="#666666" points="88.5,-427.5 88.5,-561.5 432.5,-561.5 432.5,-427.5 88.5,-427.5"/>
<text text-anchor="middle" x="260.5" y="-549.5" font-family="Helvetica,sans-Serif" font-size="10.00">objects.GameLaneObject</text>
<polyline fill="none" stroke="#666666" points="88.5,-542.5 432.5,-542.5"/>
<text text-anchor="middle" x="260.5" y="-530.5" font-family="Helvetica,sans-Serif" font-size="10.00"> </text>
<polyline fill="none" stroke="#666666" points="88.5,-523.5 432.5,-523.5"/>
<text text-anchor="start" x="96.5" y="-511.5" font-family="Helvetica,sans-Serif" font-size="10.00">+ GameLaneObject(Block.Lane lane, double y, double width, double length)</text>
<text text-anchor="start" x="96.5" y="-500.5" font-family="Helvetica,sans-Serif" font-size="10.00">+ GameLaneObject(Block.Lane lane, double y, double cubeLength)</text>
<text text-anchor="start" x="96.5" y="-489.5" font-family="Helvetica,sans-Serif" font-size="10.00">+ void setLane(Block.Lane path)</text>
<text text-anchor="start" x="96.5" y="-478.5" font-family="Helvetica,sans-Serif" font-size="10.00">+ Block.Lane getLane()</text>
<text text-anchor="start" x="96.5" y="-467.5" font-family="Helvetica,sans-Serif" font-size="10.00">+ void Draw()</text>
<text text-anchor="start" x="96.5" y="-456.5" font-family="Helvetica,sans-Serif" font-size="10.00">+ boolean contains(Block.Lane lane, double y)</text>
<text text-anchor="start" x="96.5" y="-445.5" font-family="Helvetica,sans-Serif" font-size="10.00">+ boolean touches(GameLaneObject other)</text>
<text text-anchor="start" x="96.5" y="-434.5" font-family="Helvetica,sans-Serif" font-size="10.00">+ double distance(GameLaneObject other)</text>
</a>
</g>
</g>
<!-- Node3&#45;&gt;Node2 -->
<g id="edge2" class="edge">
<title>Node3&#45;&gt;Node2</title>
<path fill="none" stroke="#63b8ff" d="M260.5,-416.73C260.5,-407.37 260.5,-398.06 260.5,-389.41"/>
<polygon fill="none" stroke="#63b8ff" points="257,-416.72 260.5,-426.72 264,-416.72 257,-416.72"/>
</g>
<!-- Node4 -->
<g id="node4" class="node">
<title>Node4</title>
<g id="a_node4"><a xlink:href="classobjects_1_1GameObject.html" target="_top" xlink:title=" ">
<polygon fill="white" stroke="#666666" points="0,-599.5 0,-865.5 323,-865.5 323,-599.5 0,-599.5"/>
<text text-anchor="middle" x="161.5" y="-853.5" font-family="Helvetica,sans-Serif" font-size="10.00">objects.GameObject</text>
<polyline fill="none" stroke="#666666" points="0,-846.5 323,-846.5"/>
<text text-anchor="start" x="8" y="-834.5" font-family="Helvetica,sans-Serif" font-size="10.00"># double x</text>
<text text-anchor="start" x="8" y="-823.5" font-family="Helvetica,sans-Serif" font-size="10.00"># double y</text>
<text text-anchor="start" x="8" y="-812.5" font-family="Helvetica,sans-Serif" font-size="10.00"># double width</text>
<text text-anchor="start" x="8" y="-801.5" font-family="Helvetica,sans-Serif" font-size="10.00"># double length</text>
<polyline fill="none" stroke="#666666" points="0,-794.5 323,-794.5"/>
<text text-anchor="start" x="8" y="-782.5" font-family="Helvetica,sans-Serif" font-size="10.00">+ GameObject(double x, double y, double width, double length)</text>
<text text-anchor="start" x="8" y="-771.5" font-family="Helvetica,sans-Serif" font-size="10.00">+ GameObject(Block.Lane lane, double y, double width, double length)</text>
<text text-anchor="start" x="8" y="-760.5" font-family="Helvetica,sans-Serif" font-size="10.00">+ GameObject(Block.Lane lane, double y, double cubeLength)</text>
<text text-anchor="start" x="8" y="-749.5" font-family="Helvetica,sans-Serif" font-size="10.00">+ GameObject(double x, double y, double cubeLength)</text>
<text text-anchor="start" x="8" y="-738.5" font-family="Helvetica,sans-Serif" font-size="10.00">+ double getWidth()</text>
<text text-anchor="start" x="8" y="-727.5" font-family="Helvetica,sans-Serif" font-size="10.00">+ double getLength()</text>
<text text-anchor="start" x="8" y="-716.5" font-family="Helvetica,sans-Serif" font-size="10.00">+ void setColor(Color color)</text>
<text text-anchor="start" x="8" y="-705.5" font-family="Helvetica,sans-Serif" font-size="10.00">+ void setLane(Block.Lane path)</text>
<text text-anchor="start" x="8" y="-694.5" font-family="Helvetica,sans-Serif" font-size="10.00">+ Block.Lane getLane()</text>
<text text-anchor="start" x="8" y="-683.5" font-family="Helvetica,sans-Serif" font-size="10.00">+ void setX(double x)</text>
<text text-anchor="start" x="8" y="-672.5" font-family="Helvetica,sans-Serif" font-size="10.00">+ void setY(double y)</text>
<text text-anchor="start" x="8" y="-661.5" font-family="Helvetica,sans-Serif" font-size="10.00">+ double getY()</text>
<text text-anchor="start" x="8" y="-650.5" font-family="Helvetica,sans-Serif" font-size="10.00">+ double getX()</text>
<text text-anchor="start" x="8" y="-639.5" font-family="Helvetica,sans-Serif" font-size="10.00">+ void Draw()</text>
<text text-anchor="start" x="8" y="-628.5" font-family="Helvetica,sans-Serif" font-size="10.00">+ boolean interesects(double x, double y)</text>
<text text-anchor="start" x="8" y="-617.5" font-family="Helvetica,sans-Serif" font-size="10.00">+ boolean interesects(Block.Lane lane, double y)</text>
<text text-anchor="start" x="8" y="-606.5" font-family="Helvetica,sans-Serif" font-size="10.00">+ boolean touches(GameObject other)</text>
</a>
</g>
</g>
<!-- Node4&#45;&gt;Node3 -->
<g id="edge3" class="edge">
<title>Node4&#45;&gt;Node3</title>
<path fill="none" stroke="#63b8ff" d="M220.92,-589.86C225.02,-580.08 229.03,-570.52 232.82,-561.48"/>
<polygon fill="none" stroke="#63b8ff" points="217.43,-588.12 216.79,-598.7 223.88,-590.83 217.43,-588.12"/>
</g>
<!-- Node5 -->
<g id="node5" class="node">
<title>Node5</title>
<g id="a_node5"><a xlink:title=" ">
<polygon fill="white" stroke="#666666" points="89.5,-957.5 89.5,-1014.5 129.5,-1014.5 129.5,-957.5 89.5,-957.5"/>
<text text-anchor="middle" x="109.5" y="-1002.5" font-family="Helvetica,sans-Serif" font-size="10.00">Color</text>
<polyline fill="none" stroke="#666666" points="89.5,-995.5 129.5,-995.5"/>
<text text-anchor="middle" x="109.5" y="-983.5" font-family="Helvetica,sans-Serif" font-size="10.00"> </text>
<polyline fill="none" stroke="#666666" points="89.5,-976.5 129.5,-976.5"/>
<text text-anchor="middle" x="109.5" y="-964.5" font-family="Helvetica,sans-Serif" font-size="10.00"> </text>
</a>
</g>
</g>
<!-- Node5&#45;&gt;Node4 -->
<g id="edge4" class="edge">
<title>Node5&#45;&gt;Node4</title>
<path fill="none" stroke="#404040" d="M115.16,-957.61C119.32,-937.52 125.31,-908.54 131.61,-878.04"/>
<polygon fill="none" stroke="#404040" points="131.62,-878.01 128.92,-871.32 134.05,-866.25 136.75,-872.94 131.62,-878.01"/>
<text text-anchor="middle" x="143.5" y="-887" font-family="Helvetica,sans-Serif" font-size="10.00"> #color</text>
</g>
<!-- Node6 -->
<g id="node6" class="node">
<title>Node6</title>
<g id="a_node6"><a xlink:title=" ">
<polygon fill="white" stroke="#666666" points="147.5,-957.5 147.5,-1014.5 191.5,-1014.5 191.5,-957.5 147.5,-957.5"/>
<text text-anchor="middle" x="169.5" y="-1002.5" font-family="Helvetica,sans-Serif" font-size="10.00">Image</text>
<polyline fill="none" stroke="#666666" points="147.5,-995.5 191.5,-995.5"/>
<text text-anchor="middle" x="169.5" y="-983.5" font-family="Helvetica,sans-Serif" font-size="10.00"> </text>
<polyline fill="none" stroke="#666666" points="147.5,-976.5 191.5,-976.5"/>
<text text-anchor="middle" x="169.5" y="-964.5" font-family="Helvetica,sans-Serif" font-size="10.00"> </text>
</a>
</g>
</g>
<!-- Node6&#45;&gt;Node4 -->
<g id="edge5" class="edge">
<title>Node6&#45;&gt;Node4</title>
<path fill="none" stroke="#404040" d="M168.63,-957.61C167.99,-937.52 167.07,-908.54 166.1,-878.04"/>
<polygon fill="none" stroke="#404040" points="166.11,-878.27 161.92,-872.4 165.72,-866.27 169.91,-872.14 166.11,-878.27"/>
<text text-anchor="middle" x="183" y="-887" font-family="Helvetica,sans-Serif" font-size="10.00"> #image</text>
</g>
<!-- Node7 -->
<g id="node7" class="node">
<title>Node7</title>
<g id="a_node7"><a xlink:href="classobjects_1_1Block.html" target="_top" xlink:title=" ">
<polygon fill="white" stroke="#666666" points="223.5,-913.5 223.5,-1058.5 481.5,-1058.5 481.5,-913.5 223.5,-913.5"/>
<text text-anchor="middle" x="352.5" y="-1046.5" font-family="Helvetica,sans-Serif" font-size="10.00">objects.Block</text>
<polyline fill="none" stroke="#666666" points="223.5,-1039.5 481.5,-1039.5"/>
<text text-anchor="start" x="231.5" y="-1027.5" font-family="Helvetica,sans-Serif" font-size="10.00">+ static final double speed</text>
<text text-anchor="start" x="231.5" y="-1016.5" font-family="Helvetica,sans-Serif" font-size="10.00">&#45; double currentY</text>
<polyline fill="none" stroke="#666666" points="223.5,-1009.5 481.5,-1009.5"/>
<text text-anchor="start" x="231.5" y="-997.5" font-family="Helvetica,sans-Serif" font-size="10.00">+ Block(ArrayList&lt; Obstacle &gt; left, ArrayList&lt; Obstacle</text>
<text text-anchor="start" x="231.5" y="-986.5" font-family="Helvetica,sans-Serif" font-size="10.00"> &gt; center, ArrayList&lt; Obstacle &gt; right)</text>
<text text-anchor="start" x="231.5" y="-975.5" font-family="Helvetica,sans-Serif" font-size="10.00">+ double getCurrentY()</text>
<text text-anchor="start" x="231.5" y="-964.5" font-family="Helvetica,sans-Serif" font-size="10.00">+ ArrayList&lt; Obstacle &gt; getLane(Lane lane)</text>
<text text-anchor="start" x="231.5" y="-953.5" font-family="Helvetica,sans-Serif" font-size="10.00">+ ArrayList&lt; Obstacle &gt; getLeftLane()</text>
<text text-anchor="start" x="231.5" y="-942.5" font-family="Helvetica,sans-Serif" font-size="10.00">+ ArrayList&lt; Obstacle &gt; getCenterLane()</text>
<text text-anchor="start" x="231.5" y="-931.5" font-family="Helvetica,sans-Serif" font-size="10.00">+ ArrayList&lt; Obstacle &gt; getRightLane()</text>
<text text-anchor="start" x="231.5" y="-920.5" font-family="Helvetica,sans-Serif" font-size="10.00">+ void frameUpdate()</text>
</a>
</g>
</g>
<!-- Node7&#45;&gt;Node3 -->
<g id="edge9" class="edge">
<title>Node7&#45;&gt;Node3</title>
<path fill="none" stroke="#404040" d="M360.25,-913.78C366.29,-834.61 368.46,-704.07 332.5,-599 329.42,-590 325.31,-581.07 320.61,-572.45"/>
<polygon fill="none" stroke="#404040" points="320.62,-572.47 314.14,-569.3 314.58,-562.1 321.06,-565.27 320.62,-572.47"/>
<text text-anchor="middle" x="377" y="-730" font-family="Helvetica,sans-Serif" font-size="10.00"> #lane</text>
</g>
<!-- Node7&#45;&gt;Node4 -->
<g id="edge6" class="edge">
<title>Node7&#45;&gt;Node4</title>
<path fill="none" stroke="#404040" d="M298.28,-913.6C289.05,-901.45 279.19,-888.46 269.14,-875.23"/>
<polygon fill="none" stroke="#404040" points="269.23,-875.35 262.42,-872.99 261.97,-865.8 268.79,-868.16 269.23,-875.35"/>
<text text-anchor="middle" x="293" y="-887" font-family="Helvetica,sans-Serif" font-size="10.00"> #lane</text>
</g>
<!-- Node8 -->
<g id="node8" class="node">
<title>Node8</title>
<g id="a_node8"><a xlink:title=" ">
<polygon fill="white" stroke="#666666" points="279,-1128.5 279,-1185.5 426,-1185.5 426,-1128.5 279,-1128.5"/>
<text text-anchor="middle" x="352.5" y="-1173.5" font-family="Helvetica,sans-Serif" font-size="10.00">ArrayList&lt; objects.Obstacle &gt;</text>
<polyline fill="none" stroke="#666666" points="279,-1166.5 426,-1166.5"/>
<text text-anchor="middle" x="352.5" y="-1154.5" font-family="Helvetica,sans-Serif" font-size="10.00"> </text>
<polyline fill="none" stroke="#666666" points="279,-1147.5 426,-1147.5"/>
<text text-anchor="middle" x="352.5" y="-1135.5" font-family="Helvetica,sans-Serif" font-size="10.00"> </text>
</a>
</g>
</g>
<!-- Node8&#45;&gt;Node7 -->
<g id="edge7" class="edge">
<title>Node8&#45;&gt;Node7</title>
<path fill="none" stroke="#404040" d="M352.5,-1128.85C352.5,-1113.01 352.5,-1092.08 352.5,-1071.17"/>
<polygon fill="none" stroke="#404040" points="352.5,-1071.11 348.5,-1065.11 352.5,-1059.11 356.5,-1065.11 352.5,-1071.11"/>
<text text-anchor="middle" x="369.5" y="-1102" font-family="Helvetica,sans-Serif" font-size="10.00"> &#45;center</text>
<text text-anchor="middle" x="369.5" y="-1091" font-family="Helvetica,sans-Serif" font-size="10.00">&#45;left</text>
<text text-anchor="middle" x="369.5" y="-1080" font-family="Helvetica,sans-Serif" font-size="10.00">&#45;right</text>
</g>
<!-- Node9 -->
<g id="node9" class="node">
<title>Node9</title>
<g id="a_node9"><a xlink:title=" ">
<polygon fill="white" stroke="#666666" points="324.5,-1233.5 324.5,-1290.5 380.5,-1290.5 380.5,-1233.5 324.5,-1233.5"/>
<text text-anchor="middle" x="352.5" y="-1278.5" font-family="Helvetica,sans-Serif" font-size="10.00">ArrayList</text>
<polyline fill="none" stroke="#666666" points="324.5,-1271.5 380.5,-1271.5"/>
<text text-anchor="middle" x="352.5" y="-1259.5" font-family="Helvetica,sans-Serif" font-size="10.00"> </text>
<polyline fill="none" stroke="#666666" points="324.5,-1252.5 380.5,-1252.5"/>
<text text-anchor="middle" x="352.5" y="-1240.5" font-family="Helvetica,sans-Serif" font-size="10.00"> </text>
</a>
</g>
</g>
<!-- Node9&#45;&gt;Node8 -->
<g id="edge8" class="edge">
<title>Node9&#45;&gt;Node8</title>
<path fill="none" stroke="orange" d="M352.5,-1222.71C352.5,-1210.34 352.5,-1196.88 352.5,-1185.46"/>
<polygon fill="orange" stroke="orange" points="349,-1222.67 352.5,-1232.67 356,-1222.67 349,-1222.67"/>
<text text-anchor="middle" x="401.5" y="-1207" font-family="Helvetica,sans-Serif" font-size="10.00"> &lt; objects::Obstacle &gt;</text>
</g>
<!-- Node10&#45;&gt;Node1 -->
<g id="edge10" class="edge">
<title>Node10&#45;&gt;Node1</title>
<path fill="none" stroke="#404040" d="M351.64,-149.87C339.79,-137.15 327.13,-123.55 315.12,-110.66"/>
<polygon fill="none" stroke="#404040" points="315.31,-110.87 308.3,-109.2 307.14,-102.09 314.15,-103.75 315.31,-110.87"/>
<text text-anchor="middle" x="347" y="-123" font-family="Helvetica,sans-Serif" font-size="10.00"> &#45;trailer</text>
</g>
</g>
</svg>
