<?xml version="1.0" encoding="UTF-8" standalone="no"?>
<!DOCTYPE svg PUBLIC "-//W3C//DTD SVG 1.1//EN"
 "http://www.w3.org/Graphics/SVG/1.1/DTD/svg11.dtd">
<!-- Generated by graphviz version 3.0.0 (20221109.1736)
 -->
<!-- Title: eu.anwar.madrunner.objects.GameLaneObject Pages: 1 -->
<svg width="562pt" height="806pt"
 viewBox="0.00 0.00 561.50 806.00" xmlns="http://www.w3.org/2000/svg" xmlns:xlink="http://www.w3.org/1999/xlink">
<g id="graph0" class="graph" transform="scale(1 1) rotate(0) translate(4 802)">
<title>eu.anwar.madrunner.objects.GameLaneObject</title>
<polygon fill="white" stroke="transparent" points="-4,4 -4,-802 557.5,-802 557.5,4 -4,4"/>
<!-- Node1 -->
<g id="node1" class="node">
<title>Node1</title>
<g id="a_node1"><a xlink:title=" ">
<polygon fill="#bfbfbf" stroke="black" points="61.5,-0.5 61.5,-134.5 399.5,-134.5 399.5,-0.5 61.5,-0.5"/>
<text text-anchor="middle" x="230.5" y="-122.5" font-family="Helvetica,sans-Serif" font-size="10.00">eu.anwar.madrunner.objects.GameLaneObject</text>
<polyline fill="none" stroke="black" points="61.5,-115.5 399.5,-115.5 "/>
<text text-anchor="middle" x="230.5" y="-103.5" font-family="Helvetica,sans-Serif" font-size="10.00"> </text>
<polyline fill="none" stroke="black" points="61.5,-96.5 399.5,-96.5 "/>
<text text-anchor="start" x="69.5" y="-84.5" font-family="Helvetica,sans-Serif" font-size="10.00">+ GameLaneObject(Block.Lane lane, double y, double width, double length)</text>
<text text-anchor="start" x="69.5" y="-73.5" font-family="Helvetica,sans-Serif" font-size="10.00">+ GameLaneObject(Block.Lane lane, double y, double cubeLength)</text>
<text text-anchor="start" x="69.5" y="-62.5" font-family="Helvetica,sans-Serif" font-size="10.00">+ void setLane(Block.Lane path)</text>
<text text-anchor="start" x="69.5" y="-51.5" font-family="Helvetica,sans-Serif" font-size="10.00">+ Block.Lane getLane()</text>
<text text-anchor="start" x="69.5" y="-40.5" font-family="Helvetica,sans-Serif" font-size="10.00">+ void Draw()</text>
<text text-anchor="start" x="69.5" y="-29.5" font-family="Helvetica,sans-Serif" font-size="10.00">+ boolean contains(Block.Lane lane, double y)</text>
<text text-anchor="start" x="69.5" y="-18.5" font-family="Helvetica,sans-Serif" font-size="10.00">+ boolean touches(GameLaneObject other)</text>
<text text-anchor="start" x="69.5" y="-7.5" font-family="Helvetica,sans-Serif" font-size="10.00">+ double distance(GameLaneObject other)</text>
</a>
</g>
</g>
<!-- Node2 -->
<g id="node2" class="node">
<title>Node2</title>
<g id="a_node2"><a xlink:href="classeu_1_1anwar_1_1madrunner_1_1objects_1_1GameObject.html" target="_top" xlink:title=" ">
<polygon fill="white" stroke="black" points="0,-172.5 0,-372.5 283,-372.5 283,-172.5 0,-172.5"/>
<text text-anchor="middle" x="141.5" y="-360.5" font-family="Helvetica,sans-Serif" font-size="10.00">eu.anwar.madrunner.objects.GameObject</text>
<polyline fill="none" stroke="black" points="0,-353.5 283,-353.5 "/>
<text text-anchor="start" x="8" y="-341.5" font-family="Helvetica,sans-Serif" font-size="10.00"># double x</text>
<text text-anchor="start" x="8" y="-330.5" font-family="Helvetica,sans-Serif" font-size="10.00"># double y</text>
<text text-anchor="start" x="8" y="-319.5" font-family="Helvetica,sans-Serif" font-size="10.00"># double width</text>
<text text-anchor="start" x="8" y="-308.5" font-family="Helvetica,sans-Serif" font-size="10.00"># double length</text>
<polyline fill="none" stroke="black" points="0,-301.5 283,-301.5 "/>
<text text-anchor="start" x="8" y="-289.5" font-family="Helvetica,sans-Serif" font-size="10.00">+ GameObject(double x, double y, double width, double length)</text>
<text text-anchor="start" x="8" y="-278.5" font-family="Helvetica,sans-Serif" font-size="10.00">+ double getWidth()</text>
<text text-anchor="start" x="8" y="-267.5" font-family="Helvetica,sans-Serif" font-size="10.00">+ double getLength()</text>
<text text-anchor="start" x="8" y="-256.5" font-family="Helvetica,sans-Serif" font-size="10.00">+ void setColor(Color color)</text>
<text text-anchor="start" x="8" y="-245.5" font-family="Helvetica,sans-Serif" font-size="10.00">+ void setLane(Block.Lane path)</text>
<text text-anchor="start" x="8" y="-234.5" font-family="Helvetica,sans-Serif" font-size="10.00">+ void setImage(Image image)</text>
<text text-anchor="start" x="8" y="-223.5" font-family="Helvetica,sans-Serif" font-size="10.00">+ Block.Lane getLane()</text>
<text text-anchor="start" x="8" y="-212.5" font-family="Helvetica,sans-Serif" font-size="10.00">+ Image getImage()</text>
<text text-anchor="start" x="8" y="-201.5" font-family="Helvetica,sans-Serif" font-size="10.00">+ void setY(double y)</text>
<text text-anchor="start" x="8" y="-190.5" font-family="Helvetica,sans-Serif" font-size="10.00">+ double getY()</text>
<text text-anchor="start" x="8" y="-179.5" font-family="Helvetica,sans-Serif" font-size="10.00">+ void Draw()</text>
</a>
</g>
</g>
<!-- Node2&#45;&gt;Node1 -->
<g id="edge1" class="edge">
<title>Node2&#45;&gt;Node1</title>
<path fill="none" stroke="midnightblue" d="M189.03,-163.09C193.27,-153.43 197.47,-143.84 201.48,-134.69"/>
<polygon fill="none" stroke="midnightblue" points="185.77,-161.81 184.96,-172.38 192.18,-164.63 185.77,-161.81"/>
</g>
<!-- Node3 -->
<g id="node3" class="node">
<title>Node3</title>
<g id="a_node3"><a xlink:title=" ">
<polygon fill="white" stroke="black" points="65,-464.5 65,-521.5 104,-521.5 104,-464.5 65,-464.5"/>
<text text-anchor="middle" x="84.5" y="-509.5" font-family="Helvetica,sans-Serif" font-size="10.00">Color</text>
<polyline fill="none" stroke="black" points="65,-502.5 104,-502.5 "/>
<text text-anchor="middle" x="84.5" y="-490.5" font-family="Helvetica,sans-Serif" font-size="10.00"> </text>
<polyline fill="none" stroke="black" points="65,-483.5 104,-483.5 "/>
<text text-anchor="middle" x="84.5" y="-471.5" font-family="Helvetica,sans-Serif" font-size="10.00"> </text>
</a>
</g>
</g>
<!-- Node3&#45;&gt;Node2 -->
<g id="edge2" class="edge">
<title>Node3&#45;&gt;Node2</title>
<path fill="none" stroke="#404040" d="M91.22,-464.09C96.16,-443.79 103.09,-415.65 109.5,-391 110.09,-388.74 110.69,-386.45 111.29,-384.14"/>
<polygon fill="none" stroke="#404040" points="111.3,-384.11 108.96,-377.28 114.36,-372.5 116.7,-379.32 111.3,-384.11"/>
<text text-anchor="middle" x="124" y="-394" font-family="Helvetica,sans-Serif" font-size="10.00"> #color</text>
</g>
<!-- Node4 -->
<g id="node4" class="node">
<title>Node4</title>
<g id="a_node4"><a xlink:href="classeu_1_1anwar_1_1madrunner_1_1objects_1_1obstacles_1_1Block.html" target="_top" xlink:title=" ">
<polygon fill="white" stroke="black" points="189.5,-420.5 189.5,-565.5 443.5,-565.5 443.5,-420.5 189.5,-420.5"/>
<text text-anchor="middle" x="316.5" y="-553.5" font-family="Helvetica,sans-Serif" font-size="10.00">eu.anwar.madrunner.objects.obstacles.Block</text>
<polyline fill="none" stroke="black" points="189.5,-546.5 443.5,-546.5 "/>
<text text-anchor="start" x="197.5" y="-534.5" font-family="Helvetica,sans-Serif" font-size="10.00">+ static final double speed</text>
<text text-anchor="start" x="197.5" y="-523.5" font-family="Helvetica,sans-Serif" font-size="10.00">&#45; double currentY</text>
<polyline fill="none" stroke="black" points="189.5,-516.5 443.5,-516.5 "/>
<text text-anchor="start" x="197.5" y="-504.5" font-family="Helvetica,sans-Serif" font-size="10.00">+ Block(ArrayList&lt; Obstacle &gt; left, ArrayList&lt; Obstacle</text>
<text text-anchor="start" x="197.5" y="-493.5" font-family="Helvetica,sans-Serif" font-size="10.00"> &gt; center, ArrayList&lt; Obstacle &gt; right)</text>
<text text-anchor="start" x="197.5" y="-482.5" font-family="Helvetica,sans-Serif" font-size="10.00">+ double getCurrentY()</text>
<text text-anchor="start" x="197.5" y="-471.5" font-family="Helvetica,sans-Serif" font-size="10.00">+ ArrayList&lt; Obstacle &gt; getLane(Lane lane)</text>
<text text-anchor="start" x="197.5" y="-460.5" font-family="Helvetica,sans-Serif" font-size="10.00">+ ArrayList&lt; Obstacle &gt; getLeftLane()</text>
<text text-anchor="start" x="197.5" y="-449.5" font-family="Helvetica,sans-Serif" font-size="10.00">+ ArrayList&lt; Obstacle &gt; getCenterLane()</text>
<text text-anchor="start" x="197.5" y="-438.5" font-family="Helvetica,sans-Serif" font-size="10.00">+ ArrayList&lt; Obstacle &gt; getRightLane()</text>
<text text-anchor="start" x="197.5" y="-427.5" font-family="Helvetica,sans-Serif" font-size="10.00">+ void frameUpdate()</text>
</a>
</g>
</g>
<!-- Node4&#45;&gt;Node1 -->
<g id="edge7" class="edge">
<title>Node4&#45;&gt;Node1</title>
<path fill="none" stroke="#404040" d="M320.44,-420.31C321.91,-354.26 318.62,-254.31 292.5,-172 289.67,-163.09 285.94,-154.13 281.72,-145.43"/>
<polygon fill="none" stroke="#404040" points="281.61,-145.22 275.31,-141.71 276.12,-134.55 282.42,-138.06 281.61,-145.22"/>
<text text-anchor="middle" x="332.5" y="-270" font-family="Helvetica,sans-Serif" font-size="10.00"> #lane</text>
</g>
<!-- Node4&#45;&gt;Node2 -->
<g id="edge3" class="edge">
<title>Node4&#45;&gt;Node2</title>
<path fill="none" stroke="#404040" d="M259.2,-420.45C249.33,-408.14 238.88,-395.09 228.44,-382.05"/>
<polygon fill="none" stroke="#404040" points="228.35,-381.94 221.48,-379.76 220.85,-372.58 227.72,-374.76 228.35,-381.94"/>
<text text-anchor="middle" x="251.5" y="-394" font-family="Helvetica,sans-Serif" font-size="10.00"> #lane</text>
</g>
<!-- Node5 -->
<g id="node5" class="node">
<title>Node5</title>
<g id="a_node5"><a xlink:title=" ">
<polygon fill="white" stroke="black" points="177.5,-635.5 177.5,-692.5 455.5,-692.5 455.5,-635.5 177.5,-635.5"/>
<text text-anchor="middle" x="316.5" y="-680.5" font-family="Helvetica,sans-Serif" font-size="10.00">ArrayList&lt; eu.anwar.madrunner.objects.obstacles.Obstacle &gt;</text>
<polyline fill="none" stroke="black" points="177.5,-673.5 455.5,-673.5 "/>
<text text-anchor="middle" x="316.5" y="-661.5" font-family="Helvetica,sans-Serif" font-size="10.00"> </text>
<polyline fill="none" stroke="black" points="177.5,-654.5 455.5,-654.5 "/>
<text text-anchor="middle" x="316.5" y="-642.5" font-family="Helvetica,sans-Serif" font-size="10.00"> </text>
</a>
</g>
</g>
<!-- Node5&#45;&gt;Node4 -->
<g id="edge4" class="edge">
<title>Node5&#45;&gt;Node4</title>
<path fill="none" stroke="#404040" d="M316.5,-635.47C316.5,-619.6 316.5,-598.71 316.5,-577.87"/>
<polygon fill="none" stroke="#404040" points="316.5,-577.64 312.5,-571.64 316.5,-565.64 320.5,-571.64 316.5,-577.64"/>
<text text-anchor="middle" x="333" y="-609" font-family="Helvetica,sans-Serif" font-size="10.00"> &#45;center</text>
<text text-anchor="middle" x="333" y="-598" font-family="Helvetica,sans-Serif" font-size="10.00">&#45;left</text>
<text text-anchor="middle" x="333" y="-587" font-family="Helvetica,sans-Serif" font-size="10.00">&#45;right</text>
</g>
<!-- Node6 -->
<g id="node6" class="node">
<title>Node6</title>
<g id="a_node6"><a xlink:title=" ">
<polygon fill="white" stroke="black" points="288.5,-740.5 288.5,-797.5 344.5,-797.5 344.5,-740.5 288.5,-740.5"/>
<text text-anchor="middle" x="316.5" y="-785.5" font-family="Helvetica,sans-Serif" font-size="10.00">ArrayList</text>
<polyline fill="none" stroke="black" points="288.5,-778.5 344.5,-778.5 "/>
<text text-anchor="middle" x="316.5" y="-766.5" font-family="Helvetica,sans-Serif" font-size="10.00"> </text>
<polyline fill="none" stroke="black" points="288.5,-759.5 344.5,-759.5 "/>
<text text-anchor="middle" x="316.5" y="-747.5" font-family="Helvetica,sans-Serif" font-size="10.00"> </text>
</a>
</g>
</g>
<!-- Node6&#45;&gt;Node5 -->
<g id="edge5" class="edge">
<title>Node6&#45;&gt;Node5</title>
<path fill="none" stroke="orange" d="M316.5,-730.29C316.5,-717.84 316.5,-704.23 316.5,-692.68"/>
<polygon fill="orange" stroke="orange" points="313,-730.4 316.5,-740.4 320,-730.4 313,-730.4"/>
<text text-anchor="middle" x="435" y="-714" font-family="Helvetica,sans-Serif" font-size="10.00"> &lt; eu::anwar::madrunner::objects::obstacles::Obstacle &gt;</text>
</g>
<!-- Node7 -->
<g id="node7" class="node">
<title>Node7</title>
<g id="a_node7"><a xlink:title=" ">
<polygon fill="white" stroke="black" points="122.5,-464.5 122.5,-521.5 166.5,-521.5 166.5,-464.5 122.5,-464.5"/>
<text text-anchor="middle" x="144.5" y="-509.5" font-family="Helvetica,sans-Serif" font-size="10.00">Image</text>
<polyline fill="none" stroke="black" points="122.5,-502.5 166.5,-502.5 "/>
<text text-anchor="middle" x="144.5" y="-490.5" font-family="Helvetica,sans-Serif" font-size="10.00"> </text>
<polyline fill="none" stroke="black" points="122.5,-483.5 166.5,-483.5 "/>
<text text-anchor="middle" x="144.5" y="-471.5" font-family="Helvetica,sans-Serif" font-size="10.00"> </text>
</a>
</g>
</g>
<!-- Node7&#45;&gt;Node2 -->
<g id="edge6" class="edge">
<title>Node7&#45;&gt;Node2</title>
<path fill="none" stroke="#404040" d="M144.12,-464.33C143.84,-443.84 143.44,-414.46 143.03,-384.87"/>
<polygon fill="none" stroke="#404040" points="143.03,-384.65 138.94,-378.7 142.86,-372.65 146.94,-378.59 143.03,-384.65"/>
<text text-anchor="middle" x="158.5" y="-394" font-family="Helvetica,sans-Serif" font-size="10.00"> &#45;image</text>
</g>
</g>
</svg>
