<?xml version="1.0" encoding="UTF-8" standalone="no"?>
<!DOCTYPE svg PUBLIC "-//W3C//DTD SVG 1.1//EN"
 "http://www.w3.org/Graphics/SVG/1.1/DTD/svg11.dtd">
<!-- Generated by graphviz version 8.0.3 (0)
 -->
<!-- Title: eu.anwar.madrunner.objects.menus.GameOver Pages: 1 -->
<svg width="442pt" height="1044pt"
 viewBox="0.00 0.00 442.00 1044.00" xmlns="http://www.w3.org/2000/svg" xmlns:xlink="http://www.w3.org/1999/xlink">
<g id="graph0" class="graph" transform="scale(1 1) rotate(0) translate(4 1040)">
<title>eu.anwar.madrunner.objects.menus.GameOver</title>
<!-- Node1 -->
<g id="node1" class="node">
<title>Node1</title>
<g id="a_node1"><a xlink:title=" ">
<polygon fill="#999999" stroke="#666666" points="76,-0.5 76,-112.5 298,-112.5 298,-0.5 76,-0.5"/>
<text text-anchor="middle" x="187" y="-100.5" font-family="Helvetica,sans-Serif" font-size="10.00">eu.anwar.madrunner.objects.menus.GameOver</text>
<polyline fill="none" stroke="#666666" points="76,-93.5 298,-93.5"/>
<text text-anchor="start" x="84" y="-81.5" font-family="Helvetica,sans-Serif" font-size="10.00">+ static String gameOverText</text>
<text text-anchor="start" x="84" y="-70.5" font-family="Helvetica,sans-Serif" font-size="10.00">+ static String scoreTxt</text>
<text text-anchor="start" x="84" y="-59.5" font-family="Helvetica,sans-Serif" font-size="10.00">&#45; int maxScore</text>
<text text-anchor="start" x="84" y="-48.5" font-family="Helvetica,sans-Serif" font-size="10.00">&#45; int currentScore</text>
<polyline fill="none" stroke="#666666" points="76,-41.5 298,-41.5"/>
<text text-anchor="start" x="84" y="-29.5" font-family="Helvetica,sans-Serif" font-size="10.00">+ GameOver()</text>
<text text-anchor="start" x="84" y="-18.5" font-family="Helvetica,sans-Serif" font-size="10.00">+ void setScore(int score)</text>
<text text-anchor="start" x="84" y="-7.5" font-family="Helvetica,sans-Serif" font-size="10.00">+ void Draw()</text>
</a>
</g>
</g>
<!-- Node2 -->
<g id="node2" class="node">
<title>Node2</title>
<g id="a_node2"><a xlink:href="classeu_1_1anwar_1_1madrunner_1_1objects_1_1menus_1_1GamePause.html" target="_top" xlink:title=" ">
<polygon fill="white" stroke="#666666" points="61,-150.5 61,-284.5 313,-284.5 313,-150.5 61,-150.5"/>
<text text-anchor="middle" x="187" y="-272.5" font-family="Helvetica,sans-Serif" font-size="10.00">eu.anwar.madrunner.objects.menus.GamePause</text>
<polyline fill="none" stroke="#666666" points="61,-265.5 313,-265.5"/>
<text text-anchor="start" x="69" y="-253.5" font-family="Helvetica,sans-Serif" font-size="10.00"># String centerTxt</text>
<text text-anchor="start" x="69" y="-242.5" font-family="Helvetica,sans-Serif" font-size="10.00">&#45; Boolean enabled</text>
<polyline fill="none" stroke="#666666" points="61,-235.5 313,-235.5"/>
<text text-anchor="start" x="69" y="-223.5" font-family="Helvetica,sans-Serif" font-size="10.00">+ GamePause()</text>
<text text-anchor="start" x="69" y="-212.5" font-family="Helvetica,sans-Serif" font-size="10.00">+ void enable()</text>
<text text-anchor="start" x="69" y="-201.5" font-family="Helvetica,sans-Serif" font-size="10.00">+ void disable()</text>
<text text-anchor="start" x="69" y="-190.5" font-family="Helvetica,sans-Serif" font-size="10.00">+ Boolean isEnabled()</text>
<text text-anchor="start" x="69" y="-179.5" font-family="Helvetica,sans-Serif" font-size="10.00">+ void toggle()</text>
<text text-anchor="start" x="69" y="-168.5" font-family="Helvetica,sans-Serif" font-size="10.00">+ void updateDeminsions(double width, double length)</text>
<text text-anchor="start" x="69" y="-157.5" font-family="Helvetica,sans-Serif" font-size="10.00">+ void Draw()</text>
</a>
</g>
</g>
<!-- Node2&#45;&gt;Node1 -->
<g id="edge1" class="edge">
<title>Node2&#45;&gt;Node1</title>
<path fill="none" stroke="#63b8ff" d="M187,-140C187,-130.65 187,-121.25 187,-112.31"/>
<polygon fill="none" stroke="#63b8ff" points="183.5,-139.91 187,-149.91 190.5,-139.91 183.5,-139.91"/>
</g>
<!-- Node3 -->
<g id="node3" class="node">
<title>Node3</title>
<g id="a_node3"><a xlink:href="classeu_1_1anwar_1_1madrunner_1_1objects_1_1GameObject.html" target="_top" xlink:title=" ">
<polygon fill="white" stroke="#666666" points="25.5,-322.5 25.5,-610.5 348.5,-610.5 348.5,-322.5 25.5,-322.5"/>
<text text-anchor="middle" x="187" y="-598.5" font-family="Helvetica,sans-Serif" font-size="10.00">eu.anwar.madrunner.objects.GameObject</text>
<polyline fill="none" stroke="#666666" points="25.5,-591.5 348.5,-591.5"/>
<text text-anchor="start" x="33.5" y="-579.5" font-family="Helvetica,sans-Serif" font-size="10.00"># double x</text>
<text text-anchor="start" x="33.5" y="-568.5" font-family="Helvetica,sans-Serif" font-size="10.00"># double y</text>
<text text-anchor="start" x="33.5" y="-557.5" font-family="Helvetica,sans-Serif" font-size="10.00"># double width</text>
<text text-anchor="start" x="33.5" y="-546.5" font-family="Helvetica,sans-Serif" font-size="10.00"># double length</text>
<polyline fill="none" stroke="#666666" points="25.5,-539.5 348.5,-539.5"/>
<text text-anchor="start" x="33.5" y="-527.5" font-family="Helvetica,sans-Serif" font-size="10.00">+ GameObject(double x, double y, double width, double length)</text>
<text text-anchor="start" x="33.5" y="-516.5" font-family="Helvetica,sans-Serif" font-size="10.00">+ GameObject(Block.Lane lane, double y, double width, double length)</text>
<text text-anchor="start" x="33.5" y="-505.5" font-family="Helvetica,sans-Serif" font-size="10.00">+ GameObject(Block.Lane lane, double y, double cubeLength)</text>
<text text-anchor="start" x="33.5" y="-494.5" font-family="Helvetica,sans-Serif" font-size="10.00">+ GameObject(double x, double y, double cubeLength)</text>
<text text-anchor="start" x="33.5" y="-483.5" font-family="Helvetica,sans-Serif" font-size="10.00">+ double getWidth()</text>
<text text-anchor="start" x="33.5" y="-472.5" font-family="Helvetica,sans-Serif" font-size="10.00">+ double getLength()</text>
<text text-anchor="start" x="33.5" y="-461.5" font-family="Helvetica,sans-Serif" font-size="10.00">+ void setColor(Color color)</text>
<text text-anchor="start" x="33.5" y="-450.5" font-family="Helvetica,sans-Serif" font-size="10.00">+ void setLane(Block.Lane path)</text>
<text text-anchor="start" x="33.5" y="-439.5" font-family="Helvetica,sans-Serif" font-size="10.00">+ void setImage(Image image)</text>
<text text-anchor="start" x="33.5" y="-428.5" font-family="Helvetica,sans-Serif" font-size="10.00">+ Block.Lane getLane()</text>
<text text-anchor="start" x="33.5" y="-417.5" font-family="Helvetica,sans-Serif" font-size="10.00">+ Image getImage()</text>
<text text-anchor="start" x="33.5" y="-406.5" font-family="Helvetica,sans-Serif" font-size="10.00">+ void setX(double x)</text>
<text text-anchor="start" x="33.5" y="-395.5" font-family="Helvetica,sans-Serif" font-size="10.00">+ void setY(double y)</text>
<text text-anchor="start" x="33.5" y="-384.5" font-family="Helvetica,sans-Serif" font-size="10.00">+ double getY()</text>
<text text-anchor="start" x="33.5" y="-373.5" font-family="Helvetica,sans-Serif" font-size="10.00">+ double getX()</text>
<text text-anchor="start" x="33.5" y="-362.5" font-family="Helvetica,sans-Serif" font-size="10.00">+ void Draw()</text>
<text text-anchor="start" x="33.5" y="-351.5" font-family="Helvetica,sans-Serif" font-size="10.00">+ boolean interesects(double x, double y)</text>
<text text-anchor="start" x="33.5" y="-340.5" font-family="Helvetica,sans-Serif" font-size="10.00">+ boolean interesects(Block.Lane lane, double y)</text>
<text text-anchor="start" x="33.5" y="-329.5" font-family="Helvetica,sans-Serif" font-size="10.00">+ boolean touches(GameObject other)</text>
</a>
</g>
</g>
<!-- Node3&#45;&gt;Node2 -->
<g id="edge2" class="edge">
<title>Node3&#45;&gt;Node2</title>
<path fill="none" stroke="#63b8ff" d="M187,-311.76C187,-302.31 187,-293.1 187,-284.39"/>
<polygon fill="none" stroke="#63b8ff" points="183.5,-311.53 187,-321.53 190.5,-311.53 183.5,-311.53"/>
</g>
<!-- Node4 -->
<g id="node4" class="node">
<title>Node4</title>
<g id="a_node4"><a xlink:title=" ">
<polygon fill="white" stroke="#666666" points="0,-702.5 0,-759.5 40,-759.5 40,-702.5 0,-702.5"/>
<text text-anchor="middle" x="20" y="-747.5" font-family="Helvetica,sans-Serif" font-size="10.00">Color</text>
<polyline fill="none" stroke="#666666" points="0,-740.5 40,-740.5"/>
<text text-anchor="middle" x="20" y="-728.5" font-family="Helvetica,sans-Serif" font-size="10.00"> </text>
<polyline fill="none" stroke="#666666" points="0,-721.5 40,-721.5"/>
<text text-anchor="middle" x="20" y="-709.5" font-family="Helvetica,sans-Serif" font-size="10.00"> </text>
</a>
</g>
</g>
<!-- Node4&#45;&gt;Node3 -->
<g id="edge3" class="edge">
<title>Node4&#45;&gt;Node3</title>
<path fill="none" stroke="#404040" d="M29.23,-702.61C34.32,-688.86 41.18,-672.15 49,-658 55.76,-645.77 63.18,-633.4 70.96,-621.15"/>
<polygon fill="none" stroke="#404040" points="70.89,-621.27 70.78,-614.06 77.4,-611.19 77.5,-618.4 70.89,-621.27"/>
<text text-anchor="middle" x="81" y="-632" font-family="Helvetica,sans-Serif" font-size="10.00"> #color</text>
</g>
<!-- Node5 -->
<g id="node5" class="node">
<title>Node5</title>
<g id="a_node5"><a xlink:href="classeu_1_1anwar_1_1madrunner_1_1objects_1_1obstacles_1_1Block.html" target="_top" xlink:title=" ">
<polygon fill="white" stroke="#666666" points="58,-658.5 58,-803.5 316,-803.5 316,-658.5 58,-658.5"/>
<text text-anchor="middle" x="187" y="-791.5" font-family="Helvetica,sans-Serif" font-size="10.00">eu.anwar.madrunner.objects.obstacles.Block</text>
<polyline fill="none" stroke="#666666" points="58,-784.5 316,-784.5"/>
<text text-anchor="start" x="66" y="-772.5" font-family="Helvetica,sans-Serif" font-size="10.00">+ static final double speed</text>
<text text-anchor="start" x="66" y="-761.5" font-family="Helvetica,sans-Serif" font-size="10.00">&#45; double currentY</text>
<polyline fill="none" stroke="#666666" points="58,-754.5 316,-754.5"/>
<text text-anchor="start" x="66" y="-742.5" font-family="Helvetica,sans-Serif" font-size="10.00">+ Block(ArrayList&lt; Obstacle &gt; left, ArrayList&lt; Obstacle</text>
<text text-anchor="start" x="66" y="-731.5" font-family="Helvetica,sans-Serif" font-size="10.00"> &gt; center, ArrayList&lt; Obstacle &gt; right)</text>
<text text-anchor="start" x="66" y="-720.5" font-family="Helvetica,sans-Serif" font-size="10.00">+ double getCurrentY()</text>
<text text-anchor="start" x="66" y="-709.5" font-family="Helvetica,sans-Serif" font-size="10.00">+ ArrayList&lt; Obstacle &gt; getLane(Lane lane)</text>
<text text-anchor="start" x="66" y="-698.5" font-family="Helvetica,sans-Serif" font-size="10.00">+ ArrayList&lt; Obstacle &gt; getLeftLane()</text>
<text text-anchor="start" x="66" y="-687.5" font-family="Helvetica,sans-Serif" font-size="10.00">+ ArrayList&lt; Obstacle &gt; getCenterLane()</text>
<text text-anchor="start" x="66" y="-676.5" font-family="Helvetica,sans-Serif" font-size="10.00">+ ArrayList&lt; Obstacle &gt; getRightLane()</text>
<text text-anchor="start" x="66" y="-665.5" font-family="Helvetica,sans-Serif" font-size="10.00">+ void frameUpdate()</text>
</a>
</g>
</g>
<!-- Node5&#45;&gt;Node3 -->
<g id="edge4" class="edge">
<title>Node5&#45;&gt;Node3</title>
<path fill="none" stroke="#404040" d="M187,-658.62C187,-647.41 187,-635.45 187,-623.2"/>
<polygon fill="none" stroke="#404040" points="187,-623.26 183,-617.26 187,-611.26 191,-617.26 187,-623.26"/>
<text text-anchor="middle" x="200.5" y="-632" font-family="Helvetica,sans-Serif" font-size="10.00"> #lane</text>
</g>
<!-- Node6 -->
<g id="node6" class="node">
<title>Node6</title>
<g id="a_node6"><a xlink:title=" ">
<polygon fill="white" stroke="#666666" points="45,-873.5 45,-930.5 329,-930.5 329,-873.5 45,-873.5"/>
<text text-anchor="middle" x="187" y="-918.5" font-family="Helvetica,sans-Serif" font-size="10.00">ArrayList&lt; eu.anwar.madrunner.objects.obstacles.Obstacle &gt;</text>
<polyline fill="none" stroke="#666666" points="45,-911.5 329,-911.5"/>
<text text-anchor="middle" x="187" y="-899.5" font-family="Helvetica,sans-Serif" font-size="10.00"> </text>
<polyline fill="none" stroke="#666666" points="45,-892.5 329,-892.5"/>
<text text-anchor="middle" x="187" y="-880.5" font-family="Helvetica,sans-Serif" font-size="10.00"> </text>
</a>
</g>
</g>
<!-- Node6&#45;&gt;Node5 -->
<g id="edge5" class="edge">
<title>Node6&#45;&gt;Node5</title>
<path fill="none" stroke="#404040" d="M187,-873.85C187,-858.01 187,-837.08 187,-816.17"/>
<polygon fill="none" stroke="#404040" points="187,-816.11 183,-810.11 187,-804.11 191,-810.11 187,-816.11"/>
<text text-anchor="middle" x="204" y="-847" font-family="Helvetica,sans-Serif" font-size="10.00"> &#45;center</text>
<text text-anchor="middle" x="204" y="-836" font-family="Helvetica,sans-Serif" font-size="10.00">&#45;left</text>
<text text-anchor="middle" x="204" y="-825" font-family="Helvetica,sans-Serif" font-size="10.00">&#45;right</text>
</g>
<!-- Node7 -->
<g id="node7" class="node">
<title>Node7</title>
<g id="a_node7"><a xlink:title=" ">
<polygon fill="white" stroke="#666666" points="159,-978.5 159,-1035.5 215,-1035.5 215,-978.5 159,-978.5"/>
<text text-anchor="middle" x="187" y="-1023.5" font-family="Helvetica,sans-Serif" font-size="10.00">ArrayList</text>
<polyline fill="none" stroke="#666666" points="159,-1016.5 215,-1016.5"/>
<text text-anchor="middle" x="187" y="-1004.5" font-family="Helvetica,sans-Serif" font-size="10.00"> </text>
<polyline fill="none" stroke="#666666" points="159,-997.5 215,-997.5"/>
<text text-anchor="middle" x="187" y="-985.5" font-family="Helvetica,sans-Serif" font-size="10.00"> </text>
</a>
</g>
</g>
<!-- Node7&#45;&gt;Node6 -->
<g id="edge6" class="edge">
<title>Node7&#45;&gt;Node6</title>
<path fill="none" stroke="orange" d="M187,-967.71C187,-955.34 187,-941.88 187,-930.46"/>
<polygon fill="orange" stroke="orange" points="183.5,-967.67 187,-977.67 190.5,-967.67 183.5,-967.67"/>
<text text-anchor="middle" x="310.5" y="-952" font-family="Helvetica,sans-Serif" font-size="10.00"> &lt; eu::anwar::madrunner::objects::obstacles::Obstacle &gt;</text>
</g>
<!-- Node8 -->
<g id="node8" class="node">
<title>Node8</title>
<g id="a_node8"><a xlink:title=" ">
<polygon fill="white" stroke="#666666" points="334,-702.5 334,-759.5 378,-759.5 378,-702.5 334,-702.5"/>
<text text-anchor="middle" x="356" y="-747.5" font-family="Helvetica,sans-Serif" font-size="10.00">Image</text>
<polyline fill="none" stroke="#666666" points="334,-740.5 378,-740.5"/>
<text text-anchor="middle" x="356" y="-728.5" font-family="Helvetica,sans-Serif" font-size="10.00"> </text>
<polyline fill="none" stroke="#666666" points="334,-721.5 378,-721.5"/>
<text text-anchor="middle" x="356" y="-709.5" font-family="Helvetica,sans-Serif" font-size="10.00"> </text>
</a>
</g>
</g>
<!-- Node8&#45;&gt;Node3 -->
<g id="edge7" class="edge">
<title>Node8&#45;&gt;Node3</title>
<path fill="none" stroke="#404040" d="M345.88,-702.65C340.38,-688.91 333.07,-672.2 325,-658 318.06,-645.78 310.48,-633.4 302.58,-621.13"/>
<polygon fill="none" stroke="#404040" points="302.61,-621.18 295.98,-618.34 296.05,-611.13 302.68,-613.97 302.61,-621.18"/>
<text text-anchor="middle" x="328.5" y="-632" font-family="Helvetica,sans-Serif" font-size="10.00"> &#45;image</text>
</g>
</g>
</svg>
