<?xml version="1.0" encoding="UTF-8" standalone="no"?>
<!DOCTYPE svg PUBLIC "-//W3C//DTD SVG 1.1//EN"
 "http://www.w3.org/Graphics/SVG/1.1/DTD/svg11.dtd">
<!-- Generated by graphviz version 8.0.3 (0)
 -->
<!-- Title: objects.Player Pages: 1 -->
<svg width="597pt" height="1397pt"
 viewBox="0.00 0.00 596.53 1397.00" xmlns="http://www.w3.org/2000/svg" xmlns:xlink="http://www.w3.org/1999/xlink">
<g id="graph0" class="graph" transform="scale(1 1) rotate(0) translate(4 1393)">
<title>objects.Player</title>
<!-- Node1 -->
<g id="node1" class="node">
<title>Node1</title>
<g id="a_node1"><a xlink:title=" ">
<polygon fill="#999999" stroke="#666666" points="309.53,-0.5 309.53,-442.5 500.53,-442.5 500.53,-0.5 309.53,-0.5"/>
<text text-anchor="middle" x="405.03" y="-430.5" font-family="Helvetica,sans-Serif" font-size="10.00">objects.Player</text>
<polyline fill="none" stroke="#666666" points="309.53,-423.5 500.53,-423.5"/>
<text text-anchor="start" x="317.53" y="-411.5" font-family="Helvetica,sans-Serif" font-size="10.00">+ static final double playerLength</text>
<text text-anchor="start" x="317.53" y="-400.5" font-family="Helvetica,sans-Serif" font-size="10.00">+ static final int maxJumpFrames</text>
<text text-anchor="start" x="317.53" y="-389.5" font-family="Helvetica,sans-Serif" font-size="10.00">+ static final int maxJumpLength</text>
<text text-anchor="start" x="317.53" y="-378.5" font-family="Helvetica,sans-Serif" font-size="10.00">+ static final int maxRampFrames</text>
<text text-anchor="start" x="317.53" y="-367.5" font-family="Helvetica,sans-Serif" font-size="10.00">+ static final double jumpFormulaATerm</text>
<text text-anchor="start" x="317.53" y="-356.5" font-family="Helvetica,sans-Serif" font-size="10.00">+ static final double jumpFormulaBTerm</text>
<text text-anchor="start" x="317.53" y="-345.5" font-family="Helvetica,sans-Serif" font-size="10.00">&#45; boolean jumping</text>
<text text-anchor="start" x="317.53" y="-334.5" font-family="Helvetica,sans-Serif" font-size="10.00">&#45; boolean isClimbingRamp</text>
<text text-anchor="start" x="317.53" y="-323.5" font-family="Helvetica,sans-Serif" font-size="10.00">&#45; Boolean alive</text>
<text text-anchor="start" x="317.53" y="-312.5" font-family="Helvetica,sans-Serif" font-size="10.00">&#45; Boolean isDying</text>
<text text-anchor="start" x="317.53" y="-301.5" font-family="Helvetica,sans-Serif" font-size="10.00">&#45; int currentJumpFrame</text>
<text text-anchor="start" x="317.53" y="-290.5" font-family="Helvetica,sans-Serif" font-size="10.00">&#45; int currentRunningFrame</text>
<text text-anchor="start" x="317.53" y="-279.5" font-family="Helvetica,sans-Serif" font-size="10.00">&#45; int currentDeathFrame</text>
<text text-anchor="start" x="317.53" y="-268.5" font-family="Helvetica,sans-Serif" font-size="10.00">&#45; int currentClimbingFrame</text>
<polyline fill="none" stroke="#666666" points="309.53,-261.5 500.53,-261.5"/>
<text text-anchor="start" x="317.53" y="-249.5" font-family="Helvetica,sans-Serif" font-size="10.00">+ Player()</text>
<text text-anchor="start" x="317.53" y="-238.5" font-family="Helvetica,sans-Serif" font-size="10.00">+ Level getLevel()</text>
<text text-anchor="start" x="317.53" y="-227.5" font-family="Helvetica,sans-Serif" font-size="10.00">+ void setLevel(Level level)</text>
<text text-anchor="start" x="317.53" y="-216.5" font-family="Helvetica,sans-Serif" font-size="10.00">+ void moveLeft()</text>
<text text-anchor="start" x="317.53" y="-205.5" font-family="Helvetica,sans-Serif" font-size="10.00">+ void moveRight()</text>
<text text-anchor="start" x="317.53" y="-194.5" font-family="Helvetica,sans-Serif" font-size="10.00">+ boolean isJumping()</text>
<text text-anchor="start" x="317.53" y="-183.5" font-family="Helvetica,sans-Serif" font-size="10.00">+ boolean isAlive()</text>
<text text-anchor="start" x="317.53" y="-172.5" font-family="Helvetica,sans-Serif" font-size="10.00">+ boolean isDying()</text>
<text text-anchor="start" x="317.53" y="-161.5" font-family="Helvetica,sans-Serif" font-size="10.00">+ void die()</text>
<text text-anchor="start" x="317.53" y="-150.5" font-family="Helvetica,sans-Serif" font-size="10.00">+ void rampClimb()</text>
<text text-anchor="start" x="317.53" y="-139.5" font-family="Helvetica,sans-Serif" font-size="10.00">+ void jump()</text>
<text text-anchor="start" x="317.53" y="-128.5" font-family="Helvetica,sans-Serif" font-size="10.00">+ void setIsDying()</text>
<text text-anchor="start" x="317.53" y="-117.5" font-family="Helvetica,sans-Serif" font-size="10.00">+ void jumpUpdate()</text>
<text text-anchor="start" x="317.53" y="-106.5" font-family="Helvetica,sans-Serif" font-size="10.00">+ void setPlayerLevelLow()</text>
<text text-anchor="start" x="317.53" y="-95.5" font-family="Helvetica,sans-Serif" font-size="10.00">+ void setPlayerLevelHigh()</text>
<text text-anchor="start" x="317.53" y="-84.5" font-family="Helvetica,sans-Serif" font-size="10.00">+ void rampUpdate()</text>
<text text-anchor="start" x="317.53" y="-73.5" font-family="Helvetica,sans-Serif" font-size="10.00">+ void updateDeathAnimation()</text>
<text text-anchor="start" x="317.53" y="-62.5" font-family="Helvetica,sans-Serif" font-size="10.00">+ void playerUpdateAnimation()</text>
<text text-anchor="start" x="317.53" y="-51.5" font-family="Helvetica,sans-Serif" font-size="10.00">&#45; void setAnimations()</text>
<text text-anchor="start" x="317.53" y="-40.5" font-family="Helvetica,sans-Serif" font-size="10.00">&#45; void playerLengthIncrease(double diff)</text>
<text text-anchor="start" x="317.53" y="-29.5" font-family="Helvetica,sans-Serif" font-size="10.00">&#45; void playerLengthDecrease(double diff)</text>
<text text-anchor="start" x="317.53" y="-18.5" font-family="Helvetica,sans-Serif" font-size="10.00">&#45; double jumpCurrentValue(int frame)</text>
<text text-anchor="start" x="317.53" y="-7.5" font-family="Helvetica,sans-Serif" font-size="10.00">&#45; void updateRunningAnimation()</text>
</a>
</g>
</g>
<!-- Node2 -->
<g id="node2" class="node">
<title>Node2</title>
<g id="a_node2"><a xlink:href="classobjects_1_1GameLaneObject.html" target="_top" xlink:title=" ">
<polygon fill="white" stroke="#666666" points="83.03,-490.5 83.03,-624.5 427.03,-624.5 427.03,-490.5 83.03,-490.5"/>
<text text-anchor="middle" x="255.03" y="-612.5" font-family="Helvetica,sans-Serif" font-size="10.00">objects.GameLaneObject</text>
<polyline fill="none" stroke="#666666" points="83.03,-605.5 427.03,-605.5"/>
<text text-anchor="middle" x="255.03" y="-593.5" font-family="Helvetica,sans-Serif" font-size="10.00"> </text>
<polyline fill="none" stroke="#666666" points="83.03,-586.5 427.03,-586.5"/>
<text text-anchor="start" x="91.03" y="-574.5" font-family="Helvetica,sans-Serif" font-size="10.00">+ GameLaneObject(Block.Lane lane, double y, double width, double length)</text>
<text text-anchor="start" x="91.03" y="-563.5" font-family="Helvetica,sans-Serif" font-size="10.00">+ GameLaneObject(Block.Lane lane, double y, double cubeLength)</text>
<text text-anchor="start" x="91.03" y="-552.5" font-family="Helvetica,sans-Serif" font-size="10.00">+ void setLane(Block.Lane path)</text>
<text text-anchor="start" x="91.03" y="-541.5" font-family="Helvetica,sans-Serif" font-size="10.00">+ Block.Lane getLane()</text>
<text text-anchor="start" x="91.03" y="-530.5" font-family="Helvetica,sans-Serif" font-size="10.00">+ void Draw()</text>
<text text-anchor="start" x="91.03" y="-519.5" font-family="Helvetica,sans-Serif" font-size="10.00">+ boolean contains(Block.Lane lane, double y)</text>
<text text-anchor="start" x="91.03" y="-508.5" font-family="Helvetica,sans-Serif" font-size="10.00">+ boolean touches(GameLaneObject other)</text>
<text text-anchor="start" x="91.03" y="-497.5" font-family="Helvetica,sans-Serif" font-size="10.00">+ double distance(GameLaneObject other)</text>
</a>
</g>
</g>
<!-- Node2&#45;&gt;Node1 -->
<g id="edge1" class="edge">
<title>Node2&#45;&gt;Node1</title>
<path fill="none" stroke="#63b8ff" d="M288.99,-480.88C295.38,-466.66 302.34,-451.17 309.57,-435.06"/>
<polygon fill="none" stroke="#63b8ff" points="285.57,-478.96 284.67,-489.51 291.96,-481.82 285.57,-478.96"/>
</g>
<!-- Node3 -->
<g id="node3" class="node">
<title>Node3</title>
<g id="a_node3"><a xlink:href="classobjects_1_1GameObject.html" target="_top" xlink:title=" ">
<polygon fill="white" stroke="#666666" points="29.53,-672.5 29.53,-938.5 352.53,-938.5 352.53,-672.5 29.53,-672.5"/>
<text text-anchor="middle" x="191.03" y="-926.5" font-family="Helvetica,sans-Serif" font-size="10.00">objects.GameObject</text>
<polyline fill="none" stroke="#666666" points="29.53,-919.5 352.53,-919.5"/>
<text text-anchor="start" x="37.53" y="-907.5" font-family="Helvetica,sans-Serif" font-size="10.00"># double x</text>
<text text-anchor="start" x="37.53" y="-896.5" font-family="Helvetica,sans-Serif" font-size="10.00"># double y</text>
<text text-anchor="start" x="37.53" y="-885.5" font-family="Helvetica,sans-Serif" font-size="10.00"># double width</text>
<text text-anchor="start" x="37.53" y="-874.5" font-family="Helvetica,sans-Serif" font-size="10.00"># double length</text>
<polyline fill="none" stroke="#666666" points="29.53,-867.5 352.53,-867.5"/>
<text text-anchor="start" x="37.53" y="-855.5" font-family="Helvetica,sans-Serif" font-size="10.00">+ GameObject(double x, double y, double width, double length)</text>
<text text-anchor="start" x="37.53" y="-844.5" font-family="Helvetica,sans-Serif" font-size="10.00">+ GameObject(Block.Lane lane, double y, double width, double length)</text>
<text text-anchor="start" x="37.53" y="-833.5" font-family="Helvetica,sans-Serif" font-size="10.00">+ GameObject(Block.Lane lane, double y, double cubeLength)</text>
<text text-anchor="start" x="37.53" y="-822.5" font-family="Helvetica,sans-Serif" font-size="10.00">+ GameObject(double x, double y, double cubeLength)</text>
<text text-anchor="start" x="37.53" y="-811.5" font-family="Helvetica,sans-Serif" font-size="10.00">+ double getWidth()</text>
<text text-anchor="start" x="37.53" y="-800.5" font-family="Helvetica,sans-Serif" font-size="10.00">+ double getLength()</text>
<text text-anchor="start" x="37.53" y="-789.5" font-family="Helvetica,sans-Serif" font-size="10.00">+ void setColor(Color color)</text>
<text text-anchor="start" x="37.53" y="-778.5" font-family="Helvetica,sans-Serif" font-size="10.00">+ void setLane(Block.Lane path)</text>
<text text-anchor="start" x="37.53" y="-767.5" font-family="Helvetica,sans-Serif" font-size="10.00">+ Block.Lane getLane()</text>
<text text-anchor="start" x="37.53" y="-756.5" font-family="Helvetica,sans-Serif" font-size="10.00">+ void setX(double x)</text>
<text text-anchor="start" x="37.53" y="-745.5" font-family="Helvetica,sans-Serif" font-size="10.00">+ void setY(double y)</text>
<text text-anchor="start" x="37.53" y="-734.5" font-family="Helvetica,sans-Serif" font-size="10.00">+ double getY()</text>
<text text-anchor="start" x="37.53" y="-723.5" font-family="Helvetica,sans-Serif" font-size="10.00">+ double getX()</text>
<text text-anchor="start" x="37.53" y="-712.5" font-family="Helvetica,sans-Serif" font-size="10.00">+ void Draw()</text>
<text text-anchor="start" x="37.53" y="-701.5" font-family="Helvetica,sans-Serif" font-size="10.00">+ boolean interesects(double x, double y)</text>
<text text-anchor="start" x="37.53" y="-690.5" font-family="Helvetica,sans-Serif" font-size="10.00">+ boolean interesects(Block.Lane lane, double y)</text>
<text text-anchor="start" x="37.53" y="-679.5" font-family="Helvetica,sans-Serif" font-size="10.00">+ boolean touches(GameObject other)</text>
</a>
</g>
</g>
<!-- Node3&#45;&gt;Node2 -->
<g id="edge2" class="edge">
<title>Node3&#45;&gt;Node2</title>
<path fill="none" stroke="#63b8ff" d="M228.03,-662.27C231.45,-649.14 234.79,-636.3 237.89,-624.39"/>
<polygon fill="none" stroke="#63b8ff" points="224.41,-661.3 225.28,-671.86 231.19,-663.06 224.41,-661.3"/>
</g>
<!-- Node4 -->
<g id="node4" class="node">
<title>Node4</title>
<g id="a_node4"><a xlink:title=" ">
<polygon fill="white" stroke="#666666" points="17.03,-1030.5 17.03,-1087.5 57.03,-1087.5 57.03,-1030.5 17.03,-1030.5"/>
<text text-anchor="middle" x="37.03" y="-1075.5" font-family="Helvetica,sans-Serif" font-size="10.00">Color</text>
<polyline fill="none" stroke="#666666" points="17.03,-1068.5 57.03,-1068.5"/>
<text text-anchor="middle" x="37.03" y="-1056.5" font-family="Helvetica,sans-Serif" font-size="10.00"> </text>
<polyline fill="none" stroke="#666666" points="17.03,-1049.5 57.03,-1049.5"/>
<text text-anchor="middle" x="37.03" y="-1037.5" font-family="Helvetica,sans-Serif" font-size="10.00"> </text>
</a>
</g>
</g>
<!-- Node4&#45;&gt;Node1 -->
<g id="edge9" class="edge">
<title>Node4&#45;&gt;Node1</title>
<path fill="none" stroke="#404040" d="M30.05,-1030.73C9.34,-943.28 -43.31,-665.34 74.03,-490 131.8,-403.67 225.94,-331.49 299.09,-283.95"/>
<polygon fill="none" stroke="#404040" points="298.87,-284.09 301.75,-277.48 308.96,-277.6 306.08,-284.21 298.87,-284.09"/>
<text text-anchor="middle" x="41.03" y="-646" font-family="Helvetica,sans-Serif" font-size="10.00"> &#45;playerColor</text>
</g>
<!-- Node4&#45;&gt;Node3 -->
<g id="edge3" class="edge">
<title>Node4&#45;&gt;Node3</title>
<path fill="none" stroke="#404040" d="M53.81,-1030.61C66.32,-1010.16 84.49,-980.5 103.52,-949.41"/>
<polygon fill="none" stroke="#404040" points="103.55,-949.37 103.27,-942.17 109.81,-939.14 110.09,-946.35 103.55,-949.37"/>
<text text-anchor="middle" x="111.03" y="-960" font-family="Helvetica,sans-Serif" font-size="10.00"> #color</text>
</g>
<!-- Node5 -->
<g id="node5" class="node">
<title>Node5</title>
<g id="a_node5"><a xlink:title=" ">
<polygon fill="white" stroke="#666666" points="107.03,-1030.5 107.03,-1087.5 151.03,-1087.5 151.03,-1030.5 107.03,-1030.5"/>
<text text-anchor="middle" x="129.03" y="-1075.5" font-family="Helvetica,sans-Serif" font-size="10.00">Image</text>
<polyline fill="none" stroke="#666666" points="107.03,-1068.5 151.03,-1068.5"/>
<text text-anchor="middle" x="129.03" y="-1056.5" font-family="Helvetica,sans-Serif" font-size="10.00"> </text>
<polyline fill="none" stroke="#666666" points="107.03,-1049.5 151.03,-1049.5"/>
<text text-anchor="middle" x="129.03" y="-1037.5" font-family="Helvetica,sans-Serif" font-size="10.00"> </text>
</a>
</g>
</g>
<!-- Node5&#45;&gt;Node3 -->
<g id="edge4" class="edge">
<title>Node5&#45;&gt;Node3</title>
<path fill="none" stroke="#404040" d="M135.78,-1030.61C140.74,-1010.52 147.88,-981.54 155.4,-951.04"/>
<polygon fill="none" stroke="#404040" points="155.43,-950.9 152.99,-944.12 158.31,-939.25 160.75,-946.03 155.43,-950.9"/>
<text text-anchor="middle" x="170.53" y="-960" font-family="Helvetica,sans-Serif" font-size="10.00"> #image</text>
</g>
<!-- Node6 -->
<g id="node6" class="node">
<title>Node6</title>
<g id="a_node6"><a xlink:href="classobjects_1_1Block.html" target="_top" xlink:title=" ">
<polygon fill="white" stroke="#666666" points="169.03,-986.5 169.03,-1131.5 427.03,-1131.5 427.03,-986.5 169.03,-986.5"/>
<text text-anchor="middle" x="298.03" y="-1119.5" font-family="Helvetica,sans-Serif" font-size="10.00">objects.Block</text>
<polyline fill="none" stroke="#666666" points="169.03,-1112.5 427.03,-1112.5"/>
<text text-anchor="start" x="177.03" y="-1100.5" font-family="Helvetica,sans-Serif" font-size="10.00">+ static final double speed</text>
<text text-anchor="start" x="177.03" y="-1089.5" font-family="Helvetica,sans-Serif" font-size="10.00">&#45; double currentY</text>
<polyline fill="none" stroke="#666666" points="169.03,-1082.5 427.03,-1082.5"/>
<text text-anchor="start" x="177.03" y="-1070.5" font-family="Helvetica,sans-Serif" font-size="10.00">+ Block(ArrayList&lt; Obstacle &gt; left, ArrayList&lt; Obstacle</text>
<text text-anchor="start" x="177.03" y="-1059.5" font-family="Helvetica,sans-Serif" font-size="10.00"> &gt; center, ArrayList&lt; Obstacle &gt; right)</text>
<text text-anchor="start" x="177.03" y="-1048.5" font-family="Helvetica,sans-Serif" font-size="10.00">+ double getCurrentY()</text>
<text text-anchor="start" x="177.03" y="-1037.5" font-family="Helvetica,sans-Serif" font-size="10.00">+ ArrayList&lt; Obstacle &gt; getLane(Lane lane)</text>
<text text-anchor="start" x="177.03" y="-1026.5" font-family="Helvetica,sans-Serif" font-size="10.00">+ ArrayList&lt; Obstacle &gt; getLeftLane()</text>
<text text-anchor="start" x="177.03" y="-1015.5" font-family="Helvetica,sans-Serif" font-size="10.00">+ ArrayList&lt; Obstacle &gt; getCenterLane()</text>
<text text-anchor="start" x="177.03" y="-1004.5" font-family="Helvetica,sans-Serif" font-size="10.00">+ ArrayList&lt; Obstacle &gt; getRightLane()</text>
<text text-anchor="start" x="177.03" y="-993.5" font-family="Helvetica,sans-Serif" font-size="10.00">+ void frameUpdate()</text>
</a>
</g>
</g>
<!-- Node6&#45;&gt;Node2 -->
<g id="edge8" class="edge">
<title>Node6&#45;&gt;Node2</title>
<path fill="none" stroke="#404040" d="M342.91,-986.62C350.4,-971.43 357.03,-955.11 361.03,-939 389.64,-823.83 404.56,-782.39 361.03,-672 355.79,-658.71 348.18,-646.06 339.4,-634.36"/>
<polygon fill="none" stroke="#404040" points="339.45,-634.42 332.59,-632.21 331.98,-625.03 338.85,-627.23 339.45,-634.42"/>
<text text-anchor="middle" x="402.53" y="-803" font-family="Helvetica,sans-Serif" font-size="10.00"> #lane</text>
</g>
<!-- Node6&#45;&gt;Node3 -->
<g id="edge5" class="edge">
<title>Node6&#45;&gt;Node3</title>
<path fill="none" stroke="#404040" d="M267.66,-986.6C262.69,-974.93 257.39,-962.48 251.99,-949.79"/>
<polygon fill="none" stroke="#404040" points="252.06,-949.95 246.03,-946 247.36,-938.91 253.39,-942.86 252.06,-949.95"/>
<text text-anchor="middle" x="271.53" y="-960" font-family="Helvetica,sans-Serif" font-size="10.00"> #lane</text>
</g>
<!-- Node7 -->
<g id="node7" class="node">
<title>Node7</title>
<g id="a_node7"><a xlink:title=" ">
<polygon fill="white" stroke="#666666" points="237.53,-1226.5 237.53,-1283.5 384.53,-1283.5 384.53,-1226.5 237.53,-1226.5"/>
<text text-anchor="middle" x="311.03" y="-1271.5" font-family="Helvetica,sans-Serif" font-size="10.00">ArrayList&lt; objects.Obstacle &gt;</text>
<polyline fill="none" stroke="#666666" points="237.53,-1264.5 384.53,-1264.5"/>
<text text-anchor="middle" x="311.03" y="-1252.5" font-family="Helvetica,sans-Serif" font-size="10.00"> </text>
<polyline fill="none" stroke="#666666" points="237.53,-1245.5 384.53,-1245.5"/>
<text text-anchor="middle" x="311.03" y="-1233.5" font-family="Helvetica,sans-Serif" font-size="10.00"> </text>
</a>
</g>
</g>
<!-- Node7&#45;&gt;Node6 -->
<g id="edge6" class="edge">
<title>Node7&#45;&gt;Node6</title>
<path fill="none" stroke="#404040" d="M309.2,-1226.62C307.75,-1205.05 305.66,-1173.79 303.67,-1144.15"/>
<polygon fill="none" stroke="#404040" points="303.66,-1144.01 299.27,-1138.3 302.86,-1132.04 307.25,-1137.76 303.66,-1144.01"/>
<text text-anchor="middle" x="325.03" y="-1187.5" font-family="Helvetica,sans-Serif" font-size="10.00"> &#45;center</text>
<text text-anchor="middle" x="325.03" y="-1176.5" font-family="Helvetica,sans-Serif" font-size="10.00">&#45;left</text>
<text text-anchor="middle" x="325.03" y="-1165.5" font-family="Helvetica,sans-Serif" font-size="10.00">&#45;right</text>
</g>
<!-- Node8 -->
<g id="node8" class="node">
<title>Node8</title>
<g id="a_node8"><a xlink:title=" ">
<polygon fill="white" stroke="#666666" points="361.03,-1331.5 361.03,-1388.5 417.03,-1388.5 417.03,-1331.5 361.03,-1331.5"/>
<text text-anchor="middle" x="389.03" y="-1376.5" font-family="Helvetica,sans-Serif" font-size="10.00">ArrayList</text>
<polyline fill="none" stroke="#666666" points="361.03,-1369.5 417.03,-1369.5"/>
<text text-anchor="middle" x="389.03" y="-1357.5" font-family="Helvetica,sans-Serif" font-size="10.00"> </text>
<polyline fill="none" stroke="#666666" points="361.03,-1350.5 417.03,-1350.5"/>
<text text-anchor="middle" x="389.03" y="-1338.5" font-family="Helvetica,sans-Serif" font-size="10.00"> </text>
</a>
</g>
</g>
<!-- Node8&#45;&gt;Node7 -->
<g id="edge7" class="edge">
<title>Node8&#45;&gt;Node7</title>
<path fill="none" stroke="orange" d="M352.8,-1334.68C345.19,-1328.31 337.75,-1320.97 332.03,-1313 325.7,-1304.17 321.06,-1293.22 317.78,-1283.29"/>
<polygon fill="orange" stroke="orange" points="350.04,-1337.74 360.06,-1341.19 354.38,-1332.25 350.04,-1337.74"/>
<text text-anchor="middle" x="381.03" y="-1305" font-family="Helvetica,sans-Serif" font-size="10.00"> &lt; objects::Obstacle &gt;</text>
</g>
<!-- Node10 -->
<g id="node10" class="node">
<title>Node10</title>
<g id="a_node10"><a xlink:title=" ">
<polygon fill="white" stroke="#666666" points="402.53,-1150.5 402.53,-1207.5 503.53,-1207.5 503.53,-1150.5 402.53,-1150.5"/>
<text text-anchor="middle" x="453.03" y="-1195.5" font-family="Helvetica,sans-Serif" font-size="10.00">ArrayList&lt; Image &gt;</text>
<polyline fill="none" stroke="#666666" points="402.53,-1188.5 503.53,-1188.5"/>
<text text-anchor="middle" x="453.03" y="-1176.5" font-family="Helvetica,sans-Serif" font-size="10.00"> </text>
<polyline fill="none" stroke="#666666" points="402.53,-1169.5 503.53,-1169.5"/>
<text text-anchor="middle" x="453.03" y="-1157.5" font-family="Helvetica,sans-Serif" font-size="10.00"> </text>
</a>
</g>
</g>
<!-- Node8&#45;&gt;Node10 -->
<g id="edge12" class="edge">
<title>Node8&#45;&gt;Node10</title>
<path fill="none" stroke="orange" d="M423.49,-1324.08C425.96,-1320.51 428.2,-1316.79 430.03,-1313 446.43,-1279.02 451.3,-1235.18 452.65,-1207.32"/>
<polygon fill="orange" stroke="orange" points="420.25,-1321.55 416.94,-1331.62 425.8,-1325.81 420.25,-1321.55"/>
<text text-anchor="middle" x="459.53" y="-1305" font-family="Helvetica,sans-Serif" font-size="10.00"> &lt; Image &gt;</text>
</g>
<!-- Node9 -->
<g id="node9" class="node">
<title>Node9</title>
<g id="a_node9"><a xlink:href="enumobjects_1_1Player_1_1Level.html" target="_top" xlink:title=" ">
<polygon fill="white" stroke="#666666" points="483.53,-523.5 483.53,-591.5 588.53,-591.5 588.53,-523.5 483.53,-523.5"/>
<text text-anchor="middle" x="536.03" y="-579.5" font-family="Helvetica,sans-Serif" font-size="10.00">objects.Player.Level</text>
<polyline fill="none" stroke="#666666" points="483.53,-572.5 588.53,-572.5"/>
<text text-anchor="start" x="491.53" y="-560.5" font-family="Helvetica,sans-Serif" font-size="10.00">+ LOW</text>
<text text-anchor="start" x="491.53" y="-549.5" font-family="Helvetica,sans-Serif" font-size="10.00">+ HIGH</text>
<polyline fill="none" stroke="#666666" points="483.53,-542.5 588.53,-542.5"/>
<text text-anchor="middle" x="536.03" y="-530.5" font-family="Helvetica,sans-Serif" font-size="10.00"> </text>
</a>
</g>
</g>
<!-- Node9&#45;&gt;Node1 -->
<g id="edge10" class="edge">
<title>Node9&#45;&gt;Node1</title>
<path fill="none" stroke="#404040" d="M523.11,-523.56C516.03,-505.5 506.55,-481.34 496.04,-454.54"/>
<polygon fill="none" stroke="#404040" points="496.02,-454.49 490.11,-450.36 491.64,-443.32 497.55,-447.44 496.02,-454.49"/>
<text text-anchor="middle" x="513.53" y="-464" font-family="Helvetica,sans-Serif" font-size="10.00"> &#45;level</text>
</g>
<!-- Node10&#45;&gt;Node1 -->
<g id="edge11" class="edge">
<title>Node10&#45;&gt;Node1</title>
<path fill="none" stroke="#404040" d="M453.45,-1150.57C454.04,-1109.79 455.03,-1030.72 455.03,-963.5 455.03,-963.5 455.03,-963.5 455.03,-556.5 455.03,-523.62 452.63,-489.11 448.88,-455.27"/>
<polygon fill="none" stroke="#404040" points="448.87,-455.15 444.21,-449.65 447.49,-443.23 452.15,-448.73 448.87,-455.15"/>
<text text-anchor="middle" x="487.03" y="-808.5" font-family="Helvetica,sans-Serif" font-size="10.00"> &#45;deathFrames</text>
<text text-anchor="middle" x="487.03" y="-797.5" font-family="Helvetica,sans-Serif" font-size="10.00">&#45;runFrames</text>
</g>
</g>
</svg>
