<?xml version="1.0" encoding="UTF-8" standalone="no"?>
<!DOCTYPE svg PUBLIC "-//W3C//DTD SVG 1.1//EN"
 "http://www.w3.org/Graphics/SVG/1.1/DTD/svg11.dtd">
<!-- Generated by graphviz version 3.0.0 (20221109.1736)
 -->
<!-- Title: eu.anwar.madrunner.objects.Ground Pages: 1 -->
<svg width="430pt" height="762pt"
 viewBox="0.00 0.00 429.50 762.00" xmlns="http://www.w3.org/2000/svg" xmlns:xlink="http://www.w3.org/1999/xlink">
<g id="graph0" class="graph" transform="scale(1 1) rotate(0) translate(4 758)">
<title>eu.anwar.madrunner.objects.Ground</title>
<polygon fill="white" stroke="transparent" points="-4,4 -4,-758 425.5,-758 425.5,4 -4,4"/>
<!-- Node1 -->
<g id="node1" class="node">
<title>Node1</title>
<g id="a_node1"><a xlink:title=" ">
<polygon fill="#bfbfbf" stroke="black" points="157,-0.5 157,-90.5 376,-90.5 376,-0.5 157,-0.5"/>
<text text-anchor="middle" x="266.5" y="-78.5" font-family="Helvetica,sans-Serif" font-size="10.00">eu.anwar.madrunner.objects.Ground</text>
<polyline fill="none" stroke="black" points="157,-71.5 376,-71.5 "/>
<text text-anchor="start" x="165" y="-59.5" font-family="Helvetica,sans-Serif" font-size="10.00">+ static final double laneImageWidth</text>
<text text-anchor="start" x="165" y="-48.5" font-family="Helvetica,sans-Serif" font-size="10.00">&#45; double yDisplacement</text>
<polyline fill="none" stroke="black" points="157,-41.5 376,-41.5 "/>
<text text-anchor="start" x="165" y="-29.5" font-family="Helvetica,sans-Serif" font-size="10.00">+ Ground(double x, double width, double length)</text>
<text text-anchor="start" x="165" y="-18.5" font-family="Helvetica,sans-Serif" font-size="10.00">+ void frameUpdate()</text>
<text text-anchor="start" x="165" y="-7.5" font-family="Helvetica,sans-Serif" font-size="10.00">+ void Draw()</text>
</a>
</g>
</g>
<!-- Node2 -->
<g id="node2" class="node">
<title>Node2</title>
<g id="a_node2"><a xlink:href="classeu_1_1anwar_1_1madrunner_1_1objects_1_1GameObject.html" target="_top" xlink:title=" ">
<polygon fill="white" stroke="black" points="36,-128.5 36,-328.5 319,-328.5 319,-128.5 36,-128.5"/>
<text text-anchor="middle" x="177.5" y="-316.5" font-family="Helvetica,sans-Serif" font-size="10.00">eu.anwar.madrunner.objects.GameObject</text>
<polyline fill="none" stroke="black" points="36,-309.5 319,-309.5 "/>
<text text-anchor="start" x="44" y="-297.5" font-family="Helvetica,sans-Serif" font-size="10.00"># double x</text>
<text text-anchor="start" x="44" y="-286.5" font-family="Helvetica,sans-Serif" font-size="10.00"># double y</text>
<text text-anchor="start" x="44" y="-275.5" font-family="Helvetica,sans-Serif" font-size="10.00"># double width</text>
<text text-anchor="start" x="44" y="-264.5" font-family="Helvetica,sans-Serif" font-size="10.00"># double length</text>
<polyline fill="none" stroke="black" points="36,-257.5 319,-257.5 "/>
<text text-anchor="start" x="44" y="-245.5" font-family="Helvetica,sans-Serif" font-size="10.00">+ GameObject(double x, double y, double width, double length)</text>
<text text-anchor="start" x="44" y="-234.5" font-family="Helvetica,sans-Serif" font-size="10.00">+ double getWidth()</text>
<text text-anchor="start" x="44" y="-223.5" font-family="Helvetica,sans-Serif" font-size="10.00">+ double getLength()</text>
<text text-anchor="start" x="44" y="-212.5" font-family="Helvetica,sans-Serif" font-size="10.00">+ void setColor(Color color)</text>
<text text-anchor="start" x="44" y="-201.5" font-family="Helvetica,sans-Serif" font-size="10.00">+ void setLane(Block.Lane path)</text>
<text text-anchor="start" x="44" y="-190.5" font-family="Helvetica,sans-Serif" font-size="10.00">+ void setImage(Image image)</text>
<text text-anchor="start" x="44" y="-179.5" font-family="Helvetica,sans-Serif" font-size="10.00">+ Block.Lane getLane()</text>
<text text-anchor="start" x="44" y="-168.5" font-family="Helvetica,sans-Serif" font-size="10.00">+ Image getImage()</text>
<text text-anchor="start" x="44" y="-157.5" font-family="Helvetica,sans-Serif" font-size="10.00">+ void setY(double y)</text>
<text text-anchor="start" x="44" y="-146.5" font-family="Helvetica,sans-Serif" font-size="10.00">+ double getY()</text>
<text text-anchor="start" x="44" y="-135.5" font-family="Helvetica,sans-Serif" font-size="10.00">+ void Draw()</text>
</a>
</g>
</g>
<!-- Node2&#45;&gt;Node1 -->
<g id="edge1" class="edge">
<title>Node2&#45;&gt;Node1</title>
<path fill="none" stroke="midnightblue" d="M230.82,-119.06C235.72,-109.11 240.46,-99.46 244.81,-90.62"/>
<polygon fill="none" stroke="midnightblue" points="227.57,-117.74 226.3,-128.26 233.85,-120.83 227.57,-117.74"/>
</g>
<!-- Node3 -->
<g id="node3" class="node">
<title>Node3</title>
<g id="a_node3"><a xlink:title=" ">
<polygon fill="white" stroke="black" points="0,-420.5 0,-477.5 39,-477.5 39,-420.5 0,-420.5"/>
<text text-anchor="middle" x="19.5" y="-465.5" font-family="Helvetica,sans-Serif" font-size="10.00">Color</text>
<polyline fill="none" stroke="black" points="0,-458.5 39,-458.5 "/>
<text text-anchor="middle" x="19.5" y="-446.5" font-family="Helvetica,sans-Serif" font-size="10.00"> </text>
<polyline fill="none" stroke="black" points="0,-439.5 39,-439.5 "/>
<text text-anchor="middle" x="19.5" y="-427.5" font-family="Helvetica,sans-Serif" font-size="10.00"> </text>
</a>
</g>
</g>
<!-- Node3&#45;&gt;Node2 -->
<g id="edge2" class="edge">
<title>Node3&#45;&gt;Node2</title>
<path fill="none" stroke="#404040" d="M28.17,-420.28C33.11,-406.45 40.01,-389.77 48.5,-376 56.29,-363.37 65.19,-350.77 74.59,-338.56"/>
<polygon fill="none" stroke="#404040" points="74.8,-338.29 75.37,-331.11 82.22,-328.87 81.65,-336.05 74.8,-338.29"/>
<text text-anchor="middle" x="81" y="-350" font-family="Helvetica,sans-Serif" font-size="10.00"> #color</text>
</g>
<!-- Node4 -->
<g id="node4" class="node">
<title>Node4</title>
<g id="a_node4"><a xlink:href="classeu_1_1anwar_1_1madrunner_1_1objects_1_1obstacles_1_1Block.html" target="_top" xlink:title=" ">
<polygon fill="white" stroke="black" points="57.5,-376.5 57.5,-521.5 311.5,-521.5 311.5,-376.5 57.5,-376.5"/>
<text text-anchor="middle" x="184.5" y="-509.5" font-family="Helvetica,sans-Serif" font-size="10.00">eu.anwar.madrunner.objects.obstacles.Block</text>
<polyline fill="none" stroke="black" points="57.5,-502.5 311.5,-502.5 "/>
<text text-anchor="start" x="65.5" y="-490.5" font-family="Helvetica,sans-Serif" font-size="10.00">+ static final double speed</text>
<text text-anchor="start" x="65.5" y="-479.5" font-family="Helvetica,sans-Serif" font-size="10.00">&#45; double currentY</text>
<polyline fill="none" stroke="black" points="57.5,-472.5 311.5,-472.5 "/>
<text text-anchor="start" x="65.5" y="-460.5" font-family="Helvetica,sans-Serif" font-size="10.00">+ Block(ArrayList&lt; Obstacle &gt; left, ArrayList&lt; Obstacle</text>
<text text-anchor="start" x="65.5" y="-449.5" font-family="Helvetica,sans-Serif" font-size="10.00"> &gt; center, ArrayList&lt; Obstacle &gt; right)</text>
<text text-anchor="start" x="65.5" y="-438.5" font-family="Helvetica,sans-Serif" font-size="10.00">+ double getCurrentY()</text>
<text text-anchor="start" x="65.5" y="-427.5" font-family="Helvetica,sans-Serif" font-size="10.00">+ ArrayList&lt; Obstacle &gt; getLane(Lane lane)</text>
<text text-anchor="start" x="65.5" y="-416.5" font-family="Helvetica,sans-Serif" font-size="10.00">+ ArrayList&lt; Obstacle &gt; getLeftLane()</text>
<text text-anchor="start" x="65.5" y="-405.5" font-family="Helvetica,sans-Serif" font-size="10.00">+ ArrayList&lt; Obstacle &gt; getCenterLane()</text>
<text text-anchor="start" x="65.5" y="-394.5" font-family="Helvetica,sans-Serif" font-size="10.00">+ ArrayList&lt; Obstacle &gt; getRightLane()</text>
<text text-anchor="start" x="65.5" y="-383.5" font-family="Helvetica,sans-Serif" font-size="10.00">+ void frameUpdate()</text>
</a>
</g>
</g>
<!-- Node4&#45;&gt;Node2 -->
<g id="edge3" class="edge">
<title>Node4&#45;&gt;Node2</title>
<path fill="none" stroke="#404040" d="M182.21,-376.45C181.84,-364.97 181.45,-352.86 181.06,-340.71"/>
<polygon fill="none" stroke="#404040" points="181.06,-340.57 176.87,-334.7 180.67,-328.58 184.86,-334.44 181.06,-340.57"/>
<text text-anchor="middle" x="194.5" y="-350" font-family="Helvetica,sans-Serif" font-size="10.00"> #lane</text>
</g>
<!-- Node5 -->
<g id="node5" class="node">
<title>Node5</title>
<g id="a_node5"><a xlink:title=" ">
<polygon fill="white" stroke="black" points="45.5,-591.5 45.5,-648.5 323.5,-648.5 323.5,-591.5 45.5,-591.5"/>
<text text-anchor="middle" x="184.5" y="-636.5" font-family="Helvetica,sans-Serif" font-size="10.00">ArrayList&lt; eu.anwar.madrunner.objects.obstacles.Obstacle &gt;</text>
<polyline fill="none" stroke="black" points="45.5,-629.5 323.5,-629.5 "/>
<text text-anchor="middle" x="184.5" y="-617.5" font-family="Helvetica,sans-Serif" font-size="10.00"> </text>
<polyline fill="none" stroke="black" points="45.5,-610.5 323.5,-610.5 "/>
<text text-anchor="middle" x="184.5" y="-598.5" font-family="Helvetica,sans-Serif" font-size="10.00"> </text>
</a>
</g>
</g>
<!-- Node5&#45;&gt;Node4 -->
<g id="edge4" class="edge">
<title>Node5&#45;&gt;Node4</title>
<path fill="none" stroke="#404040" d="M184.5,-591.47C184.5,-575.6 184.5,-554.71 184.5,-533.87"/>
<polygon fill="none" stroke="#404040" points="184.5,-533.64 180.5,-527.64 184.5,-521.64 188.5,-527.64 184.5,-533.64"/>
<text text-anchor="middle" x="201" y="-565" font-family="Helvetica,sans-Serif" font-size="10.00"> &#45;center</text>
<text text-anchor="middle" x="201" y="-554" font-family="Helvetica,sans-Serif" font-size="10.00">&#45;left</text>
<text text-anchor="middle" x="201" y="-543" font-family="Helvetica,sans-Serif" font-size="10.00">&#45;right</text>
</g>
<!-- Node6 -->
<g id="node6" class="node">
<title>Node6</title>
<g id="a_node6"><a xlink:title=" ">
<polygon fill="white" stroke="black" points="156.5,-696.5 156.5,-753.5 212.5,-753.5 212.5,-696.5 156.5,-696.5"/>
<text text-anchor="middle" x="184.5" y="-741.5" font-family="Helvetica,sans-Serif" font-size="10.00">ArrayList</text>
<polyline fill="none" stroke="black" points="156.5,-734.5 212.5,-734.5 "/>
<text text-anchor="middle" x="184.5" y="-722.5" font-family="Helvetica,sans-Serif" font-size="10.00"> </text>
<polyline fill="none" stroke="black" points="156.5,-715.5 212.5,-715.5 "/>
<text text-anchor="middle" x="184.5" y="-703.5" font-family="Helvetica,sans-Serif" font-size="10.00"> </text>
</a>
</g>
</g>
<!-- Node6&#45;&gt;Node5 -->
<g id="edge5" class="edge">
<title>Node6&#45;&gt;Node5</title>
<path fill="none" stroke="orange" d="M184.5,-686.29C184.5,-673.84 184.5,-660.23 184.5,-648.68"/>
<polygon fill="orange" stroke="orange" points="181,-686.4 184.5,-696.4 188,-686.4 181,-686.4"/>
<text text-anchor="middle" x="303" y="-670" font-family="Helvetica,sans-Serif" font-size="10.00"> &lt; eu::anwar::madrunner::objects::obstacles::Obstacle &gt;</text>
</g>
<!-- Node7 -->
<g id="node7" class="node">
<title>Node7</title>
<g id="a_node7"><a xlink:title=" ">
<polygon fill="white" stroke="black" points="332.5,-420.5 332.5,-477.5 376.5,-477.5 376.5,-420.5 332.5,-420.5"/>
<text text-anchor="middle" x="354.5" y="-465.5" font-family="Helvetica,sans-Serif" font-size="10.00">Image</text>
<polyline fill="none" stroke="black" points="332.5,-458.5 376.5,-458.5 "/>
<text text-anchor="middle" x="354.5" y="-446.5" font-family="Helvetica,sans-Serif" font-size="10.00"> </text>
<polyline fill="none" stroke="black" points="332.5,-439.5 376.5,-439.5 "/>
<text text-anchor="middle" x="354.5" y="-427.5" font-family="Helvetica,sans-Serif" font-size="10.00"> </text>
</a>
</g>
</g>
<!-- Node7&#45;&gt;Node1 -->
<g id="edge7" class="edge">
<title>Node7&#45;&gt;Node1</title>
<path fill="none" stroke="#404040" d="M357.32,-420.32C362.05,-363.4 367.57,-230.02 328.5,-128 324.89,-118.57 319.83,-109.32 314.14,-100.62"/>
<polygon fill="none" stroke="#404040" points="314.09,-100.54 307.38,-97.91 307.23,-90.7 313.94,-93.33 314.09,-100.54"/>
<text text-anchor="middle" x="370" y="-226" font-family="Helvetica,sans-Serif" font-size="10.00"> &#45;tile</text>
</g>
<!-- Node7&#45;&gt;Node2 -->
<g id="edge6" class="edge">
<title>Node7&#45;&gt;Node2</title>
<path fill="none" stroke="#404040" d="M343.92,-420.16C338.03,-406.29 329.97,-389.62 320.5,-376 311.53,-363.09 301.39,-350.27 290.76,-337.89"/>
<polygon fill="none" stroke="#404040" points="290.45,-337.54 283.49,-335.67 282.54,-328.52 289.5,-330.39 290.45,-337.54"/>
<text text-anchor="middle" x="319.5" y="-350" font-family="Helvetica,sans-Serif" font-size="10.00"> &#45;image</text>
</g>
</g>
</svg>
