<?xml version="1.0" encoding="UTF-8" standalone="no"?>
<!DOCTYPE svg PUBLIC "-//W3C//DTD SVG 1.1//EN"
 "http://www.w3.org/Graphics/SVG/1.1/DTD/svg11.dtd">
<!-- Generated by graphviz version 3.0.0 (20221109.1736)
 -->
<!-- Title: eu.anwar.madrunner.objects.Player Pages: 1 -->
<svg width="739pt" height="1342pt"
 viewBox="0.00 0.00 738.88 1342.00" xmlns="http://www.w3.org/2000/svg" xmlns:xlink="http://www.w3.org/1999/xlink">
<g id="graph0" class="graph" transform="scale(1 1) rotate(0) translate(4 1338)">
<title>eu.anwar.madrunner.objects.Player</title>
<polygon fill="white" stroke="transparent" points="-4,4 -4,-1338 734.88,-1338 734.88,4 -4,4"/>
<!-- Node1 -->
<g id="node1" class="node">
<title>Node1</title>
<g id="a_node1"><a xlink:title=" ">
<polygon fill="#bfbfbf" stroke="black" points="339.38,-0.5 339.38,-442.5 527.38,-442.5 527.38,-0.5 339.38,-0.5"/>
<text text-anchor="middle" x="433.38" y="-430.5" font-family="Helvetica,sans-Serif" font-size="10.00">eu.anwar.madrunner.objects.Player</text>
<polyline fill="none" stroke="black" points="339.38,-423.5 527.38,-423.5 "/>
<text text-anchor="start" x="347.38" y="-411.5" font-family="Helvetica,sans-Serif" font-size="10.00">+ static final double playerLength</text>
<text text-anchor="start" x="347.38" y="-400.5" font-family="Helvetica,sans-Serif" font-size="10.00">+ static final int maxJumpFrames</text>
<text text-anchor="start" x="347.38" y="-389.5" font-family="Helvetica,sans-Serif" font-size="10.00">+ static final int maxJumpLength</text>
<text text-anchor="start" x="347.38" y="-378.5" font-family="Helvetica,sans-Serif" font-size="10.00">+ static final int maxRampFrames</text>
<text text-anchor="start" x="347.38" y="-367.5" font-family="Helvetica,sans-Serif" font-size="10.00">+ static final double jumpFormulaATerm</text>
<text text-anchor="start" x="347.38" y="-356.5" font-family="Helvetica,sans-Serif" font-size="10.00">+ static final double jumpFormulaBTerm</text>
<text text-anchor="start" x="347.38" y="-345.5" font-family="Helvetica,sans-Serif" font-size="10.00">&#45; boolean jumping</text>
<text text-anchor="start" x="347.38" y="-334.5" font-family="Helvetica,sans-Serif" font-size="10.00">&#45; boolean isClimbingRamp</text>
<text text-anchor="start" x="347.38" y="-323.5" font-family="Helvetica,sans-Serif" font-size="10.00">&#45; Boolean alive</text>
<text text-anchor="start" x="347.38" y="-312.5" font-family="Helvetica,sans-Serif" font-size="10.00">&#45; Boolean isDying</text>
<text text-anchor="start" x="347.38" y="-301.5" font-family="Helvetica,sans-Serif" font-size="10.00">&#45; int currentJumpFrame</text>
<text text-anchor="start" x="347.38" y="-290.5" font-family="Helvetica,sans-Serif" font-size="10.00">&#45; int currentRunningFrame</text>
<text text-anchor="start" x="347.38" y="-279.5" font-family="Helvetica,sans-Serif" font-size="10.00">&#45; int currentDeathFrame</text>
<text text-anchor="start" x="347.38" y="-268.5" font-family="Helvetica,sans-Serif" font-size="10.00">&#45; int currentClimbingFrame</text>
<polyline fill="none" stroke="black" points="339.38,-261.5 527.38,-261.5 "/>
<text text-anchor="start" x="347.38" y="-249.5" font-family="Helvetica,sans-Serif" font-size="10.00">+ Player()</text>
<text text-anchor="start" x="347.38" y="-238.5" font-family="Helvetica,sans-Serif" font-size="10.00">+ Level getLevel()</text>
<text text-anchor="start" x="347.38" y="-227.5" font-family="Helvetica,sans-Serif" font-size="10.00">+ void setLevel(Level level)</text>
<text text-anchor="start" x="347.38" y="-216.5" font-family="Helvetica,sans-Serif" font-size="10.00">+ void moveLeft()</text>
<text text-anchor="start" x="347.38" y="-205.5" font-family="Helvetica,sans-Serif" font-size="10.00">+ void moveRight()</text>
<text text-anchor="start" x="347.38" y="-194.5" font-family="Helvetica,sans-Serif" font-size="10.00">+ boolean isJumping()</text>
<text text-anchor="start" x="347.38" y="-183.5" font-family="Helvetica,sans-Serif" font-size="10.00">+ boolean isAlive()</text>
<text text-anchor="start" x="347.38" y="-172.5" font-family="Helvetica,sans-Serif" font-size="10.00">+ void rampClimb()</text>
<text text-anchor="start" x="347.38" y="-161.5" font-family="Helvetica,sans-Serif" font-size="10.00">+ void jump()</text>
<text text-anchor="start" x="347.38" y="-150.5" font-family="Helvetica,sans-Serif" font-size="10.00">+ void playDeathClip()</text>
<text text-anchor="start" x="347.38" y="-139.5" font-family="Helvetica,sans-Serif" font-size="10.00">+ void setIsDying()</text>
<text text-anchor="start" x="347.38" y="-128.5" font-family="Helvetica,sans-Serif" font-size="10.00">+ void jumpUpdate()</text>
<text text-anchor="start" x="347.38" y="-117.5" font-family="Helvetica,sans-Serif" font-size="10.00">+ void setPlayerLevelLow()</text>
<text text-anchor="start" x="347.38" y="-106.5" font-family="Helvetica,sans-Serif" font-size="10.00">+ void setPlayerLevelHigh()</text>
<text text-anchor="start" x="347.38" y="-95.5" font-family="Helvetica,sans-Serif" font-size="10.00">+ void rampUpdate()</text>
<text text-anchor="start" x="347.38" y="-84.5" font-family="Helvetica,sans-Serif" font-size="10.00">+ void updateDeathAnimation()</text>
<text text-anchor="start" x="347.38" y="-73.5" font-family="Helvetica,sans-Serif" font-size="10.00">+ void playerUpdateAnimation()</text>
<text text-anchor="start" x="347.38" y="-62.5" font-family="Helvetica,sans-Serif" font-size="10.00">&#45; void setAnimations()</text>
<text text-anchor="start" x="347.38" y="-51.5" font-family="Helvetica,sans-Serif" font-size="10.00">&#45; void setSounds()</text>
<text text-anchor="start" x="347.38" y="-40.5" font-family="Helvetica,sans-Serif" font-size="10.00">&#45; void playerLengthIncrease(double diff)</text>
<text text-anchor="start" x="347.38" y="-29.5" font-family="Helvetica,sans-Serif" font-size="10.00">&#45; void playerLengthDecrease(double diff)</text>
<text text-anchor="start" x="347.38" y="-18.5" font-family="Helvetica,sans-Serif" font-size="10.00">&#45; double jumpCurrentValue(int frame)</text>
<text text-anchor="start" x="347.38" y="-7.5" font-family="Helvetica,sans-Serif" font-size="10.00">&#45; void updateRunningAnimation()</text>
</a>
</g>
</g>
<!-- Node2 -->
<g id="node2" class="node">
<title>Node2</title>
<g id="a_node2"><a xlink:href="classeu_1_1anwar_1_1madrunner_1_1objects_1_1GameLaneObject.html" target="_top" xlink:title=" ">
<polygon fill="white" stroke="black" points="67.38,-501.5 67.38,-635.5 405.38,-635.5 405.38,-501.5 67.38,-501.5"/>
<text text-anchor="middle" x="236.38" y="-623.5" font-family="Helvetica,sans-Serif" font-size="10.00">eu.anwar.madrunner.objects.GameLaneObject</text>
<polyline fill="none" stroke="black" points="67.38,-616.5 405.38,-616.5 "/>
<text text-anchor="middle" x="236.38" y="-604.5" font-family="Helvetica,sans-Serif" font-size="10.00"> </text>
<polyline fill="none" stroke="black" points="67.38,-597.5 405.38,-597.5 "/>
<text text-anchor="start" x="75.38" y="-585.5" font-family="Helvetica,sans-Serif" font-size="10.00">+ GameLaneObject(Block.Lane lane, double y, double width, double length)</text>
<text text-anchor="start" x="75.38" y="-574.5" font-family="Helvetica,sans-Serif" font-size="10.00">+ GameLaneObject(Block.Lane lane, double y, double cubeLength)</text>
<text text-anchor="start" x="75.38" y="-563.5" font-family="Helvetica,sans-Serif" font-size="10.00">+ void setLane(Block.Lane path)</text>
<text text-anchor="start" x="75.38" y="-552.5" font-family="Helvetica,sans-Serif" font-size="10.00">+ Block.Lane getLane()</text>
<text text-anchor="start" x="75.38" y="-541.5" font-family="Helvetica,sans-Serif" font-size="10.00">+ void Draw()</text>
<text text-anchor="start" x="75.38" y="-530.5" font-family="Helvetica,sans-Serif" font-size="10.00">+ boolean contains(Block.Lane lane, double y)</text>
<text text-anchor="start" x="75.38" y="-519.5" font-family="Helvetica,sans-Serif" font-size="10.00">+ boolean touches(GameLaneObject other)</text>
<text text-anchor="start" x="75.38" y="-508.5" font-family="Helvetica,sans-Serif" font-size="10.00">+ double distance(GameLaneObject other)</text>
</a>
</g>
</g>
<!-- Node2&#45;&gt;Node1 -->
<g id="edge1" class="edge">
<title>Node2&#45;&gt;Node1</title>
<path fill="none" stroke="midnightblue" d="M279.27,-492.39C296.99,-461.35 318.29,-424.05 339.32,-387.23"/>
<polygon fill="none" stroke="midnightblue" points="276.05,-490.97 274.13,-501.39 282.13,-494.44 276.05,-490.97"/>
</g>
<!-- Node3 -->
<g id="node3" class="node">
<title>Node3</title>
<g id="a_node3"><a xlink:href="classeu_1_1anwar_1_1madrunner_1_1objects_1_1GameObject.html" target="_top" xlink:title=" ">
<polygon fill="white" stroke="black" points="37.88,-683.5 37.88,-883.5 320.88,-883.5 320.88,-683.5 37.88,-683.5"/>
<text text-anchor="middle" x="179.38" y="-871.5" font-family="Helvetica,sans-Serif" font-size="10.00">eu.anwar.madrunner.objects.GameObject</text>
<polyline fill="none" stroke="black" points="37.88,-864.5 320.88,-864.5 "/>
<text text-anchor="start" x="45.88" y="-852.5" font-family="Helvetica,sans-Serif" font-size="10.00"># double x</text>
<text text-anchor="start" x="45.88" y="-841.5" font-family="Helvetica,sans-Serif" font-size="10.00"># double y</text>
<text text-anchor="start" x="45.88" y="-830.5" font-family="Helvetica,sans-Serif" font-size="10.00"># double width</text>
<text text-anchor="start" x="45.88" y="-819.5" font-family="Helvetica,sans-Serif" font-size="10.00"># double length</text>
<polyline fill="none" stroke="black" points="37.88,-812.5 320.88,-812.5 "/>
<text text-anchor="start" x="45.88" y="-800.5" font-family="Helvetica,sans-Serif" font-size="10.00">+ GameObject(double x, double y, double width, double length)</text>
<text text-anchor="start" x="45.88" y="-789.5" font-family="Helvetica,sans-Serif" font-size="10.00">+ double getWidth()</text>
<text text-anchor="start" x="45.88" y="-778.5" font-family="Helvetica,sans-Serif" font-size="10.00">+ double getLength()</text>
<text text-anchor="start" x="45.88" y="-767.5" font-family="Helvetica,sans-Serif" font-size="10.00">+ void setColor(Color color)</text>
<text text-anchor="start" x="45.88" y="-756.5" font-family="Helvetica,sans-Serif" font-size="10.00">+ void setLane(Block.Lane path)</text>
<text text-anchor="start" x="45.88" y="-745.5" font-family="Helvetica,sans-Serif" font-size="10.00">+ void setImage(Image image)</text>
<text text-anchor="start" x="45.88" y="-734.5" font-family="Helvetica,sans-Serif" font-size="10.00">+ Block.Lane getLane()</text>
<text text-anchor="start" x="45.88" y="-723.5" font-family="Helvetica,sans-Serif" font-size="10.00">+ Image getImage()</text>
<text text-anchor="start" x="45.88" y="-712.5" font-family="Helvetica,sans-Serif" font-size="10.00">+ void setY(double y)</text>
<text text-anchor="start" x="45.88" y="-701.5" font-family="Helvetica,sans-Serif" font-size="10.00">+ double getY()</text>
<text text-anchor="start" x="45.88" y="-690.5" font-family="Helvetica,sans-Serif" font-size="10.00">+ void Draw()</text>
</a>
</g>
</g>
<!-- Node3&#45;&gt;Node2 -->
<g id="edge2" class="edge">
<title>Node3&#45;&gt;Node2</title>
<path fill="none" stroke="midnightblue" d="M208.52,-673.6C211.98,-660.68 215.43,-647.8 218.66,-635.73"/>
<polygon fill="none" stroke="midnightblue" points="205.08,-672.92 205.88,-683.48 211.84,-674.73 205.08,-672.92"/>
</g>
<!-- Node4 -->
<g id="node4" class="node">
<title>Node4</title>
<g id="a_node4"><a xlink:title=" ">
<polygon fill="white" stroke="black" points="16.88,-975.5 16.88,-1032.5 55.88,-1032.5 55.88,-975.5 16.88,-975.5"/>
<text text-anchor="middle" x="36.38" y="-1020.5" font-family="Helvetica,sans-Serif" font-size="10.00">Color</text>
<polyline fill="none" stroke="black" points="16.88,-1013.5 55.88,-1013.5 "/>
<text text-anchor="middle" x="36.38" y="-1001.5" font-family="Helvetica,sans-Serif" font-size="10.00"> </text>
<polyline fill="none" stroke="black" points="16.88,-994.5 55.88,-994.5 "/>
<text text-anchor="middle" x="36.38" y="-982.5" font-family="Helvetica,sans-Serif" font-size="10.00"> </text>
</a>
</g>
</g>
<!-- Node4&#45;&gt;Node1 -->
<g id="edge9" class="edge">
<title>Node4&#45;&gt;Node1</title>
<path fill="none" stroke="#404040" d="M29.02,-975.35C9.29,-895.01 -37.01,-657.4 58.38,-501 122.22,-396.32 241.46,-318.15 328.39,-271.68"/>
<polygon fill="none" stroke="#404040" points="328.48,-271.63 331.92,-265.3 339.09,-266.03 335.65,-272.37 328.48,-271.63"/>
<text text-anchor="middle" x="33.38" y="-657" font-family="Helvetica,sans-Serif" font-size="10.00"> &#45;playerColor</text>
</g>
<!-- Node4&#45;&gt;Node3 -->
<g id="edge3" class="edge">
<title>Node4&#45;&gt;Node3</title>
<path fill="none" stroke="#404040" d="M52.33,-975.41C60.27,-961.9 70.13,-945.48 79.38,-931 87.17,-918.82 95.46,-906.18 103.81,-893.65"/>
<polygon fill="none" stroke="#404040" points="103.84,-893.62 103.85,-886.41 110.51,-883.65 110.5,-890.86 103.84,-893.62"/>
<text text-anchor="middle" x="112.88" y="-905" font-family="Helvetica,sans-Serif" font-size="10.00"> #color</text>
</g>
<!-- Node5 -->
<g id="node5" class="node">
<title>Node5</title>
<g id="a_node5"><a xlink:href="classeu_1_1anwar_1_1madrunner_1_1objects_1_1obstacles_1_1Block.html" target="_top" xlink:title=" ">
<polygon fill="white" stroke="black" points="150.38,-931.5 150.38,-1076.5 404.38,-1076.5 404.38,-931.5 150.38,-931.5"/>
<text text-anchor="middle" x="277.38" y="-1064.5" font-family="Helvetica,sans-Serif" font-size="10.00">eu.anwar.madrunner.objects.obstacles.Block</text>
<polyline fill="none" stroke="black" points="150.38,-1057.5 404.38,-1057.5 "/>
<text text-anchor="start" x="158.38" y="-1045.5" font-family="Helvetica,sans-Serif" font-size="10.00">+ static final double speed</text>
<text text-anchor="start" x="158.38" y="-1034.5" font-family="Helvetica,sans-Serif" font-size="10.00">&#45; double currentY</text>
<polyline fill="none" stroke="black" points="150.38,-1027.5 404.38,-1027.5 "/>
<text text-anchor="start" x="158.38" y="-1015.5" font-family="Helvetica,sans-Serif" font-size="10.00">+ Block(ArrayList&lt; Obstacle &gt; left, ArrayList&lt; Obstacle</text>
<text text-anchor="start" x="158.38" y="-1004.5" font-family="Helvetica,sans-Serif" font-size="10.00"> &gt; center, ArrayList&lt; Obstacle &gt; right)</text>
<text text-anchor="start" x="158.38" y="-993.5" font-family="Helvetica,sans-Serif" font-size="10.00">+ double getCurrentY()</text>
<text text-anchor="start" x="158.38" y="-982.5" font-family="Helvetica,sans-Serif" font-size="10.00">+ ArrayList&lt; Obstacle &gt; getLane(Lane lane)</text>
<text text-anchor="start" x="158.38" y="-971.5" font-family="Helvetica,sans-Serif" font-size="10.00">+ ArrayList&lt; Obstacle &gt; getLeftLane()</text>
<text text-anchor="start" x="158.38" y="-960.5" font-family="Helvetica,sans-Serif" font-size="10.00">+ ArrayList&lt; Obstacle &gt; getCenterLane()</text>
<text text-anchor="start" x="158.38" y="-949.5" font-family="Helvetica,sans-Serif" font-size="10.00">+ ArrayList&lt; Obstacle &gt; getRightLane()</text>
<text text-anchor="start" x="158.38" y="-938.5" font-family="Helvetica,sans-Serif" font-size="10.00">+ void frameUpdate()</text>
</a>
</g>
</g>
<!-- Node5&#45;&gt;Node2 -->
<g id="edge8" class="edge">
<title>Node5&#45;&gt;Node2</title>
<path fill="none" stroke="#404040" d="M314.34,-931.25C320.57,-916.03 326.08,-899.78 329.38,-884 347.65,-796.56 359.44,-767.12 329.38,-683 324.74,-670.01 317.9,-657.44 310,-645.69"/>
<polygon fill="none" stroke="#404040" points="309.77,-645.37 303.04,-642.8 302.82,-635.59 309.56,-638.16 309.77,-645.37"/>
<text text-anchor="middle" x="361.38" y="-781" font-family="Helvetica,sans-Serif" font-size="10.00"> #lane</text>
</g>
<!-- Node5&#45;&gt;Node3 -->
<g id="edge4" class="edge">
<title>Node5&#45;&gt;Node3</title>
<path fill="none" stroke="#404040" d="M245.29,-931.45C239.98,-919.61 234.37,-907.1 228.75,-894.57"/>
<polygon fill="none" stroke="#404040" points="228.73,-894.53 222.62,-890.69 223.82,-883.58 229.92,-887.41 228.73,-894.53"/>
<text text-anchor="middle" x="247.38" y="-905" font-family="Helvetica,sans-Serif" font-size="10.00"> #lane</text>
</g>
<!-- Node6 -->
<g id="node6" class="node">
<title>Node6</title>
<g id="a_node6"><a xlink:title=" ">
<polygon fill="white" stroke="black" points="120.38,-1171.5 120.38,-1228.5 398.38,-1228.5 398.38,-1171.5 120.38,-1171.5"/>
<text text-anchor="middle" x="259.38" y="-1216.5" font-family="Helvetica,sans-Serif" font-size="10.00">ArrayList&lt; eu.anwar.madrunner.objects.obstacles.Obstacle &gt;</text>
<polyline fill="none" stroke="black" points="120.38,-1209.5 398.38,-1209.5 "/>
<text text-anchor="middle" x="259.38" y="-1197.5" font-family="Helvetica,sans-Serif" font-size="10.00"> </text>
<polyline fill="none" stroke="black" points="120.38,-1190.5 398.38,-1190.5 "/>
<text text-anchor="middle" x="259.38" y="-1178.5" font-family="Helvetica,sans-Serif" font-size="10.00"> </text>
</a>
</g>
</g>
<!-- Node6&#45;&gt;Node5 -->
<g id="edge5" class="edge">
<title>Node6&#45;&gt;Node5</title>
<path fill="none" stroke="#404040" d="M261.96,-1171.2C263.97,-1149.56 266.86,-1118.34 269.61,-1088.78"/>
<polygon fill="none" stroke="#404040" points="269.62,-1088.63 266.19,-1082.29 270.73,-1076.69 274.16,-1083.03 269.62,-1088.63"/>
<text text-anchor="middle" x="285.88" y="-1132.5" font-family="Helvetica,sans-Serif" font-size="10.00"> &#45;center</text>
<text text-anchor="middle" x="285.88" y="-1121.5" font-family="Helvetica,sans-Serif" font-size="10.00">&#45;left</text>
<text text-anchor="middle" x="285.88" y="-1110.5" font-family="Helvetica,sans-Serif" font-size="10.00">&#45;right</text>
</g>
<!-- Node7 -->
<g id="node7" class="node">
<title>Node7</title>
<g id="a_node7"><a xlink:title=" ">
<polygon fill="white" stroke="black" points="314.38,-1276.5 314.38,-1333.5 370.38,-1333.5 370.38,-1276.5 314.38,-1276.5"/>
<text text-anchor="middle" x="342.38" y="-1321.5" font-family="Helvetica,sans-Serif" font-size="10.00">ArrayList</text>
<polyline fill="none" stroke="black" points="314.38,-1314.5 370.38,-1314.5 "/>
<text text-anchor="middle" x="342.38" y="-1302.5" font-family="Helvetica,sans-Serif" font-size="10.00"> </text>
<polyline fill="none" stroke="black" points="314.38,-1295.5 370.38,-1295.5 "/>
<text text-anchor="middle" x="342.38" y="-1283.5" font-family="Helvetica,sans-Serif" font-size="10.00"> </text>
</a>
</g>
</g>
<!-- Node7&#45;&gt;Node6 -->
<g id="edge6" class="edge">
<title>Node7&#45;&gt;Node6</title>
<path fill="none" stroke="orange" d="M304,-1301.74C273.87,-1297.71 233.73,-1286.86 213.38,-1258 206.42,-1248.13 210.96,-1237.73 219.42,-1228.56"/>
<polygon fill="orange" stroke="orange" points="303.86,-1305.25 314.19,-1302.9 304.65,-1298.29 303.86,-1305.25"/>
<text text-anchor="middle" x="331.88" y="-1250" font-family="Helvetica,sans-Serif" font-size="10.00"> &lt; eu::anwar::madrunner::objects::obstacles::Obstacle &gt;</text>
</g>
<!-- Node11 -->
<g id="node11" class="node">
<title>Node11</title>
<g id="a_node11"><a xlink:title=" ">
<polygon fill="white" stroke="black" points="409.88,-1095.5 409.88,-1152.5 508.88,-1152.5 508.88,-1095.5 409.88,-1095.5"/>
<text text-anchor="middle" x="459.38" y="-1140.5" font-family="Helvetica,sans-Serif" font-size="10.00">ArrayList&lt; Image &gt;</text>
<polyline fill="none" stroke="black" points="409.88,-1133.5 508.88,-1133.5 "/>
<text text-anchor="middle" x="459.38" y="-1121.5" font-family="Helvetica,sans-Serif" font-size="10.00"> </text>
<polyline fill="none" stroke="black" points="409.88,-1114.5 508.88,-1114.5 "/>
<text text-anchor="middle" x="459.38" y="-1102.5" font-family="Helvetica,sans-Serif" font-size="10.00"> </text>
</a>
</g>
</g>
<!-- Node7&#45;&gt;Node11 -->
<g id="edge13" class="edge">
<title>Node7&#45;&gt;Node11</title>
<path fill="none" stroke="orange" d="M380.47,-1298.11C404.63,-1292.25 434.26,-1280.68 450.38,-1258 472.23,-1227.25 469.91,-1181.74 465.33,-1152.73"/>
<polygon fill="orange" stroke="orange" points="379.53,-1294.73 370.51,-1300.29 381.03,-1301.57 379.53,-1294.73"/>
<text text-anchor="middle" x="480.38" y="-1250" font-family="Helvetica,sans-Serif" font-size="10.00"> &lt; Image &gt;</text>
</g>
<!-- Node8 -->
<g id="node8" class="node">
<title>Node8</title>
<g id="a_node8"><a xlink:title=" ">
<polygon fill="white" stroke="black" points="88.38,-975.5 88.38,-1032.5 132.38,-1032.5 132.38,-975.5 88.38,-975.5"/>
<text text-anchor="middle" x="110.38" y="-1020.5" font-family="Helvetica,sans-Serif" font-size="10.00">Image</text>
<polyline fill="none" stroke="black" points="88.38,-1013.5 132.38,-1013.5 "/>
<text text-anchor="middle" x="110.38" y="-1001.5" font-family="Helvetica,sans-Serif" font-size="10.00"> </text>
<polyline fill="none" stroke="black" points="88.38,-994.5 132.38,-994.5 "/>
<text text-anchor="middle" x="110.38" y="-982.5" font-family="Helvetica,sans-Serif" font-size="10.00"> </text>
</a>
</g>
</g>
<!-- Node8&#45;&gt;Node3 -->
<g id="edge7" class="edge">
<title>Node8&#45;&gt;Node3</title>
<path fill="none" stroke="#404040" d="M119.12,-975.33C125.62,-954.75 134.95,-925.2 144.34,-895.47"/>
<polygon fill="none" stroke="#404040" points="144.46,-895.09 142.45,-888.17 148.07,-883.65 150.08,-890.57 144.46,-895.09"/>
<text text-anchor="middle" x="157.38" y="-905" font-family="Helvetica,sans-Serif" font-size="10.00"> &#45;image</text>
</g>
<!-- Node9 -->
<g id="node9" class="node">
<title>Node9</title>
<g id="a_node9"><a xlink:title=" ">
<polygon fill="white" stroke="black" points="461.38,-540 461.38,-597 519.38,-597 519.38,-540 461.38,-540"/>
<text text-anchor="middle" x="490.38" y="-585" font-family="Helvetica,sans-Serif" font-size="10.00">AudioClip</text>
<polyline fill="none" stroke="black" points="461.38,-578 519.38,-578 "/>
<text text-anchor="middle" x="490.38" y="-566" font-family="Helvetica,sans-Serif" font-size="10.00"> </text>
<polyline fill="none" stroke="black" points="461.38,-559 519.38,-559 "/>
<text text-anchor="middle" x="490.38" y="-547" font-family="Helvetica,sans-Serif" font-size="10.00"> </text>
</a>
</g>
</g>
<!-- Node9&#45;&gt;Node1 -->
<g id="edge10" class="edge">
<title>Node9&#45;&gt;Node1</title>
<path fill="none" stroke="#404040" d="M485.81,-539.85C482.4,-519.18 477.36,-488.72 471.75,-454.73"/>
<polygon fill="none" stroke="#404040" points="471.7,-454.41 466.77,-449.15 469.74,-442.57 474.66,-447.84 471.7,-454.41"/>
<text text-anchor="middle" x="498.38" y="-475" font-family="Helvetica,sans-Serif" font-size="10.00"> &#45;deathClip</text>
<text text-anchor="middle" x="498.38" y="-464" font-family="Helvetica,sans-Serif" font-size="10.00">&#45;jumpClip</text>
</g>
<!-- Node10 -->
<g id="node10" class="node">
<title>Node10</title>
<g id="a_node10"><a xlink:href="enumeu_1_1anwar_1_1madrunner_1_1objects_1_1Player_1_1Level.html" target="_top" xlink:title=" ">
<polygon fill="white" stroke="black" points="537.88,-534.5 537.88,-602.5 730.88,-602.5 730.88,-534.5 537.88,-534.5"/>
<text text-anchor="middle" x="634.38" y="-590.5" font-family="Helvetica,sans-Serif" font-size="10.00">eu.anwar.madrunner.objects.Player.Level</text>
<polyline fill="none" stroke="black" points="537.88,-583.5 730.88,-583.5 "/>
<text text-anchor="start" x="545.88" y="-571.5" font-family="Helvetica,sans-Serif" font-size="10.00">+ LOW</text>
<text text-anchor="start" x="545.88" y="-560.5" font-family="Helvetica,sans-Serif" font-size="10.00">+ HIGH</text>
<polyline fill="none" stroke="black" points="537.88,-553.5 730.88,-553.5 "/>
<text text-anchor="middle" x="634.38" y="-541.5" font-family="Helvetica,sans-Serif" font-size="10.00"> </text>
</a>
</g>
</g>
<!-- Node10&#45;&gt;Node1 -->
<g id="edge11" class="edge">
<title>Node10&#45;&gt;Node1</title>
<path fill="none" stroke="#404040" d="M615.11,-534.42C595.85,-501.37 564.72,-447.94 533.62,-394.56"/>
<polygon fill="none" stroke="#404040" points="533.45,-394.26 526.97,-391.09 527.41,-383.89 533.88,-387.06 533.45,-394.26"/>
<text text-anchor="middle" x="593.38" y="-469.5" font-family="Helvetica,sans-Serif" font-size="10.00"> &#45;level</text>
</g>
<!-- Node11&#45;&gt;Node1 -->
<g id="edge12" class="edge">
<title>Node11&#45;&gt;Node1</title>
<path fill="none" stroke="#404040" d="M453.87,-1095.36C446.23,-1054.64 433.38,-976.02 433.38,-908.5 433.38,-908.5 433.38,-908.5 433.38,-567.5 433.38,-531.15 433.38,-492.65 433.38,-455.06"/>
<polygon fill="none" stroke="#404040" points="433.38,-454.89 429.38,-448.89 433.38,-442.89 437.38,-448.89 433.38,-454.89"/>
<text text-anchor="middle" x="464.88" y="-786.5" font-family="Helvetica,sans-Serif" font-size="10.00"> &#45;deathFrames</text>
<text text-anchor="middle" x="464.88" y="-775.5" font-family="Helvetica,sans-Serif" font-size="10.00">&#45;runFrames</text>
</g>
</g>
</svg>
