<?xml version="1.0" encoding="UTF-8" standalone="no"?>
<!DOCTYPE svg PUBLIC "-//W3C//DTD SVG 1.1//EN"
 "http://www.w3.org/Graphics/SVG/1.1/DTD/svg11.dtd">
<!-- Generated by graphviz version 3.0.0 (20221109.1736)
 -->
<!-- Title: eu.anwar.madrunner.objects.GameObject Pages: 1 -->
<svg width="430pt" height="722pt"
 viewBox="0.00 0.00 429.50 722.00" xmlns="http://www.w3.org/2000/svg" xmlns:xlink="http://www.w3.org/1999/xlink">
<g id="graph0" class="graph" transform="scale(1 1) rotate(0) translate(4 718)">
<title>eu.anwar.madrunner.objects.GameObject</title>
<polygon fill="white" stroke="transparent" points="-4,4 -4,-718 425.5,-718 425.5,4 -4,4"/>
<!-- Node1 -->
<g id="node1" class="node">
<title>Node1</title>
<g id="a_node1"><a xlink:title=" ">
<polygon fill="#bfbfbf" stroke="black" points="26,-0.5 26,-288.5 343,-288.5 343,-0.5 26,-0.5"/>
<text text-anchor="middle" x="184.5" y="-276.5" font-family="Helvetica,sans-Serif" font-size="10.00">eu.anwar.madrunner.objects.GameObject</text>
<polyline fill="none" stroke="black" points="26,-269.5 343,-269.5 "/>
<text text-anchor="start" x="34" y="-257.5" font-family="Helvetica,sans-Serif" font-size="10.00"># double x</text>
<text text-anchor="start" x="34" y="-246.5" font-family="Helvetica,sans-Serif" font-size="10.00"># double y</text>
<text text-anchor="start" x="34" y="-235.5" font-family="Helvetica,sans-Serif" font-size="10.00"># double width</text>
<text text-anchor="start" x="34" y="-224.5" font-family="Helvetica,sans-Serif" font-size="10.00"># double length</text>
<polyline fill="none" stroke="black" points="26,-217.5 343,-217.5 "/>
<text text-anchor="start" x="34" y="-205.5" font-family="Helvetica,sans-Serif" font-size="10.00">+ GameObject(double x, double y, double width, double length)</text>
<text text-anchor="start" x="34" y="-194.5" font-family="Helvetica,sans-Serif" font-size="10.00">+ GameObject(Block.Lane lane, double y, double width, double length)</text>
<text text-anchor="start" x="34" y="-183.5" font-family="Helvetica,sans-Serif" font-size="10.00">+ GameObject(Block.Lane lane, double y, double cubeLength)</text>
<text text-anchor="start" x="34" y="-172.5" font-family="Helvetica,sans-Serif" font-size="10.00">+ GameObject(double x, double y, double cubeLength)</text>
<text text-anchor="start" x="34" y="-161.5" font-family="Helvetica,sans-Serif" font-size="10.00">+ double getWidth()</text>
<text text-anchor="start" x="34" y="-150.5" font-family="Helvetica,sans-Serif" font-size="10.00">+ double getLength()</text>
<text text-anchor="start" x="34" y="-139.5" font-family="Helvetica,sans-Serif" font-size="10.00">+ void setColor(Color color)</text>
<text text-anchor="start" x="34" y="-128.5" font-family="Helvetica,sans-Serif" font-size="10.00">+ void setLane(Block.Lane path)</text>
<text text-anchor="start" x="34" y="-117.5" font-family="Helvetica,sans-Serif" font-size="10.00">+ void setImage(Image image)</text>
<text text-anchor="start" x="34" y="-106.5" font-family="Helvetica,sans-Serif" font-size="10.00">+ Block.Lane getLane()</text>
<text text-anchor="start" x="34" y="-95.5" font-family="Helvetica,sans-Serif" font-size="10.00">+ Image getImage()</text>
<text text-anchor="start" x="34" y="-84.5" font-family="Helvetica,sans-Serif" font-size="10.00">+ void setX(double x)</text>
<text text-anchor="start" x="34" y="-73.5" font-family="Helvetica,sans-Serif" font-size="10.00">+ void setY(double y)</text>
<text text-anchor="start" x="34" y="-62.5" font-family="Helvetica,sans-Serif" font-size="10.00">+ double getY()</text>
<text text-anchor="start" x="34" y="-51.5" font-family="Helvetica,sans-Serif" font-size="10.00">+ double getX()</text>
<text text-anchor="start" x="34" y="-40.5" font-family="Helvetica,sans-Serif" font-size="10.00">+ void Draw()</text>
<text text-anchor="start" x="34" y="-29.5" font-family="Helvetica,sans-Serif" font-size="10.00">+ boolean interesects(double x, double y)</text>
<text text-anchor="start" x="34" y="-18.5" font-family="Helvetica,sans-Serif" font-size="10.00">+ boolean interesects(Block.Lane lane, double y)</text>
<text text-anchor="start" x="34" y="-7.5" font-family="Helvetica,sans-Serif" font-size="10.00">+ boolean touches(GameObject other)</text>
</a>
</g>
</g>
<!-- Node2 -->
<g id="node2" class="node">
<title>Node2</title>
<g id="a_node2"><a xlink:title=" ">
<polygon fill="white" stroke="black" points="0,-380.5 0,-437.5 39,-437.5 39,-380.5 0,-380.5"/>
<text text-anchor="middle" x="19.5" y="-425.5" font-family="Helvetica,sans-Serif" font-size="10.00">Color</text>
<polyline fill="none" stroke="black" points="0,-418.5 39,-418.5 "/>
<text text-anchor="middle" x="19.5" y="-406.5" font-family="Helvetica,sans-Serif" font-size="10.00"> </text>
<polyline fill="none" stroke="black" points="0,-399.5 39,-399.5 "/>
<text text-anchor="middle" x="19.5" y="-387.5" font-family="Helvetica,sans-Serif" font-size="10.00"> </text>
</a>
</g>
</g>
<!-- Node2&#45;&gt;Node1 -->
<g id="edge1" class="edge">
<title>Node2&#45;&gt;Node1</title>
<path fill="none" stroke="#404040" d="M28.9,-380.29C33.98,-366.61 40.79,-350.06 48.5,-336 55.25,-323.68 62.66,-311.22 70.43,-298.87"/>
<polygon fill="none" stroke="#404040" points="70.57,-298.64 70.43,-291.43 77.03,-288.53 77.17,-295.74 70.57,-298.64"/>
<text text-anchor="middle" x="79" y="-310" font-family="Helvetica,sans-Serif" font-size="10.00"> #color</text>
</g>
<!-- Node3 -->
<g id="node3" class="node">
<title>Node3</title>
<g id="a_node3"><a xlink:href="classeu_1_1anwar_1_1madrunner_1_1objects_1_1obstacles_1_1Block.html" target="_top" xlink:title=" ">
<polygon fill="white" stroke="black" points="57.5,-336.5 57.5,-481.5 311.5,-481.5 311.5,-336.5 57.5,-336.5"/>
<text text-anchor="middle" x="184.5" y="-469.5" font-family="Helvetica,sans-Serif" font-size="10.00">eu.anwar.madrunner.objects.obstacles.Block</text>
<polyline fill="none" stroke="black" points="57.5,-462.5 311.5,-462.5 "/>
<text text-anchor="start" x="65.5" y="-450.5" font-family="Helvetica,sans-Serif" font-size="10.00">+ static final double speed</text>
<text text-anchor="start" x="65.5" y="-439.5" font-family="Helvetica,sans-Serif" font-size="10.00">&#45; double currentY</text>
<polyline fill="none" stroke="black" points="57.5,-432.5 311.5,-432.5 "/>
<text text-anchor="start" x="65.5" y="-420.5" font-family="Helvetica,sans-Serif" font-size="10.00">+ Block(ArrayList&lt; Obstacle &gt; left, ArrayList&lt; Obstacle</text>
<text text-anchor="start" x="65.5" y="-409.5" font-family="Helvetica,sans-Serif" font-size="10.00"> &gt; center, ArrayList&lt; Obstacle &gt; right)</text>
<text text-anchor="start" x="65.5" y="-398.5" font-family="Helvetica,sans-Serif" font-size="10.00">+ double getCurrentY()</text>
<text text-anchor="start" x="65.5" y="-387.5" font-family="Helvetica,sans-Serif" font-size="10.00">+ ArrayList&lt; Obstacle &gt; getLane(Lane lane)</text>
<text text-anchor="start" x="65.5" y="-376.5" font-family="Helvetica,sans-Serif" font-size="10.00">+ ArrayList&lt; Obstacle &gt; getLeftLane()</text>
<text text-anchor="start" x="65.5" y="-365.5" font-family="Helvetica,sans-Serif" font-size="10.00">+ ArrayList&lt; Obstacle &gt; getCenterLane()</text>
<text text-anchor="start" x="65.5" y="-354.5" font-family="Helvetica,sans-Serif" font-size="10.00">+ ArrayList&lt; Obstacle &gt; getRightLane()</text>
<text text-anchor="start" x="65.5" y="-343.5" font-family="Helvetica,sans-Serif" font-size="10.00">+ void frameUpdate()</text>
</a>
</g>
</g>
<!-- Node3&#45;&gt;Node1 -->
<g id="edge2" class="edge">
<title>Node3&#45;&gt;Node1</title>
<path fill="none" stroke="#404040" d="M184.5,-336.27C184.5,-325.06 184.5,-313.11 184.5,-300.87"/>
<polygon fill="none" stroke="#404040" points="184.5,-300.55 180.5,-294.55 184.5,-288.55 188.5,-294.55 184.5,-300.55"/>
<text text-anchor="middle" x="197.5" y="-310" font-family="Helvetica,sans-Serif" font-size="10.00"> #lane</text>
</g>
<!-- Node4 -->
<g id="node4" class="node">
<title>Node4</title>
<g id="a_node4"><a xlink:title=" ">
<polygon fill="white" stroke="black" points="45.5,-551.5 45.5,-608.5 323.5,-608.5 323.5,-551.5 45.5,-551.5"/>
<text text-anchor="middle" x="184.5" y="-596.5" font-family="Helvetica,sans-Serif" font-size="10.00">ArrayList&lt; eu.anwar.madrunner.objects.obstacles.Obstacle &gt;</text>
<polyline fill="none" stroke="black" points="45.5,-589.5 323.5,-589.5 "/>
<text text-anchor="middle" x="184.5" y="-577.5" font-family="Helvetica,sans-Serif" font-size="10.00"> </text>
<polyline fill="none" stroke="black" points="45.5,-570.5 323.5,-570.5 "/>
<text text-anchor="middle" x="184.5" y="-558.5" font-family="Helvetica,sans-Serif" font-size="10.00"> </text>
</a>
</g>
</g>
<!-- Node4&#45;&gt;Node3 -->
<g id="edge3" class="edge">
<title>Node4&#45;&gt;Node3</title>
<path fill="none" stroke="#404040" d="M184.5,-551.47C184.5,-535.6 184.5,-514.71 184.5,-493.87"/>
<polygon fill="none" stroke="#404040" points="184.5,-493.64 180.5,-487.64 184.5,-481.64 188.5,-487.64 184.5,-493.64"/>
<text text-anchor="middle" x="201" y="-525" font-family="Helvetica,sans-Serif" font-size="10.00"> &#45;center</text>
<text text-anchor="middle" x="201" y="-514" font-family="Helvetica,sans-Serif" font-size="10.00">&#45;left</text>
<text text-anchor="middle" x="201" y="-503" font-family="Helvetica,sans-Serif" font-size="10.00">&#45;right</text>
</g>
<!-- Node5 -->
<g id="node5" class="node">
<title>Node5</title>
<g id="a_node5"><a xlink:title=" ">
<polygon fill="white" stroke="black" points="156.5,-656.5 156.5,-713.5 212.5,-713.5 212.5,-656.5 156.5,-656.5"/>
<text text-anchor="middle" x="184.5" y="-701.5" font-family="Helvetica,sans-Serif" font-size="10.00">ArrayList</text>
<polyline fill="none" stroke="black" points="156.5,-694.5 212.5,-694.5 "/>
<text text-anchor="middle" x="184.5" y="-682.5" font-family="Helvetica,sans-Serif" font-size="10.00"> </text>
<polyline fill="none" stroke="black" points="156.5,-675.5 212.5,-675.5 "/>
<text text-anchor="middle" x="184.5" y="-663.5" font-family="Helvetica,sans-Serif" font-size="10.00"> </text>
</a>
</g>
</g>
<!-- Node5&#45;&gt;Node4 -->
<g id="edge4" class="edge">
<title>Node5&#45;&gt;Node4</title>
<path fill="none" stroke="orange" d="M184.5,-646.29C184.5,-633.84 184.5,-620.23 184.5,-608.68"/>
<polygon fill="orange" stroke="orange" points="181,-646.4 184.5,-656.4 188,-646.4 181,-646.4"/>
<text text-anchor="middle" x="303" y="-630" font-family="Helvetica,sans-Serif" font-size="10.00"> &lt; eu::anwar::madrunner::objects::obstacles::Obstacle &gt;</text>
</g>
<!-- Node6 -->
<g id="node6" class="node">
<title>Node6</title>
<g id="a_node6"><a xlink:title=" ">
<polygon fill="white" stroke="black" points="329.5,-380.5 329.5,-437.5 373.5,-437.5 373.5,-380.5 329.5,-380.5"/>
<text text-anchor="middle" x="351.5" y="-425.5" font-family="Helvetica,sans-Serif" font-size="10.00">Image</text>
<polyline fill="none" stroke="black" points="329.5,-418.5 373.5,-418.5 "/>
<text text-anchor="middle" x="351.5" y="-406.5" font-family="Helvetica,sans-Serif" font-size="10.00"> </text>
<polyline fill="none" stroke="black" points="329.5,-399.5 373.5,-399.5 "/>
<text text-anchor="middle" x="351.5" y="-387.5" font-family="Helvetica,sans-Serif" font-size="10.00"> </text>
</a>
</g>
</g>
<!-- Node6&#45;&gt;Node1 -->
<g id="edge5" class="edge">
<title>Node6&#45;&gt;Node1</title>
<path fill="none" stroke="#404040" d="M341.2,-380.33C335.71,-366.66 328.45,-350.11 320.5,-336 313.6,-323.76 306.09,-311.36 298.25,-299.05"/>
<polygon fill="none" stroke="#404040" points="298.1,-298.82 291.49,-295.95 291.59,-288.74 298.21,-291.61 298.1,-298.82"/>
<text text-anchor="middle" x="323.5" y="-310" font-family="Helvetica,sans-Serif" font-size="10.00"> &#45;image</text>
</g>
</g>
</svg>
