<?xml version="1.0" encoding="UTF-8" standalone="no"?>
<!DOCTYPE svg PUBLIC "-//W3C//DTD SVG 1.1//EN"
 "http://www.w3.org/Graphics/SVG/1.1/DTD/svg11.dtd">
<!-- Generated by graphviz version 8.0.3 (0)
 -->
<!-- Title: logic.Logic.Score Pages: 1 -->
<svg width="468pt" height="850pt"
 viewBox="0.00 0.00 467.50 850.00" xmlns="http://www.w3.org/2000/svg" xmlns:xlink="http://www.w3.org/1999/xlink">
<g id="graph0" class="graph" transform="scale(1 1) rotate(0) translate(4 846)">
<title>logic.Logic.Score</title>
<!-- Node1 -->
<g id="node1" class="node">
<title>Node1</title>
<g id="a_node1"><a xlink:title=" ">
<polygon fill="#999999" stroke="#666666" points="91,-0.5 91,-134.5 232,-134.5 232,-0.5 91,-0.5"/>
<text text-anchor="middle" x="161.5" y="-122.5" font-family="Helvetica,sans-Serif" font-size="10.00">logic.Logic.Score</text>
<polyline fill="none" stroke="#666666" points="91,-115.5 232,-115.5"/>
<text text-anchor="start" x="99" y="-103.5" font-family="Helvetica,sans-Serif" font-size="10.00">+ static final double length</text>
<text text-anchor="start" x="99" y="-92.5" font-family="Helvetica,sans-Serif" font-size="10.00">+ static final double padding</text>
<text text-anchor="start" x="99" y="-81.5" font-family="Helvetica,sans-Serif" font-size="10.00">&#45; int currentScore</text>
<polyline fill="none" stroke="#666666" points="91,-74.5 232,-74.5"/>
<text text-anchor="start" x="99" y="-62.5" font-family="Helvetica,sans-Serif" font-size="10.00">+ void increaseScore(int diff)</text>
<text text-anchor="start" x="99" y="-51.5" font-family="Helvetica,sans-Serif" font-size="10.00">+ void incrementScore()</text>
<text text-anchor="start" x="99" y="-40.5" font-family="Helvetica,sans-Serif" font-size="10.00">+ int getScore()</text>
<text text-anchor="start" x="99" y="-29.5" font-family="Helvetica,sans-Serif" font-size="10.00">+ void resetScore()</text>
<text text-anchor="start" x="99" y="-18.5" font-family="Helvetica,sans-Serif" font-size="10.00">+ void Draw()</text>
<text text-anchor="start" x="99" y="-7.5" font-family="Helvetica,sans-Serif" font-size="10.00">~ Score()</text>
</a>
</g>
</g>
<!-- Node2 -->
<g id="node2" class="node">
<title>Node2</title>
<g id="a_node2"><a xlink:href="classobjects_1_1GameObject.html" target="_top" xlink:title=" ">
<polygon fill="white" stroke="#666666" points="0,-172.5 0,-449.5 323,-449.5 323,-172.5 0,-172.5"/>
<text text-anchor="middle" x="161.5" y="-437.5" font-family="Helvetica,sans-Serif" font-size="10.00">objects.GameObject</text>
<polyline fill="none" stroke="#666666" points="0,-430.5 323,-430.5"/>
<text text-anchor="start" x="8" y="-418.5" font-family="Helvetica,sans-Serif" font-size="10.00"># double x</text>
<text text-anchor="start" x="8" y="-407.5" font-family="Helvetica,sans-Serif" font-size="10.00"># double y</text>
<text text-anchor="start" x="8" y="-396.5" font-family="Helvetica,sans-Serif" font-size="10.00"># double width</text>
<text text-anchor="start" x="8" y="-385.5" font-family="Helvetica,sans-Serif" font-size="10.00"># double length</text>
<polyline fill="none" stroke="#666666" points="0,-378.5 323,-378.5"/>
<text text-anchor="start" x="8" y="-366.5" font-family="Helvetica,sans-Serif" font-size="10.00">+ GameObject(double x, double y, double width, double length)</text>
<text text-anchor="start" x="8" y="-355.5" font-family="Helvetica,sans-Serif" font-size="10.00">+ GameObject(Block.Lane lane, double y, double width, double length)</text>
<text text-anchor="start" x="8" y="-344.5" font-family="Helvetica,sans-Serif" font-size="10.00">+ GameObject(Block.Lane lane, double y, double cubeLength)</text>
<text text-anchor="start" x="8" y="-333.5" font-family="Helvetica,sans-Serif" font-size="10.00">+ GameObject(double x, double y, double cubeLength)</text>
<text text-anchor="start" x="8" y="-322.5" font-family="Helvetica,sans-Serif" font-size="10.00">+ double getWidth()</text>
<text text-anchor="start" x="8" y="-311.5" font-family="Helvetica,sans-Serif" font-size="10.00">+ double getLength()</text>
<text text-anchor="start" x="8" y="-300.5" font-family="Helvetica,sans-Serif" font-size="10.00">+ void setColor(Color color)</text>
<text text-anchor="start" x="8" y="-289.5" font-family="Helvetica,sans-Serif" font-size="10.00">+ void setLanePath(Block.Lane path)</text>
<text text-anchor="start" x="8" y="-278.5" font-family="Helvetica,sans-Serif" font-size="10.00">+ Block.Lane getLane()</text>
<text text-anchor="start" x="8" y="-267.5" font-family="Helvetica,sans-Serif" font-size="10.00">+ void setX(double x)</text>
<text text-anchor="start" x="8" y="-256.5" font-family="Helvetica,sans-Serif" font-size="10.00">+ void setY(double y)</text>
<text text-anchor="start" x="8" y="-245.5" font-family="Helvetica,sans-Serif" font-size="10.00">+ double getY()</text>
<text text-anchor="start" x="8" y="-234.5" font-family="Helvetica,sans-Serif" font-size="10.00">+ double getX()</text>
<text text-anchor="start" x="8" y="-223.5" font-family="Helvetica,sans-Serif" font-size="10.00">+ void Draw()</text>
<text text-anchor="start" x="8" y="-212.5" font-family="Helvetica,sans-Serif" font-size="10.00">+ boolean interesects(double x, double y)</text>
<text text-anchor="start" x="8" y="-201.5" font-family="Helvetica,sans-Serif" font-size="10.00">+ boolean interesects(Block.Lane lane, double y)</text>
<text text-anchor="start" x="8" y="-190.5" font-family="Helvetica,sans-Serif" font-size="10.00">+ boolean touches(GameObject other)</text>
<text text-anchor="start" x="8" y="-179.5" font-family="Helvetica,sans-Serif" font-size="10.00">+ boolean within(GameObject other)</text>
</a>
</g>
</g>
<!-- Node2&#45;&gt;Node1 -->
<g id="edge1" class="edge">
<title>Node2&#45;&gt;Node1</title>
<path fill="none" stroke="#63b8ff" d="M161.5,-161.86C161.5,-152.36 161.5,-143.09 161.5,-134.32"/>
<polygon fill="none" stroke="#63b8ff" points="158,-161.67 161.5,-171.67 165,-161.67 158,-161.67"/>
</g>
<!-- Node3 -->
<g id="node3" class="node">
<title>Node3</title>
<g id="a_node3"><a xlink:title=" ">
<polygon fill="white" stroke="#666666" points="81.5,-525 81.5,-582 121.5,-582 121.5,-525 81.5,-525"/>
<text text-anchor="middle" x="101.5" y="-570" font-family="Helvetica,sans-Serif" font-size="10.00">Color</text>
<polyline fill="none" stroke="#666666" points="81.5,-563 121.5,-563"/>
<text text-anchor="middle" x="101.5" y="-551" font-family="Helvetica,sans-Serif" font-size="10.00"> </text>
<polyline fill="none" stroke="#666666" points="81.5,-544 121.5,-544"/>
<text text-anchor="middle" x="101.5" y="-532" font-family="Helvetica,sans-Serif" font-size="10.00"> </text>
</a>
</g>
</g>
<!-- Node3&#45;&gt;Node2 -->
<g id="edge2" class="edge">
<title>Node3&#45;&gt;Node2</title>
<path fill="none" stroke="#404040" d="M108.27,-525.38C112.4,-508.83 118.04,-486.21 124.11,-461.87"/>
<polygon fill="none" stroke="#404040" points="124.1,-461.92 121.67,-455.13 127,-450.28 129.43,-457.06 124.1,-461.92"/>
<text text-anchor="middle" x="135.5" y="-471" font-family="Helvetica,sans-Serif" font-size="10.00"> #color</text>
</g>
<!-- Node4 -->
<g id="node4" class="node">
<title>Node4</title>
<g id="a_node4"><a xlink:title=" ">
<polygon fill="white" stroke="#666666" points="139.5,-525 139.5,-582 183.5,-582 183.5,-525 139.5,-525"/>
<text text-anchor="middle" x="161.5" y="-570" font-family="Helvetica,sans-Serif" font-size="10.00">Image</text>
<polyline fill="none" stroke="#666666" points="139.5,-563 183.5,-563"/>
<text text-anchor="middle" x="161.5" y="-551" font-family="Helvetica,sans-Serif" font-size="10.00"> </text>
<polyline fill="none" stroke="#666666" points="139.5,-544 183.5,-544"/>
<text text-anchor="middle" x="161.5" y="-532" font-family="Helvetica,sans-Serif" font-size="10.00"> </text>
</a>
</g>
</g>
<!-- Node4&#45;&gt;Node2 -->
<g id="edge3" class="edge">
<title>Node4&#45;&gt;Node2</title>
<path fill="none" stroke="#404040" d="M161.5,-525.38C161.5,-508.9 161.5,-486.42 161.5,-462.2"/>
<polygon fill="none" stroke="#404040" points="161.5,-462.3 157.5,-456.3 161.5,-450.3 165.5,-456.3 161.5,-462.3"/>
<text text-anchor="middle" x="179" y="-471" font-family="Helvetica,sans-Serif" font-size="10.00"> #image</text>
</g>
<!-- Node5 -->
<g id="node5" class="node">
<title>Node5</title>
<g id="a_node5"><a xlink:href="classobjects_1_1Block.html" target="_top" xlink:title=" ">
<polygon fill="white" stroke="#666666" points="201.5,-497.5 201.5,-609.5 459.5,-609.5 459.5,-497.5 201.5,-497.5"/>
<text text-anchor="middle" x="330.5" y="-597.5" font-family="Helvetica,sans-Serif" font-size="10.00">objects.Block</text>
<polyline fill="none" stroke="#666666" points="201.5,-590.5 459.5,-590.5"/>
<text text-anchor="start" x="209.5" y="-578.5" font-family="Helvetica,sans-Serif" font-size="10.00">+ static final double speed</text>
<text text-anchor="start" x="209.5" y="-567.5" font-family="Helvetica,sans-Serif" font-size="10.00">&#45; double currentY</text>
<polyline fill="none" stroke="#666666" points="201.5,-560.5 459.5,-560.5"/>
<text text-anchor="start" x="209.5" y="-548.5" font-family="Helvetica,sans-Serif" font-size="10.00">+ Block(ArrayList&lt; Obstacle &gt; left, ArrayList&lt; Obstacle</text>
<text text-anchor="start" x="209.5" y="-537.5" font-family="Helvetica,sans-Serif" font-size="10.00"> &gt; center, ArrayList&lt; Obstacle &gt; right)</text>
<text text-anchor="start" x="209.5" y="-526.5" font-family="Helvetica,sans-Serif" font-size="10.00">+ void frameUpdate()</text>
<text text-anchor="start" x="209.5" y="-515.5" font-family="Helvetica,sans-Serif" font-size="10.00">+ double getCurrentY()</text>
<text text-anchor="start" x="209.5" y="-504.5" font-family="Helvetica,sans-Serif" font-size="10.00">+ ArrayList&lt; Obstacle &gt; getLane(Lane lane)</text>
</a>
</g>
</g>
<!-- Node5&#45;&gt;Node2 -->
<g id="edge4" class="edge">
<title>Node5&#45;&gt;Node2</title>
<path fill="none" stroke="#404040" d="M291.94,-497.63C283.71,-485.92 274.65,-473.02 265.25,-459.64"/>
<polygon fill="none" stroke="#404040" points="265.42,-459.89 258.7,-457.28 258.52,-450.07 265.24,-452.68 265.42,-459.89"/>
<text text-anchor="middle" x="289" y="-471" font-family="Helvetica,sans-Serif" font-size="10.00"> #lane</text>
</g>
<!-- Node6 -->
<g id="node6" class="node">
<title>Node6</title>
<g id="a_node6"><a xlink:title=" ">
<polygon fill="white" stroke="#666666" points="257,-679.5 257,-736.5 404,-736.5 404,-679.5 257,-679.5"/>
<text text-anchor="middle" x="330.5" y="-724.5" font-family="Helvetica,sans-Serif" font-size="10.00">ArrayList&lt; objects.Obstacle &gt;</text>
<polyline fill="none" stroke="#666666" points="257,-717.5 404,-717.5"/>
<text text-anchor="middle" x="330.5" y="-705.5" font-family="Helvetica,sans-Serif" font-size="10.00"> </text>
<polyline fill="none" stroke="#666666" points="257,-698.5 404,-698.5"/>
<text text-anchor="middle" x="330.5" y="-686.5" font-family="Helvetica,sans-Serif" font-size="10.00"> </text>
</a>
</g>
</g>
<!-- Node6&#45;&gt;Node5 -->
<g id="edge5" class="edge">
<title>Node6&#45;&gt;Node5</title>
<path fill="none" stroke="#404040" d="M330.5,-679.74C330.5,-663.64 330.5,-642.48 330.5,-622.16"/>
<polygon fill="none" stroke="#404040" points="330.5,-622.22 326.5,-616.22 330.5,-610.22 334.5,-616.22 330.5,-622.22"/>
<text text-anchor="middle" x="349" y="-653" font-family="Helvetica,sans-Serif" font-size="10.00"> +center</text>
<text text-anchor="middle" x="349" y="-642" font-family="Helvetica,sans-Serif" font-size="10.00">+left</text>
<text text-anchor="middle" x="349" y="-631" font-family="Helvetica,sans-Serif" font-size="10.00">+right</text>
</g>
<!-- Node7 -->
<g id="node7" class="node">
<title>Node7</title>
<g id="a_node7"><a xlink:title=" ">
<polygon fill="white" stroke="#666666" points="302.5,-784.5 302.5,-841.5 358.5,-841.5 358.5,-784.5 302.5,-784.5"/>
<text text-anchor="middle" x="330.5" y="-829.5" font-family="Helvetica,sans-Serif" font-size="10.00">ArrayList</text>
<polyline fill="none" stroke="#666666" points="302.5,-822.5 358.5,-822.5"/>
<text text-anchor="middle" x="330.5" y="-810.5" font-family="Helvetica,sans-Serif" font-size="10.00"> </text>
<polyline fill="none" stroke="#666666" points="302.5,-803.5 358.5,-803.5"/>
<text text-anchor="middle" x="330.5" y="-791.5" font-family="Helvetica,sans-Serif" font-size="10.00"> </text>
</a>
</g>
</g>
<!-- Node7&#45;&gt;Node6 -->
<g id="edge6" class="edge">
<title>Node7&#45;&gt;Node6</title>
<path fill="none" stroke="orange" d="M330.5,-773.71C330.5,-761.34 330.5,-747.88 330.5,-736.46"/>
<polygon fill="orange" stroke="orange" points="327,-773.67 330.5,-783.67 334,-773.67 327,-773.67"/>
<text text-anchor="middle" x="379.5" y="-758" font-family="Helvetica,sans-Serif" font-size="10.00"> &lt; objects::Obstacle &gt;</text>
</g>
</g>
</svg>
