<?xml version="1.0" encoding="UTF-8" standalone="no"?>
<!DOCTYPE svg PUBLIC "-//W3C//DTD SVG 1.1//EN"
 "http://www.w3.org/Graphics/SVG/1.1/DTD/svg11.dtd">
<!-- Generated by graphviz version 8.0.3 (0)
 -->
<!-- Title: eu.anwar.madrunner.MadRunner Pages: 1 -->
<svg width="173pt" height="193pt"
 viewBox="0.00 0.00 173.00 193.00" xmlns="http://www.w3.org/2000/svg" xmlns:xlink="http://www.w3.org/1999/xlink">
<g id="graph0" class="graph" transform="scale(1 1) rotate(0) translate(4 189)">
<title>eu.anwar.madrunner.MadRunner</title>
<!-- Node1 -->
<g id="node1" class="node">
<title>Node1</title>
<g id="a_node1"><a xlink:title=" ">
<polygon fill="#999999" stroke="#666666" points="0,-0.5 0,-79.5 158,-79.5 158,-0.5 0,-0.5"/>
<text text-anchor="middle" x="79" y="-67.5" font-family="Helvetica,sans-Serif" font-size="10.00">eu.anwar.madrunner.MadRunner</text>
<polyline fill="none" stroke="#666666" points="0,-60.5 158,-60.5"/>
<text text-anchor="start" x="8" y="-48.5" font-family="Helvetica,sans-Serif" font-size="10.00">+ static final double minScreenY</text>
<text text-anchor="start" x="8" y="-37.5" font-family="Helvetica,sans-Serif" font-size="10.00">+ static final double minScreenX</text>
<polyline fill="none" stroke="#666666" points="0,-30.5 158,-30.5"/>
<text text-anchor="start" x="8" y="-18.5" font-family="Helvetica,sans-Serif" font-size="10.00">+ void start(Stage stage)</text>
<text text-anchor="start" x="8" y="-7.5" font-family="Helvetica,sans-Serif" font-size="10.00">+ static void main(String[] args)</text>
</a>
</g>
</g>
<!-- Node2 -->
<g id="node2" class="node">
<title>Node2</title>
<g id="a_node2"><a xlink:title=" ">
<polygon fill="white" stroke="#666666" points="3.5,-127.5 3.5,-184.5 68.5,-184.5 68.5,-127.5 3.5,-127.5"/>
<text text-anchor="middle" x="36" y="-172.5" font-family="Helvetica,sans-Serif" font-size="10.00">Application</text>
<polyline fill="none" stroke="#666666" points="3.5,-165.5 68.5,-165.5"/>
<text text-anchor="middle" x="36" y="-153.5" font-family="Helvetica,sans-Serif" font-size="10.00"> </text>
<polyline fill="none" stroke="#666666" points="3.5,-146.5 68.5,-146.5"/>
<text text-anchor="middle" x="36" y="-134.5" font-family="Helvetica,sans-Serif" font-size="10.00"> </text>
</a>
</g>
</g>
<!-- Node2&#45;&gt;Node1 -->
<g id="edge1" class="edge">
<title>Node2&#45;&gt;Node1</title>
<path fill="none" stroke="#63b8ff" d="M50.06,-117.73C54.7,-105.41 59.88,-91.69 64.56,-79.29"/>
<polygon fill="none" stroke="#63b8ff" points="46.55,-116.1 46.3,-126.69 53.1,-118.57 46.55,-116.1"/>
</g>
<!-- Node3 -->
<g id="node3" class="node">
<title>Node3</title>
<g id="a_node3"><a xlink:title=" ">
<polygon fill="white" stroke="#666666" points="86.5,-127.5 86.5,-184.5 157.5,-184.5 157.5,-127.5 86.5,-127.5"/>
<text text-anchor="middle" x="122" y="-172.5" font-family="Helvetica,sans-Serif" font-size="10.00">MediaPlayer</text>
<polyline fill="none" stroke="#666666" points="86.5,-165.5 157.5,-165.5"/>
<text text-anchor="middle" x="122" y="-153.5" font-family="Helvetica,sans-Serif" font-size="10.00"> </text>
<polyline fill="none" stroke="#666666" points="86.5,-146.5 157.5,-146.5"/>
<text text-anchor="middle" x="122" y="-134.5" font-family="Helvetica,sans-Serif" font-size="10.00"> </text>
</a>
</g>
</g>
<!-- Node3&#45;&gt;Node1 -->
<g id="edge2" class="edge">
<title>Node3&#45;&gt;Node1</title>
<path fill="none" stroke="#404040" d="M111.7,-127.69C107.56,-116.71 102.65,-103.69 97.91,-91.12"/>
<polygon fill="none" stroke="#404040" points="98,-91.36 92.14,-87.16 93.76,-80.13 99.62,-84.34 98,-91.36"/>
<text text-anchor="middle" x="134.5" y="-101" font-family="Helvetica,sans-Serif" font-size="10.00"> +mainTheme</text>
</g>
</g>
</svg>
