<?xml version="1.0" encoding="UTF-8" standalone="no"?>
<!DOCTYPE svg PUBLIC "-//W3C//DTD SVG 1.1//EN"
 "http://www.w3.org/Graphics/SVG/1.1/DTD/svg11.dtd">
<!-- Generated by graphviz version 3.0.0 (20221109.1736)
 -->
<!-- Title: eu.anwar.madrunner.MadRunner Pages: 1 -->
<svg width="171pt" height="193pt"
 viewBox="0.00 0.00 170.50 193.00" xmlns="http://www.w3.org/2000/svg" xmlns:xlink="http://www.w3.org/1999/xlink">
<g id="graph0" class="graph" transform="scale(1 1) rotate(0) translate(4 189)">
<title>eu.anwar.madrunner.MadRunner</title>
<polygon fill="white" stroke="transparent" points="-4,4 -4,-189 166.5,-189 166.5,4 -4,4"/>
<!-- Node1 -->
<g id="node1" class="node">
<title>Node1</title>
<g id="a_node1"><a xlink:title=" ">
<polygon fill="#bfbfbf" stroke="black" points="0,-0.5 0,-79.5 155,-79.5 155,-0.5 0,-0.5"/>
<text text-anchor="middle" x="77.5" y="-67.5" font-family="Helvetica,sans-Serif" font-size="10.00">eu.anwar.madrunner.MadRunner</text>
<polyline fill="none" stroke="black" points="0,-60.5 155,-60.5 "/>
<text text-anchor="start" x="8" y="-48.5" font-family="Helvetica,sans-Serif" font-size="10.00">+ static final double minScreenY</text>
<text text-anchor="start" x="8" y="-37.5" font-family="Helvetica,sans-Serif" font-size="10.00">+ static final double minScreenX</text>
<polyline fill="none" stroke="black" points="0,-30.5 155,-30.5 "/>
<text text-anchor="start" x="8" y="-18.5" font-family="Helvetica,sans-Serif" font-size="10.00">+ void start(Stage stage)</text>
<text text-anchor="start" x="8" y="-7.5" font-family="Helvetica,sans-Serif" font-size="10.00">+ static void main(String[] args)</text>
</a>
</g>
</g>
<!-- Node2 -->
<g id="node2" class="node">
<title>Node2</title>
<g id="a_node2"><a xlink:title=" ">
<polygon fill="white" stroke="black" points="2,-127.5 2,-184.5 67,-184.5 67,-127.5 2,-127.5"/>
<text text-anchor="middle" x="34.5" y="-172.5" font-family="Helvetica,sans-Serif" font-size="10.00">Application</text>
<polyline fill="none" stroke="black" points="2,-165.5 67,-165.5 "/>
<text text-anchor="middle" x="34.5" y="-153.5" font-family="Helvetica,sans-Serif" font-size="10.00"> </text>
<polyline fill="none" stroke="black" points="2,-146.5 67,-146.5 "/>
<text text-anchor="middle" x="34.5" y="-134.5" font-family="Helvetica,sans-Serif" font-size="10.00"> </text>
</a>
</g>
</g>
<!-- Node2&#45;&gt;Node1 -->
<g id="edge1" class="edge">
<title>Node2&#45;&gt;Node1</title>
<path fill="none" stroke="midnightblue" d="M48.49,-117.91C53.12,-105.62 58.29,-91.93 62.96,-79.54"/>
<polygon fill="none" stroke="midnightblue" points="45.16,-116.81 44.91,-127.4 51.71,-119.28 45.16,-116.81"/>
</g>
<!-- Node3 -->
<g id="node3" class="node">
<title>Node3</title>
<g id="a_node3"><a xlink:title=" ">
<polygon fill="white" stroke="black" points="85.5,-127.5 85.5,-184.5 155.5,-184.5 155.5,-127.5 85.5,-127.5"/>
<text text-anchor="middle" x="120.5" y="-172.5" font-family="Helvetica,sans-Serif" font-size="10.00">MediaPlayer</text>
<polyline fill="none" stroke="black" points="85.5,-165.5 155.5,-165.5 "/>
<text text-anchor="middle" x="120.5" y="-153.5" font-family="Helvetica,sans-Serif" font-size="10.00"> </text>
<polyline fill="none" stroke="black" points="85.5,-146.5 155.5,-146.5 "/>
<text text-anchor="middle" x="120.5" y="-134.5" font-family="Helvetica,sans-Serif" font-size="10.00"> </text>
</a>
</g>
</g>
<!-- Node3&#45;&gt;Node1 -->
<g id="edge2" class="edge">
<title>Node3&#45;&gt;Node1</title>
<path fill="none" stroke="#404040" d="M110.09,-127.4C105.94,-116.41 101.04,-103.4 96.3,-90.85"/>
<polygon fill="none" stroke="#404040" points="96.27,-90.77 90.41,-86.57 92.04,-79.54 97.9,-83.74 96.27,-90.77"/>
<text text-anchor="middle" x="132.5" y="-101" font-family="Helvetica,sans-Serif" font-size="10.00"> +mainTheme</text>
</g>
</g>
</svg>
