<?xml version="1.0" encoding="UTF-8" standalone="no"?>
<!DOCTYPE svg PUBLIC "-//W3C//DTD SVG 1.1//EN"
 "http://www.w3.org/Graphics/SVG/1.1/DTD/svg11.dtd">
<!-- Generated by graphviz version 3.0.0 (20221109.1736)
 -->
<!-- Title: eu.anwar.madrunner.objects.GameObject Pages: 1 -->
<svg width="430pt" height="634pt"
 viewBox="0.00 0.00 429.50 634.00" xmlns="http://www.w3.org/2000/svg" xmlns:xlink="http://www.w3.org/1999/xlink">
<g id="graph0" class="graph" transform="scale(1 1) rotate(0) translate(4 630)">
<title>eu.anwar.madrunner.objects.GameObject</title>
<polygon fill="white" stroke="transparent" points="-4,4 -4,-630 425.5,-630 425.5,4 -4,4"/>
<!-- Node1 -->
<g id="node1" class="node">
<title>Node1</title>
<g id="a_node1"><a xlink:title=" ">
<polygon fill="#bfbfbf" stroke="black" points="43,-0.5 43,-200.5 326,-200.5 326,-0.5 43,-0.5"/>
<text text-anchor="middle" x="184.5" y="-188.5" font-family="Helvetica,sans-Serif" font-size="10.00">eu.anwar.madrunner.objects.GameObject</text>
<polyline fill="none" stroke="black" points="43,-181.5 326,-181.5 "/>
<text text-anchor="start" x="51" y="-169.5" font-family="Helvetica,sans-Serif" font-size="10.00"># double x</text>
<text text-anchor="start" x="51" y="-158.5" font-family="Helvetica,sans-Serif" font-size="10.00"># double y</text>
<text text-anchor="start" x="51" y="-147.5" font-family="Helvetica,sans-Serif" font-size="10.00"># double width</text>
<text text-anchor="start" x="51" y="-136.5" font-family="Helvetica,sans-Serif" font-size="10.00"># double length</text>
<polyline fill="none" stroke="black" points="43,-129.5 326,-129.5 "/>
<text text-anchor="start" x="51" y="-117.5" font-family="Helvetica,sans-Serif" font-size="10.00">+ GameObject(double x, double y, double width, double length)</text>
<text text-anchor="start" x="51" y="-106.5" font-family="Helvetica,sans-Serif" font-size="10.00">+ double getWidth()</text>
<text text-anchor="start" x="51" y="-95.5" font-family="Helvetica,sans-Serif" font-size="10.00">+ double getLength()</text>
<text text-anchor="start" x="51" y="-84.5" font-family="Helvetica,sans-Serif" font-size="10.00">+ void setColor(Color color)</text>
<text text-anchor="start" x="51" y="-73.5" font-family="Helvetica,sans-Serif" font-size="10.00">+ void setLane(Block.Lane path)</text>
<text text-anchor="start" x="51" y="-62.5" font-family="Helvetica,sans-Serif" font-size="10.00">+ void setImage(Image image)</text>
<text text-anchor="start" x="51" y="-51.5" font-family="Helvetica,sans-Serif" font-size="10.00">+ Block.Lane getLane()</text>
<text text-anchor="start" x="51" y="-40.5" font-family="Helvetica,sans-Serif" font-size="10.00">+ Image getImage()</text>
<text text-anchor="start" x="51" y="-29.5" font-family="Helvetica,sans-Serif" font-size="10.00">+ void setY(double y)</text>
<text text-anchor="start" x="51" y="-18.5" font-family="Helvetica,sans-Serif" font-size="10.00">+ double getY()</text>
<text text-anchor="start" x="51" y="-7.5" font-family="Helvetica,sans-Serif" font-size="10.00">+ void Draw()</text>
</a>
</g>
</g>
<!-- Node2 -->
<g id="node2" class="node">
<title>Node2</title>
<g id="a_node2"><a xlink:title=" ">
<polygon fill="white" stroke="black" points="0,-292.5 0,-349.5 39,-349.5 39,-292.5 0,-292.5"/>
<text text-anchor="middle" x="19.5" y="-337.5" font-family="Helvetica,sans-Serif" font-size="10.00">Color</text>
<polyline fill="none" stroke="black" points="0,-330.5 39,-330.5 "/>
<text text-anchor="middle" x="19.5" y="-318.5" font-family="Helvetica,sans-Serif" font-size="10.00"> </text>
<polyline fill="none" stroke="black" points="0,-311.5 39,-311.5 "/>
<text text-anchor="middle" x="19.5" y="-299.5" font-family="Helvetica,sans-Serif" font-size="10.00"> </text>
</a>
</g>
</g>
<!-- Node2&#45;&gt;Node1 -->
<g id="edge1" class="edge">
<title>Node2&#45;&gt;Node1</title>
<path fill="none" stroke="#404040" d="M28.02,-292.19C32.92,-278.33 39.83,-261.65 48.5,-248 56.65,-235.16 66,-222.42 75.89,-210.13"/>
<polygon fill="none" stroke="#404040" points="75.93,-210.08 76.65,-202.91 83.55,-200.82 82.83,-207.99 75.93,-210.08"/>
<text text-anchor="middle" x="82" y="-222" font-family="Helvetica,sans-Serif" font-size="10.00"> #color</text>
</g>
<!-- Node3 -->
<g id="node3" class="node">
<title>Node3</title>
<g id="a_node3"><a xlink:href="classeu_1_1anwar_1_1madrunner_1_1objects_1_1obstacles_1_1Block.html" target="_top" xlink:title=" ">
<polygon fill="white" stroke="black" points="57.5,-248.5 57.5,-393.5 311.5,-393.5 311.5,-248.5 57.5,-248.5"/>
<text text-anchor="middle" x="184.5" y="-381.5" font-family="Helvetica,sans-Serif" font-size="10.00">eu.anwar.madrunner.objects.obstacles.Block</text>
<polyline fill="none" stroke="black" points="57.5,-374.5 311.5,-374.5 "/>
<text text-anchor="start" x="65.5" y="-362.5" font-family="Helvetica,sans-Serif" font-size="10.00">+ static final double speed</text>
<text text-anchor="start" x="65.5" y="-351.5" font-family="Helvetica,sans-Serif" font-size="10.00">&#45; double currentY</text>
<polyline fill="none" stroke="black" points="57.5,-344.5 311.5,-344.5 "/>
<text text-anchor="start" x="65.5" y="-332.5" font-family="Helvetica,sans-Serif" font-size="10.00">+ Block(ArrayList&lt; Obstacle &gt; left, ArrayList&lt; Obstacle</text>
<text text-anchor="start" x="65.5" y="-321.5" font-family="Helvetica,sans-Serif" font-size="10.00"> &gt; center, ArrayList&lt; Obstacle &gt; right)</text>
<text text-anchor="start" x="65.5" y="-310.5" font-family="Helvetica,sans-Serif" font-size="10.00">+ double getCurrentY()</text>
<text text-anchor="start" x="65.5" y="-299.5" font-family="Helvetica,sans-Serif" font-size="10.00">+ ArrayList&lt; Obstacle &gt; getLane(Lane lane)</text>
<text text-anchor="start" x="65.5" y="-288.5" font-family="Helvetica,sans-Serif" font-size="10.00">+ ArrayList&lt; Obstacle &gt; getLeftLane()</text>
<text text-anchor="start" x="65.5" y="-277.5" font-family="Helvetica,sans-Serif" font-size="10.00">+ ArrayList&lt; Obstacle &gt; getCenterLane()</text>
<text text-anchor="start" x="65.5" y="-266.5" font-family="Helvetica,sans-Serif" font-size="10.00">+ ArrayList&lt; Obstacle &gt; getRightLane()</text>
<text text-anchor="start" x="65.5" y="-255.5" font-family="Helvetica,sans-Serif" font-size="10.00">+ void frameUpdate()</text>
</a>
</g>
</g>
<!-- Node3&#45;&gt;Node1 -->
<g id="edge2" class="edge">
<title>Node3&#45;&gt;Node1</title>
<path fill="none" stroke="#404040" d="M184.5,-248.45C184.5,-236.97 184.5,-224.86 184.5,-212.71"/>
<polygon fill="none" stroke="#404040" points="184.5,-212.58 180.5,-206.58 184.5,-200.58 188.5,-206.58 184.5,-212.58"/>
<text text-anchor="middle" x="197.5" y="-222" font-family="Helvetica,sans-Serif" font-size="10.00"> #lane</text>
</g>
<!-- Node4 -->
<g id="node4" class="node">
<title>Node4</title>
<g id="a_node4"><a xlink:title=" ">
<polygon fill="white" stroke="black" points="45.5,-463.5 45.5,-520.5 323.5,-520.5 323.5,-463.5 45.5,-463.5"/>
<text text-anchor="middle" x="184.5" y="-508.5" font-family="Helvetica,sans-Serif" font-size="10.00">ArrayList&lt; eu.anwar.madrunner.objects.obstacles.Obstacle &gt;</text>
<polyline fill="none" stroke="black" points="45.5,-501.5 323.5,-501.5 "/>
<text text-anchor="middle" x="184.5" y="-489.5" font-family="Helvetica,sans-Serif" font-size="10.00"> </text>
<polyline fill="none" stroke="black" points="45.5,-482.5 323.5,-482.5 "/>
<text text-anchor="middle" x="184.5" y="-470.5" font-family="Helvetica,sans-Serif" font-size="10.00"> </text>
</a>
</g>
</g>
<!-- Node4&#45;&gt;Node3 -->
<g id="edge3" class="edge">
<title>Node4&#45;&gt;Node3</title>
<path fill="none" stroke="#404040" d="M184.5,-463.47C184.5,-447.6 184.5,-426.71 184.5,-405.87"/>
<polygon fill="none" stroke="#404040" points="184.5,-405.64 180.5,-399.64 184.5,-393.64 188.5,-399.64 184.5,-405.64"/>
<text text-anchor="middle" x="201" y="-437" font-family="Helvetica,sans-Serif" font-size="10.00"> &#45;center</text>
<text text-anchor="middle" x="201" y="-426" font-family="Helvetica,sans-Serif" font-size="10.00">&#45;left</text>
<text text-anchor="middle" x="201" y="-415" font-family="Helvetica,sans-Serif" font-size="10.00">&#45;right</text>
</g>
<!-- Node5 -->
<g id="node5" class="node">
<title>Node5</title>
<g id="a_node5"><a xlink:title=" ">
<polygon fill="white" stroke="black" points="156.5,-568.5 156.5,-625.5 212.5,-625.5 212.5,-568.5 156.5,-568.5"/>
<text text-anchor="middle" x="184.5" y="-613.5" font-family="Helvetica,sans-Serif" font-size="10.00">ArrayList</text>
<polyline fill="none" stroke="black" points="156.5,-606.5 212.5,-606.5 "/>
<text text-anchor="middle" x="184.5" y="-594.5" font-family="Helvetica,sans-Serif" font-size="10.00"> </text>
<polyline fill="none" stroke="black" points="156.5,-587.5 212.5,-587.5 "/>
<text text-anchor="middle" x="184.5" y="-575.5" font-family="Helvetica,sans-Serif" font-size="10.00"> </text>
</a>
</g>
</g>
<!-- Node5&#45;&gt;Node4 -->
<g id="edge4" class="edge">
<title>Node5&#45;&gt;Node4</title>
<path fill="none" stroke="orange" d="M184.5,-558.29C184.5,-545.84 184.5,-532.23 184.5,-520.68"/>
<polygon fill="orange" stroke="orange" points="181,-558.4 184.5,-568.4 188,-558.4 181,-558.4"/>
<text text-anchor="middle" x="303" y="-542" font-family="Helvetica,sans-Serif" font-size="10.00"> &lt; eu::anwar::madrunner::objects::obstacles::Obstacle &gt;</text>
</g>
<!-- Node6 -->
<g id="node6" class="node">
<title>Node6</title>
<g id="a_node6"><a xlink:title=" ">
<polygon fill="white" stroke="black" points="329.5,-292.5 329.5,-349.5 373.5,-349.5 373.5,-292.5 329.5,-292.5"/>
<text text-anchor="middle" x="351.5" y="-337.5" font-family="Helvetica,sans-Serif" font-size="10.00">Image</text>
<polyline fill="none" stroke="black" points="329.5,-330.5 373.5,-330.5 "/>
<text text-anchor="middle" x="351.5" y="-318.5" font-family="Helvetica,sans-Serif" font-size="10.00"> </text>
<polyline fill="none" stroke="black" points="329.5,-311.5 373.5,-311.5 "/>
<text text-anchor="middle" x="351.5" y="-299.5" font-family="Helvetica,sans-Serif" font-size="10.00"> </text>
</a>
</g>
</g>
<!-- Node6&#45;&gt;Node1 -->
<g id="edge5" class="edge">
<title>Node6&#45;&gt;Node1</title>
<path fill="none" stroke="#404040" d="M342.1,-292.22C336.78,-278.36 329.41,-261.68 320.5,-248 312.12,-235.14 302.58,-222.35 292.53,-209.99"/>
<polygon fill="none" stroke="#404040" points="292.42,-209.86 285.51,-207.8 284.75,-200.63 291.66,-202.69 292.42,-209.86"/>
<text text-anchor="middle" x="320.5" y="-222" font-family="Helvetica,sans-Serif" font-size="10.00"> &#45;image</text>
</g>
</g>
</svg>
