<?xml version="1.0" encoding="UTF-8" standalone="no"?>
<!DOCTYPE svg PUBLIC "-//W3C//DTD SVG 1.1//EN"
 "http://www.w3.org/Graphics/SVG/1.1/DTD/svg11.dtd">
<!-- Generated by graphviz version 8.0.3 (0)
 -->
<!-- Title: eu.anwar.madrunner.objects.GameLaneObject Pages: 1 -->
<svg width="608pt" height="894pt"
 viewBox="0.00 0.00 607.50 894.00" xmlns="http://www.w3.org/2000/svg" xmlns:xlink="http://www.w3.org/1999/xlink">
<g id="graph0" class="graph" transform="scale(1 1) rotate(0) translate(4 890)">
<title>eu.anwar.madrunner.objects.GameLaneObject</title>
<!-- Node1 -->
<g id="node1" class="node">
<title>Node1</title>
<g id="a_node1"><a xlink:title=" ">
<polygon fill="#999999" stroke="#666666" points="88.5,-0.5 88.5,-134.5 432.5,-134.5 432.5,-0.5 88.5,-0.5"/>
<text text-anchor="middle" x="260.5" y="-122.5" font-family="Helvetica,sans-Serif" font-size="10.00">eu.anwar.madrunner.objects.GameLaneObject</text>
<polyline fill="none" stroke="#666666" points="88.5,-115.5 432.5,-115.5"/>
<text text-anchor="middle" x="260.5" y="-103.5" font-family="Helvetica,sans-Serif" font-size="10.00"> </text>
<polyline fill="none" stroke="#666666" points="88.5,-96.5 432.5,-96.5"/>
<text text-anchor="start" x="96.5" y="-84.5" font-family="Helvetica,sans-Serif" font-size="10.00">+ GameLaneObject(Block.Lane lane, double y, double width, double length)</text>
<text text-anchor="start" x="96.5" y="-73.5" font-family="Helvetica,sans-Serif" font-size="10.00">+ GameLaneObject(Block.Lane lane, double y, double cubeLength)</text>
<text text-anchor="start" x="96.5" y="-62.5" font-family="Helvetica,sans-Serif" font-size="10.00">+ void setLane(Block.Lane path)</text>
<text text-anchor="start" x="96.5" y="-51.5" font-family="Helvetica,sans-Serif" font-size="10.00">+ Block.Lane getLane()</text>
<text text-anchor="start" x="96.5" y="-40.5" font-family="Helvetica,sans-Serif" font-size="10.00">+ void Draw()</text>
<text text-anchor="start" x="96.5" y="-29.5" font-family="Helvetica,sans-Serif" font-size="10.00">+ boolean contains(Block.Lane lane, double y)</text>
<text text-anchor="start" x="96.5" y="-18.5" font-family="Helvetica,sans-Serif" font-size="10.00">+ boolean touches(GameLaneObject other)</text>
<text text-anchor="start" x="96.5" y="-7.5" font-family="Helvetica,sans-Serif" font-size="10.00">+ double distance(GameLaneObject other)</text>
</a>
</g>
</g>
<!-- Node2 -->
<g id="node2" class="node">
<title>Node2</title>
<g id="a_node2"><a xlink:href="classeu_1_1anwar_1_1madrunner_1_1objects_1_1GameObject.html" target="_top" xlink:title=" ">
<polygon fill="white" stroke="#666666" points="0,-172.5 0,-460.5 323,-460.5 323,-172.5 0,-172.5"/>
<text text-anchor="middle" x="161.5" y="-448.5" font-family="Helvetica,sans-Serif" font-size="10.00">eu.anwar.madrunner.objects.GameObject</text>
<polyline fill="none" stroke="#666666" points="0,-441.5 323,-441.5"/>
<text text-anchor="start" x="8" y="-429.5" font-family="Helvetica,sans-Serif" font-size="10.00"># double x</text>
<text text-anchor="start" x="8" y="-418.5" font-family="Helvetica,sans-Serif" font-size="10.00"># double y</text>
<text text-anchor="start" x="8" y="-407.5" font-family="Helvetica,sans-Serif" font-size="10.00"># double width</text>
<text text-anchor="start" x="8" y="-396.5" font-family="Helvetica,sans-Serif" font-size="10.00"># double length</text>
<polyline fill="none" stroke="#666666" points="0,-389.5 323,-389.5"/>
<text text-anchor="start" x="8" y="-377.5" font-family="Helvetica,sans-Serif" font-size="10.00">+ GameObject(double x, double y, double width, double length)</text>
<text text-anchor="start" x="8" y="-366.5" font-family="Helvetica,sans-Serif" font-size="10.00">+ GameObject(Block.Lane lane, double y, double width, double length)</text>
<text text-anchor="start" x="8" y="-355.5" font-family="Helvetica,sans-Serif" font-size="10.00">+ GameObject(Block.Lane lane, double y, double cubeLength)</text>
<text text-anchor="start" x="8" y="-344.5" font-family="Helvetica,sans-Serif" font-size="10.00">+ GameObject(double x, double y, double cubeLength)</text>
<text text-anchor="start" x="8" y="-333.5" font-family="Helvetica,sans-Serif" font-size="10.00">+ double getWidth()</text>
<text text-anchor="start" x="8" y="-322.5" font-family="Helvetica,sans-Serif" font-size="10.00">+ double getLength()</text>
<text text-anchor="start" x="8" y="-311.5" font-family="Helvetica,sans-Serif" font-size="10.00">+ void setColor(Color color)</text>
<text text-anchor="start" x="8" y="-300.5" font-family="Helvetica,sans-Serif" font-size="10.00">+ void setLane(Block.Lane path)</text>
<text text-anchor="start" x="8" y="-289.5" font-family="Helvetica,sans-Serif" font-size="10.00">+ void setImage(Image image)</text>
<text text-anchor="start" x="8" y="-278.5" font-family="Helvetica,sans-Serif" font-size="10.00">+ Block.Lane getLane()</text>
<text text-anchor="start" x="8" y="-267.5" font-family="Helvetica,sans-Serif" font-size="10.00">+ Image getImage()</text>
<text text-anchor="start" x="8" y="-256.5" font-family="Helvetica,sans-Serif" font-size="10.00">+ void setX(double x)</text>
<text text-anchor="start" x="8" y="-245.5" font-family="Helvetica,sans-Serif" font-size="10.00">+ void setY(double y)</text>
<text text-anchor="start" x="8" y="-234.5" font-family="Helvetica,sans-Serif" font-size="10.00">+ double getY()</text>
<text text-anchor="start" x="8" y="-223.5" font-family="Helvetica,sans-Serif" font-size="10.00">+ double getX()</text>
<text text-anchor="start" x="8" y="-212.5" font-family="Helvetica,sans-Serif" font-size="10.00">+ void Draw()</text>
<text text-anchor="start" x="8" y="-201.5" font-family="Helvetica,sans-Serif" font-size="10.00">+ boolean interesects(double x, double y)</text>
<text text-anchor="start" x="8" y="-190.5" font-family="Helvetica,sans-Serif" font-size="10.00">+ boolean interesects(Block.Lane lane, double y)</text>
<text text-anchor="start" x="8" y="-179.5" font-family="Helvetica,sans-Serif" font-size="10.00">+ boolean touches(GameObject other)</text>
</a>
</g>
</g>
<!-- Node2&#45;&gt;Node1 -->
<g id="edge1" class="edge">
<title>Node2&#45;&gt;Node1</title>
<path fill="none" stroke="#63b8ff" d="M222.87,-162.37C226.75,-152.7 230.52,-143.29 234.09,-134.39"/>
<polygon fill="none" stroke="#63b8ff" points="219.27,-160.95 218.8,-171.53 225.77,-163.55 219.27,-160.95"/>
</g>
<!-- Node3 -->
<g id="node3" class="node">
<title>Node3</title>
<g id="a_node3"><a xlink:title=" ">
<polygon fill="white" stroke="#666666" points="89.5,-552.5 89.5,-609.5 129.5,-609.5 129.5,-552.5 89.5,-552.5"/>
<text text-anchor="middle" x="109.5" y="-597.5" font-family="Helvetica,sans-Serif" font-size="10.00">Color</text>
<polyline fill="none" stroke="#666666" points="89.5,-590.5 129.5,-590.5"/>
<text text-anchor="middle" x="109.5" y="-578.5" font-family="Helvetica,sans-Serif" font-size="10.00"> </text>
<polyline fill="none" stroke="#666666" points="89.5,-571.5 129.5,-571.5"/>
<text text-anchor="middle" x="109.5" y="-559.5" font-family="Helvetica,sans-Serif" font-size="10.00"> </text>
</a>
</g>
</g>
<!-- Node3&#45;&gt;Node2 -->
<g id="edge2" class="edge">
<title>Node3&#45;&gt;Node2</title>
<path fill="none" stroke="#404040" d="M114.87,-552.9C118.84,-532.83 124.61,-503.71 130.75,-472.74"/>
<polygon fill="none" stroke="#404040" points="130.7,-472.98 127.94,-466.31 133.03,-461.21 135.79,-467.87 130.7,-472.98"/>
<text text-anchor="middle" x="143.5" y="-482" font-family="Helvetica,sans-Serif" font-size="10.00"> #color</text>
</g>
<!-- Node4 -->
<g id="node4" class="node">
<title>Node4</title>
<g id="a_node4"><a xlink:href="classeu_1_1anwar_1_1madrunner_1_1objects_1_1obstacles_1_1Block.html" target="_top" xlink:title=" ">
<polygon fill="white" stroke="#666666" points="223.5,-508.5 223.5,-653.5 481.5,-653.5 481.5,-508.5 223.5,-508.5"/>
<text text-anchor="middle" x="352.5" y="-641.5" font-family="Helvetica,sans-Serif" font-size="10.00">eu.anwar.madrunner.objects.obstacles.Block</text>
<polyline fill="none" stroke="#666666" points="223.5,-634.5 481.5,-634.5"/>
<text text-anchor="start" x="231.5" y="-622.5" font-family="Helvetica,sans-Serif" font-size="10.00">+ static final double speed</text>
<text text-anchor="start" x="231.5" y="-611.5" font-family="Helvetica,sans-Serif" font-size="10.00">&#45; double currentY</text>
<polyline fill="none" stroke="#666666" points="223.5,-604.5 481.5,-604.5"/>
<text text-anchor="start" x="231.5" y="-592.5" font-family="Helvetica,sans-Serif" font-size="10.00">+ Block(ArrayList&lt; Obstacle &gt; left, ArrayList&lt; Obstacle</text>
<text text-anchor="start" x="231.5" y="-581.5" font-family="Helvetica,sans-Serif" font-size="10.00"> &gt; center, ArrayList&lt; Obstacle &gt; right)</text>
<text text-anchor="start" x="231.5" y="-570.5" font-family="Helvetica,sans-Serif" font-size="10.00">+ double getCurrentY()</text>
<text text-anchor="start" x="231.5" y="-559.5" font-family="Helvetica,sans-Serif" font-size="10.00">+ ArrayList&lt; Obstacle &gt; getLane(Lane lane)</text>
<text text-anchor="start" x="231.5" y="-548.5" font-family="Helvetica,sans-Serif" font-size="10.00">+ ArrayList&lt; Obstacle &gt; getLeftLane()</text>
<text text-anchor="start" x="231.5" y="-537.5" font-family="Helvetica,sans-Serif" font-size="10.00">+ ArrayList&lt; Obstacle &gt; getCenterLane()</text>
<text text-anchor="start" x="231.5" y="-526.5" font-family="Helvetica,sans-Serif" font-size="10.00">+ ArrayList&lt; Obstacle &gt; getRightLane()</text>
<text text-anchor="start" x="231.5" y="-515.5" font-family="Helvetica,sans-Serif" font-size="10.00">+ void frameUpdate()</text>
</a>
</g>
</g>
<!-- Node4&#45;&gt;Node1 -->
<g id="edge7" class="edge">
<title>Node4&#45;&gt;Node1</title>
<path fill="none" stroke="#404040" d="M360.63,-508.86C367.52,-425.66 370.98,-284.94 332.5,-172 329.43,-163 325.33,-154.07 320.64,-145.45"/>
<polygon fill="none" stroke="#404040" points="320.65,-145.46 314.17,-142.29 314.61,-135.09 321.09,-138.26 320.65,-145.46"/>
<text text-anchor="middle" x="378" y="-314" font-family="Helvetica,sans-Serif" font-size="10.00"> #lane</text>
</g>
<!-- Node4&#45;&gt;Node2 -->
<g id="edge3" class="edge">
<title>Node4&#45;&gt;Node2</title>
<path fill="none" stroke="#404040" d="M300.56,-508.62C291.89,-496.7 282.6,-483.94 273.1,-470.88"/>
<polygon fill="none" stroke="#404040" points="273.03,-470.79 266.27,-468.29 265.97,-461.08 272.74,-463.58 273.03,-470.79"/>
<text text-anchor="middle" x="298" y="-482" font-family="Helvetica,sans-Serif" font-size="10.00"> #lane</text>
</g>
<!-- Node5 -->
<g id="node5" class="node">
<title>Node5</title>
<g id="a_node5"><a xlink:title=" ">
<polygon fill="white" stroke="#666666" points="210.5,-723.5 210.5,-780.5 494.5,-780.5 494.5,-723.5 210.5,-723.5"/>
<text text-anchor="middle" x="352.5" y="-768.5" font-family="Helvetica,sans-Serif" font-size="10.00">ArrayList&lt; eu.anwar.madrunner.objects.obstacles.Obstacle &gt;</text>
<polyline fill="none" stroke="#666666" points="210.5,-761.5 494.5,-761.5"/>
<text text-anchor="middle" x="352.5" y="-749.5" font-family="Helvetica,sans-Serif" font-size="10.00"> </text>
<polyline fill="none" stroke="#666666" points="210.5,-742.5 494.5,-742.5"/>
<text text-anchor="middle" x="352.5" y="-730.5" font-family="Helvetica,sans-Serif" font-size="10.00"> </text>
</a>
</g>
</g>
<!-- Node5&#45;&gt;Node4 -->
<g id="edge4" class="edge">
<title>Node5&#45;&gt;Node4</title>
<path fill="none" stroke="#404040" d="M352.5,-723.85C352.5,-708.01 352.5,-687.08 352.5,-666.17"/>
<polygon fill="none" stroke="#404040" points="352.5,-666.11 348.5,-660.11 352.5,-654.11 356.5,-660.11 352.5,-666.11"/>
<text text-anchor="middle" x="369.5" y="-697" font-family="Helvetica,sans-Serif" font-size="10.00"> &#45;center</text>
<text text-anchor="middle" x="369.5" y="-686" font-family="Helvetica,sans-Serif" font-size="10.00">&#45;left</text>
<text text-anchor="middle" x="369.5" y="-675" font-family="Helvetica,sans-Serif" font-size="10.00">&#45;right</text>
</g>
<!-- Node6 -->
<g id="node6" class="node">
<title>Node6</title>
<g id="a_node6"><a xlink:title=" ">
<polygon fill="white" stroke="#666666" points="324.5,-828.5 324.5,-885.5 380.5,-885.5 380.5,-828.5 324.5,-828.5"/>
<text text-anchor="middle" x="352.5" y="-873.5" font-family="Helvetica,sans-Serif" font-size="10.00">ArrayList</text>
<polyline fill="none" stroke="#666666" points="324.5,-866.5 380.5,-866.5"/>
<text text-anchor="middle" x="352.5" y="-854.5" font-family="Helvetica,sans-Serif" font-size="10.00"> </text>
<polyline fill="none" stroke="#666666" points="324.5,-847.5 380.5,-847.5"/>
<text text-anchor="middle" x="352.5" y="-835.5" font-family="Helvetica,sans-Serif" font-size="10.00"> </text>
</a>
</g>
</g>
<!-- Node6&#45;&gt;Node5 -->
<g id="edge5" class="edge">
<title>Node6&#45;&gt;Node5</title>
<path fill="none" stroke="orange" d="M352.5,-817.71C352.5,-805.34 352.5,-791.88 352.5,-780.46"/>
<polygon fill="orange" stroke="orange" points="349,-817.67 352.5,-827.67 356,-817.67 349,-817.67"/>
<text text-anchor="middle" x="476" y="-802" font-family="Helvetica,sans-Serif" font-size="10.00"> &lt; eu::anwar::madrunner::objects::obstacles::Obstacle &gt;</text>
</g>
<!-- Node7 -->
<g id="node7" class="node">
<title>Node7</title>
<g id="a_node7"><a xlink:title=" ">
<polygon fill="white" stroke="#666666" points="147.5,-552.5 147.5,-609.5 191.5,-609.5 191.5,-552.5 147.5,-552.5"/>
<text text-anchor="middle" x="169.5" y="-597.5" font-family="Helvetica,sans-Serif" font-size="10.00">Image</text>
<polyline fill="none" stroke="#666666" points="147.5,-590.5 191.5,-590.5"/>
<text text-anchor="middle" x="169.5" y="-578.5" font-family="Helvetica,sans-Serif" font-size="10.00"> </text>
<polyline fill="none" stroke="#666666" points="147.5,-571.5 191.5,-571.5"/>
<text text-anchor="middle" x="169.5" y="-559.5" font-family="Helvetica,sans-Serif" font-size="10.00"> </text>
</a>
</g>
</g>
<!-- Node7&#45;&gt;Node2 -->
<g id="edge6" class="edge">
<title>Node7&#45;&gt;Node2</title>
<path fill="none" stroke="#404040" d="M168.67,-552.9C168.07,-532.92 167.18,-503.96 166.24,-473.15"/>
<polygon fill="none" stroke="#404040" points="166.25,-473.22 162.06,-467.34 165.88,-461.22 170.06,-467.1 166.25,-473.22"/>
<text text-anchor="middle" x="183" y="-482" font-family="Helvetica,sans-Serif" font-size="10.00"> &#45;image</text>
</g>
</g>
</svg>
