<?xml version="1.0" encoding="UTF-8" standalone="no"?>
<!DOCTYPE svg PUBLIC "-//W3C//DTD SVG 1.1//EN"
 "http://www.w3.org/Graphics/SVG/1.1/DTD/svg11.dtd">
<!-- Generated by graphviz version 3.0.0 (20221109.1736)
 -->
<!-- Title: src/main/java/eu/anwar/madrunner/objects Pages: 1 -->
<svg width="260pt" height="111pt"
 viewBox="0.00 0.00 260.00 111.00" xmlns="http://www.w3.org/2000/svg" xmlns:xlink="http://www.w3.org/1999/xlink">
<g id="graph0" class="graph" transform="scale(1 1) rotate(0) translate(4 107)">
<title>src/main/java/eu/anwar/madrunner/objects</title>
<polygon fill="white" stroke="transparent" points="-4,4 -4,-107 256,-107 256,4 -4,4"/>
<g id="clust1" class="cluster">
<title>clusterdir_308b30cf287805664aa312c333abbdff</title>
<g id="a_clust1"><a xlink:href="dir_308b30cf287805664aa312c333abbdff.html" target="_top" xlink:title="madrunner">
<polygon fill="#edf0f7" stroke="#7f7f7f" stroke-dasharray="5,2" points="8,-8 8,-95 244,-95 244,-8 8,-8"/>
<text text-anchor="middle" x="126" y="-83" font-family="Helvetica,sans-Serif" font-size="10.00">madrunner</text>
</a>
</g>
</g>
<g id="clust2" class="cluster">
<title>clusterdir_b7c58830cb01cf23e99964038a4a01b1</title>
<g id="a_clust2"><a xlink:href="dir_b7c58830cb01cf23e99964038a4a01b1.html" target="_top">
<polygon fill="#edf0f7" stroke="#404040" stroke-width="2" points="16,-16 16,-68 236,-68 236,-16 16,-16"/>
</a>
</g>
</g>
<!-- dir_b7c58830cb01cf23e99964038a4a01b1 -->
<g id="node1" class="node">
<title>dir_b7c58830cb01cf23e99964038a4a01b1</title>
<text text-anchor="middle" x="201" y="-39.5" font-family="Helvetica,sans-Serif" font-size="10.00">objects</text>
</g>
<!-- dir_20cc92df03ec2c415f6cd56458549d35 -->
<g id="node2" class="node">
<title>dir_20cc92df03ec2c415f6cd56458549d35</title>
<g id="a_node2"><a xlink:href="dir_20cc92df03ec2c415f6cd56458549d35.html" target="_top" xlink:title="menus">
<polygon fill="#a2b4d6" stroke="#404040" points="156,-60 102,-60 102,-24 156,-24 156,-60"/>
<text text-anchor="middle" x="129" y="-39.5" font-family="Helvetica,sans-Serif" font-size="10.00">menus</text>
</a>
</g>
</g>
<!-- dir_d77cacf2f85691112bf607ef90e2f1c5 -->
<g id="node3" class="node">
<title>dir_d77cacf2f85691112bf607ef90e2f1c5</title>
<g id="a_node3"><a xlink:href="dir_d77cacf2f85691112bf607ef90e2f1c5.html" target="_top" xlink:title="obstacles">
<polygon fill="#a2b4d6" stroke="#404040" points="83.5,-60 24.5,-60 24.5,-24 83.5,-24 83.5,-60"/>
<text text-anchor="middle" x="54" y="-39.5" font-family="Helvetica,sans-Serif" font-size="10.00">obstacles</text>
</a>
</g>
</g>
</g>
</svg>
