<?xml version="1.0" encoding="UTF-8" standalone="no"?>
<!DOCTYPE svg PUBLIC "-//W3C//DTD SVG 1.1//EN"
 "http://www.w3.org/Graphics/SVG/1.1/DTD/svg11.dtd">
<!-- Generated by graphviz version 3.0.0 (20221109.1736)
 -->
<!-- Title: src/main/java/eu/anwar/madrunner Pages: 1 -->
<svg width="262pt" height="111pt"
 viewBox="0.00 0.00 262.00 111.00" xmlns="http://www.w3.org/2000/svg" xmlns:xlink="http://www.w3.org/1999/xlink">
<g id="graph0" class="graph" transform="scale(1 1) rotate(0) translate(4 107)">
<title>src/main/java/eu/anwar/madrunner</title>
<polygon fill="white" stroke="transparent" points="-4,4 -4,-107 258,-107 258,4 -4,4"/>
<g id="clust1" class="cluster">
<title>clusterdir_5f70ab23505cf858629be064ed19a88e</title>
<g id="a_clust1"><a xlink:href="dir_5f70ab23505cf858629be064ed19a88e.html" target="_top" xlink:title="anwar">
<polygon fill="#edf0f7" stroke="#7f7f7f" stroke-dasharray="5,2" points="8,-8 8,-95 246,-95 246,-8 8,-8"/>
<text text-anchor="middle" x="127" y="-83" font-family="Helvetica,sans-Serif" font-size="10.00">anwar</text>
</a>
</g>
</g>
<g id="clust2" class="cluster">
<title>clusterdir_308b30cf287805664aa312c333abbdff</title>
<g id="a_clust2"><a xlink:href="dir_308b30cf287805664aa312c333abbdff.html" target="_top">
<polygon fill="#edf0f7" stroke="#404040" stroke-width="2" points="16,-16 16,-68 238,-68 238,-16 16,-16"/>
</a>
</g>
</g>
<!-- dir_308b30cf287805664aa312c333abbdff -->
<g id="node1" class="node">
<title>dir_308b30cf287805664aa312c333abbdff</title>
<text text-anchor="middle" x="199" y="-39.5" font-family="Helvetica,sans-Serif" font-size="10.00">madrunner</text>
</g>
<!-- dir_b734a2d5e35f16c49c52b5a3697c9c61 -->
<g id="node2" class="node">
<title>dir_b734a2d5e35f16c49c52b5a3697c9c61</title>
<g id="a_node2"><a xlink:href="dir_b734a2d5e35f16c49c52b5a3697c9c61.html" target="_top" xlink:title="logic">
<polygon fill="#a2b4d6" stroke="#404040" points="150,-60 96,-60 96,-24 150,-24 150,-60"/>
<text text-anchor="middle" x="123" y="-39.5" font-family="Helvetica,sans-Serif" font-size="10.00">logic</text>
</a>
</g>
</g>
<!-- dir_b7c58830cb01cf23e99964038a4a01b1 -->
<g id="node3" class="node">
<title>dir_b7c58830cb01cf23e99964038a4a01b1</title>
<g id="a_node3"><a xlink:href="dir_b7c58830cb01cf23e99964038a4a01b1.html" target="_top" xlink:title="objects">
<polygon fill="#a2b4d6" stroke="#404040" points="78,-60 24,-60 24,-24 78,-24 78,-60"/>
<text text-anchor="middle" x="51" y="-39.5" font-family="Helvetica,sans-Serif" font-size="10.00">objects</text>
</a>
</g>
</g>
</g>
</svg>
