<?xml version="1.0" encoding="UTF-8" standalone="no"?>
<!DOCTYPE svg PUBLIC "-//W3C//DTD SVG 1.1//EN"
 "http://www.w3.org/Graphics/SVG/1.1/DTD/svg11.dtd">
<!-- Generated by graphviz version 3.0.0 (20221109.1736)
 -->
<!-- Title: Graphical Class Hierarchy Pages: 1 -->
<svg width="658pt" height="123pt"
 viewBox="0.00 0.00 658.00 123.00" xmlns="http://www.w3.org/2000/svg" xmlns:xlink="http://www.w3.org/1999/xlink">
<g id="graph0" class="graph" transform="scale(1 1) rotate(0) translate(4 119)">
<title>Graphical Class Hierarchy</title>
<polygon fill="white" stroke="transparent" points="-4,4 -4,-119 654,-119 654,4 -4,4"/>
<!-- Node0 -->
<g id="node1" class="node">
<title>Node0</title>
<g id="a_node1"><a xlink:href="classobjects_1_1GameObject.html" target="_top" xlink:title=" ">
<polygon fill="white" stroke="black" points="0,-38.5 0,-57.5 105,-57.5 105,-38.5 0,-38.5"/>
<text text-anchor="middle" x="52.5" y="-45.5" font-family="Helvetica,sans-Serif" font-size="10.00">objects.GameObject</text>
</a>
</g>
</g>
<!-- Node1 -->
<g id="node2" class="node">
<title>Node1</title>
<g id="a_node2"><a xlink:href="classobjects_1_1GameLaneObject.html" target="_top" xlink:title=" ">
<polygon fill="white" stroke="black" points="145.5,-76.5 145.5,-95.5 272.5,-95.5 272.5,-76.5 145.5,-76.5"/>
<text text-anchor="middle" x="209" y="-83.5" font-family="Helvetica,sans-Serif" font-size="10.00">objects.GameLaneObject</text>
</a>
</g>
</g>
<!-- Node0&#45;&gt;Node1 -->
<g id="edge1" class="edge">
<title>Node0&#45;&gt;Node1</title>
<path fill="none" stroke="midnightblue" d="M102.45,-60.04C124.04,-65.35 149.04,-71.5 169.29,-76.48"/>
<polygon fill="midnightblue" stroke="midnightblue" points="103.03,-56.58 92.49,-57.59 101.36,-63.38 103.03,-56.58"/>
</g>
<!-- Node7 -->
<g id="node8" class="node">
<title>Node7</title>
<g id="a_node8"><a xlink:href="classobjects_1_1Ground.html" target="_top" xlink:title=" ">
<polygon fill="white" stroke="black" points="168,-38.5 168,-57.5 250,-57.5 250,-38.5 168,-38.5"/>
<text text-anchor="middle" x="209" y="-45.5" font-family="Helvetica,sans-Serif" font-size="10.00">objects.Ground</text>
</a>
</g>
</g>
<!-- Node0&#45;&gt;Node7 -->
<g id="edge7" class="edge">
<title>Node0&#45;&gt;Node7</title>
<path fill="none" stroke="midnightblue" d="M115.57,-48C133.15,-48 151.82,-48 167.74,-48"/>
<polygon fill="midnightblue" stroke="midnightblue" points="115.38,-44.5 105.38,-48 115.38,-51.5 115.38,-44.5"/>
</g>
<!-- Node8 -->
<g id="node9" class="node">
<title>Node8</title>
<g id="a_node9"><a xlink:href="classobjects_1_1menus_1_1GamePause.html" target="_top" xlink:title=" ">
<polygon fill="white" stroke="black" points="141,-0.5 141,-19.5 277,-19.5 277,-0.5 141,-0.5"/>
<text text-anchor="middle" x="209" y="-7.5" font-family="Helvetica,sans-Serif" font-size="10.00">objects.menus.GamePause</text>
</a>
</g>
</g>
<!-- Node0&#45;&gt;Node8 -->
<g id="edge8" class="edge">
<title>Node0&#45;&gt;Node8</title>
<path fill="none" stroke="midnightblue" d="M102.45,-35.96C124.04,-30.65 149.04,-24.5 169.29,-19.52"/>
<polygon fill="midnightblue" stroke="midnightblue" points="101.36,-32.62 92.49,-38.41 103.03,-39.42 101.36,-32.62"/>
</g>
<!-- Node2 -->
<g id="node3" class="node">
<title>Node2</title>
<g id="a_node3"><a xlink:href="classobjects_1_1Player.html" target="_top" xlink:title=" ">
<polygon fill="white" stroke="black" points="341.5,-95.5 341.5,-114.5 418.5,-114.5 418.5,-95.5 341.5,-95.5"/>
<text text-anchor="middle" x="380" y="-102.5" font-family="Helvetica,sans-Serif" font-size="10.00">objects.Player</text>
</a>
</g>
</g>
<!-- Node1&#45;&gt;Node2 -->
<g id="edge2" class="edge">
<title>Node1&#45;&gt;Node2</title>
<path fill="none" stroke="midnightblue" d="M282.98,-94.2C303,-96.46 323.89,-98.8 341.06,-100.73"/>
<polygon fill="midnightblue" stroke="midnightblue" points="283.26,-90.71 272.93,-93.07 282.48,-97.67 283.26,-90.71"/>
</g>
<!-- Node3 -->
<g id="node4" class="node">
<title>Node3</title>
<g id="a_node4"><a xlink:href="classobjects_1_1obstacles_1_1Obstacle.html" target="_top" xlink:title=" ">
<polygon fill="white" stroke="black" points="313,-57.5 313,-76.5 447,-76.5 447,-57.5 313,-57.5"/>
<text text-anchor="middle" x="380" y="-64.5" font-family="Helvetica,sans-Serif" font-size="10.00">objects.obstacles.Obstacle</text>
</a>
</g>
</g>
<!-- Node1&#45;&gt;Node3 -->
<g id="edge3" class="edge">
<title>Node1&#45;&gt;Node3</title>
<path fill="none" stroke="midnightblue" d="M283.14,-77.78C293.04,-76.66 303.14,-75.53 312.91,-74.43"/>
<polygon fill="midnightblue" stroke="midnightblue" points="282.48,-74.33 272.93,-78.93 283.26,-81.29 282.48,-74.33"/>
</g>
<!-- Node4 -->
<g id="node5" class="node">
<title>Node4</title>
<g id="a_node5"><a xlink:href="classobjects_1_1obstacles_1_1RoadBlock.html" target="_top" xlink:title=" ">
<polygon fill="white" stroke="black" points="495.5,-95.5 495.5,-114.5 637.5,-114.5 637.5,-95.5 495.5,-95.5"/>
<text text-anchor="middle" x="566.5" y="-102.5" font-family="Helvetica,sans-Serif" font-size="10.00">objects.obstacles.RoadBlock</text>
</a>
</g>
</g>
<!-- Node3&#45;&gt;Node4 -->
<g id="edge4" class="edge">
<title>Node3&#45;&gt;Node4</title>
<path fill="none" stroke="midnightblue" d="M437.37,-78.61C463.61,-84.01 494.44,-90.36 519.28,-95.48"/>
<polygon fill="midnightblue" stroke="midnightblue" points="438.06,-75.18 427.56,-76.59 436.65,-82.03 438.06,-75.18"/>
</g>
<!-- Node5 -->
<g id="node6" class="node">
<title>Node5</title>
<g id="a_node6"><a xlink:href="classobjects_1_1obstacles_1_1Trailer.html" target="_top" xlink:title=" ">
<polygon fill="white" stroke="black" points="505.5,-57.5 505.5,-76.5 627.5,-76.5 627.5,-57.5 505.5,-57.5"/>
<text text-anchor="middle" x="566.5" y="-64.5" font-family="Helvetica,sans-Serif" font-size="10.00">objects.obstacles.Trailer</text>
</a>
</g>
</g>
<!-- Node3&#45;&gt;Node5 -->
<g id="edge5" class="edge">
<title>Node3&#45;&gt;Node5</title>
<path fill="none" stroke="midnightblue" d="M457.48,-67C473.47,-67 490.11,-67 505.4,-67"/>
<polygon fill="midnightblue" stroke="midnightblue" points="457.09,-63.5 447.09,-67 457.09,-70.5 457.09,-63.5"/>
</g>
<!-- Node6 -->
<g id="node7" class="node">
<title>Node6</title>
<g id="a_node7"><a xlink:href="classobjects_1_1obstacles_1_1TrailerWithRamp.html" target="_top" xlink:title=" ">
<polygon fill="white" stroke="black" points="483,-19.5 483,-38.5 650,-38.5 650,-19.5 483,-19.5"/>
<text text-anchor="middle" x="566.5" y="-26.5" font-family="Helvetica,sans-Serif" font-size="10.00">objects.obstacles.TrailerWithRamp</text>
</a>
</g>
</g>
<!-- Node3&#45;&gt;Node6 -->
<g id="edge6" class="edge">
<title>Node3&#45;&gt;Node6</title>
<path fill="none" stroke="midnightblue" d="M437.37,-55.39C463.61,-49.99 494.44,-43.64 519.28,-38.52"/>
<polygon fill="midnightblue" stroke="midnightblue" points="436.65,-51.97 427.56,-57.41 438.06,-58.82 436.65,-51.97"/>
</g>
<!-- Node9 -->
<g id="node10" class="node">
<title>Node9</title>
<g id="a_node10"><a xlink:href="classobjects_1_1menus_1_1GameOver.html" target="_top" xlink:title=" ">
<polygon fill="white" stroke="black" points="315.5,-0.5 315.5,-19.5 444.5,-19.5 444.5,-0.5 315.5,-0.5"/>
<text text-anchor="middle" x="380" y="-7.5" font-family="Helvetica,sans-Serif" font-size="10.00">objects.menus.GameOver</text>
</a>
</g>
</g>
<!-- Node8&#45;&gt;Node9 -->
<g id="edge9" class="edge">
<title>Node8&#45;&gt;Node9</title>
<path fill="none" stroke="midnightblue" d="M287.34,-10C296.68,-10 306.14,-10 315.25,-10"/>
<polygon fill="midnightblue" stroke="midnightblue" points="287.28,-6.5 277.28,-10 287.28,-13.5 287.28,-6.5"/>
</g>
</g>
</svg>
