<?xml version="1.0" encoding="UTF-8" standalone="no"?>
<!DOCTYPE svg PUBLIC "-//W3C//DTD SVG 1.1//EN"
 "http://www.w3.org/Graphics/SVG/1.1/DTD/svg11.dtd">
<!-- Generated by graphviz version 8.0.3 (0)
 -->
<!-- Title: Graphical Class Hierarchy Pages: 1 -->
<svg width="564pt" height="119pt"
 viewBox="0.00 0.00 564.00 119.00" xmlns="http://www.w3.org/2000/svg" xmlns:xlink="http://www.w3.org/1999/xlink">
<g id="graph0" class="graph" transform="scale(1 1) rotate(0) translate(4 115)">
<title>Graphical Class Hierarchy</title>
<!-- Node0 -->
<g id="node1" class="node">
<title>Node0</title>
<g id="a_node1"><a xlink:href="classobjects_1_1GameObject.html" target="_top" xlink:title=" ">
<polygon fill="white" stroke="#666666" points="106,-56 0,-56 0,-37 106,-37 106,-56"/>
<text text-anchor="middle" x="53" y="-44" font-family="Helvetica,sans-Serif" font-size="10.00">objects.GameObject</text>
</a>
</g>
</g>
<!-- Node1 -->
<g id="node2" class="node">
<title>Node1</title>
<g id="a_node2"><a xlink:href="classlogic_1_1Logic_1_1Score.html" target="_top" xlink:title=" ">
<polygon fill="white" stroke="#666666" points="251.5,-93 159.5,-93 159.5,-74 251.5,-74 251.5,-93"/>
<text text-anchor="middle" x="205.5" y="-81" font-family="Helvetica,sans-Serif" font-size="10.00">logic.Logic.Score</text>
</a>
</g>
</g>
<!-- Node0&#45;&gt;Node1 -->
<g id="edge1" class="edge">
<title>Node0&#45;&gt;Node1</title>
<path fill="none" stroke="#63b8ff" d="M104.78,-58.98C124.09,-63.73 145.82,-69.07 164.06,-73.56"/>
<polygon fill="#63b8ff" stroke="#63b8ff" points="105.88,-55.4 95.33,-56.42 104.21,-62.2 105.88,-55.4"/>
</g>
<!-- Node2 -->
<g id="node3" class="node">
<title>Node2</title>
<g id="a_node3"><a xlink:href="classobjects_1_1GameLaneObject.html" target="_top" xlink:title=" ">
<polygon fill="white" stroke="#666666" points="269,-56 142,-56 142,-37 269,-37 269,-56"/>
<text text-anchor="middle" x="205.5" y="-44" font-family="Helvetica,sans-Serif" font-size="10.00">objects.GameLaneObject</text>
</a>
</g>
</g>
<!-- Node0&#45;&gt;Node2 -->
<g id="edge2" class="edge">
<title>Node0&#45;&gt;Node2</title>
<path fill="none" stroke="#63b8ff" d="M117.15,-46.5C125.29,-46.5 133.62,-46.5 141.75,-46.5"/>
<polygon fill="#63b8ff" stroke="#63b8ff" points="117.22,-43 107.22,-46.5 117.22,-50 117.22,-43"/>
</g>
<!-- Node8 -->
<g id="node9" class="node">
<title>Node8</title>
<g id="a_node9"><a xlink:href="classobjects_1_1Ground.html" target="_top" xlink:title=" ">
<polygon fill="white" stroke="#666666" points="247,-19 164,-19 164,0 247,0 247,-19"/>
<text text-anchor="middle" x="205.5" y="-7" font-family="Helvetica,sans-Serif" font-size="10.00">objects.Ground</text>
</a>
</g>
</g>
<!-- Node0&#45;&gt;Node8 -->
<g id="edge8" class="edge">
<title>Node0&#45;&gt;Node8</title>
<path fill="none" stroke="#63b8ff" d="M104.78,-34.02C124.09,-29.27 145.82,-23.93 164.06,-19.44"/>
<polygon fill="#63b8ff" stroke="#63b8ff" points="104.21,-30.8 95.33,-36.58 105.88,-37.6 104.21,-30.8"/>
</g>
<!-- Node3 -->
<g id="node4" class="node">
<title>Node3</title>
<g id="a_node4"><a xlink:href="classobjects_1_1Obstacle.html" target="_top" xlink:title=" ">
<polygon fill="white" stroke="#666666" points="395,-74 305,-74 305,-55 395,-55 395,-74"/>
<text text-anchor="middle" x="350" y="-62" font-family="Helvetica,sans-Serif" font-size="10.00">objects.Obstacle</text>
</a>
</g>
</g>
<!-- Node2&#45;&gt;Node3 -->
<g id="edge3" class="edge">
<title>Node2&#45;&gt;Node3</title>
<path fill="none" stroke="#63b8ff" d="M280.09,-55.8C288.53,-56.86 296.92,-57.92 304.79,-58.92"/>
<polygon fill="#63b8ff" stroke="#63b8ff" points="280.78,-52.23 270.42,-54.45 279.9,-59.17 280.78,-52.23"/>
</g>
<!-- Node7 -->
<g id="node8" class="node">
<title>Node7</title>
<g id="a_node8"><a xlink:href="classobjects_1_1Player.html" target="_top" xlink:title=" ">
<polygon fill="white" stroke="#666666" points="389.5,-37 310.5,-37 310.5,-18 389.5,-18 389.5,-37"/>
<text text-anchor="middle" x="350" y="-25" font-family="Helvetica,sans-Serif" font-size="10.00">objects.Player</text>
</a>
</g>
</g>
<!-- Node2&#45;&gt;Node7 -->
<g id="edge7" class="edge">
<title>Node2&#45;&gt;Node7</title>
<path fill="none" stroke="#63b8ff" d="M280.19,-36.67C290.54,-35.29 300.82,-33.92 310.16,-32.68"/>
<polygon fill="#63b8ff" stroke="#63b8ff" points="279.87,-33.32 270.42,-38.11 280.79,-40.26 279.87,-33.32"/>
</g>
<!-- Node4 -->
<g id="node5" class="node">
<title>Node4</title>
<g id="a_node5"><a xlink:href="classobjects_1_1RoadBlock.html" target="_top" xlink:title=" ">
<polygon fill="white" stroke="#666666" points="543,-111 444,-111 444,-92 543,-92 543,-111"/>
<text text-anchor="middle" x="493.5" y="-99" font-family="Helvetica,sans-Serif" font-size="10.00">objects.RoadBlock</text>
</a>
</g>
</g>
<!-- Node3&#45;&gt;Node4 -->
<g id="edge4" class="edge">
<title>Node3&#45;&gt;Node4</title>
<path fill="none" stroke="#63b8ff" d="M399.5,-77.18C417.47,-81.88 437.57,-87.14 454.48,-91.56"/>
<polygon fill="#63b8ff" stroke="#63b8ff" points="400.48,-73.56 389.92,-74.42 398.71,-80.33 400.48,-73.56"/>
</g>
<!-- Node5 -->
<g id="node6" class="node">
<title>Node5</title>
<g id="a_node6"><a xlink:href="classobjects_1_1Trailer.html" target="_top" xlink:title=" ">
<polygon fill="white" stroke="#666666" points="532.5,-74 454.5,-74 454.5,-55 532.5,-55 532.5,-74"/>
<text text-anchor="middle" x="493.5" y="-62" font-family="Helvetica,sans-Serif" font-size="10.00">objects.Trailer</text>
</a>
</g>
</g>
<!-- Node3&#45;&gt;Node5 -->
<g id="edge5" class="edge">
<title>Node3&#45;&gt;Node5</title>
<path fill="none" stroke="#63b8ff" d="M406.22,-64.5C422.2,-64.5 439.29,-64.5 454,-64.5"/>
<polygon fill="#63b8ff" stroke="#63b8ff" points="406.38,-61 396.38,-64.5 406.38,-68 406.38,-61"/>
</g>
<!-- Node6 -->
<g id="node7" class="node">
<title>Node6</title>
<g id="a_node7"><a xlink:href="classobjects_1_1TrailerWithRamp.html" target="_top" xlink:title=" ">
<polygon fill="white" stroke="#666666" points="556,-37 431,-37 431,-18 556,-18 556,-37"/>
<text text-anchor="middle" x="493.5" y="-25" font-family="Helvetica,sans-Serif" font-size="10.00">objects.TrailerWithRamp</text>
</a>
</g>
</g>
<!-- Node3&#45;&gt;Node6 -->
<g id="edge6" class="edge">
<title>Node3&#45;&gt;Node6</title>
<path fill="none" stroke="#63b8ff" d="M399.5,-51.82C417.47,-47.12 437.57,-41.86 454.48,-37.44"/>
<polygon fill="#63b8ff" stroke="#63b8ff" points="398.71,-48.67 389.92,-54.58 400.48,-55.44 398.71,-48.67"/>
</g>
</g>
</svg>
