<?xml version="1.0" encoding="UTF-8" standalone="no"?>
<!DOCTYPE svg PUBLIC "-//W3C//DTD SVG 1.1//EN"
 "http://www.w3.org/Graphics/SVG/1.1/DTD/svg11.dtd">
<!-- Generated by graphviz version 3.0.0 (20221109.1736)
 -->
<!-- Title: Graphical Class Hierarchy Pages: 1 -->
<svg width="1014pt" height="123pt"
 viewBox="0.00 0.00 1014.00 123.00" xmlns="http://www.w3.org/2000/svg" xmlns:xlink="http://www.w3.org/1999/xlink">
<g id="graph0" class="graph" transform="scale(1 1) rotate(0) translate(4 119)">
<title>Graphical Class Hierarchy</title>
<polygon fill="white" stroke="transparent" points="-4,4 -4,-119 1010,-119 1010,4 -4,4"/>
<!-- Node0 -->
<g id="node1" class="node">
<title>Node0</title>
<g id="a_node1"><a xlink:href="classeu_1_1anwar_1_1madrunner_1_1objects_1_1GameObject.html" target="_top" xlink:title=" ">
<polygon fill="white" stroke="black" points="0,-38.5 0,-57.5 194,-57.5 194,-38.5 0,-38.5"/>
<text text-anchor="middle" x="97" y="-45.5" font-family="Helvetica,sans-Serif" font-size="10.00">eu.anwar.madrunner.objects.GameObject</text>
</a>
</g>
</g>
<!-- Node1 -->
<g id="node2" class="node">
<title>Node1</title>
<g id="a_node2"><a xlink:href="classeu_1_1anwar_1_1madrunner_1_1objects_1_1GameLaneObject.html" target="_top" xlink:title=" ">
<polygon fill="white" stroke="black" points="234.5,-76.5 234.5,-95.5 450.5,-95.5 450.5,-76.5 234.5,-76.5"/>
<text text-anchor="middle" x="342.5" y="-83.5" font-family="Helvetica,sans-Serif" font-size="10.00">eu.anwar.madrunner.objects.GameLaneObject</text>
</a>
</g>
</g>
<!-- Node0&#45;&gt;Node1 -->
<g id="edge1" class="edge">
<title>Node0&#45;&gt;Node1</title>
<path fill="none" stroke="midnightblue" d="M169.35,-59.13C204.57,-64.63 246.62,-71.19 280.34,-76.46"/>
<polygon fill="midnightblue" stroke="midnightblue" points="169.55,-55.62 159.13,-57.54 168.47,-62.54 169.55,-55.62"/>
</g>
<!-- Node7 -->
<g id="node8" class="node">
<title>Node7</title>
<g id="a_node8"><a xlink:href="classeu_1_1anwar_1_1madrunner_1_1objects_1_1Ground.html" target="_top" xlink:title=" ">
<polygon fill="white" stroke="black" points="257,-38.5 257,-57.5 428,-57.5 428,-38.5 257,-38.5"/>
<text text-anchor="middle" x="342.5" y="-45.5" font-family="Helvetica,sans-Serif" font-size="10.00">eu.anwar.madrunner.objects.Ground</text>
</a>
</g>
</g>
<!-- Node0&#45;&gt;Node7 -->
<g id="edge7" class="edge">
<title>Node0&#45;&gt;Node7</title>
<path fill="none" stroke="midnightblue" d="M204.52,-48C222.08,-48 240.07,-48 257,-48"/>
<polygon fill="midnightblue" stroke="midnightblue" points="204.24,-44.5 194.24,-48 204.24,-51.5 204.24,-44.5"/>
</g>
<!-- Node8 -->
<g id="node9" class="node">
<title>Node8</title>
<g id="a_node9"><a xlink:href="classeu_1_1anwar_1_1madrunner_1_1objects_1_1menus_1_1GamePause.html" target="_top" xlink:title=" ">
<polygon fill="white" stroke="black" points="230,-0.5 230,-19.5 455,-19.5 455,-0.5 230,-0.5"/>
<text text-anchor="middle" x="342.5" y="-7.5" font-family="Helvetica,sans-Serif" font-size="10.00">eu.anwar.madrunner.objects.menus.GamePause</text>
</a>
</g>
</g>
<!-- Node0&#45;&gt;Node8 -->
<g id="edge8" class="edge">
<title>Node0&#45;&gt;Node8</title>
<path fill="none" stroke="midnightblue" d="M169.35,-36.87C204.57,-31.37 246.62,-24.81 280.34,-19.54"/>
<polygon fill="midnightblue" stroke="midnightblue" points="168.47,-33.46 159.13,-38.46 169.55,-40.38 168.47,-33.46"/>
</g>
<!-- Node2 -->
<g id="node3" class="node">
<title>Node2</title>
<g id="a_node3"><a xlink:href="classeu_1_1anwar_1_1madrunner_1_1objects_1_1Player.html" target="_top" xlink:title=" ">
<polygon fill="white" stroke="black" points="519,-95.5 519,-114.5 686,-114.5 686,-95.5 519,-95.5"/>
<text text-anchor="middle" x="602.5" y="-102.5" font-family="Helvetica,sans-Serif" font-size="10.00">eu.anwar.madrunner.objects.Player</text>
</a>
</g>
</g>
<!-- Node1&#45;&gt;Node2 -->
<g id="edge2" class="edge">
<title>Node1&#45;&gt;Node2</title>
<path fill="none" stroke="midnightblue" d="M460.84,-94.64C480.35,-96.08 500.23,-97.54 518.65,-98.9"/>
<polygon fill="midnightblue" stroke="midnightblue" points="460.9,-91.14 450.67,-93.89 460.39,-98.12 460.9,-91.14"/>
</g>
<!-- Node3 -->
<g id="node4" class="node">
<title>Node3</title>
<g id="a_node4"><a xlink:href="classeu_1_1anwar_1_1madrunner_1_1objects_1_1obstacles_1_1Obstacle.html" target="_top" xlink:title=" ">
<polygon fill="white" stroke="black" points="491,-57.5 491,-76.5 714,-76.5 714,-57.5 491,-57.5"/>
<text text-anchor="middle" x="602.5" y="-64.5" font-family="Helvetica,sans-Serif" font-size="10.00">eu.anwar.madrunner.objects.obstacles.Obstacle</text>
</a>
</g>
</g>
<!-- Node1&#45;&gt;Node3 -->
<g id="edge3" class="edge">
<title>Node1&#45;&gt;Node3</title>
<path fill="none" stroke="midnightblue" d="M460.69,-77.37C470.75,-76.63 480.91,-75.88 490.92,-75.14"/>
<polygon fill="midnightblue" stroke="midnightblue" points="460.39,-73.88 450.67,-78.11 460.9,-80.86 460.39,-73.88"/>
</g>
<!-- Node4 -->
<g id="node5" class="node">
<title>Node4</title>
<g id="a_node5"><a xlink:href="classeu_1_1anwar_1_1madrunner_1_1objects_1_1obstacles_1_1RoadBlock.html" target="_top" xlink:title=" ">
<polygon fill="white" stroke="black" points="762.5,-95.5 762.5,-114.5 993.5,-114.5 993.5,-95.5 762.5,-95.5"/>
<text text-anchor="middle" x="878" y="-102.5" font-family="Helvetica,sans-Serif" font-size="10.00">eu.anwar.madrunner.objects.obstacles.RoadBlock</text>
</a>
</g>
</g>
<!-- Node3&#45;&gt;Node4 -->
<g id="edge4" class="edge">
<title>Node3&#45;&gt;Node4</title>
<path fill="none" stroke="midnightblue" d="M682.11,-77.92C721.98,-83.46 769.94,-90.13 808.31,-95.46"/>
<polygon fill="midnightblue" stroke="midnightblue" points="682.55,-74.45 672.16,-76.54 681.59,-81.38 682.55,-74.45"/>
</g>
<!-- Node5 -->
<g id="node6" class="node">
<title>Node5</title>
<g id="a_node6"><a xlink:href="classeu_1_1anwar_1_1madrunner_1_1objects_1_1obstacles_1_1Trailer.html" target="_top" xlink:title=" ">
<polygon fill="white" stroke="black" points="772.5,-57.5 772.5,-76.5 983.5,-76.5 983.5,-57.5 772.5,-57.5"/>
<text text-anchor="middle" x="878" y="-64.5" font-family="Helvetica,sans-Serif" font-size="10.00">eu.anwar.madrunner.objects.obstacles.Trailer</text>
</a>
</g>
</g>
<!-- Node3&#45;&gt;Node5 -->
<g id="edge5" class="edge">
<title>Node3&#45;&gt;Node5</title>
<path fill="none" stroke="midnightblue" d="M724.7,-67C740.54,-67 756.65,-67 772.19,-67"/>
<polygon fill="midnightblue" stroke="midnightblue" points="724.35,-63.5 714.35,-67 724.35,-70.5 724.35,-63.5"/>
</g>
<!-- Node6 -->
<g id="node7" class="node">
<title>Node6</title>
<g id="a_node7"><a xlink:href="classeu_1_1anwar_1_1madrunner_1_1objects_1_1obstacles_1_1TrailerWithRamp.html" target="_top" xlink:title=" ">
<polygon fill="white" stroke="black" points="750,-19.5 750,-38.5 1006,-38.5 1006,-19.5 750,-19.5"/>
<text text-anchor="middle" x="878" y="-26.5" font-family="Helvetica,sans-Serif" font-size="10.00">eu.anwar.madrunner.objects.obstacles.TrailerWithRamp</text>
</a>
</g>
</g>
<!-- Node3&#45;&gt;Node6 -->
<g id="edge6" class="edge">
<title>Node3&#45;&gt;Node6</title>
<path fill="none" stroke="midnightblue" d="M682.11,-56.08C721.98,-50.54 769.94,-43.87 808.31,-38.54"/>
<polygon fill="midnightblue" stroke="midnightblue" points="681.59,-52.62 672.16,-57.46 682.55,-59.55 681.59,-52.62"/>
</g>
<!-- Node9 -->
<g id="node10" class="node">
<title>Node9</title>
<g id="a_node10"><a xlink:href="classeu_1_1anwar_1_1madrunner_1_1objects_1_1menus_1_1GameOver.html" target="_top" xlink:title=" ">
<polygon fill="white" stroke="black" points="493.5,-0.5 493.5,-19.5 711.5,-19.5 711.5,-0.5 493.5,-0.5"/>
<text text-anchor="middle" x="602.5" y="-7.5" font-family="Helvetica,sans-Serif" font-size="10.00">eu.anwar.madrunner.objects.menus.GameOver</text>
</a>
</g>
</g>
<!-- Node8&#45;&gt;Node9 -->
<g id="edge9" class="edge">
<title>Node8&#45;&gt;Node9</title>
<path fill="none" stroke="midnightblue" d="M465.29,-10C474.66,-10 484.07,-10 493.34,-10"/>
<polygon fill="midnightblue" stroke="midnightblue" points="465.16,-6.5 455.16,-10 465.16,-13.5 465.16,-6.5"/>
</g>
</g>
</svg>
